<?xml version="1.0" encoding="utf-8" ?><svg xmlns="http://www.w3.org/2000/svg" xmlns:xlink="http://www.w3.org/1999/xlink" width="200" height="185" viewBox="0 0 200 185"><clipPath id="cl_6"><rect x="-5.7220459e-05" y="1.9073486e-05" width="200" height="185"/></clipPath><g clip-path="url(#cl_6)"><path fill="#90A245" transform="matrix(0.273973 0 0 0.274481 -37.5343 -48.8575)" d="M398.385 634.416C375.569 601.482 377.063 565.72 371.561 527.65C369.509 514.046 367.275 500.471 364.861 486.927C362.415 472.626 359.825 458.435 360.112 443.86C360.379 430.362 363.34 412.687 373.765 403.047C378.939 398.262 385.538 396.07 392.522 396.285C399.704 396.507 406.486 398.928 411.099 404.66C428.661 426.487 429.582 494.61 432.021 522.99C433.052 534.992 434.628 547.098 437.284 558.855C440.817 574.491 445.766 588.286 456.995 600.054C461.565 604.843 476.594 617.694 483.231 617.846C485.269 616.326 484.689 611.632 484.409 609.256C478.495 555.94 475.521 502.81 471.403 449.275C466.367 383.79 461.132 316.343 468.024 250.835C470.166 230.474 483.037 198.122 505.675 193.186C512.02 191.83 518.644 193.102 524.035 196.713C548.923 213.024 550.652 264.148 551.963 291.25C553.373 320.379 552.042 349.544 552.809 378.611C554.129 428.611 556.626 478.633 558.126 528.63L558.841 558.793C558.992 565.467 558.816 574.655 560.37 581.046C562.778 581.15 567.332 581.696 569.15 580.318L569.31 578.682C569.898 561.995 573.001 537.986 587.337 527.578C595.378 523.244 600.268 523.416 608.542 527.086C609.694 522.498 610.174 513.597 610.228 508.729C610.596 475.793 606.752 442.672 610.401 409.766C611.063 403.801 612.144 397.87 614.034 392.181C620.734 370.22 647.415 353.674 662.725 379.148C667.225 386.636 669.364 394.712 670.658 403.407C672.518 419.592 672.033 437.61 672.012 453.972C672.017 466.56 671.901 479.148 671.662 491.734C671.186 533.996 669.109 579.906 632.361 608.04C630.147 609.735 619.446 616.644 618.655 617.612C619.115 624.75 618.291 631.725 618.597 638.73C624.959 636.708 629.024 633.758 631.966 627.364C637.375 615.421 644.291 595.532 661.497 603.836C665.32 605.681 668.899 610.994 669.709 615.042C673.62 634.572 661.413 654.965 650.359 669.671C651.866 670.292 656.45 672.16 657.402 673.038C661.892 677.187 666.383 682.511 670.718 686.865C674.424 690.587 686.548 699.908 688.408 703.404C687.953 705.841 688.699 707.327 689.721 709.609C691.009 711.503 693.36 715.979 694.674 717.12C696.365 719.171 698.855 722.001 700.382 724.066L699.893 725.924C702.437 729.376 704.978 734.01 708.835 735.041C709.643 739.313 710.2 739.808 708.803 743.826C712.834 744.156 716.984 743.816 720.991 744.18C732.774 745.316 743.659 750.971 751.364 759.958C759.702 769.834 769.702 793.432 757.829 803.491C752.334 808.147 741.603 808.344 734.918 810.011C725.743 813.389 724.342 815.757 713.631 816.878C707.813 817.488 697.992 815.438 694.932 815.882C686.165 817.155 683.99 821.162 672.99 819.434C659.777 817.358 655.045 811.056 641.605 807.158C643.623 816.188 645.497 818.509 634.19 820.399C614.96 823.612 595.188 826.731 575.639 825.767C571.268 825.534 564.088 823.33 559.97 822.055C556.666 822.005 552.197 820.679 549.009 819.771C543.763 833.582 532.623 827.816 522.214 828.168L464.482 829.593C448.001 830.13 429.857 837.312 431.777 811.742C428.766 809.679 423.162 811.474 418.471 808.323C412.656 811.543 408.294 812.883 401.476 811.158C387.235 815.69 374.183 814.98 359.409 814.981C347.387 814.981 334.832 815.546 322.872 814.979C316.252 815.916 286.928 815.94 279.818 813.698C272.562 811.339 266.958 805.988 263.342 799.443C255.553 785.343 264.87 770.953 269.038 756.613C276.712 730.21 291.405 718.723 315.199 706.791C310.306 692.444 296.416 674.046 288.566 660.376C285.518 655.069 280.78 651.967 277.135 644.877C298.702 652.302 312.844 677.737 324.073 696.49C322.926 687.438 317.437 638.633 323.976 634.315L324.868 634.597C327.773 643.267 328.446 653.629 329.894 662.81C331.952 676.175 334.597 689.444 337.821 702.576C341.994 698.48 347.997 685.67 350.755 680.152C351.407 678.774 352.072 677.402 352.749 676.035C359.923 661.801 377.161 642.508 392.858 637.279C393.694 636.643 397.245 634.981 398.385 634.416ZM564.491 633.681C563.515 633.984 562.615 634.007 562.384 634.699C560.844 639.321 561.91 653.7 562.659 658.138C563.686 653.022 564.189 639.454 564.491 633.681Z"/><defs><linearGradient id="gradient_0" gradientUnits="userSpaceOnUse" x1="478.46506" y1="750.84406" x2="295.03391" y2="716.15076"><stop offset="0" stop-color="#463E26"/><stop offset="1" stop-color="#8A816D"/></linearGradient></defs><path fill="url(#gradient_0)" transform="matrix(0.273973 0 0 0.274481 -37.5343 -48.8575)" d="M398.385 634.416C414.111 651.045 427.642 655.307 449.25 661.555C458.807 664.318 479.02 663.556 485.904 668.452C489.335 670.892 490.206 687.129 490.707 692.161C494.348 705.477 494.079 725.098 496.324 739.228C499.256 757.678 507.722 750.916 517.676 759.728C524.309 761.839 527.265 764.179 532.404 768.837L538.21 775.465C544.156 791.676 548.958 802.008 549.009 819.771C543.763 833.582 532.623 827.816 522.214 828.168L464.482 829.593C448.001 830.13 429.857 837.312 431.777 811.742C428.766 809.679 423.162 811.474 418.471 808.323C412.656 811.543 408.294 812.883 401.476 811.158C387.235 815.69 374.183 814.98 359.409 814.981C347.387 814.981 334.832 815.546 322.872 814.979C316.252 815.916 286.928 815.94 279.818 813.698C272.562 811.339 266.958 805.988 263.342 799.443C255.553 785.343 264.87 770.953 269.038 756.613C276.712 730.21 291.405 718.723 315.199 706.791C310.306 692.444 296.416 674.046 288.566 660.376C285.518 655.069 280.78 651.967 277.135 644.877C298.702 652.302 312.844 677.737 324.073 696.49C322.926 687.438 317.437 638.633 323.976 634.315L324.868 634.597C327.773 643.267 328.446 653.629 329.894 662.81C331.952 676.175 334.597 689.444 337.821 702.576C341.994 698.48 347.997 685.67 350.755 680.152C351.407 678.774 352.072 677.402 352.749 676.035C359.923 661.801 377.161 642.508 392.858 637.279C393.694 636.643 397.245 634.981 398.385 634.416Z"/><defs><linearGradient id="gradient_1" gradientUnits="userSpaceOnUse" x1="337.5723" y1="780.00488" x2="255.92969" y2="662.53394"><stop offset="0" stop-color="#7A6F5A"/><stop offset="1" stop-color="#8C957F"/></linearGradient></defs><path fill="url(#gradient_1)" transform="matrix(0.273973 0 0 0.274481 -37.5343 -48.8575)" d="M324.073 696.49C322.926 687.438 317.437 638.633 323.976 634.315L324.868 634.597C327.773 643.267 328.446 653.629 329.894 662.81C331.952 676.175 334.597 689.444 337.821 702.576C340.578 703.302 343.525 702.922 346.385 703.057C351.044 703.276 356.9 702.507 361.288 704.324C364.814 705.785 368.249 709.185 370.99 711.787C375.035 715.804 378.788 720.381 381.907 725.162C383.695 727.903 385.414 730.945 386.496 734.05C386.964 735.344 387.286 736.689 387.79 737.971C388.226 738.102 388.661 738.233 389.097 738.365C389.952 742.657 390.831 746.947 391.584 751.259C392.019 753.752 392.185 756.28 392.271 758.807C392.395 762.59 392.483 766.387 392.304 770.169C392.282 770.535 392.065 770.904 391.901 771.222C390.114 768.155 393.142 753.758 390.579 749.476C389.147 747.085 390.162 741.387 387.216 739.169C387.317 741.366 387.808 744.429 387.015 746.249C386.914 746.288 384.107 746.901 384.532 746.226C380.64 752.406 371.286 746.018 368.728 752.897C366.767 754.17 363.347 755.235 362.424 755.938C354.666 761.844 355.879 762.754 346.356 765.697C345.76 766.888 343.742 771.065 342.903 771.537C330.491 778.522 317.017 780.599 307.394 792.202C304.941 795.159 286.88 807.317 283.281 807.285C281.454 808.395 278.344 810.011 277.179 811.618C284.03 817.321 319.081 812.584 322.872 814.979C316.252 815.916 286.928 815.94 279.818 813.698C272.562 811.339 266.958 805.988 263.342 799.443C255.553 785.343 264.87 770.953 269.038 756.613C276.712 730.21 291.405 718.723 315.199 706.791C310.306 692.444 296.416 674.046 288.566 660.376C285.518 655.069 280.78 651.967 277.135 644.877C298.702 652.302 312.844 677.737 324.073 696.49Z"/><defs><linearGradient id="gradient_2" gradientUnits="userSpaceOnUse" x1="531.92438" y1="839.34552" x2="448.11401" y2="767.17389"><stop offset="0" stop-color="#58513C"/><stop offset="1" stop-color="#877F69"/></linearGradient></defs><path fill="url(#gradient_2)" transform="matrix(0.273973 0 0 0.274481 -37.5343 -48.8575)" d="M467.338 753.054C470.122 750.683 479.943 748.602 482.413 751.77C488.076 751.595 494.709 747.935 500.657 752.74C502.151 753.947 503.34 756.234 505.027 756.569C509.569 754.193 513.247 758.744 517.202 760.109L517.676 759.728C524.309 761.839 527.265 764.179 532.404 768.837L538.21 775.465C544.156 791.676 548.958 802.008 549.009 819.771C543.763 833.582 532.623 827.816 522.214 828.168L464.482 829.593C448.001 830.13 429.857 837.312 431.777 811.742C432.396 811.401 432.954 810.862 433.123 810.126C438.085 788.566 441.619 768.901 460.077 754.381C461.974 754.07 461.111 753.935 462.776 754.665L463.038 755.552C462.087 758.18 458.237 760.394 455.871 762.005C457.385 761.648 460.285 760.56 461.866 760.023C462.956 758.959 464.142 757.374 465.121 756.146C464.544 754.901 464.511 754.992 464.631 753.64C465.949 752.586 465.16 752.967 467.338 753.054Z"/><path fill="#6B6D4F" transform="matrix(0.273973 0 0 0.274481 -37.5343 -48.8575)" d="M465.121 756.146C464.544 754.901 464.511 754.992 464.631 753.64C465.949 752.586 465.16 752.967 467.338 753.054L469.446 754.393L469.592 755.191C467.93 755.805 466.849 755.892 465.121 756.146Z"/><path fill="#4F4831" transform="matrix(0.273973 0 0 0.274481 -37.5343 -48.8575)" d="M436.785 818.837L437.357 819.478L436.795 823.663L436.12 822.899C435.705 821.034 436.063 820.6 436.785 818.837Z"/><defs><linearGradient id="gradient_3" gradientUnits="userSpaceOnUse" x1="491.59586" y1="769.75757" x2="403.55841" y2="720.65527"><stop offset="0" stop-color="#585737"/><stop offset="1" stop-color="#839063"/></linearGradient></defs><path fill="url(#gradient_3)" transform="matrix(0.273973 0 0 0.274481 -37.5343 -48.8575)" d="M446.331 706.414C451.74 696.219 465.151 685.045 477.088 683.821C482.43 683.274 485.905 692.969 490.132 693.334L490.707 692.161C494.348 705.477 494.079 725.098 496.324 739.228C499.256 757.678 507.722 750.916 517.676 759.728L517.202 760.109C513.247 758.744 509.569 754.193 505.027 756.569C503.34 756.234 502.151 753.947 500.657 752.74C494.709 747.935 488.076 751.595 482.413 751.77C479.943 748.602 470.122 750.683 467.338 753.054C465.16 752.967 465.949 752.586 464.631 753.64C464.511 754.992 464.544 754.901 465.121 756.146C464.142 757.374 462.956 758.959 461.866 760.023C460.285 760.56 457.385 761.648 455.871 762.005C458.237 760.394 462.087 758.18 463.038 755.552L462.776 754.665C461.111 753.935 461.974 754.07 460.077 754.381C441.619 768.901 438.085 788.566 433.123 810.126C432.954 810.862 432.396 811.401 431.777 811.742C428.766 809.679 423.162 811.474 418.471 808.323L418.214 807.273C421.095 798.275 418.13 792.286 415.557 783.189C414.326 780.459 413.962 779.65 413.256 776.66C412.97 772.586 411.764 770.118 407.742 768.524C405.058 767.461 404.278 765.913 402.695 763.672C399.57 753.7 396.16 747.304 395.402 736.313C406.842 735.92 411.272 749.873 417.366 756.571C419.491 760.161 421.658 764 423.246 767.867L425.219 771.907L426.103 775.178C426.722 776.424 426.711 776.323 427.912 777.062C428.817 778.726 429.763 780.754 431.056 782.081C433.334 771.115 434.227 758.082 435.489 746.886C436.077 741.67 435.728 737.509 436.817 732.116C439.421 727.256 444.697 712.025 446.331 706.414Z"/><path fill="#6B6D4F" transform="matrix(0.273973 0 0 0.274481 -37.5343 -48.8575)" d="M423.246 767.867L425.219 771.907L426.103 775.178C426.722 776.424 426.711 776.323 427.912 777.062C428.817 778.726 429.763 780.754 431.056 782.081C431.497 784.187 430.892 786.963 430.58 789.182L430.121 788.038C428.326 783.675 429.258 779.55 425.764 777.212C424.542 776.395 423.628 769.695 423.246 767.867Z"/><path fill="#7C8967" transform="matrix(0.273973 0 0 0.274481 -37.5343 -48.8575)" d="M413.256 776.66C416.12 776.525 417.956 777.424 418.294 780.498C417.353 782.311 417.706 782.258 415.557 783.189C414.326 780.459 413.962 779.65 413.256 776.66Z"/><path fill="#7C8967" transform="matrix(0.273973 0 0 0.274481 -37.5343 -48.8575)" d="M421.136 778.12C422.577 778.257 422.655 778.126 423.799 778.943C425.225 782.189 427.639 787.431 426.842 790.809C422.98 789.499 421.806 781.75 421.136 778.12Z"/><path fill="#4F4831" transform="matrix(0.273973 0 0 0.274481 -37.5343 -48.8575)" d="M401.476 811.158C401.865 810.811 401.937 810.271 402.149 809.663C400.713 807.169 396.35 808.496 396.415 804.334C396.512 798.107 397.141 791.975 397.285 785.738C397.435 779.223 395.609 771.548 396.224 765.218C398.696 761.494 398.055 760.689 396.507 756.448C395.643 754.081 394.654 751.696 393.734 749.346C397.281 753.994 399.617 759.843 402.695 763.672C404.278 765.913 405.058 767.461 407.742 768.524C411.764 770.118 412.97 772.586 413.256 776.66C413.962 779.65 414.326 780.459 415.557 783.189C418.13 792.286 421.095 798.275 418.214 807.273L418.471 808.323C412.656 811.543 408.294 812.883 401.476 811.158Z"/><path fill="#6B6D4F" transform="matrix(0.273973 0 0 0.274481 -37.5343 -48.8575)" d="M350.755 680.152C351.407 678.774 352.072 677.402 352.749 676.035C359.923 661.801 377.161 642.508 392.858 637.279L392.971 637.952C388.825 640.077 377.196 646.285 375.462 650.766C375.944 651.709 376.971 653.324 376.386 654.255C372.424 660.553 365.267 668.122 359.668 673.13C358.471 674.201 355.857 678.186 354.209 679.904C352.556 680.359 352.421 680.262 350.755 680.152Z"/><path fill="#4F4831" transform="matrix(0.273973 0 0 0.274481 -37.5343 -48.8575)" d="M417.366 756.571C414.353 747.841 405.615 736.281 395.817 735.292L393.633 735.074L393.191 734.564C394.7 732.969 399.71 731.41 401.823 731.963C407.269 739.711 425.27 763.33 425.219 771.907L423.246 767.867C421.658 764 419.491 760.161 417.366 756.571Z"/><path fill="#6B6D4F" transform="matrix(0.273973 0 0 0.274481 -37.5343 -48.8575)" d="M446.331 706.414C444.697 712.025 439.421 727.256 436.817 732.116C436.178 726.865 441.82 710.011 446.331 706.414Z"/><path fill="#635C46" transform="matrix(0.273973 0 0 0.274481 -37.5343 -48.8575)" d="M426.103 775.178C428.776 771.614 430.253 758.538 430.08 753.907L430.608 753.551C432.36 758.324 430.578 772.479 427.912 777.062C426.711 776.323 426.722 776.424 426.103 775.178Z"/><path fill="#635C46" transform="matrix(0.273973 0 0 0.274481 -37.5343 -48.8575)" d="M618.597 638.73C624.959 636.708 629.024 633.758 631.966 627.364C637.375 615.421 644.291 595.532 661.497 603.836C665.32 605.681 668.899 610.994 669.709 615.042C673.62 634.572 661.413 654.965 650.359 669.671C651.866 670.292 656.45 672.16 657.402 673.038C661.892 677.187 666.383 682.511 670.718 686.865C674.424 690.587 686.548 699.908 688.408 703.404C687.953 705.841 688.699 707.327 689.721 709.609C691.009 711.503 693.36 715.979 694.674 717.12C696.365 719.171 698.855 722.001 700.382 724.066L699.893 725.924C702.437 729.376 704.978 734.01 708.835 735.041C709.643 739.313 710.2 739.808 708.803 743.826C712.834 744.156 716.984 743.816 720.991 744.18C732.774 745.316 743.659 750.971 751.364 759.958C759.702 769.834 769.702 793.432 757.829 803.491C752.334 808.147 741.603 808.344 734.918 810.011C725.743 813.389 724.342 815.757 713.631 816.878C707.813 817.488 697.992 815.438 694.932 815.882C686.165 817.155 683.99 821.162 672.99 819.434C659.777 817.358 655.045 811.056 641.605 807.158C643.623 816.188 645.497 818.509 634.19 820.399C614.96 823.612 595.188 826.731 575.639 825.767C571.268 825.534 564.088 823.33 559.97 822.055C559.309 821.225 558.735 820.432 558.468 819.408C554.309 803.406 559.709 801.551 565.05 790.653L565.345 790.038C566.944 778.942 565.705 773.497 565.438 762.446C565.208 746.502 564.71 730.564 563.944 714.636C563.894 710.064 564.238 710.544 566.616 706.34L568.278 704.389C569.737 702.878 571.304 701.364 572.798 699.878C573.706 697.778 579.074 692.513 581.119 691.533L582.792 690.105C583.134 686.39 583.437 682.639 583.975 678.951C584.649 678.758 593.995 672.377 595.423 671.507C595.364 662.577 597.028 646.167 597.549 636.556C598.102 632.856 598.476 629.753 598.803 626.026L601.336 624.962C603.694 624.286 609.676 621.634 612.379 620.561L614.568 619.642C616.287 618.977 617.038 618.534 618.655 617.612C619.115 624.75 618.291 631.725 618.597 638.73Z"/><path fill="#6B6D4F" transform="matrix(0.273973 0 0 0.274481 -37.5343 -48.8575)" d="M675.767 783.463C674.663 779.385 673.293 771.533 672.495 767.28C671.109 759.898 660.316 726.736 665.552 721.055L666.595 721.367C672.497 726.836 677.794 753.516 683.01 763.978L683.347 764.644C689.85 752.273 692.764 738.033 699.893 725.924C702.437 729.376 704.978 734.01 708.835 735.041C709.643 739.313 710.2 739.808 708.803 743.826C712.834 744.156 716.984 743.816 720.991 744.18C732.774 745.316 743.659 750.971 751.364 759.958C759.702 769.834 769.702 793.432 757.829 803.491C752.334 808.147 741.603 808.344 734.918 810.011C725.743 813.389 724.342 815.757 713.631 816.878C707.813 817.488 697.992 815.438 694.932 815.882C686.165 817.155 683.99 821.162 672.99 819.434C659.777 817.358 655.045 811.056 641.605 807.158C639.783 805.348 639.167 801.494 638.084 798.676C637.848 795.489 637.298 791.022 637.896 788.023C639.475 787.599 640.307 787.019 641.763 786.249C645.326 789.107 653.391 799.961 658.188 795.07C657.342 785.102 643.421 750.455 648.839 742.639C662.538 739.298 668.168 781.207 672.376 791.037L672.66 791.686L675.767 783.463Z"/><path fill="#4F4831" transform="matrix(0.273973 0 0 0.274481 -37.5343 -48.8575)" d="M694.758 784.015C696.49 774.365 701.514 752.261 706.695 744.555L707.261 744.421C707.216 746.541 705.469 748.038 704.467 750.493C702.866 754.418 701.339 758.752 700.493 762.902C699.219 769.151 702.27 778.568 699.089 784.764C697.422 785.068 697.658 784.822 695.785 784.09L694.758 784.015Z"/><path fill="#4F4831" transform="matrix(0.273973 0 0 0.274481 -37.5343 -48.8575)" d="M713.237 790.366C716.509 790.419 716.943 791.301 719.376 793.609C720.021 796.361 720.241 798.017 720.562 800.766C717.982 799.763 714.25 792.912 713.237 790.366Z"/><path fill="#4F4831" transform="matrix(0.273973 0 0 0.274481 -37.5343 -48.8575)" d="M694.758 784.015L695.785 784.09C694.852 789.365 693.531 793.897 694.464 799.261C694.973 802.196 696.575 805.579 696.452 808.265L695.739 808.8C693.07 794.406 690.713 801.285 694.758 784.015Z"/><path fill="#635C46" transform="matrix(0.273973 0 0 0.274481 -37.5343 -48.8575)" d="M565.345 790.038C568.008 787.953 568.911 785.629 571.159 783.466C577.69 777.181 585.947 769.417 595.779 770.652C607.072 772.534 623.522 780.009 632.046 788.161C634.404 790.416 636.956 797.94 638.084 798.676C639.167 801.494 639.783 805.348 641.605 807.158C643.623 816.188 645.497 818.509 634.19 820.399C614.96 823.612 595.188 826.731 575.639 825.767C571.268 825.534 564.088 823.33 559.97 822.055C559.309 821.225 558.735 820.432 558.468 819.408C554.309 803.406 559.709 801.551 565.05 790.653L565.345 790.038Z"/><path fill="#6B6D4F" transform="matrix(0.273973 0 0 0.274481 -37.5343 -48.8575)" d="M577.438 793.328C578.828 793.835 579.591 795.429 580.163 796.705C583.008 803.057 570.683 808.172 568.837 813.301L569.586 813.696C568.568 814.132 569.011 813.93 567.472 813.46C566.49 810.964 566.165 801.549 565.977 798.287C566.797 798.361 567.618 798.415 568.439 798.45C572.405 798.589 574.681 795.914 577.438 793.328Z"/><path fill="#6B6D4F" transform="matrix(0.273973 0 0 0.274481 -37.5343 -48.8575)" d="M581.373 785.28L583.477 785.728C584.824 787.095 584.385 786.302 584.793 788.22C584.307 790.243 584.053 790.308 582.399 791.75L580.3 791.319C578.967 790.118 579.363 790.843 579.081 789.064C579.707 787.084 579.987 786.913 581.373 785.28Z"/><path fill="#728634" transform="matrix(0.273973 0 0 0.274481 -37.5343 -48.8575)" d="M618.597 638.73C624.959 636.708 629.024 633.758 631.966 627.364C637.375 615.421 644.291 595.532 661.497 603.836C665.32 605.681 668.899 610.994 669.709 615.042C673.62 634.572 661.413 654.965 650.359 669.671C637.051 668.425 624.104 656.918 610.48 668.186L609.943 668.624L608.095 670.99C607.028 669.653 607.182 668.805 607.096 667.078C604.124 668.407 601.04 669.469 597.88 670.252C597.636 672.8 597.479 674.654 597.472 677.251L596.11 679.063C594.022 676.855 594.861 674.203 595.423 671.507C595.364 662.577 597.028 646.167 597.549 636.556C598.102 632.856 598.476 629.753 598.803 626.026L601.336 624.962C603.694 624.286 609.676 621.634 612.379 620.561L614.568 619.642C616.287 618.977 617.038 618.534 618.655 617.612C619.115 624.75 618.291 631.725 618.597 638.73Z"/><path fill="#728634" transform="matrix(0.273973 0 0 0.274481 -37.5343 -48.8575)" d="M614.568 619.642C616.481 627.516 609.872 659.717 609.943 668.624L608.095 670.99C607.028 669.653 607.182 668.805 607.096 667.078C604.124 668.407 601.04 669.469 597.88 670.252C597.636 672.8 597.479 674.654 597.472 677.251L596.11 679.063C594.022 676.855 594.861 674.203 595.423 671.507C595.364 662.577 597.028 646.167 597.549 636.556C598.102 632.856 598.476 629.753 598.803 626.026L601.336 624.962C603.694 624.286 609.676 621.634 612.379 620.561L614.568 619.642Z"/><path fill="#4D611F" transform="matrix(0.273973 0 0 0.274481 -37.5343 -48.8575)" d="M614.568 619.642C616.481 627.516 609.872 659.717 609.943 668.624L608.095 670.99C607.028 669.653 607.182 668.805 607.096 667.078C609.182 653.787 610.7 647.674 611.198 633.42L610.764 631.274C608.03 630.822 604.48 633.631 601.287 634.866C601.61 632.458 601.498 627.409 601.336 624.962C603.694 624.286 609.676 621.634 612.379 620.561L614.568 619.642Z"/><path fill="#5A712B" transform="matrix(0.273973 0 0 0.274481 -37.5343 -48.8575)" d="M601.336 624.962C603.694 624.286 609.676 621.634 612.379 620.561C611.535 625.407 611.781 629.796 611.198 633.42L610.764 631.274C608.03 630.822 604.48 633.631 601.287 634.866C601.61 632.458 601.498 627.409 601.336 624.962Z"/><path fill="#4D611F" transform="matrix(0.273973 0 0 0.274481 -37.5343 -48.8575)" d="M598.803 626.026L601.336 624.962C601.498 627.409 601.61 632.458 601.287 634.866C599.388 643.933 599.934 659.519 597.88 670.252C597.636 672.8 597.479 674.654 597.472 677.251L596.11 679.063C594.022 676.855 594.861 674.203 595.423 671.507C595.364 662.577 597.028 646.167 597.549 636.556C598.102 632.856 598.476 629.753 598.803 626.026Z"/><path fill="#4D611F" transform="matrix(0.273973 0 0 0.274481 -37.5343 -48.8575)" d="M661.386 606.003C662.707 607.938 661.737 617.117 661.114 619.508C655.398 641.461 648.508 661.163 623.194 662.585L622.797 661.549C623.797 660.491 631.558 657.413 634.082 656.272C650.954 648.645 655.979 623.089 661.386 606.003Z"/><path fill="#4D611F" transform="matrix(0.273973 0 0 0.274481 -37.5343 -48.8575)" d="M665.356 627.658L666.294 627.805C665.305 632.621 664.253 639.102 662.033 643.413C657.482 652.251 651.82 662.702 642.128 666.333L641.58 666.458L640.913 666.006C641.327 664.309 650.56 657.368 653.453 652.794C658.92 644.15 661.613 636.987 665.356 627.658Z"/><path fill="#4F4831" transform="matrix(0.273973 0 0 0.274481 -37.5343 -48.8575)" d="M568.278 704.389C569.737 702.878 571.304 701.364 572.798 699.878C573.062 703.463 572.915 707.006 572.984 710.6C573.223 722.864 574.411 735.044 575.259 747.269C575.772 754.683 574.208 762.595 576.367 769.791C576.653 770.691 576.898 771.604 577.179 772.508C586.944 767.506 589.038 762.895 600.898 766.369C608.871 768.704 612.448 772.538 619.245 775.982C627.147 779.985 633.538 777.185 637.896 788.023C637.298 791.022 637.848 795.489 638.084 798.676C636.956 797.94 634.404 790.416 632.046 788.161C623.522 780.009 607.072 772.534 595.779 770.652C585.947 769.417 577.69 777.181 571.159 783.466C568.911 785.629 568.008 787.953 565.345 790.038C566.944 778.942 565.705 773.497 565.438 762.446C565.208 746.502 564.71 730.564 563.944 714.636C563.894 710.064 564.238 710.544 566.616 706.34L568.278 704.389Z"/><path fill="#526726" transform="matrix(0.273973 0 0 0.274481 -37.5343 -48.8575)" d="M583.975 678.951C584.649 678.758 593.995 672.377 595.423 671.507C594.861 674.203 594.022 676.855 596.11 679.063C592.426 679.285 588.883 687.777 582.792 690.105C583.134 686.39 583.437 682.639 583.975 678.951Z"/><path fill="#526726" transform="matrix(0.273973 0 0 0.274481 -37.5343 -48.8575)" d="M607.096 667.078C607.182 668.805 607.028 669.653 608.095 670.99C605.812 672.323 599.387 676.436 597.472 677.251C597.479 674.654 597.636 672.8 597.88 670.252C601.04 669.469 604.124 668.407 607.096 667.078Z"/><path fill="#6B6D4F" transform="matrix(0.273973 0 0 0.274481 -37.5343 -48.8575)" d="M634.183 700.753C635.597 700.865 635.206 700.822 636.577 701.305C638.394 703.124 638.674 705.814 639.332 708.431C643.053 710.701 643.886 711.55 644.575 715.972C645.091 719.285 645.308 729.838 643.525 732.314C641.232 729.531 643.429 721.945 634.901 715.532L633.938 715.684C631.812 719.294 633.895 724.713 635.677 728.128C637.225 731.095 637.928 731.203 640.874 732.109C642.009 733.466 641.993 733.34 642.205 735.084C639.089 741.106 625.981 736.047 623.4 736.993C623.024 738.263 623.301 737.938 622.505 738.838C621.1 738.255 621.199 737.825 620.169 736.305C617.534 736.184 614.554 736.946 612.073 736.209C611.432 735.053 611.44 734.946 610.515 734.032C597.985 741.842 598.424 721.704 599.809 720.654L602.997 721.63C606.554 720.625 604.021 713.841 607.237 710.399C610.488 706.92 614.516 709.709 616.583 707.481C615.238 706.544 615.527 707.03 614.877 705.728C617.123 701.329 624.528 701.689 628.006 703.859C629.063 707.166 623.422 707.329 622.692 710.958C627.839 708.277 629.963 704.524 634.183 700.753Z"/><path fill="#728634" transform="matrix(0.273973 0 0 0.274481 -37.5343 -48.8575)" d="M532.404 768.837C532.613 768.339 527.916 693.113 527.425 686.601C524.482 648.746 521.138 610.923 517.394 573.139C512.617 517.808 509.717 462.33 508.698 406.802C507.999 360.257 508.863 313.611 508.003 266.854C507.762 255.399 507.3 243.95 506.618 232.513C506.409 228.569 504.574 209.786 507.089 207.451C510.482 215.072 509.361 261.204 509.346 271.391C509.28 283.818 509.449 296.244 509.85 308.665C510.491 324.355 511.515 340.041 512.341 355.731C513.144 370.988 511.903 386.808 512.881 401.997C515.898 448.807 516.813 495.651 520.036 542.444C521.781 567.771 525.182 592.642 528.219 617.808C530.117 633.537 531.05 650.643 531.998 666.476L536.143 744.208C536.658 753.094 536.525 767.268 538.21 775.465L532.404 768.837Z"/><path fill="#5A712B" transform="matrix(0.273973 0 0 0.274481 -37.5343 -48.8575)" d="M586.675 629.903C589.795 628.687 595.43 627.101 598.803 626.026C598.476 629.753 598.102 632.856 597.549 636.556C597.028 646.167 595.364 662.577 595.423 671.507C593.995 672.377 584.649 678.758 583.975 678.951C583.437 682.639 583.134 686.39 582.792 690.105L581.119 691.533C579.074 692.513 573.706 697.778 572.798 699.878C571.304 701.364 569.737 702.878 568.278 704.389L566.616 706.34C564.238 710.544 563.894 710.064 563.944 714.636C563.278 711.439 563.121 703.265 563.056 699.773L562.582 670.689C562.552 667.428 562.892 660.756 562.659 658.138C563.686 653.022 564.189 639.454 564.491 633.681C566.619 633.855 582.424 630.592 586.049 629.889L586.675 629.903Z"/><path fill="#728634" transform="matrix(0.273973 0 0 0.274481 -37.5343 -48.8575)" d="M587.462 642.541C587.777 641.2 587.811 640.98 588.378 639.741C591.016 637.984 594.421 637.379 597.549 636.556C597.028 646.167 595.364 662.577 595.423 671.507C593.995 672.377 584.649 678.758 583.975 678.951C585.284 670.055 587.677 651.307 587.462 642.541Z"/><path fill="#4D611F" transform="matrix(0.273973 0 0 0.274481 -37.5343 -48.8575)" d="M586.675 629.903C589.795 628.687 595.43 627.101 598.803 626.026C598.476 629.753 598.102 632.856 597.549 636.556C594.421 637.379 591.016 637.984 588.378 639.741C587.811 640.98 587.777 641.2 587.462 642.541C587.677 651.307 585.284 670.055 583.975 678.951C583.437 682.639 583.134 686.39 582.792 690.105L581.119 691.533C579.649 689.761 580.263 685.247 580.361 682.805C582.451 669.117 583.068 655.024 584.239 641.226C584.61 636.847 584.6 634.133 586.049 629.889L586.675 629.903Z"/><path fill="#5A712B" transform="matrix(0.273973 0 0 0.274481 -37.5343 -48.8575)" d="M586.675 629.903C589.795 628.687 595.43 627.101 598.803 626.026C598.476 629.753 598.102 632.856 597.549 636.556C594.421 637.379 591.016 637.984 588.378 639.741C587.811 640.98 587.777 641.2 587.462 642.541C587.472 639.19 589.335 631.824 586.675 629.903Z"/><path fill="#4D611F" transform="matrix(0.273973 0 0 0.274481 -37.5343 -48.8575)" d="M566.616 706.34C566.722 685.346 568.091 664.589 569.248 643.626C569.657 636.216 570.148 642.831 567.869 637.565L568.243 636.933C571.663 637.13 569.699 635.459 572.656 633.123C573.807 635.289 569.206 684.466 568.782 691.624C568.351 694.706 568.21 701.231 568.278 704.389L566.616 706.34Z"/><path fill="#526726" transform="matrix(0.273973 0 0 0.274481 -37.5343 -48.8575)" d="M580.361 682.805C580.263 685.247 579.649 689.761 581.119 691.533C579.074 692.513 573.706 697.778 572.798 699.878C571.304 701.364 569.737 702.878 568.278 704.389C568.21 701.231 568.351 694.706 568.782 691.624L569.048 693.232L569.576 693.585C572.057 691.618 578.245 685.18 580.361 682.805Z"/><path fill="#728634" transform="matrix(0.273973 0 0 0.274481 -37.5343 -48.8575)" d="M587.337 527.578C595.378 523.244 600.268 523.416 608.542 527.086L608.313 527.797C607.639 529.957 607.035 533.858 606.523 536.282C605.172 542.689 600.948 554.532 596.008 559.134L595.785 559.495C592.365 564.519 585.38 569.553 580.46 573.014C576.226 575.852 574.244 577.012 569.31 578.682C569.898 561.995 573.001 537.986 587.337 527.578Z"/><path fill="#526726" transform="matrix(0.273973 0 0 0.274481 -37.5343 -48.8575)" d="M595.785 559.495L594.831 559.064C593.788 554.843 597.75 527.487 600.079 525.813L600.694 526.441C602.353 533.405 596.098 551.173 596.008 559.134L595.785 559.495Z"/><path fill="#4D611F" transform="matrix(0.273973 0 0 0.274481 -37.5343 -48.8575)" d="M580.338 572.121L579.824 572.371L579.186 572.002C577.366 563.375 580.974 535.1 587.903 529.261C588.223 537.397 582.865 563.671 580.338 572.121Z"/><path fill="#728634" transform="matrix(0.273973 0 0 0.274481 -37.5343 -48.8575)" d="M378.26 403.678C381.414 405.189 378.992 413.077 378.605 416.404C378.013 421.705 377.613 427.025 377.406 432.354C376.876 449.591 377.856 473.116 379.587 490.432C380.577 500.334 385.016 519.21 387.331 529.821C392.887 555.278 398.739 590.688 411.797 613.309C423.13 632.943 458.568 649.313 479.937 656.192C483.124 657.218 486.783 657.159 490.295 657.995L490.547 658.529L489.116 659.18C471.329 658.4 446.042 648.869 430.823 640.077C389.081 615.962 386.827 555.34 379.74 512.757C375.986 490.2 366.583 422.594 378.26 403.678Z"/><path fill="#728634" transform="matrix(0.273973 0 0 0.274481 -37.5343 -48.8575)" d="M390.222 434.967C391.356 436.534 402.838 508.955 405.073 519.816C410.752 547.415 421.063 595.996 442.128 615.558C451.669 624.418 464.107 630.579 474.914 637.783C478.326 640.057 484.508 641.07 487.126 643.357C487.304 643.513 487.474 643.678 487.647 643.838C479.356 644.747 459.781 636.084 452.642 631.583C442.445 625.061 433.886 616.278 427.629 605.915C417.153 588.193 416.211 576.405 410.66 557.721C399.861 521.366 394.214 484.967 391.685 447.193C391.485 444.202 390.958 437.645 390.222 434.967Z"/><path fill="#728634" transform="matrix(0.273973 0 0 0.274481 -37.5343 -48.8575)" d="M396.922 405.475C408.842 414.806 413.263 449.253 415.747 463.809C418.501 479.292 421.019 494.815 423.3 510.374C427.673 540.744 430.674 580.736 450.545 605.066C457.667 613.787 476.669 627.463 486.77 633.576C476.608 632.302 449.975 611.636 444.229 602.611C423.896 570.476 419.454 527.659 415.246 490.528C413.701 476.903 414.512 463.608 412.205 449.609C410.359 438.696 407.245 428.035 402.926 417.844C401.55 414.655 397.415 407.982 396.922 405.475Z"/><path fill="#728634" transform="matrix(0.273973 0 0 0.274481 -37.5343 -48.8575)" d="M650.511 385.367C657.242 392.102 656.69 433.979 655.802 444.571C654.613 458.751 654.81 474.449 652.172 488.511C647.424 513.831 641.049 540.035 629.768 563.288C617.379 588.844 585.78 604.487 559.886 612.264C558.613 612.567 557.907 612.868 556.641 612.539C558.6 611.852 567.797 608.734 569.009 608.139C583.33 601.099 611.82 586.769 619.997 572.865C636.706 544.451 648.132 501.419 652.217 468.934C653.946 455.174 652.685 437.223 652.746 423.406C652.806 410.026 653.091 398.272 650.511 385.367Z"/><path fill="#728634" transform="matrix(0.273973 0 0 0.274481 -37.5343 -48.8575)" d="M492.74 215.836L493.445 216.753C487.991 246.936 486.636 280.112 486.43 310.779C486.409 313.922 487.029 324.165 485.499 326.162C484.845 323.801 484.902 317.978 484.77 315.3C483.822 296.09 485.498 276.94 487.049 257.788C488.051 245.425 489.246 227.607 492.74 215.836Z"/><path fill="#7C8967" transform="matrix(0.273973 0 0 0.274481 -37.5343 -48.8575)" d="M688.408 703.404L689.36 703.34C693.996 697.032 696.91 675.945 705.23 672.939C709.652 675.14 700.129 700.082 698.803 704.156C697.899 709.083 696.454 712.454 694.674 717.12C693.36 715.979 691.009 711.503 689.721 709.609C688.699 707.327 687.953 705.841 688.408 703.404Z"/><path fill="#6B6D4F" transform="matrix(0.273973 0 0 0.274481 -37.5343 -48.8575)" d="M689.721 709.609C691.055 707.086 691.176 705.903 693.305 704.119C694.579 705.914 690.918 712.092 694.09 714.759C695.44 713.782 697.291 706.163 697.858 704.037L698.803 704.156C697.899 709.083 696.454 712.454 694.674 717.12C693.36 715.979 691.009 711.503 689.721 709.609Z"/><path fill="#7C8967" transform="matrix(0.273973 0 0 0.274481 -37.5343 -48.8575)" d="M700.382 724.066C706.004 717.61 713.885 701.028 721.899 700.073C722.769 700.967 722.651 701.025 722.627 702.218C722.563 705.259 710.933 729.696 708.835 735.041C704.978 734.01 702.437 729.376 699.893 725.924L700.382 724.066Z"/></g></svg>