<?xml version="1.0" encoding="utf-8" ?><svg xmlns="http://www.w3.org/2000/svg" xmlns:xlink="http://www.w3.org/1999/xlink" width="200" height="214" viewBox="0 0 200 214"><clipPath id="cl_c"><rect x="6.8664551e-05" y="2.2888184e-05" width="200" height="213.99997"/></clipPath><g clip-path="url(#cl_c)"><defs><linearGradient id="gradient_0" gradientUnits="userSpaceOnUse" x1="549.62952" y1="881.76733" x2="446.32932" y2="589.474"><stop offset="0" stop-color="#5C2410"/><stop offset="1" stop-color="#A86452"/></linearGradient></defs><path fill="url(#gradient_0)" transform="matrix(0.335008 0 0 0.33595 -72.0267 -91.0424)" d="M495.528 578.701C497.096 578.501 500.362 578.466 501.984 578.423C517.558 577.935 533.132 579.371 548.354 582.7C566.233 586.6 585.968 594.835 603.371 601.332C622.57 608.499 653.69 618.696 667.981 633.701C686.409 653.05 698.22 682.316 711.295 705.761C720.013 721.392 733.265 741.912 734.101 760.31C733.645 769.486 730.846 815.846 723.475 820.012C704.255 830.873 665.98 839.011 642.827 842.752C604.565 847.012 565.931 843.91 528.157 843.895C505.575 844.302 482.94 846.643 459.954 846.611C438.103 847.054 416.26 843.849 394.541 842.37C372.07 840.839 349.483 842.53 327.901 834.751C319.467 831.711 311.265 829.28 304.075 823.61C289.865 812.405 290.813 786.523 293.012 770.834C295.537 752.809 300.429 735.046 308.283 718.786C322.901 690.864 350.482 670.458 373.001 649.245C386.533 636.497 398.672 622.72 411.802 609.619C433.412 588.421 466.424 581.488 495.528 578.701Z"/><path fill="#6B3520" transform="matrix(0.335008 0 0 0.33595 -72.0267 -91.0424)" d="M405.25 669.51C403.344 666.852 402.781 660.102 401.151 657.339C394.66 646.332 389.898 643.789 399.509 632.149C403.962 639.431 405.873 647.635 410.697 654.653C412.823 654.641 412.221 654.217 413.269 655.193L414.469 656.313C417.796 659.453 421.104 660.319 425.477 660.582C448.505 657.15 445.697 655.903 468.004 665.08L473.626 663.13C478.366 664.86 483.612 666.561 487.808 662.787L487.991 661.969C487.305 661.252 486.716 660.625 486.071 659.872C490.466 655.896 502.686 656.756 508.266 657.951L510.294 658.383C509.695 658.827 501.574 665.211 501.534 665.224C493.212 667.956 475.889 674.516 467.523 673.972C465.589 673.847 454.77 672.08 454.056 671.726L454.223 669.755L453.697 669.333C453.429 669.532 450.854 671.383 450.856 671.382C440.645 673.449 429.695 674.096 419.251 674.9C415.831 675.163 412.098 673.532 410.54 676.44C410.065 678.164 410.547 677.533 409.162 678.48C407.377 678.308 408.232 678.562 406.595 677.435C404.923 674.608 404.995 672.795 405.25 669.51Z"/><path fill="#935340" transform="matrix(0.335008 0 0 0.33595 -72.0267 -91.0424)" d="M410.697 654.653C412.823 654.641 412.221 654.217 413.269 655.193L414.469 656.313C417.796 659.453 421.104 660.319 425.477 660.582L425.963 661.22L429.26 661.161L429.431 661.855L428.674 662.818C423.474 664.599 413.37 659.559 410.697 654.653Z"/><path fill="#6B3520" transform="matrix(0.335008 0 0 0.33595 -72.0267 -91.0424)" d="M405.25 669.51C410.17 670.024 409.069 672.394 410.54 676.44C410.065 678.164 410.547 677.533 409.162 678.48C407.377 678.308 408.232 678.562 406.595 677.435C404.923 674.608 404.995 672.795 405.25 669.51Z"/><path fill="#6B3520" transform="matrix(0.335008 0 0 0.33595 -72.0267 -91.0424)" d="M412.508 752.228C417.198 752.289 441.37 753.334 444.36 755.533C441.909 757.074 434.616 756.946 431.375 757.029C425.685 757.198 404.062 757.831 400.174 755.234L400.135 753.97L401.006 753.054C403.971 752.008 409.14 752.289 412.508 752.228Z"/><path fill="#6B3520" transform="matrix(0.335008 0 0 0.33595 -72.0267 -91.0424)" d="M556.96 686.601C562.49 686.399 562.972 686.602 567.76 689.418L564.874 693.168C561.46 693.718 557.194 693.442 555.474 690.053C555.627 688.083 555.778 688.118 556.96 686.601Z"/><path fill="#6B3520" transform="matrix(0.335008 0 0 0.33595 -72.0267 -91.0424)" d="M393.922 702.27C396.044 704.11 397.096 706.192 398.58 708.592C398.87 712.589 398.901 715.084 397.903 718.965C396.399 714.194 394.567 710.694 392.939 706.038C392.425 704.569 393.256 703.52 393.922 702.27Z"/></g></svg>