<?xml version="1.0" encoding="utf-8" ?><svg xmlns="http://www.w3.org/2000/svg" xmlns:xlink="http://www.w3.org/1999/xlink" width="200" height="199" viewBox="0 0 200 199"><clipPath id="cl_4"><rect x="-7.6293945e-06" y="-7.2479248e-05" width="199.99997" height="198.99998"/></clipPath><g clip-path="url(#cl_4)"><defs><linearGradient id="gradient_0" gradientUnits="userSpaceOnUse" x1="489.57101" y1="694.43964" x2="459.38226" y2="346.58026"><stop offset="0" stop-color="#C98F23"/><stop offset="1" stop-color="#E8C558"/></linearGradient></defs><path fill="url(#gradient_0)" transform="matrix(0.278164 0 0 0.278322 -37.274 -35.6252)" d="M324.671 364.541C324.491 359.36 322.354 348.674 323.419 345.479C325.147 345.184 326.506 345.938 327.872 346.992C336.894 353.955 343.895 362.067 356.471 359.988C366.178 358.384 372.179 353.148 381.639 350.701C385.441 349.053 394.98 351.579 398.252 350.52C407.15 347.638 414.478 344.822 423.72 342.523C434.366 339.875 441.171 343.195 450.736 342.451C464.1 341.413 477.748 337.382 491.429 337.602C499.309 337.51 509.025 338.375 516.909 340.243C522.119 341.478 525.859 344.659 532.399 344.907C542.366 345.286 556.365 336.591 565.354 339.097C566.146 339.318 569.659 343.69 570.362 344.529C584.775 347.919 594.497 339.258 608.664 339.94C617.11 340.347 626.814 346.796 635.564 348.179C645.092 349.685 655.875 347.747 665.183 348.47C686.835 350.154 709.894 356.877 731.46 352.727C737.377 351.589 754.28 345.39 756.679 350.278C756.871 350.611 757.064 350.943 757.257 351.275L758.326 353.078C761.895 353.86 767.11 353.351 769.387 355.355C770.638 358.963 767.132 362.186 764.753 364.623C767.939 366.77 773.781 369.715 775.804 372.605C780.086 378.87 781.955 387.334 783.805 394.621C788.763 414.148 793.779 435.809 794.636 455.991C795.322 472.143 817.38 475.496 807.751 487.572C795.705 502.679 783.894 527.977 804.762 541.675C807.064 543.152 809.754 544.419 811.652 546.469C813.225 553.65 793.424 579.533 788.955 587.264C800.533 592.393 796.152 592.542 792.417 602.587C790.478 607.799 789.107 618.5 787.265 623.11C780.812 639.262 776.555 644.045 798.054 644.172C802.468 644.197 815.162 641.902 817.187 647.53C817.609 648.738 817.526 650.066 816.956 651.212C815.719 653.721 811.863 655.218 809.287 655.701C783.501 660.532 757.34 662.453 731.321 665.752C711.185 668.305 692.243 667.629 674.465 679.542L675.057 679.909C678.937 682.295 688.04 685.343 689.807 689.201C690.153 689.955 689.599 691.223 689.307 692.054C686.22 695.236 679.665 692.887 675.94 691.765C660.827 687.213 657.512 682.758 642.325 690.624C648.056 709.406 633.74 707.183 621.567 702.333C615.28 699.828 609.612 695.126 602.756 694.597C596.776 694.154 590.162 694.513 584.198 694.689C574.763 694.945 565.333 695.328 555.908 695.838C544.18 696.54 532.854 697.558 521.089 696.666C515.367 696.233 509.738 694.708 504.224 694.268C487.283 692.915 470.29 691.332 453.335 690.293C450.466 690.117 446.857 690.751 444.208 691.765C437.916 694.821 431.941 698.436 426.006 701.32C423.235 699.171 419.002 699.259 417.341 696.689C422.14 693.951 424.463 692.13 423.786 686.427C421.449 685.892 419.631 684.937 417.131 684.537C392.551 680.606 366.996 685.64 342.563 682.742C340.223 682.465 334.789 676.988 332.734 675.052C319.22 673.412 302.546 675.456 288.626 674.028C272.981 672.423 257.927 666.686 247.781 654.243C241.132 650.209 225.46 633.805 230.184 624.236C230.628 623.338 234.535 621.673 235.628 621.199C235.487 612.1 232.905 600.578 228.101 592.668C225.872 588.999 221.417 583.113 220.879 578.817C219.135 564.891 229.483 560.243 225.918 545.418C223.877 536.931 209.671 522.323 215.339 515.195C218.165 511.641 229.754 515.039 230.419 509.093C231.517 499.281 222.028 492.678 221.43 483.947C220.782 474.475 230.067 471.544 230.764 461.33C231.704 447.57 220.854 439.171 219.073 426.479C218.043 419.145 227.651 415.748 229.808 408.57C232.275 400.356 230.852 392.059 232.344 383.721C232.577 382.418 233.919 377.573 234.866 377.343C244.717 374.943 269.061 376.637 278.219 375.355C292.808 373.312 311.608 368.642 324.671 364.541Z"/><path fill="#BE8628" transform="matrix(0.278164 0 0 0.278322 -37.274 -35.6252)" d="M324.671 364.541C324.491 359.36 322.354 348.674 323.419 345.479C325.147 345.184 326.506 345.938 327.872 346.992C336.894 353.955 343.895 362.067 356.471 359.988C366.178 358.384 372.179 353.148 381.639 350.701C385.441 349.053 394.98 351.579 398.252 350.52C407.15 347.638 414.478 344.822 423.72 342.523C434.366 339.875 441.171 343.195 450.736 342.451C464.1 341.413 477.748 337.382 491.429 337.602C499.309 337.51 509.025 338.375 516.909 340.243C522.119 341.478 525.859 344.659 532.399 344.907C542.366 345.286 556.365 336.591 565.354 339.097C566.146 339.318 569.659 343.69 570.362 344.529C584.775 347.919 594.497 339.258 608.664 339.94C617.11 340.347 626.814 346.796 635.564 348.179C645.092 349.685 655.875 347.747 665.183 348.47C686.835 350.154 709.894 356.877 731.46 352.727C737.377 351.589 754.28 345.39 756.679 350.278C756.871 350.611 757.064 350.943 757.257 351.275L758.326 353.078C761.895 353.86 767.11 353.351 769.387 355.355C770.638 358.963 767.132 362.186 764.753 364.623C767.939 366.77 773.781 369.715 775.804 372.605C780.086 378.87 781.955 387.334 783.805 394.621C788.763 414.148 793.779 435.809 794.636 455.991C795.322 472.143 817.38 475.496 807.751 487.572C795.705 502.679 783.894 527.977 804.762 541.675C807.064 543.152 809.754 544.419 811.652 546.469C813.225 553.65 793.424 579.533 788.955 587.264C800.533 592.393 796.152 592.542 792.417 602.587C790.478 607.799 789.107 618.5 787.265 623.11C780.812 639.262 776.555 644.045 798.054 644.172C802.468 644.197 815.162 641.902 817.187 647.53C817.609 648.738 817.526 650.066 816.956 651.212C815.719 653.721 811.863 655.218 809.287 655.701C783.501 660.532 757.34 662.453 731.321 665.752C711.185 668.305 692.243 667.629 674.465 679.542L675.057 679.909C678.937 682.295 688.04 685.343 689.807 689.201C690.153 689.955 689.599 691.223 689.307 692.054C686.22 695.236 679.665 692.887 675.94 691.765C660.827 687.213 657.512 682.758 642.325 690.624C648.056 709.406 633.74 707.183 621.567 702.333C615.28 699.828 609.612 695.126 602.756 694.597C596.776 694.154 590.162 694.513 584.198 694.689C574.763 694.945 565.333 695.328 555.908 695.838C544.18 696.54 532.854 697.558 521.089 696.666C515.367 696.233 509.738 694.708 504.224 694.268C487.283 692.915 470.29 691.332 453.335 690.293C450.466 690.117 446.857 690.751 444.208 691.765C443.637 682.002 465.509 685.119 471.364 685.483C483.109 686.186 494.863 686.753 506.622 687.181C525.879 688.026 543.502 687.031 562.632 684.445C570.209 683.421 577.922 683.026 585.495 682.093C586.688 680.032 589.008 669.349 588.681 666.735C588.016 661.417 584.626 655.661 583.405 650.327C580.711 638.56 582.603 626.412 583.56 614.541L583.916 614.575C584.698 611.333 585.012 609.009 585.45 605.711C586.213 602.424 586.95 599.712 586.829 596.285C586.633 590.742 584.312 587.529 585.274 581.942C585.695 566.115 599.332 556.659 571.506 552.741C571.44 550.015 570.759 545.825 573.436 544.238C576.854 542.211 584.405 545.014 588.041 545.936C590.249 543.113 594.111 538.886 594.058 535.265C593.862 522.07 589.232 508.563 586.743 495.518C584.839 485.543 588.146 484.079 587.956 478C587.758 471.665 585.013 468.761 585.096 459.575C585.217 446.326 587.998 448.323 590.308 438.347C592.387 429.371 590.947 422.158 595.107 412.398C599.447 402.215 603.134 405.131 605.025 401.608L604.578 401.396L600.976 403.318L600.591 402.969C601.896 399.436 606.439 397.38 609.375 400.663L607.528 401.185L607.248 401.862C612.728 400.512 613.913 400.919 617.713 405.106C641.47 389.05 677.223 391.149 701.779 376.599C705.081 374.643 711.699 366.377 715.456 363.037C698.063 363.336 681.499 361.762 664.306 359.594C657.778 358.772 650.865 358.68 644.11 357.776C638.667 357.048 633.296 355.85 628.059 354.197C616.831 350.588 610.505 346.598 597.301 349.485C591.48 350.758 568.949 360.7 563.375 356.937C562.297 356.21 561.015 352.924 557.07 350.493C548.254 351.764 535.826 353.864 527.275 351.773C521.05 350.251 516.531 347.738 509.771 347.091C489.898 345.189 470.78 345.759 451.01 348.296C446.007 348.938 439.52 348.038 434.375 348.447C425.864 349.016 413.276 351.741 405.448 354.966C408.759 357.582 410.675 358.437 411.62 362.424L411.253 363.791C406.602 366.223 403.835 361.09 400.609 359.248C396.846 357.1 386.964 355.301 383.028 357.531C378.83 359.91 374.925 360.939 370.339 362.326C362.298 364.537 353.697 368.403 345.363 368.787C344.9 368.808 343.013 367.064 342.624 366.704L341.664 366.911C341.557 368.195 341.639 368.256 341.928 369.534C336.946 376.943 327.186 372.422 324.402 373.125C298.77 379.598 273.962 385.401 247.237 383.842C245.467 383.741 241.884 383.685 240.511 384.873C238.275 388.513 238.532 399.612 239.526 403.439C242.045 413.136 244.771 414.359 244.3 425.085C238.681 426.098 232.944 426.824 227.348 425.568L227.488 426.345C228.277 430.562 230.545 436.622 232.155 440.729C239.394 459.196 238.431 466.502 230.432 484.064C233.513 492.872 239.352 506.737 236.412 516.202C234.897 521.077 226.219 520.617 222.006 521.428C228.91 537.72 238.952 544.829 235.846 564.077C234.359 573.297 236.747 572.689 231.612 582.605L231.917 583.263C237.247 594.587 244.02 600.465 243.979 614.024C243.965 618.694 247.219 619.848 240.775 624.328C229.67 633.5 252.114 646.293 251.418 652.92C250.155 653.471 249.141 653.999 247.781 654.243C241.132 650.209 225.46 633.805 230.184 624.236C230.628 623.338 234.535 621.673 235.628 621.199C235.487 612.1 232.905 600.578 228.101 592.668C225.872 588.999 221.417 583.113 220.879 578.817C219.135 564.891 229.483 560.243 225.918 545.418C223.877 536.931 209.671 522.323 215.339 515.195C218.165 511.641 229.754 515.039 230.419 509.093C231.517 499.281 222.028 492.678 221.43 483.947C220.782 474.475 230.067 471.544 230.764 461.33C231.704 447.57 220.854 439.171 219.073 426.479C218.043 419.145 227.651 415.748 229.808 408.57C232.275 400.356 230.852 392.059 232.344 383.721C232.577 382.418 233.919 377.573 234.866 377.343C244.717 374.943 269.061 376.637 278.219 375.355C292.808 373.312 311.608 368.642 324.671 364.541Z"/><path fill="#B17C30" transform="matrix(0.278164 0 0 0.278322 -37.274 -35.6252)" d="M597.787 555.771C596.34 553.779 594.327 551.71 593.895 549.504C594.892 547.127 597.299 547.24 599.692 546.815C607.747 566.743 594.967 565.653 591.971 579.956C604.065 592.184 592.075 600.548 593.914 616.234C591.036 616.225 586.085 616.528 583.916 614.575C584.698 611.333 585.012 609.009 585.45 605.711C586.213 602.424 586.95 599.712 586.829 596.285C586.633 590.742 584.312 587.529 585.274 581.942C592.946 572.268 597.327 569.532 597.787 555.771Z"/><path fill="#B17C30" transform="matrix(0.278164 0 0 0.278322 -37.274 -35.6252)" d="M607.248 401.862C612.728 400.512 613.913 400.919 617.713 405.106C615.2 409.543 602.933 422.103 598.107 423.192C590.96 418.099 603.055 405.361 607.248 401.862Z"/><path fill="#B17C30" transform="matrix(0.278164 0 0 0.278322 -37.274 -35.6252)" d="M759.575 483.816C764.556 493.76 752.593 526.173 745.661 534.509C743.476 537.136 742.35 537.299 739.169 537.116C736.891 531.615 738.84 526.219 741.724 521.348C747.954 510.827 752.615 493.228 759.575 483.816Z"/><path fill="#B17C30" transform="matrix(0.278164 0 0 0.278322 -37.274 -35.6252)" d="M742.373 599.755C751.105 599.495 750.461 606.74 745.701 611.69C738.738 618.931 729.5 620.97 719.851 621.335C717.489 620.783 714.824 620.603 713.225 619.057C712.524 617.048 712.647 618.089 713.132 615.801C714.509 614.552 723.841 610.668 726.385 609.194C731.641 606.149 737.093 602.649 742.373 599.755Z"/><path fill="#B17C30" transform="matrix(0.278164 0 0 0.278322 -37.274 -35.6252)" d="M741.409 557.842C741.786 557.889 742.937 558.213 743.349 558.319C752.394 566.612 735.12 579.006 727.273 581.253C725.806 581.458 725.342 581.707 724.048 581.056C722.597 579.404 722.418 576.827 721.976 574.539C722.302 573.801 722.649 573.072 723.018 572.355C725.723 567.145 736.031 559.496 741.409 557.842Z"/><path fill="#B17C30" transform="matrix(0.278164 0 0 0.278322 -37.274 -35.6252)" d="M697.524 382.451C699.715 382.368 699.761 382.435 701.112 383.445C701.614 387.11 694.161 391.38 691.15 392.627C682.322 396.282 673.372 398.2 663.923 399.334C661.816 399.34 660.862 399.564 659.305 398.467L659.28 397.444C662.58 393.254 690.344 385.114 697.524 382.451Z"/><path fill="#B17C30" transform="matrix(0.278164 0 0 0.278322 -37.274 -35.6252)" d="M615.295 519.824C616.407 517.995 616.438 517.788 618.174 516.652C620.939 516.435 621.416 517.338 622.655 519.758C625.237 524.722 629.745 540.002 624.102 543.479C617.534 543.429 615.763 525.011 615.295 519.824Z"/><path fill="#B17C30" transform="matrix(0.278164 0 0 0.278322 -37.274 -35.6252)" d="M702.047 479.574C704.277 479.592 705.299 480.195 706.36 482.039C706.606 487.55 699.133 493.406 694.469 495.187C682.207 491.519 695.458 481.268 702.047 479.574Z"/><path fill="#B17C30" transform="matrix(0.278164 0 0 0.278322 -37.274 -35.6252)" d="M671.564 535.011C675.726 534.511 679.061 535.85 682.275 538.362C686.208 541.436 686.727 543.776 683.669 547.302C677.165 548.63 666.252 543.13 671.564 535.011Z"/><path fill="#B17C30" transform="matrix(0.278164 0 0 0.278322 -37.274 -35.6252)" d="M675.21 465.648C685.801 464.515 678.486 478.684 672.981 482.575C670.975 483.059 670.475 482.642 669.178 481.318C667.462 476.216 671.139 468.754 675.21 465.648Z"/><path fill="#B17C30" transform="matrix(0.278164 0 0 0.278322 -37.274 -35.6252)" d="M594.062 451.009C595.995 453.059 599.797 470.213 599.88 473.731C599.905 474.767 598.378 475.448 597.323 476.158L595.756 476.31C589.439 473.452 591.65 456.373 594.062 451.009Z"/><path fill="#B17C30" transform="matrix(0.278164 0 0 0.278322 -37.274 -35.6252)" d="M636.441 399.259L637.065 399.207C639.85 398.991 640.432 398.698 642.391 400.361C643.846 404.281 639.389 408.691 636.071 410.088C633.247 409.587 631.901 409.589 630.002 407.568C628.64 403.078 632.912 400.9 636.441 399.259Z"/><path fill="#B17C30" transform="matrix(0.278164 0 0 0.278322 -37.274 -35.6252)" d="M704.616 500.132C707.417 499.88 708.434 499.582 710.567 501.226C711.564 505.558 706.696 508.276 703.397 509.833C700.928 509.801 699.422 509.736 697.573 507.998C695.897 503.255 701.199 501.454 704.616 500.132Z"/><path fill="#B17C30" transform="matrix(0.278164 0 0 0.278322 -37.274 -35.6252)" d="M648.693 518.758C649.576 518.852 652.047 519.277 652.648 519.765C656.204 522.648 656.063 529.096 653.264 532.086C644.992 532.513 644.518 522.853 648.693 518.758Z"/><path fill="#B17C30" transform="matrix(0.278164 0 0 0.278322 -37.274 -35.6252)" d="M749.84 428.21C755.492 430.176 752.764 437.654 750.575 441.275C749.311 440.902 749.373 440.867 748.181 440.249C745.509 436.61 747.41 431.469 749.84 428.21Z"/><path fill="#CEA03F" transform="matrix(0.278164 0 0 0.278322 -37.274 -35.6252)" d="M732.254 361.242L732.794 361.273C731.749 362.723 723.568 367.079 721.729 367.976L721.101 367.569C720.066 365.056 719.856 364.767 718.004 362.771C722.44 362.609 727.78 361.801 732.254 361.242Z"/><path fill="#B17C30" transform="matrix(0.278164 0 0 0.278322 -37.274 -35.6252)" d="M597.306 500.331C598.511 501.468 598.076 500.794 598.535 502.494C598.119 504.421 596.55 506.182 595.345 507.822C592.477 504.848 594.86 502.282 597.306 500.331Z"/><path fill="#B17C30" transform="matrix(0.278164 0 0 0.278322 -37.274 -35.6252)" d="M251.418 652.92C251.484 652.936 259.671 656.67 259.809 656.751C281.906 669.614 305.513 665.63 329.656 667.148C335.51 667.517 342.808 675.332 349.561 674.674C358.717 675.346 367.833 673.944 376.155 674.138C386.18 674.372 420.698 674.168 426.284 681.653C426.688 683.122 426.705 683.014 426.178 684.439L425.76 684.696C424.519 685.471 424.466 685.286 423.786 686.427C421.449 685.892 419.631 684.937 417.131 684.537C392.551 680.606 366.996 685.64 342.563 682.742C340.223 682.465 334.789 676.988 332.734 675.052C319.22 673.412 302.546 675.456 288.626 674.028C272.981 672.423 257.927 666.686 247.781 654.243C249.141 653.999 250.155 653.471 251.418 652.92Z"/><path fill="#B17C30" transform="matrix(0.278164 0 0 0.278322 -37.274 -35.6252)" d="M583.56 614.541C571.273 610.101 558.406 600.082 554.482 587.045C553.751 584.615 553.657 582.124 555.001 579.908C560.001 577.102 564.709 587.531 567.731 590.924C573.001 596.842 579.929 600.229 585.45 605.711C585.012 609.009 584.698 611.333 583.916 614.575L583.56 614.541Z"/><path fill="#BE8628" transform="matrix(0.278164 0 0 0.278322 -37.274 -35.6252)" d="M497.404 407.642C507.425 398.449 519.877 396.225 532.987 395.066C540.339 394.417 551.981 392.514 557.633 398.023C564.234 404.458 553.507 417.776 549.344 409.983C546.13 403.967 548.73 404.151 540.95 404.556C536.805 410.234 534.893 412.854 529.731 417.459C527.032 417.499 523.915 417.769 521.404 417.012C519.646 414.669 521.413 413.412 519.766 412.359C514.721 413.074 499.715 417.74 496.173 412.214C496.508 410.046 496.613 409.705 497.404 407.642Z"/><path fill="#CEA03F" transform="matrix(0.278164 0 0 0.278322 -37.274 -35.6252)" d="M442.615 409.833L436.201 409.365C435.001 408.304 435.317 408.949 435.18 407.387C437.067 402.54 449.125 393.899 454.617 395.565C461.564 397.673 466.689 397.469 473.844 396.978C484.645 396.237 490.04 400.723 497.404 407.642C496.613 409.705 496.508 410.046 496.173 412.214C494.716 411.467 470.946 407.33 467.448 406.587C474.146 411.122 479.222 418.577 466.863 420.864C460.673 422.009 454.962 409.882 449.825 405.236L449.256 404.726C447.088 406.487 444.874 408.19 442.615 409.833Z"/><path fill="#CEA03F" transform="matrix(0.278164 0 0 0.278322 -37.274 -35.6252)" d="M372.818 397.143C376.847 393.236 380.161 395.446 385.091 394.832C393.84 393.741 431.148 397.494 433.481 406.997C430.395 413.34 384.035 402.703 380.002 404.007L378.5 404.368C375.59 403.45 374.306 399.919 372.818 397.143Z"/><path fill="#BE8628" transform="matrix(0.278164 0 0 0.278322 -37.274 -35.6252)" d="M423.993 522.107C434.133 521.666 462.646 531.871 472.385 537.533C474.19 538.583 474.373 539.348 474.693 541.088C473.89 542.661 474.448 542.061 473 542.995C468.779 543.247 463.822 543.243 459.646 542.565C452.519 541.409 422.457 532.731 421.985 524.847C422.56 523.116 422.544 523.249 423.993 522.107Z"/><path fill="#BE8628" transform="matrix(0.278164 0 0 0.278322 -37.274 -35.6252)" d="M338.682 616.852C347.537 620.214 358.354 629.583 366.847 634.6C370.656 636.85 380.566 642.412 376.519 647.351C366.449 646.753 360.408 642.116 352.013 636.379C347.964 633.612 337.609 626.055 336.907 620.569C336.689 618.864 337.655 618.149 338.682 616.852Z"/><path fill="#BE8628" transform="matrix(0.278164 0 0 0.278322 -37.274 -35.6252)" d="M467.291 603.211C471.022 605.212 484.951 621.864 489.868 625.819C492.991 628.33 502.298 634.118 503.164 636.715C502.883 638.608 503.325 637.89 501.914 639.012C491.411 637.991 484.361 633.116 476.874 625.95C472.021 621.306 460.481 609.713 467.291 603.211Z"/><path fill="#BE8628" transform="matrix(0.278164 0 0 0.278322 -37.274 -35.6252)" d="M334.115 530.328C339.158 542.925 345.079 552.05 354.328 561.996C357.102 564.979 361.676 568.566 363.102 572.253C362.722 573.964 362.853 573.415 361.074 574.78C358.496 574.7 356.817 574.317 354.59 572.906C342.948 565.53 325.791 544.49 334.115 530.328Z"/><path fill="#BE8628" transform="matrix(0.278164 0 0 0.278322 -37.274 -35.6252)" d="M544.246 532.826C545.723 535.599 549.238 540.635 546.532 543.235C541.452 544.123 542.047 540.896 539.328 540.632C537.636 541.712 536.268 542.901 534.39 541.184C531.075 538.154 527.608 530.575 530.969 526.528C533.334 523.68 535.847 526.073 537.911 525.776C539.296 525.576 541.867 521.518 544.015 522.005C547.284 521.981 549.234 524.185 551.646 526.195L552.302 525.98L553.03 523.89C552.819 528.851 553.741 533.478 553.54 538.704C550.223 536.42 547.774 534.717 544.246 532.826Z"/><path fill="#CEA03F" transform="matrix(0.278164 0 0 0.278322 -37.274 -35.6252)" d="M286.52 437.601C295.425 437.036 307.703 442.376 315.653 446.272C319.588 448.2 325.041 451.717 321.481 456.409C315.738 457.569 279.743 446.802 286.52 437.601Z"/><path fill="#B17C30" transform="matrix(0.278164 0 0 0.278322 -37.274 -35.6252)" d="M553.03 523.89C553.575 521.423 556.664 519.112 559.051 520.531C563.795 523.351 568.191 549.917 566.026 553.583C556.969 558.536 553.17 545.638 553.54 538.704C553.741 533.478 552.819 528.851 553.03 523.89Z"/><path fill="#BE8628" transform="matrix(0.278164 0 0 0.278322 -37.274 -35.6252)" d="M281.665 537.295C289.072 541.571 303.903 575.742 301.051 583.805C292.263 578.678 277.941 547.113 281.665 537.295Z"/><path fill="#CEA03F" transform="matrix(0.278164 0 0 0.278322 -37.274 -35.6252)" d="M330.974 391.16C344.474 390.078 353.433 396.67 350.548 412.396C350.289 413.806 348.94 414.931 347.622 415.489C345.301 415.298 346.32 415.676 344.44 414.337C342.872 410.282 342.3 407.094 340.12 403.133C336.994 397.454 324.464 401.302 321.492 397.073C321.824 392.72 327.614 391.764 330.974 391.16Z"/><path fill="#CEA03F" transform="matrix(0.278164 0 0 0.278322 -37.274 -35.6252)" d="M504.507 460.505L506.543 460.595C507.416 461.122 508.418 461.665 508.461 462.833C508.712 469.587 494.819 494.086 491.52 498.723C491.401 498.844 490.402 499.483 490.228 499.598L489.17 499.368C485.938 495.504 490.118 483.59 491.962 479.33C495.162 471.94 498.465 465.844 504.507 460.505Z"/><path fill="#B17C30" transform="matrix(0.278164 0 0 0.278322 -37.274 -35.6252)" d="M577.777 394.526C580.73 394.917 581.198 394.917 582.326 397.726C582.092 401.975 579.77 412.94 577.693 416.613C574.797 418.78 572.972 418.518 569.414 418.542C568.22 417.579 565.386 414.347 564.155 413.017C566.488 405.49 569.483 397.164 577.777 394.526Z"/><path fill="#CEA03F" transform="matrix(0.278164 0 0 0.278322 -37.274 -35.6252)" d="M517.923 475.365L519.744 475.603C525.695 480.365 509.732 498.297 506.22 502.788C504.982 503.533 505.648 503.361 504.132 503.221L503.511 502.369C501.859 492.181 509.429 480.486 517.923 475.365Z"/><path fill="#CEA03F" transform="matrix(0.278164 0 0 0.278322 -37.274 -35.6252)" d="M369.468 408.307C368.814 411.121 367.05 422.907 362.669 421.356C357.107 414.966 366.47 398.883 372.818 397.143C374.306 399.919 375.59 403.45 378.5 404.368L380.002 404.007C380.947 406.045 379.831 408.451 379.178 410.808L373.963 413.176C371.788 411.219 371.167 410.659 369.468 408.307Z"/><path fill="#CEA03F" transform="matrix(0.278164 0 0 0.278322 -37.274 -35.6252)" d="M599.103 381.974C608.396 382.23 601.868 393.831 599.712 398.295C597.89 402.067 596.87 404.151 593.052 406.039C582.096 404.919 593.312 385.694 599.103 381.974Z"/><path fill="#BE8628" transform="matrix(0.278164 0 0 0.278322 -37.274 -35.6252)" d="M298.292 542.102C303.633 545.221 313.244 567.494 311.249 574.144C300.671 571.858 296.57 551.5 298.292 542.102Z"/><path fill="#CEA03F" transform="matrix(0.278164 0 0 0.278322 -37.274 -35.6252)" d="M273.873 397.783C274.906 398.158 274.856 398.304 275.765 399.057C275.984 400.022 272.817 422.743 272.3 424.392C271.137 425.553 270.263 425.444 268.602 425.631C260.709 419.518 268.41 403.588 273.873 397.783Z"/><path fill="#BE8628" transform="matrix(0.278164 0 0 0.278322 -37.274 -35.6252)" d="M507.371 618.535C510.48 619.832 512.435 621.754 514.354 624.456C517.311 628.619 523.376 634.638 517.805 638.831C511.111 637.412 504.686 629.894 504.696 622.87C504.699 620.633 505.813 619.914 507.371 618.535Z"/><path fill="#CEA03F" transform="matrix(0.278164 0 0 0.278322 -37.274 -35.6252)" d="M293.224 459.583C297.772 459.379 309.333 459.181 310.391 464.825C309.841 466.535 308.479 467.137 306.93 468.209C300.71 467.916 289.898 471.288 289.558 462.226C290.668 460.37 290.885 460.743 293.224 459.583Z"/><path fill="#BE8628" transform="matrix(0.278164 0 0 0.278322 -37.274 -35.6252)" d="M525.345 621.304C529.548 621.919 532.518 625.839 533.782 629.739C535.079 633.741 534.889 634.577 532.939 638.223C526.207 635.847 519.98 627.322 525.345 621.304Z"/><path fill="#CEA03F" transform="matrix(0.278164 0 0 0.278322 -37.274 -35.6252)" d="M311.779 468.541C319.473 468.074 328.191 475.392 320.167 479.668C314.453 479.391 304.538 474.937 311.779 468.541Z"/><path fill="#BE8628" transform="matrix(0.278164 0 0 0.278322 -37.274 -35.6252)" d="M312.456 577.955C317.445 577.641 323.425 580.873 325.071 585.955C325.503 587.287 324.169 588.29 323.336 589.207C318.512 589.538 309.027 584.054 312.456 577.955Z"/><path fill="#CEA03F" transform="matrix(0.278164 0 0 0.278322 -37.274 -35.6252)" d="M255.417 501.878L257.759 502.107C261.568 504.328 263.818 515.529 262.556 519.533C255.896 518.607 254.558 507.203 255.417 501.878Z"/><path fill="#CEA03F" transform="matrix(0.278164 0 0 0.278322 -37.274 -35.6252)" d="M288.051 469.744C291.179 469.794 299.493 476.624 301.066 479.029C295.656 480.076 289.445 475.06 288.051 469.744Z"/><path fill="#B17C30" transform="matrix(0.278164 0 0 0.278322 -37.274 -35.6252)" d="M426.006 701.32C414.318 707.528 402.161 710.091 389.009 711.485C381.4 712.292 371.081 705.731 378.658 699.237C387.868 691.343 405.409 696.131 416.771 696.666L417.341 696.689C419.002 699.259 423.235 699.171 426.006 701.32Z"/><path fill="#B17C30" transform="matrix(0.278164 0 0 0.278322 -37.274 -35.6252)" d="M763.96 693.71C766.65 693.73 773.478 693.385 773.122 697.184C772.194 707.075 751.161 708.712 744.626 709.316C741.137 709.321 737.883 709.911 736.129 706.555C736.033 698.905 757.684 694.193 763.96 693.71Z"/><path fill="#B17C30" transform="matrix(0.278164 0 0 0.278322 -37.274 -35.6252)" d="M162.382 650.144C169.679 650.015 178.334 650.106 185.499 651.532C189.224 652.273 197.836 655.947 198.526 659.789C197.782 661.644 198.305 660.779 196.487 662.225C187.328 663.164 165.924 662.394 161.298 652.503C161.463 650.773 161.164 651.555 162.382 650.144Z"/><path fill="#B17C30" transform="matrix(0.278164 0 0 0.278322 -37.274 -35.6252)" d="M240.351 678.586C245.304 678.326 267.454 678.112 265.796 686.853C264.584 687.854 262.795 687.784 261.125 687.96C257.16 688.328 230.382 689.732 235.141 680.669C236.989 679.285 238.057 679.196 240.351 678.586Z"/></g></svg>