<?xml version="1.0" encoding="utf-8" ?><svg xmlns="http://www.w3.org/2000/svg" xmlns:xlink="http://www.w3.org/1999/xlink" width="200" height="159" viewBox="0 0 200 159"><clipPath id="cl_7"><rect x="-0.0004119873" y="-0.0013504028" width="199.99998" height="159"/></clipPath><g clip-path="url(#cl_7)"><path fill="#4F2C17" transform="matrix(0.398406 0 0 0.400504 -105.18 -126.561)" d="M632.709 324.654C637.428 324.353 646.464 324.813 651.428 324.949C664.994 325.413 678.557 325.96 692.116 326.59C695.429 328.884 709.585 342.99 713.562 346.628L741.989 372.209C745.706 375.556 753.272 382.01 756.217 385.617C756.683 390.236 757.152 405.424 753.753 408.617C751.507 410.727 750.157 410.568 747.292 410.855C747.687 439.464 746.891 468.056 746.893 496.665C746.894 504.556 747.28 515.464 746.061 523.17C743.835 525.589 743.196 526.083 740.622 527.95C741.63 529.101 742.622 530.265 743.598 531.444C745.103 533.302 746.307 535.142 746.39 537.594C746.602 543.825 746.408 550.386 746.262 556.613C745.908 568.717 745.661 580.824 745.522 592.933L744.549 657.382L744.061 684.491C743.98 690.903 744.14 698.981 743.518 705.215C739.435 710.038 694.321 710.421 685.241 710.693C681.482 710.806 678.585 710.056 675.439 707.973C644.588 708.219 613.735 708.241 582.883 708.039L388.845 708.078C385.202 708.393 378.304 708.184 374.492 708.171L349.036 708.146C346.706 709.848 343.686 711.114 340.861 710.941C331.013 710.336 287.052 710.364 280.775 705.786C278.506 699.775 279.865 632.83 279.057 621.427C278.826 618.153 278.144 591.759 278.201 587.252C279.37 585.115 280.854 583.451 282.388 581.558C281.121 579.717 278.131 575.619 277.907 573.668C277.296 568.339 277.473 562.338 277.468 556.932L277.434 526.384L276.525 410.584C274.798 410.436 270.24 410.047 269.453 408.314C267.446 403.891 265.815 387.383 269.222 384.027C273.596 379.718 279.016 374.841 283.523 370.73C292.888 362.149 302.308 353.627 311.78 345.165C315.938 341.434 328.935 329.07 332.514 326.714C349.278 325.175 373.705 325.3 390.768 324.88L394.688 327.127L628.565 327.081L632.709 324.654Z"/><path fill="#BF8B53" transform="matrix(0.398406 0 0 0.400504 -105.18 -126.561)" d="M351.814 596.499L676.727 596.623C677.248 600.965 677.014 609.398 677.016 614.216L676.934 649.062C676.923 658.509 677.168 668.033 676.978 677.479C676.919 680.444 677.082 686.788 676.654 689.455L352.005 689.495C350.377 689.54 349.152 689.741 347.674 689.102C347.127 685.483 347.183 675.957 347.352 672.13L347.205 670.88C347.798 661.134 347.372 645.327 347.415 635.137C346.926 629.719 346.834 601.337 347.352 596.504L351.814 596.499Z"/><path fill="#935D2E" transform="matrix(0.398406 0 0 0.400504 -105.18 -126.561)" d="M347.352 596.504L351.814 596.499C351.567 601.497 351.411 608.534 351.87 613.523C370.678 611.899 387.849 609.208 407.075 609.545C429.664 609.94 451.472 612.517 474.084 611.942C480.429 611.764 486.768 611.415 493.095 610.895C497.958 610.492 517.161 607.804 520.129 608.643C514.73 609.906 505.461 610.98 499.865 611.591C486.292 613.164 472.624 613.764 458.966 613.387C440.929 612.862 422.546 610.973 404.565 611.051C394.195 611.117 383.833 611.62 373.506 612.56C367.623 613.119 357.394 614.522 351.865 614.567C349.634 614.659 349.311 614.297 347.754 615.333C347.137 621.804 348.052 629.038 347.415 635.137C346.926 629.719 346.834 601.337 347.352 596.504Z"/><path fill="#A97544" transform="matrix(0.398406 0 0 0.400504 -105.18 -126.561)" d="M347.352 596.504L351.814 596.499C351.567 601.497 351.411 608.534 351.87 613.523C350.209 613.567 349.448 613.557 347.798 613.422C347.214 610.148 347.784 601.482 347.404 597.057L347.352 596.504Z"/><path fill="#A97544" transform="matrix(0.398406 0 0 0.400504 -105.18 -126.561)" d="M347.415 635.137C348.052 629.038 347.137 621.804 347.754 615.333C349.311 614.297 349.634 614.659 351.865 614.567C351.796 625.429 351.808 636.292 351.9 647.155C356.178 647.032 365.347 646.644 369.207 647.446L370.137 647.719C368.09 648.918 355.233 648.598 352.105 648.519C351.782 653.94 351.66 665.349 351.904 670.937L347.205 670.88C347.798 661.134 347.372 645.327 347.415 635.137Z"/><path fill="#935D2E" transform="matrix(0.398406 0 0 0.400504 -105.18 -126.561)" d="M369.207 647.446L370.137 647.719C368.09 648.918 355.233 648.598 352.105 648.519C350.527 648.634 350.6 648.716 349.18 648.075L349.515 647.666C355.765 647.225 362.748 647.684 369.207 647.446Z"/><path fill="#935D2E" transform="matrix(0.398406 0 0 0.400504 -105.18 -126.561)" d="M676.727 596.623C677.248 600.965 677.014 609.398 677.016 614.216L676.934 649.062C676.923 658.509 677.168 668.033 676.978 677.479C676.919 680.444 677.082 686.788 676.654 689.455C676.214 685.121 676.431 678.247 676.442 673.711C661.512 672.775 647.812 673.407 633.107 674.249C622.292 674.868 596.405 677.377 586.448 675.614L587.32 675.733L587.662 675.291C593.661 674.617 603.973 674.65 610.634 674.18C632.579 672.63 654.551 670.195 676.518 672.381C676.551 665.09 676.522 657.799 676.429 650.508C673.023 650.53 650.263 651.062 648.868 649.819C657.349 649.192 667.793 649.258 676.425 649.09C676.468 633.59 675.826 611.762 676.727 596.623Z"/><path fill="#935D2E" transform="matrix(0.398406 0 0 0.400504 -105.18 -126.561)" d="M351.904 670.937C382.591 675.222 414.013 666.606 444.687 671.546C447.394 671.981 452.771 672.432 454.952 673.803C448.295 674.341 434.415 671.262 425.583 671.441C399.597 671.965 378.094 675.52 351.929 672.208C351.368 672.092 348.124 672.131 347.352 672.13L347.205 670.88L351.904 670.937Z"/><path fill="#935D2E" transform="matrix(0.398406 0 0 0.400504 -105.18 -126.561)" d="M347.352 672.13C348.124 672.131 351.368 672.092 351.929 672.208C351.79 678.033 351.904 683.674 352.005 689.495C350.377 689.54 349.152 689.741 347.674 689.102C347.127 685.483 347.183 675.957 347.352 672.13Z"/><path fill="#935D2E" transform="matrix(0.398406 0 0 0.400504 -105.18 -126.561)" d="M521.431 624.221C527.639 623.852 535.33 623.794 541.306 625.305C504.668 625.767 467.464 629.17 431.012 633.061C421.196 634.108 387.3 637.722 383.059 646.813C382.993 653.249 401.04 656.413 406.037 657.131C425.3 659.896 444.997 662.05 464.395 663.824C514.283 668.387 566.914 676.306 615.828 661.793C619.776 660.618 631.691 657.486 632.319 653.079C631.73 652.214 631.162 651.733 630.246 651.257C617.061 644.404 532.117 639.118 512.54 639.36C498.926 639.528 477.476 640.472 464.672 644.66C462.574 645.346 459.314 646.094 458.253 648.168L458.55 648.988C470.445 653.994 519.648 655.897 533.462 655.508C534.848 655.511 534.909 655.27 535.861 655.792C532.644 655.985 530.131 656.091 526.957 656.686C528.545 656.767 529.797 656.755 531.346 657.158C519.645 658.017 465.402 655.23 457.229 649.459C456.399 647.89 456.564 648.734 456.972 646.801C460.054 642.851 470.529 641.419 475.653 640.649C514.002 634.887 552.813 639.363 591.14 642.885C599.298 643.634 607.506 644.766 615.627 645.811C655.225 652.232 620.422 663.107 604.266 666.558C589.009 669.675 573.492 671.346 557.922 671.549C522.86 671.999 487.635 668.05 452.816 664.295C436.191 662.502 418.982 661.48 402.586 658.149C396.707 656.955 389.569 655.431 384.535 651.992C383.133 651.034 381.888 649.839 381.748 648.032C381.64 646.633 382.377 645.326 383.271 644.313C395.51 630.445 497.719 625.389 521.431 624.221Z"/><path fill="#935D2E" transform="matrix(0.398406 0 0 0.400504 -105.18 -126.561)" d="M542.244 623.741C544.708 623.499 562.888 625.71 566.203 626.068C578.372 627.44 590.585 628.386 602.82 628.904C614.38 629.397 626.125 628.961 637.614 628.785C644.469 628.681 664.5 627.31 670.667 628.915C666.941 629.717 654.062 629.67 649.841 629.865C621.66 631.165 593.779 630.778 565.722 627.533C559.798 626.847 547.818 625.621 542.244 623.741Z"/><path fill="#935D2E" transform="matrix(0.398406 0 0 0.400504 -105.18 -126.561)" d="M560.053 617.726C563.232 617.348 617.977 618.691 621.161 619.418C614.89 620.697 564.873 620.254 560.053 617.726Z"/><path fill="#935D2E" transform="matrix(0.398406 0 0 0.400504 -105.18 -126.561)" d="M501.567 646.78C506.598 645.822 522.769 646.76 528.545 647.077L528.622 647.327C528.425 647.334 527.671 647.336 527.465 647.446C524.078 649.251 504.662 647.894 501.567 646.78Z"/><path fill="#CB9A61" transform="matrix(0.398406 0 0 0.400504 -105.18 -126.561)" d="M351.077 502.661C375.869 511.408 386.997 511.596 411.787 505.67C423.864 502.782 442.216 499.672 454.552 499.145C485.356 497.829 516.632 498.896 547.478 498.567C590.51 498.894 633.91 498.2 676.873 498.688C677.335 503.307 677.087 510.693 677.073 515.643L677.012 546.167L677.046 578.156C677.047 581.199 677.222 591.161 676.748 593.485L528.934 593.467C504.107 593.461 479.252 593.503 454.427 593.429C443.855 593.398 433.021 590.809 422.548 589.315C413.46 588.019 404.159 586.833 395.047 585.786C388.955 585.296 382.164 583.721 376.044 584.301C368.101 585.053 359.484 587.353 351.767 589.382L347.124 590.795C347.039 585.35 347.091 579.748 347.085 574.289L347.208 572.876C346.847 567.825 346.9 542.095 347.41 538.103L347.606 536.948C346.653 534.461 347.053 506.471 347.015 501.072L351.077 502.661Z"/><path fill="#935D2E" transform="matrix(0.398406 0 0 0.400504 -105.18 -126.561)" d="M676.873 498.688C677.335 503.307 677.087 510.693 677.073 515.643L677.012 546.167L677.046 578.156C677.047 581.199 677.222 591.161 676.748 593.485C676.228 589.432 676.55 577.779 676.535 573.031C657.11 576.073 629.854 574.887 609.967 574.969C600.795 575.007 590.748 575.593 581.877 575.454C595.076 572.396 621.323 573.649 635.886 573.595C651.343 573.536 661.008 572.999 676.57 571.526L676.463 542.557C669.441 542.629 655.638 543.209 649.368 541.966C651.27 541.294 672.809 541.186 676.509 541.071C676.619 534.275 676.568 527.324 676.593 520.514C653.4 521.95 627.482 523.638 604.444 521.912C575.086 519.714 548.437 517.213 518.894 517.689L518.689 517.415L517.92 517.562C529.023 513.896 576.626 518.478 590.407 519.532C599.091 520.215 607.792 520.66 616.501 520.866C636.517 521.333 656.682 520.117 676.684 519.076C676.644 512.754 676.409 504.86 676.873 498.688Z"/><path fill="#935D2E" transform="matrix(0.398406 0 0 0.400504 -105.18 -126.561)" d="M351.619 572.433C402.368 570.181 449.506 577.417 499.93 579.179C503.514 579.304 524.133 578.545 524.943 578.849C518.701 583.844 445.524 577.789 433.076 576.422C407.072 573.566 382.9 572.849 356.583 573.554C352.432 573.474 350.943 574.04 347.085 574.289L347.208 572.876C348.854 572.64 349.953 572.395 351.619 572.433Z"/><path fill="#A97544" transform="matrix(0.398406 0 0 0.400504 -105.18 -126.561)" d="M347.41 538.103C348.345 538.159 350.658 538.238 351.48 538.362C351.463 549.719 351.51 561.076 351.619 572.433C349.953 572.395 348.854 572.64 347.208 572.876C346.847 567.825 346.9 542.095 347.41 538.103Z"/><path fill="#A97544" transform="matrix(0.398406 0 0 0.400504 -105.18 -126.561)" d="M347.015 501.072L351.077 502.661C351.936 513.2 351.337 526.277 351.484 537.041L347.606 536.948C346.653 534.461 347.053 506.471 347.015 501.072Z"/><path fill="#935D2E" transform="matrix(0.398406 0 0 0.400504 -105.18 -126.561)" d="M351.484 537.041L352.114 537.123C375.943 539.991 396.478 536.039 418.776 536.07L418.648 536.494C405.83 540.143 365.236 539.933 351.48 538.362C350.658 538.238 348.345 538.159 347.41 538.103L347.606 536.948L351.484 537.041Z"/><path fill="#A97544" transform="matrix(0.398406 0 0 0.400504 -105.18 -126.561)" d="M347.085 574.289C350.943 574.04 352.432 573.474 356.583 573.554C354.845 573.803 352.806 573.741 351.849 574.788C351.312 578.345 351.452 585.705 351.767 589.382L347.124 590.795C347.039 585.35 347.091 579.748 347.085 574.289Z"/><path fill="#935D2E" transform="matrix(0.398406 0 0 0.400504 -105.18 -126.561)" d="M567.916 534.75C581.977 533.727 617.389 534.268 628.596 541.684C630.193 542.741 632.571 544.947 632.736 546.987C632.938 549.481 630.259 552.173 628.534 553.64C609.715 569.644 531.096 567.589 505.357 565.708C496.37 564.836 442.582 560.644 440.992 551.187C441.226 550.709 441.365 550.348 441.759 549.945C448.142 543.421 511.075 540.171 524.338 538.902C538.949 537.505 553.203 535.344 567.916 534.75Z"/><path fill="#CB9A61" transform="matrix(0.398406 0 0 0.400504 -105.18 -126.561)" d="M576.197 536.228C585.773 535.911 628.393 536.413 630.883 547.045C630.611 549.13 629.844 550.325 628.257 551.674C608.165 568.746 526.214 565.955 499.084 563.578C493.197 563.142 487.326 562.503 481.483 561.661C475.035 560.73 445.883 556.143 442.734 551.932L443.113 551.006C451.372 545.305 507.388 541.741 519.889 540.502C536.814 538.826 559.268 536.714 576.197 536.228Z"/><path fill="#935D2E" transform="matrix(0.398406 0 0 0.400504 -105.18 -126.561)" d="M538.264 545.207C544.121 544.79 567.611 543.877 570.18 549.449C568.732 555.622 546.71 556.422 540.9 556.556C534.638 557.202 512.509 557.809 508.419 552.938C508.317 546.666 532.747 545.571 538.264 545.207Z"/><path fill="#CB9A61" transform="matrix(0.398406 0 0 0.400504 -105.18 -126.561)" d="M539.357 546.716C549.341 546.261 560.771 546.766 570.403 549.618C560.619 553.917 550.671 554.382 540.124 554.946C534.311 555.313 514.327 556.023 510.183 552.715L510.329 551.929C515.223 548.485 532.665 547.198 539.357 546.716Z"/><path fill="#935D2E" transform="matrix(0.398406 0 0 0.400504 -105.18 -126.561)" d="M480.732 522.794C483.182 522.491 484.452 522.525 486.935 522.593L486.931 522.844C480.672 524.375 470.233 525.215 463.648 525.766C441.205 527.644 415.324 529.437 392.885 526.386C389.997 525.941 389.203 525.814 386.498 524.771C387.004 524.51 396.691 525.611 398.321 525.733C425.554 527.776 453.6 525.537 480.732 522.794Z"/><path fill="#935D2E" transform="matrix(0.398406 0 0 0.400504 -105.18 -126.561)" d="M402.746 555.212C403.863 555.158 418.118 555.153 417.439 555.347L416.461 555.304L416.363 555.685C411.022 556.346 403.129 556.544 397.624 556.812C393.094 557.172 389.102 557.424 384.563 557.529C383.848 557.13 384.239 557.193 383.379 557.419L384.289 557.333L384.266 557.017C390.108 555.84 396.769 555.533 402.746 555.212Z"/><path fill="#CB9A61" transform="matrix(0.398406 0 0 0.400504 -105.18 -126.561)" d="M346.971 408.257L543.894 408.304L626.68 408.274C643.287 408.264 660.452 407.971 677.012 408.302L676.979 420.581L676.945 495.498L351.523 495.503C349.973 495.524 348.389 495.795 347.207 494.965C346.716 491.101 346.958 483.766 346.977 479.622L346.984 478.243L347.045 430.347L346.865 428.731C347.246 422.496 347.015 414.639 346.971 408.257Z"/><path fill="#A97544" transform="matrix(0.398406 0 0 0.400504 -105.18 -126.561)" d="M346.971 408.257L543.894 408.304L626.68 408.274C643.287 408.264 660.452 407.971 677.012 408.302L676.979 420.581C670.34 420.638 665.884 421.245 659.496 422.171C659.668 421.379 660.133 421.469 660.095 420.648C658.356 419.585 657.835 420.26 655.142 420.758C641.451 421.523 622.975 420.775 608.838 420.811C585.392 420.87 560.915 421.177 537.509 420.603C533.437 420.282 527.437 421.373 523.423 422.422C520.719 422.391 515.454 422.208 512.944 421.634L506.017 421.438C498.134 421.509 483.063 420.892 475.83 422.047L469.976 422.876L470.033 422.867L468.677 422.812L470.22 421.518L470.009 420.664L351.003 420.502C351.002 423.29 350.938 426.316 351.007 429.081L346.865 428.731C347.246 422.496 347.015 414.639 346.971 408.257Z"/><path fill="#935D2E" transform="matrix(0.398406 0 0 0.400504 -105.18 -126.561)" d="M506.017 421.438C503.7 421.099 489.715 420.865 489.437 420.585L488.979 420.628C493.246 418.802 506.794 419.621 511.748 420.407C512.437 420.516 512.505 420.952 512.944 421.634L506.017 421.438Z"/><path fill="#CB9A61" transform="matrix(0.398406 0 0 0.400504 -105.18 -126.561)" d="M537.509 420.603C560.915 421.177 585.392 420.87 608.838 420.811C622.975 420.775 641.451 421.523 655.142 420.758L655.453 421.528L654.792 422.109C643.918 423.136 631.684 424.414 620.804 424.849C598.393 425.746 575.222 424.942 552.837 423.336C549.63 423.106 535.814 422.255 533.338 421.578C534.925 420.683 535.71 420.758 537.509 420.603Z"/><path fill="#935D2E" transform="matrix(0.398406 0 0 0.400504 -105.18 -126.561)" d="M346.984 478.243L351.303 478.416C390.872 479.162 430.03 477.987 469.332 482.836C471.611 483.117 481.05 484.071 482.312 485.157C476.293 485.819 468.809 484.328 462.651 483.727C453.022 482.742 443.37 481.998 433.704 481.497C405.824 480.161 378.774 480.961 351.264 479.864C350.218 479.725 348.112 479.679 346.977 479.622L346.984 478.243Z"/><path fill="#935D2E" transform="matrix(0.398406 0 0 0.400504 -105.18 -126.561)" d="M523.423 422.422C527.437 421.373 533.437 420.282 537.509 420.603C535.71 420.758 534.925 420.683 533.338 421.578C535.814 422.255 549.63 423.106 552.837 423.336C575.222 424.942 598.393 425.746 620.804 424.849C631.684 424.414 643.918 423.136 654.792 422.109L655.453 421.528L655.142 420.758C657.835 420.26 658.356 419.585 660.095 420.648C660.133 421.469 659.668 421.379 659.496 422.171C632.272 428.612 587.909 426.931 559.653 425.14C548.018 424.402 534.955 422.697 523.423 422.422Z"/><path fill="#A97544" transform="matrix(0.398406 0 0 0.400504 -105.18 -126.561)" d="M347.045 430.347C348.081 430.423 350.549 430.535 351.41 430.794C350.013 435.466 351.392 470.961 351.303 478.416L346.984 478.243L347.045 430.347Z"/><path fill="#935D2E" transform="matrix(0.398406 0 0 0.400504 -105.18 -126.561)" d="M351.007 429.081L351.561 429.151C376.381 432.16 403.436 429.232 428.079 426.284C431.422 425.885 434.59 425.415 437.971 425.224C434.247 426.645 426.716 427.741 422.482 428.37C398.963 431.909 375.115 432.722 351.41 430.794C350.549 430.535 348.081 430.423 347.045 430.347L346.865 428.731L351.007 429.081Z"/><path fill="#BF8B53" transform="matrix(0.398406 0 0 0.400504 -105.18 -126.561)" d="M346.977 479.622C348.112 479.679 350.218 479.725 351.264 479.864C351.284 484.455 351.123 491.079 351.523 495.503C349.973 495.524 348.389 495.795 347.207 494.965C346.716 491.101 346.958 483.766 346.977 479.622Z"/><path fill="#935D2E" transform="matrix(0.398406 0 0 0.400504 -105.18 -126.561)" d="M473.814 441.224C488.204 440.647 546.994 442.686 553 455.782C552.944 457.235 552.954 457.625 551.947 458.776C544.327 467.49 472.291 467.97 457.75 468.019C445.733 468.084 380.452 468.999 376.809 458.52C377 457.559 377.221 456.885 377.874 456.153C387.963 444.832 457.384 441.771 473.814 441.224Z"/><path fill="#CB9A61" transform="matrix(0.398406 0 0 0.400504 -105.18 -126.561)" d="M465.279 443.215C488.672 441.806 515.101 443.171 537.819 449.278C541.201 450.187 551.335 453.057 551.737 456.981C543.733 464.996 481.262 465.925 466.625 466.162C452.655 466.625 385.606 466.937 378.718 458.744C378.922 447.883 454 443.657 465.279 443.215Z"/><path fill="#935D2E" transform="matrix(0.398406 0 0 0.400504 -105.18 -126.561)" d="M474.954 451.207C479.161 450.826 503.933 449.894 502.893 456.194C499.483 459.377 486.78 459.807 481.75 460.04C476.967 460.289 454.478 461.656 452.968 456.088C455.353 452.284 470.256 451.549 474.954 451.207Z"/><path fill="#CB9A61" transform="matrix(0.398406 0 0 0.400504 -105.18 -126.561)" d="M471.407 453.207C480.448 452.2 494.645 452.815 503.446 455.177C496.664 457.17 492.447 457.656 485.417 458.096C475.847 459.064 461.507 458.799 452.387 456.459C459.314 454.718 464.297 453.75 471.407 453.207Z"/><path fill="#935D2E" transform="matrix(0.398406 0 0 0.400504 -105.18 -126.561)" d="M586.33 471.241C610.638 470.731 634.955 471.707 659.144 474.163C662.759 474.515 668.303 474.407 671.337 475.788C668.33 476.566 628.827 473.39 622.471 473.104C611.114 472.555 599.741 472.432 588.375 472.737C569.776 473.23 551.198 474.299 532.665 475.942C523.971 476.717 515.179 478.046 506.647 478.693L505.91 478.333L505.502 478.668L506.151 478.635L506.408 478.143C526.106 473.73 566.073 471.701 586.33 471.241Z"/><path fill="#935D2E" transform="matrix(0.398406 0 0 0.400504 -105.18 -126.561)" d="M571.551 438.788C598.258 436.389 626.157 442.138 653.008 440.276C659.81 439.804 666.583 439.068 673.398 438.895C665.09 441.097 659.601 441.388 651.123 441.975C623.343 442.274 596.167 438.767 568.493 440.459C562.993 440.795 557.266 441.786 551.796 441.901L551.777 441.255C556.851 439.736 566.033 439.236 571.551 438.788Z"/><path fill="#935D2E" transform="matrix(0.398406 0 0 0.400504 -105.18 -126.561)" d="M626.316 457.214C631.458 456.861 643.9 456.712 648.601 457.664C646.448 458.154 626.855 458.55 623.375 458.655C620.84 458.835 602.063 460.652 601.411 459.869L601.962 459.965C603.328 458.677 623.15 457.355 626.316 457.214Z"/><path fill="#CB9A61" transform="matrix(0.398406 0 0 0.400504 -105.18 -126.561)" d="M282.052 408.374C288.481 407.682 302.848 408.116 309.912 408.081C317.699 408.032 325.487 408.066 333.273 408.183C336.075 408.209 341.54 408.03 343.986 408.447C343.978 415.076 344.143 422.682 343.92 429.26L344.058 704.414L332.346 704.493C329.043 704.48 326.713 704.525 323.44 704.034C315.983 703.927 307.641 703.301 300.086 702.952C299.38 702.932 298.828 702.783 298.125 702.649L285.965 701.809C285.466 664.871 284.424 626.987 284.32 590.185C287.423 587.638 291.444 585.389 292.211 581.714C291.601 578.366 286.769 575.229 283.88 572.598C283.5 550.582 283.262 528.563 283.167 506.544C282.733 479.879 282.48 453.212 282.407 426.545C281.91 422.558 282.078 412.776 282.052 408.374Z"/><path fill="#935D2E" transform="matrix(0.398406 0 0 0.400504 -105.18 -126.561)" d="M282.052 408.374C288.481 407.682 302.848 408.116 309.912 408.081C317.699 408.032 325.487 408.066 333.273 408.183C336.075 408.209 341.54 408.03 343.986 408.447C343.978 415.076 344.143 422.682 343.92 429.26C343.481 426.346 343.564 422.889 343.529 419.901L331.011 419.876C329.848 433.284 331.731 452.07 333.11 465.471C335.055 484.366 337.45 502.956 337.991 521.967C339.062 559.625 333.934 597.289 329.063 634.543C327.854 643.792 327.331 653.114 326.247 662.417C325.334 660.234 325.62 651.915 325.886 649.396C329.45 615.677 335.091 582.166 336.639 548.244C337.518 529 336.457 509.42 334.361 490.272C331.748 466.408 328.469 443.758 329.618 419.718C324.752 419.504 319.879 419.505 315.013 419.719L315.055 421.212L314.075 421.233L311.327 420.692C309.218 419.58 299.357 419.162 297.399 420.452L297.271 421.369C299.003 443.263 295.955 462.925 294.307 484.668C293.451 495.964 294.763 505.727 294.311 516.475L294.173 516.04L294.045 516.338L294.122 515.559L293.838 515.392C288.664 484.841 299.52 451.142 295.691 420.449L295.613 419.851C291.266 419.671 286.915 419.608 282.564 419.662C282.54 421.862 282.583 424.382 282.407 426.545C281.91 422.558 282.078 412.776 282.052 408.374Z"/><path fill="#A97544" transform="matrix(0.398406 0 0 0.400504 -105.18 -126.561)" d="M295.791 408.715C296.616 408.433 312.035 408.552 314.078 408.541C313.933 413.09 313.871 416.701 314.075 421.233L311.327 420.692C309.218 419.58 299.357 419.162 297.399 420.452L297.271 421.369C296.721 420.22 295.972 410.731 295.791 408.715Z"/><path fill="#A97544" transform="matrix(0.398406 0 0 0.400504 -105.18 -126.561)" d="M314.989 408.554L330.555 408.625L329.618 419.718C324.752 419.504 319.879 419.505 315.013 419.719C315.304 415.701 315.15 412.595 314.989 408.554Z"/><path fill="#A97544" transform="matrix(0.398406 0 0 0.400504 -105.18 -126.561)" d="M282.052 408.374C286.232 408.637 290.223 408.635 294.403 408.654C294.78 412.389 295.183 416.122 295.613 419.851C291.266 419.671 286.915 419.608 282.564 419.662C282.54 421.862 282.583 424.382 282.407 426.545C281.91 422.558 282.078 412.776 282.052 408.374Z"/><path fill="#BF8B53" transform="matrix(0.398406 0 0 0.400504 -105.18 -126.561)" d="M343.986 408.447C343.978 415.076 344.143 422.682 343.92 429.26C343.481 426.346 343.564 422.889 343.529 419.901L331.011 419.876C331.619 417.125 331.648 411.697 331.755 408.658C335.833 408.658 339.911 408.588 343.986 408.447Z"/><path fill="#5B3E28" transform="matrix(0.398406 0 0 0.400504 -105.18 -126.561)" d="M314.075 421.233L315.055 421.212C321.337 425.407 321.176 432.929 314.077 435.705L312.865 435.904C312.503 435.842 312.143 435.773 311.783 435.697C304.559 434.132 303.104 424.454 311.327 420.692L314.075 421.233Z"/><path fill="#A9998A" transform="matrix(0.398406 0 0 0.400504 -105.18 -126.561)" d="M311.153 424.392C312.557 423.821 314.16 424.053 315.345 424.997C316.53 425.942 317.113 427.453 316.87 428.949C316.627 430.445 315.596 431.693 314.172 432.214C312.025 433 309.643 431.92 308.82 429.786C307.996 427.653 309.034 425.253 311.153 424.392Z"/><path fill="#935D2E" transform="matrix(0.398406 0 0 0.400504 -105.18 -126.561)" d="M298.125 702.649L298.811 701.987C299.16 698.95 299.032 696.072 299.036 693.033C299.074 662.51 295.851 632.06 293.006 601.703C292.781 599.303 292.337 595.615 292.624 593.339C296.516 600.425 301.856 690.668 300.086 702.952C299.38 702.932 298.828 702.783 298.125 702.649Z"/><path fill="#935D2E" transform="matrix(0.398406 0 0 0.400504 -105.18 -126.561)" d="M323.44 704.034C324.768 703.952 327.841 704.009 328.676 703.388C328.787 695.186 325.076 675.106 327.012 669.265C328.349 671.5 329.133 699.186 330.733 703.539C330.927 704.065 331.681 704.212 332.346 704.493C329.043 704.48 326.713 704.525 323.44 704.034Z"/><path fill="#935D2E" transform="matrix(0.398406 0 0 0.400504 -105.18 -126.561)" d="M312.865 435.904L314.077 435.705C314.124 439.589 314.221 443.902 313.753 447.743C312.901 443.77 312.958 439.953 312.865 435.904Z"/><path fill="#935D2E" transform="matrix(0.398406 0 0 0.400504 -105.18 -126.561)" d="M311.593 464.934C332.842 466.332 320.984 615.08 311.473 623.859C305.384 623.193 303.084 601.094 302.431 595.528C300.775 581.972 299.814 568.341 299.55 554.687C299.384 538.797 302.719 476.205 311.593 464.934Z"/><path fill="#CB9A61" transform="matrix(0.398406 0 0 0.400504 -105.18 -126.561)" d="M311.96 466.27C314.823 467.312 316.576 471.489 317.232 474.269C326.224 512.367 321.225 552.667 317.025 591.086C316.246 598.218 314.639 616.736 311.527 622.45C309.163 619.832 307.836 616.233 307.138 612.781C299.493 574.941 299.544 536.32 304.941 498.19C306.194 489.333 307.566 473.591 311.96 466.27Z"/><path fill="#935D2E" transform="matrix(0.398406 0 0 0.400504 -105.18 -126.561)" d="M311.214 499.241C312.242 499.723 312.808 500.53 313.297 501.526C317.79 510.68 316.61 556.615 312.984 565.539C312.411 566.949 311.916 567.797 310.503 568.396L309.42 567.629C306.242 561.913 305.267 541.934 306.33 535.4C306.872 536.754 306.851 538.443 306.963 539.966C307.053 548.412 308.205 561.465 310.766 569.187C314.687 553.94 315.303 533.184 314.531 517.341C314.348 513.591 314.08 503.825 311.496 501.535C310.553 502.658 309.731 506.354 309.255 508.014C308.714 505.291 310.238 501.814 311.214 499.241Z"/><path fill="#5B3E28" transform="matrix(0.398406 0 0 0.400504 -105.18 -126.561)" d="M314.792 673.096C318.485 675.134 321.093 679.284 318.527 683.274C317.296 685.195 315.313 686.508 313.064 686.892C304.044 688.378 302.681 671.877 313.651 672.539L314.792 673.096Z"/><path fill="#A9998A" transform="matrix(0.398406 0 0 0.400504 -105.18 -126.561)" d="M310.703 675.846C316.348 675.835 317.934 680.077 314.458 684.02C308.403 684.49 307.665 680.106 310.703 675.846Z"/><path fill="#935D2E" transform="matrix(0.398406 0 0 0.400504 -105.18 -126.561)" d="M313.651 672.539L314.285 672.009C314.941 661.811 315.284 651.595 315.312 641.375L315.729 641.006C317.235 646.704 316.522 667.134 314.792 673.096L313.651 672.539Z"/><path fill="#CB9A61" transform="matrix(0.398406 0 0 0.400504 -105.18 -126.561)" d="M684.239 408.066C692.827 407.964 701.849 407.858 710.427 408.058L713.734 408.092C717.954 408.055 738.655 407.758 741.934 408.282C741.865 411.443 741.909 415.95 741.677 418.994L741.005 469.568C740.947 485.775 741.208 503.799 740.438 519.961C736.413 522.159 731.544 523.784 728.184 526.166C731.035 530.482 736.533 533.383 740.504 538.392L738.984 640.25C738.642 660.809 738.003 681.143 737.951 701.771L731.387 702.114C729.797 702.796 727.687 702.587 725.961 702.374C715.668 703.71 702.534 704.042 691.949 704.507L690.609 704.583C686.953 704.528 683.613 704.462 679.97 704.207C679.506 692.736 679.89 678.686 679.894 667.027L679.936 598.763L680.127 419.442C680.293 415.562 679.343 412.341 680.428 408.962C681.941 407.667 681.652 408.104 684.239 408.066Z"/><path fill="#935D2E" transform="matrix(0.398406 0 0 0.400504 -105.18 -126.561)" d="M684.239 408.066C692.827 407.964 701.849 407.858 710.427 408.058C710.026 410.517 710.366 416.904 710.877 419.378L710.914 421.208L709.51 421.355L709.288 419.498L690.983 419.407C695.064 450.048 689.229 478.192 687.613 508.794C687.19 516.855 686.973 524.926 686.961 532.999C686.935 537.251 687.148 545.051 686.559 549.023L686.308 548.862C684.63 531.009 686.466 503 688.017 485.176C689.806 464.624 693.044 440.662 689.793 419.994L689.699 419.43L680.127 419.442C680.293 415.562 679.343 412.341 680.428 408.962C681.941 407.667 681.652 408.104 684.239 408.066Z"/><path fill="#A97544" transform="matrix(0.398406 0 0 0.400504 -105.18 -126.561)" d="M689.245 408.449C695.796 408.364 702.348 408.369 708.899 408.465C708.939 411.868 708.868 416.217 709.288 419.498L690.983 419.407C690.472 415.905 689.976 411.859 689.245 408.449Z"/><path fill="#A97544" transform="matrix(0.398406 0 0 0.400504 -105.18 -126.561)" d="M680.127 419.442C680.293 415.562 679.343 412.341 680.428 408.962C681.941 407.667 681.652 408.104 684.239 408.066C685.828 408.26 687.214 408.065 688.003 409.261C689.338 411.283 689.499 416.921 689.699 419.43L680.127 419.442Z"/><path fill="#935D2E" transform="matrix(0.398406 0 0 0.400504 -105.18 -126.561)" d="M713.734 408.092C717.954 408.055 738.655 407.758 741.934 408.282C741.865 411.443 741.909 415.95 741.677 418.994L731.831 418.978C731.16 437.247 730.598 455.311 730.394 473.591C730.32 480.214 731.952 496.691 731.01 501.479C727.753 475.46 729.284 454.984 730.102 428.776L730.188 419.083C724.29 419.022 716.631 418.814 710.877 419.378C710.366 416.904 710.026 410.517 710.427 408.058L713.734 408.092Z"/><path fill="#A97544" transform="matrix(0.398406 0 0 0.400504 -105.18 -126.561)" d="M710.427 408.058L713.734 408.092C718.261 408.767 725.573 408.6 730.367 408.592C730.411 413.451 730.9 424.899 730.102 428.776L730.188 419.083C724.29 419.022 716.631 418.814 710.877 419.378C710.366 416.904 710.026 410.517 710.427 408.058Z"/><path fill="#A97544" transform="matrix(0.398406 0 0 0.400504 -105.18 -126.561)" d="M741.934 408.282C741.865 411.443 741.909 415.95 741.677 418.994L731.831 418.978L731.884 408.58C735.528 408.602 738.318 408.625 741.934 408.282Z"/><path fill="#5B3E28" transform="matrix(0.398406 0 0 0.400504 -105.18 -126.561)" d="M709.51 421.355L710.914 421.208C715.33 421.746 718.687 424.349 718.179 429.188C717.975 431.181 716.966 433.003 715.387 434.235C714.196 435.167 712.613 435.629 711.124 435.758L709.518 435.711C703.099 432.088 702.461 423.097 709.51 421.355Z"/><path fill="#A9998A" transform="matrix(0.398406 0 0 0.400504 -105.18 -126.561)" d="M709.453 423.984C715.408 424.487 717.109 428.167 713.049 432.538C706.602 432.747 705.486 428.072 709.453 423.984Z"/><path fill="#935D2E" transform="matrix(0.398406 0 0 0.400504 -105.18 -126.561)" d="M690.609 704.583C690.392 687.416 688.593 670.462 686.933 653.428C685.766 641.453 683.53 621.84 684.676 609.95L685.213 609.586C685.118 608.916 685.215 609.222 684.948 608.661L685.157 608.972L684.842 609.088L684.74 609.872L685.351 610.442C686.386 642.881 691.638 671.764 691.949 704.507L690.609 704.583Z"/><path fill="#935D2E" transform="matrix(0.398406 0 0 0.400504 -105.18 -126.561)" d="M725.961 702.374C725.887 699.022 725.726 682.079 726.548 679.99C727.496 681.394 727.138 698.606 727.159 701.697C728.066 702.251 730.121 702.086 731.387 702.114C729.797 702.796 727.687 702.587 725.961 702.374Z"/><path fill="#A97544" transform="matrix(0.398406 0 0 0.400504 -105.18 -126.561)" d="M709.518 435.711L711.124 435.758C710.528 437.358 710.187 452.23 709.895 455.644C709.414 448.472 709.035 442.938 709.518 435.711Z"/><path fill="#935D2E" transform="matrix(0.398406 0 0 0.400504 -105.18 -126.561)" d="M711.057 473.805C713.301 474.075 714.17 474.238 715.44 476.351C718.373 481.224 719.335 487.923 720.104 493.465C725.127 529.671 720.112 566.376 716.236 602.433C714.948 614.393 715.088 627.089 712.595 638.827C711.458 644.178 710.21 648.743 705.437 651.763C696.603 649.874 695.592 621.468 695.014 613.175C692.529 577.521 697.414 541.822 702.554 506.615C703.943 497.105 706.264 481.881 711.057 473.805Z"/><path fill="#CB9A61" transform="matrix(0.398406 0 0 0.400504 -105.18 -126.561)" d="M711.728 475.15C717.214 476.935 719.087 497.343 719.57 502.687C720.498 513.498 720.819 524.353 720.531 535.2C719.922 556.662 717.224 578.599 715.068 600.009C713.709 613.51 713.817 640.45 705.302 650.667C702.624 648.227 701.046 645.203 700.345 641.603C691.696 597.172 697.408 550.844 704.251 506.539C705.557 498.087 707.797 481.924 711.728 475.15Z"/><path fill="#935D2E" transform="matrix(0.398406 0 0 0.400504 -105.18 -126.561)" d="M710.56 514.148L711.847 514.849C717.883 523.794 715.244 571.386 709.295 580.301C701.295 575.332 705.989 522.988 710.56 514.148Z"/><path fill="#CB9A61" transform="matrix(0.398406 0 0 0.400504 -105.18 -126.561)" d="M710.827 515.708C716.657 522.351 713.331 569.58 708.914 578.165C703.571 570.482 707.736 525.372 710.827 515.708Z"/><path fill="#4F2C17" transform="matrix(0.398406 0 0 0.400504 -105.18 -126.561)" d="M706.851 685.853C706.931 688.572 707.518 695.576 706.249 697.485C704.309 694.517 703.377 662.325 704.969 659.569C707.122 661.271 705.342 671.237 706.495 674.781C719.943 665.028 722.297 692.74 706.851 685.853Z"/><path fill="#935D2E" transform="matrix(0.398406 0 0 0.400504 -105.18 -126.561)" d="M706.851 685.853C706.931 688.572 707.518 695.576 706.249 697.485C704.309 694.517 703.377 662.325 704.969 659.569C707.122 661.271 705.342 671.237 706.495 674.781C704.101 678.826 704.108 681.923 706.851 685.853Z"/><path fill="#A9998A" transform="matrix(0.398406 0 0 0.400504 -105.18 -126.561)" d="M711.033 676.01C713.152 675.912 714.971 677.504 715.154 679.618C715.338 681.731 713.821 683.613 711.717 683.882C710.278 684.067 708.853 683.448 708.005 682.27C707.157 681.092 707.023 679.544 707.655 678.238C708.287 676.931 709.584 676.076 711.033 676.01Z"/><path fill="#935D2E" transform="matrix(0.398406 0 0 0.400504 -105.18 -126.561)" d="M731.711 556.902L731.981 557.156C732.521 558.484 731.563 573.013 731.572 575.782C731.658 600.829 731.451 625.863 730.168 650.882C729.914 655.827 729.492 668.537 728.421 672.677C727.612 671.542 727.483 670.009 727.605 668.644C730.886 631.763 728.397 593.536 731.711 556.902Z"/><path fill="#BF8B53" transform="matrix(0.398406 0 0 0.400504 -105.18 -126.561)" d="M273.167 391.538C293.46 391.835 313.877 391.46 334.169 391.576L541.603 391.885L687.054 391.657C708.211 391.8 729.369 391.737 750.525 391.468C750.325 395.798 750.085 399.578 749.644 403.886L749.317 404.651C747.613 405.522 737.436 405.12 735.001 405.116L704.92 405.115L606.25 405.181L273.767 404.976C273.322 400.774 273.294 395.815 273.167 391.538Z"/><path fill="#CB9A61" transform="matrix(0.398406 0 0 0.400504 -105.18 -126.561)" d="M353.86 377.605L581.521 377.872C610.039 378.016 642.254 376.563 670.268 377.812C673.046 382.074 675.513 384.912 678.777 388.773L345.159 388.931C346.311 387.372 348.024 384.884 349.287 383.542C349.748 382.651 349.802 382.689 350.46 381.906C351.501 380.582 352.784 378.842 353.86 377.605Z"/><path fill="#935D2E" transform="matrix(0.398406 0 0 0.400504 -105.18 -126.561)" d="M350.46 381.906C352.867 382.231 355.634 382.193 357.74 382.144C367.7 381.915 433.793 379.274 438.041 382.536L438.848 382.548C438.557 382.478 426.291 382.541 424.729 382.497C399.571 381.776 374.431 382.928 349.287 383.542C349.748 382.651 349.802 382.689 350.46 381.906Z"/><path fill="#935D2E" transform="matrix(0.398406 0 0 0.400504 -105.18 -126.561)" d="M532.383 380.214C539.204 379.316 586.355 379.491 589.106 381.539L589.021 382.343C583.303 385.403 542.457 385.254 533.665 385.204L533.683 384.9C539.422 382.418 580.291 385.207 584.809 381.805C571.404 380.119 543.877 381.202 529.837 381.581C518.709 382.279 510.15 382.791 498.961 382.983L498.452 383.576C499.963 384.374 506.912 384.148 509.006 384.15L508.93 384.407C504.635 385.075 487.865 384.937 482.221 384.991C469.132 385.115 450.541 386.981 438.022 385.564C440.175 385.016 442.733 385.288 444.94 385.047C460.566 383.335 480.309 385.393 495.57 383.231L493.018 383.073C498.299 381.884 506.623 381.775 512.24 381.495C518.957 381.113 525.671 380.686 532.383 380.214Z"/><path fill="#935D2E" transform="matrix(0.398406 0 0 0.400504 -105.18 -126.561)" d="M637.839 382.253C644.218 382.135 666.883 381.77 672.205 382.484C669.157 384.017 653.195 383.519 648.75 383.517C642.45 383.449 617.689 384.58 613.884 383.71C617.491 382.23 632.988 382.369 637.839 382.253Z"/><path fill="#CB9A61" transform="matrix(0.398406 0 0 0.400504 -105.18 -126.561)" d="M351.25 331.406C352.941 330.56 358.911 330.168 360.639 330.955C364.955 331.291 369.636 331.147 373.993 331.108L375.726 330.959L387.33 330.631C372.285 348.112 356.218 369.933 341.961 388.433L332.122 388.568C326.247 389.28 297.81 389.099 291.986 388.583C285.783 388.49 279.682 388.484 273.466 388.337C279.665 381.57 291.625 371.094 298.531 364.922L335.021 332.291C337.492 332.182 340.139 331.965 342.622 331.802C343.86 331.35 345.174 331.496 346.571 331.478L351.25 331.406Z"/><path fill="#CB9A61" transform="matrix(0.398406 0 0 0.400504 -105.18 -126.561)" d="M375.726 330.959L387.33 330.631C372.285 348.112 356.218 369.933 341.961 388.433L332.122 388.568C330.445 388.532 328.072 388.682 326.65 387.976C327.867 383.145 348.626 366.519 354.077 359.94C362.966 349.213 365.903 340.093 375.726 330.959Z"/><path fill="#935D2E" transform="matrix(0.398406 0 0 0.400504 -105.18 -126.561)" d="M373.993 331.108L375.726 330.959C365.903 340.093 362.966 349.213 354.077 359.94C348.626 366.519 327.867 383.145 326.65 387.976C328.072 388.682 330.445 388.532 332.122 388.568C326.247 389.28 297.81 389.099 291.986 388.583C301.496 388.021 315.218 388.477 325.001 388.509L325.387 387.807C331.835 375.905 343.994 369.729 353.036 359.121C361.875 348.75 364.138 340.925 373.993 331.108Z"/><path fill="#5B3E28" transform="matrix(0.398406 0 0 0.400504 -105.18 -126.561)" d="M351.25 331.406C352.941 330.56 358.911 330.168 360.639 330.955C361.541 333.282 362.489 332.354 363.124 335.197C361.658 340.138 351.951 339.625 348.929 336.268C348.408 333.649 349.012 333.625 351.069 331.96L351.25 331.406Z"/><path fill="#A9998A" transform="matrix(0.398406 0 0 0.400504 -105.18 -126.561)" d="M351.233 334.202C354.082 333.984 359.1 332.83 360.084 335.82C356.907 336.163 352.783 337.375 351.233 334.202Z"/><path fill="#935D2E" transform="matrix(0.398406 0 0 0.400504 -105.18 -126.561)" d="M342.622 331.802C343.86 331.35 345.174 331.496 346.571 331.478C341.774 333.714 328.942 346.935 323.762 351.123C326.127 346.619 343.558 332.321 343.576 332.164L342.622 331.802Z"/><path fill="#935D2E" transform="matrix(0.398406 0 0 0.400504 -105.18 -126.561)" d="M348.102 342.597C350.046 342.914 350.605 343.51 351.402 345.26C352.018 354.605 334.866 367.692 326.292 369.669C313.313 364.611 339.227 344.257 348.102 342.597Z"/><path fill="#CB9A61" transform="matrix(0.398406 0 0 0.400504 -105.18 -126.561)" d="M347.628 344.051C349.375 344.14 349.389 344.422 350.009 345.815C348.461 354.617 335.567 365.988 327.135 368.07C323.433 367.623 323.68 364.114 325.276 361.794C330.131 354.736 339.261 346.2 347.628 344.051Z"/><path fill="#935D2E" transform="matrix(0.398406 0 0 0.400504 -105.18 -126.561)" d="M342.557 349.312L343.105 349.588L343.166 350.415C340.975 353.468 337.383 356.92 334.692 359.678L334.083 359.47L333.892 358.907C336.025 355.738 339.701 351.885 342.557 349.312Z"/><path fill="#5B3E28" transform="matrix(0.398406 0 0 0.400504 -105.18 -126.561)" d="M310.488 375.058C314.807 374.77 318.526 374.697 321.325 378.585C321.833 381.934 320.031 382.756 317.259 384.016C312.917 384.714 309.277 384.413 306.226 380.882C305.209 377.208 307.53 376.425 310.488 375.058Z"/><path fill="#CB9A61" transform="matrix(0.398406 0 0 0.400504 -105.18 -126.561)" d="M308.946 378.653C312.092 378.38 317.196 376.982 317.528 380.849C314.368 381.082 309.858 382.283 308.946 378.653Z"/><path fill="#935D2E" transform="matrix(0.398406 0 0 0.400504 -105.18 -126.561)" d="M319.135 358.511L319.25 358.98C318.57 360.53 290.357 385.236 287.92 386.875L288.034 385.957C299.57 376.02 306.697 368.183 319.135 358.511Z"/><path fill="#CB9A61" transform="matrix(0.398406 0 0 0.400504 -105.18 -126.561)" d="M643.443 330.559C645.262 330.591 648.189 330.529 649.872 330.848C653.926 330.944 658.646 330.939 662.64 331.235C660.953 333.551 660.407 333.726 660.796 336.327L663.434 334.436C665.407 334.185 667.304 334.099 669.284 333.984L671.986 333.803C673.219 332.746 672.735 333.418 673.092 331.478L673.392 331.53L679.386 331.99C681.092 331.974 681.841 331.764 683.363 332.341C684.797 332.416 687.628 332.025 688.855 332.39C690.072 332.752 745.087 382.248 749.925 387.662L750.405 388.205L750.612 388.433C747.727 388.483 736.662 388.383 734.374 388.688L732.758 388.553L697.958 388.507L696.517 388.437C691.662 388.525 686.604 388.335 681.735 388.223C675.83 381.791 669.827 373.286 664.416 366.299C655.11 354.284 645.682 342.362 636.136 330.536L643.443 330.559Z"/><path fill="#A97544" transform="matrix(0.398406 0 0 0.400504 -105.18 -126.561)" d="M643.443 330.559C645.262 330.591 648.189 330.529 649.872 330.848L648.662 331.295L648.91 332.152C660.632 338.698 661.861 347.186 669.017 357.747C670.924 360.56 672.975 361.834 675.229 364.366L675.084 365.096L674.249 365C666.164 356.573 663.311 351.135 657.416 341.301C655.325 337.813 647.715 330.802 643.443 330.559Z"/><path fill="#5B3E28" transform="matrix(0.398406 0 0 0.400504 -105.18 -126.561)" d="M673.092 331.478L673.392 331.53C674.721 334.158 675.883 337.245 672.138 338.481C667.925 339.873 664.206 338.374 660.796 336.327L663.434 334.436C665.407 334.185 667.304 334.099 669.284 333.984L671.986 333.803C673.219 332.746 672.735 333.418 673.092 331.478Z"/><path fill="#A9998A" transform="matrix(0.398406 0 0 0.400504 -105.18 -126.561)" d="M663.434 334.436C665.407 334.185 667.304 334.099 669.284 333.984L671.291 334.604L671.652 335.387C669.978 336.602 664.798 336.697 663.353 335.387L663.434 334.436Z"/><path fill="#935D2E" transform="matrix(0.398406 0 0 0.400504 -105.18 -126.561)" d="M701.606 355.935C710.916 362.727 715.248 369.923 722.776 378.199C725.661 381.371 730.995 385.368 734.374 388.688L732.758 388.553L732.025 387.851C729.661 385.622 726.152 383.515 724.089 381.072C717.449 373.21 707.644 363.981 701.606 355.935Z"/><path fill="#935D2E" transform="matrix(0.398406 0 0 0.400504 -105.18 -126.561)" d="M679.386 331.99C681.092 331.974 681.841 331.764 683.363 332.341L682.325 332.62C682.58 334.771 700.017 351.249 702.779 353.507C694.472 349.572 685.902 339.014 679.386 331.99Z"/><path fill="#935D2E" transform="matrix(0.398406 0 0 0.400504 -105.18 -126.561)" d="M696.517 388.437C693.75 381.659 681.22 370.102 677.257 363.888C683.846 369.558 694.315 380.692 697.958 388.507L696.517 388.437Z"/><path fill="#935D2E" transform="matrix(0.398406 0 0 0.400504 -105.18 -126.561)" d="M669.615 342.491C672.679 342.315 673.842 342.574 676.722 343.851C683.134 346.694 705.039 362.128 699.451 370.037C691.096 372.088 665.923 351.428 669.615 342.491Z"/><path fill="#CB9A61" transform="matrix(0.398406 0 0 0.400504 -105.18 -126.561)" d="M670.404 343.426C678.934 343.67 695.196 357.384 698.812 365.227C699.641 367.026 699.139 367.999 698.407 369.614C690.325 367.466 668.542 352.031 670.404 343.426Z"/><path fill="#935D2E" transform="matrix(0.398406 0 0 0.400504 -105.18 -126.561)" d="M676.649 348.897C680.769 350.115 683.949 354.866 686.626 358.224C683.072 357.257 677.894 352.488 676.649 348.897Z"/><path fill="#5B3E28" transform="matrix(0.398406 0 0 0.400504 -105.18 -126.561)" d="M707.278 374.977C711.405 375.035 716.93 374.802 717.932 380.187C716.113 385.559 703.61 384.936 701.456 380.612C701.512 378.192 703.939 376.097 706.009 375.141L707.278 374.977Z"/><path fill="#CB9A61" transform="matrix(0.398406 0 0 0.400504 -105.18 -126.561)" d="M708.19 378.12C708.571 378.113 708.951 378.112 709.332 378.117C710.866 378.14 712.704 378.272 713.819 379.427C713.254 380.683 713.653 380.1 711.853 380.835C709.861 380.936 706.953 381.292 705.501 379.596C706.381 378.303 706.251 378.692 708.19 378.12Z"/><path fill="#A97544" transform="matrix(0.398406 0 0 0.400504 -105.18 -126.561)" d="M706.009 375.141C704.203 373.217 702.409 372.981 701.063 369.955L701.672 370.646L702.148 370.501C703.66 371.497 705.874 373.68 707.278 374.977L706.009 375.141Z"/><path fill="#A97544" transform="matrix(0.398406 0 0 0.400504 -105.18 -126.561)" d="M347.412 692.578L585.455 692.598L640.392 692.674C652.156 692.647 665.084 692.364 676.762 692.733L676.635 702.095L347.321 702.088C347.29 698.967 347.375 695.711 347.412 692.578Z"/><path fill="#CB9A61" transform="matrix(0.398406 0 0 0.400504 -105.18 -126.561)" d="M380.925 359.684C393.998 359.019 410.607 359.599 423.963 359.614L504.967 359.636L616.338 359.533C626.277 359.596 636.204 359.479 646.141 359.495C648.729 359.499 648.86 359.575 650.423 361.854L651.455 363.403C652.902 365.395 654.446 367.622 655.962 369.534C618.113 369.8 580.263 369.653 542.418 369.094L445.285 369.262C422.249 369.229 397.442 368.518 374.513 369.138L367.893 368.992C369.043 367.496 370.317 366.008 371.524 364.549L372.696 362.878C373.5 361.656 373.787 361.333 374.776 360.242C376.703 359.281 378.692 359.615 380.925 359.684Z"/><path fill="#935D2E" transform="matrix(0.398406 0 0 0.400504 -105.18 -126.561)" d="M372.696 362.878C373.5 361.656 373.787 361.333 374.776 360.242C376.703 359.281 378.692 359.615 380.925 359.684L379.815 361.82L380.116 362.576C383.597 363.884 387.896 362.723 392.151 363.069C399.766 362.945 419.99 361.887 426.533 363.471L426.397 363.728C420.587 364.211 414.388 363.996 408.523 364.153C398.475 364.421 388.466 364.538 378.412 364.56L371.524 364.549L372.696 362.878Z"/><path fill="#BF8B53" transform="matrix(0.398406 0 0 0.400504 -105.18 -126.561)" d="M372.696 362.878C373.5 361.656 373.787 361.333 374.776 360.242C376.703 359.281 378.692 359.615 380.925 359.684L379.815 361.82L380.116 362.576C383.597 363.884 387.896 362.723 392.151 363.069C386.133 364.059 378.829 363.363 372.696 362.878Z"/><path fill="#935D2E" transform="matrix(0.398406 0 0 0.400504 -105.18 -126.561)" d="M650.423 361.854L651.455 363.403C637.485 363.015 623.18 363.467 609.197 363.769C599.784 363.973 589.83 364.897 580.473 364.213C583.706 362.368 641.89 361.742 650.423 361.854Z"/><path fill="#BF8B53" transform="matrix(0.398406 0 0 0.400504 -105.18 -126.561)" d="M371.524 364.549L378.412 364.56C375.209 368.322 374.674 364.244 374.513 369.138L367.893 368.992C369.043 367.496 370.317 366.008 371.524 364.549Z"/><path fill="#CB9A61" transform="matrix(0.398406 0 0 0.400504 -105.18 -126.561)" d="M562.645 364.002C562.819 364.617 562.759 364.215 562.547 365.218C559.214 366.937 540.847 367.378 536.731 367.056C525.628 366.188 479.37 368.907 472.431 364.266L472.543 363.632C479.231 360.558 552.665 360.461 560.626 362.719C561.833 363.054 561.749 363.094 562.645 364.002Z"/><path fill="#935D2E" transform="matrix(0.398406 0 0 0.400504 -105.18 -126.561)" d="M562.645 364.002C562.819 364.617 562.759 364.215 562.547 365.218C559.214 366.937 540.847 367.378 536.731 367.056C525.628 366.188 479.37 368.907 472.431 364.266L472.543 363.632C479.231 360.558 552.665 360.461 560.626 362.719C558.907 363.793 546.562 362.735 543.235 362.675C528.922 362.444 514.606 362.409 500.292 362.571C493.737 362.671 479.068 362.927 472.941 364.504C484.868 365.736 554.801 367.562 562.645 364.002Z"/><path fill="#CB9A61" transform="matrix(0.398406 0 0 0.400504 -105.18 -126.561)" d="M597.831 350.037C604.517 349.993 638.398 349 641.957 350.317L643.151 351.69L644.014 353.084L646.705 356.977C625.572 356.922 602.741 357.44 581.803 356.81C536.93 357.37 492.053 357.442 447.178 357.027L406.431 357.021C397.109 357.039 386.254 357.369 377.12 356.3C378.207 355.257 378.841 354.415 379.766 353.25L381.92 350.943C383.595 349.38 414.281 349.952 419.056 349.95L484.397 350.058L559.022 349.947C569.248 349.939 588.343 349.296 597.831 350.037Z"/><path fill="#CB9A61" transform="matrix(0.398406 0 0 0.400504 -105.18 -126.561)" d="M600.72 350.571C602.102 350.435 603.125 350.134 604.271 350.817C604.638 352.007 604.694 351.567 604.442 352.642C607.726 351.117 636.358 352.532 643.151 351.69L644.014 353.084L646.705 356.977C625.572 356.922 602.741 357.44 581.803 356.81C580.336 356.413 578.026 356.03 576.471 355.719L576.547 355.17L579.063 354.274L579.083 352.965C584.529 352.411 590.752 352.915 596.21 351.392C598.088 350.868 598.774 350.78 600.72 350.571Z"/><path fill="#935D2E" transform="matrix(0.398406 0 0 0.400504 -105.18 -126.561)" d="M643.151 351.69L644.014 353.084C637.548 352.972 608.368 353.507 604.442 352.642C607.726 351.117 636.358 352.532 643.151 351.69Z"/><path fill="#CB9A61" transform="matrix(0.398406 0 0 0.400504 -105.18 -126.561)" d="M597.831 350.037C604.517 349.993 638.398 349 641.957 350.317L643.151 351.69C636.358 352.532 607.726 351.117 604.442 352.642C604.694 351.567 604.638 352.007 604.271 350.817C603.125 350.134 602.102 350.435 600.72 350.571C598.774 350.78 598.088 350.868 596.21 351.392C590.752 352.915 584.529 352.411 579.083 352.965L577.956 352.708L577.8 351.66L577.697 351.888L577.277 350.738C574.737 350.422 573.05 350.577 570.546 350.601C546.531 350.831 522.478 350.652 498.458 350.524C493.776 350.499 488.992 350.703 484.397 350.058L559.022 349.947C569.248 349.939 588.343 349.296 597.831 350.037Z"/><path fill="#935D2E" transform="matrix(0.398406 0 0 0.400504 -105.18 -126.561)" d="M576.547 355.17C572.319 354.398 562.401 354.368 557.507 354.27C539.986 353.92 522.193 354.577 504.648 354.526C501.464 354.517 489.146 354.962 486.828 354.18L487.325 353.724C490.756 353.371 493.989 353.339 497.432 353.401C519.177 353.791 540.942 352.66 562.677 353.127C567.732 353.235 574.204 353.345 579.063 354.274L576.547 355.17Z"/><path fill="#935D2E" transform="matrix(0.398406 0 0 0.400504 -105.18 -126.561)" d="M379.766 353.25L381.92 350.943C382.294 351.23 382.668 351.516 383.042 351.803C391.422 352.45 402.683 352.261 410.804 353.277C403.172 353.929 396.101 353.497 388.476 353.416C386.312 353.393 381.538 353.055 379.766 353.25Z"/><path fill="#CB9A61" transform="matrix(0.398406 0 0 0.400504 -105.18 -126.561)" d="M457.392 332.649L590.996 332.739L623.577 332.403C625.883 332.377 633.039 331.734 634.885 333.078C635.13 333.257 636.647 335.423 636.933 335.874L637.726 336.82C638.639 337.715 638.615 337.664 639.201 338.796C638.271 339.636 637.589 339.897 636.146 339.84C628.3 339.534 620.355 339.662 612.526 339.707L542.75 339.802L439.75 339.86C421.543 339.856 401.168 340.375 383.136 339.764C384.128 338.644 385.282 337.541 386.348 336.476L387.445 334.818C388.019 334.152 388.72 333.446 389.33 332.799C391.518 332.35 400.026 332.745 402.747 332.781L427.692 332.871C435.877 332.234 449.204 332.284 457.392 332.649Z"/><path fill="#A97544" transform="matrix(0.398406 0 0 0.400504 -105.18 -126.561)" d="M387.445 334.818C388.019 334.152 388.72 333.446 389.33 332.799C391.518 332.35 400.026 332.745 402.747 332.781L427.692 332.871C435.877 332.234 449.204 332.284 457.392 332.649C454.591 333.706 443.014 332.7 439.756 332.958C436.311 333.23 434.449 335.105 431.012 335.367C416.419 336.477 400.99 336.859 386.348 336.476L387.445 334.818Z"/><path fill="#CB9A61" transform="matrix(0.398406 0 0 0.400504 -105.18 -126.561)" d="M387.445 334.818C388.019 334.152 388.72 333.446 389.33 332.799C391.518 332.35 400.026 332.745 402.747 332.781L427.692 332.871C422.089 336.219 394.631 335.561 387.445 334.818Z"/><path fill="#935D2E" transform="matrix(0.398406 0 0 0.400504 -105.18 -126.561)" d="M636.933 335.874L637.726 336.82C625.127 337.721 602.007 337.045 589.768 335.859L589.821 335.709C592.423 334.994 606.258 336.001 610.237 335.988C619 335.959 628.14 336.26 636.933 335.874Z"/><path fill="#935D2E" transform="matrix(0.398406 0 0 0.400504 -105.18 -126.561)" d="M509.271 334.22C514.539 334.045 519.045 333.831 524.247 334.713C522.822 335.468 477.98 336.822 472.255 337.012C469.065 336.962 459.546 337.786 457.079 336.909C472.37 335.386 493.187 335.201 509.271 334.22Z"/><path fill="#935D2E" transform="matrix(0.398406 0 0 0.400504 -105.18 -126.561)" d="M559.328 335.223C562.738 335.087 565.64 335.386 569.032 335.664C565.616 336.138 562.266 336.366 558.819 336.388C543.193 336.488 527.446 338.393 511.871 338.732C508.72 338.843 507.046 338.864 503.87 338.601L503.778 338.323C521.316 336.531 541.563 336.013 559.328 335.223Z"/><path fill="#935D2E" transform="matrix(0.398406 0 0 0.400504 -105.18 -126.561)" d="M451.002 337.199C452.168 337.014 454.394 336.688 455.289 337.369C453.408 338.311 452.04 338.114 449.892 338.131C448.711 338.319 447.899 338.215 446.703 338.158C447.838 337.361 449.544 337.367 451.002 337.199Z"/><path fill="#BF8B53" transform="matrix(0.398406 0 0 0.400504 -105.18 -126.561)" d="M500.194 346.926C477.949 347.387 454.393 347.04 432.055 347.001C420.627 347.002 409.199 346.92 397.772 346.755C394.638 346.736 385.103 347.522 383.057 346.367C382.918 344.464 382.715 345.321 383.643 343.693C386.41 342.108 394.172 343.058 397.889 343.03L441.75 342.82L569.5 342.85C592.689 342.646 616.112 342.856 639.302 342.879C640.601 342.881 640.546 345.612 640.562 346.561C639.145 347.365 592.91 346.925 587.873 346.815C558.813 346.556 529.431 347.188 500.194 346.926Z"/><path fill="#A97544" transform="matrix(0.398406 0 0 0.400504 -105.18 -126.561)" d="M500.194 346.926C503.3 346.026 506.755 346.414 510.139 346.167C527.232 344.966 544.377 344.684 561.5 345.322C565.998 345.466 570.677 346.066 575.216 346.223C577.576 346.305 586.386 345.975 587.873 346.815C558.813 346.556 529.431 347.188 500.194 346.926Z"/><path fill="#CB9A61" transform="matrix(0.398406 0 0 0.400504 -105.18 -126.561)" d="M373.879 371.787C378.387 371.216 387.846 371.461 392.746 371.476L426.127 371.599L537.911 371.881L619.568 371.826L644.439 371.916C647.664 371.939 654.363 371.809 657.36 372.189C658.887 373.633 658.609 372.836 658.985 374.507C655.757 375.652 624.243 375.141 618.923 375.131L538.105 374.996L373.062 375L373.879 371.787Z"/><path fill="#A97544" transform="matrix(0.398406 0 0 0.400504 -105.18 -126.561)" d="M429.215 498.856L429.741 499.081C425.725 500.017 422.603 500.346 418.764 501.164C407.413 503.583 393.646 507.35 382.105 506.915C374.61 506.633 365.162 504.105 357.884 502.169C354.847 501.21 351.831 499.994 348.851 498.854C374.41 499.195 403.778 499.638 429.215 498.856Z"/><path fill="#5B3E28" transform="matrix(0.398406 0 0 0.400504 -105.18 -126.561)" d="M375.842 586.686C380.707 586.227 416.245 591.409 422.07 592.859C412.785 593.273 405.108 593.554 395.75 593.521C382.746 593.483 361.368 594.373 349.197 593.107C356.272 590.973 368.699 587.702 375.842 586.686Z"/><path fill="#A97544" transform="matrix(0.398406 0 0 0.400504 -105.18 -126.561)" d="M379.808 343.871C379.991 344.055 380.306 344.718 380.447 344.984C380.62 350.24 363.731 369.895 359.47 374.973C359.47 374.973 357.407 375.269 357.146 375.306C356.449 374.657 356.693 375.064 356.485 374.046C364.669 364.392 371.957 353.834 379.808 343.871Z"/><path fill="#A97544" transform="matrix(0.398406 0 0 0.400504 -105.18 -126.561)" d="M653.177 361.047C650.319 357.065 643.401 348.432 642.681 344.083L643.17 343.708C647.354 347.603 650.638 354.155 654.846 358.415C656.429 360.06 660.525 365.968 662.068 368.081L660.007 370.222C657.765 367.177 655.498 364.019 653.177 361.047Z"/><path fill="#BF8B53" transform="matrix(0.398406 0 0 0.400504 -105.18 -126.561)" d="M373.062 375C371.696 375.044 370.33 375.063 368.963 375.057C367.616 375.038 366.427 374.948 365.45 373.961C366.862 371.809 371.496 371.911 373.879 371.787L373.062 375Z"/><path fill="#BF8B53" transform="matrix(0.398406 0 0 0.400504 -105.18 -126.561)" d="M660.007 370.222L662.068 368.081C663.653 369.844 665.126 371.112 665.814 373.33L665.552 374.456C663.011 374.877 661.419 372.12 660.007 370.222Z"/><path fill="#4F2C17" transform="matrix(0.398406 0 0 0.400504 -105.18 -126.561)" d="M776.442 688.078C784.075 687.697 808.959 695.54 813.682 701.227C814.166 703.119 814.28 702.245 813.352 703.942C809.563 706.586 802.735 706.462 798.131 706.57C791.939 707.257 784.153 706.822 777.883 706.699C772.751 706.598 762.195 706.555 759.461 701.592C758.688 695.006 771.339 689.527 776.442 688.078Z"/><path fill="#BF8B53" transform="matrix(0.398406 0 0 0.400504 -105.18 -126.561)" d="M777.375 691.521C784.565 691.169 803.006 698.428 809.773 702.04C804.721 702.541 799.452 702.808 794.376 703.058C789.471 703.371 766.777 704.044 763.86 700.652L764.006 699.44C766.747 695.958 773.153 692.921 777.375 691.521Z"/><path fill="#4F2C17" transform="matrix(0.398406 0 0 0.400504 -105.18 -126.561)" d="M242.018 699.105C246.202 699.75 264.104 705.702 257.686 712.671C254.105 716.559 242.698 715.767 237.375 715.473C233.171 715.343 223.484 714.481 220.792 711.461C219.519 705.174 237.36 700.12 242.018 699.105Z"/><path fill="#4F2C17" transform="matrix(0.398406 0 0 0.400504 -105.18 -126.561)" d="M647.763 713.066C652.503 712.617 661.581 716.329 661.973 721.076C662.566 728.25 645.164 727.011 640.218 726.959C636.63 726.627 625.411 726.627 625.805 721.908C628.884 717.653 642.345 714.427 647.763 713.066Z"/><path fill="#4F2C17" transform="matrix(0.398406 0 0 0.400504 -105.18 -126.561)" d="M261.773 653.082C274.952 655.468 277.079 666.727 258.076 666.903C254.327 666.598 249.695 666.841 247.253 663.633C246.832 658.606 257.693 654.147 261.773 653.082Z"/><path fill="#BF8B53" transform="matrix(0.398406 0 0 0.400504 -105.18 -126.561)" d="M260.916 656.422C265.387 656.406 266.862 658.594 269.503 661.753C265.458 663.513 263.803 663.557 259.483 664.008C256.013 663.818 253.263 663.464 249.815 662.992C253.652 660.506 256.763 658.398 260.916 656.422Z"/><path fill="#4F2C17" transform="matrix(0.398406 0 0 0.400504 -105.18 -126.561)" d="M757.21 632.546C761.596 632.111 772.789 635.893 771.774 641.253C770.18 642.955 767.921 643.136 765.625 643.505C761.893 643.734 753.91 644.573 750.982 641.582C747.445 637.969 754.556 634.062 757.21 632.546Z"/><path fill="#BF8B53" transform="matrix(0.398406 0 0 0.400504 -105.18 -126.561)" d="M758.752 635.428C762.072 636.045 766.018 638.158 768.996 639.725C767.089 640.08 765.212 640.297 763.29 640.541C758.854 640.62 756.466 640.648 752.112 640.012C754.894 637.666 755.454 637.111 758.752 635.428Z"/></g></svg>