<?xml version="1.0" encoding="utf-8" ?><svg xmlns="http://www.w3.org/2000/svg" xmlns:xlink="http://www.w3.org/1999/xlink" width="300" height="284" viewBox="0 0 300 284"><clipPath id="cl_9"><rect x="-0.0010910034" width="300.00003" height="284"/></clipPath><g clip-path="url(#cl_9)"><defs><linearGradient id="gradient_0" gradientUnits="userSpaceOnUse" x1="292.09256" y1="700.9422" x2="770.20801" y2="340.34277"><stop offset="0" stop-color="#412E28"/><stop offset="1" stop-color="#444041"/></linearGradient></defs><path fill="url(#gradient_0)" transform="matrix(0.379267 0 0 0.379172 -48.168 -49.6716)" d="M444.648 200.824C439.729 185.174 435.828 169.664 431.198 154.009L431.484 154.01C435.735 162.623 440.011 173.13 443.83 182.037L467.601 238.148L486.842 283.763C489.118 289.152 495.594 302.836 496.447 307.817C497.218 312.314 493.683 327.535 493.055 333.606C510.46 320.206 529.566 304.99 547.334 292.349C546.333 282.003 544.43 267.09 544.134 257.001C550.098 250.307 559.004 239.704 564.608 232.577C564.257 228.163 562.062 205.188 562.831 202.066C564.773 212.547 566.374 221.74 568.9 232.297C565.43 238.915 554.875 252.849 550.238 259.307C551.858 269.678 554.489 283.842 556.755 294.093L490.168 353.491C487.654 378.029 482.963 402.481 479.349 426.848C478.99 429.27 483.56 443.137 484.672 446.625C495.551 480.744 498.593 520.445 507.28 554.557C508.306 558.586 530.015 590.534 533.241 594.606C544.819 581.897 557.214 569.897 571.545 560.192C582.706 552.633 588.726 544.415 596.621 533.736C595.091 512.012 593.127 490.32 590.73 468.674C588.549 447.726 589.521 439.611 577.418 421.527C572.116 413.605 566.311 401.611 561.549 393.106C559.872 385.179 566.068 354.666 567.454 346.459C568.355 360.777 567.431 376.506 568.286 390.648C574.541 399.676 583.453 412.691 590.356 420.923C605.516 405.005 622.381 388.612 638.126 373.097C637.202 366.51 637.104 355.084 636.757 347.946C635.629 322.678 635.21 297.384 635.502 272.092L637.111 271.346C641.716 306.345 645.834 341.407 649.464 376.521C643.752 383.583 636.206 391.561 630.046 398.39C620.492 409.152 610.734 419.731 600.777 430.121C606.34 456.93 609.814 484.652 615.156 511.445C622.515 501.147 629.46 491.709 637.049 481.646C644.028 478.854 653.99 476.005 661.455 473.637C673.908 469.691 686.335 465.666 698.737 461.561C701.953 460.509 715.978 456.264 717.883 454.497C725.761 447.192 734.272 435.892 741.464 427.588C745.783 422.602 758.337 409.342 760.383 404.325C764.034 395.371 767.113 382.858 770.348 373.464C774.234 362.176 778.595 350.955 782.154 339.594C782.313 340.322 778.044 359.742 777.614 361.853C775.634 371.667 773.591 381.469 771.487 391.257C770.651 395.241 769.682 400.86 768.594 404.675C779.93 405.27 791.295 404.968 802.622 405.387C805.237 405.484 812.629 405.448 814.893 405.783C812.651 406.497 813.535 405.872 812.101 407.665C796.996 409.2 780.354 410.337 765.444 412.269C756.244 424.498 747.125 436.787 738.087 449.136C734.381 454.171 730.083 460.647 725.922 465.21C724.635 466.621 719.444 467.893 717.367 468.481C722.854 470.844 739.115 476.188 744.8 476.919C758.01 478.62 775.624 478.125 788.642 480.678C765.581 481.168 746.258 485.678 723.551 479.588C716.579 477.718 707.244 476.781 699.826 475.174C688.562 479.491 677.279 483.853 666.164 488.535C660.526 490.91 653.503 493.259 648.12 495.851L625.74 531.45C622.388 536.781 617.212 544.448 614.343 549.727C655.277 548.137 646.56 551.438 678.032 525.684C671.191 534.468 663.075 545.215 655.595 553.436C639.783 557.734 620.566 561.135 603.994 565.106L603.607 565.638C597.305 574.142 588.158 583.208 580.962 591.14C578.177 594.21 570.179 601.448 568.552 604.359C565.77 609.335 562.407 617.765 559.904 623.375C558.534 626.446 553.794 635.392 553.064 637.616C559.069 649.261 564.693 661.1 569.927 673.112C571.628 676.943 573.382 680.837 574.954 684.747C581.043 699.894 591.975 712.869 600.864 726.441C603.381 730.284 606.599 734.065 608.891 737.95C605.422 765.075 602.103 797.373 597.328 824.033C611.06 838.327 632.077 862.377 644.382 878.008L492.82 878.098C470.725 878.064 441.322 877.098 419.86 878.3C426.927 873.74 433.665 868.644 440.754 863.988L462.546 849.765C466.504 847.176 471.706 844.462 474.957 841.024C477.635 838.192 518.975 757.657 519.534 755.381C520.921 749.73 519.906 740.613 519.733 734.698C519.523 727.504 520.125 718.488 518.488 711.551C517.343 706.7 514.216 701.963 511.881 697.577C507.269 688.914 494.466 665.274 492.948 657.434C491.398 649.425 493.936 633.536 494.927 624.892C494.116 624.05 489.875 619.764 489.375 619.085C489.832 617.879 489.862 616.995 489.33 615.797C485.789 607.815 482.427 599.705 478.851 591.743C475.511 584.309 472.899 576.168 469.435 568.879C467.635 555.818 469.785 543.854 469.128 528.365C468.306 508.969 462.686 474.545 459.4 455.286C459.151 453.828 440.364 429.481 438.067 427.106C432.984 421.851 417.095 409.427 410.708 404.32L366.576 369.002C355.777 368.29 343.438 368.661 332.535 368.568C308.514 368.363 284.376 368.854 260.371 367.929C255.067 363.348 209.975 328.378 209.148 326.574C210.963 327.093 213.832 329.561 215.677 330.669C231.901 340.406 247.78 350.649 263.745 360.8C295.283 359.664 329.667 356.365 360.33 356.014C356.134 331.571 349.853 306.447 345.313 281.913C342.484 279.268 336.678 275.525 333.354 273.288C325.938 268.293 318.561 263.24 311.223 258.13C308.471 256.218 302.618 252.334 300.351 250.366C302.22 251.029 300.554 250.381 301.657 250.917C315.038 257.419 328.33 264.171 341.296 271.497C344.339 273.217 347.315 274.893 350.242 276.817C352.626 284.089 354.175 291.633 356.569 299.068C363 289.113 368.649 278.028 375.298 268.021L376.29 269.698C371.041 283.114 365.629 296.467 360.057 309.752C364.1 325.233 368.798 340.828 373.072 356.311C385.777 365.45 398.434 374.656 411.041 383.929C411.761 367.335 413.924 351.311 414.667 335.478L415.115 335.215L414.873 334.499L414.866 334.51L415.261 335.778L414.676 335.937L415.384 336.507C417.86 355.543 420.647 374.538 423.743 393.483C435.468 401.631 448.316 410.499 459.772 419.009L482.855 309.503L447.129 208.454C444.108 207.01 411.116 193.603 411.781 194.2C414.452 194.178 417.066 195.116 419.749 195.651L444.648 200.824Z"/><defs><linearGradient id="gradient_1" gradientUnits="userSpaceOnUse" x1="338.96506" y1="544.1969" x2="386.81354" y2="460.36917"><stop offset="0" stop-color="#211D1E"/><stop offset="1" stop-color="#493E3D"/></linearGradient></defs><path fill="url(#gradient_1)" transform="matrix(0.379267 0 0 0.379172 -48.168 -49.6716)" d="M347.715 439.11L349.018 438.53C351.409 448.799 354.31 463.359 357.117 473.203C363.201 477.038 384.998 489.555 389.082 493.022C391.1 498.988 396.239 516.455 398.515 520.731C400.724 524.881 417.857 538.982 422.343 542.854C424.156 543.144 433.663 544.137 434.356 544.533C445.37 550.822 458.923 562.333 469.435 568.879C472.899 576.168 475.511 584.309 478.851 591.743C482.427 599.705 485.789 607.815 489.33 615.797C489.862 616.995 489.832 617.879 489.375 619.085L454.313 587.878C444.979 579.722 435.486 571.961 426.318 563.593C419.807 562.08 412.497 561.216 405.893 559.892C385.582 555.819 362.698 552.89 342.812 547.759C337.437 542.454 329.214 531.325 324.119 525.329C310.883 509.753 298.031 492.325 284.758 476.933L214.745 473.298C212.982 470.912 196.768 448.293 196.845 447.729C203.264 454.425 211.444 462.434 217.226 469.173L263.06 467.536C269.07 467.3 284.034 466.385 289.022 467.018C295.58 473.382 303.735 482.578 310.14 489.406L351.66 533.89C363.731 536.582 386.304 538.579 399.216 540.062C395.905 535.925 389.588 528.999 388.29 524.077C386.14 515.921 384.183 507.222 382.244 499C376.722 493.263 358.487 480.56 351.27 475.918C350.407 463.998 348.838 451.077 347.715 439.11Z"/><path fill="#191818" transform="matrix(0.379267 0 0 0.379172 -48.168 -49.6716)" d="M814.893 405.783C816.069 405.817 823.732 405.932 824.201 406.352C820.164 406.756 816.13 407.194 812.101 407.665C813.535 405.872 812.651 406.497 814.893 405.783Z"/><path fill="#191818" fill-opacity="0.95294118" transform="matrix(0.379267 0 0 0.379172 -48.168 -49.6716)" d="M635.502 272.092C635.468 268.642 635.5 265.192 635.598 261.743C636.44 264.349 636.435 267.803 637.01 270.829L637.111 271.346L635.502 272.092Z"/><path fill="#191818" fill-opacity="0.94509804" transform="matrix(0.379267 0 0 0.379172 -48.168 -49.6716)" d="M347.715 439.11C347.256 436.067 346.493 432.028 346.611 429.053C347.683 431.599 348.416 435.713 349.018 438.53L347.715 439.11Z"/><path fill="#191818" fill-opacity="0.94509804" transform="matrix(0.379267 0 0 0.379172 -48.168 -49.6716)" d="M375.298 268.021L378.047 262.825L378.908 262.855L378.292 262.411L378.588 261.971L379.027 262.21C378.77 264.024 377.038 267.9 376.29 269.698L375.298 268.021Z"/></g></svg>