<?xml version="1.0" encoding="utf-8" ?><svg xmlns="http://www.w3.org/2000/svg" xmlns:xlink="http://www.w3.org/1999/xlink" width="200" height="192" viewBox="0 0 200 192"><clipPath id="cl_16"><rect x="0.00011825562" width="199.99997" height="192"/></clipPath><g clip-path="url(#cl_16)"><defs><linearGradient id="gradient_0" gradientUnits="userSpaceOnUse" x1="776.2085" y1="602.0014" x2="283.33612" y2="410.42844"><stop offset="0" stop-color="#A35923"/><stop offset="1" stop-color="#CB8D45"/></linearGradient></defs><path fill="url(#gradient_0)" transform="matrix(0.267023 0 0 0.214525 -37.3831 0)" d="M325.574 799.223C324.268 705.412 325.398 610.199 325.425 516.303L325.486 412.494C325.606 368.124 324.616 323.337 335.361 279.739C346.835 234.117 373.506 191.692 412.508 164.595C439.097 147.173 468.275 137.685 499.665 136.083C550.283 133.501 595.643 146.367 632.93 181.654C683.081 229.112 698.384 295.721 698.886 362.528L698.983 805.991C695.482 808.645 682.458 808.604 678.057 808.586C680.59 809.666 685.256 809.393 686.541 810.669C685.206 811.667 677.599 811.843 675.63 811.954C680.507 812.977 684.043 813.093 688.986 812.937C689.36 812.926 690.674 814.121 691.004 814.517C693.779 815.958 704.119 816.248 707.671 819.253C708.283 819.77 709.089 819.829 709.879 819.924C711.188 821.394 711.764 822.28 712.868 823.931C714.141 825.445 714.787 826.123 715.733 827.832C715.842 834.334 716.773 867.18 714.256 870.394C705.256 871.595 696.392 871.285 687.31 871.3L650.995 871.323L521.561 871.101L362.617 871.376C355.171 871.369 314.871 871.872 310.465 870.652C307.55 866.889 308.144 837.417 308.938 831.787C308.843 830.387 309.023 827.978 309.085 826.508C313.061 820.791 320.07 813.103 325.366 808.488L326.024 807.629L325.828 806.41C325.628 803.944 325.608 801.686 325.574 799.223Z"/><path fill="#BD7935" transform="matrix(0.267023 0 0 0.214525 -37.3831 0)" d="M358.035 406.872C358.551 406.188 359.176 360.443 359.528 355.003C361.009 332.098 364.191 309.056 370.535 286.939C376.347 266.68 386.095 246.62 398.901 229.887C400.13 228.281 402.513 224.483 404.207 223.74C404.875 223.447 405.338 223.994 405.91 224.319L406.336 224.093L405.48 222.216C414.034 208.948 435.256 194.407 449.165 187.296C453.533 185.063 472.497 177.39 476.574 178.29L477.296 180.013L477.992 179.768L477.301 177.884C477.911 177.21 481.492 176.339 482.584 176.111C533.141 165.555 588.06 182.424 620.381 223.26C621.017 224.064 619.882 223.744 621.186 224.896L621.862 224.188C623.95 226.176 625.382 229.331 627.117 231.665C637.7 245.895 645.609 262.396 651.673 279.013C652.287 280.696 653.031 282.613 652.287 284.14C649.658 283.955 648.467 281.372 645.654 280.896C644.027 276.953 642.532 272.299 641.101 268.213L640.656 269.232C646.265 283.156 649.407 299.762 653.107 314.515C657.881 333.551 656.897 355.966 658.213 375.537C659.639 417.296 658.414 459.063 658.493 500.851C658.876 507.923 658.779 514.663 658.671 521.741C658.404 539.22 658.981 556.748 658.39 574.213C658.316 576.402 658.032 578.622 658.005 580.801C659.132 601.22 658.704 617.745 658.764 637.811L658.721 728.347C658.633 747.722 659.493 766.851 658.502 786.219C658.197 792.183 658.844 798.85 658.133 804.713C660.098 804.782 663.362 804.787 665.175 805.185L661.589 805.43C599.079 806.141 536.564 806.323 474.051 805.978L474.274 805.427C471.967 805.199 464.603 805.162 463.429 804.727L462.842 802.853L462.042 802.911L461.734 804.762C456.719 805.838 372.646 805.286 370.035 804.283C369.274 803.991 368.746 803.799 367.962 803.637L367.08 803.458C364.764 806.049 361.854 807.113 358.958 804.687C357.759 803.682 358.027 801.19 357.971 799.7C357.858 778.099 358.376 755.172 357.939 733.985C356.682 729.497 357.448 724.986 357.238 720.321L357.213 719.84C357.463 718.729 357.9 718.102 358.43 717.075C359.382 718.125 359.34 718.115 360.549 718.836L361.214 718.428L361.579 716.571L361.983 716.502C361.144 710.045 363.661 692.739 362.988 689.921C362.276 687.826 361.249 683.41 362.105 681.299L364.007 681.3L363.756 680.383C361.84 679.575 361.263 679.403 359.207 678.993L358.689 678.894C359.057 666.195 358.482 653.704 358.479 640.932L358.542 557.856C358.539 550.209 357.917 542.535 358.096 534.904C358.215 529.848 359.026 481.19 358.94 480.992C358.55 480.101 358.485 479.848 358.564 478.896C360.156 478.662 360.495 478.698 361.981 478.028C362.692 476.648 362.498 474.99 362.506 473.374L361.932 473.263C360.519 469.177 360.114 458.113 361.022 454.502C360.916 448.477 362.09 428.658 359.673 425.482L360.327 424.48L362.507 424.694C361.576 424.063 360.645 423.432 359.714 422.802C357.571 418.992 358.098 411.189 358.035 406.872Z"/><defs><linearGradient id="gradient_1" gradientUnits="userSpaceOnUse" x1="346.43661" y1="478.63303" x2="630.01385" y2="507.08859"><stop offset="0" stop-color="#A86126"/><stop offset="1" stop-color="#C5873E"/></linearGradient></defs><path fill="url(#gradient_1)" transform="matrix(0.267023 0 0 0.214525 -37.3831 0)" d="M358.035 406.872C358.551 406.188 359.176 360.443 359.528 355.003C361.009 332.098 364.191 309.056 370.535 286.939C376.347 266.68 386.095 246.62 398.901 229.887C400.13 228.281 402.513 224.483 404.207 223.74C404.875 223.447 405.338 223.994 405.91 224.319L406.336 224.093L405.48 222.216C414.034 208.948 435.256 194.407 449.165 187.296C453.533 185.063 472.497 177.39 476.574 178.29L477.296 180.013L477.992 179.768L477.301 177.884C477.911 177.21 481.492 176.339 482.584 176.111C533.141 165.555 588.06 182.424 620.381 223.26C621.017 224.064 619.882 223.744 621.186 224.896L621.862 224.188C623.95 226.176 625.382 229.331 627.117 231.665C637.7 245.895 645.609 262.396 651.673 279.013C652.287 280.696 653.031 282.613 652.287 284.14C649.658 283.955 648.467 281.372 645.654 280.896C644.027 276.953 642.532 272.299 641.101 268.213L640.656 269.232C639.057 265.312 623.998 238.256 621.492 237.733C621.023 239.291 621.457 241.132 622.076 242.591C623.22 243.16 623.534 243.214 624.438 244.089C625.354 248.434 624.076 252.71 624.77 256.37C625.267 258.994 627.253 260.446 627.129 264.341C626.289 263.789 625.968 261.992 625.507 260.922C624.894 259.498 624.086 256.976 623.882 255.606C623.662 254.543 623.892 244.606 623.267 244.418C620.7 243.643 619.82 240.316 619.378 237.833C618.383 237.996 618.898 237.996 617.795 237.426L617.602 236.505L618.738 237.881C619.711 237.612 619.974 237.209 620.849 236.505C620.771 236.182 617.585 232.593 617.816 232.752L617.296 233.367C616.122 233.649 616.041 233.649 614.974 234.191C613.951 236.733 614.952 238.337 615.965 240.91C615.132 242.055 615.268 242.271 615.093 243.728C614.524 245.563 614.352 250.864 614.215 253.104C613.46 250.253 614.618 233.495 613.423 227.108L613.093 227.272C612.229 232.458 612.666 237.913 612.065 243.331C611.829 239.488 611.412 236.014 611.141 232.257C611.207 230.166 611.847 225.454 611.379 224.169C609.859 222.942 607.805 220.875 606.155 220.622C604.805 223.501 606.013 223.051 606.327 226.071C603.976 225.088 605.845 219.546 603.912 215.006C602.365 213.701 603.227 214.059 601.245 213.856C601.675 215.344 601.612 214.988 602.741 216.083C603.02 217.027 602.95 217.243 602.83 218.203L602.701 219.188C603.374 219.442 603.836 219.605 604.505 219.822L604.052 220.44L602.812 220.6C600.431 218.523 602.458 214.34 596.685 209.43C597.12 213.022 598.827 211.893 597.158 215.765L596.946 216.248C597.34 217.842 597.352 217.427 598.893 218.741L598.707 219.201C593.737 218.583 597.811 211.004 595.14 208.201C592.82 208.909 588.637 205.734 586.671 204.119C586.443 202.827 586.489 202.87 586.685 201.586C583.286 199.343 579.845 197.164 576.364 195.051C574.178 193.743 568.132 190.092 565.705 190.701C565.887 191.611 565.968 192.065 566.042 192.988C563.857 192.166 565.721 191.176 563.777 190.228C562.591 191.418 562.963 237.051 562.933 242.807C561.893 239.509 561.985 205.062 561.604 198.743C559.557 196.239 545.691 196.646 540.656 193.895L540.868 193.479C544.088 193.211 546.342 195.214 549.29 194.998C552.997 194.726 557.352 196.919 560.701 196.399C562.657 194.86 562.944 191.136 561.994 189.087C560.475 188.881 561.476 189.12 560.418 188.688C545.463 182.589 527.845 180.604 512 180.75C512.027 182.379 512.272 184.467 511.322 185.594C510.463 184.181 510.733 182.488 510.754 180.745C500.472 180.447 472.797 183.777 464.172 189.072C463.521 190.875 463.199 202.736 463.085 205.474C463.717 218.924 462.716 229.159 462.59 241.965L462.327 316.607L461.899 544.096L462.257 617.819C462.212 634.757 461.555 651.964 461.915 668.85L462.644 733.09C462.691 736.384 463.418 740.28 463.282 743.406C462.621 758.597 464.253 775.592 463.081 790.539C461.673 782.017 462.982 769.414 462.609 760.554C461.844 742.405 462.646 723.065 461.721 705.02C461.302 707.227 461.625 710.024 461.469 711.724C460.428 723.042 463.503 797.207 461.071 801.029L459.224 801.071L458.855 801.95C461.635 802.885 493.589 803.418 494.84 802.634C501.029 803.702 510.965 803.037 517.464 802.971L546.541 802.952C550.123 802.928 558.607 802.564 561.624 803.269L561.646 804.018C559.565 806.134 558.6 805.622 555.634 805.513L555.274 805.109L555.542 804.142L554.895 803.646C553.896 804.48 554.514 805.11 554.23 805.107C534.927 804.899 491.06 806.259 474.274 805.427C471.967 805.199 464.603 805.162 463.429 804.727L462.842 802.853L462.042 802.911L461.734 804.762C456.719 805.838 372.646 805.286 370.035 804.283C369.274 803.991 368.746 803.799 367.962 803.637L367.08 803.458C364.764 806.049 361.854 807.113 358.958 804.687C357.759 803.682 358.027 801.19 357.971 799.7C357.858 778.099 358.376 755.172 357.939 733.985C356.682 729.497 357.448 724.986 357.238 720.321L357.213 719.84C357.463 718.729 357.9 718.102 358.43 717.075C359.382 718.125 359.34 718.115 360.549 718.836L361.214 718.428L361.579 716.571L361.983 716.502C361.144 710.045 363.661 692.739 362.988 689.921C362.276 687.826 361.249 683.41 362.105 681.299L364.007 681.3L363.756 680.383C361.84 679.575 361.263 679.403 359.207 678.993L358.689 678.894C359.057 666.195 358.482 653.704 358.479 640.932L358.542 557.856C358.539 550.209 357.917 542.535 358.096 534.904C358.215 529.848 359.026 481.19 358.94 480.992C358.55 480.101 358.485 479.848 358.564 478.896C360.156 478.662 360.495 478.698 361.981 478.028C362.692 476.648 362.498 474.99 362.506 473.374L361.932 473.263C360.519 469.177 360.114 458.113 361.022 454.502C360.916 448.477 362.09 428.658 359.673 425.482L360.327 424.48L362.507 424.694C361.576 424.063 360.645 423.432 359.714 422.802C357.571 418.992 358.098 411.189 358.035 406.872Z"/><defs><linearGradient id="gradient_2" gradientUnits="userSpaceOnUse" x1="348.86911" y1="749.67761" x2="374.20819" y2="745.26642"><stop offset="0" stop-color="#7C3209"/><stop offset="1" stop-color="#61401A"/></linearGradient></defs><path fill="url(#gradient_2)" transform="matrix(0.267023 0 0 0.214525 -37.3831 0)" d="M365.079 680.986C365.897 689.128 365.449 720.785 366.582 724.299C367.314 729.817 365.231 733.723 365.43 738.221C365.82 747.057 365.956 756.242 366.236 765.002C366.533 774.282 365.491 791.667 366.995 800.386L367.781 798.039C368.321 799.707 368.622 799.615 368.123 800.884C370.662 801.221 373.232 800.992 375.721 800.388C378.865 803.237 380.328 801.518 383.792 802.209C387.492 802.947 395.417 801.53 398.291 802.262C396.509 803.867 371.561 802.346 367.972 801.726C366.983 802.66 367.274 802.102 367.08 803.458C364.764 806.049 361.854 807.113 358.958 804.687C357.759 803.682 358.027 801.19 357.971 799.7C357.858 778.099 358.376 755.172 357.939 733.985C356.682 729.497 357.448 724.986 357.238 720.321L357.213 719.84C357.463 718.729 357.9 718.102 358.43 717.075C359.382 718.125 359.34 718.115 360.549 718.836L361.214 718.428L361.579 716.571L361.983 716.502C361.144 710.045 363.661 692.739 362.988 689.921L364.572 689.105C365.408 686.862 365.067 683.618 365.079 680.986Z"/><path fill="#74390F" transform="matrix(0.267023 0 0 0.214525 -37.3831 0)" d="M361.579 716.571L361.983 716.502C362.157 718.153 362.381 724.033 361.601 725.383L361.441 729.993C360.796 732.127 359.815 732.536 357.939 733.985C356.682 729.497 357.448 724.986 357.238 720.321L357.213 719.84C357.463 718.729 357.9 718.102 358.43 717.075C359.382 718.125 359.34 718.115 360.549 718.836L361.214 718.428L361.579 716.571Z"/><path fill="#665030" transform="matrix(0.267023 0 0 0.214525 -37.3831 0)" d="M361.441 729.993L360.464 730.245L359.653 729.587C359.194 726.878 358.409 721.935 360.666 719.807C361.554 720.998 361.508 723.79 361.601 725.383L361.441 729.993Z"/><path fill="#74390F" transform="matrix(0.267023 0 0 0.214525 -37.3831 0)" d="M365.079 680.986C363.727 675.012 366.505 646.603 364.151 643.798L363.257 643.532C360.252 642.619 359.192 640.62 360.608 637.697C362.147 637.343 362.576 637.473 364.143 637.588C364.384 637.34 364.625 637.092 364.866 636.844C365.215 622.352 364.982 606.106 364.992 591.778C364.997 585.224 359.106 584.753 363.379 577.265C364.344 578.111 364.045 578.983 364.192 580.737C364.678 561.607 365.125 552.903 361.401 533.884C362.709 533.274 361.982 533.431 363.801 534.04L363.796 534.661C363.794 536.06 363.943 537.627 364.045 539.034C364.8 533.911 364.455 524.271 364.515 518.719C364.623 508.906 364.498 498.831 364.448 489.01C364.433 485.961 363.278 476.154 363.696 474.183L364.224 474.259L365.034 475.78C366.543 474.583 365.47 465.755 365.461 463.549C365.427 455.272 365.075 447.003 364.552 438.746C364.249 434.168 364.978 421.616 364.06 417.893L363.383 417.517L362.105 418.009C359.69 413.428 363.233 409.161 361.968 405.637C360.426 401.342 357.053 401.055 361.409 395.315L362.493 394.92C363.812 395.691 363.819 395.992 364.14 397.608C365.168 393.487 365.245 367.787 365.449 361.312C365.809 349.874 367.368 342.383 368.639 331.322C371.368 307.579 375.888 285.507 385.335 263.394C386.597 260.44 390.614 256.048 391.593 253.607C394.284 246.901 403.172 232.071 408.546 227.945C408.184 229.552 404.135 235.17 402.722 237.165C398.935 242.511 396.005 248.129 392.824 253.836C390.4 258.185 393.169 261.723 391.108 263.505C390.683 262.031 391.687 261.333 391.2 258.793L390.585 258.342C385.472 261.717 380.056 281.703 378.026 287.9C377.297 290.126 376.215 292.281 375.711 294.572C374.846 298.504 374.67 302.629 373.983 306.606C371.219 322.607 368.849 338.331 367.299 354.508C366.955 358.102 366.2 361.803 366.053 365.388C365.788 371.834 366.643 378.309 366.451 384.778C366.065 397.742 365.272 410.752 365.497 423.728C365.627 431.191 368.531 476.788 366.964 480.432L366.843 477.115L366.331 476.671C364.667 479.108 365.654 486.138 365.654 489.546L365.853 522.233C365.947 533.921 365.904 545.558 366.195 557.252C366.353 563.593 365.601 570.171 365.78 576.601C366.281 575.418 366.572 574.609 366.972 573.386C367.349 576.839 365.809 579.692 365.87 582.621C366.212 585.892 368.218 588.19 367.09 591.497C365.744 595.442 366.109 600.421 366.166 604.607C366.493 628.869 366.01 653.162 366.293 677.422C366.474 692.838 367.461 708.918 366.582 724.299C365.449 720.785 365.897 689.128 365.079 680.986Z"/><path fill="#915525" transform="matrix(0.267023 0 0 0.214525 -37.3831 0)" d="M463.085 205.474C462.51 208.856 462.655 218.171 462.114 219.626C461.807 212.859 462.036 205.96 462.083 199.187C462.102 196.466 462.599 192.325 462.428 189.847C460.943 190.049 460.774 189.856 459.735 190.629C459.703 193.852 460.715 217.219 460.27 218.193C458.75 209.725 459.5 197.33 458.261 191.555C456.951 191.27 455.897 191.956 454.646 192.368C452.139 193.194 428.662 207.53 427.873 209.097C427.627 209.585 427.461 210.101 427.256 210.605C427.013 211.204 426.734 211.795 426.475 212.387C425.812 211.825 426.09 212.16 425.656 211.371C423.481 212.786 423.666 212.983 423.5 215.551C421.786 217.422 419.419 216.437 418.889 217.097C417.573 218.734 415.059 222.061 413.765 223.8C413.939 224.927 415.207 230.503 415.095 230.788C413.235 235.538 413.316 266.292 412.236 268.591C410.823 261.212 413.18 248.473 412.784 240.648C412.595 236.926 414.284 232.871 413.141 228.768C411.429 222.621 416.115 217.202 420.374 213.573L420.767 213.658L420.445 215.189C421.417 215.8 420.887 215.563 422.381 215.398C423.023 214.011 422.889 213.099 422.893 211.576C424.127 209.647 449.583 192.87 452.336 191.629C490.472 174.441 546.421 173.865 582.831 197.213C588.707 200.902 594.251 205.094 599.402 209.742C604.32 214.188 626.869 239.116 628.201 244.471C629.406 247.265 637.551 262.279 639.368 264.87L640.41 266.667C641.55 266.933 641.547 266.961 642.714 267.042C642.43 267.241 641.296 267.998 641.101 268.213L640.656 269.232C639.057 265.312 623.998 238.256 621.492 237.733C621.023 239.291 621.457 241.132 622.076 242.591C623.22 243.16 623.534 243.214 624.438 244.089C625.354 248.434 624.076 252.71 624.77 256.37C625.267 258.994 627.253 260.446 627.129 264.341C626.289 263.789 625.968 261.992 625.507 260.922C624.894 259.498 624.086 256.976 623.882 255.606C623.662 254.543 623.892 244.606 623.267 244.418C620.7 243.643 619.82 240.316 619.378 237.833C618.383 237.996 618.898 237.996 617.795 237.426L617.602 236.505L618.738 237.881C619.711 237.612 619.974 237.209 620.849 236.505C620.771 236.182 617.585 232.593 617.816 232.752L617.296 233.367C616.122 233.649 616.041 233.649 614.974 234.191C613.951 236.733 614.952 238.337 615.965 240.91C615.132 242.055 615.268 242.271 615.093 243.728C614.524 245.563 614.352 250.864 614.215 253.104C613.46 250.253 614.618 233.495 613.423 227.108L613.093 227.272C612.229 232.458 612.666 237.913 612.065 243.331C611.829 239.488 611.412 236.014 611.141 232.257C611.207 230.166 611.847 225.454 611.379 224.169C609.859 222.942 607.805 220.875 606.155 220.622C604.805 223.501 606.013 223.051 606.327 226.071C603.976 225.088 605.845 219.546 603.912 215.006C602.365 213.701 603.227 214.059 601.245 213.856C601.675 215.344 601.612 214.988 602.741 216.083C603.02 217.027 602.95 217.243 602.83 218.203L602.701 219.188C603.374 219.442 603.836 219.605 604.505 219.822L604.052 220.44L602.812 220.6C600.431 218.523 602.458 214.34 596.685 209.43C597.12 213.022 598.827 211.893 597.158 215.765L596.946 216.248C597.34 217.842 597.352 217.427 598.893 218.741L598.707 219.201C593.737 218.583 597.811 211.004 595.14 208.201C592.82 208.909 588.637 205.734 586.671 204.119C586.443 202.827 586.489 202.87 586.685 201.586C583.286 199.343 579.845 197.164 576.364 195.051C574.178 193.743 568.132 190.092 565.705 190.701C565.887 191.611 565.968 192.065 566.042 192.988C563.857 192.166 565.721 191.176 563.777 190.228C562.591 191.418 562.963 237.051 562.933 242.807C561.893 239.509 561.985 205.062 561.604 198.743C559.557 196.239 545.691 196.646 540.656 193.895L540.868 193.479C544.088 193.211 546.342 195.214 549.29 194.998C552.997 194.726 557.352 196.919 560.701 196.399C562.657 194.86 562.944 191.136 561.994 189.087C560.475 188.881 561.476 189.12 560.418 188.688C545.463 182.589 527.845 180.604 512 180.75C512.027 182.379 512.272 184.467 511.322 185.594C510.463 184.181 510.733 182.488 510.754 180.745C500.472 180.447 472.797 183.777 464.172 189.072C463.521 190.875 463.199 202.736 463.085 205.474Z"/><path fill="#665030" transform="matrix(0.267023 0 0 0.214525 -37.3831 0)" d="M359.673 425.482L360.327 424.48L362.507 424.694C362.827 425.135 363.148 425.576 363.468 426.017C363.044 431.675 365.415 447.639 364.438 452.263L363.628 452.654C363.181 451.614 363.749 448.972 363.583 447.209L362.865 447.641L363.217 447.282C362.756 448.527 362.778 448.698 363.008 450.006L361.931 451.722C361.197 452.895 361.277 453.11 361.022 454.502C360.916 448.477 362.09 428.658 359.673 425.482Z"/><path fill="#665030" transform="matrix(0.267023 0 0 0.214525 -37.3831 0)" d="M361.022 454.502C361.277 453.11 361.197 452.895 361.931 451.722L361.98 452.435C362.517 459.365 365.41 463.18 362.684 471.197C362.419 471.977 362.449 472.578 362.506 473.374L361.932 473.263C360.519 469.177 360.114 458.113 361.022 454.502Z"/><path fill="#74390F" transform="matrix(0.267023 0 0 0.214525 -37.3831 0)" d="M628.201 244.471C628.445 244.75 631.181 248.096 630.958 248.036C632.7 248.508 634.903 247.953 636.174 249.277C635.666 250.47 634.619 250.835 633.437 251.512C633.18 254.343 638.019 260.232 639.368 264.87C637.551 262.279 629.406 247.265 628.201 244.471Z"/><defs><linearGradient id="gradient_3" gradientUnits="userSpaceOnUse" x1="661.45325" y1="403.12247" x2="600.13544" y2="408.6861"><stop offset="0" stop-color="#9D541F"/><stop offset="1" stop-color="#CA863C"/></linearGradient></defs><path fill="url(#gradient_3)" transform="matrix(0.267023 0 0 0.214525 -37.3831 0)" d="M615.093 243.728C615.268 242.271 615.132 242.055 615.965 240.91C614.952 238.337 613.951 236.733 614.974 234.191C616.041 233.649 616.122 233.649 617.296 233.367L617.816 232.752C617.585 232.593 620.771 236.182 620.849 236.505C619.974 237.209 619.711 237.612 618.738 237.881L617.602 236.505L617.795 237.426C618.898 237.996 618.383 237.996 619.378 237.833C619.82 240.316 620.7 243.643 623.267 244.418C623.892 244.606 623.662 254.543 623.882 255.606C624.086 256.976 624.894 259.498 625.507 260.922C625.968 261.992 626.289 263.789 627.129 264.341C627.253 260.446 625.267 258.994 624.77 256.37C624.076 252.71 625.354 248.434 624.438 244.089C623.534 243.214 623.22 243.16 622.076 242.591C621.457 241.132 621.023 239.291 621.492 237.733C623.998 238.256 639.057 265.312 640.656 269.232C646.265 283.156 649.407 299.762 653.107 314.515C657.881 333.551 656.897 355.966 658.213 375.537C659.639 417.296 658.414 459.063 658.493 500.851C653.947 523.768 661.59 554.567 657.187 577.417C655.686 578.398 654.695 577.924 652.461 578.713C651.173 576.836 651.726 575.741 650.429 575.256L649.494 575.817C644.599 569.408 646.301 569.177 637.705 565.995L637.806 568.334L635.199 567.508L634.887 569.036C629.041 566.718 631.741 566.365 624.412 567.268L622.017 568.093C617.516 569.156 615.986 570.963 612.639 574.034C611.559 576.087 611.052 577.727 610.23 579.869L608.121 578.629C609.216 575.894 610.491 573.174 611.616 570.384L614.012 569.269L614.995 567.82C613.421 565.74 614.588 517.69 614.484 511.29C613.898 475.288 614.44 439.142 614.21 403.131C614.133 391.008 615.067 378.554 614.982 366.4C614.62 339.561 613.981 312.289 614.251 285.481C614.397 270.968 615.735 258.833 615.093 243.728Z"/><path fill="#82653E" transform="matrix(0.267023 0 0 0.214525 -37.3831 0)" d="M614.995 567.82C615.6 567.444 616.22 567.09 616.851 566.76C623.977 563.106 630.418 563.686 637.705 565.995L637.806 568.334L635.199 567.508L634.887 569.036C629.041 566.718 631.741 566.365 624.412 567.268L622.017 568.093C617.516 569.156 615.986 570.963 612.639 574.034C611.559 576.087 611.052 577.727 610.23 579.869L608.121 578.629C609.216 575.894 610.491 573.174 611.616 570.384L614.012 569.269L614.995 567.82Z"/><path fill="#A95F25" transform="matrix(0.267023 0 0 0.214525 -37.3831 0)" d="M637.705 565.995C646.301 569.177 644.599 569.408 649.494 575.817L650.429 575.256C651.726 575.741 651.173 576.836 652.461 578.713C654.695 577.924 655.686 578.398 657.187 577.417C661.59 554.567 653.947 523.768 658.493 500.851C658.876 507.923 658.779 514.663 658.671 521.741C658.404 539.22 658.981 556.748 658.39 574.213C658.316 576.402 658.032 578.622 658.005 580.801L657.283 580.695C656.447 583.328 657.007 587.603 657.238 590.541C657.524 594.178 656.666 598.914 657.045 602.313C658.418 614.663 657.739 626.658 657.745 639.046L657.745 713.892C657.771 739.055 658.172 764.4 657.308 789.539C657.237 791.612 657.345 799.758 656.899 801.161C651.673 801.5 644.386 802.104 639.269 801.8C632.072 801.372 618.566 803.844 612.468 800.854C611.482 801.36 611.821 801.097 611.172 802.054C606.726 802.431 568.31 802.664 566.466 801.63C564.123 797.338 565.183 759.397 564.844 752.131C564.03 734.71 563.947 715.78 563.962 698.207C563.968 690.886 563.585 680.566 564.345 673.356C565.169 684.932 564.352 696.988 564.815 708.605C566.035 739.26 566.802 770.59 566.748 801.254L610.676 801.281C610.606 801.521 610.726 787.936 610.731 786.88L610.738 763.107C610.738 742.83 611.335 722.909 611.285 702.56C611.257 691.656 610.471 678.646 610.697 668.366L611.373 624.741C611.501 614.836 612.692 608.723 610.91 598.26L611.004 597.862C611.534 595.942 611.036 596.456 612.197 595.271L613.555 595.485C613.212 593.16 611.606 590.206 609.97 588.549L610.321 586.404C609.798 585.383 609.956 581.155 610.23 579.869C611.052 577.727 611.559 576.087 612.639 574.034C615.986 570.963 617.516 569.156 622.017 568.093L624.412 567.268C631.741 566.365 629.041 566.718 634.887 569.036L635.199 567.508L637.806 568.334L637.705 565.995Z"/><path fill="#915525" transform="matrix(0.267023 0 0 0.214525 -37.3831 0)" d="M637.705 565.995C646.301 569.177 644.599 569.408 649.494 575.817L650.429 575.256C651.726 575.741 651.173 576.836 652.461 578.713C654.695 577.924 655.686 578.398 657.187 577.417C661.59 554.567 653.947 523.768 658.493 500.851C658.876 507.923 658.779 514.663 658.671 521.741C658.404 539.22 658.981 556.748 658.39 574.213C658.316 576.402 658.032 578.622 658.005 580.801L657.283 580.695L657.453 579.083C654.918 578.282 654.969 580.389 650.128 577.779C650.577 579.423 650.327 580.147 650.011 581.759C649.435 581.149 648.997 578.261 648.768 577.197C648.674 578.432 648.472 581.361 648.765 582.522C648.989 583.41 651.84 585.605 651.167 586.682C650.439 586.074 649.863 585.637 649.213 584.959C648.403 587.391 647.4 589.636 647.546 592.139L647.935 592.815C649.132 592.98 648.816 592.972 650.067 592.883C650.8 594.282 650.389 594.486 650.043 596.46L649.119 597.32L649.922 596.794L649.306 597.404C647.625 595.502 647.825 594.581 646.073 594.04C644.915 595.079 644.984 594.991 644.447 596.454C644.742 598.363 645.504 601.679 644.962 603.353L644.385 603.131L643.507 599.204L643.007 598.936C639.621 604.672 643.168 603.724 642.654 606.586C641.302 614.112 644.772 627.989 635.339 630.966C628.717 633.055 622.682 633.044 618.794 627.037L617.848 625.597L618.921 621.426C619.419 617.519 619.592 617.199 618.371 613.376C617.193 611.74 619.078 612.157 616.421 610.048L616.249 609.13C616.683 607.26 616.404 605.879 616.851 604.212L618.103 604.077C618.689 603.102 618.492 603.651 618.286 602.251C616.959 601.58 616.668 601.165 615.599 600.136L615.197 599.244C617.467 596.099 619.545 599.356 620.57 593.408L617.945 592.537C616.64 593.226 616.811 593.681 616.023 595.372C614.378 595.701 614.818 595.917 613.555 595.485C613.212 593.16 611.606 590.206 609.97 588.549L610.321 586.404C609.798 585.383 609.956 581.155 610.23 579.869C611.052 577.727 611.559 576.087 612.639 574.034C615.986 570.963 617.516 569.156 622.017 568.093L624.412 567.268C631.741 566.365 629.041 566.718 634.887 569.036L635.199 567.508L637.806 568.334L637.705 565.995Z"/><path fill="#555343" transform="matrix(0.267023 0 0 0.214525 -37.3831 0)" d="M624.412 567.268C631.741 566.365 629.041 566.718 634.887 569.036C635.755 571.466 635.404 571.529 634.493 574.05L635.32 575.477L636.59 576.513L636.893 575.563L637.364 575.801C637.23 576.746 637.321 576.598 636.957 577.456L636.267 578.32C636.546 580.396 636.816 579.546 635.72 581.037C633.578 581.78 633.65 581.358 632.642 582.853C631.383 587.653 628.084 586.052 627.375 590.212C625.485 591.285 622.61 592.648 620.57 593.408L617.945 592.537C616.64 593.226 616.811 593.681 616.023 595.372C614.378 595.701 614.818 595.917 613.555 595.485C613.212 593.16 611.606 590.206 609.97 588.549L610.321 586.404C609.798 585.383 609.956 581.155 610.23 579.869C611.052 577.727 611.559 576.087 612.639 574.034C615.986 570.963 617.516 569.156 622.017 568.093L624.412 567.268Z"/><defs><linearGradient id="gradient_4" gradientUnits="userSpaceOnUse" x1="620.34747" y1="578.82855" x2="615.88257" y2="571.62158"><stop offset="0" stop-color="#969178"/><stop offset="1" stop-color="#B4A78A"/></linearGradient></defs><path fill="url(#gradient_4)" transform="matrix(0.267023 0 0 0.214525 -37.3831 0)" d="M624.412 567.268C627.767 567.404 628.774 567.108 631.455 569.178C629.541 571.025 628.757 570.813 625.966 571.415C624.131 572.644 619.786 575.011 618.693 576.442L617.288 578.429C615.587 581.647 614.298 582.627 614.279 586.099C613.214 587.622 613.359 588.478 613.275 590.252L612.756 591.021C611.18 588.429 611.918 587.115 610.321 586.404C609.798 585.383 609.956 581.155 610.23 579.869C611.052 577.727 611.559 576.087 612.639 574.034C615.986 570.963 617.516 569.156 622.017 568.093L624.412 567.268Z"/><path fill="#9E967B" transform="matrix(0.267023 0 0 0.214525 -37.3831 0)" d="M624.412 567.268C627.767 567.404 628.774 567.108 631.455 569.178C629.541 571.025 628.757 570.813 625.966 571.415C624.131 572.644 619.786 575.011 618.693 576.442L617.288 578.429L616.399 578.139C615.905 578.49 615.382 578.808 614.946 579.232C614.397 575.473 624.605 571.055 626.052 568.524C624.489 567.564 624.286 567.973 622.017 568.093L624.412 567.268Z"/><path fill="#918F7B" transform="matrix(0.267023 0 0 0.214525 -37.3831 0)" d="M618.693 576.442C619.786 575.011 624.131 572.644 625.966 571.415C629.999 574.882 629.112 577.234 624.609 579.712L622.288 582.281C620.121 583.987 620.49 584.22 618.126 584.621C617.724 584.483 615.953 583.77 615.782 583.778L614.279 586.099C614.298 582.627 615.587 581.647 617.288 578.429L618.693 576.442Z"/><path fill="#85826E" transform="matrix(0.267023 0 0 0.214525 -37.3831 0)" d="M618.693 576.442L619.788 576.412C620.688 578.722 618.502 578.379 619.879 580.469C621.987 581.147 622.62 580.135 624.609 579.712L622.288 582.281C620.121 583.987 620.49 584.22 618.126 584.621C617.724 584.483 615.953 583.77 615.782 583.778L614.279 586.099C614.298 582.627 615.587 581.647 617.288 578.429L618.693 576.442Z"/><path fill="#756D56" transform="matrix(0.267023 0 0 0.214525 -37.3831 0)" d="M615.782 583.778C616.493 585.006 616.542 585.2 617.514 586.202C621.64 585.851 621.239 584.802 624.478 586.029L625.753 587.582C624.051 591.948 618.913 590.384 616.445 592.935L616.023 595.372C614.378 595.701 614.818 595.917 613.555 595.485C613.212 593.16 611.606 590.206 609.97 588.549L610.321 586.404C611.918 587.115 611.18 588.429 612.756 591.021L613.275 590.252C613.359 588.478 613.214 587.622 614.279 586.099L615.782 583.778Z"/><path fill="#85826E" transform="matrix(0.267023 0 0 0.214525 -37.3831 0)" d="M624.412 567.268C631.741 566.365 629.041 566.718 634.887 569.036C635.755 571.466 635.404 571.529 634.493 574.05L635.32 575.477C634.447 576.51 632.175 577.252 630.533 578.819C628.607 579.709 626.702 580.606 624.932 581.783C623.689 582.152 623.563 582.244 622.288 582.281L624.609 579.712C629.112 577.234 629.999 574.882 625.966 571.415C628.757 570.813 629.541 571.025 631.455 569.178C628.774 567.108 627.767 567.404 624.412 567.268Z"/><path fill="#756D56" transform="matrix(0.267023 0 0 0.214525 -37.3831 0)" d="M624.412 567.268C631.741 566.365 629.041 566.718 634.887 569.036C635.755 571.466 635.404 571.529 634.493 574.05L635.32 575.477C634.447 576.51 632.175 577.252 630.533 578.819C632.453 574.24 630.962 576.141 629.932 572.727C630.956 571.027 631.173 570.99 632.937 570.039L632.79 569.419L631.455 569.178C628.774 567.108 627.767 567.404 624.412 567.268Z"/><path fill="#696452" transform="matrix(0.267023 0 0 0.214525 -37.3831 0)" d="M635.32 575.477L636.59 576.513C629.709 578.455 631.621 583.689 626.11 585.946C625.983 586.463 625.8 587.07 625.753 587.582L624.478 586.029C621.239 584.802 621.64 585.851 617.514 586.202C616.542 585.2 616.493 585.006 615.782 583.778C615.953 583.77 617.724 584.483 618.126 584.621C620.49 584.22 620.121 583.987 622.288 582.281C623.563 582.244 623.689 582.152 624.932 581.783C626.702 580.606 628.607 579.709 630.533 578.819C632.175 577.252 634.447 576.51 635.32 575.477Z"/><path fill="#555343" transform="matrix(0.267023 0 0 0.214525 -37.3831 0)" d="M638.718 596.348C638.609 598.056 638.294 597.656 638.986 598.628C639.777 597.853 640.584 597.094 641.404 596.35C641.592 597.447 641.776 597.249 641.232 598.125C638.672 602.251 640.411 606.47 640.255 612.128L641.175 611.868C641.435 615.113 641.418 616.048 641.152 619.24C640.292 620.058 639.757 620.681 639.073 621.652L638.449 621.512C637.908 622.735 638.353 622.375 637.304 622.85C636.017 621.987 635.566 621.472 634.445 620.42C633.482 622.053 632.916 623.591 631.258 624.261C630.346 624.1 630.139 624.122 629.285 623.788L627.083 623.368L625.168 623.902C622.403 622.123 624.629 621.311 620.981 619.368C621.113 620.847 621.397 621.927 620.747 623.221C619.343 622.636 619.989 622.967 618.921 621.426C619.419 617.519 619.592 617.199 618.371 613.376C617.193 611.74 619.078 612.157 616.421 610.048L616.249 609.13C616.683 607.26 616.404 605.879 616.851 604.212L618.103 604.077C618.689 603.102 618.492 603.651 618.286 602.251C616.959 601.58 616.668 601.165 615.599 600.136C616.114 599.341 615.759 599.622 616.679 599.31C626.011 604.093 629.619 600.454 634.919 602.486L635.451 602.052C634.983 600.999 635.292 601.484 634.275 600.746C636.662 598.881 636.939 597.883 638.718 596.348Z"/><path fill="#3B3726" transform="matrix(0.267023 0 0 0.214525 -37.3831 0)" d="M638.718 596.348C638.609 598.056 638.294 597.656 638.986 598.628C639.777 597.853 640.584 597.094 641.404 596.35C641.592 597.447 641.776 597.249 641.232 598.125C638.672 602.251 640.411 606.47 640.255 612.128L641.175 611.868C641.435 615.113 641.418 616.048 641.152 619.24C640.292 620.058 639.757 620.681 639.073 621.652L638.449 621.512C638.992 617.502 637.11 617.54 636.862 612.494L637.183 609.741C635.501 610.34 630.475 610.067 628.485 610.231C626.6 610.386 626.2 610.096 625.054 608.827C624.647 607.522 619.613 603.436 618.286 602.251C616.959 601.58 616.668 601.165 615.599 600.136C616.114 599.341 615.759 599.622 616.679 599.31C626.011 604.093 629.619 600.454 634.919 602.486L635.451 602.052C634.983 600.999 635.292 601.484 634.275 600.746C636.662 598.881 636.939 597.883 638.718 596.348Z"/><path fill="#665030" transform="matrix(0.267023 0 0 0.214525 -37.3831 0)" d="M637.725 601.598C640.298 607.098 639.429 612.174 640.214 617.764L640.255 612.128L641.175 611.868C641.435 615.113 641.418 616.048 641.152 619.24C640.292 620.058 639.757 620.681 639.073 621.652L638.449 621.512C638.992 617.502 637.11 617.54 636.862 612.494L637.183 609.741C637.26 606.84 637.284 604.493 637.725 601.598Z"/><path fill="#756D56" transform="matrix(0.267023 0 0 0.214525 -37.3831 0)" d="M616.249 609.13C616.683 607.26 616.404 605.879 616.851 604.212L618.103 604.077L618.278 605.872C619.437 606.478 619.792 606.569 620.727 607.457C623.969 611.119 625.003 611.397 625.044 616.151C624.404 619.05 624.734 621.322 627.083 623.368L625.168 623.902C622.403 622.123 624.629 621.311 620.981 619.368C621.113 620.847 621.397 621.927 620.747 623.221C619.343 622.636 619.989 622.967 618.921 621.426C619.419 617.519 619.592 617.199 618.371 613.376C617.193 611.74 619.078 612.157 616.421 610.048L616.249 609.13Z"/><path fill="#696452" transform="matrix(0.267023 0 0 0.214525 -37.3831 0)" d="M620.727 607.457C623.969 611.119 625.003 611.397 625.044 616.151C624.404 619.05 624.734 621.322 627.083 623.368L625.168 623.902C622.403 622.123 624.629 621.311 620.981 619.368C621.465 617.309 622.574 616.392 622.562 614.156C620.696 611.371 620.167 610.749 620.727 607.457Z"/><path fill="#82653E" transform="matrix(0.267023 0 0 0.214525 -37.3831 0)" d="M616.249 609.13C616.683 607.26 616.404 605.879 616.851 604.212L618.103 604.077L618.278 605.872L617.873 607.032C619.686 608.183 619.496 607.814 620.181 609.803C619.537 612.544 618.931 611.535 618.371 613.376C617.193 611.74 619.078 612.157 616.421 610.048L616.249 609.13Z"/><defs><linearGradient id="gradient_5" gradientUnits="userSpaceOnUse" x1="636.92236" y1="616.38367" x2="631.65063" y2="616.63684"><stop offset="0" stop-color="#625838"/><stop offset="1" stop-color="#515344"/></linearGradient></defs><path fill="url(#gradient_5)" transform="matrix(0.267023 0 0 0.214525 -37.3831 0)" d="M634.445 620.42C633.547 617.178 631.393 615.214 631.533 613.398L632.789 612.619C634.064 612.688 634.61 612.717 635.893 612.593L636.862 612.494C637.11 617.54 638.992 617.502 638.449 621.512C637.908 622.735 638.353 622.375 637.304 622.85C636.017 621.987 635.566 621.472 634.445 620.42Z"/><path fill="#3B3726" transform="matrix(0.267023 0 0 0.214525 -37.3831 0)" d="M625.558 615.835C631.697 615.969 634.282 619.494 629.285 623.788L627.083 623.368C624.734 621.322 624.404 619.05 625.044 616.151L625.558 615.835Z"/><defs><linearGradient id="gradient_6" gradientUnits="userSpaceOnUse" x1="635.94501" y1="599.38129" x2="627.28217" y2="586.77173"><stop offset="0" stop-color="#393529"/><stop offset="1" stop-color="#5A5549"/></linearGradient></defs><path fill="url(#gradient_6)" transform="matrix(0.267023 0 0 0.214525 -37.3831 0)" d="M641.657 576.556L642.133 576.516L643.586 577.459L643.7 578.391L643.365 578.702C642.225 579.772 642.001 579.915 641.214 581.323C644.088 583.763 643.18 585.855 642.293 589.595C641.638 591.068 639.757 595.431 638.718 596.348C636.939 597.883 636.662 598.881 634.275 600.746C635.292 601.484 634.983 600.999 635.451 602.052L634.919 602.486C629.619 600.454 626.011 604.093 616.679 599.31C615.759 599.622 616.114 599.341 615.599 600.136L615.197 599.244C617.467 596.099 619.545 599.356 620.57 593.408C622.61 592.648 625.485 591.285 627.375 590.212C628.084 586.052 631.383 587.653 632.642 582.853C633.65 581.358 633.578 581.78 635.72 581.037C636.816 579.546 636.546 580.396 636.267 578.32L636.957 577.456L637.503 577.87L637.265 578.193C637.607 579.567 637.436 579.869 638.285 580.732C639.902 580.394 641.892 579.686 642.861 578.263L641.657 576.556Z"/><path fill="#696452" transform="matrix(0.267023 0 0 0.214525 -37.3831 0)" d="M627.375 590.212C628.084 586.052 631.383 587.653 632.642 582.853C632.74 585.13 633.016 586.104 632.003 588.028C630.54 589.539 629.48 589.614 627.375 590.212Z"/><path fill="#665030" transform="matrix(0.267023 0 0 0.214525 -37.3831 0)" d="M620.981 619.368C624.629 621.311 622.403 622.123 625.168 623.902L627.083 623.368L629.285 623.788C630.139 624.122 630.346 624.1 631.258 624.261C632.916 623.591 633.482 622.053 634.445 620.42C635.566 621.472 636.017 621.987 637.304 622.85C635.366 624.774 635.668 624.578 636.048 627.485L635.433 628.868C631.497 629.512 628.168 628.8 624.401 627.801C623.786 627.711 623.281 627.119 622.744 626.643L622.19 626.144C620.964 626.775 620.138 626.818 618.794 627.037L617.848 625.597L618.921 621.426C619.989 622.967 619.343 622.636 620.747 623.221C621.397 621.927 621.113 620.847 620.981 619.368Z"/><path fill="#82653E" transform="matrix(0.267023 0 0 0.214525 -37.3831 0)" d="M620.981 619.368C624.629 621.311 622.403 622.123 625.168 623.902C628.231 626.908 627.851 624.665 631.134 625.974L630.324 627.028L630.421 626.943C625.733 628.318 627.318 625.763 624.401 627.801C623.786 627.711 623.281 627.119 622.744 626.643L622.19 626.144C620.964 626.775 620.138 626.818 618.794 627.037L617.848 625.597L618.921 621.426C619.989 622.967 619.343 622.636 620.747 623.221C621.397 621.927 621.113 620.847 620.981 619.368Z"/><path fill="#665030" transform="matrix(0.267023 0 0 0.214525 -37.3831 0)" d="M642.133 576.516L644.391 576.19C644.877 579.804 645.687 583.551 644.54 586.978C645.33 590.833 642.707 591.71 643.661 596.045C639.369 603.314 641.494 603.107 641.175 611.868L640.255 612.128C640.411 606.47 638.672 602.251 641.232 598.125C641.776 597.249 641.592 597.447 641.404 596.35C640.584 597.094 639.777 597.853 638.986 598.628C638.294 597.656 638.609 598.056 638.718 596.348C639.757 595.431 641.638 591.068 642.293 589.595C643.18 585.855 644.088 583.763 641.214 581.323C642.001 579.915 642.225 579.772 643.365 578.702L643.7 578.391L643.586 577.459L642.133 576.516Z"/><path fill="#696452" transform="matrix(0.267023 0 0 0.214525 -37.3831 0)" d="M635.199 567.508C637.695 570.757 641.673 572.636 641.657 576.556L642.861 578.263C641.892 579.686 639.902 580.394 638.285 580.732C637.436 579.869 637.607 579.567 637.265 578.193L637.503 577.87L636.957 577.456C637.321 576.598 637.23 576.746 637.364 575.801L636.893 575.563L636.59 576.513L635.32 575.477L634.493 574.05C635.404 571.529 635.755 571.466 634.887 569.036L635.199 567.508Z"/><path fill="#4E381C" transform="matrix(0.267023 0 0 0.214525 -37.3831 0)" d="M645.734 576.859C649.434 584.632 648.104 588.874 643.661 596.045C642.707 591.71 645.33 590.833 644.54 586.978C645.687 583.551 644.877 579.804 644.391 576.19L645.734 576.859Z"/><path fill="#74390F" transform="matrix(0.267023 0 0 0.214525 -37.3831 0)" d="M635.199 567.508L637.806 568.334C642.69 569.227 643.984 572.599 645.734 576.859L644.391 576.19L642.133 576.516L641.657 576.556C641.673 572.636 637.695 570.757 635.199 567.508Z"/><path fill="#74390F" transform="matrix(0.267023 0 0 0.214525 -37.3831 0)" d="M638.449 621.512L639.073 621.652C639.757 620.681 640.292 620.058 641.152 619.24C641.151 622.435 639.092 628.626 635.433 628.868L636.048 627.485C635.668 624.578 635.366 624.774 637.304 622.85C638.353 622.375 637.908 622.735 638.449 621.512Z"/><path fill="#665030" transform="matrix(0.267023 0 0 0.214525 -37.3831 0)" d="M616.023 595.372C616.811 593.681 616.64 593.226 617.945 592.537L620.57 593.408C619.545 599.356 617.467 596.099 615.197 599.244L615.599 600.136C616.668 601.165 616.959 601.58 618.286 602.251C618.492 603.651 618.689 603.102 618.103 604.077L616.851 604.212C616.404 605.879 616.683 607.26 616.249 609.13C613.361 602.612 617.476 605.384 610.91 598.26L611.004 597.862C611.534 595.942 611.036 596.456 612.197 595.271L613.555 595.485C614.818 595.917 614.378 595.701 616.023 595.372Z"/><path fill="#8D754B" transform="matrix(0.267023 0 0 0.214525 -37.3831 0)" d="M616.421 610.048C619.078 612.157 617.193 611.74 618.371 613.376C619.592 617.199 619.419 617.519 618.921 621.426L617.848 625.597C615.815 622.262 616.929 615.355 616.421 610.048Z"/><path fill="#A95F25" transform="matrix(0.267023 0 0 0.214525 -37.3831 0)" d="M611.141 232.257C611.412 236.014 611.829 239.488 612.065 243.331C612.666 237.913 612.229 232.458 613.093 227.272L613.423 227.108C614.618 233.495 613.46 250.253 614.215 253.104C614.352 250.864 614.524 245.563 615.093 243.728C615.735 258.833 614.397 270.968 614.251 285.481C613.981 312.289 614.62 339.561 614.982 366.4C615.067 378.554 614.133 391.008 614.21 403.131C614.44 439.142 613.898 475.288 614.484 511.29C614.588 517.69 613.421 565.74 614.995 567.82L614.012 569.269L611.616 570.384C612.136 560.841 611.649 547.316 611.627 537.509L611.678 485.436L611.386 358.25L610.747 277.372L610.791 249.055C610.797 245.452 611.516 235.304 609.711 233.094L611.141 232.257Z"/><path fill="#864A18" transform="matrix(0.267023 0 0 0.214525 -37.3831 0)" d="M657.283 580.695L658.005 580.801C659.132 601.22 658.704 617.745 658.764 637.811L658.721 728.347C658.633 747.722 659.493 766.851 658.502 786.219C658.197 792.183 658.844 798.85 658.133 804.713C660.098 804.782 663.362 804.787 665.175 805.185L661.589 805.43C599.079 806.141 536.564 806.323 474.051 805.978L474.274 805.427C491.06 806.259 534.927 804.899 554.23 805.107C554.514 805.11 553.896 804.48 554.895 803.646L555.542 804.142L555.274 805.109L555.634 805.513C558.6 805.622 559.565 806.134 561.646 804.018L561.624 803.269C558.607 802.564 550.123 802.928 546.541 802.952L517.464 802.971C510.965 803.037 501.029 803.702 494.84 802.634C500.007 802.08 505.668 802.442 510.901 802.575C512.254 801.861 511.674 802.366 512.353 800.67C513.396 801.587 512.805 801.374 514.175 801.352C517.173 797.897 513.634 790.573 515.244 788.555C515.35 790.64 515.381 792.675 515.763 794.725C516.903 795.24 516.869 795.19 518.13 795.287L517.658 795.383C517.224 795.49 516.789 795.598 516.355 795.706L516.473 801.07C520.216 802.276 557.144 801.83 561.14 800.894C562.732 792.731 562.389 777.089 562.257 768.569C562.038 754.42 562.505 740.337 562.608 726.187C562.67 717.552 561.677 700.909 562.756 692.804C564.043 696.286 562.548 700.771 562.78 704.187C563.643 716.846 562.743 730.544 562.988 743.178C563.109 749.419 562.034 800.326 563.41 801.479C564.6 801.41 565.301 801.386 566.466 801.63C568.31 802.664 606.726 802.431 611.172 802.054C611.821 801.097 611.482 801.36 612.468 800.854C618.566 803.844 632.072 801.372 639.269 801.8C644.386 802.104 651.673 801.5 656.899 801.161C657.345 799.758 657.237 791.612 657.308 789.539C658.172 764.4 657.771 739.055 657.745 713.892L657.745 639.046C657.739 626.658 658.418 614.663 657.045 602.313C656.666 598.914 657.524 594.178 657.238 590.541C657.007 587.603 656.447 583.328 657.283 580.695Z"/><path fill="#A95F25" transform="matrix(0.267023 0 0 0.214525 -37.3831 0)" d="M463.245 801.255C467.797 801.285 481.432 801.68 485.181 801.061C486.494 797.93 483.246 786.233 483.983 782.8C485.305 783.856 486.354 798.262 486.777 801.069C488.239 793.801 484.174 785.354 486.234 782.432C486.45 782.902 487.738 791.455 487.925 792.771C489.92 794.972 493.934 793.342 494.849 794.824C491.765 795.291 491.067 795.271 488.197 794.025L487.754 794.244C487.887 796.718 488.036 798.749 488.322 801.228C490.782 801.278 505.008 801.542 506.234 800.924L507.058 799.287L506.741 800.687C507.283 799.011 507.993 796.202 509.055 794.958C510.319 794.852 509.902 794.828 511.189 795.074C513.058 789.512 512.072 758.127 512.415 750.097C512.726 742.835 512.523 731.411 512.898 723.673C513.14 718.689 511.962 707.399 512.793 702.504C513.061 709.825 513.794 718.782 513.496 725.977C512.464 750.919 513.7 775.767 512.353 800.67C511.674 802.366 512.254 801.861 510.901 802.575C505.668 802.442 500.007 802.08 494.84 802.634C493.589 803.418 461.635 802.885 458.855 801.95L459.224 801.071L461.071 801.029C463.503 797.207 460.428 723.042 461.469 711.724C461.625 710.024 461.302 707.227 461.721 705.02C462.646 723.065 461.844 742.405 462.609 760.554C462.982 769.414 461.673 782.017 463.081 790.539C463.35 794.183 463.277 797.607 463.245 801.255Z"/><path fill="#82653E" transform="matrix(0.267023 0 0 0.214525 -37.3831 0)" d="M607.314 587.372C608.56 587.746 608.994 587.735 609.97 588.549C611.606 590.206 613.212 593.16 613.555 595.485L612.197 595.271C611.036 596.456 611.534 595.942 611.004 597.862C609.13 594.864 607.542 590.921 607.314 587.372Z"/><path fill="#82653E" transform="matrix(0.267023 0 0 0.214525 -37.3831 0)" d="M608.121 578.629L610.23 579.869C609.956 581.155 609.798 585.383 610.321 586.404L609.97 588.549C608.994 587.735 608.56 587.746 607.314 587.372C607.325 584.67 607.08 580.989 608.121 578.629Z"/><defs><linearGradient id="gradient_7" gradientUnits="userSpaceOnUse" x1="526.08582" y1="911.17517" x2="498.41077" y2="787.05188"><stop offset="0" stop-color="#BFA36F"/><stop offset="1" stop-color="#D6C58F"/></linearGradient></defs><path fill="url(#gradient_7)" transform="matrix(0.267023 0 0 0.214525 -37.3831 0)" d="M474.051 805.978C536.564 806.323 599.079 806.141 661.589 805.43C666.801 808.429 672.096 808.255 678.057 808.586C680.59 809.666 685.256 809.393 686.541 810.669C685.206 811.667 677.599 811.843 675.63 811.954C680.507 812.977 684.043 813.093 688.986 812.937C689.36 812.926 690.674 814.121 691.004 814.517C693.779 815.958 704.119 816.248 707.671 819.253C708.283 819.77 709.089 819.829 709.879 819.924C711.188 821.394 711.764 822.28 712.868 823.931C714.141 825.445 714.787 826.123 715.733 827.832C715.842 834.334 716.773 867.18 714.256 870.394C705.256 871.595 696.392 871.285 687.31 871.3L650.995 871.323L521.561 871.101L362.617 871.376C355.171 871.369 314.871 871.872 310.465 870.652C307.55 866.889 308.144 837.417 308.938 831.787C308.843 830.387 309.023 827.978 309.085 826.508C313.061 820.791 320.07 813.103 325.366 808.488L326.024 807.629C345.818 819.184 357.566 814.685 379.481 815C383.686 815.06 389.63 815.171 393.682 814.869C396.65 813.973 399.37 814.245 402.489 814.284C400.219 813.926 397.062 813.716 395.47 812.309L395.726 811.712C398.62 810.009 403.91 808.669 407.299 807.653L403.248 807.81L402.877 807.48L400.944 807.665C403.801 806.658 405.266 807.527 408.237 805.904L474.051 805.978Z"/><defs><linearGradient id="gradient_8" gradientUnits="userSpaceOnUse" x1="568.42365" y1="810.67169" x2="568.19916" y2="829.19305"><stop offset="0" stop-color="#CEB781"/><stop offset="1" stop-color="#E8E4B5"/></linearGradient></defs><path fill="url(#gradient_8)" transform="matrix(0.267023 0 0 0.214525 -37.3831 0)" d="M474.051 805.978C536.564 806.323 599.079 806.141 661.589 805.43C666.801 808.429 672.096 808.255 678.057 808.586C680.59 809.666 685.256 809.393 686.541 810.669C685.206 811.667 677.599 811.843 675.63 811.954C680.507 812.977 684.043 813.093 688.986 812.937C689.36 812.926 690.674 814.121 691.004 814.517C693.779 815.958 704.119 816.248 707.671 819.253C708.283 819.77 709.089 819.829 709.879 819.924C711.188 821.394 711.764 822.28 712.868 823.931C664.848 828.576 619.037 826.829 571 826.974C540.973 827.064 510.945 826.791 480.932 826.896C465.026 826.952 448.853 827.903 432.738 827.963C430.806 827.137 427.165 828.872 425.128 826.364C425.608 824.093 431.778 818.534 433.799 816.837C431.14 816.232 430.837 817.727 428.422 817.158C427.488 815.827 426.284 814.209 424.467 814.349C414.131 815.143 404.059 815.249 393.682 814.869C396.65 813.973 399.37 814.245 402.489 814.284C400.219 813.926 397.062 813.716 395.47 812.309L395.726 811.712C398.62 810.009 403.91 808.669 407.299 807.653L403.248 807.81L402.877 807.48L400.944 807.665C403.801 806.658 405.266 807.527 408.237 805.904L474.051 805.978Z"/><path fill="#B9955B" transform="matrix(0.267023 0 0 0.214525 -37.3831 0)" d="M474.051 805.978C536.564 806.323 599.079 806.141 661.589 805.43C666.801 808.429 672.096 808.255 678.057 808.586C680.59 809.666 685.256 809.393 686.541 810.669C685.206 811.667 677.599 811.843 675.63 811.954C669.794 807.726 631.329 810.723 621.99 809.376C620.168 809.114 616.026 810.523 613.811 809.902C606.832 810.036 600.468 809.794 593.271 810.03C589.908 810.598 576.088 810.328 571.942 810.341C562.961 810.369 553.252 810.842 544.355 810.75C529.081 810.704 512.696 809.378 497.669 809.952C486.501 810.379 476.029 810.62 464.947 810.837C460.994 810.657 457.022 810.683 453.156 811.648C446.428 813.639 436.969 811.059 434.475 815.103L434.46 815.37L434.179 816.363L433.799 816.837C431.14 816.232 430.837 817.727 428.422 817.158C427.488 815.827 426.284 814.209 424.467 814.349C414.131 815.143 404.059 815.249 393.682 814.869C396.65 813.973 399.37 814.245 402.489 814.284C400.219 813.926 397.062 813.716 395.47 812.309L395.726 811.712C398.62 810.009 403.91 808.669 407.299 807.653L403.248 807.81L402.877 807.48L400.944 807.665C403.801 806.658 405.266 807.527 408.237 805.904L474.051 805.978Z"/><defs><linearGradient id="gradient_9" gradientUnits="userSpaceOnUse" x1="416.16553" y1="807.815" x2="416.33612" y2="816.26575"><stop offset="0" stop-color="#BE9F69"/><stop offset="1" stop-color="#D1BF8A"/></linearGradient></defs><path fill="url(#gradient_9)" transform="matrix(0.267023 0 0 0.214525 -37.3831 0)" d="M407.299 807.653C413.312 807.328 419.339 807.917 425.176 809.4C426.877 809.833 432.935 811.514 434.209 811.461C442.423 811.125 444.878 809.885 453.156 811.648C446.428 813.639 436.969 811.059 434.475 815.103L434.46 815.37L434.179 816.363L433.799 816.837C431.14 816.232 430.837 817.727 428.422 817.158C427.488 815.827 426.284 814.209 424.467 814.349C414.131 815.143 404.059 815.249 393.682 814.869C396.65 813.973 399.37 814.245 402.489 814.284C400.219 813.926 397.062 813.716 395.47 812.309L395.726 811.712C398.62 810.009 403.91 808.669 407.299 807.653Z"/><path fill="#DAC995" transform="matrix(0.267023 0 0 0.214525 -37.3831 0)" d="M613.811 809.902C616.026 810.523 620.168 809.114 621.99 809.376C631.329 810.723 669.794 807.726 675.63 811.954C680.507 812.977 684.043 813.093 688.986 812.937C689.36 812.926 690.674 814.121 691.004 814.517C678.915 815.642 664.733 812.202 652.285 812.632C633.923 813.267 616.083 814.289 597.652 814.524C593.588 814.086 580.434 814.662 575.415 814.72C563.764 814.9 552.11 814.493 540.5 813.498C541.163 812.601 543.285 811.421 544.355 810.75C553.252 810.842 562.961 810.369 571.942 810.341C576.088 810.328 589.908 810.598 593.271 810.03C600.468 809.794 606.832 810.036 613.811 809.902Z"/><path fill="#DAC995" transform="matrix(0.267023 0 0 0.214525 -37.3831 0)" d="M453.156 811.648C457.022 810.683 460.994 810.657 464.947 810.837C471.076 811.463 475.662 815.627 481.655 815.517C482.405 815.503 486.561 815.502 486.915 815.844C484.215 816.202 481.193 816.606 478.589 815.783C471.776 813.629 465.402 815.262 458.179 815.415C451.466 814.541 440.748 812.702 434.46 815.37L434.475 815.103C436.969 811.059 446.428 813.639 453.156 811.648Z"/><path fill="#D5C390" transform="matrix(0.267023 0 0 0.214525 -37.3831 0)" d="M597.652 814.524L598.238 815.106C598.052 815.132 597.866 815.157 597.68 815.183L596.748 815.293C587.026 816.533 570.491 813.937 560.047 815.888C558.359 816.174 554.711 817.081 553.123 816.749C545.143 815.08 545.105 814.012 537.762 817.547C536.739 816.467 536.187 815.678 534.8 815.142C533.653 815.995 533.21 816.452 531.809 816.82C530.356 816.065 528.701 815.084 526.942 815.26C525.493 815.405 524.222 815.866 523.193 814.858L523.773 814.202C527.69 813.259 535.337 812.954 539.221 814.334L540.5 813.498C552.11 814.493 563.764 814.9 575.415 814.72C580.434 814.662 593.588 814.086 597.652 814.524Z"/><path fill="#D5C390" transform="matrix(0.267023 0 0 0.214525 -37.3831 0)" d="M434.46 815.37C440.748 812.702 451.466 814.541 458.179 815.415C451.288 815.569 441.051 815.89 434.179 816.363L434.46 815.37Z"/><path fill="#DAC995" transform="matrix(0.267023 0 0 0.214525 -37.3831 0)" d="M326.024 807.629C345.818 819.184 357.566 814.685 379.481 815C383.686 815.06 389.63 815.171 393.682 814.869C404.059 815.249 414.131 815.143 424.467 814.349C426.284 814.209 427.488 815.827 428.422 817.158C430.837 817.727 431.14 816.232 433.799 816.837C431.778 818.534 425.608 824.093 425.128 826.364C427.165 828.872 430.806 827.137 432.738 827.963C429.275 830.146 422.461 827.117 418.98 826.536C417.505 827.155 409.125 827.141 407.087 827.136L377.586 826.894C367.874 826.886 320.085 826.29 314.89 828.937C317.346 829.251 320.229 828.884 321.515 829.954L321.403 832.154C322.205 833.023 321.892 832.712 323.126 833.174C322.52 834.963 321.503 835.557 319.935 836.555C318.164 839.968 318.362 855.97 317.763 861.433C317.401 859.84 317.454 858.936 317.436 857.329C314.23 856.761 311.257 858.569 309.746 856.356L309.16 860.784C309.198 854.543 309.583 837.256 308.938 831.787C308.843 830.387 309.023 827.978 309.085 826.508C313.061 820.791 320.07 813.103 325.366 808.488L326.024 807.629Z"/><path fill="#D5C390" transform="matrix(0.267023 0 0 0.214525 -37.3831 0)" d="M326.024 807.629C345.818 819.184 357.566 814.685 379.481 815C383.686 815.06 389.63 815.171 393.682 814.869C404.059 815.249 414.131 815.143 424.467 814.349C426.284 814.209 427.488 815.827 428.422 817.158C430.837 817.727 431.14 816.232 433.799 816.837C431.778 818.534 425.608 824.093 425.128 826.364C427.165 828.872 430.806 827.137 432.738 827.963C429.275 830.146 422.461 827.117 418.98 826.536C420.098 825.793 422.161 823.456 423.595 822.22C423.958 821.476 423.898 821.366 424.056 820.529L422.799 819.274C424.303 818.384 425.646 817.81 426.033 816.365C423.014 813.444 413.437 816.741 409.595 816.505C394.875 815.6 380.062 815.615 365.318 815.769C359.615 815.828 352.762 819.449 346.879 817.73C342.845 816.493 337.217 816.611 333.272 815.49C326.605 813.594 327.971 814.541 325.886 809.25C325.713 808.996 325.539 808.742 325.366 808.488L326.024 807.629Z"/><path fill="#DAC995" transform="matrix(0.267023 0 0 0.214525 -37.3831 0)" d="M440.259 851.868C444.974 851.618 453.95 849.223 456.546 853.771C456.648 855.407 456.725 855.316 455.872 856.695C452.913 858.981 446.331 858.067 442.25 858C437.953 857.922 425.666 860.94 427.198 854.081C429.689 851.7 436.167 853.255 440.259 851.868Z"/><path fill="#DAC995" transform="matrix(0.267023 0 0 0.214525 -37.3831 0)" d="M333.203 832.75L348.061 832.755L348.588 833.019C350.931 834.212 351.963 834.552 352.736 836.938C352.337 838.531 352.198 838.435 350.933 839.561C344.686 840.297 338.362 840.355 332.167 839.229L331.859 837.5C331.409 834.957 330.637 833.774 333.203 832.75Z"/><path fill="#74390F" transform="matrix(0.267023 0 0 0.214525 -37.3831 0)" d="M521.831 172.404C559.125 174.728 593.996 191.676 618.867 219.564C674.806 281.797 665.49 379.223 666.016 456.632L665.916 625.88C666.193 632.481 666.886 644.582 665.677 650.846C665.591 666.616 667.405 801.422 665.574 805.217L665.175 805.185C663.362 804.787 660.098 804.782 658.133 804.713C658.844 798.85 658.197 792.183 658.502 786.219C659.493 766.851 658.633 747.722 658.721 728.347L658.764 637.811C658.704 617.745 659.132 601.22 658.005 580.801C658.032 578.622 658.316 576.402 658.39 574.213C658.981 556.748 658.404 539.22 658.671 521.741C658.779 514.663 658.876 507.923 658.493 500.851C658.414 459.063 659.639 417.296 658.213 375.537C656.897 355.966 657.881 333.551 653.107 314.515C649.407 299.762 646.265 283.156 640.656 269.232L641.101 268.213C642.532 272.299 644.027 276.953 645.654 280.896C648.467 281.372 649.658 283.955 652.287 284.14C653.031 282.613 652.287 280.696 651.673 279.013C645.609 262.396 637.7 245.895 627.117 231.665C625.382 229.331 623.95 226.176 621.862 224.188L621.186 224.896C619.882 223.744 621.017 224.064 620.381 223.26C588.06 182.424 533.141 165.555 482.584 176.111C481.492 176.339 477.911 177.21 477.301 177.884L477.992 179.768L477.296 180.013L476.574 178.29C472.497 177.39 453.533 185.063 449.165 187.296C435.256 194.407 414.034 208.948 405.48 222.216L406.336 224.093L405.91 224.319C405.338 223.994 404.875 223.447 404.207 223.74C402.513 224.483 400.13 228.281 398.901 229.887C386.095 246.62 376.347 266.68 370.535 286.939C364.191 309.056 361.009 332.098 359.528 355.003C359.176 360.443 358.551 406.188 358.035 406.872L357.785 404.228C357.116 385.984 359.024 368.35 359.074 350.72C359.734 341.155 360.705 331.613 361.987 322.111C363.408 317.124 365.342 307.374 365.611 302.307C366.818 300.429 371.075 281.928 372.977 277.264C377.139 267.057 379.979 258.592 385.597 248.771C410.487 205.261 443.121 181.524 493.174 173.689C504.144 172.591 511.327 172.914 521.831 172.404Z"/><path fill="#864A18" transform="matrix(0.267023 0 0 0.214525 -37.3831 0)" d="M665.677 650.846C665.157 649.101 664.149 645.641 663.979 643.997C663.617 640.482 664.467 628.691 665.916 625.88C666.193 632.481 666.886 644.582 665.677 650.846Z"/><path fill="#915525" transform="matrix(0.267023 0 0 0.214525 -37.3831 0)" d="M359.074 350.72C359.024 368.35 357.116 385.984 357.785 404.228L358.035 406.872C358.098 411.189 357.571 418.992 359.714 422.802C360.645 423.432 361.576 424.063 362.507 424.694L360.327 424.48L359.673 425.482C362.09 428.658 360.916 448.477 361.022 454.502C360.114 458.113 360.519 469.177 361.932 473.263L362.506 473.374C362.498 474.99 362.692 476.648 361.981 478.028C360.495 478.698 360.156 478.662 358.564 478.896C358.485 479.848 358.55 480.101 358.94 480.992C359.026 481.19 358.215 529.848 358.096 534.904C357.917 542.535 358.539 550.209 358.542 557.856L358.479 640.932C358.482 653.704 359.057 666.195 358.689 678.894L359.207 678.993C361.263 679.403 361.84 679.575 363.756 680.383L364.007 681.3L362.105 681.299C361.249 683.41 362.276 687.826 362.988 689.921C363.661 692.739 361.144 710.045 361.983 716.502L361.579 716.571L361.214 718.428L360.549 718.836C359.34 718.115 359.382 718.125 358.43 717.075C357.9 718.102 357.463 718.729 357.213 719.84L357.238 720.321C357.448 724.986 356.682 729.497 357.939 733.985C358.376 755.172 357.858 778.099 357.971 799.7C358.027 801.19 357.759 803.682 358.958 804.687C361.854 807.113 364.764 806.049 367.08 803.458L367.962 803.637C368.746 803.799 369.274 803.991 370.035 804.283C372.646 805.286 456.719 805.838 461.734 804.762L462.042 802.911L462.842 802.853L463.429 804.727C464.603 805.162 471.967 805.199 474.274 805.427L474.051 805.978L408.237 805.904C405.266 807.527 403.801 806.658 400.944 807.665L402.877 807.48L403.248 807.81L407.299 807.653C403.91 808.669 398.62 810.009 395.726 811.712L395.47 812.309C397.062 813.716 400.219 813.926 402.489 814.284C399.37 814.245 396.65 813.973 393.682 814.869C389.63 815.171 383.686 815.06 379.481 815C357.566 814.685 345.818 819.184 326.024 807.629L325.828 806.41C325.628 803.944 325.608 801.686 325.574 799.223C326.695 801.592 325.951 802.338 327.172 804.676L327.549 803.224L329.76 803.205C331.94 803.196 333.237 802.826 335.284 802.07C337.371 801.3 340.215 801.154 342.26 802.13C345.155 803.512 350.76 803.361 353.896 802.485C355.165 802.13 356.174 801.642 356.729 800.36C357.167 799.349 356.982 734.095 356.214 732.259C355.729 731.077 355.349 729.854 355.079 728.604C355.04 728.399 355 728.193 354.961 727.987L353.959 727.386L352.675 727.71C353.387 729.411 353.741 747.443 353.147 748.815C352.264 747.238 352.852 736.058 352.424 733.485C352.175 731.989 352.262 729.564 351.928 727.906C351.894 727.741 354.532 725.202 354.254 724.367C354.547 722.385 353.972 719.674 354.292 717.922C356.052 708.279 355.061 698.711 355.947 689.001C356.091 687.302 354.453 683.921 354.844 682.407C355.761 678.856 358.797 674.991 356.843 671.106C355.629 670.933 354.999 671.354 353.837 671.834L353.337 672.044L353.11 671.712C355.045 669.681 355.188 671.237 357.737 669.487C357.208 666.809 357.846 666.898 357.229 664.225L356.94 664.232L356.491 668.227C356.19 664.654 354.841 665.044 357.491 662.173C357.482 662.182 357.368 659.421 357.343 659.102C356.305 645.493 357.378 631.957 357.306 618.337C357.285 614.486 355.858 611.743 355.829 607.743C358.282 603.375 357.066 595.256 357.123 589.895C357.437 560.616 356.725 531.366 357.233 502.084C357.335 496.218 358.726 482.979 354.149 479.204C353.136 478.368 353.013 478.479 352.284 477.133C351.677 470.095 354.877 472.031 355.004 468.958C355.744 451.07 354.954 430.122 356.632 412.591C357.54 403.103 356.188 355.445 359.074 350.72Z"/><defs><linearGradient id="gradient_10" gradientUnits="userSpaceOnUse" x1="379.77203" y1="806.24384" x2="379.69415" y2="814.21674"><stop offset="0" stop-color="#B89960"/><stop offset="1" stop-color="#CBB67E"/></linearGradient></defs><path fill="url(#gradient_10)" transform="matrix(0.267023 0 0 0.214525 -37.3831 0)" d="M326.862 806.963C327.432 807.251 327.609 807.359 328.158 807.579C334.603 810.15 355.234 809.968 361.282 807.185C368.03 804.08 398.646 805.677 408.237 805.904C405.266 807.527 403.801 806.658 400.944 807.665L402.877 807.48L403.248 807.81L407.299 807.653C403.91 808.669 398.62 810.009 395.726 811.712L395.47 812.309C397.062 813.716 400.219 813.926 402.489 814.284C399.37 814.245 396.65 813.973 393.682 814.869C389.63 815.171 383.686 815.06 379.481 815C357.566 814.685 345.818 819.184 326.024 807.629L325.828 806.41L326.862 806.963Z"/><path fill="#74390F" transform="matrix(0.267023 0 0 0.214525 -37.3831 0)" d="M357.217 689.177C360.333 693.119 356.968 692.884 359.916 694.442L360.007 694.718C363.487 698.064 360.04 713.124 361.579 716.571L361.214 718.428L360.549 718.836C359.34 718.115 359.382 718.125 358.43 717.075C357.9 718.102 357.463 718.729 357.213 719.84C357.048 719.588 356.625 718.984 356.624 718.78C356.597 714.228 356.106 692.102 357.217 689.177Z"/><path fill="#82653E" transform="matrix(0.267023 0 0 0.214525 -37.3831 0)" d="M360.007 694.718C363.487 698.064 360.04 713.124 361.579 716.571L361.214 718.428L360.549 718.836C359.34 718.115 359.382 718.125 358.43 717.075C358.472 715.245 358.902 714.46 358.915 711.789C358.939 706.59 358.691 700.975 359.016 695.806C359.347 695.443 359.677 695.081 360.007 694.718Z"/><path fill="#8D754B" transform="matrix(0.267023 0 0 0.214525 -37.3831 0)" d="M359.673 425.482C362.09 428.658 360.916 448.477 361.022 454.502L359.096 454.553L358.395 454.365C357.364 450.908 359.791 438.399 358.02 433.958C357.591 432.885 357.842 432.985 358.392 432.033C358.6 429.041 358.362 428.122 359.673 425.482Z"/><path fill="#82653E" transform="matrix(0.267023 0 0 0.214525 -37.3831 0)" d="M361.022 454.502C360.114 458.113 360.519 469.177 361.932 473.263C360.522 474.841 361.315 474.577 359.692 474.738C357.835 473.119 358.105 470.605 358.456 468.419C358.5 461.955 357.215 461.973 359.096 454.553L361.022 454.502Z"/><path fill="#82653E" transform="matrix(0.267023 0 0 0.214525 -37.3831 0)" d="M356.578 430.675C357.469 432.032 356.872 431.609 358.392 432.033C357.842 432.985 357.591 432.885 358.02 433.958C359.791 438.399 357.364 450.908 358.395 454.365L356.9 454.706C355.939 456.746 356.453 460.804 356.22 463.518C356.194 460.01 356.103 431.843 356.578 430.675Z"/><path fill="#82653E" transform="matrix(0.267023 0 0 0.214525 -37.3831 0)" d="M357.217 689.177C359.434 686.972 358.3 683.945 359.929 681.42C362.516 683.095 362.687 692.304 359.916 694.442C356.968 692.884 360.333 693.119 357.217 689.177Z"/><path fill="#864A18" transform="matrix(0.267023 0 0 0.214525 -37.3831 0)" d="M356.578 430.675C356.57 426.296 357.237 424.014 357.541 419.752C357.89 414.832 357.069 409.009 357.785 404.228L358.035 406.872C358.098 411.189 357.571 418.992 359.714 422.802C360.645 423.432 361.576 424.063 362.507 424.694L360.327 424.48L359.673 425.482C358.362 428.122 358.6 429.041 358.392 432.033C356.872 431.609 357.469 432.032 356.578 430.675Z"/><path fill="#74390F" transform="matrix(0.267023 0 0 0.214525 -37.3831 0)" d="M356.22 463.518C356.453 460.804 355.939 456.746 356.9 454.706L358.395 454.365L359.096 454.553C357.215 461.973 358.5 461.955 358.456 468.419L357.796 468.512C356.753 469.415 356.941 471.806 356.796 473.584C356.646 470.019 356.491 467.091 356.22 463.518Z"/><path fill="#BD7935" transform="matrix(0.267023 0 0 0.214525 -37.3831 0)" d="M493.174 173.689C493.97 172.986 494.485 172.606 495.331 171.961C500.955 171.266 517.216 168.996 521.831 172.404C511.327 172.914 504.144 172.591 493.174 173.689Z"/><path fill="#A95F25" transform="matrix(0.267023 0 0 0.214525 -37.3831 0)" d="M361.987 322.111C360.693 316.827 361.749 306.343 365.611 302.307C365.342 307.374 363.408 317.124 361.987 322.111Z"/><path fill="#BD7935" transform="matrix(0.267023 0 0 0.214525 -37.3831 0)" d="M675.643 539.688C678.327 541.897 676.399 568.241 676.38 573.734C676.3 596.558 674.869 619.504 675.959 642.3C676.152 646.351 675.164 651.015 675.339 655.245C675.956 670.11 677.694 684.66 676.14 699.56C673.874 720.702 674.98 741.345 671.845 762.483L671.59 762.466C671.359 760.05 672.548 750.582 672.783 747.669C674.982 720.374 673.13 693.098 674.879 665.828C675.275 659.657 673.166 651.666 673.488 645.592C674.01 635.71 673.958 626.015 674.446 616.131C674.838 605.144 674.894 593.489 675.179 582.546C675.424 573.121 677.077 547.726 675.643 539.688Z"/><path fill="#B9955B" transform="matrix(0.267023 0 0 0.214525 -37.3831 0)" d="M334 396.232C335.527 398.908 335.117 446.583 335.106 454.512C338.847 458.314 336.808 465.66 337.309 470.936C338.235 480.676 336.103 489.669 334.416 499.121C333.453 504.514 335.353 512.315 333.538 517.855C333.754 519.228 333.896 518.611 333.431 519.791C332.626 517.101 333.928 499.155 333.949 494.787L334 396.232Z"/><path fill="#BD7935" transform="matrix(0.267023 0 0 0.214525 -37.3831 0)" d="M674.276 367.409C674.911 371.288 674.419 377.332 674.87 381.509C677.379 404.758 675.292 427.635 677.283 450.903C677.638 455.049 676.495 461.234 676.623 465.843C677.049 481.17 676.75 496.423 676.572 511.74C674.767 504.795 677.196 495.981 676 489.625C676.067 483.624 675.617 477.861 675.671 471.852C675.352 461.752 677.356 447.845 675.338 438.111C673.386 428.691 674.511 428.213 674.834 418.925C675.052 412.614 671.434 403.427 673.17 396.204C673.511 394.783 672.974 393.186 673.715 391.67C674.837 393.629 673.611 408.876 675.657 415.212C677.815 409.701 671.563 377.336 674.276 367.409Z"/><defs><linearGradient id="gradient_11" gradientUnits="userSpaceOnUse" x1="694.89191" y1="807.97449" x2="695.11426" y2="815.74011"><stop offset="0" stop-color="#B39764"/><stop offset="1" stop-color="#C8B37E"/></linearGradient></defs><path fill="url(#gradient_11)" transform="matrix(0.267023 0 0 0.214525 -37.3831 0)" d="M698.983 805.991C702.173 810 707.047 815.825 709.879 819.924C709.089 819.829 708.283 819.77 707.671 819.253C704.119 816.248 693.779 815.958 691.004 814.517C690.674 814.121 689.36 812.926 688.986 812.937C684.043 813.093 680.507 812.977 675.63 811.954C677.599 811.843 685.206 811.667 686.541 810.669C685.256 809.393 680.59 809.666 678.057 808.586C682.458 808.604 695.482 808.645 698.983 805.991Z"/></g></svg>