<?xml version="1.0" encoding="utf-8" ?><svg xmlns="http://www.w3.org/2000/svg" xmlns:xlink="http://www.w3.org/1999/xlink" width="200" height="204" viewBox="0 0 200 204"><clipPath id="cl_4"><rect x="0.0022125244" width="200.00002" height="204"/></clipPath><g clip-path="url(#cl_4)"><defs><linearGradient id="gradient_0" gradientUnits="userSpaceOnUse" x1="354.74158" y1="338.35565" x2="479.47894" y2="125.33861"><stop offset="0" stop-color="#4D1611"/><stop offset="1" stop-color="#AB4132"/></linearGradient></defs><path fill="url(#gradient_0)" transform="matrix(0.398406 0 0 0.398438 -71.7109 -9.16406)" d="M293.49 37.2163C298.13 36.1598 302.207 36.0843 306.402 38.6974C309.922 40.8791 312.403 44.4003 313.272 48.45C313.932 51.555 313.343 58.5253 310.336 60.1569C309.419 62.0043 308.825 63.8194 310.677 65.2348C314.104 67.8548 315.624 67.941 317.87 71.8848C318.591 71.8259 319.26 71.7324 319.976 71.7847C323.244 71.6873 328.413 71.3702 331.415 72.3457C335.118 74.0006 339.255 76.8979 343.311 78.7393C355.938 84.4714 368.473 90.3731 381.237 95.8035L426.351 115.207C430.766 117.117 443.231 122.091 447.06 124.327C451.358 125.903 455.596 127.981 459.821 129.785C466.034 132.439 472.266 135.039 478.494 137.658L493.889 144.166C495.116 144.688 499.574 146.473 500.56 147.048C511.297 151.664 524.991 156.933 535.245 161.774C538.392 162.973 541.499 164.271 544.564 165.665L550.113 167.967C554.391 169.759 558.893 171.563 563.12 173.427C582.338 181.247 601.336 189.614 620.443 197.705C622.427 198.545 624.48 199.423 626.43 200.329C622.789 202.506 589.639 217.716 586.398 218.235C582.316 220.553 572.82 224.389 568.103 226.441C556.48 231.468 544.886 236.562 533.322 241.723C486.405 262.899 439.255 283.553 391.879 303.681C378.349 309.348 364.847 315.084 351.376 320.889C347.838 322.43 337.165 326.896 334.296 328.891C331.238 332.907 323.601 332.118 319.046 331.485C315.468 335.497 312.854 337.744 308.66 341.129C308.161 381.239 308.654 422.068 308.509 462.273C321.244 465.012 334.005 467.628 346.791 470.118L347.013 470.739C346.244 471.421 346.078 471.363 344.808 471.403C351.28 472.587 357.83 474.049 364.277 475.143C366.524 475.331 376.566 477.781 378.255 478.99L378.442 479.603L378.282 479.833C378.874 480.15 379.122 480.236 379.641 480.672L384.177 480.294L385.772 481.194C385.713 487.007 385.696 492.821 385.721 498.634C383.005 499.457 377.486 500.889 374.708 501.359C372.894 501.864 366.303 503.797 364.706 503.856C361.266 504.844 355.305 506.651 351.821 507.232C347.029 509.001 340.659 509.916 336.989 511.295C330.199 512.999 323.422 514.753 316.658 516.556L309.037 518.659C297.632 522.346 299.312 521.627 287.834 518.616L271.389 514.383C262.394 512.052 253.479 509.988 244.476 507.752C233.41 505.003 222.336 502.056 211.146 499.81C210.844 496.582 210.579 482.49 211.304 478.6C211.501 477.54 216.342 476.795 217.891 476.503C233.561 473.695 249.163 470.576 264.717 467.198C272.247 465.564 281.028 464.321 288.359 462.284C288.131 452.005 288.297 441.002 288.292 430.665L288.307 368.641L288.311 190.52L288.381 106.622L288.53 82.3271C288.571 77.4923 288.807 72.2026 288.31 67.4382C287.872 63.1429 285.217 59.7582 283.821 55.8103C281.042 47.9497 285.737 39.6926 293.49 37.2163ZM309.064 331.819C310.181 330.766 311.853 329.279 312.848 328.19C314.607 324.673 314.928 240.748 315.077 230.154C315.028 190.952 314.493 151.753 313.471 112.564C313.083 100.635 312.967 86.9613 312.183 75.2389C311.016 74.4531 309.733 73.6341 308.63 72.7746L308.664 238.629L308.669 294.105C308.675 306.513 308.512 319.469 309.064 331.819Z"/><path fill="#424246" transform="matrix(0.398406 0 0 0.398438 -71.7109 -9.16406)" d="M293.49 37.2163C298.13 36.1598 302.207 36.0843 306.402 38.6974C309.922 40.8791 312.403 44.4003 313.272 48.45C313.932 51.555 313.343 58.5253 310.336 60.1569C309.419 62.0043 308.825 63.8194 310.677 65.2348C314.104 67.8548 315.624 67.941 317.87 71.8848C315.727 72.9731 314.09 73.7243 312.183 75.2389C311.016 74.4531 309.733 73.6341 308.63 72.7746L308.664 238.629L308.669 294.105C308.675 306.513 308.512 319.469 309.064 331.819C310.181 330.766 311.853 329.279 312.848 328.19C314.539 328.083 317.687 330.38 319.046 331.485C315.468 335.497 312.854 337.744 308.66 341.129C308.161 381.239 308.654 422.068 308.509 462.273C321.244 465.012 334.005 467.628 346.791 470.118L347.013 470.739C346.244 471.421 346.078 471.363 344.808 471.403C351.28 472.587 357.83 474.049 364.277 475.143C366.524 475.331 376.566 477.781 378.255 478.99L378.442 479.603L378.282 479.833C378.874 480.15 379.122 480.236 379.641 480.672L384.177 480.294L385.772 481.194C385.713 487.007 385.696 492.821 385.721 498.634C383.005 499.457 377.486 500.889 374.708 501.359C372.894 501.864 366.303 503.797 364.706 503.856C361.266 504.844 355.305 506.651 351.821 507.232C347.029 509.001 340.659 509.916 336.989 511.295C330.199 512.999 323.422 514.753 316.658 516.556L309.037 518.659C297.632 522.346 299.312 521.627 287.834 518.616L271.389 514.383C262.394 512.052 253.479 509.988 244.476 507.752C233.41 505.003 222.336 502.056 211.146 499.81C210.844 496.582 210.579 482.49 211.304 478.6C211.501 477.54 216.342 476.795 217.891 476.503C233.561 473.695 249.163 470.576 264.717 467.198C272.247 465.564 281.028 464.321 288.359 462.284C288.131 452.005 288.297 441.002 288.292 430.665L288.307 368.641L288.311 190.52L288.381 106.622L288.53 82.3271C288.571 77.4923 288.807 72.2026 288.31 67.4382C287.872 63.1429 285.217 59.7582 283.821 55.8103C281.042 47.9497 285.737 39.6926 293.49 37.2163Z"/><path fill="#161516" transform="matrix(0.398406 0 0 0.398438 -71.7109 -9.16406)" d="M211.146 499.81C210.844 496.582 210.579 482.49 211.304 478.6C211.501 477.54 216.342 476.795 217.891 476.503L219.545 477.652L213.651 478.766C222.156 480.22 230.871 482.611 239.32 484.419C255.037 487.771 270.615 491.927 286.362 495.094C288.81 495.586 297.626 498.162 299.494 497.783C318.267 493.98 337.053 488.866 355.762 484.818C358.296 484.741 373.76 480.569 378.282 479.833C378.874 480.15 379.122 480.236 379.641 480.672L384.177 480.294L385.772 481.194C385.713 487.007 385.696 492.821 385.721 498.634C383.005 499.457 377.486 500.889 374.708 501.359C372.894 501.864 366.303 503.797 364.706 503.856C361.266 504.844 355.305 506.651 351.821 507.232C347.029 509.001 340.659 509.916 336.989 511.295C330.199 512.999 323.422 514.753 316.658 516.556L309.037 518.659C297.632 522.346 299.312 521.627 287.834 518.616L271.389 514.383C262.394 512.052 253.479 509.988 244.476 507.752C233.41 505.003 222.336 502.056 211.146 499.81Z"/><path fill="#767677" transform="matrix(0.398406 0 0 0.398438 -71.7109 -9.16406)" d="M379.641 480.672L384.177 480.294L385.772 481.194C385.713 487.007 385.696 492.821 385.721 498.634C383.005 499.457 377.486 500.889 374.708 501.359C372.894 501.864 366.303 503.797 364.706 503.856C361.266 504.844 355.305 506.651 351.821 507.232C347.029 509.001 340.659 509.916 336.989 511.295C330.199 512.999 323.422 514.753 316.658 516.556L309.037 518.659C305.432 518.143 302.775 519.231 299.321 520.28C299.662 513.325 299.52 505.855 299.507 498.86C303.631 498.231 307.72 497.19 311.802 496.326C334.436 491.538 356.99 485.255 379.641 480.672Z"/><path fill="#424246" transform="matrix(0.398406 0 0 0.398438 -71.7109 -9.16406)" d="M384.177 480.294L385.772 481.194C385.713 487.007 385.696 492.821 385.721 498.634C383.005 499.457 377.486 500.889 374.708 501.359C377.265 498.417 381.464 500.022 383.052 498.195C385.471 495.41 384.342 484.246 384.177 480.294Z"/><path fill="#424246" transform="matrix(0.398406 0 0 0.398438 -71.7109 -9.16406)" d="M316.658 516.556C318.151 514.09 330.271 511.778 333.41 510.993C333.976 510.851 336.264 511.179 336.989 511.295C330.199 512.999 323.422 514.753 316.658 516.556Z"/><path fill="#424246" transform="matrix(0.398406 0 0 0.398438 -71.7109 -9.16406)" d="M351.821 507.232C352.853 506.006 357.547 504.159 359.28 503.95C360.833 503.763 363.093 503.815 364.706 503.856C361.266 504.844 355.305 506.651 351.821 507.232Z"/><path fill="#B1B0B0" transform="matrix(0.398406 0 0 0.398438 -71.7109 -9.16406)" d="M211.99 480.102C220.369 480.902 237.101 485.124 245.539 487.185C263.033 491.457 281.187 494.961 298.531 499.281L298.504 520.132C293.125 518.131 280.615 515.481 274.513 513.909C253.785 508.645 233.006 503.586 212.179 498.732C212.297 492.484 212.007 486.344 211.99 480.102Z"/><path fill="#D2D2D2" transform="matrix(0.398406 0 0 0.398438 -71.7109 -9.16406)" d="M219.545 477.652C230.81 475.601 242.051 473.424 253.267 471.12C264.201 468.797 277.689 465.723 288.689 464.073C288.769 467.945 288.711 475.587 289.302 479.099C292.061 480.669 294.749 481.833 297.965 482.165C314.73 484.164 332.226 483.219 349.11 484.13C350.811 484.222 354.477 483.866 355.762 484.818C337.053 488.866 318.267 493.98 299.494 497.783C297.626 498.162 288.81 495.586 286.362 495.094C270.615 491.927 255.037 487.771 239.32 484.419C230.871 482.611 222.156 480.22 213.651 478.766L219.545 477.652Z"/><path fill="#767677" transform="matrix(0.398406 0 0 0.398438 -71.7109 -9.16406)" d="M308.552 463.896C319.967 465.852 333.503 468.842 344.808 471.403C351.28 472.587 357.83 474.049 364.277 475.143C366.524 475.331 376.566 477.781 378.255 478.99L378.442 479.603L378.282 479.833C373.76 480.569 358.296 484.741 355.762 484.818C354.477 483.866 350.811 484.222 349.11 484.13C332.226 483.219 314.73 484.164 297.965 482.165C300.903 482.135 305.876 480.771 308.491 479.475C308.38 475.661 308.014 467.539 308.552 463.896Z"/><path fill="#D2D2D2" transform="matrix(0.398406 0 0 0.398438 -71.7109 -9.16406)" d="M308.552 463.896C319.967 465.852 333.503 468.842 344.808 471.403C351.28 472.587 357.83 474.049 364.277 475.143L364.467 475.688L364.052 476.144C359.601 476.504 347.915 475.845 342.883 475.754C331.56 475.549 319.852 475.868 308.631 475.494C308.581 471.628 308.555 467.762 308.552 463.896Z"/><path fill="#767677" transform="matrix(0.398406 0 0 0.398438 -71.7109 -9.16406)" d="M293.49 37.2163C298.13 36.1598 302.207 36.0843 306.402 38.6974C309.922 40.8791 312.403 44.4003 313.272 48.45C313.932 51.555 313.343 58.5253 310.336 60.1569C307.289 60.0342 302.783 66.5677 293.904 64.1559C292.46 63.7636 290.914 63.217 289.857 62.1185C289.7 61.9561 289.555 61.7828 289.411 61.6094C287.644 60.2161 286.77 58.9498 285.658 57.0547C282.99 47.661 286.78 39.7061 296.776 37.9634C295.985 36.8065 294.804 37.1902 293.49 37.2163Z"/><defs><linearGradient id="gradient_1" gradientUnits="userSpaceOnUse" x1="298.54724" y1="52.818203" x2="289.08783" y2="41.971043"><stop offset="0" stop-color="#BCBBBB"/><stop offset="1" stop-color="#E7E6E6"/></linearGradient></defs><path fill="url(#gradient_1)" transform="matrix(0.398406 0 0 0.398438 -71.7109 -9.16406)" d="M296.776 37.9634L301.621 38.1162C306.02 44.4698 301.657 54.3245 294.419 56.4656C291.577 57.3064 288.559 56.7993 285.658 57.0547C282.99 47.661 286.78 39.7061 296.776 37.9634Z"/><path fill="#B1B0B0" transform="matrix(0.398406 0 0 0.398438 -71.7109 -9.16406)" d="M301.621 38.1162C304.104 39.1008 305.721 39.5982 306.706 42.3257C309.218 49.2741 305.309 59.5277 298.162 62.1394C295.018 63.2882 292.408 61.744 289.411 61.6094C287.644 60.2161 286.77 58.9498 285.658 57.0547C288.559 56.7993 291.577 57.3064 294.419 56.4656C301.657 54.3245 306.02 44.4698 301.621 38.1162Z"/><path fill="#D2D2D2" transform="matrix(0.398406 0 0 0.398438 -71.7109 -9.16406)" d="M304.152 69.5819C305.036 69.3749 306.131 68.9713 306.889 69.322C307.754 80.0266 307.406 95.3577 307.426 106.23L307.304 175.685L307.399 267.496C307.466 288.873 307.846 311.901 307.093 333.159C305.262 334.07 304.06 334.771 302.05 335.185C299.97 335.367 298.355 335.521 296.272 335.476L292.656 335.497L290.57 334.898C290.379 334.647 290.187 334.395 289.996 334.144C290.071 326.339 290.096 313.85 290.09 306.528L290.28 151.408C290.354 132.32 290.107 113.37 290.382 94.2519C289.69 88.878 290.589 79.2404 290.249 73.4713C290.157 71.91 289.764 70.893 289.947 69.4713C290.918 69.1449 292.742 69.8585 294.287 70.0138C297.965 70.3833 300.531 69.9732 304.152 69.5819Z"/><defs><linearGradient id="gradient_2" gradientUnits="userSpaceOnUse" x1="307.43863" y1="201.81018" x2="300.59189" y2="201.86708"><stop offset="0" stop-color="#6D7070"/><stop offset="1" stop-color="#8E8D8D"/></linearGradient></defs><path fill="url(#gradient_2)" transform="matrix(0.398406 0 0 0.398438 -71.7109 -9.16406)" d="M304.152 69.5819C305.036 69.3749 306.131 68.9713 306.889 69.322C307.754 80.0266 307.406 95.3577 307.426 106.23L307.304 175.685L307.399 267.496C307.466 288.873 307.846 311.901 307.093 333.159C305.262 334.07 304.06 334.771 302.05 335.185C302.378 323.517 301.62 310.916 301.718 299.123L302.063 157.417L301.935 98.8277C301.927 93.5682 302.66 80.8293 302.013 76.3478L300.486 75.3836L300.629 75.0216L299.733 74.4547C300.114 73.2079 300.615 72.013 301.095 70.8001C302.232 70.8024 303.249 70.2212 304.152 69.5819Z"/><path fill="#B1B0B0" transform="matrix(0.398406 0 0 0.398438 -71.7109 -9.16406)" d="M293.876 73.0159C296.388 73.7624 298.055 74.3869 300.486 75.3836L302.013 76.3478C302.66 80.8293 301.927 93.5682 301.935 98.8277L302.063 157.417L301.718 299.123C301.62 310.916 302.378 323.517 302.05 335.185C299.97 335.367 298.355 335.521 296.272 335.476C296.908 332.935 296.738 318.72 296.744 315.099L296.779 270.367C297.191 208.028 297.281 145.686 297.051 83.3457C297.351 78.8718 297.767 75.8438 293.876 73.0159Z"/><path fill="#B1B0B0" transform="matrix(0.398406 0 0 0.398438 -71.7109 -9.16406)" d="M290.382 94.2519C289.69 88.878 290.589 79.2404 290.249 73.4713C290.157 71.91 289.764 70.893 289.947 69.4713C290.918 69.1449 292.742 69.8585 294.287 70.0138C297.965 70.3833 300.531 69.9732 304.152 69.5819C303.249 70.2212 302.232 70.8024 301.095 70.8001C300.615 72.013 300.114 73.2079 299.733 74.4547L300.629 75.0216L300.486 75.3836C298.055 74.3869 296.388 73.7624 293.876 73.0159C297.767 75.8438 297.351 78.8718 297.051 83.3457C296.898 81.5497 296.762 79.9006 296.707 78.0986C295.336 78.0205 293.717 77.7798 292.481 78.2271C290.611 81.3571 291.851 114.006 291.819 119.975C291.625 171.006 291.692 222.038 292.019 273.068L291.828 319.269C291.838 322.496 291.483 333.301 292.656 335.497L290.57 334.898C290.379 334.647 290.187 334.395 289.996 334.144C290.071 326.339 290.096 313.85 290.09 306.528L290.28 151.408C290.354 132.32 290.107 113.37 290.382 94.2519Z"/><path fill="#767677" transform="matrix(0.398406 0 0 0.398438 -71.7109 -9.16406)" d="M290.382 94.2519C289.69 88.878 290.589 79.2404 290.249 73.4713C290.157 71.91 289.764 70.893 289.947 69.4713C290.918 69.1449 292.742 69.8585 294.287 70.0138C297.965 70.3833 300.531 69.9732 304.152 69.5819C303.249 70.2212 302.232 70.8024 301.095 70.8001C300.615 72.013 300.114 73.2079 299.733 74.4547L300.629 75.0216L300.486 75.3836C298.055 74.3869 296.388 73.7624 293.876 73.0159L290.6 72.1289C290.663 76.5685 291.093 90.5309 290.382 94.2519Z"/><path fill="#B1B0B0" transform="matrix(0.398406 0 0 0.398438 -71.7109 -9.16406)" d="M289.834 343.223C298.201 343.793 298.648 343.929 306.976 341.964C307.251 373.819 307.295 405.675 307.107 437.53C307.102 444.112 307.11 450.707 307.071 457.288C307.035 463.385 306.414 472.855 307.147 478.789C305.647 479.172 303.52 479.783 302.054 479.943L296.441 480.176C294.932 479.985 291.111 479.495 290.624 478.327C289.955 476.724 290.254 469.128 290.257 467.447L290.225 443.105L290.072 391.894C290.06 381.14 289.917 370.117 290.351 359.389C290.137 354.001 289.965 348.613 289.834 343.223Z"/><path fill="#D2D2D2" transform="matrix(0.398406 0 0 0.398438 -71.7109 -9.16406)" d="M290.535 344.878C292.292 345.484 293.467 345.823 295.274 346.257L296.467 346.994C296.831 349.45 296.702 358.738 296.695 361.427L296.598 389.617C296.726 419.803 296.674 449.99 296.441 480.176C294.932 479.985 291.111 479.495 290.624 478.327C289.955 476.724 290.254 469.128 290.257 467.447L290.225 443.105L290.072 391.894C290.06 381.14 289.917 370.117 290.351 359.389C291.01 356.604 290.624 348.171 290.535 344.878Z"/><path fill="#767677" transform="matrix(0.398406 0 0 0.398438 -71.7109 -9.16406)" d="M289.834 343.223C298.201 343.793 298.648 343.929 306.976 341.964C307.251 373.819 307.295 405.675 307.107 437.53C307.102 444.112 307.11 450.707 307.071 457.288C307.035 463.385 306.414 472.855 307.147 478.789C305.647 479.172 303.52 479.783 302.054 479.943C301.918 474.01 302.284 468.115 302.301 462.198C302.326 453.153 302.299 444.098 302.301 435.052L302.239 347.54C299.948 347.182 297.555 346.711 295.274 346.257C293.467 345.823 292.292 345.484 290.535 344.878C290.624 348.171 291.01 356.604 290.351 359.389C290.137 354.001 289.965 348.613 289.834 343.223Z"/><path fill="#B1B0B0" transform="matrix(0.398406 0 0 0.398438 -71.7109 -9.16406)" d="M307.476 334.946C307.661 336.47 307.5 338.229 307.424 339.784C301.492 342.015 295.638 342.488 289.476 340.893C289.286 340.196 289.324 337.077 289.318 336.155C296.9 337.705 300.507 337.445 307.476 334.946Z"/><path fill="#767677" transform="matrix(0.398406 0 0 0.398438 -71.7109 -9.16406)" d="M288.281 63.2327C291.453 64.8414 293.538 65.3294 297.017 65.9734C301.266 65.7479 303.462 65.1526 307.434 63.4606C307.497 64.6591 307.751 66.517 307.287 67.527C305.194 68.5583 297.089 68.9392 294.701 68.592C290.041 67.6676 289.815 67.7641 288.281 63.2327Z"/><path fill="#767677" transform="matrix(0.398406 0 0 0.398438 -71.7109 -9.16406)" d="M288.281 63.2327C291.453 64.8414 293.538 65.3294 297.017 65.9734L297.955 67.7261L297.763 68.296C296.563 68.5261 295.932 68.5402 294.701 68.592C290.041 67.6676 289.815 67.7641 288.281 63.2327Z"/><path fill="#B1B0B0" transform="matrix(0.398406 0 0 0.398438 -71.7109 -9.16406)" d="M313.928 330.155C315.167 330.216 315.79 330.459 316.432 331.449C316.03 333.479 312.74 335.537 311 336.854C310.083 337.654 310.577 337.509 309.575 337.574C308.467 334.414 311.769 331.818 313.928 330.155Z"/><path fill="#B1B0B0" transform="matrix(0.398406 0 0 0.398438 -71.7109 -9.16406)" d="M309.125 66.9436C311.097 67.395 315.347 68.9729 315.676 71.1825L315.175 71.7771C310.619 74.5389 309.4 71.07 309.125 66.9436Z"/><defs><linearGradient id="gradient_3" gradientUnits="userSpaceOnUse" x1="345.58975" y1="203.71494" x2="311.41019" y2="200.21417"><stop offset="0" stop-color="#9E752D"/><stop offset="1" stop-color="#CCB05B"/></linearGradient></defs><path fill="url(#gradient_3)" transform="matrix(0.398406 0 0 0.398438 -71.7109 -9.16406)" d="M317.87 71.8848C318.591 71.8259 319.26 71.7324 319.976 71.7847C323.244 71.6873 328.413 71.3702 331.415 72.3457C334.231 75.0762 333.945 94.1296 334.208 99.009C335.777 158.078 336.162 217.173 335.362 276.258C335.281 281.671 333.611 327.247 334.296 328.891C331.238 332.907 323.601 332.118 319.046 331.485C317.687 330.38 314.539 328.083 312.848 328.19C314.607 324.673 314.928 240.748 315.077 230.154C315.028 190.952 314.493 151.753 313.471 112.564C313.083 100.635 312.967 86.9613 312.183 75.2389C314.09 73.7243 315.727 72.9731 317.87 71.8848Z"/><path fill="#D1B863" transform="matrix(0.398406 0 0 0.398438 -71.7109 -9.16406)" d="M317.87 71.8848C318.591 71.8259 319.26 71.7324 319.976 71.7847L320.312 72.3765C322.255 72.8168 322.703 72.2444 323.501 73.1955C324.407 82.9424 328.665 114.111 325.724 121.628C324.25 125.394 325.647 158.34 325.88 164.725C326.843 191.054 325.581 217.434 326.96 243.746C327.15 247.37 326.103 250.649 326.571 254.354L328.316 255.589C328.631 253.923 329.34 247.832 329.215 246.317C328.379 245.104 327.533 245.673 327.501 245.016C327.337 241.628 327.366 231.841 328.801 229.105L329.297 229.161C330.168 230.805 329.759 233.71 329.842 235.747C330.479 251.369 326.907 266.629 325.509 282.11C325.456 282.696 325.335 283.193 325.292 283.812C324.944 283.226 327.413 260.659 327.956 258.481C325.466 259.938 324.49 272.139 324.902 275.114C325.125 276.719 324.985 278.889 324.744 280.506C324.207 273.79 324.546 264.424 324.386 257.38C324.058 247.195 323.841 237.007 323.738 226.817C323.681 209.171 324.54 191.786 323.482 174.125C322.961 165.43 323.634 157.194 322.511 148.431L322.336 148.498C321.526 150.003 322.379 169.539 322.417 172.524C322.794 189.329 322.457 206.143 321.408 222.92C321.219 226.031 320.829 236.266 320.203 238.714L320.015 238.731C319.768 234.827 320.104 218.638 319.391 216.844C318.998 218.08 319.016 218.087 317.92 218.619C317.224 218.249 317.145 218.177 316.391 217.985C315.026 219.475 315.499 226.758 315.127 229.765L315.077 230.154C315.028 190.952 314.493 151.753 313.471 112.564C313.083 100.635 312.967 86.9613 312.183 75.2389C314.09 73.7243 315.727 72.9731 317.87 71.8848Z"/><path fill="#D1B863" transform="matrix(0.398406 0 0 0.398438 -71.7109 -9.16406)" d="M330.469 108.902C330.867 110.567 330.534 119.587 330.505 122.108C330.399 131.458 330.36 140.808 330.386 150.158C330.568 165.414 331.925 181.044 331.977 196.359C331.989 199.877 333.026 208.873 332.341 211.801C332.225 206.21 331.462 200.476 331.523 194.981C331.552 193.748 331.539 193.193 331.385 191.973C330.659 193.503 330.815 201.18 330.832 203.133L330.501 203.261C329.729 199.827 329.949 186.222 329.833 182.055L328.977 141.75C328.758 131.446 327.805 122.975 329.379 112.114L329.642 113.254L329.879 113.396C330.669 111.613 330.538 110.847 330.469 108.902Z"/><path fill="#A64537" transform="matrix(0.398406 0 0 0.398438 -71.7109 -9.16406)" d="M447.06 124.327C451.358 125.903 455.596 127.981 459.821 129.785C466.034 132.439 472.266 135.039 478.494 137.658L493.889 144.166C495.116 144.688 499.574 146.473 500.56 147.048C511.297 151.664 524.991 156.933 535.245 161.774C532.621 164.713 527.311 166.989 523.807 169.105C523.032 169.316 523.256 169.164 522.657 169.624C521.436 171.893 518.139 172.478 515.954 172.931C515.84 172.955 512.577 176.226 511.911 176.455C507.981 175.63 505.162 179.672 503.212 180.15C502.628 179.706 502.6 179.64 502.134 179.063L501.857 179.911L501.549 179.081C500.304 181.124 502.027 180.412 500.412 181.932L499.585 182.112C498.076 183.213 497.72 183.007 495.964 182.559C493.891 184.029 491.304 186.149 488.787 186.324L488.14 186.047C487.825 185.036 487.777 184.941 487.771 183.897C487.682 184.673 487.572 185.447 487.44 186.217C486.858 185.496 486.913 184.849 486.735 183.834C486.66 184.962 486.601 186.091 486.558 187.221C485.461 188.149 485.947 187.978 484.618 188.201C483.46 187.621 483.345 187.292 482.55 186.201C481.652 187.923 482.558 187.674 481.391 188.973C479.952 189.104 479.329 188.602 477.93 187.903C477.79 188.626 477.825 188.682 477.887 189.427C477.008 190.183 476.162 190.356 475.001 190.015L474.474 188.88L473.943 189.435L473.574 189.314L473.594 187.586L473.273 187.417C473.203 188.475 473.132 189.432 473.006 190.484L472.683 190.593L471.538 189.351C471.326 189.993 471.354 189.643 471.754 190.449L471.179 190.68C470.976 189.862 470.991 189.673 470.597 188.925C469.741 190.566 471.561 191.237 469.39 192.159L468.688 191.989C466.308 191.44 467.583 192.983 464.98 192.607C463.155 190.875 462.517 188.787 462.069 186.356C460.728 179.072 459.242 171.69 458.023 164.395C462.31 163.173 468.358 162.711 471.07 159.366C470.568 158.082 469.149 158.158 468.77 157.309C468.09 155.663 468.379 153.942 467.071 152.602C461.333 146.721 457.636 137.69 448.323 137.202C447.482 137.158 445.413 135.761 443.618 135.5C442.098 133.634 441.353 132.438 440.083 130.37C438.358 130.122 437.639 131.24 435.897 130.499C440.675 129.104 444.228 128.029 448.766 126.018C448.048 125.503 447.643 124.981 447.06 124.327Z"/><path fill="#A34538" transform="matrix(0.398406 0 0 0.398438 -71.7109 -9.16406)" d="M488.829 153.349C492.726 151.285 495.04 150.783 498.766 149.072C499.398 148.04 499.538 147.578 500.56 147.048C511.297 151.664 524.991 156.933 535.245 161.774C532.621 164.713 527.311 166.989 523.807 169.105C523.032 169.316 523.256 169.164 522.657 169.624C521.436 171.893 518.139 172.478 515.954 172.931C515.84 172.955 512.577 176.226 511.911 176.455C507.981 175.63 505.162 179.672 503.212 180.15C502.628 179.706 502.6 179.64 502.134 179.063L501.857 179.911L501.549 179.081C500.304 181.124 502.027 180.412 500.412 181.932L499.585 182.112C498.569 182.287 497.499 182.474 496.66 182.013C494.35 176.355 489.224 159.164 488.829 153.349Z"/><path fill="#A64537" transform="matrix(0.398406 0 0 0.398438 -71.7109 -9.16406)" d="M522.657 169.624C522.177 168.497 519.945 160.632 520.091 159.556C521.888 161.541 522.007 166.507 523.807 169.105C523.032 169.316 523.256 169.164 522.657 169.624Z"/><path fill="#A34538" transform="matrix(0.398406 0 0 0.398438 -71.7109 -9.16406)" d="M464.98 192.607C465.49 192.492 465.478 192.445 465.951 192.195C466.14 190.744 466.114 190.537 466.746 189.258L467.347 189.223C468.594 190.484 468.23 190.098 468.688 191.989C466.308 191.44 467.583 192.983 464.98 192.607Z"/><path fill="#A34538" transform="matrix(0.398406 0 0 0.398438 -71.7109 -9.16406)" d="M486.103 153.803L486.812 154.081C488.384 155.869 494.91 180.313 493.11 183.139C491.008 178.064 489.699 172.365 488.347 167.076C487.453 163.58 486.137 159.996 485.479 156.426C485.181 154.809 485.306 154.931 486.103 153.803Z"/><defs><linearGradient id="gradient_4" gradientUnits="userSpaceOnUse" x1="359.94974" y1="127.74198" x2="412.19748" y2="83.187126"><stop offset="0" stop-color="#A2402E"/><stop offset="1" stop-color="#B95A4F"/></linearGradient></defs><path fill="url(#gradient_4)" transform="matrix(0.398406 0 0 0.398438 -71.7109 -9.16406)" d="M331.415 72.3457C335.118 74.0006 339.255 76.8979 343.311 78.7393C355.938 84.4714 368.473 90.3731 381.237 95.8035L426.351 115.207C430.766 117.117 443.231 122.091 447.06 124.327C447.643 124.981 448.048 125.503 448.766 126.018C444.228 128.029 440.675 129.104 435.897 130.499C431.431 131.602 393.296 136.234 391.274 135.554L392.598 135.397L392.793 135.082C391.447 133.372 386.777 131.045 385.576 128.949C384.926 127.815 384.024 125.092 383.341 123.601L382.966 123.487C382.749 124.872 382.955 125.484 381.611 125.919L381.588 125.521C381.016 125.219 378.921 124.119 378.592 123.701C376.022 120.431 373.697 114.771 373.853 110.584C374.021 106.042 375.701 108.612 377.369 106.961L377.038 106.101C375.955 105.345 374.426 105.499 373.106 105.288L358.065 103.034C352.919 102.261 338.178 98.5498 334.208 99.009C333.945 94.1296 334.231 75.0762 331.415 72.3457Z"/><path fill="#A64537" transform="matrix(0.398406 0 0 0.398438 -71.7109 -9.16406)" d="M563.12 173.427C582.338 181.247 601.336 189.614 620.443 197.705C622.427 198.545 624.48 199.423 626.43 200.329C622.789 202.506 589.639 217.716 586.398 218.235C581.991 218.61 582.239 212.123 581.866 209.05C582.319 207.904 582.056 208.032 582.896 207.578C584.117 208.599 584.249 212.7 584.431 214.471L585 214.848L585.639 214.698C586.579 212.093 583.351 206.857 586.689 205.427C589.177 207.25 588.903 208.783 589.861 210.067C590.12 207.897 589.644 205.812 589.669 203.958C589.701 201.599 597.234 199.563 596.37 195.695C596.231 195.074 596.765 195.465 597.023 194.469C596.874 194.413 596.724 194.356 596.574 194.3C594.883 195.788 593.061 197.819 591.086 198.9C582.198 203.762 574.207 210.355 564.931 214.509C564.246 214.816 562.836 214.848 562.063 214.853L561.615 214.853C561.554 215.661 561.57 215.738 561.322 216.499C559.764 217.85 558.684 218.076 556.653 218.43L556.19 217.41C555.685 219.05 552.9 220.561 551.29 220.912C548.859 218.124 550.467 209.805 547.386 207.817C547.004 207.805 545.074 207.781 544.662 207.441C541.767 205.054 539.615 197.538 541.714 194.289C542.168 193.586 547.739 190.73 548.902 190.814C549.271 191.534 549.266 191.626 549.827 192.19L550.153 191.821C550.083 191.352 549.879 189.904 550.227 189.665C552.145 188.346 560.536 184 561.284 182.387C561.193 180.061 558.948 178.218 559.977 176.183C563.611 175.161 560.982 174.885 563.12 173.427Z"/><path fill="#A64537" transform="matrix(0.398406 0 0 0.398438 -71.7109 -9.16406)" d="M544.564 165.665L550.113 167.967C547.885 168.663 548.544 168.057 546.814 168.063C546.149 169.024 546.59 169.779 546.83 171.273C545.972 171.801 545.23 171.124 543.603 170.988L543.918 171.574C544.621 171.981 545.024 172.11 545.383 172.834C544.874 173.725 545.211 173.383 544.342 173.908L543.874 173.352C543.382 174.076 543.41 174.146 542.6 174.539L541.98 174.034C540.378 170.201 541.945 168.688 545.15 167.257L545.338 166.625L544.564 165.665Z"/><path fill="#A34538" transform="matrix(0.398406 0 0 0.398438 -71.7109 -9.16406)" d="M419.328 171.011C421.102 171.169 422.489 170.605 424.695 170.916C424.324 171.675 423.677 170.84 422.16 171.426C422.984 180.026 424.076 188.518 424.478 197.179C424.55 198.741 424.697 198.565 423.914 199.42C421.911 200.119 419.235 199.628 417.194 199.241L416.864 200.528C415.803 201.051 415.527 200.999 414.312 201.09L413.435 200.281C408.008 200.845 402.208 201.524 396.8 201.898L396.895 201.104C396.67 201.196 396.445 201.287 396.219 201.379C391.866 203.894 391.093 200.769 390.129 200.415C389.257 201.251 388.938 201.655 387.88 202.195L387.375 201.823C386.756 199.638 386.371 177.07 386.408 173.709C394.62 173.557 402.113 173.444 410.173 171.842C413.025 171.275 416.405 171.149 419.328 171.011Z"/><path fill="#A64537" transform="matrix(0.398406 0 0 0.398438 -71.7109 -9.16406)" d="M455.08 165.53C456.141 164.866 455.61 164.943 456.67 165.042C458.832 169.504 460.327 189.318 462.121 193.132C456.428 195.176 458.231 188.008 455.437 185.595L454.609 185.678L453.94 186.549C451.877 185.429 453.271 182.988 451.818 181.164L451.315 181.329C451.238 182.692 451.259 183.24 450.835 184.577L450.305 184.693C447.403 182.63 447.758 183.499 447.012 180.769C446.405 178.546 445.971 168.859 445.189 167.92L444.583 167.72L445.673 167.463C447.739 166.664 452.872 165.752 455.08 165.53Z"/><path fill="#A34538" transform="matrix(0.398406 0 0 0.398438 -71.7109 -9.16406)" d="M445.673 167.463C447.739 166.664 452.872 165.752 455.08 165.53C454.51 166.466 454.436 166.965 453.184 167.204C450.837 167.654 448.086 167.449 445.673 167.463Z"/><path fill="#A34538" transform="matrix(0.398406 0 0 0.398438 -71.7109 -9.16406)" d="M377.939 202.2C377.501 202.44 377.248 202.408 376.71 202.491C376.56 202.322 376.41 202.152 376.26 201.983C376.423 197.643 374.869 175.962 377.34 173.776C378.346 174.19 378.11 174.317 378.744 175.648C379.468 175.219 379.407 175.226 379.809 174.473L380.646 173.636C381.188 173.838 381.751 173.91 381.914 174.608C382.773 178.281 382.763 200.094 382.071 202.047C381.24 202.361 380.817 202.54 380.024 201.869L377.939 202.2Z"/><path fill="#A34538" transform="matrix(0.398406 0 0 0.398438 -71.7109 -9.16406)" d="M377.939 202.2C377.501 202.44 377.248 202.408 376.71 202.491C376.56 202.322 376.41 202.152 376.26 201.983C376.423 197.643 374.869 175.962 377.34 173.776C378.346 174.19 378.11 174.317 378.744 175.648C377.471 182.705 378.945 194.663 377.939 202.2Z"/><path fill="#A64537" transform="matrix(0.398406 0 0 0.398438 -71.7109 -9.16406)" d="M379.809 174.473C380.301 177.422 379.992 180.369 380.044 183.351C380.149 189.266 379.716 195.989 380.024 201.869L377.939 202.2C378.945 194.663 377.471 182.705 378.744 175.648C379.468 175.219 379.407 175.226 379.809 174.473Z"/><path fill="#A64537" transform="matrix(0.398406 0 0 0.398438 -71.7109 -9.16406)" d="M365.113 172.767C366.202 173.034 366.164 173.024 367.113 173.628C367.343 174.804 367.059 177.405 367.056 178.852C367.042 186.908 367.273 194.348 365.733 202.313C364.533 202.419 365.052 202.554 364.09 202.073C363.679 199.487 364.617 175.737 365.113 172.767Z"/><path fill="#A34538" transform="matrix(0.398406 0 0 0.398438 -71.7109 -9.16406)" d="M372.405 173.201C373.815 173.411 373.772 173.167 374.614 173.961C374.551 178.254 374.902 200.596 374.01 202.852C372.78 202.563 372.922 202.786 372.126 202.037C371.855 198.544 371.79 175.485 372.405 173.201Z"/><path fill="#A64537" transform="matrix(0.398406 0 0 0.398438 -71.7109 -9.16406)" d="M358.384 172.379C358.819 172.58 359.098 172.629 359.389 173.03C360.573 174.662 359.536 197.401 358.892 200.273C358.587 201.632 358.423 201.709 357.3 202.445C355.347 200.629 358.004 176.479 358.384 172.379Z"/><path fill="#A64537" transform="matrix(0.398406 0 0 0.398438 -71.7109 -9.16406)" d="M369.429 173.127C370.358 173.443 370.006 173.174 370.577 173.882C371.191 180.496 371.061 196.232 370.054 202.76C368.946 202.617 368.818 202.812 368.263 202.179C368.291 197.053 367.854 176.508 369.429 173.127Z"/><path fill="#A34538" transform="matrix(0.398406 0 0 0.398438 -71.7109 -9.16406)" d="M507.288 210.14C508.69 210.591 509.336 211.611 509.513 213.032C510.455 220.574 510.729 228.246 511.793 235.786L511.391 236.127C510.792 236.292 510.261 236.502 509.679 236.716L509.376 236.469C508.51 232.874 506.649 213.694 507.288 210.14Z"/><path fill="#A34538" transform="matrix(0.398406 0 0 0.398438 -71.7109 -9.16406)" d="M511.704 208.982C515.42 211.264 514.184 230.873 516.23 234.68L515.923 234.805C514.776 235.074 514.802 235.083 513.635 235C512.303 233.086 510.838 211.912 511.704 208.982Z"/><path fill="#A64537" transform="matrix(0.398406 0 0 0.398438 -71.7109 -9.16406)" d="M361.925 172.881C362.738 172.983 362.802 173.024 363.578 173.312C362.458 180.39 363.6 194.436 361.925 202.043L360.91 202.092C359.961 200.86 361.545 176.236 361.925 172.881Z"/><path fill="#A64537" transform="matrix(0.398406 0 0 0.398438 -71.7109 -9.16406)" d="M533.119 166.823L533.848 167.288C535.41 169.68 535.837 174.6 535.544 177.346L535.419 176.978L535.112 178.403L534.499 178.115C533.824 177.025 532.579 172.069 532.366 170.669C532 168.259 531.922 168.528 533.119 166.823Z"/><path fill="#A64537" transform="matrix(0.398406 0 0 0.398438 -71.7109 -9.16406)" d="M579.062 210.179C580.17 211.127 580.99 214.448 580.427 215.832C580.017 216.841 579.353 216.862 578.448 217.221C576.212 214.342 576.12 212.266 579.062 210.179Z"/><path fill="#A64537" transform="matrix(0.398406 0 0 0.398438 -71.7109 -9.16406)" d="M444.352 179.673C443.988 175.847 442.467 173.167 442.551 169.556C442.574 168.6 443.761 168.187 444.583 167.72C445.994 172.343 444.365 175.268 444.686 179.27L444.724 179.712L444.352 179.673Z"/><path fill="#A64537" transform="matrix(0.398406 0 0 0.398438 -71.7109 -9.16406)" d="M571.518 214.349L572.051 214.843C572.729 216.68 573.031 217.316 572.505 219.161C572.194 218.945 572.408 219.036 571.789 218.961C571.108 219.13 571.42 218.97 570.939 219.615L570.498 219.659C569.818 217.78 570.313 215.83 571.518 214.349Z"/><path fill="#A64537" transform="matrix(0.398406 0 0 0.398438 -71.7109 -9.16406)" d="M525.476 171.821C526.579 171.96 526.127 171.736 526.904 172.459C527.101 173.84 526.946 174.39 526.74 175.749C526.146 175.604 526.296 175.59 525.765 175.122C525.232 173.941 525.406 173.125 525.476 171.821Z"/><defs><linearGradient id="gradient_5" gradientUnits="userSpaceOnUse" x1="365.27423" y1="476.84787" x2="365.82306" y2="474.32169"><stop offset="0" stop-color="#333234"/><stop offset="1" stop-color="#514E52"/></linearGradient></defs><path fill="url(#gradient_5)" transform="matrix(0.398406 0 0 0.398438 -71.7109 -9.16406)" d="M346.791 470.118C355.267 471.637 363.711 473.326 372.119 475.184C375.408 475.889 382.299 477.215 385.243 478.277C385.827 479.17 385.737 480.016 385.772 481.194L384.177 480.294L379.641 480.672C379.122 480.236 378.874 480.15 378.282 479.833L378.442 479.603L378.255 478.99C376.566 477.781 366.524 475.331 364.277 475.143C357.83 474.049 351.28 472.587 344.808 471.403C346.078 471.363 346.244 471.421 347.013 470.739L346.791 470.118Z"/></g></svg>