<?xml version="1.0" encoding="utf-8" ?><svg xmlns="http://www.w3.org/2000/svg" xmlns:xlink="http://www.w3.org/1999/xlink" width="200" height="182" viewBox="0 0 200 182"><clipPath id="cl_a"><rect x="7.2479248e-05" y="0.00071716309" width="200" height="181.99998"/></clipPath><g clip-path="url(#cl_a)"><defs><linearGradient id="gradient_0" gradientUnits="userSpaceOnUse" x1="388.17462" y1="813.68866" x2="591.49023" y2="878.64532"><stop offset="0" stop-color="#642910"/><stop offset="1" stop-color="#C07754"/></linearGradient></defs><path fill="url(#gradient_0)" transform="matrix(0.269906 0 0 0.270431 -35.0876 -78.1538)" d="M507.192 691.669C519.302 692.284 531.442 691.715 543.553 692.354C562.706 693.364 624.08 698.942 635.992 712.773C637.658 714.709 638.513 716.81 638.285 719.376C638.249 719.815 638.192 720.253 638.114 720.687C636.602 729.447 635.146 738.217 633.747 746.996L633.314 749.366L632.337 755.079C631.459 761.074 630.628 768.019 629.035 773.788C626.08 776.825 624.387 778.082 620.432 780L611.779 783.856L608.309 799.373C607.891 801.41 607.364 804.483 606.796 806.394C604.561 819.651 584.507 915.375 580.457 922.17C575.657 929.386 561.288 934.467 552.845 936.488C519.679 944.426 464.917 944.789 434.968 928.828C431.991 927.006 428.419 924.777 427.445 921.176C415.49 876.988 407.611 830.069 396.779 785.729C396.605 785.216 396.43 784.703 396.255 784.19C377.576 775.443 379.294 776.274 376.306 756.331L375.276 748.835C374.025 745.173 371.22 724.833 370.866 720.552C370.089 697.068 458.773 693.212 476.236 692.35C480.856 692.581 480.118 693.05 481.76 697.368C483.946 702.268 485.321 707.249 487.245 711.662C488.476 715.954 490.619 725.451 491.988 728.991C494.867 729.886 498.018 731.235 500.866 730.186C502.93 730.03 503.366 730.115 505.162 729.222C507.726 726.493 506.716 720.968 506.651 716.806C506.462 714.055 506.628 712.564 506.874 709.867C506.677 705.593 506.841 700.923 506.905 696.616C506.865 694.74 507.001 693.547 507.192 691.669Z"/><defs><linearGradient id="gradient_1" gradientUnits="userSpaceOnUse" x1="375.65256" y1="765.40228" x2="559.21033" y2="748.59985"><stop offset="0" stop-color="#7A391F"/><stop offset="1" stop-color="#B9714C"/></linearGradient></defs><path fill="url(#gradient_1)" transform="matrix(0.269906 0 0 0.270431 -35.0876 -78.1538)" d="M507.192 691.669C519.302 692.284 531.442 691.715 543.553 692.354C562.706 693.364 624.08 698.942 635.992 712.773C637.658 714.709 638.513 716.81 638.285 719.376C638.249 719.815 638.192 720.253 638.114 720.687C636.602 729.447 635.146 738.217 633.747 746.996L633.314 749.366L632.337 755.079C631.459 761.074 630.628 768.019 629.035 773.788C626.08 776.825 624.387 778.082 620.432 780C622.6 780.3 581.277 787.662 580.702 787.822C576.651 789.822 570.231 790.241 565.559 790.876C549.907 793.155 534.113 794.327 518.296 794.385C509.94 794.496 498.103 793.944 490.319 794.456C475.798 793.315 461.073 793.791 446.443 791.879C436.759 790.831 427.111 789.615 417.461 788.313C412.891 787.697 400.029 783.202 396.779 785.729C396.605 785.216 396.43 784.703 396.255 784.19C377.576 775.443 379.294 776.274 376.306 756.331L375.276 748.835C374.025 745.173 371.22 724.833 370.866 720.552C370.089 697.068 458.773 693.212 476.236 692.35C480.856 692.581 480.118 693.05 481.76 697.368C483.946 702.268 485.321 707.249 487.245 711.662C488.476 715.954 490.619 725.451 491.988 728.991C494.867 729.886 498.018 731.235 500.866 730.186C502.93 730.03 503.366 730.115 505.162 729.222C507.726 726.493 506.716 720.968 506.651 716.806C506.462 714.055 506.628 712.564 506.874 709.867C506.677 705.593 506.841 700.923 506.905 696.616C506.865 694.74 507.001 693.547 507.192 691.669Z"/><path fill="#CB8B6A" transform="matrix(0.269906 0 0 0.270431 -35.0876 -78.1538)" d="M507.192 691.669C519.302 692.284 531.442 691.715 543.553 692.354C562.706 693.364 624.08 698.942 635.992 712.773C637.658 714.709 638.513 716.81 638.285 719.376C638.249 719.815 638.192 720.253 638.114 720.687C635.263 722.403 633.085 724.205 630.095 725.842C618.561 732.155 606.688 735.632 593.9 738.206C591.226 738.745 579.678 739.709 578.14 740.291C546.734 743.536 516.063 745.909 484.504 743.25C482.513 742.973 476.712 742.961 474.334 742.821L452.013 741.322C431.67 739.475 385.382 735.534 370.866 720.552C370.089 697.068 458.773 693.212 476.236 692.35C480.856 692.581 480.118 693.05 481.76 697.368C483.946 702.268 485.321 707.249 487.245 711.662C488.476 715.954 490.619 725.451 491.988 728.991C494.867 729.886 498.018 731.235 500.866 730.186C502.93 730.03 503.366 730.115 505.162 729.222C507.726 726.493 506.716 720.968 506.651 716.806C506.462 714.055 506.628 712.564 506.874 709.867C506.677 705.593 506.841 700.923 506.905 696.616C506.865 694.74 507.001 693.547 507.192 691.669Z"/><path fill="#442C19" transform="matrix(0.269906 0 0 0.270431 -35.0876 -78.1538)" d="M409.12 719.743C413.239 719.075 419.748 719.081 423.346 716.916C428.962 713.536 437.623 715.498 443.91 714.912C449.086 714.428 459.524 713.311 465.13 712.73C465.563 712.245 465.996 711.76 466.428 711.275C468.034 710.78 484.097 711.587 487.245 711.662C488.476 715.954 490.619 725.451 491.988 728.991C494.867 729.886 498.018 731.235 500.866 730.186C502.93 730.03 503.366 730.115 505.162 729.222C507.726 726.493 506.716 720.968 506.651 716.806C507.502 716.638 507.461 716.289 508.301 715.314C513.631 715.314 519.362 714.813 524.651 715.078C538.011 715.749 553.705 718.336 566.803 715.191C573.712 714.932 607.679 718.885 609.487 725.383C582.594 733.782 545.099 735.361 516.558 737.318C489.856 739.149 458.232 734.587 431.525 731.316C421.39 730.075 410.014 728.684 400.327 725.47C403.935 724.005 406.486 722.663 409.12 719.743Z"/><path fill="#8E472B" transform="matrix(0.269906 0 0 0.270431 -35.0876 -78.1538)" d="M506.905 696.616C540.747 697.657 575.061 697.817 607.975 707.048C612.461 708.307 624.158 711.525 624.379 717.088C622.806 721.471 613.737 724.365 609.487 725.383C607.679 718.885 573.712 714.932 566.803 715.191C553.705 718.336 538.011 715.749 524.651 715.078C519.362 714.813 513.631 715.314 508.301 715.314C507.461 716.289 507.502 716.638 506.651 716.806C506.462 714.055 506.628 712.564 506.874 709.867C506.677 705.593 506.841 700.923 506.905 696.616Z"/><path fill="#4A2B18" transform="matrix(0.269906 0 0 0.270431 -35.0876 -78.1538)" d="M506.874 709.867C508.822 710.123 509.43 710.256 511.387 710.002C517.865 709.163 520.667 712.984 525.999 709.209C528.814 708.97 531.527 711.269 534.011 711.474C540.181 711.985 548.374 712.355 554.391 711.325C557.936 714.746 562.001 715.262 566.803 715.191C553.705 718.336 538.011 715.749 524.651 715.078C519.362 714.813 513.631 715.314 508.301 715.314C507.461 716.289 507.502 716.638 506.651 716.806C506.462 714.055 506.628 712.564 506.874 709.867Z"/><path fill="#8E472B" transform="matrix(0.269906 0 0 0.270431 -35.0876 -78.1538)" d="M481.76 697.368C483.946 702.268 485.321 707.249 487.245 711.662C484.097 711.587 468.034 710.78 466.428 711.275C465.996 711.76 465.563 712.245 465.13 712.73C459.524 713.311 449.086 714.428 443.91 714.912C437.623 715.498 428.962 713.536 423.346 716.916C419.748 719.081 413.239 719.075 409.12 719.743C406.486 722.663 403.935 724.005 400.327 725.47C396.57 724.718 392.305 723.211 388.904 721.425C386.976 720.413 384.863 719.086 384.315 716.83C384.127 716.057 384.311 715.637 384.805 715.002C394.361 702.742 464.606 697.86 481.76 697.368Z"/><path fill="#BA7958" transform="matrix(0.269906 0 0 0.270431 -35.0876 -78.1538)" d="M578.14 740.291C579.678 739.709 591.226 738.745 593.9 738.206C606.688 735.632 618.561 732.155 630.095 725.842C633.085 724.205 635.263 722.403 638.114 720.687C636.602 729.447 635.146 738.217 633.747 746.996L633.314 749.366L632.337 755.079C631.459 761.074 630.628 768.019 629.035 773.788C626.08 776.825 624.387 778.082 620.432 780C622.6 780.3 581.277 787.662 580.702 787.822C575.178 787.661 549.334 791.543 545.351 788.127C547.11 787.936 547.182 788.012 548.832 787.209L549.05 786.428C546.425 784.599 536.606 783.722 533.18 783.507C533.546 780.207 537.496 781.95 540.064 778.725L539.737 778.125C537.568 777.842 533.607 777.814 532.491 775.934C533.941 771.117 544.206 773.356 549.172 770.833C550.549 770.651 551.069 770.458 552.39 770.085L552.667 769.33L551.418 768.483L550.171 769.339C544.666 769.895 527.867 771.024 522.875 769.354C522.713 767.712 522.64 766.259 522.569 764.61C521.55 763.971 520.854 763.454 519.895 762.743C523.843 762.466 532.723 762.194 536.17 761.529C533.747 761.462 529.594 761.708 527.874 760.397L528.096 758.384C526.965 757.137 527.081 757.518 524.994 757.123C527.657 756.789 532.581 756.597 534.222 754.763C530.198 754.738 526.173 754.692 522.149 754.624C528.593 752.744 534.767 751.406 541.106 748.72C543.857 747.554 548.952 747.96 552.208 747.659C555.882 743.007 557.417 748.118 558.56 742.898C560.506 742.287 574.758 741.559 578.597 740.832L578.14 740.291Z"/><defs><linearGradient id="gradient_2" gradientUnits="userSpaceOnUse" x1="536.03607" y1="771.79413" x2="538.76288" y2="760.53607"><stop offset="0" stop-color="#B16C47"/><stop offset="1" stop-color="#C68565"/></linearGradient></defs><path fill="url(#gradient_2)" transform="matrix(0.269906 0 0 0.270431 -35.0876 -78.1538)" d="M522.569 764.61L523.141 764.473C528.941 763.032 533.542 763.586 539.486 763.439C543.85 763.33 549.272 762.433 552.631 765.713C552.306 766.915 551.66 767.572 551.418 768.483L550.171 769.339C544.666 769.895 527.867 771.024 522.875 769.354C522.713 767.712 522.64 766.259 522.569 764.61Z"/><path fill="#CB8B6A" transform="matrix(0.269906 0 0 0.270431 -35.0876 -78.1538)" d="M619.17 755.526C619.201 754.371 619.193 754.664 619.524 753.531C622.921 750.472 628.858 749.503 633.314 749.366L632.337 755.079C628.173 755.54 624.305 758.007 619.814 757.154L619.17 755.526Z"/><path fill="#CB8B6A" transform="matrix(0.269906 0 0 0.270431 -35.0876 -78.1538)" d="M575.276 760.708C577.122 760.467 582.9 760.192 584.458 761.028C585.158 762.599 585.115 761.826 584.675 763.421C581.053 766.731 573.893 765.784 569.214 766.864C564.138 766.716 563.988 767.857 559.077 766.112L558.756 764.849C562.146 762.12 571.051 761.216 575.276 760.708Z"/><path fill="#CB8B6A" transform="matrix(0.269906 0 0 0.270431 -35.0876 -78.1538)" d="M610.315 755.181C611.709 754.964 612.077 754.798 613.461 755.091C614.356 756.958 614.809 756.882 614.633 758.43C611.38 759.945 600.715 762.396 596.908 763.3C595.282 763.552 593.24 764.111 591.867 763.447C590.721 761.543 590.871 762.505 591.122 760.519C594.06 756.868 605.421 755.935 610.315 755.181Z"/><path fill="#BA7958" transform="matrix(0.269906 0 0 0.270431 -35.0876 -78.1538)" d="M487.489 770.113C487.351 768.941 487.181 765.634 488.406 765.202C495.79 762.6 508.507 765.203 516.188 765.323L516.616 765.327C516.848 767.275 516.923 767.752 516.761 769.68C517.652 770.747 518.107 771.176 519.097 772.114C517.224 772.054 515.021 772.303 513.66 771.434C504.775 769.845 496.987 771.976 487.489 770.113Z"/><path fill="#A05C3C" transform="matrix(0.269906 0 0 0.270431 -35.0876 -78.1538)" d="M465.294 768.693C461.513 767.674 451.941 768.721 451.257 764.799C454.294 761.998 477.05 763.558 481.997 764.066C482.561 765.759 482.583 765.633 482.249 767.374C479.797 771.09 469.281 769.618 465.294 768.693Z"/><path fill="#8E472B" transform="matrix(0.269906 0 0 0.270431 -35.0876 -78.1538)" d="M481.997 764.066L481.798 762.723C483.861 762.555 483.834 762.483 485.785 763.016C488.253 766.015 485.681 766.72 487.489 770.113C496.987 771.976 504.775 769.845 513.66 771.434C509.417 774.765 478.659 771.493 471.694 770.234C468.919 769.733 464.235 769.909 461.691 769.278L461.808 768.911L465.294 768.693C469.281 769.618 479.797 771.09 482.249 767.374C482.583 765.633 482.561 765.759 481.997 764.066Z"/><path fill="#A05C3C" transform="matrix(0.269906 0 0 0.270431 -35.0876 -78.1538)" d="M519.895 762.743C520.854 763.454 521.55 763.971 522.569 764.61C522.64 766.259 522.713 767.712 522.875 769.354C527.867 771.024 544.666 769.895 550.171 769.339L551.418 768.483L552.667 769.33L552.39 770.085C551.069 770.458 550.549 770.651 549.172 770.833C542.579 770.965 524.777 773.564 519.097 772.114C518.107 771.176 517.652 770.747 516.761 769.68C516.923 767.752 516.848 767.275 516.616 765.327L516.635 764.697C517.518 763.313 518.016 763.509 519.895 762.743Z"/><path fill="#A05C3C" transform="matrix(0.269906 0 0 0.270431 -35.0876 -78.1538)" d="M452.013 741.322L474.334 742.821C476.712 742.961 482.513 742.973 484.504 743.25C483.999 743.579 482.586 744.523 481.996 744.538C473.899 744.741 460.837 745.435 453.247 744.229C451.918 743.113 452.338 743.544 452.013 741.322Z"/><path fill="#8E472B" transform="matrix(0.269906 0 0 0.270431 -35.0876 -78.1538)" d="M375.276 748.835C378.318 747.509 385.108 750.586 385.316 754.133C383.418 757.325 380.04 754.939 376.306 756.331L375.276 748.835Z"/><path fill="#8E472B" transform="matrix(0.269906 0 0 0.270431 -35.0876 -78.1538)" d="M416.69 760.322C421.701 759.383 438.612 761.019 444.436 762.234C445.419 762.439 445.641 764.855 445.954 766.194C440.769 766.54 418.498 766.194 416.69 760.322Z"/><path fill="#8E472B" transform="matrix(0.269906 0 0 0.270431 -35.0876 -78.1538)" d="M390.161 753.289C394.762 754.343 406.272 756.638 410.107 758.135C410.72 759.399 410.333 761.055 410.185 762.546C405.378 761.555 393.506 759.743 389.907 757.437C389.285 756.074 389.813 754.834 390.161 753.289Z"/><path fill="#CB8B6A" transform="matrix(0.269906 0 0 0.270431 -35.0876 -78.1538)" d="M580.457 922.17C577 922.375 569.64 926.991 564.324 925.988C560.9 925.929 561.272 920.142 560.065 918.866C554.423 912.899 556.496 904.37 555.471 896.81C555.184 893.877 554.335 890.751 554.135 887.831C553.159 873.613 553.592 861.086 556.15 847.089C557.168 841.513 556.366 835.643 557.967 829.86C560.477 820.798 566.818 822.472 573.738 818.612C577.126 816.572 579.854 812.902 583.881 810.847L584.091 809.026C585.27 809.955 583.514 811 584.473 813.612L585.174 813.288C586.096 811.335 586.212 810.471 586.695 808.329C589.66 809.709 589.612 806.98 592.683 807.745L593.118 809.59C594.72 809.573 594.445 807.552 596.702 806.819L597.176 808.172C598.35 808.451 597.957 808.261 598.957 808.94C598.007 810.092 597.712 810.059 597.518 811.322C601.042 810.609 600.818 804.381 606.796 806.394C604.561 819.651 584.507 915.375 580.457 922.17Z"/><path fill="#8E472B" transform="matrix(0.269906 0 0 0.270431 -35.0876 -78.1538)" d="M580.702 787.822C581.277 787.662 622.6 780.3 620.432 780L611.779 783.856L608.309 799.373L607.792 798.571C602.577 798.089 594.701 799.916 589.227 800.16C569.63 801.032 547.792 805.703 528.331 804.514C532.021 803.827 535.879 803.96 539.631 803.717C557.307 802.573 574.853 799.931 592.518 798.531C594.56 798.369 605.4 798.055 606.648 797.508C608.432 795.02 610.758 786.708 610.588 784.133C607.669 784.111 606.288 785.179 603.986 785.422C595.177 786.352 586.7 788.5 577.98 790.083C574.209 790.767 569.199 792.737 565.377 793.522C562.461 794.01 559.125 792.922 556.207 793.209C541.796 794.629 527.389 795.09 512.914 795.273C506.326 795.356 496.66 796.036 490.319 794.456C498.103 793.944 509.94 794.496 518.296 794.385C534.113 794.327 549.907 793.155 565.559 790.876C570.231 790.241 576.651 789.822 580.702 787.822Z"/><defs><linearGradient id="gradient_3" gradientUnits="userSpaceOnUse" x1="452.36948" y1="629.104" x2="624.17828" y2="567.43683"><stop offset="0" stop-color="#506729"/><stop offset="1" stop-color="#ADC16E"/></linearGradient></defs><path fill="url(#gradient_3)" transform="matrix(0.269906 0 0 0.270431 -35.0876 -78.1538)" d="M586.792 477.004C588 475.761 588.913 474.516 590.513 474C595.364 475.282 581.835 518.269 580.239 523.723L574.411 542.497C570.635 553.005 566.816 563.647 561.743 573.619C542.877 617.962 514.832 640.382 507.192 691.669C507.001 693.547 506.865 694.74 506.905 696.616C506.841 700.923 506.677 705.593 506.874 709.867C506.628 712.564 506.462 714.055 506.651 716.806C506.716 720.968 507.726 726.493 505.162 729.222C503.366 730.115 502.93 730.03 500.866 730.186C498.018 731.235 494.867 729.886 491.988 728.991C490.619 725.451 488.476 715.954 487.245 711.662C485.321 707.249 483.946 702.268 481.76 697.368C480.118 693.05 480.856 692.581 476.236 692.35C477.275 692.204 478.17 692.04 479.203 691.853C472.913 673.263 452.41 650.566 441.762 633.807C425.426 608.095 425.691 577.638 420.149 548.291C418.716 540.839 417.194 533.405 415.585 525.989C414.598 521.377 413.06 515.451 412.893 510.855C413.022 508.899 412.636 509.646 413.73 508.384C417.187 507.991 427.93 519.696 430.753 522.641C451.167 543.935 468.421 569.518 479.546 596.876C480.686 599.682 484.21 609.048 484.422 611.888C485.825 616.106 487.513 622.416 489.455 626.073C489.8 616.523 489.29 606.744 489.553 597.306C490.06 579.098 490.427 558.822 492.508 540.775C493.3 523.71 496.629 505.625 497.074 488.666L496.861 487.979C499.046 487.104 500.846 487.331 503.224 487.345L507.716 487.877L510.331 488.829C509.811 490.47 509.408 491.808 508.999 493.479C505.396 509.765 505.318 520.677 502.841 535.63C503.08 546.144 498.19 595.602 501.81 601.927C507.731 587.487 517.693 564.127 526.262 551.417C532.886 536.414 558.828 505.052 571.178 493.884C573.304 493.789 576.326 489.595 578.384 487.571L578.624 488.106C580.915 486.523 583.43 484.15 585.832 484.552C586.759 481.417 586.701 480.189 586.792 477.004Z"/><defs><linearGradient id="gradient_4" gradientUnits="userSpaceOnUse" x1="555.29523" y1="582.69983" x2="521.54297" y2="556.84637"><stop offset="0" stop-color="#394E19"/><stop offset="1" stop-color="#5B6F30"/></linearGradient></defs><path fill="url(#gradient_4)" transform="matrix(0.269906 0 0 0.270431 -35.0876 -78.1538)" d="M578.624 488.106C580.915 486.523 583.43 484.15 585.832 484.552L584.787 488.476C573.834 516.295 563.341 545.562 548.654 571.577C534.019 597.501 511.633 618.65 502.48 648.006C501.497 651.158 499.01 653.761 498.242 657.278C496.793 643.592 499.887 630.584 500.173 616.862C500.274 612.028 501.59 606.772 501.81 601.927C507.731 587.487 517.693 564.127 526.262 551.417C532.886 536.414 558.828 505.052 571.178 493.884C573.304 493.789 576.326 489.595 578.384 487.571L578.624 488.106Z"/><path fill="#748446" transform="matrix(0.269906 0 0 0.270431 -35.0876 -78.1538)" d="M571.178 493.884C573.304 493.789 576.326 489.595 578.384 487.571L578.624 488.106C572.861 498.894 567.893 502.198 559.782 510.933C554.712 516.394 549.054 523.224 544.182 528.969C539.529 534.454 535.887 541.297 530.861 546.943L531.824 545.206C529.452 547.783 527.998 550.638 527.044 551.639L526.262 551.417C532.886 536.414 558.828 505.052 571.178 493.884Z"/><path fill="#5C6F35" transform="matrix(0.269906 0 0 0.270431 -35.0876 -78.1538)" d="M412.893 510.855C415.181 511.835 416.778 516.334 417.778 518.744C429.29 546.499 429.809 576.121 439.282 604.377C447.595 629.174 467.998 644.945 479.99 667.537C485.055 677.146 489.648 688.428 493.481 698.601C495.257 703.314 499.414 722.103 500.797 724.506C499.66 724.54 499.996 724.358 499.143 724.878L498.762 725.701C500.25 727.208 501.939 727.51 504 728.19C503.047 728.255 502.203 728.335 501.254 728.444C500.792 729.617 500.903 729.033 500.866 730.186C498.018 731.235 494.867 729.886 491.988 728.991C490.619 725.451 488.476 715.954 487.245 711.662C485.321 707.249 483.946 702.268 481.76 697.368C480.118 693.05 480.856 692.581 476.236 692.35C477.275 692.204 478.17 692.04 479.203 691.853C472.913 673.263 452.41 650.566 441.762 633.807C425.426 608.095 425.691 577.638 420.149 548.291C418.716 540.839 417.194 533.405 415.585 525.989C414.598 521.377 413.06 515.451 412.893 510.855Z"/><path fill="#91A65B" transform="matrix(0.269906 0 0 0.270431 -35.0876 -78.1538)" d="M412.893 510.855C413.022 508.899 412.636 509.646 413.73 508.384C417.187 507.991 427.93 519.696 430.753 522.641C451.167 543.935 468.421 569.518 479.546 596.876C480.686 599.682 484.21 609.048 484.422 611.888C484.062 615.031 485.462 618.145 486.454 621.308C484.24 619.763 478.887 603.028 477.234 599.103C475.412 593.32 471.969 588.746 469.598 583.463C458.413 558.538 439.235 540.962 422.692 519.779C427.647 534.315 431.216 546.877 433.901 562.068C436.725 578.047 437.409 591.388 443.769 606.616C450.668 623.135 459.625 633.29 470.087 647.115C484.438 666.078 501.884 700.483 500.797 724.506C499.414 722.103 495.257 703.314 493.481 698.601C489.648 688.428 485.055 677.146 479.99 667.537C467.998 644.945 447.595 629.174 439.282 604.377C429.809 576.121 429.29 546.499 417.778 518.744C416.778 516.334 415.181 511.835 412.893 510.855Z"/><defs><linearGradient id="gradient_5" gradientUnits="userSpaceOnUse" x1="486.81662" y1="501.47253" x2="507.49173" y2="520.01068"><stop offset="0" stop-color="#4E582A"/><stop offset="1" stop-color="#6A813D"/></linearGradient></defs><path fill="url(#gradient_5)" transform="matrix(0.269906 0 0 0.270431 -35.0876 -78.1538)" d="M503.224 487.345L507.716 487.877L510.331 488.829C509.811 490.47 509.408 491.808 508.999 493.479C505.396 509.765 505.318 520.677 502.841 535.63C501.301 530.544 501.297 526.444 499.973 521.95C498.073 527.677 497.192 541.143 494.493 544.892L493.958 544.661C494.197 540.482 494.777 540.504 494.109 536.045C493.579 538.405 494.072 539.01 492.508 540.775C493.3 523.71 496.629 505.625 497.074 488.666L496.861 487.979C499.046 487.104 500.846 487.331 503.224 487.345Z"/><defs><linearGradient id="gradient_6" gradientUnits="userSpaceOnUse" x1="512.97125" y1="497.77582" x2="495.30273" y2="523.37811"><stop offset="0" stop-color="#5F6C35"/><stop offset="1" stop-color="#91AB5B"/></linearGradient></defs><path fill="url(#gradient_6)" transform="matrix(0.269906 0 0 0.270431 -35.0876 -78.1538)" d="M503.083 499.037C504.876 495.261 505.214 495.12 508.999 493.479C505.396 509.765 505.318 520.677 502.841 535.63C501.301 530.544 501.297 526.444 499.973 521.95C500.964 516.157 501.525 503.725 503.083 499.037Z"/><path fill="#5C6F35" transform="matrix(0.269906 0 0 0.270431 -35.0876 -78.1538)" d="M503.224 487.345L507.716 487.877L510.331 488.829C509.811 490.47 509.408 491.808 508.999 493.479C505.214 495.12 504.876 495.261 503.083 499.037C503.791 496.524 504.528 493.891 504.769 491.289C505.107 487.633 499.899 488.852 497.94 488.727L497.074 488.666L496.861 487.979C499.046 487.104 500.846 487.331 503.224 487.345Z"/><defs><linearGradient id="gradient_7" gradientUnits="userSpaceOnUse" x1="484.17889" y1="641.85413" x2="493.35385" y2="637.6308"><stop offset="0" stop-color="#495B26"/><stop offset="1" stop-color="#5C742E"/></linearGradient></defs><path fill="url(#gradient_7)" transform="matrix(0.269906 0 0 0.270431 -35.0876 -78.1538)" d="M489.455 626.073C488.87 626.796 492.517 672.192 492.383 676.827L491.738 677.247C491.347 676.273 491.374 676.626 491.377 675.687C491.394 670.197 491.209 664.649 490.111 659.251C489.099 654.278 487.501 649.344 486.89 644.301C486.123 637.979 487.125 631.409 485.644 625.157C484.513 620.382 475.859 602.327 477.234 599.103C478.887 603.028 484.24 619.763 486.454 621.308C485.462 618.145 484.062 615.031 484.422 611.888C485.825 616.106 487.513 622.416 489.455 626.073Z"/><path fill="#91A65B" transform="matrix(0.269906 0 0 0.270431 -35.0876 -78.1538)" d="M561.743 573.619C561.406 572.186 561.663 571.705 562.048 570.291L562.187 569.795L561.005 570.124L560.216 569.663C559.784 567.604 559.202 565.436 560.48 563.732C561.997 561.709 561.167 559.861 562.908 558.208C567.557 560.039 566.466 555.389 566.667 552.146C566.862 548.998 568.136 539.922 572.325 540.092C573.694 540.825 573.676 541.122 574.411 542.497C570.635 553.005 566.816 563.647 561.743 573.619Z"/><path fill="#91A65B" transform="matrix(0.269906 0 0 0.270431 -35.0876 -78.1538)" d="M586.792 477.004C588 475.761 588.913 474.516 590.513 474C595.364 475.282 581.835 518.269 580.239 523.723C580.037 516.975 574.263 518.546 582.721 510.937C585.56 498.962 590.216 487.857 591.252 475.377L590.766 474.854C589.323 476.225 586.625 485.29 585.6 488.034L584.787 488.476L585.832 484.552C586.759 481.417 586.701 480.189 586.792 477.004Z"/><path fill="#91A65B" transform="matrix(0.269906 0 0 0.270431 -35.0876 -78.1538)" d="M558.164 563.408C558.291 565.346 553.727 575.057 552.444 575.963C552.626 573.739 552.244 571.118 553.061 569.003C554.423 565.478 556.379 566.91 558.164 563.408Z"/><defs><linearGradient id="gradient_8" gradientUnits="userSpaceOnUse" x1="558.67017" y1="459.74304" x2="505.41104" y2="394.88086"><stop offset="0" stop-color="#C13A3B"/><stop offset="1" stop-color="#DD5449"/></linearGradient></defs><path fill="url(#gradient_8)" transform="matrix(0.269906 0 0 0.270431 -35.0876 -78.1538)" d="M509.511 353.745L514.824 356.692C516.24 357.652 517.617 358.832 519.263 358.999C526.228 354.127 530.578 359.47 534.927 364.91C536.233 366.244 536.25 366.261 537.179 367.878C540.918 368.26 545.366 359.041 550.068 358.509C552.787 360.82 555.199 383.015 555.421 387.784C556.744 416.21 562.076 450.467 542.162 474.019C534.035 483.63 523.125 489.665 510.331 488.829L507.716 487.877L503.224 487.345C500.846 487.331 499.046 487.104 496.861 487.979C484.15 485.664 471.545 475.352 466.134 463.732C455.446 440.778 466.54 413.619 470.923 390.371C472.824 380.293 474.122 370.011 477.484 360.489C478.554 358.086 478.076 358.089 479.903 357.04C484.365 357.14 489.271 364.178 491.611 367.796C492.537 366.979 493.535 366.174 494.487 365.381C497.42 362.39 499.94 360.076 503.506 357.794C505.432 356.189 507.387 355.064 509.511 353.745Z"/><defs><linearGradient id="gradient_9" gradientUnits="userSpaceOnUse" x1="458.12357" y1="430.77167" x2="507.06726" y2="419.19391"><stop offset="0" stop-color="#941E22"/><stop offset="1" stop-color="#D03B31"/></linearGradient></defs><path fill="url(#gradient_9)" transform="matrix(0.269906 0 0 0.270431 -35.0876 -78.1538)" d="M477.484 360.489C478.554 358.086 478.076 358.089 479.903 357.04C484.365 357.14 489.271 364.178 491.611 367.796C492.971 370.366 494.91 372.563 496.748 374.821C497.273 375.991 497.374 376.422 498.146 377.453C508.596 399.214 513.486 413.971 507.857 438.644C504.977 451.266 499.023 464.536 501.704 477.471C502.118 479.445 504.204 485.281 506.047 486.119L506.101 486.097C507.298 486.764 507.233 486.532 508.036 487.502L507.716 487.877L503.224 487.345C500.846 487.331 499.046 487.104 496.861 487.979C484.15 485.664 471.545 475.352 466.134 463.732C455.446 440.778 466.54 413.619 470.923 390.371C472.824 380.293 474.122 370.011 477.484 360.489Z"/><defs><linearGradient id="gradient_10" gradientUnits="userSpaceOnUse" x1="477.29691" y1="428.48315" x2="513.0896" y2="412.96466"><stop offset="0" stop-color="#C74B47"/><stop offset="1" stop-color="#DF6257"/></linearGradient></defs><path fill="url(#gradient_10)" transform="matrix(0.269906 0 0 0.270431 -35.0876 -78.1538)" d="M477.484 360.489C478.554 358.086 478.076 358.089 479.903 357.04C484.365 357.14 489.271 364.178 491.611 367.796C492.971 370.366 494.91 372.563 496.748 374.821C497.273 375.991 497.374 376.422 498.146 377.453C508.596 399.214 513.486 413.971 507.857 438.644C504.977 451.266 499.023 464.536 501.704 477.471C502.118 479.445 504.204 485.281 506.047 486.119L506.101 486.097C507.298 486.764 507.233 486.532 508.036 487.502L507.716 487.877L503.224 487.345C501.865 485.193 497.629 479.65 497.619 477.443C497.636 458.179 506.091 441.462 506.549 421.975C507.027 401.601 498.037 387.022 487.789 370.344C485.053 365.893 482.651 361.939 477.484 360.489Z"/><defs><linearGradient id="gradient_11" gradientUnits="userSpaceOnUse" x1="497.19061" y1="483.14404" x2="516.43182" y2="365.23364"><stop offset="0" stop-color="#881510"/><stop offset="1" stop-color="#B32B22"/></linearGradient></defs><path fill="url(#gradient_11)" transform="matrix(0.269906 0 0 0.270431 -35.0876 -78.1538)" d="M509.511 353.745L514.824 356.692C516.24 357.652 517.617 358.832 519.263 358.999C526.228 354.127 530.578 359.47 534.927 364.91C536.233 366.244 536.25 366.261 537.179 367.878C537.103 370.831 535.869 371.517 533.656 373.887C532.866 375.168 532.933 375.194 531.774 376.113C522.736 387.118 515.3 401.65 511.814 415.343C504.652 443.476 531.544 461.754 506.101 486.097L506.047 486.119C504.204 485.281 502.118 479.445 501.704 477.471C499.023 464.536 504.977 451.266 507.857 438.644C513.486 413.971 508.596 399.214 498.146 377.453C497.374 376.422 497.273 375.991 496.748 374.821C494.91 372.563 492.971 370.366 491.611 367.796C492.537 366.979 493.535 366.174 494.487 365.381C497.42 362.39 499.94 360.076 503.506 357.794C505.432 356.189 507.387 355.064 509.511 353.745Z"/><defs><linearGradient id="gradient_12" gradientUnits="userSpaceOnUse" x1="512.87622" y1="387.96164" x2="507.95828" y2="366.25558"><stop offset="0" stop-color="#C13225"/><stop offset="1" stop-color="#D75143"/></linearGradient></defs><path fill="url(#gradient_12)" transform="matrix(0.269906 0 0 0.270431 -35.0876 -78.1538)" d="M509.511 353.745L514.824 356.692C516.24 357.652 517.617 358.832 519.263 358.999C526.228 354.127 530.578 359.47 534.927 364.91C536.233 366.244 536.25 366.261 537.179 367.878C537.103 370.831 535.869 371.517 533.656 373.887C532.866 375.168 532.933 375.194 531.774 376.113L529.998 374.406C529.29 373.264 529.105 373.318 527.967 372.428C526.3 370.856 524.713 370.586 523.454 369.029C522.249 367.987 520.765 366.954 519.463 365.997C518.374 365.212 517.327 364.864 516.082 364.321L515.04 364.694C512.488 372.431 514.711 380.904 511.062 389.093L510.521 389.228L510.318 388.714C508.424 384.017 507.969 384.977 507.025 379.522L506.491 379.486L506.472 378.914C505.517 378.431 505.249 378.36 504.178 378.374L503.417 377.582C502.255 377.46 502.793 377.357 501.795 377.843L499.191 376.434C498.256 376.902 498.595 376.553 498.146 377.453C497.374 376.422 497.273 375.991 496.748 374.821C494.91 372.563 492.971 370.366 491.611 367.796C492.537 366.979 493.535 366.174 494.487 365.381C497.42 362.39 499.94 360.076 503.506 357.794C505.432 356.189 507.387 355.064 509.511 353.745Z"/><path fill="#8E472B" transform="matrix(0.269906 0 0 0.270431 -35.0876 -78.1538)" d="M509.511 353.745L514.824 356.692L513.399 357.977L513.545 358.561L513.559 359.513C509.221 362.984 506.566 364.699 502.381 368.63L501.428 369.719C499.863 371.394 498.524 372.667 497.326 374.631L496.748 374.821C494.91 372.563 492.971 370.366 491.611 367.796C492.537 366.979 493.535 366.174 494.487 365.381C497.42 362.39 499.94 360.076 503.506 357.794C505.432 356.189 507.387 355.064 509.511 353.745Z"/><path fill="#BE382D" transform="matrix(0.269906 0 0 0.270431 -35.0876 -78.1538)" d="M509.511 353.745L514.824 356.692L513.399 357.977L513.545 358.561C504.266 357.51 499.655 368.251 494.487 365.381C497.42 362.39 499.94 360.076 503.506 357.794C505.432 356.189 507.387 355.064 509.511 353.745Z"/><path fill="#DA5F55" transform="matrix(0.269906 0 0 0.270431 -35.0876 -78.1538)" d="M509.511 353.745L514.824 356.692L513.399 357.977C509.116 356.196 506.088 359.1 503.506 357.794C505.432 356.189 507.387 355.064 509.511 353.745Z"/><path fill="#8E472B" transform="matrix(0.269906 0 0 0.270431 -35.0876 -78.1538)" d="M519.263 358.999C526.228 354.127 530.578 359.47 534.927 364.91C536.233 366.244 536.25 366.261 537.179 367.878C537.103 370.831 535.869 371.517 533.656 373.887C532.866 375.168 532.933 375.194 531.774 376.113L529.998 374.406C529.29 373.264 529.105 373.318 527.967 372.428C529.323 370.531 528.844 370.822 528.761 367.882C527.779 365.998 523.211 361.978 521.548 360.53L520.347 359.608L519.757 359.509L519.263 358.999Z"/><path fill="#CE4B3F" transform="matrix(0.269906 0 0 0.270431 -35.0876 -78.1538)" d="M519.263 358.999C526.228 354.127 530.578 359.47 534.927 364.91C530.607 364.131 526.828 358.648 520.347 359.608L519.757 359.509L519.263 358.999Z"/><path fill="#CE4B3F" transform="matrix(0.269906 0 0 0.270431 -35.0876 -78.1538)" d="M528.761 367.882C530.547 369.955 531.987 371.698 533.656 373.887C532.866 375.168 532.933 375.194 531.774 376.113L529.998 374.406C529.29 373.264 529.105 373.318 527.967 372.428C529.323 370.531 528.844 370.822 528.761 367.882Z"/><path fill="#DA5F55" transform="matrix(0.269906 0 0 0.270431 -35.0876 -78.1538)" d="M514.824 356.692C516.24 357.652 517.617 358.832 519.263 358.999L519.757 359.509L520.347 359.608L521.548 360.53C523.211 361.978 527.779 365.998 528.761 367.882C528.844 370.822 529.323 370.531 527.967 372.428C526.3 370.856 524.713 370.586 523.454 369.029C522.249 367.987 520.765 366.954 519.463 365.997C518.374 365.212 517.327 364.864 516.082 364.321C516.397 362.415 516.808 362.228 516.005 361.087L515.086 360.961C514.024 362.255 514.054 362.762 513.737 364.386C506.696 367.978 507.941 364 504.392 371.131C502.971 370.045 503.391 369.916 502.381 368.63C506.566 364.699 509.221 362.984 513.559 359.513L513.545 358.561L513.399 357.977L514.824 356.692Z"/><path fill="#BE382D" transform="matrix(0.269906 0 0 0.270431 -35.0876 -78.1538)" d="M497.326 374.631C498.524 372.667 499.863 371.394 501.428 369.719C503.655 372.478 503.688 372.524 503.537 376.081L503.417 377.582C502.255 377.46 502.793 377.357 501.795 377.843L499.191 376.434C498.256 376.902 498.595 376.553 498.146 377.453C497.374 376.422 497.273 375.991 496.748 374.821L497.326 374.631Z"/><path fill="#CE4B3F" transform="matrix(0.269906 0 0 0.270431 -35.0876 -78.1538)" d="M497.326 374.631C498.524 372.667 499.863 371.394 501.428 369.719C503.655 372.478 503.688 372.524 503.537 376.081C503.07 374.517 503.219 374.018 502.193 373.108C500.385 374.818 500.09 374.581 497.774 375.301L497.326 374.631Z"/><path fill="#CE4B3F" transform="matrix(0.269906 0 0 0.270431 -35.0876 -78.1538)" d="M503.537 376.081C505.414 375.024 505.212 374.716 506.919 374.913C507.68 376.352 507.239 377.819 507.025 379.522L506.491 379.486L506.472 378.914C505.517 378.431 505.249 378.36 504.178 378.374L503.417 377.582L503.537 376.081Z"/><path fill="#CE4B3F" transform="matrix(0.269906 0 0 0.270431 -35.0876 -78.1538)" d="M515.04 364.694L516.082 364.321C517.327 364.864 518.374 365.212 519.463 365.997C520.765 366.954 522.249 367.987 523.454 369.029C524.713 370.586 526.3 370.856 527.967 372.428C529.105 373.318 529.29 373.264 529.998 374.406C528.945 375.681 528.539 376.217 527.246 377.313L526.587 377.044L526.065 375.742L525.058 375.918C523.024 377.211 518.492 381.996 517.684 382.386C515.819 378.32 515.416 373.547 515.356 369.15C515.469 367.453 515.753 366.201 515.04 364.694Z"/><path fill="#BE382D" transform="matrix(0.269906 0 0 0.270431 -35.0876 -78.1538)" d="M514.497 389.78C514.458 386.482 514.281 370.784 515.356 369.15C515.416 373.547 515.819 378.32 517.684 382.386C518.492 381.996 523.024 377.211 525.058 375.918C524.511 377.344 521.198 383.287 519.93 384.255C516.609 386.79 516.674 385.667 514.497 389.78Z"/><path fill="#5C6F35" transform="matrix(0.269906 0 0 0.270431 -35.0876 -78.1538)" d="M586.792 477.004C586.701 480.189 586.759 481.417 585.832 484.552C583.43 484.15 580.915 486.523 578.624 488.106L578.384 487.571C576.326 489.595 573.304 493.789 571.178 493.884C575.547 488.594 581.982 482.017 586.792 477.004Z"/></g></svg>