<?xml version="1.0" encoding="utf-8" ?><svg xmlns="http://www.w3.org/2000/svg" xmlns:xlink="http://www.w3.org/1999/xlink" width="200" height="198" viewBox="0 0 200 198"><clipPath id="cl_3"><rect x="-7.6293945e-06" y="6.4849854e-05" width="200" height="198.00002"/></clipPath><g clip-path="url(#cl_3)"><defs><linearGradient id="gradient_0" gradientUnits="userSpaceOnUse" x1="514.78577" y1="380.07684" x2="451.9653" y2="201.76706"><stop offset="0" stop-color="#A67141"/><stop offset="1" stop-color="#BB8851"/></linearGradient></defs><path fill="url(#gradient_0)" transform="matrix(0.355872 0 0 0.357401 -77.5801 -44.3176)" d="M544.606 144.351C546.1 143.198 547.015 142.558 548.96 142.432C557.368 141.886 566.567 142.159 575.015 142.145L628.297 142.018C630.311 144.034 630.147 144.591 630.163 147.6C630.57 151.394 630.386 156.426 630.355 160.332C630.4 166.182 630.728 175.217 630.335 180.805C634.929 180.216 646.774 180.502 651.869 180.46C662.966 180.369 674.757 179.954 685.794 180.165C691.44 179.185 694.569 178.377 700.268 179.891C706.689 180.042 727.938 179.177 732.455 180.39L730.332 182.154C729.471 182.96 725.691 186.616 724.982 187.096L722.074 190.221C721.229 194.556 721.465 200.535 721.563 205.019L720.502 206.739L719.267 207.193C718.604 209.518 718.444 217.695 718.074 220.674C716.339 234.632 715.061 248.404 714.268 262.453C715.972 262.423 718.101 262.155 719.469 262.975C719.768 263.659 719.905 263.833 720.048 264.558C722.3 267.76 724.51 265.158 727.899 267.145C729.502 269.895 727.715 271.758 728.573 274.401C730.201 274.588 730.814 274.619 732.413 275.138C734.985 278.49 733.781 288.343 730.895 291.619L728.394 291.672C727.844 300.722 728.217 309.617 728.007 318.634C727.838 325.903 729.417 336.662 723.545 341.844C720.785 341.889 717.106 341.597 714.493 340.795C713.219 342.346 713.617 366.813 713.612 370.556C715.656 371.403 718.225 371.54 720.459 372.095C720.23 386.379 722.803 397.963 714.579 410.012L714.456 417.147C714.536 419.718 714.801 426.893 713.978 429.043C711.674 435.062 700.676 453.758 695.207 456.187C689.743 455.794 680.04 457.227 676.381 454.138L673.451 453.986C657.689 454.261 638.808 453.262 622.948 452.768L537.519 449.742C526.577 448.92 515.918 448.937 504.958 448.681C491.389 448.364 474.856 446.484 461.537 447.566C452.78 447.515 430.952 447.541 423.127 446.547C418.388 444.7 369.831 443.901 362.4 444.123L324.189 443.301C289.778 442.469 294.527 446.32 294.017 412.262L293.23 410.513L293.077 405.505L293.013 398.412L292.589 396.719C293.682 392.163 290.665 385.171 294.938 382.251L294.616 380.046C291.074 376.997 291.956 369.353 291.934 364.797C291.33 354.323 291.353 342.961 291.189 332.411C291.22 328.865 291.09 325.129 291.022 321.566C284.9 321.548 275.83 321.752 270.02 321.055C267.67 317.06 267.175 313.06 266.381 308.551C266.762 303.958 268.418 297.189 269.428 292.5C271.082 284.819 272.69 277.128 274.25 269.427C275.34 264.896 276.006 262.665 277.673 258.332L277.395 254.104C277.588 249.132 279.346 241.65 280.39 236.63C282.118 228.243 283.89 219.866 285.708 211.498L286.102 209.485L286.256 208.727L286.279 207.718C285.697 207.501 284.95 207.133 284.369 206.869C282.436 203.686 283.193 197.064 282.915 192.728C291.69 185.029 305.227 183.649 316.325 184.449C319.492 183.026 320.412 182.887 323.781 182.22C325.787 182.991 327.369 183.413 328.989 184.818C349.831 185.416 374.808 184.646 395.958 184.504L548.54 183.529C550.646 178.795 553.053 173.742 554.612 168.837C552.977 166.139 543.893 146.607 544.606 144.351Z"/><defs><linearGradient id="gradient_1" gradientUnits="userSpaceOnUse" x1="483.92444" y1="335.02606" x2="481.47394" y2="377.98929"><stop offset="0" stop-color="#5B2F17"/><stop offset="1" stop-color="#9A6237"/></linearGradient></defs><path fill="url(#gradient_1)" transform="matrix(0.355872 0 0 0.357401 -77.5801 -44.3176)" d="M720.048 264.558C722.3 267.76 724.51 265.158 727.899 267.145C729.502 269.895 727.715 271.758 728.573 274.401C730.201 274.588 730.814 274.619 732.413 275.138C734.985 278.49 733.781 288.343 730.895 291.619L728.394 291.672C727.844 300.722 728.217 309.617 728.007 318.634C727.838 325.903 729.417 336.662 723.545 341.844C720.785 341.889 717.106 341.597 714.493 340.795C713.219 342.346 713.617 366.813 713.612 370.556C715.656 371.403 718.225 371.54 720.459 372.095C720.23 386.379 722.803 397.963 714.579 410.012L714.456 417.147C714.536 419.718 714.801 426.893 713.978 429.043C711.674 435.062 700.676 453.758 695.207 456.187C689.743 455.794 680.04 457.227 676.381 454.138L673.451 453.986C657.689 454.261 638.808 453.262 622.948 452.768L537.519 449.742C526.577 448.92 515.918 448.937 504.958 448.681C491.389 448.364 474.856 446.484 461.537 447.566C452.78 447.515 430.952 447.541 423.127 446.547C418.388 444.7 369.831 443.901 362.4 444.123L324.189 443.301C289.778 442.469 294.527 446.32 294.017 412.262L293.23 410.513L293.077 405.505L293.013 398.412L292.589 396.719C293.682 392.163 290.665 385.171 294.938 382.251L294.616 380.046C291.074 376.997 291.956 369.353 291.934 364.797C291.33 354.323 291.353 342.961 291.189 332.411C291.22 328.865 291.09 325.129 291.022 321.566C309.636 321.104 328.838 322.329 347.482 322.439C353.043 322.472 360.211 322.314 365.641 322.883L449.544 324.086C460.368 323.352 591.803 326.531 592.426 326.895L597.46 327.077C600.922 326.849 620.353 327.111 623.462 327.775C626.712 328.012 635.187 328.211 638.445 327.963C653.955 326.732 670.787 328.896 686.382 328.399C689.252 328.308 702.194 329.323 702.812 326.325C705.36 313.958 707.281 301.219 709.281 288.719C709.772 285.674 709.988 276.058 711.13 274.164L713.069 274.304C714.735 273.141 715.063 272.845 716.488 271.382C716.916 270.861 717.532 270.408 718.067 269.955C719.175 267.961 720.096 266.811 720.048 264.558Z"/><path fill="#945E35" transform="matrix(0.355872 0 0 0.357401 -77.5801 -44.3176)" d="M292.589 396.719C293.682 392.163 290.665 385.171 294.938 382.251C297.453 384.166 405.842 386.143 417.732 386.559C422.075 386.5 429.346 386.496 433.645 387.069C440.093 386.727 448.872 387.164 455.445 387.348L495.879 388.667L607 391.829C626.502 392.415 651.668 393.876 670.878 393.498L675.477 393.429C674.534 397.382 674.301 398.174 674.828 402.308L674.598 403.928L674.516 424.409L674.533 425.963C674.495 432.308 674.396 438.753 674.429 445.088C674.416 446.537 674.526 449.782 674.153 450.991L673.451 453.986C657.689 454.261 638.808 453.262 622.948 452.768L537.519 449.742C526.577 448.92 515.918 448.937 504.958 448.681C491.389 448.364 474.856 446.484 461.537 447.566C452.78 447.515 430.952 447.541 423.127 446.547C418.388 444.7 369.831 443.901 362.4 444.123L324.189 443.301C289.778 442.469 294.527 446.32 294.017 412.262L293.23 410.513L293.077 405.505L293.013 398.412L292.589 396.719Z"/><path fill="#945E35" transform="matrix(0.355872 0 0 0.357401 -77.5801 -44.3176)" d="M292.589 396.719C293.682 392.163 290.665 385.171 294.938 382.251C297.453 384.166 405.842 386.143 417.732 386.559C422.075 386.5 429.346 386.496 433.645 387.069C440.093 386.727 448.872 387.164 455.445 387.348L495.879 388.667L607 391.829C626.502 392.415 651.668 393.876 670.878 393.498L675.477 393.429C674.534 397.382 674.301 398.174 674.828 402.308L674.598 403.928C612.515 410.574 549.66 399.65 487.821 395.271C431.145 391.257 374.599 399.875 317.962 398.901C311.025 398.782 303.639 398.426 296.782 399.249L293.013 398.412L292.589 396.719Z"/><path fill="#86512D" transform="matrix(0.355872 0 0 0.357401 -77.5801 -44.3176)" d="M294.993 396.324C323.683 400.137 357.8 396.946 386.789 395.23C414.662 393.457 442.589 392.67 470.518 392.869C487.991 392.959 502.598 394.813 519.933 396.485C544.289 398.936 568.679 401.049 593.094 402.824C611.725 404.147 630.414 404.466 649.079 403.779C657.145 403.507 667.154 402.274 674.828 402.308L674.598 403.928C612.515 410.574 549.66 399.65 487.821 395.271C431.145 391.257 374.599 399.875 317.962 398.901C311.025 398.782 303.639 398.426 296.782 399.249L293.013 398.412L292.589 396.719L294.993 396.324Z"/><path fill="#B17D4B" transform="matrix(0.355872 0 0 0.357401 -77.5801 -44.3176)" d="M433.645 387.069C440.093 386.727 448.872 387.164 455.445 387.348L495.879 388.667L607 391.829C626.502 392.415 651.668 393.876 670.878 393.498L673.537 394.54L673.503 395.051C668.402 396.332 636.461 394.803 628.89 394.562L503.539 389.622C496.767 389.35 435.631 388.022 433.645 387.069Z"/><path fill="#B17D4B" transform="matrix(0.355872 0 0 0.357401 -77.5801 -44.3176)" d="M292.589 396.719C293.682 392.163 290.665 385.171 294.938 382.251C297.453 384.166 405.842 386.143 417.732 386.559L421.477 387.48C418.131 388.473 391.453 387.829 387.016 387.721L331.797 386.904C321.589 386.699 311.193 385.99 300.994 386.165C298.667 386.205 297.869 386.243 296.244 387.544C294.724 391.041 296.063 393.255 294.993 396.324L292.589 396.719Z"/><path fill="#86512D" transform="matrix(0.355872 0 0 0.357401 -77.5801 -44.3176)" d="M674.153 450.991C674.052 449.748 673.95 449.072 673.721 447.844C672.834 447.328 645.193 444.214 641.495 443.568C614.518 438.854 589.019 432.167 561.403 432.026C542.789 431.931 526.432 434.823 508.1 436.775C491.688 438.491 475.188 439.228 458.689 438.981C434.87 438.755 411.063 437.856 387.295 436.284C364.717 434.604 342.277 430.984 319.5 431.054C312.226 431.077 304.721 431.163 297.499 430.454C307.39 426.958 380.362 433.812 394.666 434.788C425.581 436.634 457.56 438.337 488.506 436.355C511.584 434.876 533.115 430.946 556.459 430.311C593.288 429.309 626.249 439.688 662.304 444.766C664.821 445.12 672.662 446.428 674.429 445.088C674.416 446.537 674.526 449.782 674.153 450.991Z"/><path fill="#86512D" transform="matrix(0.355872 0 0 0.357401 -77.5801 -44.3176)" d="M648.256 424.421C640.332 424.901 622.677 421.81 613.986 420.662C596.195 418.313 581.597 416.635 563.69 416.528C556.839 416.501 549.988 416.652 543.144 416.981C537.865 417.237 514.762 419.167 511.28 418.068C517.745 416.522 527.247 416.503 533.864 415.914C566.192 413.037 597.979 416.216 629.929 420.999C635.268 421.798 644.853 421.583 649.543 423.239L648.256 424.421Z"/><path fill="#73624D" transform="matrix(0.355872 0 0 0.357401 -77.5801 -44.3176)" d="M652.976 421.148C655.019 420.864 654.98 420.864 657.019 421.177L657.892 423.69L657.522 424.939L658.474 427.08C657.411 429.799 657.382 431.052 654.46 431.995L648.979 432.17C647.699 429.547 647.096 428.749 647.778 426.02L648.256 424.421L649.543 423.239L652.976 421.148Z"/><path fill="#8A765B" transform="matrix(0.355872 0 0 0.357401 -77.5801 -44.3176)" d="M652.976 421.148C655.019 420.864 654.98 420.864 657.019 421.177L657.892 423.69L657.522 424.939C655.878 424.987 654.394 425.08 652.752 424.916L650.894 425.659C649.374 426.838 650.035 426.676 648.346 426.911L647.778 426.02L648.256 424.421L649.543 423.239L652.976 421.148Z"/><path fill="#665434" transform="matrix(0.355872 0 0 0.357401 -77.5801 -44.3176)" d="M652.976 421.148C655.019 420.864 654.98 420.864 657.019 421.177L657.892 423.69L657.522 424.939C655.878 424.987 654.394 425.08 652.752 424.916C653.771 423.472 654.077 423.55 654.17 422.051L652.976 421.148Z"/><path fill="#5C5347" transform="matrix(0.355872 0 0 0.357401 -77.5801 -44.3176)" d="M657.522 424.939L658.474 427.08C653.943 426.399 654.146 426.877 651.094 430.088L650.894 425.659L652.752 424.916C654.394 425.08 655.878 424.987 657.522 424.939Z"/><path fill="#553F30" transform="matrix(0.355872 0 0 0.357401 -77.5801 -44.3176)" d="M657.892 423.69C660.992 425.973 660.475 427.098 661.315 431.133C658.692 436.99 652.741 436.468 648.979 432.17L654.46 431.995C657.382 431.052 657.411 429.799 658.474 427.08L657.522 424.939L657.892 423.69Z"/><path fill="#86512D" transform="matrix(0.355872 0 0 0.357401 -77.5801 -44.3176)" d="M657.019 421.177C664.009 424.24 666.864 424.375 674.516 424.409L674.533 425.963C671.93 425.84 665.028 425.263 662.825 426.057C662.236 428.124 662.878 429.655 661.315 431.133C660.475 427.098 660.992 425.973 657.892 423.69L657.019 421.177Z"/><path fill="#BF9161" transform="matrix(0.355872 0 0 0.357401 -77.5801 -44.3176)" d="M293.013 398.412L296.782 399.249L298.121 400.28C297.404 402.513 295.61 403.83 293.861 405.322L293.077 405.505L293.013 398.412Z"/><path fill="#5B311A" transform="matrix(0.355872 0 0 0.357401 -77.5801 -44.3176)" d="M293.23 410.513C296.791 409.548 305.423 410.639 309.646 410.866C304.688 411.642 298.946 412.81 294.017 412.262L293.23 410.513Z"/><path fill="#86512D" transform="matrix(0.355872 0 0 0.357401 -77.5801 -44.3176)" d="M435.115 401.787C443.294 401.183 464.8 401.496 471.324 404.49C492.038 413.997 451.046 417.424 446.876 417.681C439.466 418.254 407.278 418.482 405.094 410.607C406.174 403.491 429.348 402.253 435.115 401.787Z"/><path fill="#945E35" transform="matrix(0.355872 0 0 0.357401 -77.5801 -44.3176)" d="M433.762 403.712C439.702 403.169 473.548 402.991 473.137 409.685C469.619 413.711 454.684 415.113 448.774 415.906C443.373 416.092 437.966 416.06 432.567 415.811C427.909 415.58 410.226 414.499 407.763 411.772C407.754 404.913 428.288 404.212 433.762 403.712Z"/><path fill="#8A765B" transform="matrix(0.355872 0 0 0.357401 -77.5801 -44.3176)" d="M319.796 423.825C312.914 418.653 314.027 409.78 322.187 410.783C323.434 411.313 325.545 412.132 326.693 412.729C331.04 416.308 330.69 417.252 330.447 422.651C326.343 425.274 324.329 426.485 319.796 423.825Z"/><path fill="#86512D" transform="matrix(0.355872 0 0 0.357401 -77.5801 -44.3176)" d="M326.693 412.729C331.04 416.308 330.69 417.252 330.447 422.651C326.343 425.274 324.329 426.485 319.796 423.825C321.545 421.862 321.506 421.93 323.948 422.257C324.21 421.979 324.467 421.696 324.719 421.41C327.291 418.46 326.985 416.543 326.693 412.729Z"/><path fill="#73624D" transform="matrix(0.355872 0 0 0.357401 -77.5801 -44.3176)" d="M322.187 410.783C323.434 411.313 325.545 412.132 326.693 412.729C326.985 416.543 327.291 418.46 324.719 421.41C324.467 421.696 324.21 421.979 323.948 422.257L323.783 419.853C322.822 419 323.096 419.203 321.997 418.596L322.912 418.168L323.149 417.333C322.62 415.682 322.485 414.919 321.454 413.491L322.187 410.783Z"/><path fill="#5C5347" transform="matrix(0.355872 0 0 0.357401 -77.5801 -44.3176)" d="M321.454 413.491C322.485 414.919 322.62 415.682 323.149 417.333L322.912 418.168L321.997 418.596C319.971 418.482 319.382 418.823 318.689 416.896C319.201 415.31 320.211 414.641 321.454 413.491Z"/><path fill="#5B311A" transform="matrix(0.355872 0 0 0.357401 -77.5801 -44.3176)" d="M720.048 264.558C722.3 267.76 724.51 265.158 727.899 267.145C729.502 269.895 727.715 271.758 728.573 274.401C730.201 274.588 730.814 274.619 732.413 275.138C734.985 278.49 733.781 288.343 730.895 291.619L728.394 291.672C727.844 300.722 728.217 309.617 728.007 318.634C727.838 325.903 729.417 336.662 723.545 341.844C720.785 341.889 717.106 341.597 714.493 340.795C713.219 342.346 713.617 366.813 713.612 370.556C715.656 371.403 718.225 371.54 720.459 372.095C720.23 386.379 722.803 397.963 714.579 410.012L714.456 417.147C714.536 419.718 714.801 426.893 713.978 429.043C711.674 435.062 700.676 453.758 695.207 456.187C689.743 455.794 680.04 457.227 676.381 454.138L673.451 453.986L674.153 450.991C674.526 449.782 674.416 446.537 674.429 445.088C674.396 438.753 674.495 432.308 674.533 425.963L674.516 424.409L674.598 403.928L674.828 402.308C674.301 398.174 674.534 397.382 675.477 393.429C676.763 390.324 675.007 373.66 676.363 371.696C676.249 366.892 676.437 361.153 676.485 356.294C676.345 351.674 676.458 347.051 676.823 342.444C677.076 339.061 678.334 332.063 676.572 329.439L675.845 328.975C673.229 330.956 676.498 351.236 675.491 356.324C674.961 354.762 675.281 352.991 674.639 352.018C674.367 355.93 674.494 360.764 674.5 364.754C670.296 364.832 666.215 365.17 661.941 365.283C656.603 365.424 650.382 365.063 645.2 365.43C642.014 366.072 641.318 365.711 640.675 369.531C640.061 373.181 640.647 373.019 637.473 374.527L637.084 374.489L636.556 373.799L635.258 374.108C634.738 375.128 634.833 374.792 634.605 375.909C630.038 376.524 605.415 373.474 603.614 374.094C604.41 375.371 604.721 375.64 605.729 376.725C603.498 376.896 597.812 372.546 595.639 371.052C595.008 369.981 595.083 370.033 595.108 368.773L594.296 368.58C591.116 365.666 592.436 350.373 592.527 345.598C592.592 342.406 592.601 339.214 592.553 336.022C594.276 335.667 593.651 336.119 594.725 335.021C594.818 333.705 594.557 332.344 594.378 331.026L594.547 327.806C593.383 328.059 593.168 328.064 592.046 327.661L592.426 326.895L597.46 327.077C600.922 326.849 620.353 327.111 623.462 327.775C626.712 328.012 635.187 328.211 638.445 327.963C653.955 326.732 670.787 328.896 686.382 328.399C689.252 328.308 702.194 329.323 702.812 326.325C705.36 313.958 707.281 301.219 709.281 288.719C709.772 285.674 709.988 276.058 711.13 274.164L713.069 274.304C714.735 273.141 715.063 272.845 716.488 271.382C716.916 270.861 717.532 270.408 718.067 269.955C719.175 267.961 720.096 266.811 720.048 264.558Z"/><defs><linearGradient id="gradient_2" gradientUnits="userSpaceOnUse" x1="717.8338" y1="355.96036" x2="654.77728" y2="436.12704"><stop offset="0" stop-color="#693E20"/><stop offset="1" stop-color="#9F643B"/></linearGradient></defs><path fill="url(#gradient_2)" transform="matrix(0.355872 0 0 0.357401 -77.5801 -44.3176)" d="M677.745 339.255L684.269 339.388C684.623 340.483 684.997 341.572 685.391 342.653L686.056 342.722C687.108 340.87 687.083 340.473 687.48 338.321C690.004 336.499 692.525 337.355 694.791 339.07C695.909 340.844 695.404 344.763 695.242 346.848C695.106 348.597 690.447 349.695 691.823 352.481L695.389 354.503C695.676 380.538 694.904 406.354 695.259 432.357C695.368 440.349 695.272 448.204 695.207 456.187C689.743 455.794 680.04 457.227 676.381 454.138L673.451 453.986L674.153 450.991C674.526 449.782 674.416 446.537 674.429 445.088C674.396 438.753 674.495 432.308 674.533 425.963L674.516 424.409L674.598 403.928L674.828 402.308C674.301 398.174 674.534 397.382 675.477 393.429C676.763 390.324 675.007 373.66 676.363 371.696C676.249 366.892 676.437 361.153 676.485 356.294C678.245 349.754 677.842 346.12 677.745 339.255Z"/><path fill="#5B311A" transform="matrix(0.355872 0 0 0.357401 -77.5801 -44.3176)" d="M675.477 393.429C676.763 390.324 675.007 373.66 676.363 371.696C676.901 378.351 676.621 387.088 676.475 393.894C676.043 413.935 676.621 434.14 676.381 454.138L673.451 453.986L674.153 450.991C674.526 449.782 674.416 446.537 674.429 445.088C674.396 438.753 674.495 432.308 674.533 425.963L674.516 424.409L674.598 403.928L674.828 402.308C674.301 398.174 674.534 397.382 675.477 393.429Z"/><path fill="#86512D" transform="matrix(0.355872 0 0 0.357401 -77.5801 -44.3176)" d="M682.232 424.294L683.018 425.26C683.34 428.945 683.172 432.26 682.181 435.828C681.847 435.387 681.473 434.704 681.178 434.211C681.031 430.972 681.306 427.409 682.232 424.294Z"/><defs><linearGradient id="gradient_3" gradientUnits="userSpaceOnUse" x1="614.71246" y1="328.79257" x2="610.28033" y2="369.77405"><stop offset="0" stop-color="#2E2A23"/><stop offset="1" stop-color="#655D4F"/></linearGradient></defs><path fill="url(#gradient_3)" transform="matrix(0.355872 0 0 0.357401 -77.5801 -44.3176)" d="M597.46 327.077C600.922 326.849 620.353 327.111 623.462 327.775C626.712 328.012 635.187 328.211 638.445 327.963C637.099 329.581 635.99 353.542 635.96 357.442C635.93 361.542 636.625 369.84 630.501 369.773C619.419 370.495 608.496 369.893 597.424 369.401L595.108 368.773L594.296 368.58C591.116 365.666 592.436 350.373 592.527 345.598C592.592 342.406 592.601 339.214 592.553 336.022C594.276 335.667 593.651 336.119 594.725 335.021C594.818 333.705 594.557 332.344 594.378 331.026L594.547 327.806C593.383 328.059 593.168 328.064 592.046 327.661L592.426 326.895L597.46 327.077Z"/><path fill="#362C23" transform="matrix(0.355872 0 0 0.357401 -77.5801 -44.3176)" d="M597.46 327.077C600.922 326.849 620.353 327.111 623.462 327.775C626.712 328.012 635.187 328.211 638.445 327.963C637.099 329.581 635.99 353.542 635.96 357.442C635.93 361.542 636.625 369.84 630.501 369.773C631.796 364.774 632.537 335.239 630.753 331.246C628.889 330.375 628.833 330.777 626.408 331.027C624.996 333.472 626.617 335.7 624.396 338.462C621.105 340.369 612.228 339.691 608.049 339.706C603.064 338.75 604.264 334.875 604.298 330.399C600.265 331.477 598.385 330.85 594.378 331.026L594.547 327.806C593.383 328.059 593.168 328.064 592.046 327.661L592.426 326.895L597.46 327.077Z"/><path fill="#532518" transform="matrix(0.355872 0 0 0.357401 -77.5801 -44.3176)" d="M597.46 327.077C600.922 326.849 620.353 327.111 623.462 327.775C623.403 332.662 623.424 333.722 622.288 338.524C616.823 338.818 612.602 338.978 607.07 338.554C605.094 337.283 606.018 329.962 606.126 327.469C603.084 327.41 600.496 327.309 597.46 327.077Z"/><defs><linearGradient id="gradient_4" gradientUnits="userSpaceOnUse" x1="600.75897" y1="347.31216" x2="586.96118" y2="355.55627"><stop offset="0" stop-color="#41352D"/><stop offset="1" stop-color="#7F6A52"/></linearGradient></defs><path fill="url(#gradient_4)" transform="matrix(0.355872 0 0 0.357401 -77.5801 -44.3176)" d="M594.725 335.021C595.424 337.976 595.578 365.803 594.296 368.58C591.116 365.666 592.436 350.373 592.527 345.598C592.592 342.406 592.601 339.214 592.553 336.022C594.276 335.667 593.651 336.119 594.725 335.021Z"/><path fill="#5C5347" transform="matrix(0.355872 0 0 0.357401 -77.5801 -44.3176)" d="M609.104 347.631C611.826 347.457 612.564 348.107 614.16 348.084C617.506 346.741 619.28 350.222 620.89 352.631L621.368 358.252C619.638 361.935 618.901 362.988 614.942 364.442C612.913 365.187 608.694 364.986 607.995 362.531C607.306 361.511 605.995 360.847 604.737 359.644C600.656 354.513 603.872 350.016 609.104 347.631Z"/><path fill="#362C23" transform="matrix(0.355872 0 0 0.357401 -77.5801 -44.3176)" d="M614.16 348.084C617.506 346.741 619.28 350.222 620.89 352.631L621.368 358.252C619.638 361.935 618.901 362.988 614.942 364.442C612.913 365.187 608.694 364.986 607.995 362.531C618.038 363.155 621.348 354.639 614.16 348.084Z"/><path fill="#73624D" transform="matrix(0.355872 0 0 0.357401 -77.5801 -44.3176)" d="M609.104 347.631C610.071 351.104 606.384 352.652 605.217 354.996C605.046 355.339 605.333 358.065 604.737 359.644C600.656 354.513 603.872 350.016 609.104 347.631Z"/><path fill="#362C23" transform="matrix(0.355872 0 0 0.357401 -77.5801 -44.3176)" d="M720.048 264.558C722.3 267.76 724.51 265.158 727.899 267.145C729.502 269.895 727.715 271.758 728.573 274.401C730.201 274.588 730.814 274.619 732.413 275.138C734.985 278.49 733.781 288.343 730.895 291.619L728.394 291.672C727.844 300.722 728.217 309.617 728.007 318.634C727.838 325.903 729.417 336.662 723.545 341.844C720.785 341.889 717.106 341.597 714.493 340.795C718.099 330.672 716.563 284.656 716.488 271.382C716.916 270.861 717.532 270.408 718.067 269.955C719.175 267.961 720.096 266.811 720.048 264.558Z"/><defs><linearGradient id="gradient_5" gradientUnits="userSpaceOnUse" x1="717.89429" y1="302.5224" x2="731.7804" y2="302.96716"><stop offset="0" stop-color="#56483C"/><stop offset="1" stop-color="#424342"/></linearGradient></defs><path fill="url(#gradient_5)" transform="matrix(0.355872 0 0 0.357401 -77.5801 -44.3176)" d="M720.048 264.558C722.3 267.76 724.51 265.158 727.899 267.145C729.502 269.895 727.715 271.758 728.573 274.401C730.201 274.588 730.814 274.619 732.413 275.138C734.985 278.49 733.781 288.343 730.895 291.619L728.394 291.672C727.844 300.722 728.217 309.617 728.007 318.634C727.838 325.903 729.417 336.662 723.545 341.844C723.242 336.412 723.866 327.492 723.969 321.637C724.411 304.804 724.629 287.965 724.622 271.126C721.51 271.014 721.022 270.934 718.067 269.955C719.175 267.961 720.096 266.811 720.048 264.558Z"/><path fill="#362C23" transform="matrix(0.355872 0 0 0.357401 -77.5801 -44.3176)" d="M728.394 291.672C727.593 291.286 727.113 291.346 726.805 290.489C725.924 288.037 725.587 277.691 728.131 276.7C729.833 278.325 730.316 288.502 730.895 291.619L728.394 291.672Z"/><path fill="#68391E" transform="matrix(0.355872 0 0 0.357401 -77.5801 -44.3176)" d="M713.612 370.556C715.656 371.403 718.225 371.54 720.459 372.095C720.23 386.379 722.803 397.963 714.579 410.012L714.456 417.147C713 411.693 711.972 414.205 711.193 413.07C708.841 409.647 710.608 390.128 710.619 386.627C708.924 383.977 706.206 385.217 702.567 383.917L702.265 383.203C703.384 381.258 711.967 371.594 713.612 370.556Z"/><path fill="#68391E" transform="matrix(0.355872 0 0 0.357401 -77.5801 -44.3176)" d="M597.424 369.401C602.479 375.891 626.841 373.717 634.93 372.481C637.631 372.068 637.102 367.596 637.649 367.437C643.239 365.816 638.414 361.221 640.675 357.098C641.091 357.732 641.556 363.448 641.687 364.599C642.801 365.658 643.198 365.3 645.2 365.43C642.014 366.072 641.318 365.711 640.675 369.531C640.061 373.181 640.647 373.019 637.473 374.527L637.084 374.489L636.556 373.799L635.258 374.108C634.738 375.128 634.833 374.792 634.605 375.909C630.038 376.524 605.415 373.474 603.614 374.094C604.41 375.371 604.721 375.64 605.729 376.725C603.498 376.896 597.812 372.546 595.639 371.052C595.008 369.981 595.083 370.033 595.108 368.773L597.424 369.401Z"/><path fill="#945E35" transform="matrix(0.355872 0 0 0.357401 -77.5801 -44.3176)" d="M675.491 356.324C676.498 351.236 673.229 330.956 675.845 328.975L676.572 329.439C678.334 332.063 677.076 339.061 676.823 342.444C676.458 347.051 676.345 351.674 676.485 356.294C676.437 361.153 676.249 366.892 676.363 371.696C675.007 373.66 676.763 390.324 675.477 393.429L670.878 393.498C651.668 393.876 626.502 392.415 607 391.829L495.879 388.667L455.445 387.348C448.872 387.164 440.093 386.727 433.645 387.069C429.346 386.496 422.075 386.5 417.732 386.559C405.842 386.143 297.453 384.166 294.938 382.251L294.616 380.046C291.074 376.997 291.956 369.353 291.934 364.797C296.913 365.664 300.835 365.109 305.547 365.807C303.621 365.872 296.532 365.772 295.561 366.643L294.684 366.424L295.163 366.236L294.808 366.548C300.429 367.452 307.98 366.821 313.887 367.033C320.309 367.263 326.647 367.624 333.056 368.131C357.594 370.072 382.565 373.293 407.196 373.946C435.077 374.686 463.867 373.315 491.718 374.05C514.501 374.651 538.194 377.018 561.051 377.941C572.734 378.413 584.081 378.169 595.755 378.311C600.043 378.363 604.81 379.193 609.114 379.193C617.925 379.192 626.752 379.323 635.557 379.375C647.614 379.445 661.637 380.59 673.511 380.444C673.713 381.166 673.855 381.728 674.033 382.472L674.431 382.78C674.621 381.66 674.508 380.136 674.485 378.955C674.918 374.684 675.048 370.208 675.242 365.905C675.922 364.24 675.558 358.381 675.491 356.324Z"/><defs><linearGradient id="gradient_6" gradientUnits="userSpaceOnUse" x1="489.08188" y1="320.52441" x2="485.48364" y2="391.50424"><stop offset="0" stop-color="#3E2412"/><stop offset="1" stop-color="#5E3015"/></linearGradient></defs><path fill="url(#gradient_6)" transform="matrix(0.355872 0 0 0.357401 -77.5801 -44.3176)" d="M675.491 356.324C676.498 351.236 673.229 330.956 675.845 328.975L676.572 329.439C678.334 332.063 677.076 339.061 676.823 342.444C676.458 347.051 676.345 351.674 676.485 356.294C676.437 361.153 676.249 366.892 676.363 371.696C675.007 373.66 676.763 390.324 675.477 393.429L670.878 393.498C651.668 393.876 626.502 392.415 607 391.829L495.879 388.667L455.445 387.348C448.872 387.164 440.093 386.727 433.645 387.069C429.346 386.496 422.075 386.5 417.732 386.559C405.842 386.143 297.453 384.166 294.938 382.251L294.616 380.046C297.361 378.923 353.901 381.271 361.337 381.492L560.06 386.814L633.931 388.746C646.057 389.024 658.499 389.356 670.647 389.34C672.867 389.337 673.487 388.912 674.487 387.309C674.57 385.48 674.569 384.602 674.431 382.78C674.621 381.66 674.508 380.136 674.485 378.955C674.918 374.684 675.048 370.208 675.242 365.905C675.922 364.24 675.558 358.381 675.491 356.324Z"/><path fill="#5B311A" transform="matrix(0.355872 0 0 0.357401 -77.5801 -44.3176)" d="M291.022 321.566C309.636 321.104 328.838 322.329 347.482 322.439C353.043 322.472 360.211 322.314 365.641 322.883L449.544 324.086C460.368 323.352 591.803 326.531 592.426 326.895L592.046 327.661C593.168 328.064 593.383 328.059 594.547 327.806L594.378 331.026C594.557 332.344 594.818 333.705 594.725 335.021C593.651 336.119 594.276 335.667 592.553 336.022C592.601 339.214 592.592 342.406 592.527 345.598C575.172 345.758 557.833 344.5 540.682 341.838C522.968 339.088 511.168 335.345 492.676 335.426C492.945 335.304 493.215 335.182 493.484 335.059L493.049 334.558C479.948 335.511 466.9 334.267 454.024 335.153C437.305 336.302 420.666 338.679 403.84 339.315C379.862 340.221 355.963 339.293 331.987 338.925C318.762 338.723 305.46 339.613 292.226 339.245C292.055 336.916 292.295 334.379 291.718 332.167L291.189 332.411C291.22 328.865 291.09 325.129 291.022 321.566Z"/><path fill="#532518" transform="matrix(0.355872 0 0 0.357401 -77.5801 -44.3176)" d="M365.641 322.883L449.544 324.086C445.789 325.042 438.011 324.353 433.809 324.623C412.486 325.994 391.017 324.823 369.667 324.548C366.783 324.511 364.042 324.66 361.138 324.49C358.832 322.92 354.662 324.348 350.657 323.369L350.761 322.927C355.721 322.973 360.681 322.958 365.641 322.883Z"/><path fill="#362C23" transform="matrix(0.355872 0 0 0.357401 -77.5801 -44.3176)" d="M592.046 327.661C593.168 328.064 593.383 328.059 594.547 327.806L594.378 331.026C594.557 332.344 594.818 333.705 594.725 335.021C593.651 336.119 594.276 335.667 592.553 336.022C592.495 333.188 592.55 330.443 592.046 327.661Z"/><path fill="#86512D" transform="matrix(0.355872 0 0 0.357401 -77.5801 -44.3176)" d="M674.485 378.955C673.934 378.841 674.187 378.939 673.722 378.67L673.639 378.08C670.821 378.751 668.992 378.515 666.174 378.313C667.593 378.3 667.549 378.288 668.909 377.858L668.669 377.382C665.113 377.135 661.109 378.265 657.788 377.909C654.492 377.556 641.11 378.048 639.298 376.434C639.906 375.874 643.002 373.141 643.138 372.478C643.503 370.704 643.217 367.783 645.221 367.101C649.824 365.534 655.438 366.129 660.145 366.04C665.22 365.945 670.308 365.633 675.242 365.905C675.048 370.208 674.918 374.684 674.485 378.955Z"/><path fill="#5C5347" transform="matrix(0.355872 0 0 0.357401 -77.5801 -44.3176)" d="M310.272 347.38C312.366 346.416 314.331 345.997 316.601 345.823L317.743 346.165C319.669 347.206 321.486 348.605 322.232 350.765C322.844 352.513 322.663 354.441 321.736 356.044C319.028 360.692 313.692 359.086 310.602 355.758C308.432 353.61 309.286 349.908 310.272 347.38Z"/><path fill="#553F30" transform="matrix(0.355872 0 0 0.357401 -77.5801 -44.3176)" d="M317.743 346.165C319.669 347.206 321.486 348.605 322.232 350.765C322.844 352.513 322.663 354.441 321.736 356.044C319.028 360.692 313.692 359.086 310.602 355.758C313.58 356.048 313.366 356.906 316.343 356.343C319.114 353.902 319.529 352.995 319.073 349.36C318.886 349.053 317.943 346.652 317.743 346.165Z"/><path fill="#73624D" transform="matrix(0.355872 0 0 0.357401 -77.5801 -44.3176)" d="M310.272 347.38L312.917 349.123L312.462 353.505C315.48 353.574 315.331 353.23 316.343 356.343C313.366 356.906 313.58 356.048 310.602 355.758C308.432 353.61 309.286 349.908 310.272 347.38Z"/><path fill="#665434" transform="matrix(0.355872 0 0 0.357401 -77.5801 -44.3176)" d="M312.462 353.505C318.827 351.816 314.276 351.141 319.073 349.36C319.529 352.995 319.114 353.902 316.343 356.343C315.331 353.23 315.48 353.574 312.462 353.505Z"/><path fill="#665434" transform="matrix(0.355872 0 0 0.357401 -77.5801 -44.3176)" d="M310.272 347.38C312.366 346.416 314.331 345.997 316.601 345.823C315.682 348.709 316.224 348.997 312.917 349.123L310.272 347.38Z"/><path fill="#B17D4B" transform="matrix(0.355872 0 0 0.357401 -77.5801 -44.3176)" d="M544.606 144.351C546.1 143.198 547.015 142.558 548.96 142.432C557.368 141.886 566.567 142.159 575.015 142.145L628.297 142.018C627.403 143.73 627.303 144.832 625.615 145.183C620.764 146.191 614.765 143.438 610.463 145.495C609.925 146.554 609.879 146.497 609.825 147.666C610.626 155.676 609.411 170.541 609.552 179.421C609.974 206.147 609.853 232.793 609.377 259.519L608.061 259.737C605.531 259.327 597.688 259.517 594.541 259.507L570.891 259.208C551.395 258.92 531.953 257.473 512.379 257.801C486.922 258.226 461.492 257.795 436.033 257.405C406.723 257.139 377.416 256.594 348.117 255.772L306.625 254.803C298.123 254.66 288.264 254.805 279.923 254.193L277.395 254.104C277.588 249.132 279.346 241.65 280.39 236.63C282.118 228.243 283.89 219.866 285.708 211.498L286.102 209.485L286.256 208.727L286.279 207.718C285.697 207.501 284.95 207.133 284.369 206.869C282.436 203.686 283.193 197.064 282.915 192.728C291.69 185.029 305.227 183.649 316.325 184.449C319.492 183.026 320.412 182.887 323.781 182.22C325.787 182.991 327.369 183.413 328.989 184.818C349.831 185.416 374.808 184.646 395.958 184.504L548.54 183.529C550.646 178.795 553.053 173.742 554.612 168.837C552.977 166.139 543.893 146.607 544.606 144.351Z"/><path fill="#945E35" transform="matrix(0.355872 0 0 0.357401 -77.5801 -44.3176)" d="M544.606 144.351C546.1 143.198 547.015 142.558 548.96 142.432C557.368 141.886 566.567 142.159 575.015 142.145L628.297 142.018C627.403 143.73 627.303 144.832 625.615 145.183C620.764 146.191 614.765 143.438 610.463 145.495C609.925 146.554 609.879 146.497 609.825 147.666C609.348 146.148 609.255 146.217 608.159 145.013C605.963 144.205 603.814 144.669 601.415 144.885C602.757 144.904 604.268 145.014 605.555 144.726L607.701 145.237C608.208 147.569 607.888 158.489 607.876 161.55C607.908 174.935 607.799 188.32 607.549 201.702C607.582 203.138 607.577 204.816 607.697 206.222L607.521 208.367C599.346 208.789 590.058 208.632 581.794 208.667L520.858 208.705C524.49 209.045 543.041 210.071 544.879 211.393C543.022 212.881 542.047 212.312 539.993 212.1C529.56 211.02 518.692 212.674 508.163 212.366C505.772 212.295 503.148 212.726 501.069 212.408L500 212.92C498.779 214.327 499.133 213.893 497.076 214.537L496.515 214.774C483.875 216.558 464.972 214.603 451.86 214.921C446.511 215.051 449.106 213.471 440.891 215.09L440.904 215.385C442.843 215.817 443.331 215.892 445.309 216.03C440.416 217.657 428.622 214.522 423.358 215.783L422.995 214.038C417.584 214.678 406.12 212.215 402.087 215.282C400.111 216.131 396.853 216.129 394.927 215.087C394.01 214.522 393.625 214.336 392.638 213.896C391.182 214.356 391.805 213.931 390.906 215.471L390.07 215.392C383.978 210.496 385.035 216.003 378.542 214.355C372.778 212.892 369.615 213.987 363.733 214.591C362.813 213.636 363.215 214.129 362.515 213.117C358.954 213.974 352.664 215.76 349.785 213.171L348.735 213.984C344.857 213.373 342.854 214.918 339.517 213.152L342.73 210.893C340.112 210.655 338.848 210.673 336.41 209.55C325.488 209.443 314.565 209.435 303.643 209.525C299.25 209.588 289.625 210.681 286.256 208.727L286.279 207.718C285.697 207.501 284.95 207.133 284.369 206.869C282.436 203.686 283.193 197.064 282.915 192.728C291.69 185.029 305.227 183.649 316.325 184.449C319.492 183.026 320.412 182.887 323.781 182.22C325.787 182.991 327.369 183.413 328.989 184.818C349.831 185.416 374.808 184.646 395.958 184.504L548.54 183.529C550.646 178.795 553.053 173.742 554.612 168.837C552.977 166.139 543.893 146.607 544.606 144.351Z"/><path fill="#B24C3A" transform="matrix(0.355872 0 0 0.357401 -77.5801 -44.3176)" d="M544.606 144.351C546.1 143.198 547.015 142.558 548.96 142.432C557.368 141.886 566.567 142.159 575.015 142.145L628.297 142.018C627.403 143.73 627.303 144.832 625.615 145.183C620.764 146.191 614.765 143.438 610.463 145.495C609.925 146.554 609.879 146.497 609.825 147.666C609.348 146.148 609.255 146.217 608.159 145.013C605.963 144.205 603.814 144.669 601.415 144.885C602.757 144.904 604.268 145.014 605.555 144.726L607.701 145.237C608.208 147.569 607.888 158.489 607.876 161.55C607.908 174.935 607.799 188.32 607.549 201.702C597.179 199.777 590.77 201.207 581.474 200.055C569.387 200.007 556.799 199.897 544.68 199.369C542.986 199.295 542.766 198.891 541.989 197.889L543.177 197.375C545.479 194.413 555.584 175.295 556.107 170.902C556.216 169.979 555.529 169.731 554.612 168.837C552.977 166.139 543.893 146.607 544.606 144.351Z"/><path fill="#A43F30" transform="matrix(0.355872 0 0 0.357401 -77.5801 -44.3176)" d="M605.555 144.726L607.701 145.237C608.208 147.569 607.888 158.489 607.876 161.55C607.908 174.935 607.799 188.32 607.549 201.702C597.179 199.777 590.77 201.207 581.474 200.055C584.821 199.733 597.81 200.237 601.632 199.692C604.189 199.328 602.402 192.276 602.886 188.755C603.868 181.609 603.094 149.029 605.555 144.726Z"/><path fill="#DC9284" transform="matrix(0.355872 0 0 0.357401 -77.5801 -44.3176)" d="M544.606 144.351C546.1 143.198 547.015 142.558 548.96 142.432C557.368 141.886 566.567 142.159 575.015 142.145L628.297 142.018C627.403 143.73 627.303 144.832 625.615 145.183C620.764 146.191 614.765 143.438 610.463 145.495C609.925 146.554 609.879 146.497 609.825 147.666C609.348 146.148 609.255 146.217 608.159 145.013C605.963 144.205 603.814 144.669 601.415 144.885C594.332 144.912 547.658 145.643 544.606 144.351Z"/><path fill="#CC9D6B" transform="matrix(0.355872 0 0 0.357401 -77.5801 -44.3176)" d="M554.612 168.837C555.529 169.731 556.216 169.979 556.107 170.902C555.584 175.295 545.479 194.413 543.177 197.375L541.989 197.889C541.968 196.001 542.788 193.969 543.376 192.131C533.739 193.022 516.46 192.436 506.306 192.553C498.136 192.648 480.243 193.103 472.894 192.379L474.744 190.071C472.496 190.088 471.82 190.492 469.651 191.287C468.495 192.203 467.703 192.917 466.42 193.656C464.728 193.553 463.316 193.413 461.634 193.212L461.3 192.596L462.434 191.951L461.682 191.373L460.995 191.586C453.849 193.752 444.692 193 437.097 193.065L407.083 193.468C376.507 193.79 345.927 193.65 315.355 193.046C310.135 192.955 286.461 193.418 282.915 192.728C291.69 185.029 305.227 183.649 316.325 184.449C319.492 183.026 320.412 182.887 323.781 182.22C325.787 182.991 327.369 183.413 328.989 184.818C349.831 185.416 374.808 184.646 395.958 184.504L548.54 183.529C550.646 178.795 553.053 173.742 554.612 168.837Z"/><path fill="#CFA471" transform="matrix(0.355872 0 0 0.357401 -77.5801 -44.3176)" d="M474.744 190.071C482.256 189.251 539.369 187.18 545 188.829C545.006 190.134 544.158 191.003 543.376 192.131C533.739 193.022 516.46 192.436 506.306 192.553C498.136 192.648 480.243 193.103 472.894 192.379L474.744 190.071Z"/><path fill="#553F30" transform="matrix(0.355872 0 0 0.357401 -77.5801 -44.3176)" d="M323.781 182.22C325.787 182.991 327.369 183.413 328.989 184.818C329.707 187.216 329.943 186.607 329.073 188.246C325.799 190.561 320.337 190.533 317.168 188.142C316.363 186.688 316.564 187.451 316.58 185.759L316.325 184.449C319.492 183.026 320.412 182.887 323.781 182.22Z"/><path fill="#A89F91" transform="matrix(0.355872 0 0 0.357401 -77.5801 -44.3176)" d="M323.781 182.22C325.787 182.991 327.369 183.413 328.989 184.818C323.804 186.539 322.064 187.127 316.58 185.759L316.325 184.449C319.492 183.026 320.412 182.887 323.781 182.22Z"/><path fill="#CFA471" transform="matrix(0.355872 0 0 0.357401 -77.5801 -44.3176)" d="M462.434 191.951C462.622 191.867 462.809 191.783 462.997 191.699L463.829 191.345C466.327 190.262 467.13 189.926 469.651 191.287C468.495 192.203 467.703 192.917 466.42 193.656C464.728 193.553 463.316 193.413 461.634 193.212L461.3 192.596L462.434 191.951Z"/><path fill="#86512D" transform="matrix(0.355872 0 0 0.357401 -77.5801 -44.3176)" d="M336.41 209.55C357.644 208.864 379.77 209.291 401.094 209.346C440.791 209.448 481.216 208.398 520.858 208.705C524.49 209.045 543.041 210.071 544.879 211.393C543.022 212.881 542.047 212.312 539.993 212.1C529.56 211.02 518.692 212.674 508.163 212.366C505.772 212.295 503.148 212.726 501.069 212.408L500 212.92C498.779 214.327 499.133 213.893 497.076 214.537L496.515 214.774C483.875 216.558 464.972 214.603 451.86 214.921C446.511 215.051 449.106 213.471 440.891 215.09L440.904 215.385C442.843 215.817 443.331 215.892 445.309 216.03C440.416 217.657 428.622 214.522 423.358 215.783L422.995 214.038C417.584 214.678 406.12 212.215 402.087 215.282C400.111 216.131 396.853 216.129 394.927 215.087C394.01 214.522 393.625 214.336 392.638 213.896C391.182 214.356 391.805 213.931 390.906 215.471L390.07 215.392C383.978 210.496 385.035 216.003 378.542 214.355C372.778 212.892 369.615 213.987 363.733 214.591C362.813 213.636 363.215 214.129 362.515 213.117C358.954 213.974 352.664 215.76 349.785 213.171L348.735 213.984C344.857 213.373 342.854 214.918 339.517 213.152L342.73 210.893C340.112 210.655 338.848 210.673 336.41 209.55Z"/><path fill="#945E35" transform="matrix(0.355872 0 0 0.357401 -77.5801 -44.3176)" d="M353.557 211.983C354.383 211.916 354.808 212.046 355.416 212.042C380.975 211.894 406.594 212.204 432.168 211.193C433.159 211.154 434.964 212.125 435.779 212.64C441.134 211.692 436.86 210.525 444.333 212.152C449.051 213.179 453.813 208.992 459.515 212.143C462.469 211.929 463.587 209.555 466.344 211.393C467.656 212.267 469.284 212.272 470.73 212.131C475.036 212.186 497.831 211.534 500 212.92C498.779 214.327 499.133 213.893 497.076 214.537L496.515 214.774C483.875 216.558 464.972 214.603 451.86 214.921C446.511 215.051 449.106 213.471 440.891 215.09L440.904 215.385C442.843 215.817 443.331 215.892 445.309 216.03C440.416 217.657 428.622 214.522 423.358 215.783L422.995 214.038C417.584 214.678 406.12 212.215 402.087 215.282C400.111 216.131 396.853 216.129 394.927 215.087C394.01 214.522 393.625 214.336 392.638 213.896C391.182 214.356 391.805 213.931 390.906 215.471L390.07 215.392C383.978 210.496 385.035 216.003 378.542 214.355C372.778 212.892 369.615 213.987 363.733 214.591C362.813 213.636 363.215 214.129 362.515 213.117C358.954 213.974 352.664 215.76 349.785 213.171C351.535 212.794 351.936 212.617 353.557 211.983Z"/><path fill="#A26D3F" transform="matrix(0.355872 0 0 0.357401 -77.5801 -44.3176)" d="M422.995 214.038C425.486 213.398 495.056 214.224 496.515 214.774C483.875 216.558 464.972 214.603 451.86 214.921C446.511 215.051 449.106 213.471 440.891 215.09L440.904 215.385C442.843 215.817 443.331 215.892 445.309 216.03C440.416 217.657 428.622 214.522 423.358 215.783L422.995 214.038Z"/><path fill="#A26D3F" transform="matrix(0.355872 0 0 0.357401 -77.5801 -44.3176)" d="M394.927 215.087L396.054 213.976C398.103 214.226 398.707 213.911 400.662 213.657C401.196 214.237 401.602 214.658 402.087 215.282C400.111 216.131 396.853 216.129 394.927 215.087Z"/><path fill="#945E35" transform="matrix(0.355872 0 0 0.357401 -77.5801 -44.3176)" d="M342.73 210.893C344.685 210.968 351.927 211.65 353.557 211.983C351.936 212.617 351.535 212.794 349.785 213.171L348.735 213.984C344.857 213.373 342.854 214.918 339.517 213.152L342.73 210.893Z"/><path fill="#5B311A" transform="matrix(0.355872 0 0 0.357401 -77.5801 -44.3176)" d="M474.661 206.596L558.465 206.188C572.004 206.078 594.938 205.245 607.697 206.222L607.521 208.367C599.346 208.789 590.058 208.632 581.794 208.667L520.858 208.705C481.216 208.398 440.791 209.448 401.094 209.346C379.77 209.291 357.644 208.864 336.41 209.55C325.488 209.443 314.565 209.435 303.643 209.525C299.25 209.588 289.625 210.681 286.256 208.727L286.279 207.718C288.685 206.543 420.719 207.112 436.164 206.92C442.835 207.574 468.374 207.504 474.661 206.596Z"/><path fill="#86512D" transform="matrix(0.355872 0 0 0.357401 -77.5801 -44.3176)" d="M436.164 206.92C437.048 205.917 449.847 206.091 452.368 206.034L446.671 205.858C450.482 204.952 471.028 204.892 474.661 206.596C468.374 207.504 442.835 207.574 436.164 206.92Z"/><path fill="#86512D" transform="matrix(0.355872 0 0 0.357401 -77.5801 -44.3176)" d="M469.651 191.287C471.82 190.492 472.496 190.088 474.744 190.071L472.894 192.379C471.167 193.618 468.743 196.163 467.36 196.333C466.47 195.168 466.697 195.263 466.42 193.656C467.703 192.917 468.495 192.203 469.651 191.287Z"/><defs><linearGradient id="gradient_7" gradientUnits="userSpaceOnUse" x1="450.26749" y1="247.65337" x2="441.49875" y2="191.11552"><stop offset="0" stop-color="#965C2B"/><stop offset="1" stop-color="#AA784A"/></linearGradient></defs><path fill="url(#gradient_7)" transform="matrix(0.355872 0 0 0.357401 -77.5801 -44.3176)" d="M286.256 208.727C289.625 210.681 299.25 209.588 303.643 209.525C314.565 209.435 325.488 209.443 336.41 209.55C338.848 210.673 340.112 210.655 342.73 210.893L339.517 213.152C342.854 214.918 344.857 213.373 348.735 213.984L349.785 213.171C352.664 215.76 358.954 213.974 362.515 213.117C363.215 214.129 362.813 213.636 363.733 214.591C369.615 213.987 372.778 212.892 378.542 214.355C385.035 216.003 383.978 210.496 390.07 215.392L390.906 215.471C391.805 213.931 391.182 214.356 392.638 213.896C393.625 214.336 394.01 214.522 394.927 215.087C396.853 216.129 400.111 216.131 402.087 215.282C406.12 212.215 417.584 214.678 422.995 214.038L423.358 215.783C428.622 214.522 440.416 217.657 445.309 216.03C446.571 215.847 446.903 215.961 448.158 216.073C477.961 218.741 508.055 221.918 537.996 222.442C552.599 222.705 567.205 222.823 581.812 222.798C586.488 222.799 603.053 222.627 606.881 223.293C604.095 225.466 589.949 224.762 585.539 224.672C558.133 224.116 530.305 225.112 502.989 222.75C469.825 219.882 437.168 218.033 403.856 218.066C382.944 218.268 362.04 218.951 341.159 220.114C325.861 220.987 301.042 222.586 285.972 221.879C286.019 220.237 287.018 216.375 287.263 214.183C286.679 212.084 287.217 212.924 285.708 211.498L286.102 209.485L286.256 208.727Z"/><path fill="#86512D" transform="matrix(0.355872 0 0 0.357401 -77.5801 -44.3176)" d="M286.256 208.727C289.625 210.681 299.25 209.588 303.643 209.525C314.565 209.435 325.488 209.443 336.41 209.55C338.848 210.673 340.112 210.655 342.73 210.893L339.517 213.152L338.99 212.842L338.408 211.956C334.75 212.911 331.071 209.112 325.011 212.27L323.737 213.668L322.574 213.005C318.503 215.671 306.488 213.319 299.959 214.806C296.9 215.851 290.352 215.197 287.263 214.183C286.679 212.084 287.217 212.924 285.708 211.498L286.102 209.485L286.256 208.727Z"/><path fill="#945E35" transform="matrix(0.355872 0 0 0.357401 -77.5801 -44.3176)" d="M286.102 209.485C286.497 209.993 286.828 210.333 287.101 210.898C294.999 214.315 319.298 209.372 322.574 213.005C318.503 215.671 306.488 213.319 299.959 214.806C296.9 215.851 290.352 215.197 287.263 214.183C286.679 212.084 287.217 212.924 285.708 211.498L286.102 209.485Z"/><path fill="#A26D3F" transform="matrix(0.355872 0 0 0.357401 -77.5801 -44.3176)" d="M286.102 209.485C286.497 209.993 286.828 210.333 287.101 210.898C289.144 217.715 295.655 210.268 299.959 214.806C296.9 215.851 290.352 215.197 287.263 214.183C286.679 212.084 287.217 212.924 285.708 211.498L286.102 209.485Z"/><path fill="#945E35" transform="matrix(0.355872 0 0 0.357401 -77.5801 -44.3176)" d="M325.011 212.27C331.071 209.112 334.75 212.911 338.408 211.956L338.99 212.842C338.341 213.043 338.7 212.906 337.828 213.372L337.093 213.771C333.917 213.581 328.63 214.207 325.722 213.763L325.011 212.27Z"/><path fill="#945E35" transform="matrix(0.355872 0 0 0.357401 -77.5801 -44.3176)" d="M581.794 208.667C590.058 208.632 599.346 208.789 607.521 208.367L607.438 213.262C603.682 215.224 589.309 213.852 584.463 213.876L519.55 214.366C512.244 214.472 504.29 214.2 497.076 214.537C499.133 213.893 498.779 214.327 500 212.92L501.069 212.408C503.148 212.726 505.772 212.295 508.163 212.366C518.692 212.674 529.56 211.02 539.993 212.1C542.047 212.312 543.022 212.881 544.879 211.393C543.041 210.071 524.49 209.045 520.858 208.705L581.794 208.667Z"/><path fill="#86512D" transform="matrix(0.355872 0 0 0.357401 -77.5801 -44.3176)" d="M581.794 208.667C590.058 208.632 599.346 208.789 607.521 208.367L607.438 213.262C604.705 212.432 595.542 212.614 591.978 211.632C590.868 211.327 588.172 213.146 587.293 213.208C585.593 213.328 583.545 212.28 581.778 212.136C579.698 211.967 578.801 213.221 577.115 212.085L577.257 211.581C578.353 211.306 579.427 211.048 580.548 210.902L581.794 208.667Z"/><path fill="#BF9161" transform="matrix(0.355872 0 0 0.357401 -77.5801 -44.3176)" d="M285.708 211.498C287.217 212.924 286.679 212.084 287.263 214.183C287.018 216.375 286.019 220.237 285.972 221.879C285.358 231.844 281.622 238.983 280.635 248.247C280.374 250.706 280.885 251.436 279.923 254.193L277.395 254.104C277.588 249.132 279.346 241.65 280.39 236.63C282.118 228.243 283.89 219.866 285.708 211.498Z"/><path fill="#A26D3F" transform="matrix(0.355872 0 0 0.357401 -77.5801 -44.3176)" d="M396.074 224.21C404.709 223.465 463.943 222.407 465.527 232.781C462.057 238.73 440.685 239.005 434.125 239.423C423.763 239.532 366.757 239.974 363.304 231.014C365.565 224.737 389.802 224.505 396.074 224.21Z"/><path fill="#B17D4B" transform="matrix(0.355872 0 0 0.357401 -77.5801 -44.3176)" d="M408.358 225.228C416.893 225.093 457.758 225.761 462.021 232.466L461.277 233.582C454.64 237.423 429.701 237.955 421.192 237.938C414.094 237.839 367.937 236.495 366.726 230.539C370.3 225.879 400.963 225.561 408.358 225.228Z"/><path fill="#945E35" transform="matrix(0.355872 0 0 0.357401 -77.5801 -44.3176)" d="M537.771 239.718C544.994 238.739 603.309 240.598 606.952 243.472L606.847 244.238C604.239 245.195 573.301 242.367 567.703 242.111C545.982 241.13 524.219 241.674 502.574 243.739C489.741 244.885 475.946 246.951 463.252 247.635C437.37 248.817 411.447 248.838 385.562 247.697C374.763 247.155 363.697 246.128 352.855 245.434C345.358 245.443 336.824 244.588 329.068 244.445C319.47 244.299 309.872 244.216 300.273 244.197C296.373 244.213 285.966 244.988 283.167 244.184C285.398 242.87 293.905 243.223 297.001 243.119C345.547 241.49 393.66 248.636 442.306 246.937C474.443 245.814 505.639 240.693 537.771 239.718Z"/><path fill="#9C8643" transform="matrix(0.355872 0 0 0.357401 -77.5801 -44.3176)" d="M306.21 231.567C306.595 226.184 310.002 224.397 315.003 224.928C316.389 225.707 316.352 225.503 317.33 226.65C320.263 229.82 320.126 230.078 320.461 234.473C316.25 237.152 310.85 240.023 307.468 234.211C306.502 233.051 306.703 233.105 306.21 231.567Z"/><path fill="#553F30" transform="matrix(0.355872 0 0 0.357401 -77.5801 -44.3176)" d="M317.33 226.65C320.263 229.82 320.126 230.078 320.461 234.473C316.25 237.152 310.85 240.023 307.468 234.211C312.765 233.909 315.061 236.311 318.044 230.489C317.649 229.004 317.365 228.211 317.33 226.65Z"/><path fill="#BF9161" transform="matrix(0.355872 0 0 0.357401 -77.5801 -44.3176)" d="M306.21 231.567C306.595 226.184 310.002 224.397 315.003 224.928C314.393 227.999 312.317 228.394 310.315 230.251C309.236 231.173 307.601 231.585 306.21 231.567Z"/><path fill="#8A765B" transform="matrix(0.355872 0 0 0.357401 -77.5801 -44.3176)" d="M315.003 224.928C316.389 225.707 316.352 225.503 317.33 226.65C317.365 228.211 317.649 229.004 318.044 230.489C315.085 229.724 315.405 230.127 312.712 231.554C310.982 231.405 311.812 231.691 310.315 230.251C312.317 228.394 314.393 227.999 315.003 224.928Z"/><path fill="#68391E" transform="matrix(0.355872 0 0 0.357401 -77.5801 -44.3176)" d="M628.297 142.018C630.311 144.034 630.147 144.591 630.163 147.6C630.57 151.394 630.386 156.426 630.355 160.332C630.4 166.182 630.728 175.217 630.335 180.805C634.929 180.216 646.774 180.502 651.869 180.46C662.966 180.369 674.757 179.954 685.794 180.165C691.44 179.185 694.569 178.377 700.268 179.891C706.689 180.042 727.938 179.177 732.455 180.39L730.332 182.154C729.471 182.96 725.691 186.616 724.982 187.096L722.074 190.221C721.229 194.556 721.465 200.535 721.563 205.019L720.502 206.739L719.267 207.193C718.604 209.518 718.444 217.695 718.074 220.674C716.339 234.632 715.061 248.404 714.268 262.453C715.972 262.423 718.101 262.155 719.469 262.975C719.768 263.659 719.905 263.833 720.048 264.558C720.096 266.811 719.175 267.961 718.067 269.955C717.532 270.408 716.916 270.861 716.488 271.382C715.063 272.845 714.735 273.141 713.069 274.304L711.13 274.164C709.988 276.058 709.772 285.674 709.281 288.719C707.281 301.219 705.36 313.958 702.812 326.325C702.194 329.323 689.252 328.308 686.382 328.399C670.787 328.896 653.955 326.732 638.445 327.963C635.187 328.211 626.712 328.012 623.462 327.775C620.353 327.111 600.922 326.849 597.46 327.077L592.426 326.895C591.803 326.531 460.368 323.352 449.544 324.086L365.641 322.883C360.211 322.314 353.043 322.472 347.482 322.439C328.838 322.329 309.636 321.104 291.022 321.566C284.9 321.548 275.83 321.752 270.02 321.055C267.67 317.06 267.175 313.06 266.381 308.551C267.689 308.883 268.623 309.159 269.983 309.285C289.931 310.42 310.279 309.534 330.265 310.485C331.249 310.532 332.347 308.966 332.913 308.251C335.247 307.684 335.675 309.47 336.945 311.418C345.956 310.671 355.211 311.231 364.263 311.407L400.219 311.807C408.167 311.874 421.618 312.793 428.443 309.327C431.068 308.049 433.619 306.37 436.113 304.827L437.465 304.287C439.055 303.869 439.932 303.269 440.958 303.867C439.476 306.872 438.983 306.544 438.707 309.928C437.917 312.132 437.752 312.308 438.037 314.55L438.67 315.315C443.228 314.3 442.09 312.375 448.407 312.636L496.563 313.222C508.542 313.437 520.524 313.763 532.5 314.064C536.229 314.158 539.99 312.312 543.729 312.487L543.412 313.563C545.873 315.028 570.888 314.483 576 314.553L640.125 315.627L671.518 316.1C681.669 316.318 690.523 316.79 700.648 316C702.087 311.444 702.589 306.995 703.197 302.291C684.75 301.699 666.855 299.384 648.232 301.081C642.973 301.561 636.422 302.035 631.176 301.997L625.526 304.347C621.874 305.233 611.731 305.673 608.172 303.454C606.524 302.426 605.22 299.385 606.858 297.706L607.398 299.876L608.042 299.934C609.563 296.599 608.794 265.396 609.377 259.519C609.853 232.793 609.974 206.147 609.552 179.421C609.411 170.541 610.626 155.676 609.825 147.666C609.879 146.497 609.925 146.554 610.463 145.495C614.765 143.438 620.764 146.191 625.615 145.183C627.303 144.832 627.403 143.73 628.297 142.018Z"/><path fill="#B24C3A" transform="matrix(0.355872 0 0 0.357401 -77.5801 -44.3176)" d="M628.297 142.018C630.311 144.034 630.147 144.591 630.163 147.6L629.626 148.126L628.9 144.949L628.53 144.937C627.036 148.394 627.695 180.036 627.613 186.4L626.59 275.168C626.539 280.383 626.835 300.662 625.526 304.347C621.874 305.233 611.731 305.673 608.172 303.454C606.524 302.426 605.22 299.385 606.858 297.706L607.398 299.876L608.042 299.934C609.563 296.599 608.794 265.396 609.377 259.519C609.853 232.793 609.974 206.147 609.552 179.421C609.411 170.541 610.626 155.676 609.825 147.666C609.879 146.497 609.925 146.554 610.463 145.495C614.765 143.438 620.764 146.191 625.615 145.183C627.303 144.832 627.403 143.73 628.297 142.018Z"/><path fill="#86512D" transform="matrix(0.355872 0 0 0.357401 -77.5801 -44.3176)" d="M655.728 263.573C658.025 263.561 660.36 263.518 662.653 263.602C669.033 263.609 702.915 263.754 706.915 265.207C708.564 268.033 707.227 274.807 706.768 278.209C705.882 284.597 703.956 295.39 703.507 301.415L703.197 302.291C684.75 301.699 666.855 299.384 648.232 301.081C642.973 301.561 636.422 302.035 631.176 301.997L633.495 300.125C633.112 299.83 633.413 300.022 632.442 299.94L631.52 300.76L631.038 300.499C631.257 298.813 630.453 287.474 630.045 285.876C631.194 285.8 633.012 285.744 633.862 285.037C635.171 283.949 640.473 281.629 641.101 280.287C639.453 279.728 638.598 281.943 635.976 281.995L635.817 281.357C632.299 280.696 633.509 282.104 630.495 282.122C629.737 280.651 630.011 279.197 630.077 277.489C640.462 277.609 648.145 267.544 657.672 264.792C658.148 264.776 659.169 264.634 659.674 264.576C658.366 264.213 657.05 263.878 655.728 263.573Z"/><path fill="#A26D3F" transform="matrix(0.355872 0 0 0.357401 -77.5801 -44.3176)" d="M679.35 278.274C685.395 277.557 689.794 273.31 697.133 275.434C700.081 275.265 702.893 274.847 705.669 275.679C706.914 276.889 706.424 276.151 706.768 278.209C705.882 284.597 703.956 295.39 703.507 301.415L703.197 302.291C684.75 301.699 666.855 299.384 648.232 301.081C642.973 301.561 636.422 302.035 631.176 301.997L633.495 300.125C635.203 299.143 635.121 299.204 636.969 299.138C638.399 298.292 640.385 297.653 641.989 297.066C647.782 288.172 665.932 287.052 674.83 278.219C677.072 278.747 677.161 278.796 679.35 278.274Z"/><path fill="#86512D" transform="matrix(0.355872 0 0 0.357401 -77.5801 -44.3176)" d="M674.83 278.219C677.072 278.747 677.161 278.796 679.35 278.274L679.696 281.975C674.531 280.623 674.686 282.982 672.362 282.929C671.189 285.136 670.908 285.498 670.392 287.883C668.815 288.188 667.217 288.711 665.622 288.616C662.17 288.41 659.118 290.361 655.871 290.794C650.65 293.63 647.607 295.195 641.989 297.066C647.782 288.172 665.932 287.052 674.83 278.219Z"/><path fill="#945E35" transform="matrix(0.355872 0 0 0.357401 -77.5801 -44.3176)" d="M655.871 290.794C658.521 289.471 670.281 283.305 672.362 282.929C671.189 285.136 670.908 285.498 670.392 287.883C668.815 288.188 667.217 288.711 665.622 288.616C662.17 288.41 659.118 290.361 655.871 290.794Z"/><path fill="#945E35" transform="matrix(0.355872 0 0 0.357401 -77.5801 -44.3176)" d="M633.495 300.125C635.203 299.143 635.121 299.204 636.969 299.138L636.636 299.76L635.743 300.076C634.697 300.457 634.581 300.495 633.782 301.31L634.339 301.614C642.229 298.057 694.033 298.576 703.507 301.415L703.197 302.291C684.75 301.699 666.855 299.384 648.232 301.081C642.973 301.561 636.422 302.035 631.176 301.997L633.495 300.125Z"/><path fill="#8A765B" transform="matrix(0.355872 0 0 0.357401 -77.5801 -44.3176)" d="M672.362 282.929C674.686 282.982 674.531 280.623 679.696 281.975L680.981 282.529C683.762 283.843 682.247 284.445 683.895 285.339L682.308 286.307C680.958 292.06 676.54 292.192 671.608 291.042L670.392 287.883C670.908 285.498 671.189 285.136 672.362 282.929Z"/><path fill="#5C5347" transform="matrix(0.355872 0 0 0.357401 -77.5801 -44.3176)" d="M680.981 282.529C683.762 283.843 682.247 284.445 683.895 285.339L682.308 286.307C680.666 286.165 680.562 286.144 678.941 286.367C678.051 287.282 677.834 287.503 676.811 288.253C675.1 288.3 675.826 288.557 674.534 287.541C674.669 285.695 674.412 286.603 675.808 284.889C678.21 283.552 678.385 285.042 680.744 284.254L680.981 282.529Z"/><path fill="#553F30" transform="matrix(0.355872 0 0 0.357401 -77.5801 -44.3176)" d="M682.308 286.307L683.895 285.339C685.124 286.483 685.509 286.732 686.334 288.242C683.265 294.333 676.305 296.521 671.608 291.042C676.54 292.192 680.958 292.06 682.308 286.307Z"/><path fill="#945E35" transform="matrix(0.355872 0 0 0.357401 -77.5801 -44.3176)" d="M679.35 278.274C685.395 277.557 689.794 273.31 697.133 275.434C693.67 275.757 687.449 276.306 684.442 277.987C682.912 280.73 685.978 284.256 686.334 288.242C685.509 286.732 685.124 286.483 683.895 285.339C682.247 284.445 683.762 283.843 680.981 282.529L679.696 281.975L679.35 278.274Z"/><path fill="#5B311A" transform="matrix(0.355872 0 0 0.357401 -77.5801 -44.3176)" d="M634.713 278.063C637.541 278.172 638.471 278.072 641.184 279.022C641.282 278.96 643.533 277.568 643.32 277.603C649.362 276.602 676.76 272.969 680.359 275.402C679.008 277.985 677.33 277.651 674.83 278.219C665.932 287.052 647.782 288.172 641.989 297.066C640.385 297.653 638.399 298.292 636.969 299.138C635.121 299.204 635.203 299.143 633.495 300.125C633.112 299.83 633.413 300.022 632.442 299.94L631.52 300.76L631.038 300.499C631.257 298.813 630.453 287.474 630.045 285.876C631.194 285.8 633.012 285.744 633.862 285.037C635.171 283.949 640.473 281.629 641.101 280.287C639.453 279.728 638.598 281.943 635.976 281.995L635.817 281.357C637.058 280.462 637.519 280.476 637.925 279.305L636.293 279.512L634.713 278.063Z"/><path fill="#945E35" transform="matrix(0.355872 0 0 0.357401 -77.5801 -44.3176)" d="M655.728 263.573C658.025 263.561 660.36 263.518 662.653 263.602C660.931 265.89 661.404 265.806 658.62 265.935C652.907 266.201 644.567 274.172 640.232 277.014C638.113 277.252 636.702 277.291 634.713 278.063L636.293 279.512L637.925 279.305C637.519 280.476 637.058 280.462 635.817 281.357C632.299 280.696 633.509 282.104 630.495 282.122C629.737 280.651 630.011 279.197 630.077 277.489C640.462 277.609 648.145 267.544 657.672 264.792C658.148 264.776 659.169 264.634 659.674 264.576C658.366 264.213 657.05 263.878 655.728 263.573Z"/><path fill="#86512D" transform="matrix(0.355872 0 0 0.357401 -77.5801 -44.3176)" d="M630.355 160.332C630.4 166.182 630.728 175.217 630.335 180.805C634.929 180.216 646.774 180.502 651.869 180.46C662.966 180.369 674.757 179.954 685.794 180.165C691.44 179.185 694.569 178.377 700.268 179.891C706.689 180.042 727.938 179.177 732.455 180.39L730.332 182.154C729.471 182.96 725.691 186.616 724.982 187.096L722.074 190.221C721.229 194.556 721.465 200.535 721.563 205.019C712.08 205.844 698.796 205.504 689.04 205.518L630.011 205.579C630.126 197.633 628.281 166.864 630.355 160.332Z"/><path fill="#BF9161" transform="matrix(0.355872 0 0 0.357401 -77.5801 -44.3176)" d="M685.794 180.165C691.44 179.185 694.569 178.377 700.268 179.891C706.689 180.042 727.938 179.177 732.455 180.39L730.332 182.154C729.471 182.96 725.691 186.616 724.982 187.096L722.074 190.221C713.236 190.959 697.588 190.517 688.344 190.548L630.434 190.949C630.282 187.33 630.23 184.42 630.335 180.805C634.929 180.216 646.774 180.502 651.869 180.46C662.966 180.369 674.757 179.954 685.794 180.165Z"/><path fill="#B17D4B" transform="matrix(0.355872 0 0 0.357401 -77.5801 -44.3176)" d="M700.268 179.891C706.689 180.042 727.938 179.177 732.455 180.39L730.332 182.154C729.471 182.96 725.691 186.616 724.982 187.096C724.615 186.667 724.171 186.128 723.509 186.108C715.937 185.886 706.787 187.102 699.311 185.959C700.26 184.99 700.634 184.369 701.417 183.274L699.503 181.188L700.268 179.891Z"/><path fill="#BF9161" transform="matrix(0.355872 0 0 0.357401 -77.5801 -44.3176)" d="M700.268 179.891C706.689 180.042 727.938 179.177 732.455 180.39L730.332 182.154C723.446 183.783 708.397 181.781 701.417 183.274L699.503 181.188L700.268 179.891Z"/><path fill="#B17D4B" transform="matrix(0.355872 0 0 0.357401 -77.5801 -44.3176)" d="M687.64 182.41C689.301 182.824 691.037 183.228 692.683 183.674C690.703 183.753 689.022 183.497 687.518 184.407L687.359 185.336C679.338 187.534 667.046 185.491 658.43 186.045C656.113 186.193 646.444 186.72 644.632 186.442L644.636 185.732C646.245 184.892 664.419 184.892 668.174 183.669C672.625 182.22 684.549 185.499 687.64 182.41Z"/><path fill="#A89F91" transform="matrix(0.355872 0 0 0.357401 -77.5801 -44.3176)" d="M685.794 180.165C691.44 179.185 694.569 178.377 700.268 179.891L699.503 181.188C697.118 182.666 695.499 183.241 692.683 183.674C691.037 183.228 689.301 182.824 687.64 182.41L685.794 180.165Z"/><path fill="#553F30" transform="matrix(0.355872 0 0 0.357401 -77.5801 -44.3176)" d="M699.503 181.188L701.417 183.274C700.634 184.369 700.26 184.99 699.311 185.959C694.905 186.721 691.625 186.785 687.359 185.336L687.518 184.407C689.022 183.497 690.703 183.753 692.683 183.674C695.499 183.241 697.118 182.666 699.503 181.188Z"/><path fill="#A26D3F" transform="matrix(0.355872 0 0 0.357401 -77.5801 -44.3176)" d="M630.083 265.521C636.607 265.609 642.81 265.665 649.334 265.42C651.376 265.343 656.362 264.711 657.672 264.792C648.145 267.544 640.462 277.609 630.077 277.489C629.924 273.501 629.925 269.508 630.083 265.521Z"/><path fill="#5B311A" transform="matrix(0.355872 0 0 0.357401 -77.5801 -44.3176)" d="M713.069 274.304C711.509 270.416 712.322 266.044 714.268 262.453C715.972 262.423 718.101 262.155 719.469 262.975C719.768 263.659 719.905 263.833 720.048 264.558C720.096 266.811 719.175 267.961 718.067 269.955C717.532 270.408 716.916 270.861 716.488 271.382C715.063 272.845 714.735 273.141 713.069 274.304Z"/><path fill="#B17D4B" transform="matrix(0.355872 0 0 0.357401 -77.5801 -44.3176)" d="M629.832 263.184C638.465 263.237 647.097 263.367 655.728 263.573C657.05 263.878 658.366 264.213 659.674 264.576C659.169 264.634 658.148 264.776 657.672 264.792C656.362 264.711 651.376 265.343 649.334 265.42C642.81 265.665 636.607 265.609 630.083 265.521L629.832 263.184Z"/><path fill="#86512D" transform="matrix(0.355872 0 0 0.357401 -77.5801 -44.3176)" d="M629.832 263.184L630.083 265.521C629.925 269.508 629.924 273.501 630.077 277.489C630.011 279.197 629.737 280.651 630.495 282.122C633.509 282.104 632.299 280.696 635.817 281.357L635.976 281.995C638.598 281.943 639.453 279.728 641.101 280.287C640.473 281.629 635.171 283.949 633.862 285.037C633.012 285.744 631.194 285.8 630.045 285.876C629.238 279.29 627.466 269.278 629.832 263.184Z"/><path fill="#A26D3F" transform="matrix(0.355872 0 0 0.357401 -77.5801 -44.3176)" d="M629.892 212.505C629.911 211.061 629.706 209.858 630.554 208.787C652.597 208.227 676.195 208.89 698.284 209.331C701.661 209.398 710.949 208.922 713.595 209.492C714.14 211.098 714.095 211.033 714.096 212.746C713.979 214.258 713.888 216.388 713.615 217.83L713.218 220.09C712.727 225.304 712.313 231.076 711.441 236.196C711.511 237.394 711.752 238.383 711.314 239.369C710.793 246.199 709.493 252.653 708.754 259.364C702.333 260.023 695.131 260.074 688.639 260.057C669.156 260.005 649.376 260.313 629.919 259.909L629.98 248.527L630.065 246.836C629.616 241.425 629.947 230.202 629.934 224.352L629.802 223.791C630.041 220.532 629.9 215.878 629.892 212.505Z"/><defs><linearGradient id="gradient_8" gradientUnits="userSpaceOnUse" x1="686.72626" y1="272.6644" x2="652.51489" y2="222.48935"><stop offset="0" stop-color="#794729"/><stop offset="1" stop-color="#B67E46"/></linearGradient></defs><path fill="url(#gradient_8)" transform="matrix(0.355872 0 0 0.357401 -77.5801 -44.3176)" d="M685.114 238.826C687.342 239.773 709.111 235.237 711.314 239.369C710.793 246.199 709.493 252.653 708.754 259.364C702.333 260.023 695.131 260.074 688.639 260.057C669.156 260.005 649.376 260.313 629.919 259.909L629.98 248.527L630.065 246.836L630.712 246.772L630.745 237.745C635.976 237.569 640.717 238.995 645.323 237.595C646.81 237.632 654.091 237.993 655.22 237.848C658.939 237.367 681.345 239.388 683.051 238.537L685.114 238.826Z"/><defs><linearGradient id="gradient_9" gradientUnits="userSpaceOnUse" x1="668.67993" y1="245.82811" x2="666.34485" y2="256.06348"><stop offset="0" stop-color="#714421"/><stop offset="1" stop-color="#9C5A33"/></linearGradient></defs><path fill="url(#gradient_9)" transform="matrix(0.355872 0 0 0.357401 -77.5801 -44.3176)" d="M630.065 246.836L630.712 246.772C641.775 247.476 653.026 249.847 664.007 250.572C674.251 251.249 684.614 250.757 694.913 252.469C698.136 253.005 701.46 252.878 704.645 253.906L705.133 254.674C702.78 256.605 685.918 254.813 681.971 254.507C676.056 254.048 667.223 252.007 661.062 251.098C655.527 250.282 633.677 249.798 629.98 248.527L630.065 246.836Z"/><path fill="#A26D3F" transform="matrix(0.355872 0 0 0.357401 -77.5801 -44.3176)" d="M629.892 212.505C629.911 211.061 629.706 209.858 630.554 208.787C652.597 208.227 676.195 208.89 698.284 209.331C701.661 209.398 710.949 208.922 713.595 209.492C714.14 211.098 714.095 211.033 714.096 212.746C713.979 214.258 713.888 216.388 713.615 217.83L713.218 220.09C703.48 220.001 693.991 220.992 684.299 221.682C666.462 222.952 647.816 224.71 629.934 224.352L629.802 223.791C630.041 220.532 629.9 215.878 629.892 212.505Z"/><path fill="#86512D" transform="matrix(0.355872 0 0 0.357401 -77.5801 -44.3176)" d="M629.892 212.505C629.911 211.061 629.706 209.858 630.554 208.787C652.597 208.227 676.195 208.89 698.284 209.331C701.661 209.398 710.949 208.922 713.595 209.492C714.14 211.098 714.095 211.033 714.096 212.746C704.637 212.916 695.741 212.419 686.353 212.232C678.472 212.075 669.901 213.289 661.989 212.812C660.583 212.728 661.327 212.658 659.714 214.026L658.402 212.933C655.362 212.669 632.2 212.13 629.892 212.505Z"/><path fill="#945E35" transform="matrix(0.355872 0 0 0.357401 -77.5801 -44.3176)" d="M629.802 223.791C633.064 222.937 650.815 222.635 655.993 222.264L691.654 219.412C698.735 218.806 706.635 217.798 713.615 217.83L713.218 220.09C703.48 220.001 693.991 220.992 684.299 221.682C666.462 222.952 647.816 224.71 629.934 224.352L629.802 223.791Z"/><path fill="#945E35" transform="matrix(0.355872 0 0 0.357401 -77.5801 -44.3176)" d="M688.812 233.917C688.983 232.143 688.681 231.782 689.643 230.771L691.131 231.37C690.323 236.3 690.644 237.526 685.114 238.826L683.051 238.537C681.345 239.388 658.939 237.367 655.22 237.848C654.091 237.993 646.81 237.632 645.323 237.595C640.763 237.132 635.564 236.932 630.882 236.527L630.392 236.17C642.934 235.323 661.265 237.964 674.368 236.599C677.14 236.31 676.7 236.186 678.576 233.654L680.502 232.463C685.342 234.875 684.819 230.551 687.77 231.11C688.576 232.426 688.508 232.384 688.812 233.917Z"/><path fill="#553F30" transform="matrix(0.355872 0 0 0.357401 -77.5801 -44.3176)" d="M688.812 233.917C688.983 232.143 688.681 231.782 689.643 230.771L691.131 231.37C690.323 236.3 690.644 237.526 685.114 238.826L683.051 238.537C681.348 237.936 681.262 238.004 679.851 236.774L679.934 235.953C683.846 234.741 683.598 236.037 688.812 233.917Z"/><path fill="#86512D" transform="matrix(0.355872 0 0 0.357401 -77.5801 -44.3176)" d="M691.408 229.511C692.609 231.737 692.476 232.439 692.283 234.947L692.954 235.963C699.094 236.639 705.286 236.717 711.441 236.196C711.511 237.394 711.752 238.383 711.314 239.369C709.111 235.237 687.342 239.773 685.114 238.826C690.644 237.526 690.323 236.3 691.131 231.37L691.408 229.511Z"/><path fill="#73624D" transform="matrix(0.355872 0 0 0.357401 -77.5801 -44.3176)" d="M680.502 232.463C681.453 230.498 683.246 228.547 685.363 227.886C686.273 228.399 686.501 228.511 687.479 228.868L688.757 228.067L689.769 227.912L691.408 229.511L691.131 231.37L689.643 230.771C688.681 231.782 688.983 232.143 688.812 233.917C688.508 232.384 688.576 232.426 687.77 231.11C684.819 230.551 685.342 234.875 680.502 232.463Z"/><path fill="#9C8643" transform="matrix(0.355872 0 0 0.357401 -77.5801 -44.3176)" d="M678.576 233.654C677.521 226.822 683.374 224.613 688.757 228.067L687.479 228.868C686.501 228.511 686.273 228.399 685.363 227.886C683.246 228.547 681.453 230.498 680.502 232.463L678.576 233.654Z"/><path fill="#68391E" transform="matrix(0.355872 0 0 0.357401 -77.5801 -44.3176)" d="M279.923 254.193C288.264 254.805 298.123 254.66 306.625 254.803L348.117 255.772C377.416 256.594 406.723 257.139 436.033 257.405C461.492 257.795 486.922 258.226 512.379 257.801C531.953 257.473 551.395 258.92 570.891 259.208L594.541 259.507C597.688 259.517 605.531 259.327 608.061 259.737C607.413 262.049 607.871 261.892 606.35 262.971L603.44 263.156C597.09 262.579 585.639 262.754 578.742 262.63C559.3 262.295 539.855 262.059 520.41 261.921L350.425 259.22L302.361 258.578C297.764 258.558 281.396 258.921 277.673 258.332L277.395 254.104L279.923 254.193Z"/><path fill="#B17D4B" transform="matrix(0.355872 0 0 0.357401 -77.5801 -44.3176)" d="M270.078 300.262C273.928 301.333 305.358 301.998 311.033 302.258C342.105 303.682 373.414 305.256 404.522 306.158C407.423 306.242 428.632 306.119 429.339 306.403C429.54 307.878 429.273 307.72 428.443 309.327C421.618 312.793 408.167 311.874 400.219 311.807L364.263 311.407C355.211 311.231 345.956 310.671 336.945 311.418C335.675 309.47 335.247 307.684 332.913 308.251C332.347 308.966 331.249 310.532 330.265 310.485C310.279 309.534 289.931 310.42 269.983 309.285C270.501 306.228 270.143 303.424 270.078 300.262Z"/><path fill="#CC9D6B" transform="matrix(0.355872 0 0 0.357401 -77.5801 -44.3176)" d="M277.673 258.332C281.396 258.921 297.764 258.558 302.361 258.578L350.425 259.22L520.41 261.921C539.855 262.059 559.3 262.295 578.742 262.63C585.639 262.754 597.09 262.579 603.44 263.156C604.997 263.315 606.117 263.217 607.252 264.222C604.227 266.344 507.445 263.841 494.054 263.62L418.642 262.516C407.875 262.406 396.217 262.637 385.613 262.399C360.585 261.709 335.548 261.381 310.51 261.414C300.455 261.374 289.517 260.166 279.851 261.613C279.009 263.951 277.552 268.324 276.386 270.342C274.973 270.25 275.639 270.344 274.25 269.427C275.34 264.896 276.006 262.665 277.673 258.332Z"/><path fill="#945E35" transform="matrix(0.355872 0 0 0.357401 -77.5801 -44.3176)" d="M276.231 271.034C284.158 272.517 295.781 272.496 303.924 272.543C322.21 272.649 340.728 271.572 359.002 270.639C376.509 269.886 394.032 269.542 411.555 269.606C459.865 269.889 505.376 275.266 553.269 277.659C564.356 278.203 575.455 278.454 586.555 278.413C590.338 278.412 603.938 278.038 606.605 278.624C604.129 280.239 594.486 279.839 591.055 279.892C539.397 280.705 487.982 273.064 436.368 271.594C416.919 271.039 397.224 271.127 377.775 271.279C348.36 271.508 319.234 275.14 289.752 273.404C286.092 273.188 280.478 272.785 276.926 273.026L275.45 272.522L275.191 271.852L276.231 271.034Z"/><path fill="#A26D3F" transform="matrix(0.355872 0 0 0.357401 -77.5801 -44.3176)" d="M270.067 299.047C281.218 298.944 294.6 300.299 306.063 300.702L399.963 303.996C404.596 304.137 434.447 304.115 436.113 304.827C433.619 306.37 431.068 308.049 428.443 309.327C429.273 307.72 429.54 307.878 429.339 306.403C428.632 306.119 407.423 306.242 404.522 306.158C373.414 305.256 342.105 303.682 311.033 302.258C305.358 301.998 273.928 301.333 270.078 300.262L270.067 299.047Z"/><path fill="#CFA471" transform="matrix(0.355872 0 0 0.357401 -77.5801 -44.3176)" d="M274.25 269.427C275.639 270.344 274.973 270.25 276.386 270.342L276.231 271.034L275.191 271.852L275.45 272.522L276.926 273.026C276.884 274.796 270.927 297.337 270.067 299.047L270.078 300.262C270.143 303.424 270.501 306.228 269.983 309.285C268.623 309.159 267.689 308.883 266.381 308.551C266.762 303.958 268.418 297.189 269.428 292.5C271.082 284.819 272.69 277.128 274.25 269.427Z"/><path fill="#945E35" transform="matrix(0.355872 0 0 0.357401 -77.5801 -44.3176)" d="M445.512 307C454.537 308.209 511.917 305.391 513.438 306.272C513.173 306.36 512.909 306.448 512.645 306.536C490.549 308.151 468.148 308.676 446.011 307.934C445.667 307.664 445.324 307.394 444.981 307.124L445.512 307Z"/><path fill="#BF9161" transform="matrix(0.355872 0 0 0.357401 -77.5801 -44.3176)" d="M438.707 309.928C441.198 306.849 441.53 306.118 444.71 303.595C445.747 305.707 445.903 305.176 445.512 307L444.981 307.124L444.784 308.168C446.326 309.693 446.962 311.805 448.407 312.636C442.09 312.375 443.228 314.3 438.67 315.315L438.037 314.55C437.752 312.308 437.917 312.132 438.707 309.928Z"/><path fill="#945E35" transform="matrix(0.355872 0 0 0.357401 -77.5801 -44.3176)" d="M454.935 293.019L456.257 293.85C454.414 296.907 448.596 300.655 445.591 302.718L445.234 299.601C448.89 297.489 451.656 295.63 454.935 293.019Z"/><path fill="#86512D" transform="matrix(0.355872 0 0 0.357401 -77.5801 -44.3176)" d="M445.234 299.601L445.591 302.718L444.71 303.595C441.53 306.118 441.198 306.849 438.707 309.928C438.983 306.544 439.476 306.872 440.958 303.867C439.932 303.269 439.055 303.869 437.465 304.287C439.415 302.887 443.042 300.887 445.234 299.601Z"/><path fill="#A26D3F" transform="matrix(0.355872 0 0 0.357401 -77.5801 -44.3176)" d="M446.846 287.439C450.955 288.799 455.717 289.186 456.257 293.85L454.935 293.019C451.496 291.507 449.609 289.956 446.846 287.439Z"/><path fill="#BF9161" transform="matrix(0.355872 0 0 0.357401 -77.5801 -44.3176)" d="M298.075 283.205C298.934 278.142 303.056 276.987 307.518 277.448C308.415 278.046 309.603 278.673 310.169 279.482C316.609 288.686 303.395 293.57 299.539 287.243C297.992 286.039 298.223 284.939 298.075 283.205Z"/><path fill="#553F30" transform="matrix(0.355872 0 0 0.357401 -77.5801 -44.3176)" d="M310.169 279.482C316.609 288.686 303.395 293.57 299.539 287.243C301.542 286.002 304.359 287.746 308.438 285.729C309.922 283.209 310.025 282.378 310.169 279.482Z"/><path fill="#9C8643" transform="matrix(0.355872 0 0 0.357401 -77.5801 -44.3176)" d="M298.075 283.205C299.502 283.603 300.359 283.746 301.684 284.414C304.808 283.967 304.615 283.956 307.529 284.762L308.438 285.729C304.359 287.746 301.542 286.002 299.539 287.243C297.992 286.039 298.223 284.939 298.075 283.205Z"/><path fill="#8A765B" transform="matrix(0.355872 0 0 0.357401 -77.5801 -44.3176)" d="M307.518 277.448C308.415 278.046 309.603 278.673 310.169 279.482C310.025 282.378 309.922 283.209 308.438 285.729L307.529 284.762C305.117 280.578 308.302 283.003 305.463 280.017C305.632 279.671 307.172 277.867 307.518 277.448Z"/><path fill="#73624D" transform="matrix(0.355872 0 0 0.357401 -77.5801 -44.3176)" d="M305.463 280.017C308.302 283.003 305.117 280.578 307.529 284.762C304.615 283.956 304.808 283.967 301.684 284.414C302.626 281.662 303.029 281.617 305.463 280.017Z"/><path fill="#945E35" transform="matrix(0.355872 0 0 0.357401 -77.5801 -44.3176)" d="M585.349 298.723C586.767 298.719 586.273 298.441 587.104 299.16C585.644 300.475 579.254 300.389 577.149 300.423C575.915 300.305 575.827 300.257 574.62 299.959C575.874 298.859 583.387 298.81 585.349 298.723Z"/><path fill="#A69942" transform="matrix(0.355872 0 0 0.357401 -77.5801 -44.3176)" d="M461.537 447.566C474.856 446.484 491.389 448.364 504.958 448.681C515.918 448.937 526.577 448.92 537.519 449.742L530.752 449.797L530.111 710.204L530.355 776.718C530.376 782.229 530.035 802.977 530.825 807.201C530.99 807.099 532.74 806.014 532.74 806.014C536.801 792.776 541.907 779.467 551.659 769.458L542.236 806.121C543.93 807.314 544.464 807.174 546.633 807.252C551.137 798.94 557.165 791.551 564.402 785.469C561.733 792.669 558.293 799.684 555.513 807.023C561.133 807.811 570.044 808.7 575.551 808.223C576.901 806.964 580.24 794.909 584.69 792.623C588.28 790.779 590.689 790.405 594.709 791.035L596.227 791.474C596.728 796.583 590.263 797.57 592.561 810.734C593.348 810.919 594.139 811.086 594.933 811.237C597.198 811.654 597.535 811.552 599.361 810.3C599.444 808.871 599.614 808.558 599.987 807.186C606.19 798.619 618.402 803.274 623.604 811.124C623.309 812.02 623.392 811.415 623.552 812.557C624.14 816.337 622.301 821.046 620.244 824.178C619.235 825.714 615.476 829.074 613.436 829.35C612.918 829.42 611.921 829.544 611.327 829.645C613.358 829.808 615.594 829.938 617.598 830.184C621.133 831.2 622.204 831.636 625.482 833.631C627.045 834.929 627.746 835.585 629.111 837.086C632.205 834.904 633.93 832.709 636.369 829.736C638.061 828.053 641.607 817.907 643.337 817.919C646.73 817.941 651.676 821.078 654.615 819.665C668.949 822.622 683.769 827.373 697.128 833.481C708.239 838.561 723.135 850.348 707.531 861.25C693.539 873.046 668.237 879.436 650.512 883.474C599.817 895.022 548.576 898.268 496.705 898.11C472.526 898.036 450.078 897.925 425.802 895.581C388.531 891.982 349.795 887.167 314.194 875.048C309.959 873.606 302.114 870.6 298.674 868.351C293.331 866.15 284.346 859.412 282.949 853.961C277.663 833.337 321.801 823.565 335.131 820.064C334.301 815.618 334.101 813.097 333.853 808.552C336.758 811.331 337.84 813.612 340.463 816.542C341.883 818.13 342.546 817.728 344.469 817.672C347.063 816.891 350.931 816.338 353.976 815.523C355.243 813.923 356.875 809.881 358.026 807.887C363.066 799.156 367.635 794.924 377.989 796.671L379.795 797.446L380.105 798.254C378.455 801.596 375.602 802.917 373.273 807.051C372.854 808.839 372.362 810.609 372.263 812.437L372.464 812.931C376.84 812.373 387.237 808.301 390.815 810.777C392.883 810.408 392.055 810.86 393.499 809.607C395.045 805.138 389.567 802.097 386.244 800.207C403.393 796.214 402.238 807.281 408.936 809.704C411.927 808.927 425.94 807.847 430.515 807.23C427.914 800.512 423.811 793.911 419.865 787.91C429.923 794.239 432.657 797.768 439.251 806.995L443.573 807.384L444.57 806.976C445.865 801.431 430.749 764.026 427.548 756.211C444.017 772.463 447.696 786.436 455.883 806.429C458.122 806.519 460.279 806.214 462.513 805.984C463.339 800.913 462.881 794.051 462.98 788.83C463.213 776.676 462.377 763.34 463.003 751.258L462.358 565.127C462.709 562.087 462.555 557.042 462.699 553.798C463.055 545.784 463.284 537.741 463.135 529.719C462.567 524.872 463.23 514.34 462.932 508.781C462.695 504.377 461.762 496.779 461.813 493.015C462.088 490.115 461.939 486.42 461.858 483.447C461.533 471.505 461.878 459.494 461.537 447.566Z"/><defs><linearGradient id="gradient_10" gradientUnits="userSpaceOnUse" x1="599.05225" y1="594.42657" x2="396.10901" y2="733.2298"><stop offset="0" stop-color="#784828"/><stop offset="1" stop-color="#986336"/></linearGradient></defs><path fill="url(#gradient_10)" transform="matrix(0.355872 0 0 0.357401 -77.5801 -44.3176)" d="M461.537 447.566C474.856 446.484 491.389 448.364 504.958 448.681C515.918 448.937 526.577 448.92 537.519 449.742L530.752 449.797L530.111 710.204L530.355 776.718C530.376 782.229 530.035 802.977 530.825 807.201C530.099 808.356 530.045 827.452 530.475 829.643C530.533 834.538 518.181 854.58 514.052 858.73C517.243 858.174 521.026 857.34 524.186 857.465C530.466 858.658 534.596 856.627 540.487 857.311L540.403 858.283L539.705 858.907L538.945 858.857C531.811 858.443 533.707 862.636 529.508 863.145L528.854 862.745C530.028 861.92 531.192 861.081 532.346 860.228L532.367 859.622C529.431 859.545 518.036 858.966 516.062 859.675L516.458 861.258L515.987 861.782C514.566 860.178 511.518 860.237 509.161 859.332C508.294 860.144 507.954 860.462 506.988 861.141C505.218 861.149 496.412 861.463 494.999 861.746C487.243 863.297 482.475 861.402 475.298 860.89L474.608 860.845L474.933 860.21C479.36 859.19 486.363 862.029 493.71 861.176L493.786 860.49C490.753 859.05 487.835 862.242 484.472 858.995C488.826 843.966 481.38 813.769 476.482 798.534L476.556 797.788C474.377 801.256 479.274 850.745 477.548 852.537C476.159 850.342 473.281 838.783 471.611 834.503C468.675 829.622 465.443 824.214 461.74 819.922C462.432 815.884 462.448 810.159 462.513 805.984C463.339 800.913 462.881 794.051 462.98 788.83C463.213 776.676 462.377 763.34 463.003 751.258L462.358 565.127C462.709 562.087 462.555 557.042 462.699 553.798C463.055 545.784 463.284 537.741 463.135 529.719C462.567 524.872 463.23 514.34 462.932 508.781C462.695 504.377 461.762 496.779 461.813 493.015C462.088 490.115 461.939 486.42 461.858 483.447C461.533 471.505 461.878 459.494 461.537 447.566Z"/><defs><linearGradient id="gradient_11" gradientUnits="userSpaceOnUse" x1="585.67206" y1="607.12213" x2="459.56863" y2="652.34869"><stop offset="0" stop-color="#432412"/><stop offset="1" stop-color="#6C4023"/></linearGradient></defs><path fill="url(#gradient_11)" transform="matrix(0.355872 0 0 0.357401 -77.5801 -44.3176)" d="M461.537 447.566C474.856 446.484 491.389 448.364 504.958 448.681C515.918 448.937 526.577 448.92 537.519 449.742L530.752 449.797L530.111 710.204L530.355 776.718C530.376 782.229 530.035 802.977 530.825 807.201C530.099 808.356 530.045 827.452 530.475 829.643C527.496 831.083 525.755 831.955 523.263 834.344L523.545 746.687C523.641 732.348 524.389 717.91 523.985 703.59C523.73 694.522 520.829 685.522 521.81 676.32C521.999 674.554 520.951 671.363 520.405 669.557C520.919 668.472 521.937 666.385 522.375 665.319C525.411 657.924 522.941 644.941 522.944 637.001C522.945 632.562 523.764 628.034 523.808 623.634L524.009 549.702C523.993 534.46 524.318 519.068 523.604 503.852C523.276 496.847 522.927 489.843 522.605 482.838L521.05 483.497C519.981 482.877 520.557 483.108 519.315 482.823C517.767 483.472 517.448 483.444 516.545 484.959C515.428 482.877 515.386 482.121 514.882 479.756C513.875 478.93 511.471 477.027 510.258 476.925C509.442 486.997 510.63 499.572 508.681 508.614C508.495 507.468 508.966 493.568 508.953 490.99L508.504 490.884C507.682 493.788 507.861 499.292 507.051 500.186C506.642 499.026 507.269 481.142 507.255 477.988C497.313 479.61 492.745 477.895 482.646 482.248C481.924 483.75 481.981 489.237 481.445 492.016L480.984 492.059C479.501 489.696 481.143 485.212 479.165 483.038C475.886 483.121 476.413 481.297 473.645 481.446C472.434 483.552 473.988 488.678 473.806 491.772C473.419 498.359 473.162 511.19 471.586 517.281C471.163 511.021 472.731 501.658 472.44 494.323L471.899 494.517C471.199 496.848 471.628 500.341 471.463 503.08C471.142 508.207 470.616 513.32 469.887 518.405L470.139 513.5C468.723 519.335 466.93 552.51 468.609 558.619C468.588 560.175 468.722 560.28 468.235 561.739C466.386 557.439 465.557 554.404 465.707 549.684C466.144 535.955 465.738 523.226 464.312 509.562C463.746 512.476 464.629 523.497 464.419 527.933L464.378 528.737L463.135 529.719C462.567 524.872 463.23 514.34 462.932 508.781C462.695 504.377 461.762 496.779 461.813 493.015C462.088 490.115 461.939 486.42 461.858 483.447C461.533 471.505 461.878 459.494 461.537 447.566Z"/><path fill="#945E35" transform="matrix(0.355872 0 0 0.357401 -77.5801 -44.3176)" d="M464.378 528.737L464.419 527.933C464.629 523.497 463.746 512.476 464.312 509.562C465.738 523.226 466.144 535.955 465.707 549.684C465.557 554.404 466.386 557.439 468.235 561.739C468.722 560.28 468.588 560.175 468.609 558.619C469.047 562.193 468.786 565.743 469.115 569.272C473.327 614.485 476.083 657.823 474.767 703.248L472.668 783.908C472.378 794.102 472.15 803.519 472.207 813.753C472.247 820.882 471.569 826.303 471.977 833.793L471.611 834.503C468.675 829.622 465.443 824.214 461.74 819.922C462.432 815.884 462.448 810.159 462.513 805.984C463.339 800.913 462.881 794.051 462.98 788.83C463.213 776.676 462.377 763.34 463.003 751.258L462.358 565.127C462.709 562.087 462.555 557.042 462.699 553.798C463.055 545.784 463.284 537.741 463.135 529.719L464.378 528.737Z"/><path fill="#B17D4B" transform="matrix(0.355872 0 0 0.357401 -77.5801 -44.3176)" d="M463.135 529.719L464.378 528.737C464.048 540.536 464.64 550.639 464.901 562.231C465.293 579.604 464.425 597.281 465.079 614.691C465.118 619.194 466.854 625.55 466.978 630.127C467.15 636.462 464.309 639.987 464.477 646.751C464.687 655.231 466.191 664.354 466.189 672.663C466.184 691.89 465.057 711.499 463.639 730.69C463.139 737.455 464.008 744.112 463.003 751.258L462.358 565.127C462.709 562.087 462.555 557.042 462.699 553.798C463.055 545.784 463.284 537.741 463.135 529.719Z"/><defs><linearGradient id="gradient_12" gradientUnits="userSpaceOnUse" x1="435.58524" y1="453.34238" x2="399.08768" y2="534.39667"><stop offset="0" stop-color="#41200C"/><stop offset="1" stop-color="#935B37"/></linearGradient></defs><path fill="url(#gradient_12)" transform="matrix(0.355872 0 0 0.357401 -77.5801 -44.3176)" d="M362.4 444.123C369.831 443.901 418.388 444.7 423.127 446.547C425.818 451.126 436.231 463.376 440.169 467.847C446.643 475.197 455.076 486.14 461.813 493.015C461.762 496.779 462.695 504.377 462.932 508.781C463.23 514.34 462.567 524.872 463.135 529.719C463.284 537.741 463.055 545.784 462.699 553.798C462.555 557.042 462.709 562.087 462.358 565.127C458.813 561.472 454.321 555.649 450.889 551.52L431.34 528.052L362.4 444.123Z"/><path fill="#5B311A" transform="matrix(0.355872 0 0 0.357401 -77.5801 -44.3176)" d="M732.455 180.39C732.528 185.411 732.677 190.611 732.654 195.617C729.915 200.021 725.301 204.64 720.502 206.739L721.563 205.019C721.465 200.535 721.229 194.556 722.074 190.221L724.982 187.096C725.691 186.616 729.471 182.96 730.332 182.154L732.455 180.39Z"/></g></svg>