<?xml version="1.0" encoding="utf-8" ?><svg xmlns="http://www.w3.org/2000/svg" xmlns:xlink="http://www.w3.org/1999/xlink" width="200" height="200" viewBox="0 0 200 200"><defs><linearGradient id="gradient_0" gradientUnits="userSpaceOnUse" x1="523.26172" y1="325.94232" x2="508.72366" y2="788.224"><stop offset="0" stop-color="#2A231C"/><stop offset="1" stop-color="#3D2613"/></linearGradient></defs><path fill="url(#gradient_0)" transform="scale(0.195312 0.195312)" d="M581.264 76.9226C586.48 61.284 589.385 44.724 594.186 29.0117C597.01 21.6863 607.437 26.0186 612.593 27.6475C661.532 43.1085 704.611 72.7082 731.191 117.282C738.181 129.005 744.798 141.227 751.948 152.775C763.361 171.208 777.605 187.729 794.155 201.732C825.162 228.225 860.48 240.437 890.219 267.168C900.998 276.857 895.04 287.962 887.57 298.017C858.617 342.206 798.075 362.195 748.141 369.072C747.077 372.412 745.892 376.101 744.324 379.218C749.134 384.776 752.23 389.7 755.297 396.374C774.276 397.978 777.164 424.703 775.716 439.337C774.335 453.299 769.672 466.983 763.69 479.624C761.545 484.192 758.702 488.728 756.706 493.192C761.149 518.82 762.255 537.325 777.933 559.725C779.316 561.701 785.126 570.424 786.094 572.991C785.906 573.43 785.718 573.87 785.531 574.309C779.744 578.636 761.805 570.903 756.473 566.748C755.713 586.775 746.581 601.379 762.674 617.302C763.778 618.395 768.35 623.08 768.899 624.23C768.345 625.193 767.843 625.691 766.595 625.805C752.194 627.124 740.419 622.016 732.054 610.382C730.096 633.034 734.455 641.119 752.181 655.127C732.126 656.333 713.086 651.801 698.08 637.828C697.57 639.987 697 643.724 695.459 645.151L694.057 644.688C692.227 646.245 689.926 656.747 688.828 659.768C686.285 669.434 685.327 676.264 686.573 686.225C686.93 689.083 687.346 691.052 685.768 693.33C679.804 694.802 669.263 682.248 666.323 677.67C664.76 690.826 654.975 712.064 644.175 720.308C643.008 721.199 640.311 722.965 639.532 723.67C641.942 729.349 643.709 736.129 645.85 741.966C651.204 756.563 655.644 772.511 660.874 787.006C662.547 793.013 664.58 798.727 666.25 804.572C662.389 803.578 655.653 801.469 651.911 799.872C646.839 798.112 641.786 796.295 636.754 794.423C634.677 816.635 633.91 842.148 633.226 864.549C632.033 896.317 631.442 928.105 631.453 959.895C631.439 963.02 630.918 977.509 631.513 979.118C631.013 981.298 629.834 985.233 630.504 987.137L631.229 987.768C630.194 992.679 630.472 1017.36 630.453 1024L621.761 1024L596.007 1024L567.675 1024L547.863 1024L443.803 1024L435.53 1024L409.679 1024L400.586 1024L354.176 1024L338.855 1024L158.923 1024C160.512 1015.47 174.766 951.055 177.177 948.281C179.244 947.413 179.854 947.573 182.174 947.588C182.78 943.081 184.788 936.048 185.859 931.457C188.716 919.21 192.352 907.153 195.305 894.924C193.431 895.213 191.731 895.685 189.967 895.075C188.215 891.547 208.424 831.888 211.395 823.847C215.452 812.871 221.206 797.513 227.735 787.447C230.407 783.327 238.449 778.045 242.736 775.122C241.872 772.162 241.399 770.351 242.282 767.25C244.365 759.925 259.994 750.787 266.847 747.372C268.118 745.862 271.617 732.368 272.649 729.385C274.15 725.042 275.859 719.433 277.429 714.87C279.278 709.974 280.917 705.281 283.561 700.661C293.812 682.75 309.183 667.881 324.608 654.418C328.458 651.057 332.292 648.617 335.627 645.101C335.57 642.323 335.116 639.015 334.815 636.212C321.183 651.895 299.118 656.231 279.319 655.238C297.518 641.599 301.503 633.989 299.271 610.921C291.123 622.628 278.233 627.413 264.241 626.151C262.88 626.028 262.547 625.746 261.821 624.752C262.203 623.611 268.561 618.059 270.017 616.56C286.129 599.973 275.565 586.387 275.053 566.649C269.262 570.222 251.093 579.707 245.37 573.675C245.318 571.012 252.763 561.42 254.561 558.605C264.652 542.81 269.73 526.108 272.159 507.651C272.769 503.017 273.782 497 275.153 492.589C269.82 483.471 267.504 477.09 263.578 467.387C258.049 456.998 255.27 435.287 256.488 423.318C250.994 427.737 226.543 439.524 220.304 436.193L221.866 434.065C202.878 437.649 184.293 435.928 165.786 430.899C167.909 427.433 178.854 416.915 182.472 412.442C200.558 390.082 211.011 371.109 239.516 360.557C235.11 358.545 223.066 355.294 216.962 352.732C186.015 339.745 162.139 325.908 142.364 298.057C133.456 285.21 128.825 274.702 143.11 263.469C172.038 240.721 205.915 227.473 234.305 203.378C250.594 189.463 264.755 173.236 276.338 155.215C282.124 146.203 288.338 135.569 293.501 126.429C320.236 79.1044 361.307 46.3887 412.854 29.5325C438.25 21.2279 434.804 23.4614 440.538 47.7725C442.747 57.4257 445.279 67.0021 448.13 76.4855C481.235 65.4777 517.143 63.7459 551.475 69.1945C560.67 70.6538 572.884 73.1391 581.264 76.9226Z"/><path fill="#663C1E" transform="scale(0.195312 0.195312)" d="M581.264 76.9226C586.48 61.284 589.385 44.724 594.186 29.0117C597.01 21.6863 607.437 26.0186 612.593 27.6475C661.532 43.1085 704.611 72.7082 731.191 117.282C738.181 129.005 744.798 141.227 751.948 152.775C763.361 171.208 777.605 187.729 794.155 201.732C825.162 228.225 860.48 240.437 890.219 267.168C900.998 276.857 895.04 287.962 887.57 298.017C858.617 342.206 798.075 362.195 748.141 369.072C747.077 372.412 745.892 376.101 744.324 379.218C736.765 373.548 707.085 354.553 698.324 352.963C696.322 350.808 681.604 345.813 678.247 344.671C619.896 324.821 556.558 319.627 495.245 321.063C485.687 321.287 470.589 321.401 461.386 323.182C457.748 322.829 432.364 325.3 429.609 326.72C417.122 325.387 344.734 342.775 332.494 351.069C317.59 355.613 298.163 369.239 285.47 378.279C281.656 380.996 273.859 393.055 273.383 397.728C263.112 401.571 260.961 407.124 257.818 416.879L256.488 423.318C250.994 427.737 226.543 439.524 220.304 436.193L221.866 434.065C202.878 437.649 184.293 435.928 165.786 430.899C167.909 427.433 178.854 416.915 182.472 412.442C200.558 390.082 211.011 371.109 239.516 360.557C235.11 358.545 223.066 355.294 216.962 352.732C186.015 339.745 162.139 325.908 142.364 298.057C133.456 285.21 128.825 274.702 143.11 263.469C172.038 240.721 205.915 227.473 234.305 203.378C250.594 189.463 264.755 173.236 276.338 155.215C282.124 146.203 288.338 135.569 293.501 126.429C320.236 79.1044 361.307 46.3887 412.854 29.5325C438.25 21.2279 434.804 23.4614 440.538 47.7725C442.747 57.4257 445.279 67.0021 448.13 76.4855C481.235 65.4777 517.143 63.7459 551.475 69.1945C560.67 70.6538 572.884 73.1391 581.264 76.9226Z"/><path fill="#8E2423" transform="scale(0.195312 0.195312)" d="M283.8 336.662C288.276 301.332 327.056 280.383 356.873 268.048C425.776 239.542 510.92 237.601 584.154 245.93C634.784 251.687 699.963 269.544 734.326 309.115C740.827 316.754 745.082 331.482 745.576 341.397C745.74 343.557 745.868 346.437 746.151 348.523C747.959 355.567 749.117 361.742 748.141 369.072C747.077 372.412 745.892 376.101 744.324 379.218C736.765 373.548 707.085 354.553 698.324 352.963C696.322 350.808 681.604 345.813 678.247 344.671C619.896 324.821 556.558 319.627 495.245 321.063C485.687 321.287 470.589 321.401 461.386 323.182C457.748 322.829 432.364 325.3 429.609 326.72C417.122 325.387 344.734 342.775 332.494 351.069C317.59 355.613 298.163 369.239 285.47 378.279C281.656 380.996 273.859 393.055 273.383 397.728C263.112 401.571 260.961 407.124 257.818 416.879L256.488 423.318C250.994 427.737 226.543 439.524 220.304 436.193L221.866 434.065C202.878 437.649 184.293 435.928 165.786 430.899C167.909 427.433 178.854 416.915 182.472 412.442C200.558 390.082 211.011 371.109 239.516 360.557C251.39 356.036 267.932 357.022 280.302 358.381C281.432 354.758 282.449 351.492 284.724 348.404C283.68 344.716 283.736 340.468 283.8 336.662Z"/><path fill="#771A19" transform="scale(0.195312 0.195312)" d="M746.151 348.523C738.783 346.327 728.92 341.582 721.776 338.44C707.834 332.307 693.759 325.316 679.694 319.565C666.106 314.01 652.23 309.6 638.343 304.977C635.47 304.021 626.943 302.182 625.279 301.383C627.259 300.714 640.547 302.051 643.232 302.446C669.962 306.252 694.59 315.382 718.559 327.543C725.322 330.974 739.238 339.414 745.576 341.397C745.74 343.557 745.868 346.437 746.151 348.523Z"/><path fill="#771A19" transform="scale(0.195312 0.195312)" d="M283.8 336.662L284.135 337.916C285.763 338.141 299.429 331.892 302.763 330.776C314.01 327.012 334.962 319.552 346.473 318.747C325.145 327 304.498 336.916 284.724 348.404C283.68 344.716 283.736 340.468 283.8 336.662Z"/><path fill="#771A19" transform="scale(0.195312 0.195312)" d="M221.866 434.065C229.741 431.165 235.109 431.301 243.59 426.498C247.736 424.149 255.061 416.738 256.995 416.23L257.818 416.879L256.488 423.318C250.994 427.737 226.543 439.524 220.304 436.193L221.866 434.065Z"/><path fill="#771A19" transform="scale(0.195312 0.195312)" d="M270.853 371.208C273.169 370.841 280.782 370.09 281.698 372.496C281.545 372.899 281.391 373.302 281.238 373.705C278.682 374.858 271.52 376.085 269.066 376.618C250.386 380.668 230.226 390.983 215.672 403.526C214.184 405.027 211.352 408.286 209.657 408.919L210.413 408.485L209.997 407.639C222.382 385.64 246.32 373.476 270.853 371.208Z"/><path fill="#CD9835" transform="scale(0.195312 0.195312)" d="M581.264 76.9226C586.48 61.284 589.385 44.724 594.186 29.0117C597.01 21.6863 607.437 26.0186 612.593 27.6475C661.532 43.1085 704.611 72.7082 731.191 117.282C738.181 129.005 744.798 141.227 751.948 152.775C763.361 171.208 777.605 187.729 794.155 201.732C825.162 228.225 860.48 240.437 890.219 267.168C900.998 276.857 895.04 287.962 887.57 298.017C882.713 290.557 881.573 285.996 873.975 279.072C859.115 265.531 839.617 256.283 822.324 246.144C801.427 234.02 782.17 219.268 765.023 202.248C751.46 188.602 740.456 173.734 730.623 157.248C725.725 149.035 721.396 140.465 716.572 132.241C707.054 115.842 695.019 101.04 680.905 88.3766C660.777 70.4561 635.426 56.7195 609.821 48.4407C596.677 92.3529 582.279 170.907 530.07 184.325C514.16 188.285 497.329 185.759 483.283 177.303C446.433 154.999 429.714 88.105 420.106 48.6779C419.433 48.8466 418.764 49.028 418.098 49.222C403.325 53.4716 388.047 61.316 374.922 69.1353C349.867 84.1196 326.412 108.449 312.027 133.943C295.621 163.017 281.049 189.349 255.479 211.732C241.941 223.582 228.912 233.23 213.399 242.94C192.973 255.725 169.214 265.635 152.325 283.146C148.157 287.557 145.222 292.827 142.364 298.057C133.456 285.21 128.825 274.702 143.11 263.469C172.038 240.721 205.915 227.473 234.305 203.378C250.594 189.463 264.755 173.236 276.338 155.215C282.124 146.203 288.338 135.569 293.501 126.429C320.236 79.1044 361.307 46.3887 412.854 29.5325C438.25 21.2279 434.804 23.4614 440.538 47.7725C442.747 57.4257 445.279 67.0021 448.13 76.4855C481.235 65.4777 517.143 63.7459 551.475 69.1945C560.67 70.6538 572.884 73.1391 581.264 76.9226Z"/><path fill="#663C1E" transform="scale(0.195312 0.195312)" d="M448.13 76.4855C481.235 65.4777 517.143 63.7459 551.475 69.1945C560.67 70.6538 572.884 73.1391 581.264 76.9226C576.704 90.7858 572.623 103.191 567.055 117.17C556.292 144.191 532.075 176.795 498.894 162.383C475.89 152.391 463.351 121.269 455.432 99.0561C452.925 92.024 451.087 84.2614 448.371 77.1072L448.13 76.4855Z"/><path fill="#18384F" transform="scale(0.195312 0.195312)" d="M335.627 645.101C337.764 643.134 340.229 641.574 342.636 639.946C343.958 644.092 346.06 651.287 347.615 655.087C354.449 675.653 351.052 676.55 351.51 695.854C361.895 692.998 365.566 687.118 371.517 678.444C375.309 694.053 381.613 706.583 391.924 718.83C386.441 734.19 381.252 749.653 376.36 765.21C374.321 771.554 372.032 779.512 369.766 785.66C367.69 791.941 365.765 798.271 363.992 804.644L364.116 805.039C367.019 805.111 376.005 801.369 379.182 800.148L393.971 794.584L410.29 788.688C416.094 799.033 421.199 808.909 427.689 818.879C450.628 854.112 481.713 882.685 515.897 906.804C548.738 883.705 582.347 851.588 604.283 817.845C610.603 808.123 615.317 798.988 621.048 789.164L636.754 794.423C634.677 816.635 633.91 842.148 633.226 864.549C632.033 896.317 631.442 928.105 631.453 959.895C631.439 963.02 630.918 977.509 631.513 979.118C631.013 981.298 629.834 985.233 630.504 987.137L631.229 987.768C630.194 992.679 630.472 1017.36 630.453 1024L621.761 1024L596.007 1024L567.675 1024L547.863 1024L443.803 1024L435.53 1024L409.679 1024L400.586 1024L354.176 1024L338.855 1024L158.923 1024C160.512 1015.47 174.766 951.055 177.177 948.281C179.244 947.413 179.854 947.573 182.174 947.588C182.78 943.081 184.788 936.048 185.859 931.457C188.716 919.21 192.352 907.153 195.305 894.924C193.431 895.213 191.731 895.685 189.967 895.075C188.215 891.547 208.424 831.888 211.395 823.847C215.452 812.871 221.206 797.513 227.735 787.447C230.407 783.327 238.449 778.045 242.736 775.122C241.872 772.162 241.399 770.351 242.282 767.25C244.365 759.925 259.994 750.787 266.847 747.372C268.118 745.862 271.617 732.368 272.649 729.385C274.15 725.042 275.859 719.433 277.429 714.87C279.278 709.974 280.917 705.281 283.561 700.661C293.812 682.75 309.183 667.881 324.608 654.418C328.458 651.057 332.292 648.617 335.627 645.101Z"/><path fill="#18384F" transform="scale(0.195312 0.195312)" d="M242.736 775.122C252.609 796.937 264.449 816.537 277.937 836.248C282.42 842.799 287.613 849.03 291.906 855.567C296.49 861.889 303.677 870.791 306.096 877.933C312.451 899.585 321.422 924.152 328.696 945.724C337.358 971.761 345.852 997.853 354.176 1024L338.855 1024L158.923 1024C160.512 1015.47 174.766 951.055 177.177 948.281C179.244 947.413 179.854 947.573 182.174 947.588C182.78 943.081 184.788 936.048 185.859 931.457C188.716 919.21 192.352 907.153 195.305 894.924C193.431 895.213 191.731 895.685 189.967 895.075C188.215 891.547 208.424 831.888 211.395 823.847C215.452 812.871 221.206 797.513 227.735 787.447C230.407 783.327 238.449 778.045 242.736 775.122Z"/><path fill="#CD9835" transform="scale(0.195312 0.195312)" d="M291.906 855.567C296.49 861.889 303.677 870.791 306.096 877.933C312.451 899.585 321.422 924.152 328.696 945.724C337.358 971.761 345.852 997.853 354.176 1024L338.855 1024C327.246 987.463 315.202 951.065 302.725 914.815L291.881 882.474C289.626 875.709 286.589 867.209 285.111 860.357C287.24 858.553 289.575 857.108 291.906 855.567Z"/><path fill="#E2C596" transform="scale(0.195312 0.195312)" d="M195.305 894.924C202.933 890.432 207.175 886.81 213.252 880.301C212.433 887.35 210.872 898.296 210.957 905.016C212.067 905.912 213.189 906.793 214.323 907.659C212.154 911.527 210.82 913.679 209.694 918.017C211.77 925.55 214.367 928.744 218.349 935.484C213.481 937.449 210.174 938.782 208.037 944.18C205.767 949.912 204.13 955.27 201.65 961.026C199.498 947.627 199.363 948.403 189.467 957.046C187.541 952.842 186.548 949.562 182.174 947.588C182.78 943.081 184.788 936.048 185.859 931.457C188.716 919.21 192.352 907.153 195.305 894.924Z"/><path fill="#CD9835" transform="scale(0.195312 0.195312)" d="M335.627 645.101C337.764 643.134 340.229 641.574 342.636 639.946C343.958 644.092 346.06 651.287 347.615 655.087C354.449 675.653 351.052 676.55 351.51 695.854C361.895 692.998 365.566 687.118 371.517 678.444C375.309 694.053 381.613 706.583 391.924 718.83C386.441 734.19 381.252 749.653 376.36 765.21C374.321 771.554 372.032 779.512 369.766 785.66C367.69 791.941 365.765 798.271 363.992 804.644L364.116 805.039C365.595 807.924 367.782 810.522 369.57 813.245C364.865 815.927 359.988 818.793 355.252 821.378C357.8 824.815 361.728 830.464 364.456 833.506C371.718 843.242 378.91 853.092 386.561 862.517C389.96 866.704 393.704 871.862 397.701 875.36L398.005 876.099C394.768 877.083 391.049 878.48 388.327 880.454C378.283 887.737 350.924 911.966 345.262 922.495C345.014 922.966 344.771 923.44 344.534 923.917C332.573 909.292 320.502 895.187 309.606 879.677C308.639 878.301 307.586 878.178 306.096 877.933C303.677 870.791 296.49 861.889 291.906 855.567C287.613 849.03 282.42 842.799 277.937 836.248C264.449 816.537 252.609 796.937 242.736 775.122C241.872 772.162 241.399 770.351 242.282 767.25C244.365 759.925 259.994 750.787 266.847 747.372C268.118 745.862 271.617 732.368 272.649 729.385C274.15 725.042 275.859 719.433 277.429 714.87C279.278 709.974 280.917 705.281 283.561 700.661C293.812 682.75 309.183 667.881 324.608 654.418C328.458 651.057 332.292 648.617 335.627 645.101Z"/><path fill="#412919" transform="scale(0.195312 0.195312)" d="M242.736 775.122C241.872 772.162 241.399 770.351 242.282 767.25C244.365 759.925 259.994 750.787 266.847 747.372C264.271 758.295 260.527 766.704 261.924 778.02C267.044 775.76 272.553 772.263 276.698 770.517C279.273 769.421 283.795 766.809 286.423 765.421C294.132 761.349 300.569 758.104 308.904 755.32C315.641 762.765 317.735 768.449 323.122 776.33C330.545 787.188 338.053 798.16 345.572 808.952C347.658 811.947 352.77 819.436 355.252 821.378C357.8 824.815 361.728 830.464 364.456 833.506C371.718 843.242 378.91 853.092 386.561 862.517C389.96 866.704 393.704 871.862 397.701 875.36L398.005 876.099C394.768 877.083 391.049 878.48 388.327 880.454C378.283 887.737 350.924 911.966 345.262 922.495C345.014 922.966 344.771 923.44 344.534 923.917C332.573 909.292 320.502 895.187 309.606 879.677C308.639 878.301 307.586 878.178 306.096 877.933C303.677 870.791 296.49 861.889 291.906 855.567C287.613 849.03 282.42 842.799 277.937 836.248C264.449 816.537 252.609 796.937 242.736 775.122Z"/><path fill="#131304" transform="scale(0.195312 0.195312)" d="M345.637 863.28C348.58 862.602 351.521 864.417 352.236 867.351C352.95 870.285 351.173 873.249 348.248 874C346.323 874.494 344.281 873.915 342.902 872.484C341.523 871.052 341.021 868.99 341.587 867.085C342.153 865.18 343.7 863.727 345.637 863.28Z"/><path fill="#131304" transform="scale(0.195312 0.195312)" d="M316.03 825.741C317.918 825.268 319.913 825.863 321.234 827.293C322.554 828.723 322.988 830.76 322.366 832.604C321.744 834.448 320.165 835.806 318.249 836.144C315.426 836.643 312.716 834.816 312.119 832.013C311.521 829.211 313.25 826.438 316.03 825.741Z"/><path fill="#27496A" transform="scale(0.195312 0.195312)" d="M297.663 706.111C308.915 687.123 330.032 668.096 347.615 655.087C354.449 675.653 351.052 676.55 351.51 695.854C361.895 692.998 365.566 687.118 371.517 678.444C375.309 694.053 381.613 706.583 391.924 718.83C386.441 734.19 381.252 749.653 376.36 765.21C374.321 771.554 372.032 779.512 369.766 785.66C365.442 780.528 361.177 774.382 357.037 769.016C338.968 745.593 320.23 725.306 297.663 706.111Z"/><path fill="#18384F" transform="scale(0.195312 0.195312)" d="M323.558 752.161C332.998 763.19 341.423 773.452 350.159 785.131C353.609 789.744 360.645 800.882 363.992 804.644L364.116 805.039C365.595 807.924 367.782 810.522 369.57 813.245C364.865 815.927 359.988 818.793 355.252 821.378C352.77 819.436 347.658 811.947 345.572 808.952C338.053 798.16 330.545 787.188 323.122 776.33C317.735 768.449 315.641 762.765 308.904 755.32C313.014 754.557 319.893 753.45 323.558 752.161Z"/><path fill="#27496A" transform="scale(0.195312 0.195312)" d="M291.033 720.204C302.811 729.633 313.626 740.824 323.558 752.161C319.893 753.45 313.014 754.557 308.904 755.32C300.569 758.104 294.132 761.349 286.423 765.421C283.795 766.809 279.273 769.421 276.698 770.517C278.583 758.064 286.601 732.721 291.033 720.204Z"/><path fill="#CD9835" transform="scale(0.195312 0.195312)" d="M409.413 875.508C409.507 856.338 408.902 834.702 409.581 815.858C419.713 831.978 424.268 838.273 435.985 853.111C436.02 865.915 435.469 885.355 436.292 897.79C444.701 907.02 456.895 919.681 464.141 929.426C464.475 914.241 463.604 897.322 464.137 882.957C473.39 891.326 480.726 897.74 490.667 905.317L490.582 949.452C490.586 955.531 490.294 965.699 490.69 971.465C491.651 975.138 498.155 979.708 500.959 982.836C502.89 984.991 505.895 987.758 508.625 988.814C514.11 994.469 521.548 1000.16 526.35 1005.26C528.21 1007.5 538.491 1016.54 541.017 1018.39L547.863 1024L443.803 1024L435.53 1024L409.679 1024L400.586 1024L354.176 1024C345.852 997.853 337.358 971.761 328.696 945.724C321.422 924.152 312.451 899.585 306.096 877.933C307.586 878.178 308.639 878.301 309.606 879.677C320.502 895.187 332.573 909.292 344.534 923.917C344.771 923.44 345.014 922.966 345.262 922.495C350.924 911.966 378.283 887.737 388.327 880.454C391.049 878.48 394.768 877.083 398.005 876.099C402.162 875.163 405.192 875.161 409.413 875.508Z"/><path fill="#412919" transform="scale(0.195312 0.195312)" d="M468.261 950.343C471.293 954.366 485.514 968.126 489.767 971.564L490.69 971.465C491.651 975.138 498.155 979.708 500.959 982.836C502.89 984.991 505.895 987.758 508.625 988.814C514.11 994.469 521.548 1000.16 526.35 1005.26C528.21 1007.5 538.491 1016.54 541.017 1018.39L547.863 1024L443.803 1024L435.53 1024L435.565 1018.35C434.91 1016.96 420.241 1003.77 417.887 1001.56C422.823 998.436 427.988 994.331 432.323 990.386C444.401 979.395 462.571 965.951 468.261 950.343Z"/><path fill="#18384F" transform="scale(0.195312 0.195312)" d="M435.565 1018.35C438.084 1019.19 441.755 1022.24 443.803 1024L435.53 1024L435.565 1018.35Z"/><path fill="#131304" transform="scale(0.195312 0.195312)" d="M468.755 998.627C470.526 997.853 472.577 998.101 474.113 999.274C475.649 1000.45 476.427 1002.36 476.146 1004.27C475.865 1006.18 474.57 1007.79 472.761 1008.48C470.063 1009.49 467.045 1008.18 465.958 1005.5C464.872 1002.83 466.112 999.782 468.755 998.627Z"/><path fill="#27496A" transform="scale(0.195312 0.195312)" d="M306.096 877.933C307.586 878.178 308.639 878.301 309.606 879.677C320.502 895.187 332.573 909.292 344.534 923.917C342.284 933.96 336.488 934.423 339.859 943.967C342.157 946.161 346.445 948.183 347.785 949.752C357.646 961.295 369.037 972.637 378.298 984.567L373.22 986.71C371.477 985.167 370.098 983.821 368.106 982.597C359.398 981.551 355.69 983.729 353.261 992.484C354.585 996.783 355.576 999.793 359.904 1002.15C362.204 1003.41 364.915 1003.68 367.421 1002.91C370.805 1001.87 373.044 999.317 374.519 996.205C374.849 995.497 375.164 994.782 375.462 994.06C378.584 993.224 381.923 992.266 385.055 991.582C390.002 996.211 393.351 1000.05 399.95 1002.24C401.009 1006.98 400.657 1018.79 400.586 1024L354.176 1024C345.852 997.853 337.358 971.761 328.696 945.724C321.422 924.152 312.451 899.585 306.096 877.933Z"/><path fill="#18384F" transform="scale(0.195312 0.195312)" d="M399.95 1002.24C403.835 1003.17 405.634 1003.6 409.735 1003.56C409.617 1010.37 409.599 1017.19 409.679 1024L400.586 1024C400.657 1018.79 401.009 1006.98 399.95 1002.24Z"/><path fill="#412919" transform="scale(0.195312 0.195312)" d="M403.712 894.034C404.387 893.996 405.063 893.979 405.739 893.983C410.005 894.05 412.926 897.642 415.693 900.471C420.336 905.218 451.005 936.564 450.702 942.118C450.323 949.056 438.463 958.247 433.796 962.693C432.179 960.908 419.064 943.05 417.044 956.281C416.587 959.275 424.468 966.666 426.976 969.356C422.254 973.579 412.355 983.549 407.032 985.088C405.023 984.973 403.316 984.521 401.597 983.428C394.584 978.971 361.19 942.688 360.594 935.685C360.161 930.591 373.803 919.812 377.612 916.154C380.993 919.796 389.627 934.664 394.074 924.304C395.658 920.614 386.832 911.633 384.546 908.734C391.138 903.169 396.125 898.373 403.712 894.034Z"/><path fill="#CD9835" transform="scale(0.195312 0.195312)" d="M621.815 814.909C621.564 821.728 621.83 828.685 621.797 835.535C621.651 852.357 621.634 869.18 621.745 886.003L621.761 1024L596.007 1024C596.007 967.288 596.791 908.751 595.933 852.211C607.062 837.799 612.635 831.398 621.815 814.909Z"/><path fill="#CD9835" transform="scale(0.195312 0.195312)" d="M540.951 905.846C548.321 900.092 555.404 894.438 562.177 887.991C563.862 886.388 565.801 884.598 567.619 883.158L567.675 1024L547.863 1024L541.017 1018.39L540.953 943.646C540.942 931.969 540.49 917.27 540.951 905.846Z"/><path fill="#27496A" transform="scale(0.195312 0.195312)" d="M379.182 800.148L393.971 794.584C395.331 802.237 399.275 872.415 397.701 875.36C393.704 871.862 389.96 866.704 386.561 862.517C378.91 853.092 371.718 843.242 364.456 833.506C361.728 830.464 357.8 824.815 355.252 821.378C359.988 818.793 364.865 815.927 369.57 813.245C367.782 810.522 365.595 807.924 364.116 805.039C367.019 805.111 376.005 801.369 379.182 800.148Z"/><path fill="#CD9835" transform="scale(0.195312 0.195312)" d="M364.116 805.039C367.019 805.111 376.005 801.369 379.182 800.148C382.425 805.419 387.721 813.184 389.769 818.598C382.303 823.566 372.377 828.809 364.456 833.506C361.728 830.464 357.8 824.815 355.252 821.378C359.988 818.793 364.865 815.927 369.57 813.245C367.782 810.522 365.595 807.924 364.116 805.039Z"/><path fill="#CD9835" transform="scale(0.195312 0.195312)" d="M508.625 988.814C511.931 986.065 514.463 984.381 519.048 984.88C522.158 985.243 525.001 986.811 526.968 989.247C529.104 991.868 530.003 995.283 529.436 998.616C528.976 1001.35 527.924 1003.06 526.35 1005.26C521.548 1000.16 514.11 994.469 508.625 988.814Z"/><path fill="#CD9835" transform="scale(0.195312 0.195312)" d="M516.195 931.736C522.498 930.87 528.33 935.221 529.296 941.509C530.262 947.798 526.005 953.698 519.733 954.765C515.586 955.47 511.381 953.884 508.731 950.617C506.081 947.349 505.399 942.907 506.945 938.995C508.492 935.083 512.027 932.308 516.195 931.736Z"/><path fill="#E2C596" transform="scale(0.195312 0.195312)" d="M332.494 351.069C344.734 342.775 417.122 325.387 429.609 326.72C455.874 334.264 483.284 346.071 508.491 356.917C525.083 364.056 544.205 372.238 560.445 380.1C555.813 396.669 561.272 424.949 569.732 439.825C577.809 454.094 591.261 464.536 607.087 468.823C620.684 472.499 635.188 470.562 647.345 463.448C652.501 460.427 656.178 457.157 660.255 452.875C673.77 462.117 688.027 470.592 701.022 479.524C699.323 487.567 697.571 496.28 694.67 503.955C683.051 534.693 660.404 556.301 635.076 575.864C631.78 568.231 628.263 560.695 624.529 553.267C617.191 538.441 611.273 527.702 594.681 522.246C572.585 514.98 543.721 508.962 521.908 518.682C520.558 519.287 519.214 519.904 517.877 520.535C512.98 518.427 505.29 515.188 499.9 514.548C481.953 512.416 455.234 516.007 438.347 522.334C421.231 528.746 416.075 539.234 408.827 554.462C405.421 561.477 402.177 568.57 399.099 575.735L398.865 576.292C371.785 557.979 350.544 536.344 337.191 506.026C333.146 496.84 330.959 485.074 328.807 475.201C324.477 448.456 317.241 411.843 321.922 384.909C324.041 372.716 333.082 367.681 332.494 351.069Z"/><path fill="#131304" transform="scale(0.195312 0.195312)" d="M358.195 434.104C356.691 432.353 356.054 430.725 356.367 428.316C361.819 386.317 420.147 372.693 447.26 402.534C453.071 408.93 458.828 422.338 458.205 431.148C458.413 434.999 458.093 437.037 456.022 440.374C451.549 443.035 431.488 450.041 427.07 447.788C417.473 450.955 408.996 451.252 399.135 448.718C392.672 452.646 358.661 440.49 358.195 434.104Z"/><path fill="#F4F5F2" transform="scale(0.195312 0.195312)" d="M358.195 434.104L358.493 433.62C366.22 420.8 368.708 407.276 384.66 400.543C378.82 414.296 378.244 431.846 389.845 442.913C392.598 445.761 395.494 447.277 399.135 448.718C392.672 452.646 358.661 440.49 358.195 434.104Z"/><path fill="#663C1E" transform="scale(0.195312 0.195312)" d="M389.845 442.913C391.588 438.281 379.556 427.085 388.677 423.807C389.644 423.462 390.614 423.129 391.589 422.807C397.323 431.775 404.372 442.055 416.918 438.446C424.398 437.261 427.771 430.625 431.538 424.823C440.717 427.375 434.193 433.123 437.76 436.641C435.558 441.458 431.655 445.212 427.07 447.788C417.473 450.955 408.996 451.252 399.135 448.718C395.494 447.277 392.598 445.761 389.845 442.913Z"/><path fill="#F4F5F2" transform="scale(0.195312 0.195312)" d="M440.535 404.241C451.493 414.792 452.912 417.092 458.205 431.148C458.413 434.999 458.093 437.037 456.022 440.374C451.549 443.035 431.488 450.041 427.07 447.788C431.655 445.212 435.558 441.458 437.76 436.641C443.81 426.076 442.418 415.621 440.535 404.241Z"/><path fill="#412919" transform="scale(0.195312 0.195312)" d="M416.918 438.446L417.522 437.617C422.065 435.688 423.246 434.37 426.759 431.086L426.687 430.858C425.054 432.082 422.178 434.588 420.442 434.956C419.723 434.047 419.973 434.187 418.83 433.584C419.625 433.053 420.853 432.903 421.774 432.406C425.622 430.332 425.688 429.011 427.021 425.3C428.492 424.461 428.795 424.182 430.512 423.958L431.538 424.823C427.771 430.625 424.398 437.261 416.918 438.446Z"/><path fill="#F4F5F2" transform="scale(0.195312 0.195312)" d="M398.27 399.422C406.709 400.034 402.92 408.613 397.904 412.01C391.2 410.567 391.338 402.679 398.27 399.422Z"/><path fill="#412919" transform="scale(0.195312 0.195312)" d="M394.336 344.717C395.364 344.674 396.393 344.644 397.422 344.625C409.933 344.413 440.777 349.327 452.298 354.314C455.404 355.646 458.236 357.544 460.649 359.911C464.616 363.809 471.047 374.592 466.035 379.277C464.686 379.513 463.063 379.468 461.769 379.063C447.925 374.733 433.992 371.246 419.889 367.871C400.119 363.656 385.014 362.288 365.787 370.487C359.689 373.087 354.62 376.473 348.139 378.251L347.359 378.461C354.753 358.132 373.143 346.034 394.336 344.717Z"/><path fill="#CEB084" transform="scale(0.195312 0.195312)" d="M498.86 470.265C500.291 473.437 498.952 489.779 499.039 494.931C499.317 495.439 499.826 496.37 500.169 496.868C505.051 503.948 525.63 502.946 531.741 498.816C539.58 493.518 534.854 479.122 536.336 471.583C537.125 472.515 537.001 473.474 537.221 474.918C538.269 482.539 539.974 497.642 531.901 501.683C525.199 505.038 514.027 505.069 506.759 503.38C501.923 502.256 499.921 500.417 497.538 496.337C497.328 492.37 498.309 474.35 498.86 470.265Z"/><path fill="#F4F5F2" transform="scale(0.195312 0.195312)" d="M597.752 756.261C599.051 755.77 600.335 755.243 601.605 754.68C621.635 745.572 626.863 725.442 633.7 706.994C635.985 713.817 635.467 717.522 635.776 724.706C637.668 724.878 637.517 724.572 639.532 723.67C641.942 729.349 643.709 736.129 645.85 741.966C651.204 756.563 655.644 772.511 660.874 787.006C662.547 793.013 664.58 798.727 666.25 804.572C662.389 803.578 655.653 801.469 651.911 799.872C646.839 798.112 641.786 796.295 636.754 794.423L621.048 789.164C615.317 798.988 610.603 808.123 604.283 817.845C582.347 851.588 548.738 883.705 515.897 906.804C481.713 882.685 450.628 854.112 427.689 818.879C421.199 808.909 416.094 799.033 410.29 788.688L393.971 794.584L379.182 800.148C376.005 801.369 367.019 805.111 364.116 805.039L363.992 804.644C365.765 798.271 367.69 791.941 369.766 785.66C372.032 779.512 374.321 771.554 376.36 765.21C381.252 749.653 386.441 734.19 391.924 718.83C395.815 722.113 398.475 723.549 403.079 725.658C402.33 718.076 402.464 714.607 403.368 707.023C409.12 724.985 415.107 745.087 433.075 754.327C435.213 755.422 437.425 756.365 439.695 757.149C437.69 748.429 437.625 743.947 438.172 734.947C439.337 736.968 445.683 747.635 446.212 748.943C456.186 761.765 467.143 771.272 483.019 776.126C481.88 772.337 477.978 759.794 481.203 756.441L482.074 756.385C484.795 759.772 487.016 763.846 489.486 766.884C496.535 775.556 508.374 784.587 518.029 790.144C527.612 785.944 537.025 777.478 544.535 770.27C546.984 767.919 553.447 756.994 555.775 756.857C557.502 762.974 553.918 771.084 551.342 776.633C563.718 773.842 571.228 767.676 580.88 759.532C589.814 749.617 592.584 744.13 599.458 733.242C599.628 743.057 599.341 746.638 597.752 756.261Z"/><path fill="#E2C596" transform="scale(0.195312 0.195312)" d="M446.212 748.943C456.186 761.765 467.143 771.272 483.019 776.126C481.88 772.337 477.978 759.794 481.203 756.441L482.074 756.385C484.795 759.772 487.016 763.846 489.486 766.884C496.535 775.556 508.374 784.587 518.029 790.144C527.612 785.944 537.025 777.478 544.535 770.27C546.984 767.919 553.447 756.994 555.775 756.857C557.502 762.974 553.918 771.084 551.342 776.633C563.718 773.842 571.228 767.676 580.88 759.532C579.708 763.358 573.024 774.343 570.762 778.36C565.683 787.508 560.686 796.701 555.77 805.938C539.355 836.919 526.523 865.067 515.526 898.421C513.426 893.028 511.87 887.238 509.859 881.779C496.225 844.754 477.739 810.013 458.746 775.528C455.859 770.286 444.99 753.873 446.212 748.943Z"/><path fill="#D9D8D8" transform="scale(0.195312 0.195312)" d="M418.273 786.749C430.73 785.933 452.398 801.472 460.881 810.027C458.842 815.559 456.182 821.173 453.754 826.568C469.515 835.717 483.769 844.015 492.874 860.538C493.834 862.28 496.654 866.355 496.685 868.188L495.892 867.718C486.32 852.053 463.828 838.702 447.928 830.168C450.308 825.354 452.637 820.514 454.915 815.65C441.524 803.431 427.71 797.504 415.908 787.666L416.063 787.201L418.273 786.749Z"/><path fill="#E2C596" transform="scale(0.195312 0.195312)" d="M461.386 323.182C470.589 321.401 485.687 321.287 495.245 321.063C556.558 319.627 619.896 324.821 678.247 344.671C681.604 345.813 696.322 350.808 698.324 352.963C699.012 363.823 707.425 372.96 708.601 380.318C712.849 406.889 708.252 441.261 703.655 467.116C694.015 461.576 677.225 449.554 667.863 442.914C674.034 432.794 683.697 407.13 677.664 395.106C674.529 388.856 657.093 385.868 650.061 384.276C638.978 381.743 627.87 379.323 616.738 377.018C610.344 375.731 601.808 374.381 595.725 372.751L595.118 372.584C618.341 366.252 639.763 360.551 663.439 369.391C670.444 372.007 677.065 376.03 684.016 378.42L684.761 378.671C680.416 366.321 672.375 357.465 660.316 350.978C637.08 338.48 606.884 348.367 582.722 353.512C574.628 355.235 569.4 361.331 565.763 368.25C531.295 352.487 496.495 337.46 461.386 323.182Z"/><path fill="#E2C596" transform="scale(0.195312 0.195312)" d="M722.106 518.229C719.674 486.376 722.521 458.089 730.435 427.054C734.864 409.688 735.727 401.06 755.297 396.374C774.276 397.978 777.164 424.703 775.716 439.337C774.335 453.299 769.672 466.983 763.69 479.624C761.545 484.192 758.702 488.728 756.706 493.192C753.539 498.668 749.463 505.233 745.14 509.898L744.644 509.505C741.372 506.862 736.141 499.39 731.016 505.368C730.507 509.989 736.286 511.979 738.001 516.105C733.542 518.37 731.887 519.057 726.717 519.156C725.344 518.728 723.562 518.483 722.106 518.229Z"/><path fill="#E2C596" transform="scale(0.195312 0.195312)" d="M273.383 397.728C279.954 397.166 285.787 399.061 290.837 403.413C303.408 414.244 308.837 469.085 309.797 486.232C310.422 497.385 310.061 508.452 309.401 519.593C291.534 517.537 284.427 506.956 275.153 492.589C269.82 483.471 267.504 477.09 263.578 467.387C258.049 456.998 255.27 435.287 256.488 423.318L257.818 416.879C260.961 407.124 263.112 401.571 273.383 397.728Z"/><path fill="#CD9835" transform="scale(0.195312 0.195312)" d="M738.001 516.105C736.286 511.979 730.507 509.989 731.016 505.368C736.141 499.39 741.372 506.862 744.644 509.505L745.14 509.898C748.568 518.254 751.118 522.836 747.43 532.333C744.724 539.303 735.867 545.442 728.648 542.351C723.475 540.136 722.737 523.441 722.106 518.229C723.562 518.483 725.344 518.728 726.717 519.156C731.887 519.057 733.542 518.37 738.001 516.105Z"/><path fill="#412919" transform="scale(0.195312 0.195312)" d="M738.001 516.105C744.717 536.349 727.974 537.831 726.094 526.993C725.658 524.369 725.872 521.678 726.717 519.156C731.887 519.057 733.542 518.37 738.001 516.105Z"/><path fill="#E2C596" transform="scale(0.195312 0.195312)" d="M517.73 541.431C522.543 543.184 527.272 545.353 532.306 546.42C541.656 548.403 552.176 546.563 561.756 547.21C572.004 547.902 583.649 550.862 590.591 558.971C596.831 566.26 599.248 576.584 598.474 586C597.453 598.407 591.498 607.811 582.162 615.74C573.907 622.75 565.556 627.802 554.346 626.758C533.533 624.819 542.928 608.646 537.691 603.95C534.948 601.491 521.379 604.529 517.305 604.615C511.313 604.591 499.231 602.063 495.821 603.85C493.015 606.973 494.297 612.74 493.278 617.244C491.13 626.737 475.875 629.096 467.951 625.912C457.066 621.539 444.037 611.31 439.218 599.959C427.017 571.373 444.14 546.922 475.033 546.984C492.4 547.019 501.714 548.669 517.73 541.431Z"/><path fill="#F4F5F2" transform="scale(0.195312 0.195312)" d="M566.971 552.548C571.012 552.099 574.384 551.043 577.548 553.249C581.673 559.245 565.946 574.686 561.698 575.917C544.227 587.872 520.61 593.017 499.767 589.05C493.263 587.812 474.024 581.881 469.92 576.878L469.449 576.953C463.624 573.405 452.757 563.289 453.132 555.94C454.928 552.638 461.462 552.512 464.238 553.743L464.559 554.956L465.071 553.922C466.519 553.121 483.2 554.018 486.788 554.025C513.52 553.851 540.25 553.359 566.971 552.548Z"/><path fill="#412919" transform="scale(0.195312 0.195312)" d="M566.971 552.548C571.012 552.099 574.384 551.043 577.548 553.249C581.673 559.245 565.946 574.686 561.698 575.917C560.215 572.712 559.384 571.374 556.516 569.314L556.543 568.656C562.573 566.759 565.368 557.988 566.971 552.548Z"/><path fill="#412919" transform="scale(0.195312 0.195312)" d="M469.92 576.878L469.449 576.953C463.624 573.405 452.757 563.289 453.132 555.94C454.928 552.638 461.462 552.512 464.238 553.743L464.559 554.956C466.659 561.803 468.53 566.668 474.945 570.633L474.454 571.529C472.261 573.088 471.217 574.476 469.92 576.878Z"/><path fill="#D9D8D8" transform="scale(0.195312 0.195312)" d="M556.516 569.314C553.56 570.339 547.411 570.545 544.294 570.107C547.569 569.277 553.027 568.967 556.543 568.656L556.516 569.314Z"/><path fill="#D9D8D8" transform="scale(0.195312 0.195312)" d="M474.945 570.633C478.104 570.291 483.211 571.068 486.554 571.448C484.177 572.022 477.081 571.637 474.454 571.529L474.945 570.633Z"/><path fill="#18384F" transform="scale(0.195312 0.195312)" d="M688.828 659.768C689.926 656.747 692.227 646.245 694.057 644.688L695.459 645.151C697.647 648.515 708.365 655.878 711.909 659.287C717.602 664.763 723.718 669.867 728.807 676.09C748.845 697.417 755.391 715.563 762.725 743.329C763.579 746.562 767.375 761.298 768.366 763.614C775.297 766.709 781.949 770.396 788.247 774.635C806.697 786.923 811.568 801.216 818.981 821.61C821.627 828.892 842.629 890.64 840.974 895.046C839.327 896.078 838.827 895.947 836.73 895.45C836.353 895.361 835.977 895.267 835.602 895.169C839.579 911.627 846.07 931.134 848.861 947.686C850.573 947.547 851.816 947.224 853.295 948.003C857.17 952.565 869.221 1013.9 872.1 1024L693.696 1024L678.096 1024L630.453 1024C630.472 1017.36 630.194 992.679 631.229 987.768L630.504 987.137C629.834 985.233 631.013 981.298 631.513 979.118C630.918 977.509 631.439 963.02 631.453 959.895C631.442 928.105 632.033 896.317 633.226 864.549C633.91 842.148 634.677 816.635 636.754 794.423C641.786 796.295 646.839 798.112 651.911 799.872C655.653 801.469 662.389 803.578 666.25 804.572C664.58 798.727 662.547 793.013 660.874 787.006C655.644 772.511 651.204 756.563 645.85 741.966C643.709 736.129 641.942 729.349 639.532 723.67C640.311 722.965 643.008 721.199 644.175 720.308C654.975 712.064 664.76 690.826 666.323 677.67C669.263 682.248 679.804 694.802 685.768 693.33C687.346 691.052 686.93 689.083 686.573 686.225C685.327 676.264 686.285 669.434 688.828 659.768Z"/><path fill="#CD9835" transform="scale(0.195312 0.195312)" d="M688.828 659.768C689.926 656.747 692.227 646.245 694.057 644.688L695.459 645.151C697.647 648.515 708.365 655.878 711.909 659.287C717.602 664.763 723.718 669.867 728.807 676.09C748.845 697.417 755.391 715.563 762.725 743.329C763.579 746.562 767.375 761.298 768.366 763.614C769.85 768.926 769.611 772.624 769.455 778.098C765.962 776.714 755.772 772.109 754.056 768.986C747.507 768.603 723.984 754.259 715.763 752.588C714.328 752.296 710.676 750.69 709.604 749.662C692.035 769.534 675.994 790.706 661.619 812.999C680.108 823.485 699.267 833.303 717.839 843.66C726.298 848.378 738.944 854.608 746.585 860.072C743.311 873.19 737.804 888.788 733.538 901.814L706.487 984.073C702.612 995.993 696.883 1012.09 693.696 1024L678.096 1024L630.453 1024C630.472 1017.36 630.194 992.679 631.229 987.768L630.504 987.137C629.834 985.233 631.013 981.298 631.513 979.118C630.918 977.509 631.439 963.02 631.453 959.895C631.442 928.105 632.033 896.317 633.226 864.549C633.91 842.148 634.677 816.635 636.754 794.423C641.786 796.295 646.839 798.112 651.911 799.872C655.653 801.469 662.389 803.578 666.25 804.572C664.58 798.727 662.547 793.013 660.874 787.006C655.644 772.511 651.204 756.563 645.85 741.966C643.709 736.129 641.942 729.349 639.532 723.67C640.311 722.965 643.008 721.199 644.175 720.308C654.975 712.064 664.76 690.826 666.323 677.67C669.263 682.248 679.804 694.802 685.768 693.33C687.346 691.052 686.93 689.083 686.573 686.225C685.327 676.264 686.285 669.434 688.828 659.768Z"/><path fill="#27496A" transform="scale(0.195312 0.195312)" d="M636.754 794.423C641.786 796.295 646.839 798.112 651.911 799.872C648.454 805.439 643.792 812.975 641.203 818.976C648.132 823.34 656.957 827.815 664.25 831.779L708.553 855.866C712.871 858.255 725.889 865.047 729.05 867.408C717.456 904.757 704.32 942.042 692.46 979.332C687.782 994.041 682.378 1009.23 678.096 1024L630.453 1024C630.472 1017.36 630.194 992.679 631.229 987.768L630.504 987.137C629.834 985.233 631.013 981.298 631.513 979.118C630.918 977.509 631.439 963.02 631.453 959.895C631.442 928.105 632.033 896.317 633.226 864.549C633.91 842.148 634.677 816.635 636.754 794.423Z"/><path fill="#CD9835" transform="scale(0.195312 0.195312)" d="M631.513 979.118C640.448 981.224 649.327 983.56 658.142 986.123C661.512 983.725 664.473 981.583 668.968 982.253C671.675 982.674 674.096 984.173 675.68 986.408C677.466 988.873 678.181 991.955 677.665 994.955C676.556 1001.22 670.775 1004.36 664.778 1003.06C660.316 1002.1 657.755 997.737 656.008 993.921C651.641 992.807 634.72 988.154 631.229 987.768L630.504 987.137C629.834 985.233 631.013 981.298 631.513 979.118Z"/><path fill="#CD9835" transform="scale(0.195312 0.195312)" d="M652.738 863.297C664.131 866.328 677.21 870.624 688.474 874.407C692.067 871.83 693.341 871.331 697.455 870.244C704.657 871.948 706.898 874.158 708.684 881.261C708.058 884.101 707.931 885.065 706.502 887.701C698.61 895.618 690.394 892.342 686.622 882.501C674.618 878.501 662.534 874.745 650.377 871.236C651.061 868.272 651.77 866.172 652.738 863.297Z"/><path fill="#CD9835" transform="scale(0.195312 0.195312)" d="M639.202 921.652C650.817 924.737 662.356 928.103 673.808 931.749C684.997 923.112 697.829 931.83 691.532 944.624C682.796 952.535 676.489 948.556 671.451 939.602C660.42 936.05 648.098 932.707 636.908 929.513C637.545 926.885 638.407 924.244 639.202 921.652Z"/><path fill="#27496A" transform="scale(0.195312 0.195312)" d="M688.828 659.768C702.783 671.047 724.055 690.282 732.661 706.208C701.722 732.307 684.47 754.771 660.874 787.006C655.644 772.511 651.204 756.563 645.85 741.966C643.709 736.129 641.942 729.349 639.532 723.67C640.311 722.965 643.008 721.199 644.175 720.308C654.975 712.064 664.76 690.826 666.323 677.67C669.263 682.248 679.804 694.802 685.768 693.33C687.346 691.052 686.93 689.083 686.573 686.225C685.327 676.264 686.285 669.434 688.828 659.768Z"/><path fill="#27496A" transform="scale(0.195312 0.195312)" d="M709.604 749.662C719.046 739.461 729.109 728.982 739.656 719.903C744.329 734.727 751.051 754.223 754.056 768.986C747.507 768.603 723.984 754.259 715.763 752.588C714.328 752.296 710.676 750.69 709.604 749.662Z"/><path fill="#E2C596" transform="scale(0.195312 0.195312)" d="M817.82 880.4C823.786 886.961 828.036 890.373 835.602 895.169C839.579 911.627 846.07 931.134 848.861 947.686C844.653 951.093 844.265 952.267 842.096 957.189C839.141 954.615 835.394 951.089 832.077 949.209C831.189 952.99 830.455 957.11 829.772 960.937C827.822 956.544 826.198 951.714 824.56 947.182C822.048 940.229 819.09 938.639 813.113 935.176C817.229 928.552 818.944 926.038 821.402 918.594C820.193 913.531 819.342 912.211 816.729 907.879C818.039 907.087 819.186 906.151 820.399 905.218C820.217 896.604 818.331 888.862 817.82 880.4Z"/><path fill="#8E2423" transform="scale(0.195312 0.195312)" d="M220.304 436.193C226.543 439.524 250.994 427.737 256.488 423.318C255.27 435.287 258.049 456.998 263.578 467.387C251.478 486.541 220.23 504.138 198.065 506.705C198.628 500.734 200.765 494.302 202.429 488.496C208.112 468.669 207.392 452.992 220.304 436.193Z"/></svg>