<?xml version="1.0" encoding="utf-8" ?><svg xmlns="http://www.w3.org/2000/svg" xmlns:xlink="http://www.w3.org/1999/xlink" width="200" height="200" viewBox="0 0 200 200"><path fill="#1B1C1F" transform="scale(0.195312 0.195312)" d="M514.006 80.4069C584.139 63.0976 654.313 90.7879 707.507 136.402C758.352 180.037 793.238 239.345 806.672 304.986C809.175 316.91 810.586 329.645 812.553 341.699C813.715 348.819 813.506 356.192 814.105 363.392C819.294 359.686 836.834 347.792 840.848 357.562C851.138 382.608 842.56 415.804 837.968 441.572C834.675 457.016 825.69 480.692 820.048 494.12C820.014 499.348 820.379 504.557 820.336 509.774C820.117 536.366 819.495 563.222 820.557 589.797C821.388 610.575 822.955 631.482 824.392 652.233C824.654 656.006 825.359 659.739 825.625 663.513L834.777 782.192C836.375 803.35 837.757 824.523 838.923 845.709C839.217 851.465 838.478 863.873 839.274 868.911C844.216 872.618 853.922 884.053 857.358 889.053C881.4 924.034 895.646 964.532 910.705 1003.88C912.874 1009.55 916.698 1018.29 917.399 1024L910.077 1024L814.452 1024L806.508 1024L780.216 1024L720.468 1024L714.074 1024L699.426 1024L676.836 1024L574.357 1024L561.53 1024L500.324 1024L496.356 1024L484.154 1024L476.571 1024L466.605 1024L454.979 1024L344.161 1024L328.629 1024L318.329 1024L315.146 1024L307.874 1024L248.708 1024L221.402 1024L214.985 1024L118.163 1024L111.212 1024C111.452 1022.14 112.196 1019.22 112.631 1017.36C114.416 1014.27 122.254 991.981 124.298 986.922C135.251 959.822 146.811 928.963 162.014 904.052C167.069 892.454 180.589 877.523 189.526 868.75C189.181 858.844 190.779 846.635 191.352 836.398C193.219 805.62 195.514 774.869 198.234 744.154C200.976 711.383 203.332 678.581 205.304 645.755C206.124 633.432 207.712 620.686 207.903 608.417C208.167 591.498 208.172 574.579 208.566 557.657C208.901 543.762 209.059 529.863 209.04 515.964C209.059 510.722 209.419 497.963 208.372 493.448C193.281 460.103 182.979 417.599 183.349 380.999C183.463 369.756 181.956 357.128 194.844 353.076C203.779 355.68 208.879 359.363 216.339 364.542C217.317 360.306 217.017 353.779 217.172 349.269C218.045 323.923 223.131 300.015 230.35 275.703C261.363 171.25 358.478 73.6883 472.868 75.4777C489.141 75.7322 497.828 75.545 514.006 80.4069Z"/><path fill="#ECE9EF" transform="scale(0.195312 0.195312)" d="M514.125 327.131C523.012 321.725 531.257 315.374 540.428 309.89C569.004 292.802 600.001 281.395 633.875 284.113C661.642 286.341 685.609 299.267 703.253 320.544C718.205 338.574 729.233 364.937 732.743 387.979C735.787 407.957 734.547 433.672 733.538 454.073C730.837 508.671 723.52 563.363 718.427 617.823C718.174 621.11 717.445 632.995 716.853 635.211C714.521 643.939 699.689 657.861 692.62 663.898C691.194 665.111 689.734 666.283 688.242 667.415L685.813 669.177L679.966 673.282C673.652 677.45 667.546 681.17 660.965 684.873C657.957 686.566 650.204 690.161 647.882 691.792L595.356 714.068L595.133 714.684C538.471 730.6 488.698 733.264 432.031 714.074L428.047 712.759C426.289 711.842 420.214 709.731 418.12 708.941C412.487 706.84 406.913 704.583 401.404 702.173C380.2 692.994 359.915 681.825 340.821 668.815C331.977 662.311 315.27 649.019 311.615 637.601C310.971 635.592 310.943 626.921 310.865 624.33C310.101 620.426 309.333 608.64 308.92 604.25L304.856 563.239C300.719 523.102 294.932 483.726 294.11 443.281C293.949 428.351 292.765 412.015 294.992 397.215C302.28 348.782 325.556 301.603 376.573 287.904C411.889 277.791 449.654 288.491 480.679 306.2C491.654 312.465 502.529 320.852 513.459 326.774L514.125 327.131Z"/><path fill="#C7BCC8" transform="scale(0.195312 0.195312)" d="M310.865 624.33C314.003 627.091 318.786 636.121 321.898 640.164C329.64 649.848 340.635 659.34 351.218 666.043C379.562 683.998 415.439 701.36 447.779 710.025C486.069 720.285 526.687 721.916 565.308 712.97C612.691 701.995 664.505 680.056 699.716 645.72C709.951 635.744 711.431 627.738 718.427 617.823C718.174 621.11 717.445 632.995 716.853 635.211C714.521 643.939 699.689 657.861 692.62 663.898C691.194 665.111 689.734 666.283 688.242 667.415L685.813 669.177L679.966 673.282C673.652 677.45 667.546 681.17 660.965 684.873C657.957 686.566 650.204 690.161 647.882 691.792L595.356 714.068L595.133 714.684C538.471 730.6 488.698 733.264 432.031 714.074L428.047 712.759C426.289 711.842 420.214 709.731 418.12 708.941C412.487 706.84 406.913 704.583 401.404 702.173C380.2 692.994 359.915 681.825 340.821 668.815C331.977 662.311 315.27 649.019 311.615 637.601C310.971 635.592 310.943 626.921 310.865 624.33Z"/><path fill="#010101" transform="scale(0.195312 0.195312)" d="M383.019 409.291C397.494 414.751 411.494 421.654 425.386 428.437C426.725 429.09 434.371 432.653 435.064 433.191C435.417 435.678 438.921 441.214 440.281 443.85C443.544 450.174 447.994 464.032 446.12 470.823L445.405 471.191L444.741 470.763L447.063 482.969C441.504 472.746 438.904 463.611 430.186 455.044C430.35 458.34 430.599 461.6 430.371 464.891C429.963 475.071 425.719 484.72 418.491 491.901C394.589 515.597 348.598 499.555 348.969 463.733L348.306 462.58C345.296 463.054 328.695 468.874 327.496 470.47C336.326 492.802 356.32 500.615 378.408 505.192C376.638 505.975 376.66 505.922 374.839 506.109L374.971 506.499C372.765 506.706 370.602 507.292 368.409 507.409C360.533 507.828 353.002 506.242 345.437 504.263C348.128 501.832 348.873 501.3 352.452 500.986L348.357 499.263C347.293 501.239 347.406 501.205 345.545 502.382C344.444 501.562 340.228 499.733 338.637 498.977C333.081 496.336 329.849 493.816 325.42 489.676L323.594 489.122L322.585 487.632L321.91 487.351C322.165 486.986 322.428 486.425 322.643 486.014C319.886 479.524 311.88 466.613 314.945 459.258C311.561 456.81 307.51 451.178 305.393 447.545C311.412 449.242 313.719 449.571 319.847 447.391C321.496 430.822 346.203 416.974 360.319 412.874C365.294 411.429 380.092 411.408 383.019 409.291Z"/><path fill="#5D0303" transform="scale(0.195312 0.195312)" d="M351.896 444.025C364.126 437.271 391.578 436.432 405.013 440.396C414.58 443.219 422.937 447.999 430.043 454.96C430.091 454.988 430.138 455.016 430.186 455.044C430.35 458.34 430.599 461.6 430.371 464.891C429.963 475.071 425.719 484.72 418.491 491.901C394.589 515.597 348.598 499.555 348.969 463.733L348.306 462.58C348.716 461.199 348.997 457.42 349.194 455.782C349.738 451.269 350.502 448.318 351.896 444.025Z"/><path fill="#350202" transform="scale(0.195312 0.195312)" d="M351.896 444.025C364.126 437.271 391.578 436.432 405.013 440.396C414.58 443.219 422.937 447.999 430.043 454.96C430.091 454.988 430.138 455.016 430.186 455.044C430.35 458.34 430.599 461.6 430.371 464.891L429.46 464.469C429.035 461.982 429.347 459.276 429.431 456.714C428.32 456.083 428.506 456.185 427.309 455.775C421.995 449.654 422.426 449.298 415.385 446.08C414.931 451.951 414.977 460.187 414.345 465.42C412.985 465.824 410.93 467.168 409.219 467.368C396.236 468.886 381.821 465.971 368.981 466.244C367.467 464.916 367.069 464.629 365.338 463.587C365.577 465.279 365.847 466.967 366.148 468.65L365.958 468.872C356.304 467.221 357.155 470.74 355.994 478.792C351.226 470.299 353.562 466.405 351.781 458.976C348.045 470.053 355.488 474.241 354.254 480.841C350.389 473.998 350.855 468.663 348.969 463.733L348.306 462.58C348.716 461.199 348.997 457.42 349.194 455.782C349.738 451.269 350.502 448.318 351.896 444.025Z"/><defs><linearGradient id="gradient_0" gradientUnits="userSpaceOnUse" x1="355.61026" y1="451.04733" x2="362.41351" y2="468.32172"><stop offset="0" stop-color="#490707"/><stop offset="1" stop-color="#8F1111"/></linearGradient></defs><path fill="url(#gradient_0)" transform="scale(0.195312 0.195312)" d="M351.781 458.976C351.788 458.82 351.794 458.665 351.801 458.51C354.275 446.453 356.572 452.485 364.32 446.991C360.368 449.793 384.579 431.321 365.56 445.936C365.535 447.756 365.412 450.134 365.692 451.886C363.191 455.625 365.73 459.197 365.338 463.587C365.577 465.279 365.847 466.967 366.148 468.65L365.958 468.872C356.304 467.221 357.155 470.74 355.994 478.792C351.226 470.299 353.562 466.405 351.781 458.976Z"/><path fill="#EFEFEF" transform="scale(0.195312 0.195312)" d="M365.56 445.936C367.372 443.451 369.593 441.01 372.856 440.844C384.209 440.268 386.387 456.884 373.756 457.08C369.852 457.14 367.853 454.836 365.692 451.886C365.412 450.134 365.535 447.756 365.56 445.936Z"/><path fill="#CF1C1E" transform="scale(0.195312 0.195312)" d="M355.994 478.792C357.155 470.74 356.304 467.221 365.958 468.872C368.373 475.568 372.146 482.488 378.837 485.801C380.513 485.206 380.704 485.245 382.419 485.071C386.289 486.817 394.318 486.125 398.517 485.267C405.162 482.687 404.661 477.068 410.565 475.827C411.487 474.114 411.902 472.665 413.363 471.749C412.907 471.531 420.88 477.061 420.78 476.983C420.741 480.562 417.961 481.744 418.242 487.382C408.607 497.721 399.83 500.784 385.632 499.573C371.541 498.37 362.649 490.789 355.994 478.792Z"/><path fill="#940D14" transform="scale(0.195312 0.195312)" d="M398.517 485.267C405.162 482.687 404.661 477.068 410.565 475.827C408.04 480.763 404.262 485.36 398.812 487.117C393.108 489.88 384.344 488.624 378.837 485.801C380.513 485.206 380.704 485.245 382.419 485.071C386.289 486.817 394.318 486.125 398.517 485.267Z"/><path fill="#A7151D" transform="scale(0.195312 0.195312)" d="M382.498 484.519C384.932 485.372 390.359 485.478 392.826 485.346C402.869 484.811 405.151 478.688 410.29 471.711C411.298 470.342 413.228 470.458 414.893 470.517L415.412 470.403C422.379 471.087 425.887 472.683 422.721 480.626C421.268 483.037 420.067 485.23 418.242 487.382C417.961 481.744 420.741 480.562 420.78 476.983C420.88 477.061 412.907 471.531 413.363 471.749C411.902 472.665 411.487 474.114 410.565 475.827C404.661 477.068 405.162 482.687 398.517 485.267C394.318 486.125 386.289 486.817 382.419 485.071L382.498 484.519Z"/><path fill="#7A080D" transform="scale(0.195312 0.195312)" d="M366.148 468.65C370.839 470.213 372.272 476.745 376.199 480.267C378.452 482.288 379.931 483.03 382.498 484.519L382.419 485.071C380.704 485.245 380.513 485.206 378.837 485.801C372.146 482.488 368.373 475.568 365.958 468.872L366.148 468.65Z"/><path fill="#C7BCC8" transform="scale(0.195312 0.195312)" d="M383.019 409.291C397.494 414.751 411.494 421.654 425.386 428.437C426.725 429.09 434.371 432.653 435.064 433.191C435.417 435.678 438.921 441.214 440.281 443.85C443.544 450.174 447.994 464.032 446.12 470.823L445.405 471.191L444.741 470.763C438.054 442.335 409.923 424.568 382.058 424.593C354.595 424.619 341.405 434.988 319.847 447.391C321.496 430.822 346.203 416.974 360.319 412.874C365.294 411.429 380.092 411.408 383.019 409.291Z"/><path fill="#EFEFEF" transform="scale(0.195312 0.195312)" d="M351.896 444.025C350.502 448.318 349.738 451.269 349.194 455.782C348.997 457.42 348.716 461.199 348.306 462.58C345.296 463.054 328.695 468.874 327.496 470.47C326.549 467.794 325.921 464.916 325.239 462.149C332.168 454.606 342.182 447.369 351.896 444.025Z"/><path fill="#BAA8B6" transform="scale(0.195312 0.195312)" d="M328.841 485.309L331.2 487.893C336.306 492.899 341.835 496.373 348.357 499.263C347.293 501.239 347.406 501.205 345.545 502.382C344.444 501.562 340.228 499.733 338.637 498.977C333.081 496.336 329.849 493.816 325.42 489.676L323.594 489.122L322.585 487.632C324.88 486.976 326.647 486.209 328.841 485.309Z"/><path fill="#A56B6E" transform="scale(0.195312 0.195312)" d="M328.841 485.309L331.2 487.893L329.125 487.734L328.833 488.269L330.096 489.477C329.494 490.015 327.376 489.784 326.409 489.732L325.42 489.676L323.594 489.122L322.585 487.632C324.88 486.976 326.647 486.209 328.841 485.309Z"/><path fill="#AF8C94" transform="scale(0.195312 0.195312)" d="M314.945 459.258C316.817 461.57 318.085 465.374 319.163 468.204C321.88 475.331 323.864 479.671 328.841 485.309C326.647 486.209 324.88 486.976 322.585 487.632L321.91 487.351C322.165 486.986 322.428 486.425 322.643 486.014C319.886 479.524 311.88 466.613 314.945 459.258Z"/><path fill="#C7BCC8" transform="scale(0.195312 0.195312)" d="M352.452 500.986C359.228 503.812 367.466 506.028 374.839 506.109L374.971 506.499C372.765 506.706 370.602 507.292 368.409 507.409C360.533 507.828 353.002 506.242 345.437 504.263C348.128 501.832 348.873 501.3 352.452 500.986Z"/><path fill="#350202" transform="scale(0.195312 0.195312)" d="M580.826 483.401C583.551 462.403 588.64 450.925 605.294 437.679C632.085 416.369 669.475 423.308 696.314 440.637C706.355 447.119 709.597 450.827 721.824 447.961C719.368 452.379 716.888 455.45 712.975 458.751C709.805 461.851 708.817 468.476 706.619 473.03C702.57 481.418 699.392 485.629 692.549 491.715L691.399 492.548C688.456 494.524 686.03 496.122 682.951 497.872L682.472 498.143C681.194 498.687 679.505 499.312 678.392 500.08C668.856 505.341 652.296 507.012 641.551 506.689C651.394 503.919 660.002 503.797 670.38 499.076C685.382 492.25 694.657 484.246 700.902 469.012C695.578 469.291 686.712 463.969 678.856 463.741C677.822 476.196 674.098 485.514 664.433 493.902C647.597 508.513 618.822 505.85 605.694 487.557C602.652 484.614 599.08 476.903 598.632 472.649C596.652 468.758 597.282 459.831 597.57 455.593L596.967 455.632C588.516 464.455 586.152 473.346 580.826 483.401Z"/><path fill="#010101" transform="scale(0.195312 0.195312)" d="M580.826 483.401C583.551 462.403 588.64 450.925 605.294 437.679C632.085 416.369 669.475 423.308 696.314 440.637C706.355 447.119 709.597 450.827 721.824 447.961C719.368 452.379 716.888 455.45 712.975 458.751C709.805 461.851 708.817 468.476 706.619 473.03C702.57 481.418 699.392 485.629 692.549 491.715L691.399 492.548C688.456 494.524 686.03 496.122 682.951 497.872L682.472 498.143C681.194 498.687 679.505 499.312 678.392 500.08C668.856 505.341 652.296 507.012 641.551 506.689C651.394 503.919 660.002 503.797 670.38 499.076C685.382 492.25 694.657 484.246 700.902 469.012C695.578 469.291 686.712 463.969 678.856 463.741C679.059 456.731 677.561 450.451 675.937 443.678C674.275 443.648 663.166 439.296 659.414 438.664C653.852 437.741 632.233 437.18 628.158 440.03L627.684 441.733C622.898 440.378 619.589 440.808 615.78 444.256C615.179 445.608 614.543 446.936 614.055 448.328C607.413 448.348 608.181 448.77 602.668 452.656L602.17 451.688C600.793 453.478 599.87 454.471 598.288 456.093L597.57 455.593L596.967 455.632C588.516 464.455 586.152 473.346 580.826 483.401Z"/><path fill="#EFEFEF" transform="scale(0.195312 0.195312)" d="M675.937 443.678C687.892 449.939 692.661 452.628 702.724 462.066L700.902 469.012C695.578 469.291 686.712 463.969 678.856 463.741C679.059 456.731 677.561 450.451 675.937 443.678Z"/><path fill="#350202" transform="scale(0.195312 0.195312)" d="M596.967 455.632C599.133 452.873 612.061 441.947 614.698 442.476L615.78 444.256C615.179 445.608 614.543 446.936 614.055 448.328C607.413 448.348 608.181 448.77 602.668 452.656L602.17 451.688C600.793 453.478 599.87 454.471 598.288 456.093L597.57 455.593L596.967 455.632Z"/><path fill="#CF1C1E" transform="scale(0.195312 0.195312)" d="M659.414 438.664C663.166 439.296 674.275 443.648 675.937 443.678C677.561 450.451 679.059 456.731 678.856 463.741C677.822 476.196 674.098 485.514 664.433 493.902C647.597 508.513 618.822 505.85 605.694 487.557L606.41 487.431C606.394 486.752 605.858 485.873 605.546 485.21C606.63 485.684 606.78 485.706 607.921 485.82L608.888 485.91C604.434 479.347 600.945 470.785 613.665 471.459C614.415 471.499 614.597 472.315 615.007 473.008L617.528 473.622C622.778 485.108 634.62 489.747 646.878 485.428C651.635 483.752 653.865 477.648 658.933 475.559C659.696 473.911 660.651 471.426 661.871 470.202L662.429 465.474C663.356 459.412 662.893 447.756 659.553 442.481C658.843 441.36 658.605 440.939 658.26 439.617L659.414 438.664Z"/><defs><linearGradient id="gradient_1" gradientUnits="userSpaceOnUse" x1="645.11084" y1="437.94873" x2="638.60248" y2="502.51434"><stop offset="0" stop-color="#410905"/><stop offset="1" stop-color="#72191A"/></linearGradient></defs><path fill="url(#gradient_1)" transform="scale(0.195312 0.195312)" d="M659.414 438.664C663.166 439.296 674.275 443.648 675.937 443.678C677.561 450.451 679.059 456.731 678.856 463.741C677.822 476.196 674.098 485.514 664.433 493.902C647.597 508.513 618.822 505.85 605.694 487.557L606.41 487.431C606.394 486.752 605.858 485.873 605.546 485.21C606.63 485.684 606.78 485.706 607.921 485.82L608.888 485.91C609.931 486.708 612.432 490.1 614.2 491.643C628.952 504.526 654.377 502.469 666.73 487.027C672.799 479.441 678.323 467.3 661.871 470.202L662.429 465.474C663.356 459.412 662.893 447.756 659.553 442.481C658.843 441.36 658.605 440.939 658.26 439.617L659.414 438.664Z"/><path fill="#940D14" transform="scale(0.195312 0.195312)" d="M615.007 473.008L617.528 473.622C622.778 485.108 634.62 489.747 646.878 485.428C651.635 483.752 653.865 477.648 658.933 475.559C657.019 480.53 653.261 484.571 648.442 486.841C635.313 492.961 620.458 486.142 615.007 473.008Z"/><defs><linearGradient id="gradient_2" gradientUnits="userSpaceOnUse" x1="637.38531" y1="464.59329" x2="638.66223" y2="485.82108"><stop offset="0" stop-color="#510202"/><stop offset="1" stop-color="#7F0607"/></linearGradient></defs><path fill="url(#gradient_2)" transform="scale(0.195312 0.195312)" d="M612.974 463.87C614.342 464.751 615.716 465.613 617.048 466.548C625.637 467.042 654.999 467.505 662.429 465.474L661.871 470.202C660.651 471.426 659.696 473.911 658.933 475.559C653.865 477.648 651.635 483.752 646.878 485.428C634.62 489.747 622.778 485.108 617.528 473.622C616.358 469.905 614.279 471.235 612.974 463.87Z"/><path fill="#7A080D" transform="scale(0.195312 0.195312)" d="M597.57 455.593L598.288 456.093C599.87 454.471 600.793 453.478 602.17 451.688L602.668 452.656C608.181 448.77 607.413 448.348 614.055 448.328L613.587 451.589L612.664 449.548C608.113 448.41 605.015 453.763 605.199 457.531C606.938 457.473 608.885 457.211 610.568 457.325L611.379 457.611C611.731 455.183 610.57 454.134 611.252 453.054C611.937 456.733 612.454 460.162 612.974 463.87C614.279 471.235 616.358 469.905 617.528 473.622L615.007 473.008C614.597 472.315 614.415 471.499 613.665 471.459C600.945 470.785 604.434 479.347 608.888 485.91L607.921 485.82C606.78 485.706 606.63 485.684 605.546 485.21C605.858 485.873 606.394 486.752 606.41 487.431L605.694 487.557C602.652 484.614 599.08 476.903 598.632 472.649C596.652 468.758 597.282 459.831 597.57 455.593Z"/><path fill="#490202" transform="scale(0.195312 0.195312)" d="M597.57 455.593L598.288 456.093C599.87 454.471 600.793 453.478 602.17 451.688L602.668 452.656C608.181 448.77 607.413 448.348 614.055 448.328L613.587 451.589L612.664 449.548C608.113 448.41 605.015 453.763 605.199 457.531C606.938 457.473 608.885 457.211 610.568 457.325C599.956 459.771 598.103 473.911 604.283 481.818L604.234 482.75L603.571 482.82C601.084 479.756 600.324 474.756 598.632 472.649C596.652 468.758 597.282 459.831 597.57 455.593Z"/><path fill="#EFEFEF" transform="scale(0.195312 0.195312)" d="M615.78 444.256C619.589 440.808 622.898 440.378 627.684 441.733C630.119 443.763 631.437 445.079 631.697 448.446C631.881 450.746 631.138 453.023 629.634 454.772C626.137 458.783 619.426 458.552 615.787 454.802C614.861 453.847 614.346 452.458 613.587 451.589L614.055 448.328C614.543 446.936 615.179 445.608 615.78 444.256Z"/><defs><linearGradient id="gradient_3" gradientUnits="userSpaceOnUse" x1="519.98676" y1="616.0545" x2="534.35229" y2="665.6153"><stop offset="0" stop-color="#DFA9AE"/><stop offset="1" stop-color="#D0BBC0"/></linearGradient></defs><path fill="url(#gradient_3)" transform="scale(0.195312 0.195312)" d="M440.321 617.471C459.687 618.694 476.632 615.608 495.768 613.848C501.353 613.334 507.453 616.048 513.01 616.08C517.769 615.986 523.224 613.794 528.736 613.798C545.243 613.808 569.348 619.496 585.589 617.718L588.028 618.666C585.575 619.846 582.619 620.473 579.952 621.173C575.186 626.897 569.888 631.412 564.253 636.245C560.55 649.165 560.583 653.201 551.029 662.666C550.925 656.423 550.045 650.596 549.832 644.589C521.567 655.293 507.474 655.318 479.583 645.231C478.059 646.833 478.543 657.997 477.963 662.098C466.732 651.789 468.835 648.07 463.606 635.254C458.507 632.231 449.711 625.55 446.392 620.607C444.241 619.874 441.926 619.24 439.736 618.595L440.321 617.471Z"/><path fill="#A56B6E" transform="scale(0.195312 0.195312)" d="M440.321 617.471C459.687 618.694 476.632 615.608 495.768 613.848C501.353 613.334 507.453 616.048 513.01 616.08C517.769 615.986 523.224 613.794 528.736 613.798C545.243 613.808 569.348 619.496 585.589 617.718L588.028 618.666C585.575 619.846 582.619 620.473 579.952 621.173C574.016 622.264 567.974 623.083 562.128 624.178C557.875 624.845 553.617 625.475 549.354 626.068C526.226 628.645 503.411 630.556 480.148 626.583C475.9 626.016 471.661 625.38 467.433 624.675C459.167 623.547 454.254 622.771 446.392 620.607C444.241 619.874 441.926 619.24 439.736 618.595L440.321 617.471Z"/><path fill="#C7BCC8" transform="scale(0.195312 0.195312)" d="M446.392 620.607C454.254 622.771 459.167 623.547 467.433 624.675C471.661 625.38 475.9 626.016 480.148 626.583C479.895 627.313 478.791 630.326 478.658 630.921C478.742 635.492 475.126 654.668 477.421 658.039C477.546 657.061 478.119 650.639 477.958 649.728C477.121 644.978 479.246 642.928 479.213 638.664C479.498 640.701 479.153 643.896 479.583 645.231C478.059 646.833 478.543 657.997 477.963 662.098C466.732 651.789 468.835 648.07 463.606 635.254C458.507 632.231 449.711 625.55 446.392 620.607Z"/><path fill="#EFEFEF" transform="scale(0.195312 0.195312)" d="M476.471 658.266C472.947 652.464 463.734 631.182 465.919 625.139L467.433 624.675C471.661 625.38 475.9 626.016 480.148 626.583C479.895 627.313 478.791 630.326 478.658 630.921C475.802 638.427 475.55 650.343 476.471 658.266Z"/><path fill="#EFEFEF" transform="scale(0.195312 0.195312)" d="M562.128 624.178L563.429 624.517C564.94 629.408 558.001 648.651 555.187 653.98C554.431 655.401 553.653 656.81 552.854 658.208C552.779 647.71 552.915 636.101 549.354 626.068C553.617 625.475 557.875 624.845 562.128 624.178Z"/><path fill="#1B1C1F" transform="scale(0.195312 0.195312)" d="M648.994 386.174C665.426 383.972 704.661 395.185 716.278 407.57C709.683 406.957 700.177 405.365 693.288 404.608C660.749 401.033 647.327 407.572 619.348 420.805C609.106 425.638 588.558 437.28 578.021 438.969C575.509 439.372 572.828 439.03 570.765 437.434C568.5 435.682 566.901 432.542 566.552 429.727C566.092 426.019 567.004 421.541 569.336 418.561C578.4 406.981 633.122 388.598 648.994 386.174Z"/><path fill="#1B1C1F" transform="scale(0.195312 0.195312)" d="M383.019 409.291C360.717 401.111 340.441 403.068 317.595 406.893C316.449 407.084 315.068 406.869 314.035 406.351C313.953 405.365 313.791 405.702 314.411 405.002C316.246 402.931 319.828 401.407 322.254 400.147C336.695 392.646 354.863 385.952 371.311 385.776C377.001 385.716 382.607 386.716 388.12 388.048C403.114 391.673 447.227 407.121 457.011 417.066C459.935 420.038 461.206 424.727 460.983 428.81C460.818 431.832 459.847 435.115 457.48 437.153C455.461 438.891 452.82 439.32 450.24 438.962C444.956 438.228 439.944 435.227 435.064 433.191C434.371 432.653 426.725 429.09 425.386 428.437C411.494 421.654 397.494 414.751 383.019 409.291Z"/><path fill="#BAA8B6" transform="scale(0.195312 0.195312)" d="M481.254 567.874C481.613 565.978 481.213 566.821 482.669 565.344C486.829 564.108 512.256 565.131 518.522 564.986C523.989 564.859 539.294 564.289 544.128 564.689C545.566 565.484 545.534 565.873 546.221 567.392C543.269 576.907 521.412 600.827 510.536 597.01C501.748 593.925 485.923 578.191 482.029 569.707C481.754 569.103 481.495 568.492 481.254 567.874Z"/><path fill="#C7BCC8" transform="scale(0.195312 0.195312)" d="M481.254 567.874C489.331 571.715 499.63 582.128 508.487 584.695C521.625 588.502 534.563 574.638 545.683 567.723L546.221 567.392C543.269 576.907 521.412 600.827 510.536 597.01C501.748 593.925 485.923 578.191 482.029 569.707C481.754 569.103 481.495 568.492 481.254 567.874Z"/><path fill="#EFEFEF" transform="scale(0.195312 0.195312)" d="M511.873 532.688C523.407 531.545 534.477 536.538 533.106 550.054C532.385 557.168 528.539 560.236 523.308 564.386C520.748 564.593 518.361 564.521 515.8 564.493C511.292 564.511 506.784 564.444 502.278 564.293C495.597 557.704 490.263 549.683 496.354 539.862C499.451 534.868 506.322 533.473 511.873 532.688Z"/><path fill="#AF8C94" transform="scale(0.195312 0.195312)" d="M692.549 491.715C699.392 485.629 702.57 481.418 706.619 473.03C708.817 468.476 709.805 461.851 712.975 458.751C714.99 467.843 709.972 472.253 709.028 478.889C713.854 475.881 718.681 474.877 724.129 473.397C720.345 475.765 712.716 477.706 710.128 480.19C705.86 484.285 704.521 488.764 699.482 492.921C703.556 493.031 705.87 493.19 709.887 493.772C713.112 497.197 713.305 499.436 715.667 503.296C716.387 504.472 718.909 506.848 720.014 507.9L719.828 507.737L719.141 508.245C712.056 503.841 713.769 500.955 708.636 495.634C706.477 495.355 704.189 494.973 702.027 494.984C698.579 494.225 694.773 493.468 691.399 492.548L692.549 491.715Z"/><path fill="#A56B6E" transform="scale(0.195312 0.195312)" d="M724.129 473.397C720.345 475.765 712.716 477.706 710.128 480.19C705.86 484.285 704.521 488.764 699.482 492.921C703.556 493.031 705.87 493.19 709.887 493.772C713.112 497.197 713.305 499.436 715.667 503.296C716.387 504.472 718.909 506.848 720.014 507.9L719.828 507.737L719.141 508.245C712.056 503.841 713.769 500.955 708.636 495.634C706.477 495.355 704.189 494.973 702.027 494.984C698.579 494.225 694.773 493.468 691.399 492.548L692.549 491.715L698.087 491.939C701.956 487.792 704.712 483.434 708.614 479.331L709.028 478.889C713.854 475.881 718.681 474.877 724.129 473.397Z"/><path fill="#BAA8B6" transform="scale(0.195312 0.195312)" d="M691.399 492.548C694.773 493.468 698.579 494.225 702.027 494.984C696.292 494.787 694.732 496.352 689.444 499.05C688.301 499.67 685.255 501.116 684.62 501.966C682.852 500.933 682.706 499.949 682.472 498.143L682.951 497.872C686.03 496.122 688.456 494.524 691.399 492.548Z"/><path fill="#C7BCC8" transform="scale(0.195312 0.195312)" d="M682.951 497.872C685.506 497.655 687.067 497.946 689.444 499.05C688.301 499.67 685.255 501.116 684.62 501.966C682.852 500.933 682.706 499.949 682.472 498.143L682.951 497.872Z"/><path fill="#AF8C94" transform="scale(0.195312 0.195312)" d="M678.392 500.08C679.505 499.312 681.194 498.687 682.472 498.143C682.706 499.949 682.852 500.933 684.62 501.966C685.543 504.603 686.445 507.246 687.328 509.897C690.56 512.267 697.675 516.606 696.274 521.395C693.017 513.584 688.395 515.624 685.179 510.01C682.159 504.738 686.465 504.129 678.392 500.08Z"/><path fill="#A56B6E" transform="scale(0.195312 0.195312)" d="M299.312 474.632C303.38 476.092 307.482 477.454 311.616 478.716C313.459 481.351 315.691 485.868 317.218 488.833C317.502 490.507 317.105 489.808 318.629 490.891C314.292 493.725 311.712 497.72 307.55 500.964C310.972 495.667 312.124 494.02 316.945 490.045C314.092 487.516 312.185 483.369 310.323 479.949C305.575 478.055 303.628 477.362 299.312 474.632Z"/><path fill="#AF8C94" transform="scale(0.195312 0.195312)" d="M348.357 499.263L352.452 500.986C348.873 501.3 348.128 501.832 345.437 504.263C337.118 511.721 332.882 512.075 325.364 520.798C329.49 512.385 337.749 508.101 345.545 502.382C347.406 501.205 347.293 501.239 348.357 499.263Z"/><path fill="#AF8C94" transform="scale(0.195312 0.195312)" d="M585.589 617.718C587.029 615.532 588.901 611.702 591.901 613.311C593.18 615.908 593.326 620.779 590.085 621.948C588.628 620.921 588.596 620.776 588.028 618.666L585.589 617.718Z"/><path fill="#BAA8B6" transform="scale(0.195312 0.195312)" d="M439.736 618.595C438.226 620.552 437.869 621.353 435.288 621.026L434.555 619.879C434.309 617.08 434.962 614.002 437.658 612.687L438.751 613.184C439.951 615.086 439.937 615.208 440.321 617.471L439.736 618.595Z"/><path fill="#A56B6E" transform="scale(0.195312 0.195312)" d="M321.91 487.351L322.585 487.632L323.594 489.122L318.629 490.891C317.105 489.808 317.502 490.507 317.218 488.833C318.667 488.618 320.501 487.864 321.91 487.351Z"/><path fill="#1B1C1F" transform="scale(0.195312 0.195312)" d="M378.408 505.192C380.773 505.51 382.803 505.728 385.126 506.326C381.586 506.488 378.516 506.53 374.971 506.499L374.839 506.109C376.66 505.922 376.638 505.975 378.408 505.192Z"/><defs><linearGradient id="gradient_4" gradientUnits="userSpaceOnUse" x1="617.84314" y1="715.92242" x2="677.04877" y2="790.88708"><stop offset="0" stop-color="#5F060C"/><stop offset="1" stop-color="#9B0C13"/></linearGradient></defs><path fill="url(#gradient_4)" transform="scale(0.195312 0.195312)" d="M685.813 669.177L688.242 667.415C691.325 671.648 696.211 671.94 700.634 675.783C707.432 679.109 710.116 681.202 716.188 684.755C716.673 688.108 717.051 690.196 716.935 693.587C717.122 708.967 718.016 724.447 718.507 739.827C718.589 742.424 718.72 745.155 719.061 747.72L718.762 750.119C718.996 755.995 716.245 753.688 715.45 757.74C715.822 758.964 715.866 758.901 716.706 759.895C715.298 761.344 713.525 762.504 712.341 763.84C709.13 766.352 705.263 769.411 701.895 771.602C697.78 772.111 692.101 779.087 687.905 781.139C686.518 781.817 680.262 787.186 679.85 788.872L678.926 791.335C680.21 793.93 689.139 795.814 692.478 797.01C695.278 797.823 698.949 800.346 701.94 801.553C707.101 803.636 712.263 805.78 717.438 807.833C720.026 808.86 719.295 811.829 719.153 814.176L719.013 815.864C718.266 821.341 718.271 827.571 717.9 833.175C717.187 843.598 716.235 854.005 715.047 864.385C712.861 883.117 708.656 901.869 706.382 920.098C706.164 922.57 705.825 923.971 705.291 926.362C703.918 936.084 703.128 948.834 702.927 958.731C702.982 963.149 703.618 973.143 703.38 976.594C705.402 995.918 709.915 1007.92 720.468 1024L714.074 1024L699.426 1024L676.836 1024L574.357 1024L561.53 1024L500.324 1024C499.997 1009.19 500.522 994.355 500.524 979.538C500.526 966.117 498.747 907.553 502.944 897.63C507.474 886.922 531.243 858.473 532.122 852.332L534.239 850.882C545.916 851.57 589.13 834.526 600.842 828.344C602.796 827.313 605.103 825 607.812 824.96C609.762 823.072 612.287 818.144 613.929 815.514C620.297 805.406 626.515 795.204 632.581 784.912C614.928 777.187 615.551 769.83 614.113 753.283C614.018 751.541 614.177 749.467 614.253 747.697L614.321 747.16L613.249 746.173C612.728 742.723 612.37 728.818 612.402 725.153C609.923 722.591 606.191 719.356 602.901 717.952C599.437 716.445 596.456 717.859 595.356 714.068L647.882 691.792C650.204 690.161 657.957 686.566 660.965 684.873C667.546 681.17 673.652 677.45 679.966 673.282L685.813 669.177Z"/><path fill="#3C3C3B" transform="scale(0.195312 0.195312)" d="M534.239 850.882C545.916 851.57 589.13 834.526 600.842 828.344C602.796 827.313 605.103 825 607.812 824.96C598.385 843.81 582.743 865.755 587.728 887.533C588.816 901.451 598.625 923.594 607.922 934.466C608.185 934.774 609.564 935.297 610.037 935.436C610.474 934.497 611.31 933.259 611.878 932.345C612.658 933.829 613.429 935.318 614.19 936.812C616.05 938.001 616.852 938.374 617.51 940.59C618.882 942.068 619.841 943.051 621.334 944.402C620.966 944.518 618.832 945.168 618.633 945.282C617.331 946.252 616.339 946.71 615.934 948.229C616.615 949.526 616.638 949.477 617.699 950.515C618.765 954.233 620.181 955.133 623.294 957.507L623.702 959.033L624.141 958.985C625.977 959.764 626.759 959.963 627.954 961.66L629.56 960.301C629.855 964.712 631.928 966.251 634.768 969.494C646.176 982.523 657.467 995.915 670.254 1007.62C675.527 1012.45 680.501 1017.42 685.505 1022.5C683.046 1022.44 680.389 1022.19 678.061 1022.81L676.836 1024L574.357 1024L561.53 1024L500.324 1024C499.997 1009.19 500.522 994.355 500.524 979.538C500.526 966.117 498.747 907.553 502.944 897.63C507.474 886.922 531.243 858.473 532.122 852.332L534.239 850.882Z"/><path fill="#3C3C3B" transform="scale(0.195312 0.195312)" d="M581.617 947.874C587.822 948.792 593.288 948.373 599.395 947.105C601.702 946.627 607.9 943.371 609.488 943.637C609.719 944.744 609.835 945.166 610.209 946.232C612.071 946.581 616.216 945.561 618.633 945.282C617.331 946.252 616.339 946.71 615.934 948.229C616.615 949.526 616.638 949.477 617.699 950.515C618.765 954.233 620.181 955.133 623.294 957.507L623.702 959.033C614.841 968.682 613.595 979.282 618.119 991.178C600.994 983.105 589.1 987.179 585.892 1006.78C579.276 998.995 573.21 996.744 563.157 997.272C564.628 994.334 566.036 991.332 567.989 988.685C577.276 976.097 593.977 964.899 581.617 947.874Z"/><path fill="#ACA375" transform="scale(0.195312 0.195312)" d="M610.037 935.436C610.474 934.497 611.31 933.259 611.878 932.345C612.658 933.829 613.429 935.318 614.19 936.812C616.05 938.001 616.852 938.374 617.51 940.59C618.882 942.068 619.841 943.051 621.334 944.402C620.966 944.518 618.832 945.168 618.633 945.282C616.216 945.561 612.071 946.581 610.209 946.232C609.835 945.166 609.719 944.744 609.488 943.637C607.9 943.371 601.702 946.627 599.395 947.105C593.288 948.373 587.822 948.792 581.617 947.874C593.977 964.899 577.276 976.097 567.989 988.685C566.036 991.332 564.628 994.334 563.157 997.272C573.21 996.744 579.276 998.995 585.892 1006.78C589.1 987.179 600.994 983.105 618.119 991.178C613.595 979.282 614.841 968.682 623.702 959.033L624.141 958.985C625.977 959.764 626.759 959.963 627.954 961.66C616.251 973.02 620.67 985.206 625.203 998.399C619.236 995.798 611.07 991.615 604.556 991.511C589.477 991.271 589.971 1006.84 590.309 1017.63C587.742 1014.33 585.167 1011 582.211 1008.1C572.296 998.397 569.509 1002.35 559.002 1002.42L558.268 1001.55C555.369 990.246 581.371 971.677 581.635 959.836C581.781 953.248 577.041 948.643 573.081 943.938C585.304 944.117 602.318 946.524 610.037 935.436Z"/><path fill="#350202" transform="scale(0.195312 0.195312)" d="M614.19 936.812C616.05 938.001 616.852 938.374 617.51 940.59C615.398 941.718 614.216 942.728 611.927 941.758L611.75 940.612C612.646 938.693 612.836 938.481 614.19 936.812Z"/><path fill="#ACA375" transform="scale(0.195312 0.195312)" d="M554.879 1018.69C554.156 1016.05 553.787 1015.04 553.65 1012.28L554.177 1011.66C556.645 1013.71 557.987 1016.24 560.024 1017.79C563.793 1020.66 570.158 1021.93 574.357 1024L561.53 1024C558.526 1022.05 557.441 1021.33 554.879 1018.69Z"/><path fill="#878888" transform="scale(0.195312 0.195312)" d="M519.73 889.95C525.469 888.402 530.474 888.655 535.492 892.172C540.887 897.462 542.6 902.867 541.862 910.491L540.63 913.557C532.51 925.542 519.209 925.938 511.265 913.512C511.074 913.199 510.89 912.881 510.714 912.559C506.134 904.096 511.705 894.09 519.73 889.95Z"/><defs><linearGradient id="gradient_5" gradientUnits="userSpaceOnUse" x1="524.72449" y1="921.74481" x2="528.92798" y2="892.13794"><stop offset="0" stop-color="#545454"/><stop offset="1" stop-color="#6A6C6B"/></linearGradient></defs><path fill="url(#gradient_5)" transform="scale(0.195312 0.195312)" d="M530.24 891.92C532.362 892.141 533.369 892.215 535.492 892.172C540.887 897.462 542.6 902.867 541.862 910.491L540.63 913.557C532.51 925.542 519.209 925.938 511.265 913.512C513.278 909.573 510.92 909.149 512.107 904.524C514.005 910.126 516.613 914.831 522.481 916.107C536.374 919.129 543.981 906.346 535.411 895.243C533.847 893.216 532.647 892.872 530.354 892.5L529.989 892.39L530.24 891.92Z"/><path fill="#EFEFEF" transform="scale(0.195312 0.195312)" d="M529.989 892.39L530.354 892.5C532.889 895.374 537.736 897.734 533.466 902.144C527.448 905.09 521.405 894.649 529.989 892.39Z"/><path fill="#615856" transform="scale(0.195312 0.195312)" d="M511.265 913.512C511.074 913.199 510.89 912.881 510.714 912.559C506.134 904.096 511.705 894.09 519.73 889.95L519.647 891.445C517.883 892.971 516.678 893.766 515.608 895.856C513.94 899.306 513.272 900.885 512.107 904.524C510.92 909.149 513.278 909.573 511.265 913.512Z"/><path fill="#565656" transform="scale(0.195312 0.195312)" d="M519.73 889.95C525.469 888.402 530.474 888.655 535.492 892.172C533.369 892.215 532.362 892.141 530.24 891.92C523.073 891.752 521.122 891.19 515.608 895.856C516.678 893.766 517.883 892.971 519.647 891.445L519.73 889.95Z"/><path fill="#615856" transform="scale(0.195312 0.195312)" d="M512.097 989.664C503.034 975.885 517.708 958.025 532.845 965.441C538.222 968.076 540.221 973.415 541.816 978.818C542.08 981.604 542.28 982.198 541.621 984.834C541.023 986.466 540.603 987.811 539.725 989.324L539.282 989.78C536.222 992.962 536.772 993.97 532.022 995.847C523.662 999.149 517.578 996.02 512.097 989.664Z"/><path fill="#878888" transform="scale(0.195312 0.195312)" d="M521.973 967.092C531.052 965.324 534.8 967.471 538.515 975.903C538.744 977.543 539.028 979.175 539.366 980.797C537.066 985.702 535.883 987.193 531.302 990.498C531.223 990.609 531.144 990.72 531.065 990.831C525.543 991.769 523.406 991.681 518.338 988.955C510.117 981.725 510.815 968.686 521.973 967.092Z"/><path fill="#919391" transform="scale(0.195312 0.195312)" d="M521.973 967.092C531.052 965.324 534.8 967.471 538.515 975.903C534.612 978.895 533.591 978.858 528.944 977.135C527.815 976.961 526.803 976.341 526.135 975.414C522.301 970.745 526.383 969.673 529.043 967.527C526.569 967.539 524.418 967.596 521.973 967.092Z"/><path fill="#EFEFEF" transform="scale(0.195312 0.195312)" d="M526.135 975.414C524.949 973.767 525.088 971.513 526.469 970.025C527.849 968.537 530.087 968.23 531.818 969.29C533.549 970.35 534.291 972.484 533.593 974.389C532.895 976.295 530.95 977.444 528.944 977.135C527.815 976.961 526.803 976.341 526.135 975.414Z"/><path fill="#565656" transform="scale(0.195312 0.195312)" d="M531.065 990.831C537.889 991.393 538.11 986.554 541.621 984.834C541.023 986.466 540.603 987.811 539.725 989.324L539.282 989.78C536.222 992.962 536.772 993.97 532.022 995.847C523.662 999.149 517.578 996.02 512.097 989.664C514.998 990.081 515.613 989.976 518.338 988.955C523.406 991.681 525.543 991.769 531.065 990.831Z"/><path fill="#1B1C1F" transform="scale(0.195312 0.195312)" d="M541.816 978.818C542.204 978.002 542.156 977.597 542.866 977.489C546.256 976.975 552.821 977.822 555.846 979.37C557.029 979.975 556.887 980.387 557.138 981.394C555.244 985.574 544.05 989.074 539.725 989.324C540.603 987.811 541.023 986.466 541.621 984.834C542.28 982.198 542.08 981.604 541.816 978.818Z"/><path fill="#1B1C1F" transform="scale(0.195312 0.195312)" d="M541.862 910.491C544.015 909.57 549.7 907.288 551.291 905.973C547.355 904.213 545.674 907.795 542.964 902.889L543.067 901.695C546.239 900.211 554.344 902.703 557.089 904.732L557.347 905.601C554.712 909.227 545.646 913.512 541.315 914.27L540.63 913.557L541.862 910.491Z"/><path fill="#490202" transform="scale(0.195312 0.195312)" d="M595.356 714.068L647.882 691.792L648.084 692.723C650.514 694.06 652.875 694.261 655.032 695.458C671.743 704.767 672.328 725.281 665.417 741.116C653.98 767.319 637.69 790.559 623.299 815.156C614.257 830.611 603.677 846.767 597.203 863.514L598.033 863.811C599.014 864.913 599.911 865.909 600.95 866.967C603.878 865.01 606.276 864.269 609.714 863.618L610.556 863.332C612.916 863.436 616.38 863.479 618.642 863.758C619.729 864.202 623.699 865.912 624.496 866.096C628.077 869.615 630.715 870.94 632.729 875.674C634.264 878.34 634.953 881.365 635.56 884.377C636.143 884.722 637.151 885.273 637.669 885.634C659.497 896.006 680.467 906.297 701.332 918.533C702.539 919.24 705.056 920.357 706.382 920.098C706.164 922.57 705.825 923.971 705.291 926.362C703.918 936.084 703.128 948.834 702.927 958.731C702.982 963.149 703.618 973.143 703.38 976.594C705.402 995.918 709.915 1007.92 720.468 1024L714.074 1024L699.426 1024L676.836 1024L678.061 1022.81C680.389 1022.19 683.046 1022.44 685.505 1022.5C680.501 1017.42 675.527 1012.45 670.254 1007.62C657.467 995.915 646.176 982.523 634.768 969.494C631.928 966.251 629.855 964.712 629.56 960.301L627.954 961.66C626.759 959.963 625.977 959.764 624.141 958.985L623.702 959.033L623.294 957.507C620.181 955.133 618.765 954.233 617.699 950.515C616.638 949.477 616.615 949.526 615.934 948.229C616.339 946.71 617.331 946.252 618.633 945.282C618.832 945.168 620.966 944.518 621.334 944.402C619.841 943.051 618.882 942.068 617.51 940.59C616.852 938.374 616.05 938.001 614.19 936.812C613.429 935.318 612.658 933.829 611.878 932.345C611.31 933.259 610.474 934.497 610.037 935.436C609.564 935.297 608.185 934.774 607.922 934.466C598.625 923.594 588.816 901.451 587.728 887.533C582.743 865.755 598.385 843.81 607.812 824.96C609.762 823.072 612.287 818.144 613.929 815.514C620.297 805.406 626.515 795.204 632.581 784.912C614.928 777.187 615.551 769.83 614.113 753.283C614.018 751.541 614.177 749.467 614.253 747.697L614.321 747.16L613.249 746.173C612.728 742.723 612.37 728.818 612.402 725.153C609.923 722.591 606.191 719.356 602.901 717.952C599.437 716.445 596.456 717.859 595.356 714.068Z"/><path fill="#940D14" transform="scale(0.195312 0.195312)" d="M635.56 884.377C636.143 884.722 637.151 885.273 637.669 885.634C659.497 896.006 680.467 906.297 701.332 918.533C702.539 919.24 705.056 920.357 706.382 920.098C706.164 922.57 705.825 923.971 705.291 926.362C703.918 936.084 703.128 948.834 702.927 958.731C702.982 963.149 703.618 973.143 703.38 976.594C705.402 995.918 709.915 1007.92 720.468 1024L714.074 1024C710.455 1021.44 707.383 1018.27 703.611 1015.9C696.5 1012.52 687.907 1002.65 680.868 998.035C677.724 995.972 675.227 992.603 672.104 990.148C669.62 988.719 664.848 984.028 663.452 981.398L660.89 979.986L659.757 975.177C658.304 974.199 656.561 972.009 655.347 970.623C649.765 964.789 643.566 959.334 638.414 953.03C634.905 950.211 625.172 937.822 622.642 933.946C620.18 930.524 616.023 926.085 614.278 923.536C611.198 919.036 612.953 918.054 608.06 912.137L607.196 911.259C612.072 911.084 619.909 910.645 624.132 907.904L624.241 906.86L623.318 905.797C625.858 904.7 627.7 902.925 629.659 901.062C634.668 894.827 634.775 892.198 635.56 884.377Z"/><path fill="#7A080D" transform="scale(0.195312 0.195312)" d="M635.56 884.377C636.143 884.722 637.151 885.273 637.669 885.634C659.497 896.006 680.467 906.297 701.332 918.533C702.539 919.24 705.056 920.357 706.382 920.098C706.164 922.57 705.825 923.971 705.291 926.362C703.918 936.084 703.128 948.834 702.927 958.731C702.982 963.149 703.618 973.143 703.38 976.594C702.402 973.59 688.433 961.537 685.046 958.433C672.53 946.895 660.546 934.794 649.13 922.167C643.793 916.259 639.139 909.728 633.571 904.169C632.34 902.805 631.158 902.103 629.659 901.062C634.668 894.827 634.775 892.198 635.56 884.377Z"/><path fill="#5D0303" transform="scale(0.195312 0.195312)" d="M637.669 885.634C659.497 896.006 680.467 906.297 701.332 918.533C702.539 919.24 705.056 920.357 706.382 920.098C706.164 922.57 705.825 923.971 705.291 926.362C703.857 923.448 652.36 898.257 644.59 893.922C643.111 893.096 638.031 891.33 636.42 892.759L636 891.747L638.402 890.966L638.748 890.088C637.923 888.159 637.77 887.717 637.669 885.634Z"/><path fill="#520204" transform="scale(0.195312 0.195312)" d="M635.56 884.377C636.143 884.722 637.151 885.273 637.669 885.634C637.77 887.717 637.923 888.159 638.748 890.088L638.402 890.966L636 891.747C634.631 894.001 632.947 897.987 631.232 900.982C638.851 907.612 643.52 915.68 650.16 922.245C655.874 927.894 664.852 934.094 670.305 940.452L669.829 940.709L667.044 939.803C667.797 941.308 698.284 970.163 700.002 970.784C700.448 967.994 697.994 965.782 698.702 964.264C700.213 965.525 701.035 966.235 702.384 967.654C702.448 964.926 702.38 961.325 702.927 958.731C702.982 963.149 703.618 973.143 703.38 976.594C702.402 973.59 688.433 961.537 685.046 958.433C672.53 946.895 660.546 934.794 649.13 922.167C643.793 916.259 639.139 909.728 633.571 904.169C632.34 902.805 631.158 902.103 629.659 901.062C634.668 894.827 634.775 892.198 635.56 884.377Z"/><path fill="#5D0303" transform="scale(0.195312 0.195312)" d="M663.452 981.398L665.705 981.416C667.836 983.517 670.074 985.886 672.445 987.666C676.992 991.475 682.006 996.58 686.366 1000.74C690.08 1004.28 700.87 1012.37 703.611 1015.9C696.5 1012.52 687.907 1002.65 680.868 998.035C677.724 995.972 675.227 992.603 672.104 990.148C669.62 988.719 664.848 984.028 663.452 981.398Z"/><path fill="#7A080D" transform="scale(0.195312 0.195312)" d="M623.318 905.797C625.858 904.7 627.7 902.925 629.659 901.062C631.158 902.103 632.34 902.805 633.571 904.169C632.845 904.871 632.636 905.195 632.233 906.121C631.174 905.694 630.762 905.648 629.619 905.615C628.204 906.639 627.834 907.239 626.768 908.581C620.19 910.789 614.857 913.363 608.06 912.137L607.196 911.259C612.072 911.084 619.909 910.645 624.132 907.904L624.241 906.86L623.318 905.797Z"/><path fill="#7A080D" transform="scale(0.195312 0.195312)" d="M622.642 933.946C630.897 938.284 634.744 944.533 638.414 953.03C634.905 950.211 625.172 937.822 622.642 933.946Z"/><path fill="#7A080D" transform="scale(0.195312 0.195312)" d="M659.757 975.177C661.682 976.692 664.535 979.259 665.705 981.416L663.452 981.398L660.89 979.986L659.757 975.177Z"/><path fill="#919391" transform="scale(0.195312 0.195312)" d="M610.556 863.332C612.916 863.436 616.38 863.479 618.642 863.758C619.729 864.202 623.699 865.912 624.496 866.096C628.077 869.615 630.715 870.94 632.729 875.674C634.264 878.34 634.953 881.365 635.56 884.377C634.775 892.198 634.668 894.827 629.659 901.062C627.7 902.925 625.858 904.7 623.318 905.797L624.241 906.86L624.132 907.904C619.909 910.645 612.072 911.084 607.196 911.259C605.795 909.468 604.871 908.038 603.646 906.116C591.842 897.918 586.95 886.237 595.132 873.078L595.187 872.518C597.107 870.543 598.933 868.837 600.95 866.967C603.878 865.01 606.276 864.269 609.714 863.618L610.556 863.332Z"/><path fill="#615856" transform="scale(0.195312 0.195312)" d="M610.556 863.332C612.916 863.436 616.38 863.479 618.642 863.758C619.729 864.202 623.699 865.912 624.496 866.096C628.077 869.615 630.715 870.94 632.729 875.674C634.264 878.34 634.953 881.365 635.56 884.377C634.775 892.198 634.668 894.827 629.659 901.062C627.7 902.925 625.858 904.7 623.318 905.797L624.241 906.86L624.132 907.904C619.909 910.645 612.072 911.084 607.196 911.259C605.795 909.468 604.871 908.038 603.646 906.116C591.842 897.918 586.95 886.237 595.132 873.078C595.473 876.063 595.662 880.82 596.214 883.483C599.642 900.163 623.305 905.417 629.982 888.628C632.401 882.546 630.093 878.427 627.4 872.968C623.032 868.933 622.3 868.702 616.618 866.854C612.598 866.231 613.157 865.699 609.714 863.618L610.556 863.332Z"/><path fill="#520204" transform="scale(0.195312 0.195312)" d="M603.646 906.116C611.787 908.515 615.249 908.697 623.318 905.797L624.241 906.86L624.132 907.904C619.909 910.645 612.072 911.084 607.196 911.259C605.795 909.468 604.871 908.038 603.646 906.116Z"/><path fill="#785B5A" transform="scale(0.195312 0.195312)" d="M610.556 863.332C612.916 863.436 616.38 863.479 618.642 863.758C619.729 864.202 623.699 865.912 624.496 866.096C628.077 869.615 630.715 870.94 632.729 875.674C630.11 873.609 626.205 866.2 622.671 868.132C625.345 869.446 626.417 870.152 627.4 872.968C623.032 868.933 622.3 868.702 616.618 866.854C612.598 866.231 613.157 865.699 609.714 863.618L610.556 863.332Z"/><path fill="#785E5E" transform="scale(0.195312 0.195312)" d="M600.95 866.967C603.878 865.01 606.276 864.269 609.714 863.618C613.157 865.699 612.598 866.231 616.618 866.854C604.541 867.326 598.031 871.107 596.214 883.483C595.662 880.82 595.473 876.063 595.132 873.078L595.187 872.518C597.107 870.543 598.933 868.837 600.95 866.967Z"/><path fill="#EFEFEF" transform="scale(0.195312 0.195312)" d="M617.534 870.338C624.12 870.443 629.093 874.171 623.411 880.458C616.923 881.862 613.494 876.246 617.534 870.338Z"/><path fill="#2B2321" transform="scale(0.195312 0.195312)" d="M633.087 958.534C637.426 961.925 638.76 965.145 642.31 968.868C654.704 981.862 668.272 994.697 681.216 1007.16C688.897 1014.55 692.358 1014.51 699.426 1024L676.836 1024L678.061 1022.81C680.389 1022.19 683.046 1022.44 685.505 1022.5C680.501 1017.42 675.527 1012.45 670.254 1007.62C657.467 995.915 646.176 982.523 634.768 969.494C631.928 966.251 629.855 964.712 629.56 960.301C631.034 959.758 631.75 959.304 633.087 958.534Z"/><path fill="#2B2321" transform="scale(0.195312 0.195312)" d="M587.728 887.533C589.052 888.373 590.853 896.557 590.895 898.502L591.512 896.667L592.098 896.782C593.568 900.419 596.668 907.126 597.819 910.507C599.484 915.398 611.259 929.54 611.878 932.345C611.31 933.259 610.474 934.497 610.037 935.436C609.564 935.297 608.185 934.774 607.922 934.466C598.625 923.594 588.816 901.451 587.728 887.533Z"/><path fill="#2B2321" transform="scale(0.195312 0.195312)" d="M621.334 944.402C624.745 946.99 629.105 954.291 630.771 955.147L633.087 958.534C631.75 959.304 631.034 959.758 629.56 960.301L627.954 961.66C626.759 959.963 625.977 959.764 624.141 958.985L623.702 959.033L623.294 957.507C620.181 955.133 618.765 954.233 617.699 950.515C616.638 949.477 616.615 949.526 615.934 948.229C616.339 946.71 617.331 946.252 618.633 945.282C618.832 945.168 620.966 944.518 621.334 944.402Z"/><path fill="#908057" transform="scale(0.195312 0.195312)" d="M625.48 957.782C627.442 956.615 628.666 956.077 630.771 955.147L633.087 958.534C631.75 959.304 631.034 959.758 629.56 960.301L627.954 961.66C626.759 959.963 625.977 959.764 624.141 958.985L625.48 957.782Z"/><path fill="#383022" transform="scale(0.195312 0.195312)" d="M617.699 950.515C618.312 951.315 618.809 952.35 619.675 952.599C622.961 953.547 623.678 955.294 625.48 957.782L624.141 958.985L623.702 959.033L623.294 957.507C620.181 955.133 618.765 954.233 617.699 950.515Z"/><path fill="#2B2321" transform="scale(0.195312 0.195312)" d="M612.402 725.153L612.83 725.394L612.565 724.102C613.78 724.221 614.321 724.717 615.379 725.369C615.627 730.493 616.818 743.135 614.321 747.16L613.249 746.173C612.728 742.723 612.37 728.818 612.402 725.153Z"/><path fill="#520204" transform="scale(0.195312 0.195312)" d="M660.89 979.986C658.942 979.32 658.017 979.009 656.823 977.424C653.555 973.084 649.327 969.887 646.664 965.066L646.844 964.765C648.799 966.343 649.114 967.222 650.157 969.435L650.493 970.154C650.993 970.477 651.495 970.796 651.999 971.112C653.568 972.087 653.751 972.478 655.159 972.154L655.347 970.623C656.561 972.009 658.304 974.199 659.757 975.177L660.89 979.986Z"/><path fill="#350202" transform="scale(0.195312 0.195312)" d="M602.901 717.952C605.735 717.73 606.817 717.491 609.267 718.929C611.289 720.116 614.666 722.264 615.208 724.673L615.379 725.369C614.321 724.717 613.78 724.221 612.565 724.102L612.83 725.394L612.402 725.153C609.923 722.591 606.191 719.356 602.901 717.952Z"/><path fill="#7A080D" transform="scale(0.195312 0.195312)" d="M595.187 872.518C595.073 869.227 595.937 866.524 597.203 863.514L598.033 863.811C599.014 864.913 599.911 865.909 600.95 866.967C598.933 868.837 597.107 870.543 595.187 872.518Z"/><path fill="#940D14" transform="scale(0.195312 0.195312)" d="M622.112 862.582L622.94 862.329C624.036 863.187 624.148 863.215 625.42 863.81L626.742 863.324C626.756 861.617 626.157 861.02 625.234 859.554L624.872 858.989L624.984 858.5C625.686 858.248 643.703 839.752 647.067 837.292C661.238 826.928 680.877 812.735 697.582 807.087C704.216 810.142 712.026 813.883 719.013 815.864C718.266 821.341 718.271 827.571 717.9 833.175C717.187 843.598 716.235 854.005 715.047 864.385C712.861 883.117 708.656 901.869 706.382 920.098C705.056 920.357 702.539 919.24 701.332 918.533C680.467 906.297 659.497 896.006 637.669 885.634C637.151 885.273 636.143 884.722 635.56 884.377C634.953 881.365 634.264 878.34 632.729 875.674C630.715 870.94 628.077 869.615 624.496 866.096C623.874 864.123 623.164 865.869 622.112 862.582Z"/><path fill="#5D0303" transform="scale(0.195312 0.195312)" d="M716.883 751.386L718.762 750.119C718.996 755.995 716.245 753.688 715.45 757.74C715.822 758.964 715.866 758.901 716.706 759.895C715.298 761.344 713.525 762.504 712.341 763.84C709.13 766.352 705.263 769.411 701.895 771.602C697.78 772.111 692.101 779.087 687.905 781.139C686.518 781.817 680.262 787.186 679.85 788.872L678.926 791.335C680.21 793.93 689.139 795.814 692.478 797.01C695.278 797.823 698.949 800.346 701.94 801.553C707.101 803.636 712.263 805.78 717.438 807.833C720.026 808.86 719.295 811.829 719.153 814.176L719.013 815.864C712.026 813.883 704.216 810.142 697.582 807.087C680.877 812.735 661.238 826.928 647.067 837.292C643.703 839.752 625.686 858.248 624.984 858.5L624.872 858.989L625.234 859.554C626.157 861.02 626.756 861.617 626.742 863.324L625.42 863.81C624.148 863.215 624.036 863.187 622.94 862.329L622.112 862.582C623.164 865.869 623.874 864.123 624.496 866.096C623.699 865.912 619.729 864.202 618.642 863.758C616.38 863.479 612.916 863.436 610.556 863.332C614.862 856.688 617.717 848.771 622.713 842.241C648.131 809.024 682.929 775.688 716.883 751.386Z"/><path fill="#7A080D" transform="scale(0.195312 0.195312)" d="M622.815 853.57C628.771 843.762 642.801 827.241 650.652 818.559C655.568 813.123 662.267 807.641 667.626 801.505L668.284 800.745C669.067 800.588 669.552 800.479 670.305 800.287C672.09 797.864 672.832 796.53 675.514 795.042C680.291 797.097 692.5 804.226 697.582 807.087C680.877 812.735 661.238 826.928 647.067 837.292C643.703 839.752 625.686 858.248 624.984 858.5L624.872 858.989L625.234 859.554C626.157 861.02 626.756 861.617 626.742 863.324L625.42 863.81C624.148 863.215 624.036 863.187 622.94 862.329L622.112 862.582C625.353 856.855 621.288 859.719 622.815 853.57Z"/><path fill="#520204" transform="scale(0.195312 0.195312)" d="M719.153 814.176C718.501 813.547 717.526 812.611 716.93 811.983C714.634 809.565 716.72 809.779 716.762 808.361C714.913 809.093 701.242 807.445 699.223 806.673C693.905 804.641 680.324 796.366 677.612 791.705C678.044 790.129 678.451 790.192 679.85 788.872L678.926 791.335C680.21 793.93 689.139 795.814 692.478 797.01C695.278 797.823 698.949 800.346 701.94 801.553C707.101 803.636 712.263 805.78 717.438 807.833C720.026 808.86 719.295 811.829 719.153 814.176Z"/><path fill="#7A080D" transform="scale(0.195312 0.195312)" d="M622.815 853.57C621.288 859.719 625.353 856.855 622.112 862.582C623.164 865.869 623.874 864.123 624.496 866.096C623.699 865.912 619.729 864.202 618.642 863.758C620.267 863.447 619.767 863.876 620.526 862.844L619.578 860.949C619.581 857.254 620.484 856.58 622.815 853.57Z"/><path fill="#A7151D" transform="scale(0.195312 0.195312)" d="M598.033 863.811C600.459 858.419 603.909 849.467 608.336 845.952C613.591 841.78 615.922 833.497 620.849 827.742C626.01 821.713 631.21 816.563 636.771 810.958C650.662 796.948 665.416 783.821 680.946 771.653C684.845 768.651 714.381 747.242 715.813 747.236C716.954 748.705 716.627 749.179 716.883 751.386C682.929 775.688 648.131 809.024 622.713 842.241C617.717 848.771 614.862 856.688 610.556 863.332L609.714 863.618C606.276 864.269 603.878 865.01 600.95 866.967C599.911 865.909 599.014 864.913 598.033 863.811Z"/><path fill="#490202" transform="scale(0.195312 0.195312)" d="M685.813 669.177L688.242 667.415C691.325 671.648 696.211 671.94 700.634 675.783C707.432 679.109 710.116 681.202 716.188 684.755C716.673 688.108 717.051 690.196 716.935 693.587C713.048 688.67 687.666 677.767 680.886 674.729C680.58 674.246 680.273 673.764 679.966 673.282L685.813 669.177Z"/><path fill="#350202" transform="scale(0.195312 0.195312)" d="M685.813 669.177L688.242 667.415C691.325 671.648 696.211 671.94 700.634 675.783C698.004 675.56 692.398 674.54 689.919 673.651C687.222 672.685 686.802 671.686 685.813 669.177Z"/><path fill="#1B1C1F" transform="scale(0.195312 0.195312)" d="M432.031 714.074C488.698 733.264 538.471 730.6 595.133 714.684L595.356 714.068C596.456 717.859 599.437 716.445 602.901 717.952C606.191 719.356 609.923 722.591 612.402 725.153C612.37 728.818 612.728 742.723 613.249 746.173L614.321 747.16L614.253 747.697C614.177 749.467 614.018 751.541 614.113 753.283C615.551 769.83 614.928 777.187 632.581 784.912C626.515 795.204 620.297 805.406 613.929 815.514C612.287 818.144 609.762 823.072 607.812 824.96C605.103 825 602.796 827.313 600.842 828.344C589.13 834.526 545.916 851.57 534.239 850.882L532.122 852.332C531.243 858.473 507.474 886.922 502.944 897.63C498.747 907.553 500.526 966.117 500.524 979.538C500.522 994.355 499.997 1009.19 500.324 1024L496.356 1024L484.154 1024L476.571 1024L466.605 1024L454.979 1024L344.161 1024C351.518 1015.15 362.481 1006.46 370.564 997.869C380.396 987.422 389.043 976.753 398.079 965.625C398.717 964.84 398.993 966.348 400.422 964.735C399.097 962.816 398.309 962.009 397.89 959.723C396.907 959.467 395.96 959.183 394.987 958.898L397.806 955.441C400.371 956.58 401.452 956.975 403.722 958.744C406.718 955.418 409.304 951.346 412.39 948.281C413.493 947.186 412.837 948.73 413.475 946.317C415.453 946.646 417.001 947.07 418.965 946.718C420.394 945.665 419.939 946.017 420.452 943.784C419.987 943.257 418.507 942.17 417.815 941.486C416.587 939.608 415.898 939.064 414.921 936.907C414.754 934.967 415.767 933.833 416.809 932.099C419.082 929.459 421.532 924.797 423.46 921.686C430.892 909.69 436.067 900.806 440.961 887.392C447.193 869.164 428.017 839.56 419.595 823.681C413.123 814.318 407.68 804.388 401.946 794.557C400.092 791.379 398.696 788.996 396.295 786.195C403.973 782.497 412.065 775.899 413.691 767.242C414.589 762.465 414.025 758.052 414.865 753.425C414.168 751.784 414.14 748.723 414.072 746.883L413.919 746.604C415.406 738.167 411.056 716.467 424.648 719.61L425.682 718.198C428.053 717.692 429.74 718.081 432.151 718.374L432.031 714.074Z"/><path fill="#3C3C3B" transform="scale(0.195312 0.195312)" d="M419.595 823.681C420.442 823.794 434.846 831.704 437.605 832.941C452.254 839.508 468.35 845.931 484.146 848.882C487.259 849.463 488.251 850.317 491.699 850.462L492.236 850.044C492.281 848.8 492.281 847.13 492.443 845.935C493.01 848.365 493.659 852.119 496.754 852.234C498.131 851.108 497.808 851.499 498.32 849.109C498.798 850.408 498.718 850.461 498.733 851.872C500.641 853.406 504.369 852.231 506.215 853.803C499.002 864.602 488.686 877.978 482.337 889.023C477.495 897.447 478.467 922.461 478.338 932.743L477.819 963.169C477.58 977.935 476.835 994.627 476.83 1009.21C476.937 1014.54 476.603 1018.89 476.571 1024L466.605 1024L454.979 1024L344.161 1024C351.518 1015.15 362.481 1006.46 370.564 997.869C380.396 987.422 389.043 976.753 398.079 965.625C398.717 964.84 398.993 966.348 400.422 964.735C399.097 962.816 398.309 962.009 397.89 959.723C396.907 959.467 395.96 959.183 394.987 958.898L397.806 955.441C400.371 956.58 401.452 956.975 403.722 958.744C406.718 955.418 409.304 951.346 412.39 948.281C413.493 947.186 412.837 948.73 413.475 946.317C415.453 946.646 417.001 947.07 418.965 946.718C420.394 945.665 419.939 946.017 420.452 943.784C419.987 943.257 418.507 942.17 417.815 941.486C416.587 939.608 415.898 939.064 414.921 936.907C414.754 934.967 415.767 933.833 416.809 932.099C419.082 929.459 421.532 924.797 423.46 921.686C430.892 909.69 436.067 900.806 440.961 887.392C447.193 869.164 428.017 839.56 419.595 823.681Z"/><path fill="#3C3C3B" transform="scale(0.195312 0.195312)" d="M420.452 943.784C428.903 948.796 437.089 948.754 446.672 948.141C443.09 953.332 441.629 955.418 442.164 961.835C444.951 972.801 452.703 978.954 459.21 987.851C461.776 991.359 463.22 993.833 465.309 997.603C457.782 996.867 453.29 997.058 447.006 1002.19C445.167 1003.72 443.388 1005.32 441.673 1006.99C441.403 995.926 434.966 987.343 423.227 987.489C418.77 987.545 414.827 989.068 410.661 990.479C411.332 987.719 411.961 985.594 412.042 982.725C412.752 974.524 412.449 969.73 407.546 962.764C406.553 961.393 404.969 959.959 403.722 958.744C406.718 955.418 409.304 951.346 412.39 948.281C413.493 947.186 412.837 948.73 413.475 946.317C415.453 946.646 417.001 947.07 418.965 946.718C420.394 945.665 419.939 946.017 420.452 943.784Z"/><path fill="#ACA375" transform="scale(0.195312 0.195312)" d="M397.806 955.441C400.371 956.58 401.452 956.975 403.722 958.744C404.969 959.959 406.553 961.393 407.546 962.764C412.449 969.73 412.752 974.524 412.042 982.725C411.961 985.594 411.332 987.719 410.661 990.479C414.827 989.068 418.77 987.545 423.227 987.489C434.966 987.343 441.403 995.926 441.673 1006.99C443.388 1005.32 445.167 1003.72 447.006 1002.19C453.29 997.058 457.782 996.867 465.309 997.603C463.22 993.833 461.776 991.359 459.21 987.851C452.703 978.954 444.951 972.801 442.164 961.835C444.256 961.737 443.822 962.042 445.413 961.076C445.93 959.728 446.357 958.799 446.965 957.506C447.437 973.255 466.292 982.466 471.019 1003.27C453.664 999.532 447.708 1003.01 438.113 1017.83C437.884 1006.4 437.656 991.249 421.718 991.749C415.283 991.951 412.258 994.509 406.545 996.694C405.055 997.627 404.933 997.823 403.184 998.221C402.889 996.395 407.011 986.903 407.275 982.12C407.744 973.638 407.363 969.738 402.007 962.867C400.485 961.447 399.634 960.903 397.89 959.723C396.907 959.467 395.96 959.183 394.987 958.898L397.806 955.441Z"/><path fill="#B6AF80" transform="scale(0.195312 0.195312)" d="M416.809 932.099L418.831 936.687C429.56 946.356 441.183 943.67 454.937 943.453C451.414 949.101 448.944 950.983 446.965 957.506C446.357 958.799 445.93 959.728 445.413 961.076C443.822 962.042 444.256 961.737 442.164 961.835C441.629 955.418 443.09 953.332 446.672 948.141C437.089 948.754 428.903 948.796 420.452 943.784C419.987 943.257 418.507 942.17 417.815 941.486C416.587 939.608 415.898 939.064 414.921 936.907C414.754 934.967 415.767 933.833 416.809 932.099Z"/><path fill="#2B2321" transform="scale(0.195312 0.195312)" d="M440.961 887.392C440.945 889.16 440.884 893.141 440.487 894.701C438.189 903.712 426.721 932.963 418.831 936.687L416.809 932.099C419.082 929.459 421.532 924.797 423.46 921.686C430.892 909.69 436.067 900.806 440.961 887.392Z"/><path fill="#ACA375" transform="scale(0.195312 0.195312)" d="M454.979 1024C456.27 1023.07 458.87 1022.67 460.504 1022.01C468.07 1018.96 471.084 1016.61 474.525 1009.37C474.387 1012.01 474.171 1014.74 473.992 1017.39C471.478 1020.58 470.19 1021.78 466.605 1024L454.979 1024Z"/><path fill="#383022" transform="scale(0.195312 0.195312)" d="M473.992 1017.39C474.336 1018.09 474.042 1018.56 473.871 1019.65L474.41 1019.89C475.138 1021.53 474.674 1021.15 475.938 1022.08C476.005 1018.38 475.857 1012.68 476.83 1009.21C476.937 1014.54 476.603 1018.89 476.571 1024L466.605 1024C470.19 1021.78 471.478 1020.58 473.992 1017.39Z"/><defs><linearGradient id="gradient_6" gradientUnits="userSpaceOnUse" x1="513.85699" y1="711.86945" x2="507.74725" y2="846.73938"><stop offset="0" stop-color="#B2A0B2"/><stop offset="1" stop-color="#D2CCD9"/></linearGradient></defs><path fill="url(#gradient_6)" transform="scale(0.195312 0.195312)" d="M432.031 714.074C488.698 733.264 538.471 730.6 595.133 714.684C595.338 720.747 595.049 729.434 594.59 735.543C582.248 743.757 568.042 746.717 555.848 754.618C530.2 771.238 526.63 799.692 520.492 827C519.019 833.556 515.608 843.051 513.258 849.461C510.732 841.435 507.727 832.184 505.978 823.934C500.101 796.202 496.341 767.392 468.623 752.596C458.94 747.427 440.084 741.754 432.924 735.103C432.218 729.342 432.511 724.032 432.151 718.374L432.031 714.074Z"/><path fill="#1B1C1F" transform="scale(0.195312 0.195312)" d="M614.113 753.283C615.551 769.83 614.928 777.187 632.581 784.912C626.515 795.204 620.297 805.406 613.929 815.514C612.287 818.144 609.762 823.072 607.812 824.96C605.103 825 602.796 827.313 600.842 828.344C589.13 834.526 545.916 851.57 534.239 850.882C535.788 845.647 537.865 830.97 539.148 824.542C541.448 813.019 543.319 809.998 546.5 799.82L546.765 798.958C553.459 789.054 551.764 789.01 561.385 779.063C570.682 771.946 581.348 770.12 591.995 765.899C600.532 762.516 606.753 758.488 614.113 753.283Z"/><path fill="#1B1C1F" transform="scale(0.195312 0.195312)" d="M414.865 753.425C424.948 762.479 435.998 766.942 448.885 770.511C482.632 779.854 488.09 815.53 492.443 845.935C492.281 847.13 492.281 848.8 492.236 850.044L491.699 850.462C488.251 850.317 487.259 849.463 484.146 848.882C468.35 845.931 452.254 839.508 437.605 832.941C434.846 831.704 420.442 823.794 419.595 823.681C413.123 814.318 407.68 804.388 401.946 794.557C400.092 791.379 398.696 788.996 396.295 786.195C403.973 782.497 412.065 775.899 413.691 767.242C414.589 762.465 414.025 758.052 414.865 753.425Z"/><path fill="#3C3C3B" transform="scale(0.195312 0.195312)" d="M484.154 1024L484.45 944.963C484.473 933.973 483.812 906.281 485.67 896.364C486.649 891.145 507.546 862.031 512.483 856.557C515.483 853.231 524.064 853.97 529.791 852.552C519.685 866.2 508.195 879.88 500.026 894.82C498.463 897.678 497.567 909.114 497.593 912.403C497.894 949.576 496.372 986.862 496.356 1024L484.154 1024Z"/><path fill="#908057" transform="scale(0.195312 0.195312)" d="M414.072 746.883C417.747 749.876 422.105 753.964 426.231 756.27C434.205 760.726 444.873 763.967 453.532 766.861C481.351 776.156 489.49 801.365 494.252 827.576C495.221 832.913 496.936 844.243 498.32 849.109C497.808 851.499 498.131 851.108 496.754 852.234C493.659 852.119 493.01 848.365 492.443 845.935C488.09 815.53 482.632 779.854 448.885 770.511C435.998 766.942 424.948 762.479 414.865 753.425C414.168 751.784 414.14 748.723 414.072 746.883Z"/><path fill="#908057" transform="scale(0.195312 0.195312)" d="M536.835 813.338C541.889 793.89 552.291 774.444 572.279 767.591C580.425 764.797 590.457 761.897 598.208 758.135C601.838 756.373 609.947 750.115 613.418 747.438L614.253 747.697C614.177 749.467 614.018 751.541 614.113 753.283C606.753 758.488 600.532 762.516 591.995 765.899C581.348 770.12 570.682 771.946 561.385 779.063C551.764 789.01 553.459 789.054 546.765 798.958L546.5 799.82C543.319 809.998 541.448 813.019 539.148 824.542C537.865 830.97 535.788 845.647 534.239 850.882L532.122 852.332C530.947 851.835 530.986 851.839 530.001 851.015C529.411 849.249 530.124 847.076 530.516 845.168C532.461 834.304 534.262 824.054 536.835 813.338Z"/><path fill="#89764D" transform="scale(0.195312 0.195312)" d="M530.516 845.168C532.461 834.304 534.262 824.054 536.835 813.338C538.687 819.17 538.832 818.988 535.553 825.098C532.771 830.282 534.271 842.104 530.516 845.168Z"/><path fill="#89764D" transform="scale(0.195312 0.195312)" d="M546.765 798.958C546.637 792.027 555.04 781.001 561.385 779.063C551.764 789.01 553.459 789.054 546.765 798.958Z"/><path fill="#490202" transform="scale(0.195312 0.195312)" d="M340.821 668.815C359.915 681.825 380.2 692.994 401.404 702.173C406.913 704.583 412.487 706.84 418.12 708.941C420.214 709.731 426.289 711.842 428.047 712.759L432.031 714.074L432.151 718.374C429.74 718.081 428.053 717.692 425.682 718.198L424.648 719.61C411.056 716.467 415.406 738.167 413.919 746.604L414.072 746.883C414.14 748.723 414.168 751.784 414.865 753.425C414.025 758.052 414.589 762.465 413.691 767.242C412.065 775.899 403.973 782.497 396.295 786.195C398.696 788.996 400.092 791.379 401.946 794.557C407.68 804.388 413.123 814.318 419.595 823.681C428.017 839.56 447.193 869.164 440.961 887.392C436.067 900.806 430.892 909.69 423.46 921.686C421.532 924.797 419.082 929.459 416.809 932.099C415.767 933.833 414.754 934.967 414.921 936.907C415.898 939.064 416.587 939.608 417.815 941.486C418.507 942.17 419.987 943.257 420.452 943.784C419.939 946.017 420.394 945.665 418.965 946.718C417.001 947.07 415.453 946.646 413.475 946.317C412.837 948.73 413.493 947.186 412.39 948.281C409.304 951.346 406.718 955.418 403.722 958.744C401.452 956.975 400.371 956.58 397.806 955.441L394.987 958.898C395.96 959.183 396.907 959.467 397.89 959.723C398.309 962.009 399.097 962.816 400.422 964.735C398.993 966.348 398.717 964.84 398.079 965.625C389.043 976.753 380.396 987.422 370.564 997.869C362.481 1006.46 351.518 1015.15 344.161 1024L328.629 1024L318.329 1024L315.146 1024L307.874 1024C315.989 1012.54 320.581 1004.43 323.31 990.275C324.249 985.407 324.813 979.908 325.906 975.161L326.03 974.638C327.17 962.907 325.224 940.709 323.736 928.93C322.597 922.598 321.59 916.763 320.919 910.354C319.298 896.958 315.931 882.359 314.174 868.478C311.872 850.296 311.128 834.364 309.961 816.272C309.74 813.716 309.653 811.261 309.554 808.703C315.222 805.534 318.323 804.967 324.365 802.764C326.988 801.808 331.854 798.853 334.423 797.325C337.699 797.441 345.404 793.349 349.259 791.719C348.322 787.898 338.448 780.655 336.316 777.986C336.203 776.388 336.215 776.152 336.887 774.7C335.033 771.932 331.486 771.413 328.768 769.663L328.382 769.409C326.959 768.197 323.387 763.876 322.823 763.594C316.475 760.422 316.731 762.959 311.95 757.149C311.655 755.135 311.371 753.119 311.097 751.102L310.829 750.902C310.198 749.204 310.516 746.705 310.602 744.814L310.454 738.788C310.474 724.691 311.954 709.733 311.952 695.473C307.843 681.269 332.705 676.598 340.039 670.718C340.352 669.956 340.613 669.321 340.821 668.815Z"/><path fill="#940D14" transform="scale(0.195312 0.195312)" d="M353.192 793.889C357.626 800.096 363.387 803.884 368.828 809.076C377.295 817.155 384.882 825.866 392.293 834.9C399.433 843.604 406.122 849.992 409.528 861.077C409.994 862.023 410.629 863.428 411.153 864.292L409.138 864.937L405.646 866.575C404.09 867.684 402.541 868.804 401 869.934L400.893 874.456C400.338 875.638 399.884 876.601 399.235 877.749C396.905 878.046 396.249 877.966 394.3 879.127C393.311 883.488 392.956 885.095 392.882 889.664L393.195 891.134C385.364 892.038 329.121 921.367 324.108 927.03L323.736 928.93C322.597 922.598 321.59 916.763 320.919 910.354C319.298 896.958 315.931 882.359 314.174 868.478C311.872 850.296 311.128 834.364 309.961 816.272C316.668 813.9 323.316 810.631 329.906 807.821C338.037 802.927 345.535 800.192 353.192 793.889Z"/><path fill="#5D0303" transform="scale(0.195312 0.195312)" d="M386.469 887.561C388.144 886.926 389.741 886.309 391.445 885.759C392.972 886.65 392.699 887.911 392.882 889.664L393.195 891.134C385.364 892.038 329.121 921.367 324.108 927.03L323.736 928.93C322.597 922.598 321.59 916.763 320.919 910.354C322.816 914.204 322.623 918.223 323.711 920.158L323.502 913.437C323.991 915.924 324.456 918.416 324.896 920.912C328.408 917.805 335.389 914.16 339.7 911.732C355.042 903.204 370.639 895.143 386.469 887.561Z"/><path fill="#7A080D" transform="scale(0.195312 0.195312)" d="M353.192 793.889C357.626 800.096 363.387 803.884 368.828 809.076C377.295 817.155 384.882 825.866 392.293 834.9C399.433 843.604 406.122 849.992 409.528 861.077C409.994 862.023 410.629 863.428 411.153 864.292L409.138 864.937C407.617 864.236 406.702 863.755 405.24 862.928L404.919 862.848C404.494 859.899 398.642 853.81 397.371 848.719C394.73 847.801 392.134 846.23 392.432 843.096L393.011 843.187L395.427 847.426C395.737 846.279 396.047 845.131 396.358 843.984C397.505 843.391 397.304 844.033 397.842 842.857C396.664 841.778 394.837 842.089 392.685 841.762L392.869 841.176C394.399 841.061 394.39 841.138 395.862 840.743C384.181 827.544 374.468 813.932 360.346 803.085C358.274 801.494 355.325 797.983 353.099 795.976C346.469 798.017 337.489 807.169 329.906 807.821C338.037 802.927 345.535 800.192 353.192 793.889Z"/><path fill="#520204" transform="scale(0.195312 0.195312)" d="M405.24 862.928C406.928 861.294 407.283 861.302 409.528 861.077C409.994 862.023 410.629 863.428 411.153 864.292L409.138 864.937C407.617 864.236 406.702 863.755 405.24 862.928Z"/><path fill="#7A080D" transform="scale(0.195312 0.195312)" d="M404.919 862.848L405.24 862.928C406.702 863.755 407.617 864.236 409.138 864.937L405.646 866.575C404.09 867.684 402.541 868.804 401 869.934L400.893 874.456C400.338 875.638 399.884 876.601 399.235 877.749C396.905 878.046 396.249 877.966 394.3 879.127C393.311 883.488 392.956 885.095 392.882 889.664C392.699 887.911 392.972 886.65 391.445 885.759C389.741 886.309 388.144 886.926 386.469 887.561L386.5 886.981C387.949 885.525 390.05 885.725 392.347 884.377C392.579 874.365 398.826 873.577 399.207 867.238L398.182 867.894L397.678 867.634C399.338 865.314 402.254 863.714 404.919 862.848Z"/><path fill="#785E5E" transform="scale(0.195312 0.195312)" d="M401 869.934L400.893 874.456C400.338 875.638 399.884 876.601 399.235 877.749C396.905 878.046 396.249 877.966 394.3 879.127C396.257 874.256 397.08 873.265 401 869.934Z"/><path fill="#7A080D" transform="scale(0.195312 0.195312)" d="M350.835 676.747C353.519 678.411 375.22 690.293 375.671 690.903C373.79 693.414 370.716 694.481 368.919 696.518C358.776 708.014 355.863 721.275 361.324 735.812C372.481 765.511 391.491 791.18 407.004 818.594C411.177 825.953 418.607 833.902 420.817 842.161C424.575 849.421 432.441 863.976 433.072 872.205L431.382 870.527C426.82 866.292 423.74 865.091 418.017 863.44C415.791 863.708 413.348 863.948 411.153 864.292C410.629 863.428 409.994 862.023 409.528 861.077C406.122 849.992 399.433 843.604 392.293 834.9C384.882 825.866 377.295 817.155 368.828 809.076C363.387 803.884 357.626 800.096 353.192 793.889C345.535 800.192 338.037 802.927 329.906 807.821C323.316 810.631 316.668 813.9 309.961 816.272C309.74 813.716 309.653 811.261 309.554 808.703C315.222 805.534 318.323 804.967 324.365 802.764C326.988 801.808 331.854 798.853 334.423 797.325C337.699 797.441 345.404 793.349 349.259 791.719C348.322 787.898 338.448 780.655 336.316 777.986C336.203 776.388 336.215 776.152 336.887 774.7C335.033 771.932 331.486 771.413 328.768 769.663L328.382 769.409C326.959 768.197 323.387 763.876 322.823 763.594C316.475 760.422 316.731 762.959 311.95 757.149C311.655 755.135 311.371 753.119 311.097 751.102L310.829 750.902C310.198 749.204 310.516 746.705 310.602 744.814L310.454 738.788C310.474 724.691 311.954 709.733 311.952 695.473C318.129 688.492 336.238 678.907 345.991 676.66C346.369 676.573 350.21 676.719 350.835 676.747Z"/><path fill="#A7151D" transform="scale(0.195312 0.195312)" d="M310.602 744.814C314.095 748.05 318.59 750.413 322.594 753C339.188 763.722 354.561 776.07 369.47 789.003C372.35 791.502 374.799 793.508 378.234 795.26C378.252 795.459 378.27 795.659 378.289 795.859C378.227 795.928 378.576 797.725 378.61 797.757C380.376 799.385 387.695 805.116 388.776 806.273C392.016 809.738 415.933 837.792 416.323 838.845L417.579 837.624C418.549 839.431 419.173 840.894 420.817 842.161C424.575 849.421 432.441 863.976 433.072 872.205L431.382 870.527C426.82 866.292 423.74 865.091 418.017 863.44C415.791 863.708 413.348 863.948 411.153 864.292C410.629 863.428 409.994 862.023 409.528 861.077C406.122 849.992 399.433 843.604 392.293 834.9C384.882 825.866 377.295 817.155 368.828 809.076C363.387 803.884 357.626 800.096 353.192 793.889C345.535 800.192 338.037 802.927 329.906 807.821C323.316 810.631 316.668 813.9 309.961 816.272C309.74 813.716 309.653 811.261 309.554 808.703C315.222 805.534 318.323 804.967 324.365 802.764C326.988 801.808 331.854 798.853 334.423 797.325C337.699 797.441 345.404 793.349 349.259 791.719C348.322 787.898 338.448 780.655 336.316 777.986C336.203 776.388 336.215 776.152 336.887 774.7C335.033 771.932 331.486 771.413 328.768 769.663L328.382 769.409C326.959 768.197 323.387 763.876 322.823 763.594C316.475 760.422 316.731 762.959 311.95 757.149C311.655 755.135 311.371 753.119 311.097 751.102L310.829 750.902C310.198 749.204 310.516 746.705 310.602 744.814Z"/><path fill="#5D0303" transform="scale(0.195312 0.195312)" d="M311.097 751.102C315.705 754.834 320.511 758.075 325.261 761.753C353.498 783.619 379.851 809.542 402.431 837.153C408.75 844.88 412.847 855.25 418.017 863.44C415.791 863.708 413.348 863.948 411.153 864.292C410.629 863.428 409.994 862.023 409.528 861.077C406.122 849.992 399.433 843.604 392.293 834.9C384.882 825.866 377.295 817.155 368.828 809.076C363.387 803.884 357.626 800.096 353.192 793.889C345.535 800.192 338.037 802.927 329.906 807.821C323.316 810.631 316.668 813.9 309.961 816.272C309.74 813.716 309.653 811.261 309.554 808.703C315.222 805.534 318.323 804.967 324.365 802.764C326.988 801.808 331.854 798.853 334.423 797.325C337.699 797.441 345.404 793.349 349.259 791.719C348.322 787.898 338.448 780.655 336.316 777.986C336.203 776.388 336.215 776.152 336.887 774.7C335.033 771.932 331.486 771.413 328.768 769.663L328.382 769.409C326.959 768.197 323.387 763.876 322.823 763.594C316.475 760.422 316.731 762.959 311.95 757.149C311.655 755.135 311.371 753.119 311.097 751.102Z"/><path fill="#940D14" transform="scale(0.195312 0.195312)" d="M393.195 891.134C394.81 895.472 396.02 897.658 398.922 901.317C405.305 906.993 414.336 909.843 422.627 906.783C421.274 909.447 420.358 912.716 418.853 914.665C402.232 940.392 382.878 961.776 361.524 983.51C353.612 991.562 343.427 998.748 335.999 1006.69C335.869 1007.27 335.738 1007.85 335.608 1008.43C330.48 1013.3 325.479 1018.38 319.97 1022.81C319.308 1023.34 319.06 1023.31 318.329 1024L315.146 1024L307.874 1024C315.989 1012.54 320.581 1004.43 323.31 990.275C324.249 985.407 324.813 979.908 325.906 975.161L326.03 974.638C327.17 962.907 325.224 940.709 323.736 928.93L324.108 927.03C329.121 921.367 385.364 892.038 393.195 891.134Z"/><path fill="#7A080D" transform="scale(0.195312 0.195312)" d="M393.195 891.134C394.81 895.472 396.02 897.658 398.922 901.317C397.942 901.926 397.098 902.277 396.461 903.149C377.501 924.749 358.597 945.57 336.986 964.562C334.79 966.492 328.22 973.944 326.03 974.638C327.17 962.907 325.224 940.709 323.736 928.93L324.108 927.03C329.121 921.367 385.364 892.038 393.195 891.134Z"/><path fill="#7A080D" transform="scale(0.195312 0.195312)" d="M398.922 901.317C405.305 906.993 414.336 909.843 422.627 906.783C421.274 909.447 420.358 912.716 418.853 914.665C413.084 908.77 401.841 913.86 396.461 903.149C397.098 902.277 397.942 901.926 398.922 901.317Z"/><path fill="#520204" transform="scale(0.195312 0.195312)" d="M335.999 1006.69C335.869 1007.27 335.738 1007.85 335.608 1008.43C330.48 1013.3 325.479 1018.38 319.97 1022.81C319.308 1023.34 319.06 1023.31 318.329 1024L315.146 1024C319.824 1018.47 329.885 1011.36 335.999 1006.69Z"/><path fill="#919391" transform="scale(0.195312 0.195312)" d="M418.017 863.44C423.74 865.091 426.82 866.292 431.382 870.527L433.072 872.205C436.722 878.886 438.2 884.63 436.004 892.333C434.428 898.056 430.557 902.872 425.306 905.64C424.627 906.002 423.377 906.54 422.627 906.783C414.336 909.843 405.305 906.993 398.922 901.317C396.02 897.658 394.81 895.472 393.195 891.134L392.882 889.664C392.956 885.095 393.311 883.488 394.3 879.127C396.249 877.966 396.905 878.046 399.235 877.749C399.884 876.601 400.338 875.638 400.893 874.456L401 869.934C402.541 868.804 404.09 867.684 405.646 866.575L409.138 864.937L411.153 864.292C413.348 863.948 415.791 863.708 418.017 863.44Z"/><path fill="#615856" transform="scale(0.195312 0.195312)" d="M431.382 870.527L433.072 872.205C436.722 878.886 438.2 884.63 436.004 892.333C434.428 898.056 430.557 902.872 425.306 905.64C424.627 906.002 423.377 906.54 422.627 906.783C414.336 909.843 405.305 906.993 398.922 901.317C396.02 897.658 394.81 895.472 393.195 891.134L392.882 889.664C392.956 885.095 393.311 883.488 394.3 879.127C396.249 877.966 396.905 878.046 399.235 877.749C397.504 881.459 396.892 887.261 398.919 890.881C408.829 908.579 440.7 894.549 430.072 874.965C430.285 873.474 430.889 871.978 431.382 870.527Z"/><path fill="#785B5A" transform="scale(0.195312 0.195312)" d="M418.017 863.44C423.74 865.091 426.82 866.292 431.382 870.527C430.889 871.978 430.285 873.474 430.072 874.965C423.495 866.945 414.648 866.211 405.655 870.572L404.73 871.741L402.279 873.915L400.893 874.456L401 869.934C402.541 868.804 404.09 867.684 405.646 866.575L409.138 864.937L411.153 864.292C413.348 863.948 415.791 863.708 418.017 863.44Z"/><path fill="#EFEFEF" transform="scale(0.195312 0.195312)" d="M404.73 871.741C408.178 870.494 410.571 869.76 413.07 872.887C414.796 879.874 403.695 887.616 402.279 873.915L404.73 871.741Z"/><defs><linearGradient id="gradient_7" gradientUnits="userSpaceOnUse" x1="361.4339" y1="989.53204" x2="369.80386" y2="997.37762"><stop offset="0" stop-color="#2B1E1C"/><stop offset="1" stop-color="#222324"/></linearGradient></defs><path fill="url(#gradient_7)" transform="scale(0.195312 0.195312)" d="M328.629 1024C332.686 1018.26 338.899 1015.63 343.771 1011.13C357.696 998.251 371.349 984.907 384.208 970.961C387.255 967.657 392.005 961.318 394.987 958.898C395.96 959.183 396.907 959.467 397.89 959.723C398.309 962.009 399.097 962.816 400.422 964.735C398.993 966.348 398.717 964.84 398.079 965.625C389.043 976.753 380.396 987.422 370.564 997.869C362.481 1006.46 351.518 1015.15 344.161 1024L328.629 1024Z"/><path fill="#2B2321" transform="scale(0.195312 0.195312)" d="M406.548 945.26C408.861 945.588 411.17 945.94 413.475 946.317C412.837 948.73 413.493 947.186 412.39 948.281C409.304 951.346 406.718 955.418 403.722 958.744C401.452 956.975 400.371 956.58 397.806 955.441C398.897 952.905 404.362 947.125 406.548 945.26Z"/><path fill="#350202" transform="scale(0.195312 0.195312)" d="M428.047 712.759L432.031 714.074L432.151 718.374C429.74 718.081 428.053 717.692 425.682 718.198L424.648 719.61C411.056 716.467 415.406 738.167 413.919 746.604C411.901 742.946 412.044 734.139 412.812 729.967C415.932 713.018 427.884 718.708 431.356 716.277C430.88 714.562 429.652 714.03 428.047 712.759Z"/><path fill="#ACA375" transform="scale(0.195312 0.195312)" d="M417.815 941.486C418.507 942.17 419.987 943.257 420.452 943.784C419.939 946.017 420.394 945.665 418.965 946.718C417.001 947.07 415.453 946.646 413.475 946.317C411.17 945.94 408.861 945.588 406.548 945.26L410.096 941.118C412.24 941.52 415.939 942.431 417.815 941.486Z"/><defs><linearGradient id="gradient_8" gradientUnits="userSpaceOnUse" x1="202.14391" y1="1025.6116" x2="160.54327" y2="871.7691"><stop offset="0" stop-color="#740509"/><stop offset="1" stop-color="#B81722"/></linearGradient></defs><path fill="url(#gradient_8)" transform="scale(0.195312 0.195312)" d="M194.486 864.537C200.505 862.898 200.961 860.154 205.634 857.416C214.227 852.379 226.85 846.013 236.562 844.563C237.245 847.096 237.454 848.343 237.784 850.953C246.906 896.743 267.034 948.749 257.97 995.235C257.493 1000.09 255.228 1003.91 255.432 1007.61L253.17 1012.17C251.62 1015.89 249.859 1020.13 248.708 1024L221.402 1024L214.985 1024L118.163 1024L111.212 1024C111.452 1022.14 112.196 1019.22 112.631 1017.36C114.416 1014.27 122.254 991.981 124.298 986.922C135.251 959.822 146.811 928.963 162.014 904.052C167.069 892.454 180.589 877.523 189.526 868.75C191.144 867.792 193.035 865.866 194.486 864.537Z"/><path fill="#520204" transform="scale(0.195312 0.195312)" d="M194.486 864.537C200.505 862.898 200.961 860.154 205.634 857.416C214.227 852.379 226.85 846.013 236.562 844.563C237.245 847.096 237.454 848.343 237.784 850.953C235.067 850.061 220.153 857.762 216.593 859.43C205.685 864.541 194.858 872.448 186.9 881.55C184.462 884.348 176.063 896.437 174.802 897.506C148.991 940.063 136.681 978.643 118.163 1024L111.212 1024C111.452 1022.14 112.196 1019.22 112.631 1017.36C114.416 1014.27 122.254 991.981 124.298 986.922C135.251 959.822 146.811 928.963 162.014 904.052C167.069 892.454 180.589 877.523 189.526 868.75C191.144 867.792 193.035 865.866 194.486 864.537Z"/><path fill="#5D0303" transform="scale(0.195312 0.195312)" d="M174.802 897.506C174.662 895.378 177.236 892.354 178.568 890.41C177.645 890.133 177.537 892.32 175.078 893.027L174.932 892.472C177.848 886.156 181.61 884.821 186.9 881.55C184.462 884.348 176.063 896.437 174.802 897.506Z"/><path fill="#5D0303" transform="scale(0.195312 0.195312)" d="M214.985 1024C219.682 1019.72 226.41 1016.22 231.902 1012.72C240.744 1007.13 249.437 1001.29 257.97 995.235C257.493 1000.09 255.228 1003.91 255.432 1007.61L253.17 1012.17C251.62 1015.89 249.859 1020.13 248.708 1024L221.402 1024L214.985 1024Z"/><path fill="#7A080D" transform="scale(0.195312 0.195312)" d="M251.432 1007.65C252.254 1009.26 252.42 1010.61 253.17 1012.17C251.62 1015.89 249.859 1020.13 248.708 1024L221.402 1024C226.935 1020.19 244.189 1011.63 251.432 1007.65Z"/><path fill="#520204" transform="scale(0.195312 0.195312)" d="M251.432 1007.65C252.46 1006.52 252.954 1005.82 254.313 1005.1L255.054 1005.42L255.432 1007.61L253.17 1012.17C252.42 1010.61 252.254 1009.26 251.432 1007.65Z"/><defs><linearGradient id="gradient_9" gradientUnits="userSpaceOnUse" x1="824.19916" y1="1025.1115" x2="868.18323" y2="873.86389"><stop offset="0" stop-color="#740509"/><stop offset="1" stop-color="#B31721"/></linearGradient></defs><path fill="url(#gradient_9)" transform="scale(0.195312 0.195312)" d="M790.805 851.837C790.765 849.599 792.627 843.649 795.673 844.668C810.026 849.469 823.711 857.016 835.744 866.053C836.368 866.523 836.569 868.233 839.274 868.911C844.216 872.618 853.922 884.053 857.358 889.053C881.4 924.034 895.646 964.532 910.705 1003.88C912.874 1009.55 916.698 1018.29 917.399 1024L910.077 1024L814.452 1024L806.508 1024L780.216 1024C777.867 1018.95 775.384 1011.68 773.707 1006.4C772.721 1003.06 771.591 997.845 771.654 994.376C769.446 988.446 769.282 983.311 768.857 977.046C766.493 942.166 777.995 908.899 785.787 875.433C787.275 869.04 790.559 858.197 790.805 851.837Z"/><path fill="#490202" transform="scale(0.195312 0.195312)" d="M790.805 851.837C790.765 849.599 792.627 843.649 795.673 844.668C810.026 849.469 823.711 857.016 835.744 866.053C836.368 866.523 836.569 868.233 839.274 868.911C844.216 872.618 853.922 884.053 857.358 889.053C881.4 924.034 895.646 964.532 910.705 1003.88C912.874 1009.55 916.698 1018.29 917.399 1024L910.077 1024C901.938 1000.6 892.678 976.763 883.254 953.888C879.421 944.582 874.353 934.737 870.231 925.391C868.749 923.849 858.588 904.102 855.889 899.83C853.864 896.691 851.796 893.581 849.685 890.499C848.931 889.85 846.032 886.166 845.115 885.125C840.406 879.775 835.592 873.79 829.813 869.56C824.362 865.597 818.449 862.573 812.395 859.678C809.927 858.498 806.06 856.881 803.941 855.33L803.264 854.63C803.432 852.009 803.048 854.717 801.806 853.282L802.292 853.378L801.957 853.034L802.919 853.436L803.341 852.682C798.512 850.859 797.005 847.338 791.895 851.247L790.805 851.837Z"/><path fill="#5D0303" transform="scale(0.195312 0.195312)" d="M803.341 852.682C806.776 853.564 809.691 855.781 812.96 856.77C815.017 857.341 820.589 856.835 822.191 857.978C824.791 859.833 826.51 864.385 829.021 866.714C834.799 872.074 846.963 878.464 849.342 886.395C854.53 889.009 857.515 893.875 858.367 899.615C862.442 905.551 864.306 908.714 867.75 914.959C866.507 914.574 865.459 913.271 864.403 912.264C865.812 914.94 870.598 923.023 870.231 925.391C868.749 923.849 858.588 904.102 855.889 899.83C853.864 896.691 851.796 893.581 849.685 890.499C848.931 889.85 846.032 886.166 845.115 885.125C840.406 879.775 835.592 873.79 829.813 869.56C824.362 865.597 818.449 862.573 812.395 859.678C809.927 858.498 806.06 856.881 803.941 855.33L803.264 854.63C803.432 852.009 803.048 854.717 801.806 853.282L802.292 853.378L801.957 853.034L802.919 853.436L803.341 852.682Z"/><path fill="#7A080D" transform="scale(0.195312 0.195312)" d="M773.707 1006.4L774.152 1005.42C782.546 1009.77 798.607 1019.03 806.508 1024L780.216 1024C777.867 1018.95 775.384 1011.68 773.707 1006.4Z"/><path fill="#520204" transform="scale(0.195312 0.195312)" d="M771.654 994.376C776.406 999.529 782.126 1002.39 787.768 1006.42C796.435 1012.6 805.704 1018.08 814.452 1024L806.508 1024C798.607 1019.03 782.546 1009.77 774.152 1005.42L773.707 1006.4C772.721 1003.06 771.591 997.845 771.654 994.376Z"/><path fill="#7A080D" transform="scale(0.195312 0.195312)" d="M791.895 851.247C797.005 847.338 798.512 850.859 803.341 852.682L802.919 853.436L801.957 853.034L802.292 853.378L801.806 853.282C803.048 854.717 803.432 852.009 803.264 854.63L803.941 855.33C799.736 853.768 796.313 852.105 791.895 851.247Z"/><path fill="#ECE9EF" transform="scale(0.195312 0.195312)" d="M814.105 363.392C819.294 359.686 836.834 347.792 840.848 357.562C851.138 382.608 842.56 415.804 837.968 441.572C834.675 457.016 825.69 480.692 820.048 494.12C810.833 513.823 794.009 552.251 772.64 560.118C771.409 560.565 770.17 560.99 768.923 561.39C768.814 558.835 768.589 555.87 768.784 553.356C769.424 539.3 769.473 523.554 769.533 509.419C769.533 504.956 769.454 500.732 769.93 496.282C769.86 476.279 770.696 454.457 771.117 434.295L771.032 427.826C780.871 416.401 784.357 411.14 791.742 398.095C792.027 397.221 795.678 390.223 796.309 388.86C798.966 383.12 801.265 375.831 804.975 370.864C806.146 369.295 812.157 364.893 814.105 363.392Z"/><path fill="#C7BCC8" transform="scale(0.195312 0.195312)" d="M814.105 363.392C819.294 359.686 836.834 347.792 840.848 357.562C851.138 382.608 842.56 415.804 837.968 441.572C834.675 457.016 825.69 480.692 820.048 494.12C810.833 513.823 794.009 552.251 772.64 560.118C771.409 560.565 770.17 560.99 768.923 561.39C768.814 558.835 768.589 555.87 768.784 553.356C802.527 539.797 825.928 462.757 834.132 429.869C836.049 422.184 842.044 365.272 835.271 361.358C825.376 355.641 803.66 385.856 798.437 394.008C794.607 396.767 788.147 409.942 782.713 414.902C784.923 411.232 791.769 401.706 791.742 398.095C792.027 397.221 795.678 390.223 796.309 388.86C798.966 383.12 801.265 375.831 804.975 370.864C806.146 369.295 812.157 364.893 814.105 363.392Z"/><path fill="#C7BCC8" transform="scale(0.195312 0.195312)" d="M776.265 461.568C785.142 444.771 815.129 386.551 828.346 379.123L829.787 379.042L830.536 379.715C830.577 382.385 827.329 386.143 825.83 388.61C828.466 406.211 828.614 417.554 823.111 434.912C824.045 418.421 824.036 412.318 821.246 395.719C816.865 400.905 812.267 410.262 808.056 416.129C811.923 425.666 815.051 435.817 813.85 446.233C813.566 448.696 812.976 455.643 810.781 456.769C809.764 454.737 809.978 451.551 809.491 449.203C808.139 442.681 805.71 435.615 801.222 430.658C794.781 438.847 789.297 450.36 782.757 458.774C794.002 473.841 797.85 492.287 780.316 505.471C778.134 507.111 770.702 507.849 769.533 509.419C769.533 504.956 769.454 500.732 769.93 496.282C770.17 499.985 770.1 503.25 770.04 506.964C787.766 492.103 785.847 479.979 776.265 461.568Z"/><path fill="#EFEFEF" transform="scale(0.195312 0.195312)" d="M791.742 398.095C791.769 401.706 784.923 411.232 782.713 414.902C788.147 409.942 794.607 396.767 798.437 394.008C793.904 403.142 786.956 411.037 780.951 419.254C778.413 422.727 775.688 427.558 772.724 430.331C771.201 431.756 771.548 432.027 771.117 434.295L771.032 427.826C780.871 416.401 784.357 411.14 791.742 398.095Z"/><path fill="#ECE9EF" transform="scale(0.195312 0.195312)" d="M208.372 493.448C193.281 460.103 182.979 417.599 183.349 380.999C183.463 369.756 181.956 357.128 194.844 353.076C203.779 355.68 208.879 359.363 216.339 364.542C219.035 366.855 222.626 369.602 224.635 372.461C227.145 376.034 227.985 382.244 229.818 385.931C236.577 399.533 246.707 417.871 257.437 428.322L257.45 434.663C258.095 474.268 259.439 513.332 259.655 553.1L259.572 561.003C242.569 557.056 232.036 538.647 223.802 524.611C221.784 521.172 219.691 516.142 217.671 512.974L217.247 512.319C215.228 507.433 210.927 497.84 208.372 493.448Z"/><path fill="#C7BCC8" transform="scale(0.195312 0.195312)" d="M208.372 493.448C193.281 460.103 182.979 417.599 183.349 380.999C183.463 369.756 181.956 357.128 194.844 353.076C203.779 355.68 208.879 359.363 216.339 364.542C219.035 366.855 222.626 369.602 224.635 372.461C227.145 376.034 227.985 382.244 229.818 385.931C236.577 399.533 246.707 417.871 257.437 428.322L257.45 434.663C252.271 426.495 246.163 419.354 241.089 411.48C230.839 395.573 222.402 376.902 206.773 365.285C201.778 361.572 195.556 357.413 191.24 364.239C183.891 414.598 209.014 495.592 238.953 536.031C244.3 543.253 250.995 550.04 259.655 553.1L259.572 561.003C242.569 557.056 232.036 538.647 223.802 524.611C221.784 521.172 219.691 516.142 217.671 512.974L217.247 512.319C215.228 507.433 210.927 497.84 208.372 493.448Z"/><path fill="#C7BCC8" transform="scale(0.195312 0.195312)" d="M203.09 388.845C201.093 386.008 198.103 382.045 196.822 378.986L197.153 378.364C207.693 378.742 231.395 422.51 236.667 431.934C241.464 440.511 249.046 452.417 252.643 461.404C240.862 483.221 243.349 490.464 258.55 508.317C255.615 507.69 252.433 507.048 249.777 505.651C243.827 502.536 239.429 497.1 237.624 490.631C234.192 478.357 240.341 469.318 245.997 459.164C241.49 449.261 232.963 438.729 227.374 428.192C224.099 434.367 223.141 436.429 221.117 443.016C220.066 446.438 219.348 455.831 218.487 456.837C213.965 451.66 214.491 433.606 216.599 427.283C217.955 423.213 219.292 418.859 220.8 414.821C215.397 409.232 213.559 402.116 207.817 395.96C206.984 402.728 205.613 409.903 205.357 416.627C205.43 419.412 205.932 430.169 205.403 431.979C204.664 429.839 204.578 429.223 204.239 426.954C201.117 413.37 200.712 402.479 203.09 388.845Z"/><path fill="#C7BCC8" transform="scale(0.195312 0.195312)" d="M204.239 426.954C205.98 424.265 203.823 419.145 205.357 416.627C205.43 419.412 205.932 430.169 205.403 431.979C204.664 429.839 204.578 429.223 204.239 426.954Z"/><path fill="#010101" transform="scale(0.195312 0.195312)" d="M208.372 493.448C210.927 497.84 215.228 507.433 217.247 512.319L216.328 512.103L215.08 510.457L214.811 511.227L215.499 511.159C215.247 511.52 214.995 511.881 214.742 512.242C213.817 530.871 213.871 559.814 213.58 577.578C212.942 616.543 209.828 654.224 206.91 692.499L201.178 772.693C200.376 782.635 198.867 793.224 198.266 803.023C197.406 817.026 197.145 831.423 196.153 845.459C195.81 850.306 195.867 860.395 194.486 864.537C193.035 865.866 191.144 867.792 189.526 868.75C189.181 858.844 190.779 846.635 191.352 836.398C193.219 805.62 195.514 774.869 198.234 744.154C200.976 711.383 203.332 678.581 205.304 645.755C206.124 633.432 207.712 620.686 207.903 608.417C208.167 591.498 208.172 574.579 208.566 557.657C208.901 543.762 209.059 529.863 209.04 515.964C209.059 510.722 209.419 497.963 208.372 493.448Z"/><path fill="#350202" transform="scale(0.195312 0.195312)" d="M319.383 766.229C323.426 766.91 325.321 768.728 328.382 769.409L328.768 769.663C331.486 771.413 335.033 771.932 336.887 774.7C336.215 776.152 336.203 776.388 336.316 777.986C338.448 780.655 348.322 787.898 349.259 791.719C345.404 793.349 337.699 797.441 334.423 797.325C337.655 795.846 340.296 792.549 343.525 790.776C343.619 790.414 343.713 790.052 343.808 789.69C343.343 789.037 343.091 788.71 342.555 788.09L342.088 787.557L344.174 788.243C343.292 784.174 324.507 771.306 319.383 766.229Z"/><path fill="#350202" transform="scale(0.195312 0.195312)" d="M679.85 788.872C680.262 787.186 686.518 781.817 687.905 781.139C692.101 779.087 697.78 772.111 701.895 771.602C697.888 775.001 694.266 778.123 690.417 781.695C687.073 784.798 686.185 788.224 683.406 790.089C688.022 792.706 689.695 792.767 692.478 797.01C689.139 795.814 680.21 793.93 678.926 791.335L679.85 788.872Z"/><path fill="#490202" transform="scale(0.195312 0.195312)" d="M319.383 766.229C306.513 762.63 308.19 749.221 310.454 738.788L310.602 744.814C310.516 746.705 310.198 749.204 310.829 750.902L311.097 751.102C311.371 753.119 311.655 755.135 311.95 757.149C316.731 762.959 316.475 760.422 322.823 763.594C323.387 763.876 326.959 768.197 328.382 769.409C325.321 768.728 323.426 766.91 319.383 766.229Z"/><path fill="#350202" transform="scale(0.195312 0.195312)" d="M719.061 747.72C720.182 749.486 719.572 757.289 719.456 759.578C717.298 760.944 714.52 763.177 712.341 763.84C713.525 762.504 715.298 761.344 716.706 759.895C715.866 758.901 715.822 758.964 715.45 757.74C716.245 753.688 718.996 755.995 718.762 750.119L719.061 747.72Z"/></svg>