<?xml version="1.0" encoding="utf-8" ?><svg xmlns="http://www.w3.org/2000/svg" xmlns:xlink="http://www.w3.org/1999/xlink" width="200" height="200" viewBox="0 0 200 200"><path fill="#010101" transform="scale(0.195312 0.195312)" d="M478.736 53.2174C484.016 48.7696 505.49 40.3368 512.512 39.0137C520.931 41.7723 537.593 48.0088 544.705 52.6387C547.244 57.3349 548.971 62.4005 550.407 67.5332C619.651 76.087 681.225 101.145 725.073 157.385C748.059 186.868 759.896 218.834 769.793 254.351C775.736 275.677 781.33 294.767 791.989 314.26C797.423 324.199 801.26 330.898 802.524 342.431C798.295 349.021 795.413 354.876 787.524 357.275C787.921 374.704 788.971 392.224 787.584 409.589C784.818 444.239 779.997 478.405 781.571 513.271C781.566 523.599 783.66 534.072 780.816 544.206C770.343 581.626 745.112 614.889 713.042 636.606C705.84 641.483 687.092 655.177 679.22 646.034C676.627 643.022 677.428 624.406 677.471 619.719C668.94 625.189 660.422 630.761 651.538 635.65C649.318 636.872 647.495 637.757 645.548 639.437C645.464 642.179 647.991 645.844 647.514 649.244C647.514 649.24 647.527 651.882 647.523 652.18C656.623 652.098 661.661 653.464 668.723 659.78C687.812 655.837 695.419 659.272 711.442 668.978C723.872 669.076 730.032 670.854 740.213 678.062C744.419 678.414 751.073 678.924 755.284 680.618C767.709 685.617 782.667 693.345 792.012 703.074C796.056 707.284 797.99 713.392 801.375 718.044C806.527 724.114 811.499 729.509 816.028 736.116C827.23 752.455 833.476 770.885 836.787 790.278C837.823 796.346 838.818 801.201 837.752 807.295C864.578 863.976 894.915 918.443 919.674 976.09C925.932 990.66 934.229 1009.13 939.458 1024L933.992 1024L899.988 1024L847.686 1024L842.791 1024L785.444 1024L781.179 1024L769.058 1024L761.323 1024L741.454 1024L673.005 1024L618.148 1024L614.469 1024L544.729 1024L533.205 1024L489.269 1024L478.355 1024L408.77 1024L405.297 1024L350.69 1024L343.889 1024L281.182 1024L274.946 1024L255.737 1024L248.154 1024L236.883 1024L231.848 1024L174.37 1024L154.393 1024L127.833 1024L122.343 1024C123.549 1012.95 127.474 995.407 129.713 984.062C135.632 953.501 143.018 923.243 151.847 893.393C160.623 863.891 169.994 837.785 179.353 809.011C175.266 801.578 181.323 780.13 183.615 771.661C188.576 753.325 198.551 736.184 211.533 722.404C214.476 719.287 216.13 715.249 218.027 711.501C223.774 700.146 237.827 693.742 249.444 690.17C257.672 687.639 258.903 685.127 265.578 680.17C280.771 668.889 292.733 666.585 311.365 666.383C324.819 655.974 332.879 656.857 349.054 659.896C358.099 653.547 364.248 650.994 375.57 652.912C375.992 652.985 376.412 653.062 376.832 653.145C376.797 647.202 376.541 644.514 379.356 639.15C368.5 633.048 357.161 626.477 346.986 619.288C347.047 630.621 351.064 652.089 335.493 648.353C328.666 646.715 323.156 645.06 317.281 640.812C282.005 617.602 253.454 583.17 242.823 541.781C241.306 535.874 242.481 521.527 242.844 515.098C244.944 477.89 238.479 441.689 236.477 404.682C235.979 395.295 235.885 385.891 236.195 376.496C236.387 370.884 237.051 362.819 236.931 357.472C229.269 354.75 226.489 349.368 222.377 342.724C222.579 339.307 222.569 336.321 223.661 333.083L223.966 332.157C225.627 327.198 231.14 317.353 233.718 312.15C238.709 302.082 243.071 291.715 246.778 281.107C253.203 262.588 258.31 241.865 265.017 222.397C285.057 164.233 323.237 120.993 378.827 93.863C401.177 83.1827 424.877 75.5983 449.275 71.3192C457.483 69.8613 465.619 69.2136 473.465 67.8866C475.116 63.2616 476.883 57.6557 478.736 53.2174Z"/><path fill="#2B2B2B" transform="scale(0.195312 0.195312)" d="M390.014 960.055C393.277 957.74 404.075 949.53 407.41 949.998C409.229 956.236 414.758 971.852 418.113 977.018C434.263 1001.88 464.147 981.26 484.94 975.453C495.798 972.42 502.557 970.495 514.017 970.922C529.114 971.443 544.131 976.855 557.99 982.35C571.07 987.536 585.256 992.706 598.326 984.488C607.868 978.489 613.797 960.015 615.82 949.499C618.927 950.949 630.994 958.256 632.301 960.534C629.501 970.115 626.151 979.148 623.27 988.599C619.729 1000.24 616.791 1012.06 614.469 1024L544.729 1024L533.205 1024L489.269 1024L478.355 1024L408.77 1024C406.985 1016.92 405.719 1009.87 403.781 1002.58C399.868 988.193 395.274 974.003 390.014 960.055Z"/><path fill="#3C3C3C" transform="scale(0.195312 0.195312)" d="M478.355 1024C496.009 1016.79 527.204 1016.38 544.729 1024L533.205 1024L489.269 1024L478.355 1024Z"/><path fill="#010101" transform="scale(0.195312 0.195312)" d="M489.269 1024C504.993 1019.87 517.651 1020.48 533.205 1024L489.269 1024Z"/><path fill="#212121" transform="scale(0.195312 0.195312)" d="M823.624 811.033C826.982 810.955 830.949 810.764 834.255 810.834C840.661 826.128 849.555 843.18 857.023 858.084C871.421 886.24 885.485 914.565 899.213 943.055C907.631 960.787 915.625 978.717 923.189 996.831C925.236 1001.79 931.931 1020.17 933.992 1024L899.988 1024C898.805 1021.13 897.12 1014.99 896.122 1011.83C893.861 1004.78 891.55 997.733 889.187 990.708C881.152 966.985 872.027 943.098 862.79 919.824C854.06 897.828 841.388 877.276 831.338 855.887C829.519 852.016 827.659 848.152 826.248 844.108C828.224 836.909 825.02 818.931 823.624 811.033Z"/><path fill="#212121" transform="scale(0.195312 0.195312)" d="M184.498 810.493C187.553 810.855 190.614 811.157 193.681 811.399C191.568 820.274 187.535 839.397 191.597 847.394C172.967 904.777 160.496 963.979 154.393 1024L127.833 1024C129.637 1014.77 130.864 1005.21 132.649 995.988C135.157 983.027 137.804 969.813 140.676 956.932C148.673 922.314 158.316 888.098 169.572 854.4C174.361 839.74 178.975 824.895 184.498 810.493Z"/><path fill="#212121" transform="scale(0.195312 0.195312)" d="M639.13 947.955C652.152 954.67 666.658 963.152 679.422 970.54C677.003 987.838 675.587 1007.44 673.005 1024L618.148 1024C622.41 997.202 632.777 973.896 639.13 947.955Z"/><path fill="#212121" transform="scale(0.195312 0.195312)" d="M343.832 970.808C355.815 963.784 371.203 954.758 383.478 948.348C391.395 975.365 399.402 995.851 405.297 1024L350.69 1024C348.2 1007.83 345.475 987.115 343.832 970.808Z"/><path fill="#2B2B2B" transform="scale(0.195312 0.195312)" d="M735.048 994.537C753.803 989.876 771.955 985.921 789.56 977.638C801.849 986.714 811.971 987.958 826.72 988.91C827.957 988.99 828.233 989.041 828.875 989.937C827.781 990.853 823.657 991.053 821.97 991.433C801.803 995.984 775.204 1008.69 761.323 1024L741.454 1024C726.635 1008.81 732.235 1012.88 735.048 994.537Z"/><path fill="#2B2B2B" transform="scale(0.195312 0.195312)" d="M255.737 1024C240.996 1008.59 218.949 996.904 198.046 991.857C196.357 991.449 188.15 990.333 188.147 988.982C191.254 988.128 196.135 988.35 199.531 987.995C210.548 986.843 218.883 984.048 227.797 977.605C245.776 985.487 260.809 989.454 279.914 993.066C280.266 999.071 282.735 1004.69 283.562 1010.36C283.854 1012.37 276.101 1021.97 274.946 1024L255.737 1024Z"/><defs><linearGradient id="gradient_0" gradientUnits="userSpaceOnUse" x1="227.02554" y1="1021.8601" x2="176.39255" y2="1012.6129"><stop offset="0" stop-color="#1D1D1D"/><stop offset="1" stop-color="#373737"/></linearGradient></defs><path fill="url(#gradient_0)" transform="scale(0.195312 0.195312)" d="M178.426 1003.35C198.742 1005.41 214.936 1012.49 231.848 1024L174.37 1024C174.545 1017.13 176.511 1009.97 178.426 1003.35Z"/><path fill="#2B2B2B" transform="scale(0.195312 0.195312)" d="M785.444 1024C803.457 1012.76 816.659 1005.31 838.198 1003.99C840.059 1010.58 841.592 1017.26 842.791 1024L785.444 1024Z"/><defs><linearGradient id="gradient_1" gradientUnits="userSpaceOnUse" x1="210.90619" y1="1016.3638" x2="214.33775" y2="1001.39"><stop offset="0" stop-color="#212021"/><stop offset="1" stop-color="#403F40"/></linearGradient></defs><path fill="url(#gradient_1)" transform="scale(0.195312 0.195312)" d="M181.938 994.345C205.554 995.557 230.133 1009.37 248.154 1024L236.883 1024C217.481 1010.43 203.211 1002.81 179.406 1000.42C180.232 998.413 181.059 996.319 181.938 994.345Z"/><defs><linearGradient id="gradient_2" gradientUnits="userSpaceOnUse" x1="805.26758" y1="1016.15" x2="801.83447" y2="1002.2018"><stop offset="0" stop-color="#1F1E1F"/><stop offset="1" stop-color="#403F3F"/></linearGradient></defs><path fill="url(#gradient_2)" transform="scale(0.195312 0.195312)" d="M769.058 1024C784.019 1010.67 814.418 995.379 834.383 994.865C835.418 997.114 836.381 999.106 837.202 1001.45C819.796 1001.78 806.78 1007.64 791.906 1016.56C788.932 1018.35 783.644 1021.69 781.179 1024L769.058 1024Z"/><path fill="#2B2B2B" transform="scale(0.195312 0.195312)" d="M618.95 937.41C624.938 940.469 631.168 943.559 637.049 946.772C635.887 950.391 633.839 957.321 632.301 960.534C630.994 958.256 618.927 950.949 615.82 949.499C616.923 945.485 617.967 941.455 618.95 937.41Z"/><path fill="#2B2B2B" transform="scale(0.195312 0.195312)" d="M403.624 937.804C404.949 941.849 406.211 945.914 407.41 949.998C404.075 949.53 393.277 957.74 390.014 960.055C388.761 955.684 387.557 951.303 386.061 947.01C391.287 943.969 398.154 940.637 403.624 937.804Z"/><defs><linearGradient id="gradient_3" gradientUnits="userSpaceOnUse" x1="637.69055" y1="647.63348" x2="574.33618" y2="457.405"><stop offset="0" stop-color="#171717"/><stop offset="1" stop-color="#424242"/></linearGradient></defs><path fill="url(#gradient_3)" transform="scale(0.195312 0.195312)" d="M307.266 462.81C319.456 472.82 329.315 481.781 344.537 489.77C369.297 502.764 401.242 508.379 429.229 508.271C431.6 508.262 440.057 504.708 442.874 503.861L443.382 503.712C468.299 493.615 488.78 482.343 512.032 468.917C535.325 481.558 555.464 494.302 580.972 503.757L581.502 503.907C584.645 504.827 593.195 508.631 595.347 508.681C613.422 509.108 641.84 504.278 658.763 498.907C666.34 496.481 673.673 493.349 680.665 489.553C693.075 482.862 705.912 473.25 716.243 463.666C711.161 475.413 706.373 486.7 697.687 496.331C693.055 501.466 687.073 506.155 683.433 512.045C676.594 523.112 677.371 594.937 677.497 611.71C641.813 636.653 598.175 656.31 558.257 673.666C547.368 678.401 524.644 687.606 513.013 688.941L512.69 688.949C492.836 689.567 404.899 646.637 383.063 634.25C374.429 629.352 355.371 617.899 347.001 611.803C347.005 593.989 348.306 523.578 340.45 511.39C336.756 505.66 330.827 501.183 326.334 496.05C317.656 486.137 312.527 474.709 307.266 462.81Z"/><defs><linearGradient id="gradient_4" gradientUnits="userSpaceOnUse" x1="385.00745" y1="645.11389" x2="451.73895" y2="457.48987"><stop offset="0" stop-color="#181818"/><stop offset="1" stop-color="#3F3F3F"/></linearGradient></defs><path fill="url(#gradient_4)" transform="scale(0.195312 0.195312)" d="M307.266 462.81C319.456 472.82 329.315 481.781 344.537 489.77C369.297 502.764 401.242 508.379 429.229 508.271C431.6 508.262 440.057 504.708 442.874 503.861L443.382 503.712C451.455 504.944 483.432 488.394 491.696 484.325C496.807 481.809 503.633 477.425 509.377 476.254C507.697 537.58 508.098 598.945 510.58 660.244C510.672 663.05 511.396 685.934 512.128 687.126L513.013 688.941L512.69 688.949C492.836 689.567 404.899 646.637 383.063 634.25C374.429 629.352 355.371 617.899 347.001 611.803C347.005 593.989 348.306 523.578 340.45 511.39C336.756 505.66 330.827 501.183 326.334 496.05C317.656 486.137 312.527 474.709 307.266 462.81Z"/><path fill="#010101" transform="scale(0.195312 0.195312)" d="M456.029 644.725C456.25 655.257 435.641 651.569 434.808 628.778C434.376 616.95 430.182 596.4 430.269 582.59C430.386 563.699 425.285 540.668 433.016 522.632C434.162 519.949 439.35 519.108 441.473 520.669L440.932 521.004C444.159 521.513 446.283 521.842 448.348 524.672C449.954 526.873 450.797 532.158 450.966 534.949C451.733 547.611 451.16 560.449 451.908 573.121C452.514 583.834 453.35 594.533 454.413 605.21C455.584 616.995 457.7 630.251 457.387 642.111C457.349 643.563 456.239 644.068 456.029 644.725Z"/><path fill="#525152" transform="scale(0.195312 0.195312)" d="M456.029 644.725C456.25 655.257 435.641 651.569 434.808 628.778C434.376 616.95 430.182 596.4 430.269 582.59C430.386 563.699 425.285 540.668 433.016 522.632C434.162 519.949 439.35 519.108 441.473 520.669L440.932 521.004C438.355 522.282 436.345 523.71 435.33 526.515C430.176 540.751 435.128 625.858 441.908 639.681C443.265 642.447 445.592 644.631 448.53 645.612C451.239 646.516 453.021 646.276 455.523 645.002C455.694 644.915 455.86 644.818 456.029 644.725Z"/><path fill="#010101" transform="scale(0.195312 0.195312)" d="M409.007 626.9C408.969 627.225 408.983 627.559 408.893 627.873C408.506 629.233 407.02 630.07 405.765 630.423C403.002 631.2 400.476 630.704 398.041 629.234C393.117 626.261 391.483 621.644 390.091 616.376C386.05 601.092 375.581 533.731 383.635 521.135C384.522 519.748 386.34 518.424 388.017 518.324C389.23 518.252 389.598 518.658 390.402 519.412C392.826 520.159 397.09 520.717 397.969 523.157C400.674 530.658 400.447 543.929 400.961 551.503C401.786 564.045 403.174 576.545 405.121 588.963C406.105 595.075 411.935 620.164 410.239 624.63C409.948 625.395 409.454 625.938 409.077 626.633C409.033 626.714 409.03 626.811 409.007 626.9Z"/><path fill="#525152" transform="scale(0.195312 0.195312)" d="M409.007 626.9C408.969 627.225 408.983 627.559 408.893 627.873C408.506 629.233 407.02 630.07 405.765 630.423C403.002 631.2 400.476 630.704 398.041 629.234C393.117 626.261 391.483 621.644 390.091 616.376C386.05 601.092 375.581 533.731 383.635 521.135C384.522 519.748 386.34 518.424 388.017 518.324C389.23 518.252 389.598 518.658 390.402 519.412C387.878 521.038 386.532 522.27 385.879 525.279C382.789 539.535 388.933 610.491 396.825 622.072C398.733 624.871 401.394 626.869 404.805 627.295C406.17 627.465 407.684 627.261 409.007 626.9Z"/><defs><linearGradient id="gradient_5" gradientUnits="userSpaceOnUse" x1="481.12897" y1="681.14417" x2="518.17157" y2="471.08835"><stop offset="0" stop-color="#484848"/><stop offset="1" stop-color="#676767"/></linearGradient></defs><path fill="url(#gradient_5)" transform="scale(0.195312 0.195312)" d="M443.382 503.712C468.299 493.615 488.78 482.343 512.032 468.917C535.325 481.558 555.464 494.302 580.972 503.757C571.931 506.041 524.989 479.354 514.997 475.905C514.252 481.522 514.796 490.219 514.984 496.118C515.303 505.11 515.516 514.105 515.622 523.102C516.125 564.697 515.498 606.673 513.964 648.23C513.729 654.612 513.855 683.022 512.128 687.126C511.396 685.934 510.672 663.05 510.58 660.244C508.098 598.945 507.697 537.58 509.377 476.254C503.633 477.425 496.807 481.809 491.696 484.325C483.432 488.394 451.455 504.944 443.382 503.712Z"/><path fill="#010101" transform="scale(0.195312 0.195312)" d="M583.131 521.119C584.379 518.772 587.823 520.456 589.895 521.252C602.324 538.439 591.275 606.608 589.287 629.038C588.801 634.522 586.655 644.497 581.761 647.25C577.038 650.73 567.861 652.091 567.74 643.838C567.654 643.571 567.559 643.306 567.481 643.036C565.659 636.814 571.124 592.623 571.855 582.271C572.71 570.445 573.234 558.597 573.427 546.741C573.519 541.718 573.437 536.871 573.963 531.858C574.677 525.067 576.359 522.484 583.131 521.119Z"/><path fill="#525152" transform="scale(0.195312 0.195312)" d="M583.131 521.119C584.379 518.772 587.823 520.456 589.895 521.252C602.324 538.439 591.275 606.608 589.287 629.038C588.801 634.522 586.655 644.497 581.761 647.25C577.038 650.73 567.861 652.091 567.74 643.838C568.383 644.317 569.03 644.789 569.728 645.185C571.442 646.156 573.521 645.955 575.33 645.365C578.419 644.357 581.074 641.963 582.494 639.048C588.565 626.583 594.852 540.879 589.284 526.854C588.046 523.735 586.167 522.361 583.131 521.119Z"/><path fill="#010101" transform="scale(0.195312 0.195312)" d="M633.921 519.605C635.108 518.805 635.484 518.417 636.994 518.778C638.925 519.24 640.258 520.678 641.044 522.428C647.768 537.403 638.996 607.248 632.331 622.553C630.993 625.626 628.288 628.478 625.147 629.731C623.143 630.531 619.42 630.815 617.415 629.959C616.481 629.56 616.088 629.197 615.476 628.422C615.414 627.423 615.217 627.419 615.595 626.837C615.284 626.106 613.661 625.158 613.858 623.7C617.821 594.732 623.585 565.857 624.464 536.434C624.73 527.526 623.807 521.126 633.921 519.605Z"/><path fill="#525152" transform="scale(0.195312 0.195312)" d="M633.921 519.605C635.108 518.805 635.484 518.417 636.994 518.778C638.925 519.24 640.258 520.678 641.044 522.428C647.768 537.403 638.996 607.248 632.331 622.553C630.993 625.626 628.288 628.478 625.147 629.731C623.143 630.531 619.42 630.815 617.415 629.959C616.481 629.56 616.088 629.197 615.476 628.422C615.414 627.423 615.217 627.419 615.595 626.837C617.369 627.596 618.962 627.544 620.801 627.076C623.855 626.3 626.441 624.115 628.026 621.429C634.819 609.922 642.255 539.094 638.594 525.237C637.821 522.314 636.487 521.079 633.921 519.605Z"/><defs><linearGradient id="gradient_6" gradientUnits="userSpaceOnUse" x1="391.65329" y1="301.51056" x2="324.54321" y2="120.0094"><stop offset="0" stop-color="#202020"/><stop offset="1" stop-color="#444"/></linearGradient></defs><path fill="url(#gradient_6)" transform="scale(0.195312 0.195312)" d="M467.387 74.6827C468.684 74.4988 471.623 74.4252 473.054 74.3435C474.474 109.885 472.141 149.8 470.357 185.499C469.68 199.021 467.698 226.526 464.648 238.885C459.474 259.857 420.381 287.986 402.192 298.862C402.01 298.841 401.829 298.82 401.647 298.799L400.742 298.676C393.394 297.716 383.576 293.625 376.945 293.729C369.254 293.851 357.124 296.243 349.247 297.569C313.488 303.307 278.19 311.622 243.629 322.449L234.08 325.553C240.212 313.714 245.308 303.819 249.94 291.214C257.355 271.031 262.403 250.248 269.118 229.881C276.904 205.566 288.705 182.726 304.033 162.309C343.722 109.667 403.536 83.5627 467.387 74.6827Z"/><path fill="#010101" transform="scale(0.195312 0.195312)" d="M322.979 271.775C325.662 270.647 328.745 271.065 331.03 272.866C333.316 274.667 334.443 277.566 333.974 280.438C333.505 283.31 331.513 285.7 328.774 286.68C324.694 288.139 320.195 286.085 318.625 282.047C317.055 278.009 318.986 273.455 322.979 271.775Z"/><path fill="#212121" transform="scale(0.195312 0.195312)" d="M325.321 273.814C327.989 273.5 330.421 275.37 330.802 278.029C331.184 280.688 329.375 283.167 326.726 283.615C324.953 283.915 323.156 283.229 322.033 281.824C320.909 280.419 320.636 278.516 321.319 276.852C322.003 275.187 323.534 274.025 325.321 273.814Z"/><path fill="#010101" transform="scale(0.195312 0.195312)" d="M251.995 300.547C261.905 300.102 262.713 308.804 254.937 312.952C245.479 313.471 244.816 305.343 251.995 300.547Z"/><path fill="#212121" transform="scale(0.195312 0.195312)" d="M253.029 302.798C254.508 302.977 254.866 303.214 256.233 303.776C257.397 305.177 257.158 304.399 257.027 306.172C255.915 308.223 255.275 308.382 253.193 309.666C251.706 310.059 251.704 310.207 250.273 309.777L249.744 308.722C250.015 305.565 250.731 304.846 253.029 302.798Z"/><defs><linearGradient id="gradient_7" gradientUnits="userSpaceOnUse" x1="632.76208" y1="301.6337" x2="699.45599" y2="119.93003"><stop offset="0" stop-color="#212121"/><stop offset="1" stop-color="#434343"/></linearGradient></defs><path fill="url(#gradient_7)" transform="scale(0.195312 0.195312)" d="M551.089 73.9075C581.011 77.0601 610.246 84.9255 637.71 97.212C690.896 121.454 731.21 163.16 751.373 218.078C762.093 247.276 767.865 278.144 780.978 306.339C783.863 312.543 787.889 318.603 790.295 325.06L789.819 325.362L786.889 324.456C751.975 313.141 716.296 304.34 680.124 298.122C670.027 296.385 655.84 293.953 645.703 294.106C640.079 294.191 629.561 297.703 622.978 298.967C605.676 291.652 567.991 259.811 561.068 241.892C557.214 231.915 555.834 206.794 555.104 195.454C553.514 171.017 552.405 146.551 551.777 122.071C551.408 105.93 551.672 90.1559 551.089 73.9075Z"/><path fill="#010101" transform="scale(0.195312 0.195312)" d="M695.978 271.395C700.165 270.08 704.633 272.358 706.029 276.518C707.426 280.678 705.236 285.19 701.105 286.668C698.359 287.65 695.296 287.072 693.098 285.156C690.899 283.24 689.908 280.285 690.505 277.431C691.103 274.577 693.196 272.268 695.978 271.395Z"/><path fill="#212121" transform="scale(0.195312 0.195312)" d="M703.151 277C703.947 278.91 703.443 281.114 701.897 282.489C700.35 283.864 698.102 284.106 696.298 283.092C694.494 282.078 693.533 280.031 693.904 277.996C694.275 275.96 695.897 274.384 697.942 274.072C700.145 273.735 702.293 274.943 703.151 277Z"/><path fill="#2B2B2B" transform="scale(0.195312 0.195312)" d="M697.942 274.072C700.145 273.735 702.293 274.943 703.151 277C701.612 277.495 700.597 278.049 699.101 277.58C698.092 276.44 698.151 275.594 697.942 274.072Z"/><path fill="#010101" transform="scale(0.195312 0.195312)" d="M769.515 300.573C776.976 300.727 781.62 309.204 773.571 313.352C764.663 312.805 761.115 303.459 769.515 300.573Z"/><path fill="#212121" transform="scale(0.195312 0.195312)" d="M768.938 308.003C767.608 306.147 767.673 306.081 767.898 304.392C770.469 302.274 772.113 303.454 774.007 305.479C774.354 307.118 774.734 307.924 774.013 309.406C771.859 310.569 770.697 309.358 768.938 308.003Z"/><path fill="#2B2B2B" transform="scale(0.195312 0.195312)" d="M768.938 308.003C767.608 306.147 767.673 306.081 767.898 304.392C770.469 302.274 772.113 303.454 774.007 305.479C770.73 305.812 771.535 306.175 768.938 308.003Z"/><path fill="#E8CA92" transform="scale(0.195312 0.195312)" d="M597.771 348.798C623.801 342.744 640.855 339.936 667.75 339.575C670.836 345.321 673.629 351.219 676.119 357.246C683.557 380.387 684.561 394.412 683.932 418.278C670.847 404.48 654.062 400.127 635.498 399.571C632.368 399.488 629.236 399.47 626.105 399.519C650.984 389.243 654.23 387.487 681.991 392.335C672.452 383.49 657.875 377.368 644.909 376.133C643.212 375.971 620.935 383.166 617.047 384.307C598.578 389.729 579.651 394.738 561.187 400.262C558.374 401.104 555.991 402.196 553.393 403.544C551.836 402.028 551.546 401.188 549.809 400.86C548.956 402.166 549.256 405.153 549.615 406.631C551.779 415.55 557.373 419.682 566.125 418.78C572.607 417.413 578.951 415.509 585.246 413.468C576.573 423.277 574.665 428.306 570.259 440.451C570.015 441.975 569.554 442.834 570.157 443.846C571.254 442.801 572.207 441.3 573.111 440.032C577.202 433.589 580.878 429.142 586.656 424.215C591.041 420.624 595.921 417.685 601.145 415.488C604.043 413.521 605.476 413.201 608.759 412.438C613.246 409.892 632.419 407.89 637.584 408.976C640.658 409.16 643.068 409.257 646.1 409.835C657.805 411.408 664.62 413.572 675.76 417.049C678.677 417.817 680.372 418.33 683.426 418.565L683.545 419.042C683.726 419.748 683.645 419.473 683.914 420.191C690.604 415.625 695.862 397.671 697.708 389.892C699.847 414.68 697.588 445.175 685.08 467.156C660.574 479.142 626.983 485.585 600.873 476.177C579.806 468.586 561.266 457.232 542.137 445.783C533.656 440.706 520.887 432.039 511.963 429.197L511.266 429.458C505.251 431.741 499.612 435.483 494.111 438.813C471.618 452.432 449.24 466.95 424.413 475.99C398.517 485.419 363.407 479.408 339.362 466.848C328.835 444.226 323.272 415.37 327.334 390.493C329.804 400.64 333.012 413.294 340.91 420.687C341.293 420.11 341.663 419.525 342.02 418.931C344.124 418.421 346.22 417.876 348.305 417.294C360.152 413.643 366.843 411.773 379.107 409.785C381.008 409.305 389.558 409.448 391.964 409.458C400.792 408.933 418.251 410.868 425.242 416.099C430.698 418.81 434.28 420.83 439.104 424.545C443.167 428.346 446.137 431.863 449.421 436.371C450.508 438.011 453.584 442.863 454.788 444.053C454.992 442.511 454.624 441.297 454.322 439.765C450.073 427.681 447.454 423.384 439.055 413.549L457.335 418.763L459.402 419.018C463.909 419.582 465.546 419.436 469.593 416.924C473.776 414.327 477.625 404.26 474.727 400.112C473.149 400.748 471.199 403.037 469.857 404.374C466.273 399.912 455.85 398.015 450.165 396.388L420.794 388.041C412.145 385.537 387.014 376.779 380.276 376.545C368.818 376.147 350.928 384.693 342.403 392.256C359.427 389.743 371.21 387.664 387.281 394.753C390.969 396.38 394.628 397.494 398.377 399.514L397.95 399.507C374.438 399.118 358.291 401.935 341.247 418.419C339.389 401.418 341.707 371.531 350.046 356.489C349.756 366.567 349.844 372.641 353.868 381.987C356.417 371.774 358.271 367.024 363.117 357.675C366.962 351.565 370.629 345.656 375.346 340.146C397.594 341.266 419.794 346.269 441.26 351.959C449.088 354.034 458.141 356.241 465.709 358.834C462.86 366.251 459.789 371.544 455.888 378.392C453.972 381.318 452.04 384.235 450.092 387.14C464.645 382.127 475.792 374.791 486.673 364.199C489.464 365.124 492.323 365.804 495.173 366.536C488.969 389.29 484.979 395.103 475.326 415.279C489.185 411.153 500.642 402.384 510.726 392.337C506.92 402.168 503.564 410.227 497.956 419.36C494.86 424.401 491.064 429.395 488.239 434.418L487.888 435.048C522.597 426.807 552.947 395.725 572.194 366.743C570.64 376.639 565.996 385.893 564.599 394.538C571.838 390.312 577.861 383.296 582.883 376.694C591.742 364.386 591.824 362.284 597.771 348.798Z"/><path fill="#F7F9F7" transform="scale(0.195312 0.195312)" d="M391.964 409.458C400.792 408.933 418.251 410.868 425.242 416.099C425.701 420.036 426.264 424.22 426.538 428.15C426.481 433.84 425.877 435.333 423.705 440.741C425.738 441.316 428.802 441.954 429.861 443.829C433.366 450.037 424.144 457.224 419.388 459.87C416.772 461.325 412.535 461.974 409.626 462.458L410.463 463.336C404.383 463.524 399.956 463.565 393.935 462.749C389.379 464.762 375.592 459.302 371.224 456.812C359.678 450.229 353.953 438.284 350.586 425.927C349.913 422.774 350.034 419.919 348.305 417.294C360.152 413.643 366.843 411.773 379.107 409.785C381.008 409.305 389.558 409.448 391.964 409.458Z"/><path fill="#042A43" transform="scale(0.195312 0.195312)" d="M391.964 409.458C400.792 408.933 418.251 410.868 425.242 416.099C425.701 420.036 426.264 424.22 426.538 428.15C426.481 433.84 425.877 435.333 423.705 440.741C414.16 457.93 394.576 454.362 387.153 436.728C387.032 435.178 386.613 433.045 386.354 431.469C387.01 427.649 385.532 424.478 387.515 420.129L387.624 419.756C388.969 415.319 388.995 415.002 392.774 411.943L391.964 409.458Z"/><path fill="#F7F9F7" transform="scale(0.195312 0.195312)" d="M392.774 411.943C410.34 410.394 395.849 436.676 387.515 420.129L387.624 419.756C388.969 415.319 388.995 415.002 392.774 411.943Z"/><path fill="#35CFE9" transform="scale(0.195312 0.195312)" d="M377.531 440.45C381.216 437.713 382.774 437.459 387.153 436.728C394.576 454.362 414.16 457.93 423.705 440.741C425.738 441.316 428.802 441.954 429.861 443.829C433.366 450.037 424.144 457.224 419.388 459.87C416.772 461.325 412.535 461.974 409.626 462.458C392.634 463.041 383.05 456.406 377.531 440.45Z"/><path fill="#0A599A" transform="scale(0.195312 0.195312)" d="M379.107 409.785C381.008 409.305 389.558 409.448 391.964 409.458L392.774 411.943C388.995 415.002 388.969 415.319 387.624 419.756L387.515 420.129C385.532 424.478 387.01 427.649 386.354 431.469C386.613 433.045 387.032 435.178 387.153 436.728C382.774 437.459 381.216 437.713 377.531 440.45C383.05 456.406 392.634 463.041 409.626 462.458L410.463 463.336C404.383 463.524 399.956 463.565 393.935 462.749C377.455 456.714 373.294 440.59 374.079 424.848L374.331 423.495C375.415 417.475 376.307 415.338 379.107 409.785Z"/><path fill="#0A7AC2" transform="scale(0.195312 0.195312)" d="M377.531 440.45C376.978 438.541 376.626 436.487 377.221 434.569C379.773 432.177 381.841 433.706 385.35 432.976L385.529 431.999L386.354 431.469C386.613 433.045 387.032 435.178 387.153 436.728C382.774 437.459 381.216 437.713 377.531 440.45Z"/><path fill="#DCDEDF" transform="scale(0.195312 0.195312)" d="M348.305 417.294C360.152 413.643 366.843 411.773 379.107 409.785C376.307 415.338 375.415 417.475 374.331 423.495L374.079 424.848C369.012 424.948 354.06 424.721 350.586 425.927C349.913 422.774 350.034 419.919 348.305 417.294Z"/><path fill="#35CFE9" transform="scale(0.195312 0.195312)" d="M608.759 412.438C613.246 409.892 632.419 407.89 637.584 408.976C636.369 409.066 634.268 409.141 633.192 409.451C638.735 418.881 640.598 423.043 638.642 434.497L638.3 436.627C642.282 437.176 648.185 438.339 646.403 443.962C643.777 452.249 637.046 458.424 628.979 461.369C631.648 462.896 630.355 461.324 633.021 462.037L632.494 462.779C624.519 463.921 616.361 463.545 608.379 462.718C604.608 465.003 573.045 455 571.824 447.477C571.702 446.723 570.984 445.404 570.62 444.712L570.157 443.846C571.254 442.801 572.207 441.3 573.111 440.032C577.202 433.589 580.878 429.142 586.656 424.215C591.041 420.624 595.921 417.685 601.145 415.488C604.043 413.521 605.476 413.201 608.759 412.438Z"/><path fill="#042A43" transform="scale(0.195312 0.195312)" d="M608.759 412.438C613.246 409.892 632.419 407.89 637.584 408.976C636.369 409.066 634.268 409.141 633.192 409.451C638.735 418.881 640.598 423.043 638.642 434.497L638.3 436.627C630.481 454.628 611.59 457.627 600.933 440.635C599.46 435.684 596.362 425.628 599.589 421.059L601.145 415.488C604.043 413.521 605.476 413.201 608.759 412.438Z"/><path fill="#F7F9F7" transform="scale(0.195312 0.195312)" d="M608.759 412.438C610.816 413.926 612.59 415.09 613.009 417.781C613.296 419.627 612.792 421.509 611.621 422.965C607.893 427.584 602.291 426.015 599.589 421.059L601.145 415.488C604.043 413.521 605.476 413.201 608.759 412.438Z"/><path fill="#F7F9F7" transform="scale(0.195312 0.195312)" d="M586.656 424.215C586.537 427.256 586.364 430.309 586.473 433.349C588.63 447.061 593.931 458.431 608.379 462.718C604.608 465.003 573.045 455 571.824 447.477C571.702 446.723 570.984 445.404 570.62 444.712L570.157 443.846C571.254 442.801 572.207 441.3 573.111 440.032C577.202 433.589 580.878 429.142 586.656 424.215Z"/><path fill="#DCDEDF" transform="scale(0.195312 0.195312)" d="M586.656 424.215C586.537 427.256 586.364 430.309 586.473 433.349C580.831 435.338 579.855 439.065 573.111 440.032C577.202 433.589 580.878 429.142 586.656 424.215Z"/><path fill="#0A599A" transform="scale(0.195312 0.195312)" d="M586.656 424.215C591.041 420.624 595.921 417.685 601.145 415.488L599.589 421.059C596.362 425.628 599.46 435.684 600.933 440.635C596.23 441.548 595.494 442.769 593.3 446.981C600.928 461.628 613.851 464.589 628.979 461.369C631.648 462.896 630.355 461.324 633.021 462.037L632.494 462.779C624.519 463.921 616.361 463.545 608.379 462.718C593.931 458.431 588.63 447.061 586.473 433.349C586.364 430.309 586.537 427.256 586.656 424.215Z"/><path fill="#D6A768" transform="scale(0.195312 0.195312)" d="M375.346 340.146C397.594 341.266 419.794 346.269 441.26 351.959C449.088 354.034 458.141 356.241 465.709 358.834C462.86 366.251 459.789 371.544 455.888 378.392C438.504 374.412 420.635 369.343 403.252 365.591C393.918 363.665 384.573 361.79 375.217 359.967C371.459 359.232 366.604 358.593 363.117 357.675C366.962 351.565 370.629 345.656 375.346 340.146Z"/><path fill="#D6A768" transform="scale(0.195312 0.195312)" d="M597.771 348.798C623.801 342.744 640.855 339.936 667.75 339.575C670.836 345.321 673.629 351.219 676.119 357.246C662.299 359.089 587.617 377.506 582.883 376.694C591.742 364.386 591.824 362.284 597.771 348.798Z"/><path fill="#F7F9F7" transform="scale(0.195312 0.195312)" d="M637.584 408.976C640.658 409.16 643.068 409.257 646.1 409.835C657.805 411.408 664.62 413.572 675.76 417.049C675.297 419.96 674.774 422.974 674.372 425.882C670.818 438.504 666.765 449.926 654.593 456.9C649.565 459.781 638.625 463.138 632.987 463.256L632.494 462.779L633.021 462.037C630.355 461.324 631.648 462.896 628.979 461.369C637.046 458.424 643.777 452.249 646.403 443.962C648.185 438.339 642.282 437.176 638.3 436.627L638.642 434.497C640.598 423.043 638.735 418.881 633.192 409.451C634.268 409.141 636.369 409.066 637.584 408.976Z"/><path fill="#0A599A" transform="scale(0.195312 0.195312)" d="M637.584 408.976C640.658 409.16 643.068 409.257 646.1 409.835L646.286 410.449C648.754 418.389 650.517 417.996 651.312 428.532C651.745 440.425 645.677 458.415 633.021 462.037C630.355 461.324 631.648 462.896 628.979 461.369C637.046 458.424 643.777 452.249 646.403 443.962C648.185 438.339 642.282 437.176 638.3 436.627L638.642 434.497C640.598 423.043 638.735 418.881 633.192 409.451C634.268 409.141 636.369 409.066 637.584 408.976Z"/><path fill="#DCDEDF" transform="scale(0.195312 0.195312)" d="M646.1 409.835C657.805 411.408 664.62 413.572 675.76 417.049C675.297 419.96 674.774 422.974 674.372 425.882C671.365 425.679 654.383 424.922 651.854 425.322C651.606 426.531 651.447 427.292 651.312 428.532C650.517 417.996 648.754 418.389 646.286 410.449L646.1 409.835Z"/><path fill="#F7F9F7" transform="scale(0.195312 0.195312)" d="M425.242 416.099C430.698 418.81 434.28 420.83 439.104 424.545C443.167 428.346 446.137 431.863 449.421 436.371C450.508 438.011 453.584 442.863 454.788 444.053L453.415 445.899C452.346 450.641 451.085 451.486 446.647 453.419C442.048 456.003 424.576 463.812 420.022 461.826C416.253 462.646 414.291 462.995 410.463 463.336L409.626 462.458C412.535 461.974 416.772 461.325 419.388 459.87C424.144 457.224 433.366 450.037 429.861 443.829C428.802 441.954 425.738 441.316 423.705 440.741C425.877 435.333 426.481 433.84 426.538 428.15C426.264 424.22 425.701 420.036 425.242 416.099Z"/><path fill="#0A599A" transform="scale(0.195312 0.195312)" d="M425.242 416.099C430.698 418.81 434.28 420.83 439.104 424.545L438.336 424.479C438.435 427.041 438.543 429.406 438.461 431.979C437.059 442.661 434.041 451.802 425.123 458.682C423.528 459.891 421.82 460.944 420.022 461.826C416.253 462.646 414.291 462.995 410.463 463.336L409.626 462.458C412.535 461.974 416.772 461.325 419.388 459.87C424.144 457.224 433.366 450.037 429.861 443.829C428.802 441.954 425.738 441.316 423.705 440.741C425.877 435.333 426.481 433.84 426.538 428.15C426.264 424.22 425.701 420.036 425.242 416.099Z"/><path fill="#0A4174" transform="scale(0.195312 0.195312)" d="M425.242 416.099C430.698 418.81 434.28 420.83 439.104 424.545L438.336 424.479L437.952 426.092L437.472 426.19L437.173 424.732C433.675 423.998 433.518 426.032 429.178 423.872C428.327 425.369 427.591 426.784 426.538 428.15C426.264 424.22 425.701 420.036 425.242 416.099Z"/><path fill="#DCDEDF" transform="scale(0.195312 0.195312)" d="M439.104 424.545C443.167 428.346 446.137 431.863 449.421 436.371C445.239 438.839 443.829 433.38 438.461 431.979C438.543 429.406 438.435 427.041 438.336 424.479L439.104 424.545Z"/><path fill="#D6A768" transform="scale(0.195312 0.195312)" d="M439.055 413.549L457.335 418.763C458.159 424.245 459.985 436.39 454.322 439.765C450.073 427.681 447.454 423.384 439.055 413.549Z"/><path fill="#D6A768" transform="scale(0.195312 0.195312)" d="M566.125 418.78C572.607 417.413 578.951 415.509 585.246 413.468C576.573 423.277 574.665 428.306 570.259 440.451C564.159 436.05 567.89 422.706 567.211 419.135L566.125 418.78Z"/><path fill="#2B2B2B" transform="scale(0.195312 0.195312)" d="M508.778 46.0472C511.307 45.205 511.845 44.9 514.433 45.1998C522.188 49.2794 532.293 52.2512 540.012 56.6705C549.317 72.4967 546.332 85.952 546.529 103.303C546.834 130.129 548.416 224.993 557.565 245.76C565.082 262.822 599.772 292.533 616.616 300.867C582.434 310.89 546.961 324.509 512.53 334.106L511.24 333.872C504.439 332.44 486.463 326.259 479.739 324.066L445.184 312.946C432.684 308.789 420.361 304.352 407.713 300.662C426.182 290.136 456.249 266.961 465.95 248.334C476.522 228.035 477.742 131.174 478.104 104.033C478.327 87.353 474.878 75.0419 482.845 59.2109C485.831 53.2782 502.388 48.2568 508.778 46.0472Z"/><path fill="#010101" transform="scale(0.195312 0.195312)" d="M493.208 234.818C496.89 234.787 501.391 235.244 504.476 233.563C506.13 231.217 506.271 230.23 507.526 227.901C508.49 226.112 510.788 223.104 512.065 221.383C514.183 224.749 516.385 227.857 518.082 231.452C520.063 235.646 526.257 234.639 530.423 234.558C532.511 233.278 534.153 232.179 536.155 230.777C546.802 242.478 540.565 241.6 533.333 252.748C536.086 257.267 539.717 262.845 541.816 267.583C535.809 273.844 515.532 282.831 513.773 286.01C512.521 286.307 511.626 286.17 510.351 286.095C508.716 283.432 495.414 276.891 491.6 274.485C488.644 272.655 485.882 270.529 483.355 268.141C485.025 262.044 488.181 257.83 491.584 252.538C488.905 249.388 482.793 242.896 482.207 239.139C483.021 236.073 485.383 232.399 489.307 232.326C490.205 232.309 492.418 234.178 493.208 234.818Z"/><path fill="#8E8D8E" transform="scale(0.195312 0.195312)" d="M526.489 249.712C530.046 251.415 536.535 263.296 538.806 267.162C530.229 273.202 520.035 277.258 512.155 283.19C506.019 278.174 493.626 272.761 485.733 267.133C489.368 261.024 492.741 255.68 497.122 250.093C498.346 251.643 498.702 251.983 499.47 253.76C499.397 257.689 495.71 260.886 493.08 264.942C495.803 266.815 497.677 268.023 500.945 268.565L501.353 268.812L501.333 269.332C503.084 272.381 508.285 274.906 511.573 276.904C508.892 271.29 506.131 268.818 502.413 264.094C502.027 263.603 502.726 262.109 502.946 261.421C502.234 260.132 501.185 259.303 500.105 258.282L500.306 257.803L502.549 257.84C504.519 259.045 511.37 268.22 512.866 270.302C514.535 266.672 518.042 262.403 520.52 259.276C521.175 260.648 521.923 262.068 522.615 263.43C517.971 269.129 516.484 270.207 513.692 277.01C515.956 275.611 521.169 272.545 523.237 270.556C523.518 270.04 523.229 268.659 523.949 268.411C537.506 263.73 527.112 263.309 525.025 255.434C524.296 252.688 524.935 252.513 526.489 249.712Z"/><path fill="#8E8D8E" transform="scale(0.195312 0.195312)" d="M488.168 234.78L490.82 237.418C495.17 237.316 507.747 235.418 510.267 238.454C510.162 240.735 502.937 249.574 501.278 251.66L500.775 251.509C499.373 249.187 498.921 248.938 500.444 246.658L504.887 240.456C500.34 240.399 495.792 240.454 491.247 240.622C492.334 242.809 494.898 245.865 493.441 248.061C490.418 247.457 486.656 241.775 484.712 239.201C486.485 237.41 486.774 236.93 488.168 234.78Z"/><path fill="#8E8D8E" transform="scale(0.195312 0.195312)" d="M535.79 234.52C536.493 235.224 538.914 238.507 539.659 239.473C537.59 242.127 534.089 247.247 531.054 248.172L530.477 247.495C530.551 244.945 532.003 242.84 533.24 240.507C528.216 240.15 523.82 240.219 518.809 240.281L522.338 244.111C523.695 245.864 524.404 246.472 524.893 248.56C524.523 250.603 525.051 249.996 523.771 250.895C521.135 250.005 514.253 240.073 514.657 237.99C520.566 234.384 530.682 240.665 535.79 234.52Z"/><path fill="#9F9E9E" transform="scale(0.195312 0.195312)" d="M512.605 245.146C513.187 245.897 513.755 246.658 514.31 247.429C515.731 249.409 519.26 254.202 518.873 256.515C517.153 258.514 513.937 262.661 511.776 263.638C510.756 263.11 511.07 263.361 510.319 262.42C502.995 253.069 505.014 253.887 512.605 245.146Z"/><path fill="#8E8D8E" transform="scale(0.195312 0.195312)" d="M510.319 262.42C512.471 260.911 512.618 259.774 513.263 257.318C515.879 254.905 513.21 258.071 518.873 256.515C517.153 258.514 513.937 262.661 511.776 263.638C510.756 263.11 511.07 263.361 510.319 262.42Z"/><path fill="#9F9E9E" transform="scale(0.195312 0.195312)" d="M511.623 226.293C512.714 227.504 514.745 230.459 515.793 231.888L512.239 236.169C511.058 235.442 509.173 233.176 508.132 232.042L511.623 226.293Z"/><path fill="#525152" transform="scale(0.195312 0.195312)" d="M508.778 46.0472C511.307 45.205 511.845 44.9 514.433 45.1998C517.608 91.9325 516.051 140.124 513.941 186.864C513.694 192.34 514.104 218.378 512.077 221.341L511.83 220.88L512.218 221.226C512.125 221.091 512.015 220.965 511.939 220.82C510.591 218.246 507.94 109.324 507.937 98.4994C507.932 81.0753 509.27 63.4237 508.778 46.0472Z"/><path fill="#525152" transform="scale(0.195312 0.195312)" d="M510.351 286.095C511.626 286.17 512.521 286.307 513.773 286.01C514.624 291.976 514.715 328.459 512.53 334.106L511.24 333.872C510.344 327.255 509.275 291.135 510.351 286.095Z"/><path fill="#2B2B2B" transform="scale(0.195312 0.195312)" d="M373.38 736.974C377.915 737.057 382.446 737.295 386.964 737.69C418.223 757.501 473.048 783.487 509.322 791.346C508.693 797.591 508.932 808.217 508.882 814.988C508.732 832.294 508.894 849.602 509.366 866.902C509.604 874.954 511.493 889.336 509.804 896.379C512.767 896.659 520.26 896.058 522.34 897.37C518.351 897.328 513.281 896.544 509.481 896.921C475.387 900.305 443.2 912.989 411.569 925.419C405.351 927.862 392.452 930.06 387.544 934.542C387.476 919.634 382.751 907.981 375.836 895.033C368.966 883.107 362.674 875.332 352.932 865.652C346.282 859.914 339.691 854.107 333.161 848.234C336.664 837.64 337.958 827.439 340.491 816.662C340.85 815.135 342.132 812.665 343.242 811.525L343.765 811.536C364.013 833.77 387.23 846.345 414.854 857.528C430.501 863.862 449.952 869.43 461.708 881.955C463.165 883.507 467.345 891.036 468.06 891.252C467.873 888.541 467.567 887.955 466.66 885.321C458.171 869.424 436 862.631 420.035 856.114C410.411 852.215 400.906 848.029 391.532 843.561C379.262 837.592 367.718 830.234 357.125 821.633C352.175 817.747 349.528 814.919 345.62 809.885C354.754 800.349 362.132 790.785 369.738 780.118C380.863 764.515 375.143 754.148 373.38 736.974Z"/><path fill="#525152" transform="scale(0.195312 0.195312)" d="M357.125 821.633C357.696 821.548 358.266 821.463 358.836 821.377C362.183 823.219 365.284 825.461 368.519 827.489C375.99 832.172 384.018 836.039 391.952 839.869C412.931 849.997 436.362 855.821 455.628 869.32C460.407 872.669 465.793 878.992 467.649 884.525L467.225 885.211L466.66 885.321C458.171 869.424 436 862.631 420.035 856.114C410.411 852.215 400.906 848.029 391.532 843.561C379.262 837.592 367.718 830.234 357.125 821.633Z"/><path fill="#525152" transform="scale(0.195312 0.195312)" d="M352.932 865.652C353.809 865.786 355.869 866.092 356.452 866.633C360.642 870.517 365.705 877.007 369.13 881.416C371.261 884.16 375.706 890.779 376.367 893.633L375.836 895.033C368.966 883.107 362.674 875.332 352.932 865.652Z"/><path fill="#2B2B2B" transform="scale(0.195312 0.195312)" d="M510.841 794.949C510.841 794.191 510.633 792.448 511.147 792.031C513.856 789.83 519.085 789.558 522.331 788.544C527.686 786.872 532.843 785.113 538.044 783.198C559.2 775.612 579.824 766.621 599.781 756.284C605.819 753.122 611.786 749.825 617.676 746.395C626.569 741.105 630.523 737.044 641.455 736.336C640.308 741.857 636.793 757.275 637.488 762.382C640.15 781.933 661.96 800.977 673.863 814.982C672.078 817.159 671.661 817.626 669.431 819.322C668.764 819.844 666.78 821.498 666.14 821.719C646.613 836.716 627.288 846.155 604.702 855.734C587.332 863.1 564.944 869.416 555.864 887.023C555.229 889.892 554.551 892.194 554.846 895.105L555.449 895.695C559.673 890.717 564.332 884.542 569.612 880.723C574.483 877.2 580.307 873.929 585.655 871.152C592.193 867.757 625.595 851.409 631.111 850.972C632.745 850.843 634.197 850.808 635.478 851.952C636.754 853.092 637.189 854.817 637.187 856.48C637.177 865.094 624.873 881.906 618.628 887.639C616.468 889.621 613.72 891.923 611.093 893.2C602.316 897.466 589.53 898.112 579.956 897.657C576.477 897.491 568.138 897.245 565.839 894.416C564.682 892.991 564.533 890.663 564.36 888.912L563.752 888.18C560.43 890.241 558.474 896.529 554.888 896.818C552.284 892.403 547.169 895.301 543.721 895.429C534.143 895.786 524.574 894.256 514.732 894.065C513.991 892.745 514.2 893.287 514.061 891.717C513.214 892.837 513.212 893.24 512.829 894.588L512.272 894.395C511.06 892.318 511.219 868.135 511.448 864.156C509.813 842.526 511.836 816.911 510.841 794.949Z"/><path fill="#212121" transform="scale(0.195312 0.195312)" d="M510.841 794.949C510.841 794.191 510.633 792.448 511.147 792.031C513.856 789.83 519.085 789.558 522.331 788.544C527.686 786.872 532.843 785.113 538.044 783.198C559.2 775.612 579.824 766.621 599.781 756.284C605.819 753.122 611.786 749.825 617.676 746.395C626.569 741.105 630.523 737.044 641.455 736.336C640.308 741.857 636.793 757.275 637.488 762.382C640.15 781.933 661.96 800.977 673.863 814.982C672.078 817.159 671.661 817.626 669.431 819.322C661.822 812.133 648.973 795.501 643.806 786.029C641.407 781.632 637.609 771.045 635.73 766.045C634.593 763.46 635.297 755.352 632.774 753.951C622.739 748.382 606.821 760.354 597.224 764.946C575.84 775.248 553.672 783.837 530.928 790.632C525.909 792.101 518.73 794.33 513.703 794.935L512.938 795.022L510.841 794.949Z"/><path fill="#525152" transform="scale(0.195312 0.195312)" d="M555.864 887.023C553.792 883.278 559.424 876.952 562.085 874.613C580.182 858.709 604.596 852.633 625.954 842.549C638.832 836.469 651.35 829.568 663.515 822.182C664.363 821.668 665.208 821.684 666.14 821.719C646.613 836.716 627.288 846.155 604.702 855.734C587.332 863.1 564.944 869.416 555.864 887.023Z"/><path fill="#646364" transform="scale(0.195312 0.195312)" d="M510.841 794.949L512.938 795.022C513.788 801.423 513.736 814.607 513.743 821.521C513.753 831.732 514.423 845.116 513.902 855.201C513.153 858.005 513.26 860.371 513.226 863.246L512.241 859.385C511.965 860.96 511.942 862.772 511.448 864.156C509.813 842.526 511.836 816.911 510.841 794.949Z"/><path fill="#525152" transform="scale(0.195312 0.195312)" d="M511.448 864.156C511.942 862.772 511.965 860.96 512.241 859.385L513.226 863.246C513.26 860.371 513.153 858.005 513.902 855.201C514.206 868.602 512.726 882.228 512.829 894.588L512.272 894.395C511.06 892.318 511.219 868.135 511.448 864.156Z"/><path fill="#2B2B2B" transform="scale(0.195312 0.195312)" d="M750.884 713.199C759.572 712.451 788.94 714.289 795.548 720.587C815.685 739.778 829.739 770.491 831.806 798.086C817.914 796.734 771.284 795.566 759.806 800.167C748.792 804.581 738.244 812.863 727.986 818.932C723.414 821.478 718.476 824.09 714.15 826.984C712.815 826.196 711.501 825.373 710.21 824.515C693.396 813.228 660.312 781.052 653.569 760.338C652.528 757.142 656.374 737.409 658.54 733.972C661.059 732.903 668.115 731.641 670.487 731.129C697.202 725.362 723.501 715.278 750.884 713.199Z"/><path fill="#010101" transform="scale(0.195312 0.195312)" d="M713.718 804.324C716.934 802.962 720.646 804.457 722.019 807.669C723.392 810.88 721.909 814.597 718.702 815.981C715.48 817.371 711.742 815.879 710.363 812.652C708.983 809.426 710.487 805.693 713.718 804.324Z"/><path fill="#2B2B2B" transform="scale(0.195312 0.195312)" d="M715.294 806.753C716.442 806.449 717.664 806.788 718.492 807.64C719.32 808.491 719.624 809.722 719.289 810.861C718.953 812 718.03 812.87 716.873 813.136C715.123 813.54 713.373 812.465 712.942 810.722C712.511 808.978 713.558 807.212 715.294 806.753Z"/><path fill="#3C3C3C" transform="scale(0.195312 0.195312)" d="M780.793 718.197L781.39 717.982C782.696 718.621 789.406 724.435 790.679 725.811C796.218 731.796 802.997 737.72 806.982 744.84C809.487 749.318 811.267 754.561 813.75 759.088C819.34 768.991 821.696 770.373 822.089 782.064L822.173 782.558C811.274 755.591 803.868 737.546 780.793 718.197Z"/><path fill="#2B2B2B" transform="scale(0.195312 0.195312)" d="M237.734 718.352C259.752 718.911 283.054 722.91 304.759 726.371L356.617 734.224C358.129 742.397 360.335 752.76 361.236 760.856C352.684 781.9 319.491 814.423 300.367 826.776C293.564 822.166 281.764 816.878 274.339 812.359C270.642 810.108 254.606 800.281 251.582 799.467C235.391 795.106 207.66 797.468 191.017 797.634L189.399 797.769C187.703 797.832 186.352 798.132 184.947 797.503C184.93 797.229 184.913 796.956 184.897 796.682C187.847 770.891 198.325 745.379 216.037 726.239C222.698 719.042 223.874 718.722 232.425 718.317L237.734 718.352Z"/><path fill="#525152" transform="scale(0.195312 0.195312)" d="M189.399 797.769C187.703 797.832 186.352 798.132 184.947 797.503C184.93 797.229 184.913 796.956 184.897 796.682C187.847 770.891 198.325 745.379 216.037 726.239C222.698 719.042 223.874 718.722 232.425 718.317C231.223 723.817 225.068 726.392 221.494 731.735C215.162 736.017 200.195 762.96 195.412 770.764C195.8 770.13 192.204 787.063 192.14 787.522C191.954 788.932 189.918 795.77 189.399 797.769Z"/><path fill="#3C3C3C" transform="scale(0.195312 0.195312)" d="M232.425 718.317L237.734 718.352C235.678 721.606 232.887 723.773 230.166 726.485C221.738 734.885 213.109 742.82 209.701 754.513C204.903 757.98 198.9 768.857 196.533 774.414L196.063 774.553C195.748 769.526 197.749 768.789 200.212 765.077C203.363 760.327 203.225 756.959 208.584 754.02C209.483 752.333 208.654 750.154 209.203 749.496C213.322 744.564 217.911 736.661 222.246 732.287L221.494 731.735C225.068 726.392 231.223 723.817 232.425 718.317Z"/><path fill="#3C3C3C" transform="scale(0.195312 0.195312)" d="M192.14 787.522C195.229 780.501 200.803 764.717 206.558 760.78L206.836 761.01C203.784 765.197 201.877 766.85 199.601 771.646C196.49 778.204 195.864 780.496 196.123 787.471C196.169 788.692 189.945 794.205 191.017 797.634L189.399 797.769C189.918 795.77 191.954 788.932 192.14 787.522Z"/><path fill="#010101" transform="scale(0.195312 0.195312)" d="M296.114 804.279C298.241 803.602 300.568 804.119 302.208 805.634C303.848 807.148 304.548 809.427 304.042 811.601C303.535 813.776 301.9 815.51 299.759 816.144C296.496 817.11 293.064 815.268 292.065 812.016C291.065 808.763 292.872 805.312 296.114 804.279Z"/><path fill="#2B2B2B" transform="scale(0.195312 0.195312)" d="M297.074 806.774C298.161 806.522 299.299 806.881 300.043 807.713C300.787 808.544 301.019 809.715 300.648 810.768C300.277 811.82 299.361 812.586 298.26 812.767C296.633 813.034 295.088 811.962 294.768 810.344C294.448 808.727 295.468 807.147 297.074 806.774Z"/><path fill="#2B2B2B" transform="scale(0.195312 0.195312)" d="M751.495 348.357C762.43 351.016 770.042 352.632 781.147 355.98C782.291 374.446 783.038 389.959 781.787 408.543C780.16 432.725 776.832 456.673 775.705 480.837C775.203 491.131 775.147 501.443 775.538 511.742C776.34 532.923 778.197 537.982 769.392 558.247C756.836 587.145 740.937 606.14 716.85 626.091C710.746 630.272 705.47 634.27 699.123 638.3C698.881 607.08 698.274 575.843 700.18 544.684C701.334 532.958 699.406 524.497 707.957 515.36C748.562 471.967 757.606 404.59 751.495 348.357Z"/><path fill="#010101" transform="scale(0.195312 0.195312)" d="M713.677 521.366C717.264 520.798 720.656 523.17 721.354 526.734C722.051 530.297 719.803 533.773 716.267 534.599C713.863 535.16 711.345 534.364 709.701 532.523C708.057 530.681 707.55 528.09 708.379 525.765C709.207 523.44 711.239 521.753 713.677 521.366Z"/><path fill="#212121" transform="scale(0.195312 0.195312)" d="M713.622 523.351C719.073 524.031 720.265 528.252 716.362 531.622C709.336 531.739 710.267 527.544 713.622 523.351Z"/><path fill="#2B2B2B" transform="scale(0.195312 0.195312)" d="M270.897 348.671C271.236 348.628 272.034 348.684 272.411 348.698C272.697 350.754 271.932 359.453 271.78 361.984C271.506 367.436 271.335 372.892 271.268 378.35C270.927 400.775 273.825 424.574 279.431 446.306C284.596 466.326 293.923 486.641 306.655 503.026C311.194 508.865 319.016 516.008 321.884 522.618C327.217 534.911 325.469 620.884 325.234 637.749C319.516 634.775 314.369 630.853 309.179 627.047C300.104 620.144 291.68 612.424 284.012 603.985C268.345 586.901 256.189 565.433 249.805 543.106C247.8 535.413 248.382 527.058 248.928 519.204C251.488 482.346 245.555 446.134 242.733 409.524C241.376 391.91 242.401 373.19 243.11 355.486C252.24 353.136 261.695 350.571 270.897 348.671Z"/><path fill="#010101" transform="scale(0.195312 0.195312)" d="M307.384 521.494C316.987 520.749 320.039 528.823 313.166 534.252C304.449 536.155 301.152 527.101 307.384 521.494Z"/><path fill="#212121" transform="scale(0.195312 0.195312)" d="M310.241 522.776C315.264 525.412 315.089 529.744 310.255 532.709C304.735 529.156 305.869 526.311 310.241 522.776Z"/><path fill="#2B2B2B" transform="scale(0.195312 0.195312)" d="M406.14 936.646C434.009 923.041 468.295 910.823 499.344 907.779C538.73 903.918 582.343 920.338 617.348 936.779C614.901 944.256 608.313 967.4 604.745 972.569C604.023 973.976 602.888 976.19 601.568 977.127C589.866 991.454 572.747 984.929 558.69 979.004C539.951 971.106 522.853 966.291 502.357 968.233C483.3 970.726 467.21 979.174 449.114 984.701C439.003 987.789 425.375 985.201 420.155 974.997C418.473 972.971 417.355 969.978 416.607 967.477C414.158 963.024 407.695 942.056 406.14 936.646Z"/><path fill="#212121" transform="scale(0.195312 0.195312)" d="M406.14 936.646C434.009 923.041 468.295 910.823 499.344 907.779C538.73 903.918 582.343 920.338 617.348 936.779C614.901 944.256 608.313 967.4 604.745 972.569C606.283 967.058 612.169 952.595 612.278 947.612C608.618 942.294 581.848 932.805 575.077 930.816C518.721 914.263 461.975 919.68 410.387 947.725C411.785 951.386 416.193 964.088 416.607 967.477C414.158 963.024 407.695 942.056 406.14 936.646Z"/><defs><linearGradient id="gradient_8" gradientUnits="userSpaceOnUse" x1="458.4158" y1="961.64191" x2="466.0842" y2="981.35809"><stop offset="0" stop-color="#383836"/><stop offset="1" stop-color="#515052"/></linearGradient></defs><path fill="url(#gradient_8)" transform="scale(0.195312 0.195312)" d="M420.155 974.997C422.171 974.91 424.635 977.566 426.519 978.888C429.233 980.793 433.051 983.12 436.434 983.373C449.103 984.322 463.23 975.73 474.953 971.87C484.163 968.837 492.026 967.17 501.277 965.746L503.181 966.893C502.947 967.973 503.218 967.525 502.357 968.233C483.3 970.726 467.21 979.174 449.114 984.701C439.003 987.789 425.375 985.201 420.155 974.997Z"/><path fill="#3C3C3C" transform="scale(0.195312 0.195312)" d="M501.277 965.746C532.427 962.921 552.168 976.587 581.141 983.126C591.343 985.428 597.875 976.714 601.568 977.127C589.866 991.454 572.747 984.929 558.69 979.004C539.951 971.106 522.853 966.291 502.357 968.233C503.218 967.525 502.947 967.973 503.181 966.893L501.277 965.746Z"/><defs><linearGradient id="gradient_9" gradientUnits="userSpaceOnUse" x1="529.76172" y1="730.04828" x2="508.45276" y2="624.80731"><stop offset="0" stop-color="#252525"/><stop offset="1" stop-color="#434343"/></linearGradient></defs><path fill="url(#gradient_9)" transform="scale(0.195312 0.195312)" d="M383.352 647.085L383.645 645.497C384.966 645.766 388.362 650.442 390.244 651.958C396.062 656.648 402.226 660.359 408.57 664.25C434.505 678.003 462.074 688.421 490.622 695.258C512.261 700.38 518.272 699.434 539.777 693.288C574.236 683.441 613.873 671.083 640.225 645.717L641.163 645.873C641.997 650.202 640.983 659.86 639.875 664.217C633.484 689.359 600.165 708.415 577.324 716.606C572.566 718.028 566.933 720.379 562.046 722.031C547.333 727.004 528.041 732.778 512.47 733.675C512.528 726.845 513.052 710.928 512.377 704.84L511.455 704.109C510.071 708.14 510.833 728.179 510.885 733.808C491.972 732.133 464.954 724.615 447.498 716.932C431.443 711.244 408.935 699.375 397.623 686.977C384.037 672.087 383.002 665.945 383.352 647.085Z"/><path fill="#212121" transform="scale(0.195312 0.195312)" d="M431.387 680.663C437.547 682.029 446.177 686.741 452.142 688.995C467.152 694.667 495.463 704.749 511.455 704.109C510.071 708.14 510.833 728.179 510.885 733.808C491.972 732.133 464.954 724.615 447.498 716.932C444.907 708.002 444.375 696.87 439.472 689.007C437.801 686.326 433.67 683.644 431.387 680.663Z"/><path fill="#212121" transform="scale(0.195312 0.195312)" d="M383.352 647.085C383.92 647.828 385.63 650.288 386.278 650.521C395.701 664.163 416.478 673.42 431.387 680.663C433.67 683.644 437.801 686.326 439.472 689.007C444.375 696.87 444.907 708.002 447.498 716.932C431.443 711.244 408.935 699.375 397.623 686.977C384.037 672.087 383.002 665.945 383.352 647.085Z"/><path fill="#212121" transform="scale(0.195312 0.195312)" d="M641.163 645.873C641.997 650.202 640.983 659.86 639.875 664.217C633.484 689.359 600.165 708.415 577.324 716.606C579.722 705.623 578.191 688.675 589.589 682.513C600.056 676.854 640.541 658.741 641.163 645.873Z"/><path fill="#212121" transform="scale(0.195312 0.195312)" d="M383.352 647.085L383.645 645.497C384.966 645.766 388.362 650.442 390.244 651.958C396.062 656.648 402.226 660.359 408.57 664.25C403.05 663.361 391.503 654.428 387.35 650.399L386.855 649.912L386.278 650.521C385.63 650.288 383.92 647.828 383.352 647.085Z"/><path fill="#212121" transform="scale(0.195312 0.195312)" d="M368.88 309.664C371.726 309.288 374.856 309.391 377.607 310.193C398.074 316.162 418.202 324.056 438.187 331.35C462.566 340.324 487.251 348.447 512.196 355.704C520.114 354.08 534.031 349.33 542.135 346.703C565.675 338.951 589.06 330.738 612.277 322.07C622.533 318.319 639.952 311.538 650.206 309.691C655.864 308.672 675.266 312.856 681.923 314.165C710.189 319.658 738.284 325.994 766.171 333.165C776.224 335.707 786.483 339.181 796.316 341.504C793.644 346.227 792.085 348.238 788.11 351.977C749.933 338.771 711.108 334.17 670.875 333.745C615.204 333.054 566.378 352.412 512.956 363.877C506.842 365.189 467.255 352.475 457.787 350.159C439.264 345.627 416.225 338.478 396.412 336.068C346.763 329.703 282.965 335.499 236.044 352.074C233.136 348.681 230.492 345.701 227.961 341.994C235.777 340.073 244.591 336.896 252.68 334.723C277.756 328.016 303.044 322.134 328.506 317.085C340.668 314.586 356.765 310.967 368.88 309.664Z"/><path fill="#212121" transform="scale(0.195312 0.195312)" d="M418.527 710.334C423.516 711.758 434.923 717.791 440.465 720.188C449.147 723.942 459.399 727.491 468.361 730.136C477.255 732.761 502.218 739.265 510.165 738.841C537.058 737.408 578.974 723.997 602.267 711.54C598.875 722.736 600.07 730.941 611.194 736.874C605.118 738.953 598.897 742.215 593.076 745.029C570.508 756.576 534.518 770.624 510.676 777.914C502.775 776.264 489.575 771.404 481.981 768.691C456.907 759.733 432.587 748.283 408.539 736.857C421.126 731.137 422.147 722.435 418.527 710.334Z"/><path fill="#212121" transform="scale(0.195312 0.195312)" d="M372.885 297.18C385.249 295.84 428.452 312.49 442.338 317.134C457.851 322.412 473.449 327.434 489.127 332.198C492.387 333.199 508.384 338.603 510.745 338.415C521.556 337.554 541.413 330.464 552.1 327.086C568.473 321.854 584.793 316.456 601.056 310.891C614.28 306.288 630.335 300.492 643.894 297.539C649.842 296.244 665.965 299.162 672.376 300.182C703.407 305.12 734.155 312 764.249 321.07C773.764 323.938 783.14 326.165 792.706 329.365C794.117 332.114 795.397 335.252 796.637 338.115C784.12 334.827 771.766 331.081 759.09 327.82C735.265 321.62 711.258 316.142 687.102 311.395C677.865 309.502 656.91 305.008 648.563 305.916C625.998 311.349 601.926 322.046 579.928 329.904C557.545 337.899 534.929 345.536 512.318 352.845C506.089 350.333 497.234 348.041 490.67 345.77C476.608 341.13 464.879 336.756 450.629 331.966C426.248 323.77 398.755 310.364 373.524 305.81C367.676 304.754 344.253 309.957 337.383 311.399C300.858 319.067 262.913 326.981 227.407 338.61C228.969 335.017 230.029 332.425 232.083 329.111C277.413 315.574 325.818 303.06 372.885 297.18Z"/><path fill="#212121" transform="scale(0.195312 0.195312)" d="M332.404 851.205C357.962 874.856 382.916 895.971 384.317 934.206C376.179 937.679 366.983 942.495 358.958 946.463C349.902 951.054 340.807 955.568 331.674 960.006C330.166 945.902 327.189 930.299 324.79 916.294C322.656 903.844 319.432 892.315 319.217 879.482C325.753 867.77 327.772 863.496 332.404 851.205Z"/><path fill="#3C3C3C" transform="scale(0.195312 0.195312)" d="M512.073 449.874C515.686 450.595 529.386 459.477 534.311 462.121C551.733 470.288 591.207 497.261 610.266 498.155C636.796 499.401 686.038 483.69 705.658 464.939C708.004 462.697 714.964 457.313 717.408 457.244C718.009 460.078 711.299 465.181 709.189 467.127C678.451 495.461 637.713 505.354 597.015 506.178C593.788 506.243 582.461 501.72 578.958 500.333C564.754 494.651 550.899 488.133 537.466 480.811C529.126 476.236 520.524 470.839 512.122 466.59C504.418 470.109 497.119 475.397 489.47 479.164C473.559 487.002 440.463 506.44 423.282 506.398C409.467 506.365 382.161 501.546 369.485 497.731C361.863 495.435 354.477 492.418 347.428 488.72C339.347 484.451 308.057 464.746 305.646 456.896L306.474 456.138C309.453 456.036 313.66 460.685 316.433 462.997C328.415 472.989 344.664 482.415 359.063 487.401C370.111 491.227 404.659 499.907 414.634 497.918C446.118 491.639 484.218 463.534 512.073 449.874Z"/><path fill="#212121" transform="scale(0.195312 0.195312)" d="M690.218 852.37C691.027 853.282 693.41 859.531 694.095 861.22C696.792 867.867 700.099 873.784 703.582 880.024C703.126 893.04 698.186 913.35 695.899 926.752C693.998 937.889 692.419 948.521 690.818 959.721C683.747 955.716 672.892 950.875 665.344 947.223C659.223 944.131 644.806 936.823 638.576 935.141C640.169 901.565 663.646 871.371 690.218 852.37Z"/><path fill="#212121" transform="scale(0.195312 0.195312)" d="M225.136 895.741C238.125 894.848 257.221 893.23 267.714 885.134C270.685 882.841 273.16 869.422 275.949 869.041L277.194 869.999C286.457 878.026 302.869 891.776 314.232 895.665C314.551 897.776 315.376 903 315.242 904.926C314.676 913.079 310.185 927.659 306.482 934.725C285.034 930.366 249.184 915.917 232.462 901.695C230.593 900.405 227.029 897.293 225.136 895.741Z"/><path fill="#2B2B2B" transform="scale(0.195312 0.195312)" d="M225.136 895.741C238.125 894.848 257.221 893.23 267.714 885.134C270.685 882.841 273.16 869.422 275.949 869.041L277.194 869.999C276.803 875.852 271.209 885.946 267.095 890.218C261.068 896.475 237.446 897.616 232.462 901.695C230.593 900.405 227.029 897.293 225.136 895.741Z"/><path fill="#212121" transform="scale(0.195312 0.195312)" d="M740.357 870.561L742.016 869.663C745.702 871.452 746.953 882.665 751.786 886.361C761.005 893.412 780.465 895.181 791.314 895.636C789.575 897.382 787.457 899.686 785.5 901.085C764.061 918.257 737.053 928.345 710.687 934.899C701.612 918.011 705.464 912.612 708.211 894.719C716.974 889.286 732.631 877.566 740.357 870.561Z"/><path fill="#2B2B2B" transform="scale(0.195312 0.195312)" d="M740.357 870.561L742.016 869.663C745.702 871.452 746.953 882.665 751.786 886.361C761.005 893.412 780.465 895.181 791.314 895.636C789.575 897.382 787.457 899.686 785.5 901.085C783.741 900.115 776.198 899.707 773.624 899.27C767.308 898.198 760.494 896.82 754.773 893.831C748.447 890.708 747.272 885.891 744.597 880.186C743.663 878.195 741.204 871.699 740.357 870.561Z"/><defs><linearGradient id="gradient_10" gradientUnits="userSpaceOnUse" x1="209.70711" y1="979.45642" x2="185.97691" y2="917.65674"><stop offset="0" stop-color="#171717"/><stop offset="1" stop-color="#3D3D3D"/></linearGradient></defs><path fill="url(#gradient_10)" transform="scale(0.195312 0.195312)" d="M193.7 915.812C194.942 913.881 195.655 912.895 197.127 911.134C206.687 922.948 217.683 933.345 226.982 945.321C229.629 948.73 231.877 952.094 231.461 956.519C231.815 963.83 224.812 973.744 218.464 976.957C208.061 982.223 191.641 985.693 180.342 982.515C176.172 971.342 175.017 953.849 177.425 942.235C178.714 936.018 189.361 920.25 193.7 915.812Z"/><path fill="#3C3C3C" transform="scale(0.195312 0.195312)" d="M193.7 915.812C194.942 913.881 195.655 912.895 197.127 911.134C206.687 922.948 217.683 933.345 226.982 945.321C229.629 948.73 231.877 952.094 231.461 956.519C231.336 956.338 231.211 956.156 231.086 955.975C230.689 953.796 228.324 950.761 227.214 949.115C225.088 945.962 195.717 914.274 195.835 914.344C195.05 915.179 194.747 915.341 193.7 915.812Z"/><path fill="#010101" transform="scale(0.195312 0.195312)" d="M217.996 952.062C227.8 951.367 231.979 961.309 223.009 966.894C219.537 967.254 216.36 967.512 214.314 964.193C211.278 959.267 213.574 954.752 217.996 952.062Z"/><path fill="#212121" transform="scale(0.195312 0.195312)" d="M216.967 957.387C218.186 956.033 218.502 955.423 220.264 954.961C222.284 955.109 222.777 955.727 224.337 957.023C226.138 969.643 211.742 963.227 216.967 957.387Z"/><path fill="#3C3C3C" transform="scale(0.195312 0.195312)" d="M216.967 957.387C218.186 956.033 218.502 955.423 220.264 954.961C222.284 955.109 222.777 955.727 224.337 957.023C222.393 958.882 222.222 959.121 219.783 959.263C218.173 958.675 218.054 958.767 216.967 957.387Z"/><path fill="#2B2B2B" transform="scale(0.195312 0.195312)" d="M197.103 973.313C197.268 973.63 197.432 973.948 197.597 974.265C194.042 976.152 182.85 973.609 178.743 973.249C184.057 972.7 187.476 973.24 192.681 973.51C194.06 973.582 194.214 973 197.103 973.313Z"/><defs><linearGradient id="gradient_11" gradientUnits="userSpaceOnUse" x1="801.23248" y1="978.4906" x2="839.95459" y2="927.71875"><stop offset="0" stop-color="#1B1B1B"/><stop offset="1" stop-color="#404040"/></linearGradient></defs><path fill="url(#gradient_11)" transform="scale(0.195312 0.195312)" d="M820.079 910.777C825.499 917.483 837.344 934.827 840.334 942.638C841.224 954.282 841.025 969.738 836.322 980.709L836.182 981.917C835.343 982.26 835.348 982.321 834.468 982.47C833.74 982.687 833.005 982.877 832.263 983.042C822.645 985.116 805.126 981.066 796.486 975.641C789.668 971.671 787.946 965.106 785.673 958.083C785.292 955.346 785.14 952.593 787.062 950.405C789.998 942.736 812.74 920.521 820.079 910.777Z"/><path fill="#212121" transform="scale(0.195312 0.195312)" d="M840.334 942.638C841.224 954.282 841.025 969.738 836.322 980.709C836.156 978.48 837.022 977.734 836.547 976.156C829.835 977.926 816.488 976.376 809.241 975.619C806.962 975.381 801.218 972.958 798.791 973.217C797.397 973.367 798.407 973.509 796.695 973.266L796.247 972.34L797.083 970.93C796.661 969.001 795.143 970.365 793.456 966.977C800.65 967.504 805.893 965.341 804.09 957.08C812.829 954.868 821.329 950.462 829.63 946.961C833.085 945.503 836.727 943.517 840.334 942.638Z"/><path fill="#010101" transform="scale(0.195312 0.195312)" d="M793.456 966.977C792.587 966.478 791.261 965.274 790.68 964.481C789.54 962.895 789.122 960.902 789.528 958.991C791.03 951.735 799.743 949.245 804.09 957.08C805.893 965.341 800.65 967.504 793.456 966.977Z"/><path fill="#2B2B2B" transform="scale(0.195312 0.195312)" d="M792.457 959.902C794.154 956.968 795.156 954.872 798.963 955.946C800.585 957.47 800.944 958.185 801.031 960.504C801.042 960.846 801.046 961.188 801.043 961.531C799.148 963.796 798.522 964.789 795.425 964.158C793.51 962.823 793.445 962.151 792.457 959.902Z"/><path fill="#212121" transform="scale(0.195312 0.195312)" d="M792.457 959.902C797.8 961.844 797.743 960.547 801.043 961.531C799.148 963.796 798.522 964.789 795.425 964.158C793.51 962.823 793.445 962.151 792.457 959.902Z"/><path fill="#2B2B2B" transform="scale(0.195312 0.195312)" d="M796.486 975.641C798.422 974.887 806.974 977.157 809.054 978.146C814.036 980.513 831.238 980.163 834.468 982.47C833.74 982.687 833.005 982.877 832.263 983.042C822.645 985.116 805.126 981.066 796.486 975.641Z"/><path fill="#2B2B2B" transform="scale(0.195312 0.195312)" d="M785.673 958.083C785.292 955.346 785.14 952.593 787.062 950.405L787.604 951.338L787.083 952.184C787.364 953.975 787.586 954.815 787.392 956.647C786.499 957.556 786.734 957.404 785.673 958.083Z"/><path fill="#3C3C3C" transform="scale(0.195312 0.195312)" d="M328.926 466.586C336.225 470.808 346.295 475.404 354.325 478.168C407.507 496.473 437.628 478.687 482.045 452.077C490.45 447.042 503.815 438.321 512.421 434.272C544.81 450.479 581.209 481.211 618.678 485.282C644.539 488.091 684.668 477.021 704.876 460.187L705.41 460.775C683.756 478.122 659.134 487.586 631.929 491.875C625.192 492.937 617.755 494.254 610.948 493.499C594.653 491.693 547.506 463.735 531.204 454.481C526.057 451.56 519.111 445.852 513.196 445.15C507.986 444.532 500.928 450.23 496.477 452.832C479.983 462.472 432.361 489.903 415.79 493.064C398.913 496.284 363.874 486.183 347.873 478.926C340.877 475.754 334.452 471.554 328.059 467.328L328.926 466.586Z"/><path fill="#212121" transform="scale(0.195312 0.195312)" d="M213.143 898.879C215.14 895.413 215.381 896.113 219.466 896.28C221.546 898.625 223.391 900.626 225.596 902.851C244.943 918.683 280.506 936.434 305.32 940.065C305.769 950.379 307.67 954.334 299.445 961.678C299.315 961.631 299.185 961.584 299.055 961.537L298.401 961.312C290.764 958.617 283.023 957.828 275.328 955.741C262.44 952.245 239.709 945.089 228.908 937.785C226.532 936.178 210.619 919.067 207.691 915.956C209.543 910.476 211.553 904.414 213.143 898.879Z"/><path fill="#2B2B2B" transform="scale(0.195312 0.195312)" d="M213.143 898.879C215.14 895.413 215.381 896.113 219.466 896.28C221.546 898.625 223.391 900.626 225.596 902.851C223.451 902.523 215.865 899.743 213.143 898.879Z"/><defs><linearGradient id="gradient_12" gradientUnits="userSpaceOnUse" x1="269.13202" y1="825.01782" x2="209.98428" y2="887.21533"><stop offset="0" stop-color="#1A1A1A"/><stop offset="1" stop-color="#373737"/></linearGradient></defs><path fill="url(#gradient_12)" transform="scale(0.195312 0.195312)" d="M208.771 849.666C230.519 847.116 250.454 842.936 270.461 833.827C272.737 832.791 274.973 831.225 277.405 832.056C277.951 833.579 277.375 834.491 276.625 835.984C271.94 845.309 267.454 854.986 263.692 864.705C261.465 870.458 260.465 876.706 253.764 878.414C238.826 882.221 215.623 885.115 200.23 882.894C199.077 882.916 199.618 883.062 198.616 882.425C197.194 876.952 200.514 859.666 201.702 853.454C202.055 852.15 202.191 851.93 202.8 850.707C204.374 849.57 206.732 849.759 208.771 849.666Z"/><path fill="#3C3C3C" transform="scale(0.195312 0.195312)" d="M207.452 852.73C206.916 858.094 204.681 877.752 203.055 881.996C201.873 882.542 201.512 882.588 200.23 882.894C199.077 882.916 199.618 883.062 198.616 882.425C197.194 876.952 200.514 859.666 201.702 853.454C203.44 853.374 205.693 852.982 207.452 852.73Z"/><path fill="#2B2B2B" transform="scale(0.195312 0.195312)" d="M201.702 853.454C202.055 852.15 202.191 851.93 202.8 850.707C204.374 849.57 206.732 849.759 208.771 849.666C208.599 851.018 208.512 851.233 209.08 852.473L207.452 852.73C205.693 852.982 203.44 853.374 201.702 853.454Z"/><defs><linearGradient id="gradient_13" gradientUnits="userSpaceOnUse" x1="756.94196" y1="820.67035" x2="800.5993" y2="888.96796"><stop offset="0" stop-color="#1A1919"/><stop offset="1" stop-color="#363636"/></linearGradient></defs><path fill="url(#gradient_13)" transform="scale(0.195312 0.195312)" d="M759.181 876.529C754.672 869.791 744.491 841.094 739.415 832.317C739.136 831.835 739.645 831.39 740.047 830.803C743.227 831.548 754.647 837.571 759.619 839.17C776.258 844.52 791.473 847.552 808.654 850.303C810.645 850.374 812.875 850.154 814.39 851.29C814.782 852.244 815.025 852.737 815.288 853.732C817.782 863.385 818.576 872.65 818.59 882.613C805.584 885.269 771.515 882.443 759.181 876.529Z"/><path fill="#3C3C3C" transform="scale(0.195312 0.195312)" d="M809.948 853.627L815.288 853.732C817.782 863.385 818.576 872.65 818.59 882.613C816.266 882.559 815.689 882.531 813.435 882.064C811.966 876.456 811.594 861.524 810.056 854.121L809.948 853.627Z"/><path fill="#2B2B2B" transform="scale(0.195312 0.195312)" d="M808.654 850.303C810.645 850.374 812.875 850.154 814.39 851.29C814.782 852.244 815.025 852.737 815.288 853.732L809.948 853.627L808.303 853.507C809.224 852.591 808.964 852.969 809.451 851.791L808.654 850.303Z"/><path fill="#212121" transform="scale(0.195312 0.195312)" d="M793.499 901.222C797.929 900.732 798.74 901.964 803.435 899.988C805.345 905.291 807.384 910.729 809.155 916.066C805.871 919.48 789.115 937.79 786.796 938.999C765.436 950.142 740.663 956.291 717.106 960.856C711.319 954.423 712.787 948.896 712.533 940.118C739.411 934.751 772.9 919.177 793.499 901.222Z"/><defs><linearGradient id="gradient_14" gradientUnits="userSpaceOnUse" x1="685.5481" y1="375.89227" x2="751.19446" y2="488.88586"><stop offset="0" stop-color="#181717"/><stop offset="1" stop-color="#4C4C4C"/></linearGradient></defs><path fill="url(#gradient_14)" transform="scale(0.195312 0.195312)" d="M736.278 345.168C739.772 345.851 745.188 346.746 748.455 347.74C748.932 359.75 750.195 372.392 749.911 384.312C748.988 423.183 742.098 460.607 720.543 493.653C713.958 503.749 704.345 512.894 699.388 520.842C695.681 519.435 691.029 517.838 687.647 515.929C694.038 507.101 703.244 500.974 709.596 491.038C737.823 446.887 741.45 396.014 736.278 345.168Z"/><defs><linearGradient id="gradient_15" gradientUnits="userSpaceOnUse" x1="335.19528" y1="368.48718" x2="275.9241" y2="496.83704"><stop offset="0" stop-color="#191919"/><stop offset="1" stop-color="#4B4B4B"/></linearGradient></defs><path fill="url(#gradient_15)" transform="scale(0.195312 0.195312)" d="M276.094 347.155C280.24 346.558 283.637 346.001 287.726 345.127C287.505 349.929 286.924 354.761 286.645 359.58C284.038 404.527 289.522 451.804 314.21 490.494C320.469 500.303 330.835 507.587 336.464 516.493C332.811 518.418 328.735 519.752 324.738 520.762C317.323 510.322 308.516 501.598 301.823 490.295C296.527 481.354 291.343 472.622 287.885 462.675C277.915 433.992 273.622 401.225 274.514 370.901C274.751 362.857 275.624 355.097 276.094 347.155Z"/><path fill="#212121" transform="scale(0.195312 0.195312)" d="M646.63 657.537C659.183 656.851 658.258 660.357 668.41 664.536C684.774 662.571 688.088 660.408 703.246 670.715L703.036 671.253C691.02 676.906 686.195 679.861 675.958 688.031C672.987 690.402 659.692 698.822 656.231 700.281C648.156 703.683 642.348 706.076 634.797 711.41L634.239 711.808C632.058 709.314 631.392 708.301 628.59 706.352C631.363 704.748 635.549 701.196 638.205 699.063C646.617 692.01 657.573 683.049 663.399 673.912C661.808 673.975 657.721 678.101 656.418 679.344C646.836 688.483 636.542 697.003 625.56 704.426C621.123 704.389 619.572 704.411 615.263 705.205C629.582 691.141 645.183 678.607 646.63 657.537Z"/><path fill="#212121" transform="scale(0.195312 0.195312)" d="M646.962 735.205C649.441 734.722 651.99 734.532 654.508 734.282C653.487 739.405 649.568 757.812 650.782 762.142L651.095 761.977L651.566 762.657C653.391 766.641 654.741 769.121 656.972 772.913C657.926 773.587 664.647 784.062 666.306 785.991C679.496 801.374 693.91 816.784 711.016 827.841C716.057 831.105 723.727 824.138 728.42 821.875C738.63 816.952 752.523 804.925 762.847 801.76C776.42 797.598 794.984 799.875 809.178 799.646C813.744 799.572 828.101 799.325 831.543 801.128C832.726 802.774 832.393 801.87 832.479 803.975C831.777 805.024 830.771 805.129 829.47 805.079C813.464 804.467 796.696 803.646 780.736 805.537C756.539 808.402 736.911 827.785 715.05 837.967C689.809 827.028 664.21 799.178 648.541 776.566C639.509 763.53 643.853 749.822 646.962 735.205Z"/><path fill="#525152" transform="scale(0.195312 0.195312)" d="M656.972 772.913L656.155 773.19C653.72 771.698 650.751 765.575 651.566 762.657C653.391 766.641 654.741 769.121 656.972 772.913Z"/><path fill="#212121" transform="scale(0.195312 0.195312)" d="M359.622 734.454L367.209 735.363C369.088 744.058 371.886 757.174 370.722 765.955C370.387 768.483 367.843 773.179 366.306 775.478C351.729 797.289 322.827 826.962 299.039 838.016C282.786 829.713 267.666 818.973 251.602 810.909C232.843 801.493 207.147 805.265 186.822 804.806C185.466 804.787 184.968 804.842 184.049 803.967C183.914 802.478 183.711 802.109 184.418 800.816C187.004 799.036 193.407 800.028 196.855 799.924C213.13 799.435 229.787 798.518 245.982 800.537C253.951 801.561 266.096 810.884 273.405 814.913C282.9 820.148 291.206 825.092 301.366 829.332C317.61 818.94 331.655 804.495 344.334 789.986C346.782 787.184 353.941 776.921 355.79 775.338C358.282 771.38 361.37 766.555 362.839 762.138C364.862 758.288 360.442 740.158 359.622 734.454Z"/><path fill="#646364" transform="scale(0.195312 0.195312)" d="M362.839 762.138C363.953 765.963 359.139 772.788 356.487 775.482L355.79 775.338C358.282 771.38 361.37 766.555 362.839 762.138Z"/><path fill="#2B2B2B" transform="scale(0.195312 0.195312)" d="M307.879 342.674C309.337 342.434 312.159 342.3 313.733 342.173C307.238 379.456 306.521 414.118 314.668 451.453C310.033 450.652 308.46 450.337 304.238 452.472C303.686 452.892 304.048 452.704 303.064 452.813C301.4 450.744 299.538 441.27 298.814 438.268C291.176 406.597 290.712 376.191 294.653 344.036L307.879 342.674Z"/><path fill="#2B2B2B" transform="scale(0.195312 0.195312)" d="M710.455 342.416C716.293 342.515 723.809 343.312 729.873 343.652C733.892 382.77 733.692 410.627 722.805 448.827C720.929 454.803 717.171 451.068 710.143 450.9C716.714 427.015 716.416 388.27 713.967 363.521C713.37 357.49 711.58 348.504 710.455 342.416Z"/><path fill="#212121" transform="scale(0.195312 0.195312)" d="M387.544 934.542C392.452 930.06 405.351 927.862 411.569 925.419C443.2 912.989 475.387 900.305 509.481 896.921C513.281 896.544 518.351 897.328 522.34 897.37C550.947 898.743 606.632 923.231 634.987 933.932L635.367 933.988C636.215 936.795 645.698 940.029 648.474 941.682C661.517 949.45 677.949 955.053 690.72 962.855L687.914 968.964C683.886 966.974 680.027 964.693 676.151 962.478C618.382 929.466 551.94 892.692 482.942 905.366C450.312 911.359 419.073 923.606 389.739 938.951C371.617 948.43 354.11 959.27 335.996 968.883C333.917 966.383 333.544 965.853 332.247 962.877C334.628 961.61 337.058 960.406 339.496 959.225C355.398 951.525 370.983 943.134 386.977 935.637C387.166 935.272 387.355 934.907 387.544 934.542Z"/><path fill="#212121" transform="scale(0.195312 0.195312)" d="M687.647 515.929C691.029 517.838 695.681 519.435 699.388 520.842C697.709 526.662 697.265 540.631 696.835 547.247C694.806 578.538 695.405 609.909 694.956 641.227C690.561 642.284 688.059 642.661 683.545 643.182C682.89 627.585 683.114 606.298 683.444 590.346C683.853 570.5 683.788 534.538 687.647 515.929Z"/><path fill="#212121" transform="scale(0.195312 0.195312)" d="M336.464 516.493C340.919 527.146 342.167 626.213 340.755 642.708C336.151 642.56 333.654 642.044 329.073 641.161C329.028 625.037 330.257 528.644 324.738 520.762C328.735 519.752 332.811 518.418 336.464 516.493Z"/><path fill="#2B2B2B" transform="scale(0.195312 0.195312)" d="M323.586 828.882L324.144 829.732C322.843 835.819 318.423 849.632 315.746 854.992C314.5 852.754 312.749 849.108 310.966 847.494L310.18 847.779C308.692 851.344 313.008 861.432 312.752 865.66C312.175 875.224 311.283 880.052 313.349 889.577C307.897 887.014 300.927 882 295.855 878.495C289.889 873.813 283.829 868.681 277.952 863.847C278.844 860.008 285.249 840.984 287.323 838.724C290.414 839.943 296.469 843.437 298.701 843.27C305.18 842.787 319.597 833.142 323.586 828.882Z"/><path fill="#2B2B2B" transform="scale(0.195312 0.195312)" d="M751.926 823.081C773.702 809.433 786.231 810.313 811.727 810.486C814.364 810.515 814.375 810.113 816.369 811.228C817.77 813.186 817.8 815.944 818.293 818.458C819.055 822.682 821.574 836.099 820.164 839.232C818.278 839.633 817.362 839.277 815.485 838.879C800.235 836.119 781.218 832.454 766.447 827.766C762.399 826.896 757.002 824.24 751.926 823.081Z"/><path fill="#212121" transform="scale(0.195312 0.195312)" d="M751.926 823.081C773.702 809.433 786.231 810.313 811.727 810.486C814.364 810.515 814.375 810.113 816.369 811.228C817.77 813.186 817.8 815.944 818.293 818.458C816.37 818.467 814.642 818.093 813.279 819.565L812.958 819.034C805.832 818.894 770.185 823.06 766.447 827.766C762.399 826.896 757.002 824.24 751.926 823.081Z"/><path fill="#2B2B2B" transform="scale(0.195312 0.195312)" d="M811.727 810.486C814.364 810.515 814.375 810.113 816.369 811.228C817.77 813.186 817.8 815.944 818.293 818.458C816.37 818.467 814.642 818.093 813.279 819.565L812.958 819.034C812.777 816.617 812.114 812.984 811.727 810.486Z"/><path fill="#3C3C3C" transform="scale(0.195312 0.195312)" d="M813.279 819.565C814.642 818.093 816.37 818.467 818.293 818.458C819.055 822.682 821.574 836.099 820.164 839.232C818.278 839.633 817.362 839.277 815.485 838.879C814.57 835.615 813.938 824.131 813.279 819.565Z"/><path fill="#2B2B2B" transform="scale(0.195312 0.195312)" d="M206.075 810.446C228.102 810.514 244.694 810.719 263.72 823.546C261.385 824.374 251.981 827.854 250.075 828.043C240.464 830.748 230.74 833.035 220.931 834.898C214.546 836.058 207.598 836.907 201.34 838.204C199.621 838.462 197.697 838.917 196.318 837.921C195.854 833.797 197.922 823.092 198.663 818.559C199.271 816.033 199.456 812.837 200.892 811.183C202.563 810.078 204.009 810.392 206.075 810.446Z"/><path fill="#212121" transform="scale(0.195312 0.195312)" d="M206.075 810.446C228.102 810.514 244.694 810.719 263.72 823.546C261.385 824.374 251.981 827.854 250.075 828.043C239.395 821.372 217.419 819.434 204.728 819.039L206.075 810.446Z"/><path fill="#3C3C3C" transform="scale(0.195312 0.195312)" d="M198.663 818.559C200.298 818.526 202.345 818.285 203.722 818.983C203.662 824.335 201.793 832.222 201.34 838.204C199.621 838.462 197.697 838.917 196.318 837.921C195.854 833.797 197.922 823.092 198.663 818.559Z"/><path fill="#212121" transform="scale(0.195312 0.195312)" d="M614.423 737.447C615.758 737.708 616.83 737.72 617.722 738.673C617.575 738.923 617.428 739.174 617.281 739.425C594.845 753.923 565.886 766.646 541.387 775.703C527.874 780.698 521.421 783.341 511.384 785.69C478.564 777.986 436.08 758.682 406.428 742.568L399.441 738.73L406.772 737.86C421.214 744.997 435.341 752.453 450.163 758.839C462.832 764.298 497.68 778.306 509.505 779.358C521.309 780.408 576.371 755.796 590.039 749.345C597.957 745.608 605.81 740.811 613.908 737.643C614.079 737.576 614.251 737.512 614.423 737.447Z"/><path fill="#2B2B2B" transform="scale(0.195312 0.195312)" d="M699.854 837.121C706.11 838.816 712.461 845.498 719.492 842.243C722.822 840.701 726.032 838.859 729.245 837.083C731.626 842.4 738.27 857.807 739.205 863.084C738.454 866.065 729.63 872.847 726.947 875.114L709.311 887.468C710.186 878.041 709.321 870.215 708.535 860.819C708.278 857.759 710.902 850.137 709.177 847.925C707.541 848.206 706.432 849.948 705.854 851.375C703.711 849.487 700.996 840.371 699.854 837.121Z"/><path fill="#2B2B2B" transform="scale(0.195312 0.195312)" d="M778.869 959.519C779.978 959.29 779.428 959.227 780.508 959.797C781.995 965.402 783.24 968.907 786.224 973.82C774.375 979.324 746.049 988.053 733.117 989.976L731.526 990.103C729.361 988.356 726.514 977.478 725.963 974.294C741.552 971.666 763.892 964.938 778.869 959.519Z"/><path fill="#2B2B2B" transform="scale(0.195312 0.195312)" d="M237.287 959.05C254.734 965.111 273.068 971.217 291.349 974.083C290.268 978.801 287.362 984.929 285.524 989.762C282.392 988.934 278.168 988.318 274.801 987.525C268.852 986.062 262.94 984.451 257.07 982.693C248.532 980.186 238.84 976.331 231 974.189C234.07 968.346 235.62 965.356 237.287 959.05Z"/><path fill="#212121" transform="scale(0.195312 0.195312)" d="M279.788 833.768C281.406 834.889 281.51 834.565 282.073 836.063C277.87 845.594 274.178 854.784 270.648 864.574C268.858 869.54 266.239 877.424 263.381 881.559C248.836 890.176 217.207 891.642 200.611 889.291C199.226 888.685 198.925 887.87 198.595 886.567C199.707 884.928 200.391 885.31 202.363 885.401C219.268 886.184 237.548 885.537 253.828 880.672C261.798 878.29 263.381 873.009 265.878 865.883C269.756 854.819 274.761 844.357 279.788 833.768Z"/><path fill="#212121" transform="scale(0.195312 0.195312)" d="M735.858 832.643C738.545 833.419 739.598 837.51 740.813 840.075C744.971 849.041 748.494 858.341 752.231 867.489C755.774 876.159 756.686 879.005 766.247 881.674C778.039 884.965 790.084 885.464 802.247 885.576C807.127 885.621 812.804 885.187 817.588 885.7C817.973 887.002 817.426 888.005 816.977 889.347C800.631 891.64 780.162 890.327 764.014 886.068C758.875 884.712 754.392 882.271 752.14 877.311C749.072 870.225 746.225 862.639 743.513 855.422C741.757 850.75 734.448 836.889 735.858 832.643Z"/><path fill="#2B2B2B" transform="scale(0.195312 0.195312)" d="M397.856 707.511C413.613 707.13 417.063 723.903 403.382 728.642C395.745 729.615 392.162 727.809 388.539 721.302C388.189 713.673 389.896 709.82 397.856 707.511Z"/><path fill="#010101" transform="scale(0.195312 0.195312)" d="M399.908 709.585C404.647 709.658 408.438 713.543 408.394 718.283C408.351 723.022 404.489 726.837 399.75 726.823C394.969 726.809 391.112 722.906 391.156 718.125C391.2 713.344 395.127 709.512 399.908 709.585Z"/><path fill="#2B2B2B" transform="scale(0.195312 0.195312)" d="M398.475 712.201C401.426 711.561 404.356 713.36 405.122 716.28C405.888 719.2 404.218 722.205 401.333 723.096C399.354 723.707 397.199 723.183 395.721 721.731C394.243 720.28 393.68 718.135 394.255 716.145C394.831 714.155 396.451 712.641 398.475 712.201Z"/><path fill="#212121" transform="scale(0.195312 0.195312)" d="M619.996 707.617C627.278 708.03 630.525 711.075 632.767 717.84C630.892 725.79 629.042 727.815 621.121 728.928C615.812 729.015 610.488 726.239 609.088 720.828C608.421 718.214 608.883 715.439 610.362 713.182C612.819 709.376 615.864 708.494 619.996 707.617Z"/><path fill="#010101" transform="scale(0.195312 0.195312)" d="M618.159 710.15C622.713 709.817 626.376 710.174 628.739 714.726C629.769 716.667 629.908 718.958 629.12 721.009C628.054 723.846 626.223 725.155 623.641 726.415C611.806 726.829 607.58 714.827 618.159 710.15Z"/><path fill="#2B2B2B" transform="scale(0.195312 0.195312)" d="M619.48 712.451C626.671 712.391 629.932 718.495 622.566 723.663C614.855 723.537 612.079 716.385 619.48 712.451Z"/><defs><linearGradient id="gradient_16" gradientUnits="userSpaceOnUse" x1="781.79633" y1="839.52991" x2="784.16608" y2="831.59583"><stop offset="0" stop-color="#1B1B1B"/><stop offset="1" stop-color="#444343"/></linearGradient></defs><path fill="url(#gradient_16)" transform="scale(0.195312 0.195312)" d="M749.06 825.548C751.442 824.978 793.518 838.619 800.249 838.648C802.487 838.657 818.045 841.599 819.977 842.933C820.647 844.771 820.654 843.898 820.144 845.636L819.088 845.929C801.844 846.387 760.238 836.366 745.826 827.07L746.206 826.364L749.06 825.548Z"/><defs><linearGradient id="gradient_17" gradientUnits="userSpaceOnUse" x1="234.12151" y1="839.57874" x2="232.51463" y2="833.7348"><stop offset="0" stop-color="#1A191A"/><stop offset="1" stop-color="#3A3A3A"/></linearGradient></defs><path fill="url(#gradient_17)" transform="scale(0.195312 0.195312)" d="M219.636 837.773L220.441 837.541C235.235 833.364 251.445 831.667 266.185 825.924C266.545 825.783 269.383 827.302 269.946 828.016C264.303 831.703 251.379 835.785 244.955 837.774C236.796 840.299 203.395 847.414 197.271 844.333L197.077 843.696L197.762 842.975C196.86 843.206 197.381 843.156 196.193 842.954L196.06 842.255C198.076 840.115 215.264 838.424 219.636 837.773Z"/><path fill="#3C3C3C" transform="scale(0.195312 0.195312)" d="M197.762 842.975C196.86 843.206 197.381 843.156 196.193 842.954L196.06 842.255C198.076 840.115 215.264 838.424 219.636 837.773L219.391 839.062C213.253 841.12 202.914 841.308 197.762 842.975Z"/><path fill="#2B2B2B" transform="scale(0.195312 0.195312)" d="M233.988 946.089C246.88 951.581 257.449 957.085 271.758 960.583C278.657 962.269 285.235 963.225 292.11 964.717L292.249 965.342L290.294 967.717L290.22 968.643C285.192 970.435 244.225 956.368 237.814 954.018C236.72 951.511 235.208 948.589 233.988 946.089Z"/><path fill="#2B2B2B" transform="scale(0.195312 0.195312)" d="M781.274 947.538L781.985 947.971C781.551 950.074 780.79 951.917 780.05 953.932C767.768 958.545 739.608 967.786 726.656 968.767C725.865 966.909 725.144 966.567 725.366 964.983C727.924 964.106 739.938 961.576 743.534 960.725C758.023 957.297 767.731 953.672 781.274 947.538Z"/><path fill="#3C3C3C" transform="scale(0.195312 0.195312)" d="M634.987 933.932C634.883 931.618 634.098 930.226 634.113 927.962C634.247 907.883 646.076 889.768 657.943 874.452C659.787 872.072 669.673 862.604 672.303 862.359L672.692 862.816C670.876 865.319 668.445 866.924 666.317 869.156C652.767 883.363 641.458 901.316 636.697 920.496C635.685 924.572 636.301 929.897 635.367 933.988L634.987 933.932Z"/><path fill="#212121" transform="scale(0.195312 0.195312)" d="M333.449 820.298C337.951 824.232 322.627 863.351 319.482 869.476C316.653 864.098 320.111 857.014 322.4 851.963C326.676 842.524 329.186 833.035 331.126 822.902C331.267 822.168 332.857 820.811 333.449 820.298Z"/><path fill="#212121" transform="scale(0.195312 0.195312)" d="M689.684 829.184C690.101 829.365 691.794 830.132 691.929 830.56C695.355 841.453 703.324 857.054 702.91 868.271C698.253 864.744 690.173 836.028 689.684 829.184Z"/><path fill="#212121" transform="scale(0.195312 0.195312)" d="M328.059 467.328C326.731 466.531 324.598 465.435 324.22 464.021C325.987 464.243 327.425 465.522 328.926 466.586L328.059 467.328Z"/></svg>