<?xml version="1.0" encoding="utf-8" ?><svg xmlns="http://www.w3.org/2000/svg" xmlns:xlink="http://www.w3.org/1999/xlink" width="200" height="200" viewBox="0 0 200 200"><path fill="#B17F41" transform="matrix(0.19329 0.00202215 -0.00202215 0.19329 2.0708 0)" d="M291.573 176.776C292.206 175.719 292.799 174.273 293.238 173.142C312.898 122.454 337.789 89.6363 383.294 59.5443C399.47 48.8476 408.763 43.1803 426.635 35.3472C461.405 20.1085 477.689 37.9331 511.995 37.6325C520.39 37.5589 528.919 35.8548 537.021 33.6196C563.918 26.2001 578.043 22.1992 604.904 33.8115C621.856 41.1396 633.841 48.8595 649.125 58.8742C697.653 90.6716 720.4 123.127 742.092 176.377C745.75 182.061 751.421 193.737 752.879 200.294C803.603 215.808 856.995 235.138 899.413 268.088C904.908 266.207 922.976 260.315 927.909 261.486L928.836 262.265C929.211 267.494 917.325 276.057 913.438 279.182L917.947 283.844C922.67 283.637 944.876 281.065 945.501 286.015C943.823 289.728 933.985 295.19 930.335 297.034C951.042 321.949 964.617 345.505 961.985 379.604C960.169 403.134 947.046 425.926 930.293 442.252C932.232 447.092 937.344 459.797 935.427 464.473C930.951 467.964 924.033 455.702 921.397 457.292C922.679 459.802 922.953 461.973 922.654 464.767C921.033 479.931 912.067 466.638 908.338 461.72C874.308 485.436 841.112 499.461 801.167 511.349C788.572 515.098 775.832 517.428 763.851 520.841C751.488 536.52 735.898 560.245 712.921 550.604C710.182 566.352 698.988 618.528 687.8 629.13C662.14 653.444 626.235 675.805 595.502 693.255L595.044 713.654C595.045 716.094 594.967 718.84 595.192 721.245C595.578 729.036 597.404 748.644 601.916 754.775C601.004 757.502 600.081 760.531 598.953 763.151C597.239 767.625 585.392 791.164 582.351 793.064L582.26 792.108C582.945 791.191 582.983 790.916 583.12 789.783L583.469 790.185C582.104 789.344 576.268 789.194 574.524 789.411C547.98 792.712 520.965 792.416 494.386 789.514C485.282 788.52 475.095 784.858 466.016 783.24C459.659 782.106 453.686 779.578 447.53 777.759C444.917 776.971 438.876 774.418 436.808 774.899C436.851 777.595 439.948 780.371 439.685 783.082C437.736 781.654 431.299 766.429 429.993 763.396C428.792 761.035 428.277 759.099 427.489 756.589C432.182 750.418 434.312 729.514 434.461 721.293C434.503 718.813 434.431 716.473 434.356 714.001C434.766 710.319 434.204 697.633 434.103 693.406C423.23 687.517 412.597 681.192 402.232 674.447C388.46 665.663 347.476 638.111 338.694 624.79C329.643 611.06 320.309 568.033 316.534 550.953C316.077 551.107 315.619 551.257 315.159 551.402C292.327 558.539 280.171 538.241 267.552 522.67C266.136 520.922 262.783 515.556 261.147 514.691C208.223 500.85 152.086 479.716 111.502 441.827C107.146 445.428 97.1425 454.663 91.9669 454.212C88.048 451.067 96.7901 438.495 98.8693 435.211C94.8418 435.983 85.7812 438.619 84.2348 433.476C84.9311 428.841 89.8562 424.993 93.2579 421.922C87.5815 413.375 85.3536 408.751 81.9616 398.997C77.8422 400.774 64.4538 407.785 62.2742 401.94C62.837 396.81 70.3189 390.881 74.2264 387.24C69.2625 386.288 62.26 385.599 58.9562 381.917C57.3076 375.978 71.3811 373.702 75.4979 372.711C74.4756 341.684 85.6543 319.443 105.751 296.475C101.715 295.589 89.3128 293.407 88.8134 289.122C91.4854 284.456 111.637 284.046 117.453 283.877C125.675 276.116 132.935 269.644 142.301 263.231C141.61 259.405 139.701 251.351 144.107 249.715C147.723 250.096 149.655 252.849 152.291 255.523C181.908 235.816 214.101 220.288 247.96 209.377C258.867 205.748 271.377 202.913 281.521 199.39C284.029 192.158 286.924 182.792 291.573 176.776Z"/><defs><linearGradient id="gradient_0" gradientUnits="userSpaceOnUse" x1="516.40814" y1="179.33478" x2="522.15167" y2="30.897104"><stop offset="0" stop-color="#C69957"/><stop offset="1" stop-color="#DCB778"/></linearGradient></defs><path fill="url(#gradient_0)" transform="matrix(0.19329 0.00202215 -0.00202215 0.19329 2.0708 0)" d="M291.573 176.776C292.206 175.719 292.799 174.273 293.238 173.142C312.898 122.454 337.789 89.6363 383.294 59.5443C399.47 48.8476 408.763 43.1803 426.635 35.3472C461.405 20.1085 477.689 37.9331 511.995 37.6325C520.39 37.5589 528.919 35.8548 537.021 33.6196C563.918 26.2001 578.043 22.1992 604.904 33.8115C621.856 41.1396 633.841 48.8595 649.125 58.8742C697.653 90.6716 720.4 123.127 742.092 176.377C739.118 175.248 736.728 174.397 733.919 172.888C594.253 119.335 439.714 119.332 300.045 172.882C297.218 174.246 294.487 175.603 291.573 176.776Z"/><path fill="#9C7039" transform="matrix(0.19329 0.00202215 -0.00202215 0.19329 2.0708 0)" d="M291.573 176.776C292.206 175.719 292.799 174.273 293.238 173.142C312.898 122.454 337.789 89.6363 383.294 59.5443C399.47 48.8476 408.763 43.1803 426.635 35.3472C461.405 20.1085 477.689 37.9331 511.995 37.6325C520.39 37.5589 528.919 35.8548 537.021 33.6196C563.918 26.2001 578.043 22.1992 604.904 33.8115C621.856 41.1396 633.841 48.8595 649.125 58.8742C697.653 90.6716 720.4 123.127 742.092 176.377C739.118 175.248 736.728 174.397 733.919 172.888C733.503 169.851 728.833 160.73 727.339 157.522C718.458 138.459 704.074 114.432 689.239 99.3698C664.84 74.5972 605.084 29.6931 568.935 32.6678C553.534 33.9352 533.846 43.1821 512.93 43.6217C504.44 43.8155 495.956 43.0209 487.649 41.2539C476.735 38.9508 465.656 35.3209 454.421 35.2432C422.821 35.0247 369.088 74.8996 347.083 96.6994C328.903 114.71 316.312 136.609 305.393 159.545C303.686 163.132 300.061 168.985 300.045 172.882C297.218 174.246 294.487 175.603 291.573 176.776Z"/><path fill="#B17F41" transform="matrix(0.19329 0.00202215 -0.00202215 0.19329 2.0708 0)" d="M613.456 81.268C616.232 83.149 619.995 92.8252 621.539 96.3269C625.697 96.6086 636.17 98.6949 640.475 99.5681C638.566 93.8179 636.898 88.8361 635.434 82.9544C639.993 88.315 643.097 94.1227 645.5 100.754C651.773 101.959 656.582 103.141 662.587 105.266C660.725 101.57 657.934 96.5187 657.326 92.4577L657.77 91.9892C661.481 94.2231 666.915 104.063 669.121 107.942C675.986 109.927 684.506 114.268 689.66 119.254C683.705 118.084 677.193 115.864 671.643 113.426C673.836 118.096 676.181 122.849 677.96 127.679C685.605 131.006 690.976 132.849 697.269 138.309C690.815 137.199 686.697 135.914 680.555 133.598C681.104 135.426 681.949 137.519 682.626 139.332C683.497 142.321 684.559 145.165 684.196 148.276L683.48 148.705C680.365 146.573 676.199 135.641 674.527 131.671C667.971 130.009 660.707 127.828 654.177 125.912L654.269 126.233C655.118 129.278 657.91 138.569 656.401 141.265L655.427 140.901C652.262 137.008 650.193 129.296 648.539 124.326C641.738 122.93 635.287 121.527 628.43 120.315C628.653 123.514 629.528 129.745 627.892 132.181C625.401 130.341 624.156 122.331 623.584 119.168C617.406 118.442 607.577 116.655 602.114 113.829C609.509 113.292 614.522 113.755 621.915 114.613C620.763 109.679 619.494 104.773 618.108 99.8987C611.379 98.9269 606.189 98.2195 599.752 96.1308C605.888 95.23 610.818 95.4224 616.95 95.5969L613.456 81.268Z"/><path fill="#E0A97D" transform="matrix(0.19329 0.00202215 -0.00202215 0.19329 2.0708 0)" d="M622.912 100.934C629.292 102.148 635.779 103.301 642.091 104.797C643.619 109.525 645.087 114.067 646.417 118.864C639.943 117.351 633.36 115.872 626.734 115.27C625.531 110.473 624.257 105.694 622.912 100.934Z"/><path fill="#E0A97D" transform="matrix(0.19329 0.00202215 -0.00202215 0.19329 2.0708 0)" d="M647.733 106.347C653.816 107.969 659.878 109.666 665.919 111.435C668.087 116.128 670.101 120.89 671.961 125.713C665.623 123.62 659.001 122.231 652.491 120.752L647.733 106.347Z"/><path fill="#B17F41" transform="matrix(0.19329 0.00202215 -0.00202215 0.19329 2.0708 0)" d="M407.821 83.9494L408.222 84.6818C407.177 88.8477 403.003 96.8563 400.913 101.098C406.27 100.377 414.736 100.014 420.107 99.9764C415.149 103.46 405.142 105.037 398.906 106.367C397.137 111.702 394.702 116.529 392.894 122.123C397.083 121.688 414.358 119.836 417.122 122.015C415.731 123.838 395.082 126.542 391.051 127.2C389.5 131.403 386.273 141.135 383.759 144.299L383.001 144.353C381.512 140.041 384.477 132.682 385.912 128.125C378.124 129.856 370.219 131.05 362.74 133.58C359.67 138.636 357.202 145.051 353.778 150.771L352.945 150.702C351.879 147.785 355.383 138.096 356.492 135.066C350.06 137.618 345.023 138.802 338.196 139.331C345.721 134.083 351.038 132.593 359.542 129.409C362.316 122.999 364.407 117.868 368.385 112.041C365.001 113.046 351.867 117.448 349.344 115.844C350.933 112.776 367.151 108.01 371.127 107.077C374.145 100.74 378.989 94.477 383.817 89.399C382.198 95.8878 379.675 99.9498 376.612 105.83C382.276 104.207 389.91 102.999 395.915 101.655C399.4 95.3661 402.699 89.0256 407.821 83.9494Z"/><path fill="#E0A97D" transform="matrix(0.19329 0.00202215 -0.00202215 0.19329 2.0708 0)" d="M392.39 107.195L393.042 107.304C393.169 108.332 388.031 121.065 387.232 123.237C380.924 124.448 372.713 125.85 366.755 127.723L366.159 127.557C365.928 125.555 372.356 113.879 373.719 110.896C380.126 109.521 385.884 108.15 392.39 107.195Z"/><path fill="#E0A97D" transform="matrix(0.19329 0.00202215 -0.00202215 0.19329 2.0708 0)" d="M611.11 167.781C609.419 172.514 607.904 176.93 605.77 181.496C604.101 185.066 601.079 189.651 599.74 193.144C604.493 189.128 607.143 186.671 610.589 181.453C629.096 182.252 647.508 186.499 665.42 188.257C665.469 193.437 665.525 195.23 667.28 200.319C667.804 192.855 669.351 184.51 672.3 177.598C673.126 180.307 676.572 196.274 677.233 196.969C678.757 196.299 682.275 192.049 683.771 190.533C687.408 186.846 690.846 184.372 694.956 181.336C690.603 192.961 688.425 193.488 683.011 202.925C688.794 200.197 690.411 197.989 694.937 193.371C768.573 208.032 831.147 227.912 893.415 270.844C891.285 271.958 889.517 272.612 888.058 274.471L888.26 275.164C893.342 275.801 913.831 268.691 920.394 267.192C916.582 270.994 913.377 273.589 909.233 277.01C910.062 278.177 910.022 277.955 911.293 278.676C912.138 280.261 912.688 280.941 912.691 282.741C911.88 284.383 912.439 283.66 910.722 284.783C909.67 284.053 910.074 284.5 909.463 283.484C908.732 284.476 901.326 286.437 897 289.705C908.628 289.547 923.559 288.452 935.653 288.062C932.256 290.552 928.462 293.008 924.891 295.22C917.539 299.772 895.148 303.85 890.466 294.55L890.949 293.616C891.495 293.465 896.632 291.785 896.654 291.765C891.776 287.321 877.114 276.746 871.143 275.428C870.315 275.847 869.323 276.494 868.423 276.028C860.062 271.695 850.619 265.895 842.237 261.602C795.655 238.03 743.861 223.187 692.552 213.868C555.781 189.029 403.025 191.196 269.138 229.985C246.437 236.628 224.253 244.925 202.764 254.809C196.372 257.747 177.01 269.951 173.01 270.778C171.241 270.351 170.943 269.919 169.589 268.738C168.777 270.205 163.727 274.124 162.597 274.454C160.387 268.452 159.24 266.296 155.652 260.97C201.115 228.206 272.333 204.942 327.364 194.836C331.808 198.777 336.425 201.33 341.713 203.915C338.077 200.382 325.49 188.736 325.799 184.224C327.169 183.581 327.282 184.041 329.247 184.702C332.256 186.597 335.371 188.625 338.452 190.371C340.167 190.597 341.878 190.854 343.584 191.141C346.198 190.53 350.922 189.889 353.708 189.405L354.332 196.148C355.743 192.431 362.034 173.904 365.3 173.559L366.006 175.38C366.022 179.014 366.059 181.432 365.544 184.991C365.031 188.527 363.46 193.47 363.509 196.795L363.956 197.15C366.262 194.968 368.492 190.076 369.917 187.164C387.939 184.654 406.015 182.546 424.131 180.84C480.557 175.965 537.282 175.628 593.761 179.832C592.938 183.368 592.627 185.88 592.189 189.499C596.982 179.6 601.91 174.156 611.11 167.781Z"/><path fill="#9C7039" transform="matrix(0.19329 0.00202215 -0.00202215 0.19329 2.0708 0)" d="M169.589 268.738C172.484 264.204 181.771 259.338 186.768 256.604C224.586 235.913 269.038 222.747 310.995 213.493C377.175 199.239 444.654 191.886 512.351 191.553C545.3 191.339 580.875 193.589 613.794 196.984C700.077 205.882 789.89 223.521 865.701 267.48C867.915 268.764 870.268 270.692 871.357 273.021C871.396 274.454 871.462 274.044 871.143 275.428C870.315 275.847 869.323 276.494 868.423 276.028C860.062 271.695 850.619 265.895 842.237 261.602C795.655 238.03 743.861 223.187 692.552 213.868C555.781 189.029 403.025 191.196 269.138 229.985C246.437 236.628 224.253 244.925 202.764 254.809C196.372 257.747 177.01 269.951 173.01 270.778C171.241 270.351 170.943 269.919 169.589 268.738Z"/><path fill="#9C7039" transform="matrix(0.19329 0.00202215 -0.00202215 0.19329 2.0708 0)" d="M909.233 277.01C910.062 278.177 910.022 277.955 911.293 278.676C912.138 280.261 912.688 280.941 912.691 282.741C911.88 284.383 912.439 283.66 910.722 284.783C909.67 284.053 910.074 284.5 909.463 283.484C908.955 283.335 897.717 284.572 894.871 284.439C901.041 281.61 903.831 281.316 909.233 277.01Z"/><path fill="#9C7039" transform="matrix(0.19329 0.00202215 -0.00202215 0.19329 2.0708 0)" d="M338.452 190.371C340.167 190.597 341.878 190.854 343.584 191.141C345.688 193.594 346.467 195.862 347.656 198.795L338.452 190.371Z"/><path fill="#7C5739" transform="matrix(0.19329 0.00202215 -0.00202215 0.19329 2.0708 0)" d="M300.045 172.882C439.714 119.332 594.253 119.335 733.919 172.888C736.728 174.397 739.118 175.248 742.092 176.377C745.75 182.061 751.421 193.737 752.879 200.294C750.96 200.003 748.581 199.305 746.655 198.81C744.458 198.601 698.578 188.623 698.078 188.346C697.05 184.626 700.614 177.877 697.901 175.81C694.295 176.294 689.984 179.846 687.792 182.624C687.751 186.235 681.863 188.579 679.004 187.446C677.968 183.454 676.256 174.42 672.521 172.398C668.479 172.666 668.862 181.199 665.95 182.945C660.306 182.914 647.066 180.066 640.955 179.287C635.686 178.616 617.282 177.521 613.723 175.942C613.38 172.842 614.991 166.774 614.826 162.28C606.652 162.671 601.417 172.62 595.883 174.934C595.439 175.12 581.373 174.02 579.887 173.925C569.38 173.273 558.865 172.767 548.344 172.407C507.679 171.158 466.977 172.167 426.424 175.43C415.7 176.224 404.207 177.755 393.505 178.794C388.218 179.306 373.63 181.964 369.499 181.459C368.343 177.152 368.965 168.755 365.768 166.5C361.835 167.063 358.775 177.407 359.307 180.604C361.721 178.353 362.228 172.243 365.316 171.986C366.533 173.175 366.016 172.474 366.469 174.498L366.006 175.38L365.3 173.559C362.034 173.904 355.743 192.431 354.332 196.148L353.708 189.405C350.922 189.889 346.198 190.53 343.584 191.141C341.878 190.854 340.167 190.597 338.452 190.371C335.371 188.625 332.256 186.597 329.247 184.702C330.01 184.251 329.665 184.446 330.776 184.475L331.013 183.713C329.201 181.958 327.701 181.246 326.032 179.16C324.03 177.46 322.617 176.49 320.255 177.943C318.228 181.942 320.498 186.26 322.977 189.509C311.209 191.771 300.144 194.739 288.556 197.77C286.262 198.262 283.757 198.736 281.521 199.39C284.029 192.158 286.924 182.792 291.573 176.776C294.487 175.603 297.218 174.246 300.045 172.882Z"/><path fill="#55371B" transform="matrix(0.19329 0.00202215 -0.00202215 0.19329 2.0708 0)" d="M300.045 172.882C439.714 119.332 594.253 119.335 733.919 172.888C736.728 174.397 739.118 175.248 742.092 176.377C745.75 182.061 751.421 193.737 752.879 200.294C750.96 200.003 748.581 199.305 746.655 198.81C743.3 192.901 741.838 182.767 734.525 179.794C611.614 129.841 468.892 126.321 342.258 164.495C329.069 168.471 306.096 175.638 295.263 182.273C292.315 187.378 290.376 192.201 288.556 197.77C286.262 198.262 283.757 198.736 281.521 199.39C284.029 192.158 286.924 182.792 291.573 176.776C294.487 175.603 297.218 174.246 300.045 172.882Z"/><path fill="#946A34" transform="matrix(0.19329 0.00202215 -0.00202215 0.19329 2.0708 0)" d="M596.433 174.154C603.027 167.319 606.586 162.741 616.166 161.203C615.654 166.612 615.133 170.337 614.214 175.682C631.563 177.188 648.848 179.36 666.03 182.193C666.948 178.738 669.109 170.767 673.495 171.619C677.472 174.999 678.493 182.735 679.99 187.732C681.948 186.241 684.455 183.963 686.801 183.587L687.792 182.624C687.751 186.235 681.863 188.579 679.004 187.446C677.968 183.454 676.256 174.42 672.521 172.398C668.479 172.666 668.862 181.199 665.95 182.945C660.306 182.914 647.066 180.066 640.955 179.287C635.686 178.616 617.282 177.521 613.723 175.942C613.38 172.842 614.991 166.774 614.826 162.28C606.652 162.671 601.417 172.62 595.883 174.934C595.439 175.12 581.373 174.02 579.887 173.925C569.38 173.273 558.865 172.767 548.344 172.407C507.679 171.158 466.977 172.167 426.424 175.43C415.7 176.224 404.207 177.755 393.505 178.794C388.218 179.306 373.63 181.964 369.499 181.459C368.343 177.152 368.965 168.755 365.768 166.5C361.835 167.063 358.775 177.407 359.307 180.604C361.721 178.353 362.228 172.243 365.316 171.986C366.533 173.175 366.016 172.474 366.469 174.498L366.006 175.38L365.3 173.559C362.034 173.904 355.743 192.431 354.332 196.148L353.708 189.405C350.922 189.889 346.198 190.53 343.584 191.141C341.878 190.854 340.167 190.597 338.452 190.371C335.371 188.625 332.256 186.597 329.247 184.702C330.01 184.251 329.665 184.446 330.776 184.475L331.013 183.713C329.201 181.958 327.701 181.246 326.032 179.16C330.493 181.915 335.601 183.227 339.027 186.193C344.598 184.614 349.415 184.149 355.173 183.595C356.587 179.375 361.498 165.238 366.653 166.334C369.38 168.936 369.846 175.397 369.96 179.192C369.979 179.889 369.984 180.587 369.975 181.285C382.873 178.65 403.101 176.695 416.173 175.476C459.659 171.462 503.351 170.116 547.002 171.445C560.075 171.798 583.737 172.553 596.433 174.154Z"/><defs><linearGradient id="gradient_1" gradientUnits="userSpaceOnUse" x1="517.34222" y1="695.78436" x2="512.98022" y2="790.95325"><stop offset="0" stop-color="#BF6842"/><stop offset="1" stop-color="#E5AF82"/></linearGradient></defs><path fill="url(#gradient_1)" transform="matrix(0.19329 0.00202215 -0.00202215 0.19329 2.0708 0)" d="M429.993 763.396C441.826 748.666 440.9 726.964 440.248 709.19C440.116 705.578 440.163 701.942 440.716 698.364C441.89 697.349 444.366 698.774 445.893 699.491C464.091 708.032 472.106 716.05 493.146 717.84C509.944 719.27 527.482 719.784 544.24 716.439C552.371 714.816 560.38 710.836 567.856 707.525C572.732 705.365 583.56 698.281 588.204 697.859C590.071 699.798 588.665 719.752 588.573 723.612C588.203 739.089 591.719 749.569 598.953 763.151C597.239 767.625 585.392 791.164 582.351 793.064L582.26 792.108C582.945 791.191 582.983 790.916 583.12 789.783L583.469 790.185C582.104 789.344 576.268 789.194 574.524 789.411C547.98 792.712 520.965 792.416 494.386 789.514C485.282 788.52 475.095 784.858 466.016 783.24C459.659 782.106 453.686 779.578 447.53 777.759C444.917 776.971 438.876 774.418 436.808 774.899C436.851 777.595 439.948 780.371 439.685 783.082C437.736 781.654 431.299 766.429 429.993 763.396Z"/><path fill="#9C7039" transform="matrix(0.19329 0.00202215 -0.00202215 0.19329 2.0708 0)" d="M322.977 189.509C320.498 186.26 318.228 181.942 320.255 177.943C322.617 176.49 324.03 177.46 326.032 179.16C327.701 181.246 329.201 181.958 331.013 183.713L330.776 184.475C329.665 184.446 330.01 184.251 329.247 184.702C327.282 184.041 327.169 183.581 325.799 184.224C325.49 188.736 338.077 200.382 341.713 203.915C336.425 201.33 331.808 198.777 327.364 194.836C272.333 204.942 201.115 228.206 155.652 260.97C159.24 266.296 160.387 268.452 162.597 274.454C163.347 277.32 165.716 284.6 164.714 286.875C165.212 288.1 165.434 288.353 165.49 289.65L164.277 290.004C160.127 289.099 156.314 286.372 153.342 283.417L150.795 284.835C154.976 288.347 161.631 290.219 164.491 292.958L164.289 293.756C157.391 296.133 139.311 297.778 132.133 297.694C133.709 298.681 137.309 298.07 139.487 298.47C138.299 299.684 131.19 299.486 130.198 300.398L129.567 301.035C126.719 303.873 122.611 306.66 119.557 309.668C107.298 321.743 97.5889 335.047 90.2868 350.671C87.3573 356.939 85.4906 367.507 82.5357 372.482C85.3246 372.756 87.8858 372.349 89.8492 373.665C91.7201 373.285 92.837 372.823 94.5714 373.545C95.8283 375.658 94.4031 376.713 92.9175 378.42L93.2293 378.346C91.6574 380.161 90.222 380.322 87.8985 381.035C89.6326 381.249 90.5882 381.348 92.3281 381.361C91.4964 381.916 90.6489 382.447 89.7868 382.954L92.8869 382.617C93.7488 384.25 93.1248 384.287 93.5519 386.011C93.7538 389.364 89.2196 393.278 86.8581 395.647C89.8483 403.64 93.0806 412.52 98.8057 419.035C101.677 417.124 104.348 415.06 107.83 416.171C110.287 414.856 114.185 412.52 116.749 412.197L119.904 413.194C119.394 414.33 111.325 418.355 113.547 422.336L114.136 422.581L116.284 422.814C115.586 424.342 111.424 427.184 109.73 428.972C105.543 433.39 101.456 438.038 98.869 443.597L98.6104 444.142C98.0725 445.296 98.0921 444.871 98.1871 445.999C100.3 445.272 111.197 436.336 113.616 434.285C115.372 432.795 117.53 429.836 119.727 428.933L120.214 429.447C118.743 432.263 117.156 434.561 115.398 437.2C143.352 465.489 190.366 486.16 227.541 498.583C236.766 501.666 246.887 504.244 256.275 507.097C259.012 510.229 259.279 510.842 261.147 514.691C208.223 500.85 152.086 479.716 111.502 441.827C107.146 445.428 97.1425 454.663 91.9669 454.212C88.048 451.067 96.7901 438.495 98.8693 435.211C94.8418 435.983 85.7812 438.619 84.2348 433.476C84.9311 428.841 89.8562 424.993 93.2579 421.922C87.5815 413.375 85.3536 408.751 81.9616 398.997C77.8422 400.774 64.4538 407.785 62.2742 401.94C62.837 396.81 70.3189 390.881 74.2264 387.24C69.2625 386.288 62.26 385.599 58.9562 381.917C57.3076 375.978 71.3811 373.702 75.4979 372.711C74.4756 341.684 85.6543 319.443 105.751 296.475C101.715 295.589 89.3128 293.407 88.8134 289.122C91.4854 284.456 111.637 284.046 117.453 283.877C125.675 276.116 132.935 269.644 142.301 263.231C141.61 259.405 139.701 251.351 144.107 249.715C147.723 250.096 149.655 252.849 152.291 255.523C181.908 235.816 214.101 220.288 247.96 209.377C258.867 205.748 271.377 202.913 281.521 199.39C283.757 198.736 286.262 198.262 288.556 197.77C300.144 194.739 311.209 191.771 322.977 189.509Z"/><path fill="#E0A97D" transform="matrix(0.19329 0.00202215 -0.00202215 0.19329 2.0708 0)" d="M112.051 298.463C118.898 299.973 123.294 300.687 130.198 300.398L129.567 301.035C126.719 303.873 122.611 306.66 119.557 309.668C107.298 321.743 97.5889 335.047 90.2868 350.671C87.3573 356.939 85.4906 367.507 82.5357 372.482L81.7689 372.126C81.0077 370.996 80.9179 370.43 80.9607 368.872C81.7186 341.267 93.748 318.084 112.051 298.463Z"/><path fill="#E0A97D" transform="matrix(0.19329 0.00202215 -0.00202215 0.19329 2.0708 0)" d="M143.046 269.54C145.072 276.437 146.574 279.174 150.795 284.835C154.976 288.347 161.631 290.219 164.491 292.958L164.289 293.756C157.391 296.133 139.311 297.778 132.133 297.694C122.238 297.423 108.68 293.229 99.1323 289.969C107.829 288.995 116.81 288.572 125.543 288.063C128.817 287.872 136.911 287.86 139.685 287.287L139.338 286.733C134.321 284.662 130.717 284.667 125.411 284.214C130.11 279.617 137.623 274.353 143.046 269.54Z"/><path fill="#E0A97D" transform="matrix(0.19329 0.00202215 -0.00202215 0.19329 2.0708 0)" d="M145.792 255.036C158.455 269.526 155.96 271.562 164.714 286.875C165.212 288.1 165.434 288.353 165.49 289.65L164.277 290.004C160.127 289.099 156.314 286.372 153.342 283.417C146.993 274.294 146.78 266.057 145.792 255.036Z"/><path fill="#E0A97D" transform="matrix(0.19329 0.00202215 -0.00202215 0.19329 2.0708 0)" d="M107.83 416.171C110.287 414.856 114.185 412.52 116.749 412.197L119.904 413.194C119.394 414.33 111.325 418.355 113.547 422.336L114.136 422.581C105.665 427.773 100.617 430.257 90.7451 431.79C94.5113 426.421 102.261 419.548 107.83 416.171Z"/><path fill="#E0A97D" transform="matrix(0.19329 0.00202215 -0.00202215 0.19329 2.0708 0)" d="M89.8492 373.665C91.7201 373.285 92.837 372.823 94.5714 373.545C95.8283 375.658 94.4031 376.713 92.9175 378.42L93.2293 378.346C91.6574 380.161 90.222 380.322 87.8985 381.035C80.5259 383.624 75.3598 383.96 67.7983 381.048L67.7776 380.421C73.1729 377.78 83.8332 374.724 89.8492 373.665Z"/><path fill="#E0A97D" transform="matrix(0.19329 0.00202215 -0.00202215 0.19329 2.0708 0)" d="M89.7868 382.954L92.8869 382.617C93.7488 384.25 93.1248 384.287 93.5519 386.011C87.8808 389.539 80.0112 397.485 71.8503 397.658L71.36 397.104C73.4427 391.763 84.7976 385.938 89.247 383.28L89.7868 382.954Z"/><path fill="#E0A97D" transform="matrix(0.19329 0.00202215 -0.00202215 0.19329 2.0708 0)" d="M342.82 268.181C352.251 264.544 373.931 260.358 384.716 258.233C462.397 243.652 541.969 242.152 620.144 253.795C639.377 256.495 670.911 262.091 689.287 267.692C703.43 269.764 746.548 286.333 758.846 293.567C761.958 327.695 763.178 372.606 755.166 406.109C751.476 409.878 749.073 412.693 746.809 417.564C739.507 432.551 736.289 447.189 732.209 463.193C730.701 469.112 729.366 475.185 727.315 480.927C725.14 482.605 724.248 482.845 721.48 482.485L721.316 483.039C719.869 488.072 718.572 495.842 717.517 501.144C715.71 510.251 713.791 519.336 711.759 528.396C707.119 549.619 696.494 601.843 686.667 618.998C675.945 637.716 607.993 678.671 586.431 690.772C575.209 697.07 563.119 703.973 550.81 707.835C532.173 713.683 497.417 713.585 478.633 708.328C453.821 701.383 353.72 638.551 342.627 618.683C337.423 609.363 334.841 597.571 332.05 587.321C325.318 562.591 319.75 537.403 314.444 512.324C312.499 503.131 311.376 492.547 308.074 483.775C305.407 483.39 304.01 482.624 301.891 481.082C295.711 459.053 292.867 436.723 281.814 416.055C280.13 412.965 278.123 410.793 276.004 408.056C267.818 397.478 268.083 338.438 268.563 324.178C268.943 314.829 269.69 305.499 270.803 296.209C284.503 288.083 327.847 270.01 342.82 268.181Z"/><path fill="#2A1B0E" transform="matrix(0.19329 0.00202215 -0.00202215 0.19329 2.0708 0)" d="M270.803 296.209C284.503 288.083 327.847 270.01 342.82 268.181C323.591 289.373 331.153 324.419 329.377 350.012C328.99 355.595 321.789 365.293 320.288 371.113C309.488 396.512 306.163 415.915 307.475 443.294C307.801 449.792 308.271 456.281 308.885 462.758C309.391 467.956 310.554 474.601 310.21 479.804C310.158 480.592 308.593 482.974 308.074 483.775C305.407 483.39 304.01 482.624 301.891 481.082C295.711 459.053 292.867 436.723 281.814 416.055C280.13 412.965 278.123 410.793 276.004 408.056C267.818 397.478 268.083 338.438 268.563 324.178C268.943 314.829 269.69 305.499 270.803 296.209Z"/><path fill="#2A1B0E" transform="matrix(0.19329 0.00202215 -0.00202215 0.19329 2.0708 0)" d="M689.287 267.692C703.43 269.764 746.548 286.333 758.846 293.567C761.958 327.695 763.178 372.606 755.166 406.109C751.476 409.878 749.073 412.693 746.809 417.564C739.507 432.551 736.289 447.189 732.209 463.193C730.701 469.112 729.366 475.185 727.315 480.927C725.14 482.605 724.248 482.845 721.48 482.485C720.88 481.573 719.74 479.976 719.692 478.905C719.393 472.229 720.573 465.005 721.245 458.35C721.843 452.52 722.252 446.672 722.469 440.816C723.533 412.966 721.461 397.125 710.055 370.998C707.958 365.024 701.28 356.085 700.666 349.981C697.919 322.672 706.149 292.241 689.287 267.692Z"/><path fill="#150F05" transform="matrix(0.19329 0.00202215 -0.00202215 0.19329 2.0708 0)" d="M342.82 442.508C347.791 429.323 359.028 417.862 371.934 411.857C397.998 399.729 441.745 405.958 454.455 434.874C456.328 439.137 459.427 448.607 458.202 453.179C456.264 458.531 454.97 459.893 449.385 462.619C444.01 465.243 431.807 468.177 425.955 467.393C424.048 467.737 422.326 468.108 420.381 468.189C417.911 468.828 395.377 468.462 392.117 468.266C390.776 468.143 388.836 467.619 387.491 467.3C378.481 468.878 354.599 458.733 350.798 449.974C347.866 448.623 344.837 445.024 342.82 442.508Z"/><path fill="#F6F6F1" transform="matrix(0.19329 0.00202215 -0.00202215 0.19329 2.0708 0)" d="M373.513 422.164C375.914 421.856 381.405 417.939 386.17 418.326L385.951 419.239L386.166 420.028C385.232 424.359 384.837 426.321 387.91 429.752C385.782 432.195 386.993 437.272 387.376 440.505L387.936 443.283C386.924 443.933 383.631 446.309 382.918 446.63L381.857 446.992C379.237 452.852 378.22 449.704 380.718 457.168C384.487 461.694 388.615 463.903 391.388 467.323L393.08 467.572L393.074 467.814L392.117 468.266C390.776 468.143 388.836 467.619 387.491 467.3C378.481 468.878 354.599 458.733 350.798 449.974C355.454 437.045 361.735 429.363 373.513 422.164Z"/><path fill="#2A1B0E" transform="matrix(0.19329 0.00202215 -0.00202215 0.19329 2.0708 0)" d="M373.513 422.164C375.914 421.856 381.405 417.939 386.17 418.326L385.951 419.239L386.166 420.028C385.232 424.359 384.837 426.321 387.91 429.752C385.782 432.195 386.993 437.272 387.376 440.505L387.936 443.283C386.924 443.933 383.631 446.309 382.918 446.63L381.857 446.992C379.237 452.852 378.22 449.704 380.718 457.168C384.487 461.694 388.615 463.903 391.388 467.323L393.08 467.572L393.074 467.814L392.117 468.266C390.776 468.143 388.836 467.619 387.491 467.3C370.567 456.842 369.632 439.688 373.513 422.164Z"/><path fill="#55371B" transform="matrix(0.19329 0.00202215 -0.00202215 0.19329 2.0708 0)" d="M375.673 444.642C379.338 442.55 383.332 441.584 387.376 440.505L387.936 443.283C386.924 443.933 383.631 446.309 382.918 446.63L381.857 446.992C379.237 452.852 378.22 449.704 380.718 457.168C377.978 454.221 376.551 448.525 375.673 444.642Z"/><path fill="#F6F6F1" transform="matrix(0.19329 0.00202215 -0.00202215 0.19329 2.0708 0)" d="M422.571 417.597C427.273 418.625 436.991 421.891 440.318 425.083C451.693 434.577 452.641 440.923 458.202 453.179C456.264 458.531 454.97 459.893 449.385 462.619C444.01 465.243 431.807 468.177 425.955 467.393C424.048 467.737 422.326 468.108 420.381 468.189L419.71 467.796L420.018 467.096C424.618 464.815 427.07 463.136 430.671 459.553C431.794 454.321 434.222 456.194 431.265 450.715L430.229 451.23C429.259 448.166 428.86 443.835 424.577 444.6C425.53 442.196 426.015 440.382 426.69 437.917C425.225 428.4 428.515 428.78 422.571 417.597Z"/><path fill="#2A1B0E" transform="matrix(0.19329 0.00202215 -0.00202215 0.19329 2.0708 0)" d="M422.571 417.597C427.273 418.625 436.991 421.891 440.318 425.083C442.068 437.507 442.276 448.829 434.306 459.506C431.99 462.59 429.166 465.257 425.955 467.393C424.048 467.737 422.326 468.108 420.381 468.189L419.71 467.796L420.018 467.096C424.618 464.815 427.07 463.136 430.671 459.553C431.794 454.321 434.222 456.194 431.265 450.715L430.229 451.23C429.259 448.166 428.86 443.835 424.577 444.6C425.53 442.196 426.015 440.382 426.69 437.917C425.225 428.4 428.515 428.78 422.571 417.597Z"/><path fill="#55371B" transform="matrix(0.19329 0.00202215 -0.00202215 0.19329 2.0708 0)" d="M426.69 437.917C428.411 441.41 428.761 442.704 432.182 445.054C434.643 446.745 434.888 448.274 435.657 451.078C434.312 454.292 433.259 457.098 430.671 459.553C431.794 454.321 434.222 456.194 431.265 450.715L430.229 451.23C429.259 448.166 428.86 443.835 424.577 444.6C425.53 442.196 426.015 440.382 426.69 437.917Z"/><path fill="#7C5739" transform="matrix(0.19329 0.00202215 -0.00202215 0.19329 2.0708 0)" d="M382.918 446.63C383.631 446.309 386.924 443.933 387.936 443.283L389.663 446.899C391.688 449.772 393.849 452.073 396.921 453.842C401.424 456.467 406.794 457.167 411.819 455.783C417.897 454.045 421.665 449.951 424.577 444.6C428.86 443.835 429.259 448.166 430.229 451.23L431.265 450.715C434.222 456.194 431.794 454.321 430.671 459.553C427.07 463.136 424.618 464.815 420.018 467.096L419.71 467.796L420.381 468.189C417.911 468.828 395.377 468.462 392.117 468.266L393.074 467.814L393.08 467.572L391.388 467.323C388.615 463.903 384.487 461.694 380.718 457.168C378.22 449.704 379.237 452.852 381.857 446.992L382.918 446.63Z"/><path fill="#634020" transform="matrix(0.19329 0.00202215 -0.00202215 0.19329 2.0708 0)" d="M382.918 446.63C383.631 446.309 386.924 443.933 387.936 443.283L389.663 446.899C386.046 447.272 386.882 447.511 383.948 448.79L382.918 446.63Z"/><path fill="#DBDCD6" transform="matrix(0.19329 0.00202215 -0.00202215 0.19329 2.0708 0)" d="M386.166 420.028C396.449 409.711 403.454 423.593 396.218 429.244C394.674 430.45 392.685 430.933 390.759 430.571C389.867 430.394 388.785 430.038 387.91 429.752C384.837 426.321 385.232 424.359 386.166 420.028Z"/><path fill="#150F05" transform="matrix(0.19329 0.00202215 -0.00202215 0.19329 2.0708 0)" d="M573.691 436.21C579.301 422.996 587.318 416.145 600.611 411.041C633.824 398.288 671.232 408.988 685.745 442.785C684.095 444.719 680.416 449.074 678.109 449.997C673.678 458.394 652.501 468.919 641.413 467.444C641.299 467.369 641.186 467.295 641.072 467.22L637.627 468.361C633.558 468.736 613.727 468.685 609.658 468.069C607.27 468.092 605.482 467.639 603.148 467.191C596.775 468.509 569.151 462.757 570.641 452.929C568.871 449.214 572.289 439.988 573.691 436.21Z"/><path fill="#F6F6F1" transform="matrix(0.19329 0.00202215 -0.00202215 0.19329 2.0708 0)" d="M641.33 442.066C641.268 440.965 642.107 437.877 642.182 436.472C642.676 427.177 642.196 424.959 637.762 417.459C642.745 415.403 650.569 420.513 654.972 422.119C666.006 428.922 673.507 437.771 678.109 449.997C673.678 458.394 652.501 468.919 641.413 467.444C641.299 467.369 641.186 467.295 641.072 467.22L637.627 468.361C636.683 468.185 635.645 467.924 634.699 467.71C636.368 465.909 641.173 464.991 644.813 460.942C648.004 457.7 651.69 453.144 651.914 448.454C652.147 443.553 645.138 441.855 641.33 442.066Z"/><path fill="#2A1B0E" transform="matrix(0.19329 0.00202215 -0.00202215 0.19329 2.0708 0)" d="M641.33 442.066C641.268 440.965 642.107 437.877 642.182 436.472C642.676 427.177 642.196 424.959 637.762 417.459C642.745 415.403 650.569 420.513 654.972 422.119C655.258 425.335 656.629 427.971 656.975 430.928C658.156 440.995 656.095 451.589 649.699 459.662C647.303 462.681 644.38 465.242 641.072 467.22L637.627 468.361C636.683 468.185 635.645 467.924 634.699 467.71C636.368 465.909 641.173 464.991 644.813 460.942C648.004 457.7 651.69 453.144 651.914 448.454C652.147 443.553 645.138 441.855 641.33 442.066Z"/><path fill="#F6F6F1" transform="matrix(0.19329 0.00202215 -0.00202215 0.19329 2.0708 0)" d="M588.304 424.736C591.19 424.337 597.9 418.513 602.188 419.609L602.218 421.338C602.322 423.943 602.358 425.575 603.05 428.086C601.666 431.412 602.282 436.406 602.514 440.052C598.121 437.761 592.662 446.076 593.653 450.914C594.518 450.784 594.076 450.968 594.849 450.12C596.118 455.874 593.51 453.749 598.302 459.637C601.018 462.975 608.544 465.859 609.658 468.069C607.27 468.092 605.482 467.639 603.148 467.191C596.775 468.509 569.151 462.757 570.641 452.929C568.871 449.214 572.289 439.988 573.691 436.21C574.768 436.579 576.445 437.061 577.368 437.606C581.365 431.876 583.076 429.314 588.304 424.736Z"/><path fill="#2A1B0E" transform="matrix(0.19329 0.00202215 -0.00202215 0.19329 2.0708 0)" d="M588.304 424.736C591.19 424.337 597.9 418.513 602.188 419.609L602.218 421.338C602.322 423.943 602.358 425.575 603.05 428.086C601.666 431.412 602.282 436.406 602.514 440.052C598.121 437.761 592.662 446.076 593.653 450.914C594.518 450.784 594.076 450.968 594.849 450.12C596.118 455.874 593.51 453.749 598.302 459.637C601.018 462.975 608.544 465.859 609.658 468.069C607.27 468.092 605.482 467.639 603.148 467.191C587.362 457.153 585.215 441.911 588.304 424.736Z"/><path fill="#010000" transform="matrix(0.19329 0.00202215 -0.00202215 0.19329 2.0708 0)" d="M573.691 436.21C574.768 436.579 576.445 437.061 577.368 437.606C574.775 442.938 572.752 447.311 570.641 452.929C568.871 449.214 572.289 439.988 573.691 436.21Z"/><defs><linearGradient id="gradient_2" gradientUnits="userSpaceOnUse" x1="620.15076" y1="435.92657" x2="625.2254" y2="468.37238"><stop offset="0" stop-color="#4D3213"/><stop offset="1" stop-color="#8B582F"/></linearGradient></defs><path fill="url(#gradient_2)" transform="matrix(0.19329 0.00202215 -0.00202215 0.19329 2.0708 0)" d="M609.658 468.069C608.544 465.859 601.018 462.975 598.302 459.637C593.51 453.749 596.118 455.874 594.849 450.12C594.076 450.968 594.518 450.784 593.653 450.914C592.662 446.076 598.121 437.761 602.514 440.052C603.673 445.525 606.862 450.498 611.603 453.539C616.003 456.315 621.336 457.2 626.397 455.995C633.872 454.264 638.617 448.992 641.33 442.066C645.138 441.855 652.147 443.553 651.914 448.454C651.69 453.144 648.004 457.7 644.813 460.942C641.173 464.991 636.368 465.909 634.699 467.71C635.645 467.924 636.683 468.185 637.627 468.361C633.558 468.736 613.727 468.685 609.658 468.069Z"/><path fill="#DBDCD6" transform="matrix(0.19329 0.00202215 -0.00202215 0.19329 2.0708 0)" d="M602.218 421.338C603.977 418.607 608.888 414.204 611.995 416.414C620.293 422.316 613.982 437.624 603.05 428.086C602.358 425.575 602.322 423.943 602.218 421.338Z"/><path fill="#F6F6F1" transform="matrix(0.19329 0.00202215 -0.00202215 0.19329 2.0708 0)" d="M441.767 590.935C462.116 590.702 495.366 580.082 514.27 587.021C523.917 584.719 527.048 584.824 536.557 585.425C543.392 585.856 581.662 592.266 584.962 589.452C585.774 585.945 585.213 586.157 589.091 586.246C597.249 594.563 592.541 600.444 587.179 593.94C583.939 596.27 566.962 607.465 563.97 608.232C563.869 608.351 563.768 608.47 563.668 608.589C538.522 623.821 502.241 624.525 475.266 614.164C471.594 612.753 466.05 609.93 464.45 608.165C462.689 608.266 444.65 596.109 441.031 594.274C441.37 593.116 441.13 593.669 442.322 592.735C442.147 592.63 441.469 592.008 441.288 591.848L441.767 590.935Z"/><path fill="#C67C58" transform="matrix(0.19329 0.00202215 -0.00202215 0.19329 2.0708 0)" d="M441.767 590.935C462.116 590.702 495.366 580.082 514.27 587.021C523.917 584.719 527.048 584.824 536.557 585.425C543.392 585.856 581.662 592.266 584.962 589.452C585.774 585.945 585.213 586.157 589.091 586.246C597.249 594.563 592.541 600.444 587.179 593.94C583.939 596.27 566.962 607.465 563.97 608.232L564.053 607.432C564.89 606.024 565.86 604.588 566.759 603.208C569.139 601.218 570.512 598.359 571.97 595.657C569.985 594.565 561.872 595.449 559.257 595.494C525.305 596.089 489.617 597.012 455.741 594.979C453.798 594.204 446.351 593.956 442.322 592.735C442.147 592.63 441.469 592.008 441.288 591.848L441.767 590.935Z"/><path fill="#2A1B0E" transform="matrix(0.19329 0.00202215 -0.00202215 0.19329 2.0708 0)" d="M571.97 595.657C573.573 594.248 583.312 593.168 585.837 592.994C586.631 592.939 586.715 593.38 587.179 593.94C583.939 596.27 566.962 607.465 563.97 608.232L564.053 607.432C564.89 606.024 565.86 604.588 566.759 603.208C569.139 601.218 570.512 598.359 571.97 595.657Z"/><path fill="#2A1B0E" transform="matrix(0.19329 0.00202215 -0.00202215 0.19329 2.0708 0)" d="M442.322 592.735C446.351 593.956 453.798 594.204 455.741 594.979C457.228 597.828 458.843 600.767 461.136 603.068C462.173 604.427 463.552 606.123 464.474 607.513L464.45 608.165C462.689 608.266 444.65 596.109 441.031 594.274C441.37 593.116 441.13 593.669 442.322 592.735Z"/><path fill="#938E86" transform="matrix(0.19329 0.00202215 -0.00202215 0.19329 2.0708 0)" d="M542.321 607.651C548.699 607.388 560.308 604.646 566.759 603.208C565.86 604.588 564.89 606.024 564.053 607.432C560.525 607.569 557.056 607.926 553.645 608.061C549.665 607.904 546.387 608.313 542.321 607.651Z"/><path fill="#938E86" transform="matrix(0.19329 0.00202215 -0.00202215 0.19329 2.0708 0)" d="M461.136 603.068C466.33 604.457 470.73 605.633 476.049 606.597C479.231 607.174 485.075 607.553 487.784 608.392C484.443 608.489 465.724 607.144 464.474 607.513C463.552 606.123 462.173 604.427 461.136 603.068Z"/><path fill="#DBDCD6" transform="matrix(0.19329 0.00202215 -0.00202215 0.19329 2.0708 0)" d="M553.645 608.061C550.552 608.75 542.273 608.699 539.181 608.103C540.348 607.386 540.916 607.59 542.321 607.651C546.387 608.313 549.665 607.904 553.645 608.061Z"/><path fill="#2A1B0E" transform="matrix(0.19329 0.00202215 -0.00202215 0.19329 2.0708 0)" d="M382.868 351.721C401.837 350.595 433.76 355.344 452.476 359.86C460.623 361.826 463.737 366.412 467.452 373.372C467.879 371.786 467.984 370.829 469.042 369.566C472.165 369.095 472.382 374.59 472.383 376.789C472.385 382.901 470.492 387.672 466.203 392.038C459.806 390.97 453.018 388.88 446.688 387.239C439.224 385.297 431.699 383.596 424.125 382.138C393.935 376.276 370.121 371.926 342.525 387.959C340.116 389.358 336.984 390.751 334.41 391.858C338.962 379.463 350.115 365.326 361.045 357.813C368.197 352.896 374.434 352.118 382.868 351.721Z"/><path fill="#2A1B0E" transform="matrix(0.19329 0.00202215 -0.00202215 0.19329 2.0708 0)" d="M636.27 351.712C644.108 351.1 653.137 351.37 660.51 354.376C675.528 360.499 688.035 377.382 694.217 391.816C659.071 373.916 650.65 374.144 612.545 380.616C596.938 383.01 581.701 387.489 566.374 391.114C564.992 391.441 563.784 391.525 562.423 391.077C555.12 385.53 554.837 369.065 560.008 368.893C561.257 370.122 561.243 371.104 561.614 372.862L561.761 373.584C563.107 370.939 564.638 368.227 566.64 366.021C576.419 355.247 621.186 352.461 636.27 351.712Z"/><path fill="#C67C58" transform="matrix(0.19329 0.00202215 -0.00202215 0.19329 2.0708 0)" d="M552.784 522.228C559.166 532.017 563.473 542.463 550.545 549.432C538.465 555.945 521.4 566.676 506.935 562.833C498.28 560.072 483.058 553.286 475.472 548.298C473.575 547.474 472.128 545.579 470.851 544.022C468.126 535.857 469.917 530.675 474.434 523.777C473.681 528.835 473.365 531.408 473.378 536.504C473.991 536.573 477.498 537.157 477.754 537.112C493.503 534.329 504.04 551 520.599 545.597C527.946 543.2 533.069 540.624 540.072 537.719C544.718 535.906 550.121 537.034 553.164 535.68C555.816 532.866 553.649 525.783 552.784 522.228Z"/><path fill="#AE6544" transform="matrix(0.19329 0.00202215 -0.00202215 0.19329 2.0708 0)" d="M470.851 544.022C468.126 535.857 469.917 530.675 474.434 523.777C473.681 528.835 473.365 531.408 473.378 536.504C473.495 539.056 473.78 540.595 474.781 542.993C473.26 544.301 473.337 543.978 470.851 544.022Z"/><path fill="#C67C58" transform="matrix(0.19329 0.00202215 -0.00202215 0.19329 2.0708 0)" d="M474.781 542.993L475.369 543.583C477.52 545.703 480.036 546.409 480.757 548.004C479.175 549.001 477.793 548.109 475.472 548.298C473.575 547.474 472.128 545.579 470.851 544.022C473.337 543.978 473.26 544.301 474.781 542.993Z"/><path fill="#7C5739" transform="matrix(0.19329 0.00202215 -0.00202215 0.19329 2.0708 0)" d="M484.043 548.034C482.951 546.938 483.025 546.832 482.273 545.479C482.223 543.531 481.935 544.36 483.069 542.872C484.892 541.914 485.2 542.058 487.353 542.151C494.66 545.384 496.845 547.786 500.518 555.004C495.997 551.724 489.874 547.588 484.043 548.034Z"/><path fill="#AE6544" transform="matrix(0.19329 0.00202215 -0.00202215 0.19329 2.0708 0)" d="M484.043 548.034C482.951 546.938 483.025 546.832 482.273 545.479C482.223 543.531 481.935 544.36 483.069 542.872C484.892 541.914 485.2 542.058 487.353 542.151C484.861 544.232 485.069 545.066 484.043 548.034Z"/><path fill="#7C5739" transform="matrix(0.19329 0.00202215 -0.00202215 0.19329 2.0708 0)" d="M539.691 543.045C541.666 542.771 541.617 542.715 543.53 543.128C545.011 544.301 544.536 543.593 545.185 545.194C543.845 547.783 536.883 549.045 532.269 551.72C530.984 552.726 530.155 553.622 528.573 553.851L527.986 553.029C529.025 547.772 535.22 544.81 539.691 543.045Z"/><path fill="#C67C58" transform="matrix(0.19329 0.00202215 -0.00202215 0.19329 2.0708 0)" d="M441.031 594.274C438.005 595.935 439.475 597.704 434.954 597.353C433.38 596.331 433.89 597.023 433.39 595.195C434.094 592.168 439.229 584.356 442.38 587.288C442.523 589.073 442.371 589.332 441.767 590.935L441.288 591.848C441.469 592.008 442.147 592.63 442.322 592.735C441.13 593.669 441.37 593.116 441.031 594.274Z"/><path fill="#E0A97D" transform="matrix(0.19329 0.00202215 -0.00202215 0.19329 2.0708 0)" d="M746.809 417.564C787.165 396.356 796.178 440.519 785.136 469.346C775.241 495.18 759.849 519.12 740.025 538.503C732.003 546.332 725.307 547.978 714.571 545.144C717.938 530.236 721.17 515.297 724.267 500.33C725.12 496.038 727.406 485.046 727.315 480.927C729.366 475.185 730.701 469.112 732.209 463.193C736.289 447.189 739.507 432.551 746.809 417.564Z"/><path fill="#C67C58" transform="matrix(0.19329 0.00202215 -0.00202215 0.19329 2.0708 0)" d="M767.611 433.614C776.543 433.226 780.762 440.396 780.387 448.622L779.959 449.012C778.429 444.648 773.046 436.838 767.761 439.524C755.736 445.635 743.907 460.721 738.144 472.493C743.493 482.775 745.875 486.487 741.076 497.919C738.842 501.381 731.09 508.493 726.812 506.394C727.385 499.033 748.145 501.568 731.305 472.681C736.669 458.998 752.337 437.045 767.611 433.614Z"/><path fill="#E0A97D" transform="matrix(0.19329 0.00202215 -0.00202215 0.19329 2.0708 0)" d="M315.351 545.129C311.44 546.044 305.978 547.194 302.089 546.065C286.241 541.462 267.541 512.765 259.206 499.212C247.527 480.224 235.922 453.816 241.423 431.618C243.017 425.184 247.38 417.779 253.384 414.687C263.836 409.304 272.004 412.999 281.814 416.055C292.867 436.723 295.711 459.053 301.891 481.082C302.327 486.846 305.455 499.864 306.744 505.743C309.5 518.896 312.369 532.025 315.351 545.129Z"/><path fill="#C67C58" transform="matrix(0.19329 0.00202215 -0.00202215 0.19329 2.0708 0)" d="M256.879 434.128C275.114 431.779 294.096 459.334 298.167 474.487C293.965 483.412 287.25 489.068 295.322 499.424C297.449 502.153 302.829 504.813 303.107 507.839C299.906 508.049 296.158 505.152 293.596 503.381C277.368 489.281 291.795 476.452 291.004 472.928C288.511 461.831 274.57 447.493 265.291 441.482C263.313 440.2 260.893 439.284 258.52 439.892C254.946 440.808 252.974 444.787 251.155 447.667L250.802 447.235C250.718 441.475 251.461 437.086 256.879 434.128Z"/><path fill="#E0A97D" transform="matrix(0.19329 0.00202215 -0.00202215 0.19329 2.0708 0)" d="M924.342 300.565C925.742 300.379 927.401 302.582 928.235 303.595C947.114 326.545 958.359 349.98 955.799 380.311C954.757 378.811 954.114 372.882 953.855 370.767C948.646 345.431 929.621 318.576 909.123 303.15C915.62 302.858 918.192 302.568 924.342 300.565Z"/><path fill="#E0A97D" transform="matrix(0.19329 0.00202215 -0.00202215 0.19329 2.0708 0)" d="M913.817 435.295C913.315 433.431 912.42 431.323 913.166 429.822C919.386 430.261 916.445 427.575 920.242 427.325C921.423 428.526 922.756 432.318 922.732 433.998C925.671 441.503 927.949 449.474 930.036 457.26C921.585 450.366 917.307 445.821 913.817 435.295Z"/><path fill="#E0A97D" transform="matrix(0.19329 0.00202215 -0.00202215 0.19329 2.0708 0)" d="M913.817 435.295C913.315 433.431 912.42 431.323 913.166 429.822C919.386 430.261 916.445 427.575 920.242 427.325C921.423 428.526 922.756 432.318 922.732 433.998L922.364 433.735C919.635 431.757 917.439 429.768 914.306 432.331C913.844 433.673 913.903 433.853 913.817 435.295Z"/><path fill="#E0A97D" transform="matrix(0.19329 0.00202215 -0.00202215 0.19329 2.0708 0)" d="M908.929 433.772L909.544 434.308C910.163 436.508 912.175 440.66 913.183 443.059C916.898 451.893 917.344 456.905 917.906 466.158C916.8 464.843 915.884 463.606 914.86 462.225C913.547 460.735 912.339 459.155 911.246 457.498C908.949 453.953 900.095 439.348 906.227 436.479L907.656 438.558C909.136 436.97 906.965 437.68 908.929 433.772Z"/><defs><linearGradient id="gradient_3" gradientUnits="userSpaceOnUse" x1="328.04031" y1="1041.127" x2="299.16534" y2="778.50818"><stop offset="0" stop-color="#688F46"/><stop offset="1" stop-color="#8FB36F"/></linearGradient></defs><path fill="url(#gradient_3)" transform="matrix(0.19329 0.00202215 -0.00202215 0.19329 2.0708 0)" d="M595.044 713.654C623.216 719.55 626.521 725.899 643.789 749.434C646.151 752.652 649.783 758.371 652.213 761.32C675.061 766.886 698.205 775.019 720.814 781.664C724.453 782.734 728.699 784.049 732.2 785.447C736.984 787.169 758.674 794.567 762.544 795.187C812.459 811.673 836.67 820.335 861.883 870.396C883.945 914.201 895.85 975.712 905.753 1024L897.793 1024L779.4 1024L771.909 1024L743.98 1024L738.036 1024L603.07 1024L597.512 1024L537.677 1024L518.695 1024L509.899 1024L503.015 1024L258.169 1024L250.495 1024L129.568 1024L121.739 1024C123.867 1011.14 127.198 996.525 130.424 983.385C143.792 928.938 158.507 855.674 206.803 820.646C226.956 806.029 264.966 795.781 289.242 787.941C318.591 778.518 348.058 769.465 377.636 760.786C379.619 757.745 381.656 754.739 383.746 751.77C399.981 728.838 406.226 718.833 434.356 714.001C434.431 716.473 434.503 718.813 434.461 721.293C434.312 729.514 432.182 750.418 427.489 756.589C428.277 759.099 428.792 761.035 429.993 763.396C431.299 766.429 437.736 781.654 439.685 783.082C439.948 780.371 436.851 777.595 436.808 774.899C438.876 774.418 444.917 776.971 447.53 777.759C453.686 779.578 459.659 782.106 466.016 783.24C475.095 784.858 485.282 788.52 494.386 789.514C520.965 792.416 547.98 792.712 574.524 789.411C576.268 789.194 582.104 789.344 583.469 790.185L583.12 789.783C582.983 790.916 582.945 791.191 582.26 792.108L582.351 793.064C585.392 791.164 597.239 767.625 598.953 763.151C600.081 760.531 601.004 757.502 601.916 754.775C597.404 748.644 595.578 729.036 595.192 721.245C594.967 718.84 595.045 716.094 595.044 713.654Z"/><defs><linearGradient id="gradient_4" gradientUnits="userSpaceOnUse" x1="698.0246" y1="1040.5692" x2="724.10956" y2="777.14539"><stop offset="0" stop-color="#699046"/><stop offset="1" stop-color="#8FB26F"/></linearGradient></defs><path fill="url(#gradient_4)" transform="matrix(0.19329 0.00202215 -0.00202215 0.19329 2.0708 0)" d="M655.932 769.623C697.747 780.984 739.089 795.572 780.258 808.822C810.911 818.688 833.851 833.977 849.467 862.771C870.541 900.063 880.13 942.031 889.628 983.463C892.032 994.031 896.523 1013.7 897.793 1024L779.4 1024L771.909 1024L743.98 1024L738.036 1024L603.07 1024L597.512 1024L537.677 1024L518.695 1024L509.899 1024L509.831 974.056C509.859 949.614 509.493 928.245 523.26 906.391C534.886 887.937 549.865 871.517 566.528 857.498C571.528 853.032 577.521 849.258 583.766 854.066C598.918 865.73 613.346 878.632 627.472 891.54C630.738 894.524 641.16 905.588 645.238 904.648C650.459 898.121 655.937 818.089 656.338 805.973C656.722 793.856 656.587 781.728 655.932 769.623Z"/><path fill="#51732F" transform="matrix(0.19329 0.00202215 -0.00202215 0.19329 2.0708 0)" d="M597.512 1024C597.485 1017.07 596.152 982.92 599.817 979.035C604.218 978.225 614.699 978.342 619.718 978.279C634.047 978.123 648.377 978.105 662.706 978.224L704.612 978.539C714.151 978.557 732.754 978.105 741.545 980.031C746.282 983.843 743.925 1017.58 743.98 1024L738.036 1024L603.07 1024L597.512 1024Z"/><path fill="#7DA45B" transform="matrix(0.19329 0.00202215 -0.00202215 0.19329 2.0708 0)" d="M603.037 1011.93C633.643 1013.26 664.28 1013.77 694.914 1013.46C709.101 1013.33 724.084 1012.53 738.058 1012.56C738.131 1016.47 738.209 1020.09 738.036 1024L603.07 1024L603.037 1011.93Z"/><path fill="#7DA45B" transform="matrix(0.19329 0.00202215 -0.00202215 0.19329 2.0708 0)" d="M603.811 984.243C628.143 983.625 653.435 984.05 677.799 984.262C697.881 984.286 717.962 984.487 738.04 984.866C738.127 988.548 738.851 1004.33 737.766 1006.62L736.615 1006.86C726.362 1008.15 711.357 1008 700.687 1008.22C668.127 1008.71 635.561 1008.24 603.029 1006.82C603.075 1003.05 602.643 987.047 603.811 984.243Z"/><path fill="#51732F" transform="matrix(0.19329 0.00202215 -0.00202215 0.19329 2.0708 0)" d="M771.909 1024C771.905 1004.6 770.596 985.114 771.137 965.733C771.192 963.749 771.999 960.203 773.241 958.623L774.09 958.687C777.403 963.092 777.311 972.103 777.694 977.647C778.775 993.075 779.344 1008.53 779.4 1024L771.909 1024Z"/><path fill="#51732F" transform="matrix(0.19329 0.00202215 -0.00202215 0.19329 2.0708 0)" d="M518.695 1024C521.587 1015.13 528.397 1014.58 535.623 1019.32C536.419 1020.99 537.043 1022.27 537.677 1024L518.695 1024Z"/><path fill="#51732F" transform="matrix(0.19329 0.00202215 -0.00202215 0.19329 2.0708 0)" d="M647.929 920.094C669.135 918.801 684.006 923.952 694.064 943.302C697.959 936.901 703.887 931.989 710.9 929.35C718.038 926.711 733.496 925.373 740.082 928.313C746.909 931.36 733.933 951.413 731.232 954.556C721.318 964.913 708.678 963.95 696.098 960.634C696.072 966.172 696.757 974.269 693.084 978.511L691.431 978.368C687.661 974.188 688.814 964.146 689.023 958.512C677.97 958.62 669.863 960.43 659.895 953.61C652.043 948.237 648.91 940.014 647.218 931.045C646.556 927.53 645.845 923.154 647.929 920.094Z"/><path fill="#7DA45B" transform="matrix(0.19329 0.00202215 -0.00202215 0.19329 2.0708 0)" d="M650.834 924.105C671.975 923.817 684.846 930.159 691.905 950.817C686.972 944.694 683.686 940.818 676.055 937.639C673.915 936.747 670.618 935.712 668.434 936.7C678.201 942.609 681.496 945.375 688.78 954.35C685.212 954.452 681.643 954.589 678.073 954.534C659.799 954.253 651.529 940.702 650.834 924.105Z"/><path fill="#7DA45B" transform="matrix(0.19329 0.00202215 -0.00202215 0.19329 2.0708 0)" d="M721.502 931.177C726.713 930.418 732.766 930.794 737.947 931.706C735.687 940.142 732.352 949.271 724.892 954.471C715.961 960.696 705.98 958.408 696.128 956.678C699.117 953.705 701.353 951.928 704.699 949.392C709.285 946.529 714.96 943.959 719.88 941.572C708.266 940.942 701.7 944.787 693.863 952.892C700.876 939.46 705.69 933.543 721.502 931.177Z"/><path fill="#7DA45B" transform="matrix(0.19329 0.00202215 -0.00202215 0.19329 2.0708 0)" d="M692.359 958.253C693.707 960.592 693.002 970.369 692.539 973.218C691.325 970.801 691.912 961.118 692.359 958.253Z"/><path fill="#51732F" transform="matrix(0.19329 0.00202215 -0.00202215 0.19329 2.0708 0)" d="M817.002 839.174C817.274 840.455 807.801 860.565 806.652 863.45C796.787 888.674 788.609 914.526 782.175 940.836L781.775 940.643C781.163 939.101 782.102 933.11 782.353 931.014C785.709 903.005 797.146 875.805 810.121 850.964C812.022 847.323 814.627 842.464 817.002 839.174Z"/><path fill="#51732F" transform="matrix(0.19329 0.00202215 -0.00202215 0.19329 2.0708 0)" d="M525.71 933.02C530.334 932.76 534.132 933.286 536.847 937.574C538.239 939.78 538.685 942.453 538.082 944.991C537.196 948.858 535.15 950.46 531.955 952.364C525.971 952.916 523.234 952.371 519.732 947.202C518.496 939.654 518.704 936.577 525.71 933.02Z"/><path fill="#7DA45B" transform="matrix(0.19329 0.00202215 -0.00202215 0.19329 2.0708 0)" d="M527.148 937.369C529.941 936.64 532.81 938.256 533.634 941.022C534.459 943.789 532.943 946.711 530.206 947.63C528.351 948.253 526.303 947.815 524.865 946.486C523.428 945.157 522.829 943.15 523.305 941.251C523.78 939.352 525.254 937.864 527.148 937.369Z"/><path fill="#51732F" transform="matrix(0.19329 0.00202215 -0.00202215 0.19329 2.0708 0)" d="M595.044 713.654C623.216 719.55 626.521 725.899 643.789 749.434C646.151 752.652 649.783 758.371 652.213 761.32C675.061 766.886 698.205 775.019 720.814 781.664C724.453 782.734 728.699 784.049 732.2 785.447C736.984 787.169 758.674 794.567 762.544 795.187C812.459 811.673 836.67 820.335 861.883 870.396C883.945 914.201 895.85 975.712 905.753 1024L897.793 1024C896.523 1013.7 892.032 994.031 889.628 983.463C880.13 942.031 870.541 900.063 849.467 862.771C833.851 833.977 810.911 818.688 780.258 808.822C739.089 795.572 697.747 780.984 655.932 769.623C656.587 781.728 656.722 793.856 656.338 805.973C655.937 818.089 650.459 898.121 645.238 904.648C641.16 905.588 630.738 894.524 627.472 891.54C613.346 878.632 598.918 865.73 583.766 854.066C577.521 849.258 571.528 853.032 566.528 857.498C549.865 871.517 534.886 887.937 523.26 906.391C509.493 928.245 509.859 949.614 509.831 974.056L509.899 1024L503.015 1024C503.197 1007.03 502.789 989.851 502.935 972.854C503.029 961.949 502.501 950.348 504.11 939.593C505.339 931.38 508.332 922.574 510.671 914.491C507.371 905.657 502.714 892.635 498.598 884.572C491.73 871.121 466.691 854.797 452.39 850.716C441.39 855.783 413.761 882.902 403.252 891.762C398.466 895.797 393.898 901.87 387.832 905.557C386.157 905.691 386.994 905.798 385.302 904.9C383.15 901.652 382.566 896.919 382.029 893.082C376.367 852.574 370.618 810.501 374.112 769.534C364.257 771.894 352.735 775.694 342.942 778.694C324.794 784.278 306.689 790.002 288.629 795.865C258.157 805.835 215.421 815.934 194.303 841.148C163.365 878.087 150.762 930.271 139.746 976.156C136.032 991.625 132.023 1008.35 129.568 1024L121.739 1024C123.867 1011.14 127.198 996.525 130.424 983.385C143.792 928.938 158.507 855.674 206.803 820.646C226.956 806.029 264.966 795.781 289.242 787.941C318.591 778.518 348.058 769.465 377.636 760.786C379.619 757.745 381.656 754.739 383.746 751.77C399.981 728.838 406.226 718.833 434.356 714.001C434.431 716.473 434.503 718.813 434.461 721.293C434.312 729.514 432.182 750.418 427.489 756.589C428.277 759.099 428.792 761.035 429.993 763.396C431.299 766.429 437.736 781.654 439.685 783.082C439.948 780.371 436.851 777.595 436.808 774.899C438.876 774.418 444.917 776.971 447.53 777.759C453.686 779.578 459.659 782.106 466.016 783.24C475.095 784.858 485.282 788.52 494.386 789.514C520.965 792.416 547.98 792.712 574.524 789.411C576.268 789.194 582.104 789.344 583.469 790.185L583.12 789.783C582.983 790.916 582.945 791.191 582.26 792.108L582.351 793.064C585.392 791.164 597.239 767.625 598.953 763.151C600.081 760.531 601.004 757.502 601.916 754.775C597.404 748.644 595.578 729.036 595.192 721.245C594.967 718.84 595.045 716.094 595.044 713.654Z"/><path fill="#7DA45B" transform="matrix(0.19329 0.00202215 -0.00202215 0.19329 2.0708 0)" d="M595.192 721.245C600.099 722.21 611.773 724.909 615.829 728.105C627.834 737.66 636.172 751.726 645.382 763.878C650.555 770.703 649.524 783.471 649.524 791.867C649.525 826.182 644.731 859.922 641.098 893.929C636.573 890.721 632.763 886.52 628.537 882.89C619.555 875.109 610.567 866.392 601.709 858.544C595.543 853.08 584.247 842.352 575.568 844.05C563.291 846.452 549.687 861.773 541.857 870.975L539.137 873.039L538.356 872.732L537.879 870.506C549.241 848.449 559.668 833.701 575.727 814.751C589.216 798.834 601.61 777.679 608.343 758.085C609.627 754.351 611.932 745.127 609.625 741.396C608.525 739.868 607.182 739.633 605.433 739.115C603.868 740.098 603.543 750.159 601.916 754.775C597.404 748.644 595.578 729.036 595.192 721.245Z"/><path fill="#7DA45B" transform="matrix(0.19329 0.00202215 -0.00202215 0.19329 2.0708 0)" d="M389.427 894.564C383.763 859.021 379.892 820.901 380.219 784.809C380.729 777.538 379.987 769.155 384.575 763.033C393.35 751.322 402.101 736.598 413.85 727.777C417.726 724.866 429.598 722.289 434.461 721.293C434.312 729.514 432.182 750.418 427.489 756.589C424.813 748.89 426.304 745.96 424.712 739.668L424.08 739.335C416.536 741.397 419.204 753.179 420.883 758.784C428.544 784.352 445.55 806.904 461.994 827.494C470.37 837.982 480.433 848.679 486.343 860.814C479.223 854.598 463.659 844.5 454.345 843.552C444.542 842.555 431.602 855.966 424.525 862.388L400.77 883.9C396.913 887.444 393.398 891.161 389.427 894.564Z"/><path fill="#E0A97D" transform="matrix(0.19329 0.00202215 -0.00202215 0.19329 2.0708 0)" d="M439.685 783.082C439.948 780.371 436.851 777.595 436.808 774.899C438.876 774.418 444.917 776.971 447.53 777.759C453.686 779.578 459.659 782.106 466.016 783.24C475.095 784.858 485.282 788.52 494.386 789.514C520.965 792.416 547.98 792.712 574.524 789.411C576.268 789.194 582.104 789.344 583.469 790.185L583.12 789.783C582.983 790.916 582.945 791.191 582.26 792.108L582.351 793.064C578.59 800.91 559.641 822.741 553.517 831.222C536.791 854.384 524.925 878.481 515.008 905.165C512.229 899.375 509.881 891.841 507.179 885.781C501.79 873.697 495.419 860.76 488.008 849.816C476.053 832.162 461.155 816.605 449.348 798.765C446.367 794.26 441.832 787.922 439.685 783.082Z"/><path fill="#7DA45B" transform="matrix(0.19329 0.00202215 -0.00202215 0.19329 2.0708 0)" d="M537.879 870.506L538.356 872.732L539.137 873.039L541.857 870.975C537.237 876.849 534.127 880.522 530.264 887.005C532.652 880.88 534.529 876.219 537.879 870.506Z"/><path fill="#51732F" transform="matrix(0.19329 0.00202215 -0.00202215 0.19329 2.0708 0)" d="M250.495 1024C250.609 1012.85 250.475 965.531 256.909 959.253C257.438 958.737 257.354 958.956 258.26 959.06C260.817 962.577 259.076 982.743 258.839 987.926C258.39 999.946 258.166 1011.97 258.169 1024L250.495 1024Z"/><path fill="#51732F" transform="matrix(0.19329 0.00202215 -0.00202215 0.19329 2.0708 0)" d="M209.379 837.867C211.619 839.761 217.275 850.175 218.939 853.348C229.055 872.648 238.18 893.888 243.09 915.174C245.099 923.885 246.013 934.237 246.894 943.13C245.886 942.229 236.189 905.413 234.703 900.76C227.757 879.006 218.596 858.694 209.379 837.867Z"/><path fill="#E0A97D" transform="matrix(0.19329 0.00202215 -0.00202215 0.19329 2.0708 0)" d="M743.125 781.099C751.862 765.605 770.756 748.857 786.3 740.236C783.466 745.424 775.574 753.432 771.316 758.024C765.708 764.072 761.465 768.842 756.489 775.432C754.821 777.598 753.22 779.734 751.386 781.765L758.597 777.217C764.615 773.407 788.463 761.261 794.852 765.256L795.085 766.093C793.73 768.358 781.638 773.06 778.419 774.899C770.771 779.267 763.211 783.797 755.632 788.281C763.194 785.966 777.229 781.427 784.786 782.642L785.616 783.281C784.508 786.23 766.338 793.4 762.544 795.187C758.674 794.567 736.984 787.169 732.2 785.447C736.667 772.45 744.512 755.048 749.967 742.006C750.323 758.854 747.642 765.157 743.125 781.099Z"/><path fill="#F6F6F1" fill-opacity="0.019607844" transform="matrix(0.19329 0.00202215 -0.00202215 0.19329 2.0708 0)" d="M751.386 781.765C753.22 779.734 754.821 777.598 756.489 775.432L758.597 777.217L751.386 781.765Z"/></svg>