<?xml version="1.0" encoding="utf-8" ?><svg xmlns="http://www.w3.org/2000/svg" xmlns:xlink="http://www.w3.org/1999/xlink" width="200" height="201" viewBox="0 0 200 201"><clipPath id="cl_11"><rect x="-3.8146973e-05" y="-4.9591064e-05" width="200" height="201"/></clipPath><g clip-path="url(#cl_11)"><path fill="#F0B9B5" transform="matrix(0.325203 0 0 0.325243 -118.699 -17.2379)" d="M431.666 292.153C446.913 276.197 460.432 261.376 481.641 252.914C582.386 212.713 722.985 224.494 822.397 260.685C832.055 255.173 841.611 252.159 851.54 247.421C858.413 244.143 864.687 239.163 870.904 234.738C871.107 244.361 870.115 249.016 867.848 258.446L868.353 258.326C875.68 256.509 898.399 242.131 899.291 242.073C901.771 248.217 892.392 284.558 889.161 292.177C888.708 293.242 888.236 294.299 887.743 295.346C892.315 299.802 898.911 306.784 902.039 312.244C913.001 331.379 923.701 347.056 949.574 342.378C956.925 340.025 961.887 341.54 963.918 349.853C966.405 360.035 966.705 375.74 962.553 385.399C960.592 389.961 951.156 389.877 946.734 390.183C942.189 393.904 938.3 397.913 934.075 401.438C913.389 422.162 880.873 437.94 852.38 443.908C839.444 446.617 826.425 448.081 813.651 450.538C804.015 479.183 800.42 498.452 808.995 527.917C811.184 533.437 816.217 544.722 817.905 549.87C808.345 551.773 797.822 552.099 788.754 547.978C786.176 544.784 785.363 543.637 783.456 540.015L778.282 544.836C776.795 539.205 776.298 535.041 775.474 529.324C773.38 514.788 764.795 500.096 759.58 486.107C752.328 503.646 748.648 516.943 755.099 535.838C757.482 541.235 762.718 552.458 763.892 557.735C756.14 559.774 744.248 560.53 737.061 556.471C732.122 553.681 731.023 550.34 728.479 545.395L721.049 551.206C720.202 545.174 719.849 538.644 720.232 532.557C721.461 513.013 708.846 496.184 706.589 477.097C695.407 479.107 684.266 482.755 672.051 484.855C632.499 491.653 585.497 490.238 548.003 475.285C543.313 475.109 522.831 466.342 516.783 464.178C512.154 468.224 499.456 479.833 494.449 481.89C490.37 484.475 488.496 486.677 485.777 490.651C483.871 504.572 487.039 520.296 492.581 533.115C496.773 539.939 501.003 547.502 504.209 554.842C494.245 557.421 478.885 559.196 471.028 550.608C469.854 549.325 467.333 545.125 466.393 543.493C464.558 545.113 462.186 546.944 460.254 548.523C458.089 540.228 458.995 532.667 456.248 524.364C451.022 508.566 440.733 491.597 436.158 475.89C434.185 469.114 447.021 457.211 442.731 446.788C438.886 437.449 433.613 431.945 428.344 423.536C406.668 387.954 403.788 340.866 424.199 303.885C413.855 299.779 410.558 297.408 403.544 288.883C394.982 286.962 386.419 283.929 383.309 274.7C382.374 271.925 381.661 266.116 382.978 263.5C385.175 263.925 389.283 271.794 392.013 273.788C394.697 275.749 395.49 276.024 398.615 277.35C398.088 268.622 398.565 259.15 406.345 253.451C409.665 251.011 413.827 250.01 417.894 250.671C422.029 251.33 425.732 253.606 428.187 256.997C436.798 269.037 426.801 279.934 417.222 286.679C422.633 290.036 425.65 290.82 431.666 292.153ZM413.712 275.788C419.664 272.184 426.19 263.248 415.885 260.671C409.418 262.731 405.647 272.8 410.464 277.025C412.026 276.63 412.267 276.519 413.712 275.788Z"/><path fill="#E5A6A4" transform="matrix(0.325203 0 0 0.325243 -118.699 -17.2379)" d="M551.995 403.376C551.458 418.922 548.447 429.912 542.708 444.2C602.195 463.178 638.901 467.679 701.185 454.278C702.307 461.22 703.98 470.502 706.589 477.097C695.407 479.107 684.266 482.755 672.051 484.855C632.499 491.653 585.497 490.238 548.003 475.285C543.313 475.109 522.831 466.342 516.783 464.178C535.217 444.44 545.636 429.5 551.995 403.376Z"/><path fill="#D6938F" transform="matrix(0.325203 0 0 0.325243 -118.699 -17.2379)" d="M772.341 461.649C787.41 455.869 797.778 452.665 813.651 450.538C804.015 479.183 800.42 498.452 808.995 527.917C811.184 533.437 816.217 544.722 817.905 549.87C808.345 551.773 797.822 552.099 788.754 547.978C786.176 544.784 785.363 543.637 783.456 540.015L778.282 544.836C776.795 539.205 776.298 535.041 775.474 529.324C773.38 514.788 764.795 500.096 759.58 486.107C763.466 477.669 767.463 469.562 772.341 461.649Z"/><path fill="#B5746E" transform="matrix(0.325203 0 0 0.325243 -118.699 -17.2379)" d="M808.995 527.917C811.184 533.437 816.217 544.722 817.905 549.87C808.345 551.773 797.822 552.099 788.754 547.978C786.176 544.784 785.363 543.637 783.456 540.015C789.102 534.412 793.529 531.606 801.266 529.753C804.169 529.057 806.156 529.02 808.995 527.917Z"/><path fill="#E5A6A4" transform="matrix(0.325203 0 0 0.325243 -118.699 -17.2379)" d="M790.475 432.871C823.212 428.205 852.576 429.229 884.616 418.985C901.185 413.687 913.888 407.583 929.841 400.676C930.856 400.236 932.08 400.136 933.187 400.223L934.075 401.438C913.389 422.162 880.873 437.94 852.38 443.908C839.444 446.617 826.425 448.081 813.651 450.538C797.778 452.665 787.41 455.869 772.341 461.649C773.884 458.006 787.908 435.878 790.475 432.871Z"/><path fill="#D6938F" transform="matrix(0.325203 0 0 0.325243 -118.699 -17.2379)" d="M867.848 258.446L868.353 258.326C875.68 256.509 898.399 242.131 899.291 242.073C901.771 248.217 892.392 284.558 889.161 292.177C888.708 293.242 888.236 294.299 887.743 295.346C878.984 288.198 874.294 285.336 864.626 279.694C865.481 273.252 866.392 264.599 867.848 258.446Z"/><path fill="#D6938F" transform="matrix(0.325203 0 0 0.325243 -118.699 -17.2379)" d="M949.574 342.378C956.925 340.025 961.887 341.54 963.918 349.853C966.405 360.035 966.705 375.74 962.553 385.399C960.592 389.961 951.156 389.877 946.734 390.183C932.503 376.424 941.015 356.615 949.574 342.378Z"/><path fill="#B5746E" transform="matrix(0.325203 0 0 0.325243 -118.699 -17.2379)" d="M951.056 359.126C957.047 361.048 954.734 369.587 953.027 373.923C947.07 373.783 949.928 362.371 951.056 359.126Z"/><path fill="#B5746E" transform="matrix(0.325203 0 0 0.325243 -118.699 -17.2379)" d="M960.695 358.629C965.185 361.683 964.012 369.447 961.938 373.675C958.023 370.693 958.488 362.559 960.695 358.629Z"/><path fill="#D6938F" transform="matrix(0.325203 0 0 0.325243 -118.699 -17.2379)" d="M492.581 533.115C496.773 539.939 501.003 547.502 504.209 554.842C494.245 557.421 478.885 559.196 471.028 550.608C469.854 549.325 467.333 545.125 466.393 543.493C478.249 533.807 479.883 536.543 492.581 533.115Z"/><path fill="#D6938F" transform="matrix(0.325203 0 0 0.325243 -118.699 -17.2379)" d="M755.099 535.838C757.482 541.235 762.718 552.458 763.892 557.735C756.14 559.774 744.248 560.53 737.061 556.471C732.122 553.681 731.023 550.34 728.479 545.395C733.517 541.689 737.019 539.774 743.007 537.748C746.685 536.504 752.835 537.477 755.099 535.838Z"/><path fill="#D6938F" transform="matrix(0.325203 0 0 0.325243 -118.699 -17.2379)" d="M862.146 254.634C862.292 254.776 862.619 255.055 862.587 255.27C859.949 272.939 856.128 318.726 828.011 307.502C813.714 291.124 851.825 263.289 862.146 254.634Z"/><path fill="#463530" transform="matrix(0.325203 0 0 0.325243 -118.699 -17.2379)" d="M873.223 325.409C875.766 324.306 878.706 324.664 880.91 326.344C883.115 328.024 884.24 330.764 883.851 333.509C883.463 336.254 881.622 338.574 879.038 339.576C875.15 341.085 870.77 339.203 869.186 335.344C867.602 331.485 869.397 327.069 873.223 325.409Z"/><path fill="#D6938F" transform="matrix(0.325203 0 0 0.325243 -118.699 -17.2379)" d="M516.783 464.178C522.831 466.342 543.313 475.109 548.003 475.285C541.699 485.249 540.022 489.402 542.792 501.981C544.287 508.771 548.26 520.687 551.536 526.735C554.383 532.054 560.29 542.4 562.256 547.646C553.196 550.098 541.251 550.899 532.851 546.228C529.638 544.44 527.777 541.623 525.564 538.718C524.308 540.543 524.089 540.804 522.342 542.161L521.152 541.975C516.355 536.728 517.964 528.448 515.408 522.657C513.01 517.226 509.116 510.66 506.224 505.346C502.022 497.67 498.094 489.846 494.449 481.89C499.456 479.833 512.154 468.224 516.783 464.178Z"/><path fill="#B5746E" transform="matrix(0.325203 0 0 0.325243 -118.699 -17.2379)" d="M551.536 526.735C554.383 532.054 560.29 542.4 562.256 547.646C553.196 550.098 541.251 550.899 532.851 546.228C529.638 544.44 527.777 541.623 525.564 538.718C532.219 530.463 541.798 528.503 551.536 526.735Z"/></g></svg>