<?xml version="1.0" encoding="utf-8" ?><svg xmlns="http://www.w3.org/2000/svg" xmlns:xlink="http://www.w3.org/1999/xlink" width="200" height="200" viewBox="0 0 200 200"><defs><linearGradient id="gradient_0" gradientUnits="userSpaceOnUse" x1="518.00159" y1="629.6543" x2="511.84787" y2="290.76733"><stop offset="0" stop-color="#D5AF68"/><stop offset="1" stop-color="#E8DBA8"/></linearGradient></defs><path fill="url(#gradient_0)" transform="scale(0.195312 0.195312)" d="M258.815 309.968C254.457 296.191 257.569 282.681 259.215 268.736C261.477 249.579 264.715 230.571 268.447 211.652C271.336 196.906 273.387 182.247 277.536 167.717C279.218 161.752 281.519 155.98 284.401 150.494C302.484 115.49 350.682 74.707 387.583 60.8335C398.64 56.6765 424.426 53.8264 436.758 53.0426C498.116 49.1429 561.966 47.9592 622.928 56.3951C644.984 59.4472 662.076 69.2999 679.555 82.1034C709.057 103.568 739.493 130.468 750.701 166.457C755.098 181.476 758.441 202.005 761.29 217.699C764.233 233.487 766.767 249.349 768.889 265.268C770.839 279.139 774.323 296.899 769.823 310.278C776.032 321.105 771.013 359.337 767.991 371.873C767.773 372.78 767.305 374.004 767.146 374.947C772.899 376.215 775.919 380.088 779.084 384.728C802.041 418.388 756.667 513.515 714.253 504.029C712.015 503.828 710.95 503.614 708.755 503.098C707.401 511.726 704.813 519.686 702.372 527.897C694.436 554.6 681.812 573.084 658.858 589.268C637.066 604.632 611.061 616.547 586.01 625.748C582.25 627.129 573.708 629.936 569.853 630.176C567.974 630.491 565.98 630.866 564.103 631.113C564.197 633.965 564.82 647.213 564.232 649.32C564.005 649.318 550.636 653.966 548.746 654.591C521.975 663.436 488.731 663.26 463.918 648.814C459.909 660.319 452.877 664.635 442.586 670.512C441.771 669.442 440.263 666.79 439.497 665.533C447.634 660.409 452.109 659.106 457.457 650.959C457.813 644.748 457.568 636.932 457.517 630.587C433.577 625.084 400.197 608.351 378.91 595.585C339.822 572.142 329.215 545.976 319.23 503.552C309.784 504.038 301.576 506.071 292.679 501.186C281.579 495.091 273.506 485.009 266.483 474.705C258.576 463.103 251.835 449.975 247.338 436.67C241.449 419.249 238.224 381.473 261.088 374.636C259.365 368.892 258.147 362.209 257.626 356.212C256.366 341.687 252.515 323.649 258.815 309.968Z"/><path fill="#2A6F9E" transform="scale(0.195312 0.195312)" d="M258.815 309.968C254.457 296.191 257.569 282.681 259.215 268.736C261.477 249.579 264.715 230.571 268.447 211.652C271.336 196.906 273.387 182.247 277.536 167.717C279.218 161.752 281.519 155.98 284.401 150.494C302.484 115.49 350.682 74.707 387.583 60.8335C398.64 56.6765 424.426 53.8264 436.758 53.0426C498.116 49.1429 561.966 47.9592 622.928 56.3951C644.984 59.4472 662.076 69.2999 679.555 82.1034C709.057 103.568 739.493 130.468 750.701 166.457C755.098 181.476 758.441 202.005 761.29 217.699C764.233 233.487 766.767 249.349 768.889 265.268C770.839 279.139 774.323 296.899 769.823 310.278C776.032 321.105 771.013 359.337 767.991 371.873C767.773 372.78 767.305 374.004 767.146 374.947C762.721 378.296 757.837 373.497 754.824 370.475C754.142 369.243 752.225 367.635 751.108 366.595C748.894 363.905 739.056 356.287 735.857 353.884C728.209 348.23 715.689 338.837 707.146 334.637C693.804 325.201 663.897 312.035 648.066 308.032C642.495 305.833 630.523 302.636 624.741 301.543L624.386 301.527C618.315 299.349 600.169 296.276 593.422 295.208C582.745 293.363 571.6 292.36 560.796 291.244C558.092 290.776 549.7 290.208 546.753 290.031C523.35 288.624 498.393 288.714 475.063 290.753C467.295 291.385 435.194 294.372 428.465 296.666C414.182 297.951 396.725 304.256 382.888 307.395C362.833 314.023 346.449 320.059 328.014 330.684C325.612 332.068 318.943 335.493 317.46 337.599C310.912 339.422 277.489 366.026 271.186 372.372C267.893 375.379 265.494 378.518 261.088 374.636C259.365 368.892 258.147 362.209 257.626 356.212C256.366 341.687 252.515 323.649 258.815 309.968Z"/><path fill="#398DBE" transform="scale(0.195312 0.195312)" d="M488.085 55.7382C513.994 54.9214 543.507 55.6502 569.372 56.6277C580.932 57.0543 592.474 57.8827 603.977 59.1112C629.573 61.7729 645.071 65.1931 667.153 80.038C693.454 97.7903 726.778 124.336 740.32 154.185C752.089 180.126 755.804 221.586 761.167 250.067C762.142 255.248 763.946 267.52 763.734 272.21L763.481 272.152C758.852 264.563 731.06 250.524 721.955 248.475L721.144 248.297C735.073 256.103 747.751 268.151 761.135 277.134C761.955 277.684 765.773 284.542 765.882 285.651C766.13 288.169 765.759 302.488 764.677 303.873C760.021 301.942 748.741 292.517 743.666 289.108C719.049 272.575 697.961 259.944 668.343 254.62C699.182 269.059 727.555 285.217 754.573 306.035C759.281 309.662 763.713 312.222 767.207 317.144C767.811 331.418 766.88 346.193 764.494 360.257C764.088 362.654 763.656 367.596 762.76 369.62C760.054 367.791 757.378 363.734 755.099 361.717C749.2 356.497 741.599 351.093 735.356 346.247C681.602 304.521 607.625 286.669 540.375 284.431C474.824 281.095 402.758 289.083 342.634 316.707C327.793 322.89 314.176 333.167 300.632 340.882C294.601 344.318 267.456 367.806 265.388 368.135C262.72 362.994 260.476 325.862 260.852 318.82C263.507 314.623 266.322 312.612 270.226 309.641C293.662 291.809 317.959 274.662 344.556 261.835C348.76 259.808 352.452 257.529 356.941 256.135L357.701 255.903L357.203 255.385C353.446 255.541 351.112 256.633 347.571 257.467C322.998 263.258 300.365 278.757 280.089 293.227C275.361 296.602 269.88 299.464 265.483 303.251C264.228 304.331 264.905 304.014 263.351 304.772C261.816 301.168 261.974 291.849 262.684 287.87C264.015 280.41 272.082 275.558 277.522 270.829C287.816 261.882 297.936 253.811 309.385 246.332C301.176 249.021 287.657 255.631 280.346 260.435C274.279 264.422 271.557 267.267 264.388 271.112C266.396 248.991 271.503 222.872 275.746 201.083C278.596 187.103 280.854 171.586 286.521 158.476C301.397 124.062 348.508 84.0518 381.711 68.6031C404.71 57.9025 461.944 56.2861 488.085 55.7382Z"/><path fill="#C2995F" transform="scale(0.195312 0.195312)" d="M712.631 447.982L712.858 448.306C714.605 451.482 715.221 452.804 718.598 454.066C718.06 456.691 716.612 465.602 716.072 467.212L716.079 468.039C714.683 475.337 712.458 485.391 711.347 492.494C710.609 494.68 709.94 495.338 710.565 497.176C711.287 497.543 712.709 498.018 713.219 498.362C714.426 499.593 717.187 500.902 718.821 501.943C717.627 503.882 716.361 503.213 714.253 504.029C712.015 503.828 710.95 503.614 708.755 503.098C707.401 511.726 704.813 519.686 702.372 527.897C694.436 554.6 681.812 573.084 658.858 589.268C637.066 604.632 611.061 616.547 586.01 625.748C582.25 627.129 573.708 629.936 569.853 630.176C567.974 630.491 565.98 630.866 564.103 631.113C564.197 633.965 564.82 647.213 564.232 649.32C564.005 649.318 550.636 653.966 548.746 654.591C521.975 663.436 488.731 663.26 463.918 648.814C459.909 660.319 452.877 664.635 442.586 670.512C441.771 669.442 440.263 666.79 439.497 665.533C447.634 660.409 452.109 659.106 457.457 650.959C457.813 644.748 457.568 636.932 457.517 630.587C433.577 625.084 400.197 608.351 378.91 595.585C339.822 572.142 329.215 545.976 319.23 503.552C319.779 501.42 320.607 499.869 319.893 498.163L318.431 497.705C315.037 492.382 311.86 466.405 309.649 458.363C308.872 455.937 308.978 455.31 309.084 452.733C310.72 453.379 310.597 453.361 312.352 453.239C314.173 452.398 314.561 451.523 315.807 449.842C315.91 451.985 316.078 454.097 315.926 456.234C318.388 464.525 320.29 477.943 322.053 486.97C326.463 509.548 334.271 543.342 348.649 561.495C370.701 589.337 417.39 609.89 450.759 621.333C458.621 624.029 483.914 628.852 492.304 629.833C528.1 633.745 565.331 626.912 598.715 613.889C609.834 608.327 622.963 603.247 633.622 597.074C642.037 592.201 654.165 585.013 661.527 579.383C690.548 557.189 699.52 518.772 705.915 484.698C708.179 472.631 711.087 460.259 712.631 447.982Z"/><path fill="#D6B579" transform="scale(0.195312 0.195312)" d="M315.807 449.842C315.91 451.985 316.078 454.097 315.926 456.234L315.801 455.569C315.665 454.817 315.637 455.101 315.725 454.653L314.778 454.342L314.834 452.996L315.133 453.412L314.501 452.917L314.394 453.592C314.117 455.279 314.141 456.157 313.126 457.514L312.161 457.995L310.575 457.218C310.173 457.665 309.949 457.849 309.649 458.363C308.872 455.937 308.978 455.31 309.084 452.733C310.72 453.379 310.597 453.361 312.352 453.239C314.173 452.398 314.561 451.523 315.807 449.842Z"/><path fill="#DFC28A" transform="scale(0.195312 0.195312)" d="M754.824 370.475C757.837 373.497 762.721 378.296 767.146 374.947C772.899 376.215 775.919 380.088 779.084 384.728C802.041 418.388 756.667 513.515 714.253 504.029C716.361 503.213 717.627 503.882 718.821 501.943C717.187 500.902 714.426 499.593 713.219 498.362C712.709 498.018 711.287 497.543 710.565 497.176C709.94 495.338 710.609 494.68 711.347 492.494C712.458 485.391 714.683 475.337 716.079 468.039L716.072 467.212C716.612 465.602 718.06 456.691 718.598 454.066C720.895 452.714 721.338 451.886 722.951 449.717L723.09 448.808C724.248 447 726.242 442.613 727.272 440.501L730.621 432.326C731.129 430.958 732.118 429.248 732.833 427.915C734.597 423.269 737.057 415.566 739.133 411.43C742.311 401.621 748.085 388.052 751.866 378.017L752.619 375.846C753.008 375.219 754.458 371.395 754.824 370.475Z"/><path fill="#B18E5C" transform="scale(0.195312 0.195312)" d="M754.824 370.475C757.837 373.497 762.721 378.296 767.146 374.947C772.899 376.215 775.919 380.088 779.084 384.728C802.041 418.388 756.667 513.515 714.253 504.029C716.361 503.213 717.627 503.882 718.821 501.943C717.187 500.902 714.426 499.593 713.219 498.362C731.747 503.967 750.579 483.72 758.961 469.713C772.639 446.477 791.011 406.921 769.868 382.537C766 378.075 757.425 377.664 751.866 378.017L752.619 375.846C753.008 375.219 754.458 371.395 754.824 370.475Z"/><path fill="#DFC28A" transform="scale(0.195312 0.195312)" d="M730.621 432.326C734.69 439.061 736.371 446.972 734.48 454.688C734.334 455.278 734.183 455.867 734.027 456.454C730.379 465.428 724.919 466.757 716.072 467.212C716.612 465.602 718.06 456.691 718.598 454.066C720.895 452.714 721.338 451.886 722.951 449.717L723.09 448.808C724.248 447 726.242 442.613 727.272 440.501L730.621 432.326Z"/><path fill="#E1D3A5" transform="scale(0.195312 0.195312)" d="M727.272 440.501C729.34 442.705 729.468 448.155 727.002 450.199C725.351 450.706 724.392 450.758 722.951 449.717L723.09 448.808C724.248 447 726.242 442.613 727.272 440.501Z"/><path fill="#C2995F" transform="scale(0.195312 0.195312)" d="M732.833 427.915L733.441 428C734.048 426.812 734.642 425.624 735.296 424.461C735.19 426 735.424 425.508 734.713 426.718C734.69 428.631 735.82 430.469 736.876 432.122C737.55 433.481 738.952 437.327 739.224 438.789C742.159 444.754 741.432 449.868 740.95 456.265L741.222 457.52L739.812 457.955L739.419 458.917C736.979 468.887 724.187 468.214 716.079 468.039L716.072 467.212C724.919 466.757 730.379 465.428 734.027 456.454C734.183 455.867 734.334 455.278 734.48 454.688C736.371 446.972 734.69 439.061 730.621 432.326C731.129 430.958 732.118 429.248 732.833 427.915Z"/><path fill="#C2995F" transform="scale(0.195312 0.195312)" d="M751.568 401.287C754.901 399.368 763.209 395.214 765.52 399.815L765.196 400.762C763.911 401.374 763.703 401.471 762.334 401.833C761.875 403.8 762.721 404.85 763.329 407.159C765.778 416.451 764.323 422.508 760.311 430.754C762.103 421.034 762.266 412.989 756.784 404.386C753.215 407.393 747.42 412.039 744.554 415.39L743.986 414.923C743.457 412.128 745.832 411.114 745.848 406.472C747.885 404.073 749.136 403.188 751.568 401.287Z"/><path fill="#D6B579" transform="scale(0.195312 0.195312)" d="M741.43 410.274C742.639 409.556 744.737 407.494 745.848 406.472C745.832 411.114 743.457 412.128 743.986 414.923L744.554 415.39C741.245 420.667 736.071 426.34 736.876 432.122C735.82 430.469 734.69 428.631 734.713 426.718C735.424 425.508 735.19 426 735.296 424.461C734.642 425.624 734.048 426.812 733.441 428L732.833 427.915C734.597 423.269 737.057 415.566 739.133 411.43C740.232 411.011 740.399 410.867 741.43 410.274Z"/><path fill="#D6B579" transform="scale(0.195312 0.195312)" d="M711.347 492.494C712.016 493.777 711.549 494.371 711.232 496.185C716.272 502.142 736.472 494.806 740.793 489.701C741.319 489.079 740.638 488.229 742.569 486.683C742.285 487.856 742.158 487.42 742.486 488.317C749.202 483.969 747.332 477.987 754.035 474.399C757.204 472.702 755.439 471.556 758.961 469.713C750.579 483.72 731.747 503.967 713.219 498.362C712.709 498.018 711.287 497.543 710.565 497.176C709.94 495.338 710.609 494.68 711.347 492.494Z"/><path fill="#DFC28A" transform="scale(0.195312 0.195312)" d="M261.088 374.636C265.494 378.518 267.893 375.379 271.186 372.372C272.16 374.199 273.584 376.677 274.294 378.55C278.7 388.405 282.866 398.355 287.577 408.07C288.571 410.12 289.372 412.252 290.147 414.394C292.736 419.598 295.158 425.953 297.322 431.399C300.054 436.565 305.775 449.801 309.084 452.733C308.978 455.31 308.872 455.937 309.649 458.363C311.86 466.405 315.037 492.382 318.431 497.705L319.893 498.163C320.607 499.869 319.779 501.42 319.23 503.552C309.784 504.038 301.576 506.071 292.679 501.186C281.579 495.091 273.506 485.009 266.483 474.705C258.576 463.103 251.835 449.975 247.338 436.67C241.449 419.249 238.224 381.473 261.088 374.636Z"/><path fill="#B18E5C" transform="scale(0.195312 0.195312)" d="M261.088 374.636C265.494 378.518 267.893 375.379 271.186 372.372C272.16 374.199 273.584 376.677 274.294 378.55C256.115 377.337 250.225 389.601 249.176 405.705C247.343 433.855 260.805 461.105 278.587 482.084C285.563 490.315 301.644 502.804 313.14 499.164L313.718 498.446C313.382 497.613 313.085 497.268 313.126 496.384C316.197 496.958 314.089 498.247 318.431 497.705L319.893 498.163C320.607 499.869 319.779 501.42 319.23 503.552C309.784 504.038 301.576 506.071 292.679 501.186C281.579 495.091 273.506 485.009 266.483 474.705C258.576 463.103 251.835 449.975 247.338 436.67C241.449 419.249 238.224 381.473 261.088 374.636Z"/><path fill="#C2995F" transform="scale(0.195312 0.195312)" d="M275.182 401.092C280.305 404.884 285.842 408.271 288.825 413.713C289.09 414.198 289.34 414.204 289.894 414.498L290.147 414.394C292.736 419.598 295.158 425.953 297.322 431.399C295.217 434.26 293.003 441.144 292.553 444.815C291.573 452.802 293.335 458.979 299.647 464.296C301.228 465.628 303.152 466.524 304.359 468.095C296.638 469.319 289.733 462.477 287.19 455.682C283.287 445.254 287.998 437.473 292.398 428.299C288.068 419.196 279.248 409.33 270.794 404.089C270.495 402.945 270.505 403.553 271.239 402.221C273.085 401.399 273.155 401.427 275.182 401.092Z"/><path fill="#C2995F" transform="scale(0.195312 0.195312)" d="M270.794 404.089C270.4 405.785 269.117 408.403 268.486 410.286C266.28 416.87 267.172 422.78 266.92 429.642L266.51 429.452C263.514 423.019 262.879 419.327 262.726 412.18C262.642 408.237 263.917 406.037 265.49 402.307C263.942 401.224 262.772 401.489 260.656 401.329L260.217 400.513C262.822 396.128 271.895 398.781 275.182 401.092C273.155 401.427 273.085 401.399 271.239 402.221C270.505 403.553 270.495 402.945 270.794 404.089Z"/><defs><linearGradient id="gradient_1" gradientUnits="userSpaceOnUse" x1="698.08044" y1="396.9711" x2="753.93652" y2="379.79892"><stop offset="0" stop-color="#201407"/><stop offset="1" stop-color="#36230A"/></linearGradient></defs><path fill="url(#gradient_1)" transform="scale(0.195312 0.195312)" d="M707.146 334.637C715.689 338.837 728.209 348.23 735.857 353.884C739.056 356.287 748.894 363.905 751.108 366.595C752.225 367.635 754.142 369.243 754.824 370.475C754.458 371.395 753.008 375.219 752.619 375.846L751.866 378.017C748.085 388.052 742.311 401.621 739.133 411.43C737.057 415.566 734.597 423.269 732.833 427.915C732.118 429.248 731.129 430.958 730.621 432.326L727.272 440.501C726.242 442.613 724.248 447 723.09 448.808L722.951 449.717C721.338 451.886 720.895 452.714 718.598 454.066C715.221 452.804 714.605 451.482 712.858 448.306L712.631 447.982C711.745 439.547 712.977 420.455 713.564 411.537C715.374 384.041 714.638 361.401 707.146 334.637Z"/><path fill="#070705" transform="scale(0.195312 0.195312)" d="M735.857 353.884C739.056 356.287 748.894 363.905 751.108 366.595C749.865 367.834 749.904 367.972 749.195 369.522C745.292 362.682 739.212 361.79 735.857 353.884Z"/><path fill="#120E03" transform="scale(0.195312 0.195312)" d="M749.195 369.522C749.904 367.972 749.865 367.834 751.108 366.595C752.225 367.635 754.142 369.243 754.824 370.475C754.458 371.395 753.008 375.219 752.619 375.846L752.244 375.496L752.287 374.024C750.957 372.518 751.208 372.964 748.93 372.296C748.316 370.73 748.451 371.595 749.195 369.522Z"/><path fill="#332008" transform="scale(0.195312 0.195312)" d="M712.858 448.306C716.94 450.162 718.602 449.444 723.09 448.808L722.951 449.717C721.338 451.886 720.895 452.714 718.598 454.066C715.221 452.804 714.605 451.482 712.858 448.306Z"/><path fill="#2B1A07" transform="scale(0.195312 0.195312)" d="M271.186 372.372C277.489 366.026 310.912 339.422 317.46 337.599C315.787 349.185 314.056 361.435 313.573 373.102C312.752 392.953 314.809 412.514 316.15 432.272C316.463 436.876 317.343 445.715 315.807 449.842C314.561 451.523 314.173 452.398 312.352 453.239C310.597 453.361 310.72 453.379 309.084 452.733C305.775 449.801 300.054 436.565 297.322 431.399C295.158 425.953 292.736 419.598 290.147 414.394C289.372 412.252 288.571 410.12 287.577 408.07C282.866 398.355 278.7 388.405 274.294 378.55C273.584 376.677 272.16 374.199 271.186 372.372Z"/><path fill="#E1D3A5" transform="scale(0.195312 0.195312)" d="M475.063 290.753C498.393 288.714 523.35 288.624 546.753 290.031C549.7 290.208 558.092 290.776 560.796 291.244C558.08 294.139 548.523 292.928 544.46 292.879L510.542 292.397C501.281 292.295 492.207 293.103 482.963 293.166C477.94 293.2 479.047 293.001 475.063 290.753Z"/><path fill="#E1D3A5" transform="scale(0.195312 0.195312)" d="M382.888 307.395C396.725 304.256 414.182 297.951 428.465 296.666L427.988 297.553C426.091 297.617 426.791 297.241 425.667 298.4C426.011 299.516 425.732 299.058 426.424 299.819C420.146 301.18 411.118 304.148 405.191 302.368C397.592 304.958 391.017 311.668 382.888 307.395Z"/><path fill="#E1D3A5" transform="scale(0.195312 0.195312)" d="M593.422 295.208C600.169 296.276 618.315 299.349 624.386 301.527C616.313 301.417 598.825 302.582 593.422 295.208Z"/><path fill="#E1D3A5" transform="scale(0.195312 0.195312)" d="M624.741 301.543C630.523 302.636 642.495 305.833 648.066 308.032C643.999 308.115 643.188 309.431 637.924 308.58C629.516 307.221 630.357 305.9 624.741 301.543Z"/><path fill="#120E03" transform="scale(0.195312 0.195312)" d="M348.24 391.214C348.099 389.241 348.376 387.488 349.38 385.727C363.414 361.12 402.557 356.077 426.506 366.327C436.349 370.54 446.186 381.829 449.327 390.948C451.089 395.976 454.77 403.671 451.588 408.44C452.125 410.882 453.892 418.468 452.832 420.464C451.688 427.916 455.791 432.52 447.416 437.834C443.568 439.67 434.232 443.285 430.073 442.631C429.233 441.622 429.435 442.023 429.123 440.793C427.389 442.333 425.823 444.16 423.582 444.412C414.347 445.432 391.027 448.206 383.485 444.086L383.065 444.069L381.981 444.699C371.266 442.958 355.075 435.747 352.775 423.845L351.799 423.424C346.938 417.704 345.065 410.68 342.747 403.643C341.473 402.67 340.845 401.918 339.739 400.77L339.446 400.498C338.076 399.331 334.921 396.487 334.915 394.707C335.996 394.113 340.662 394.393 342.633 394.293C345.145 393.594 346.118 392.702 348.24 391.214Z"/><path fill="#74491E" transform="scale(0.195312 0.195312)" d="M423.741 419.225C428.892 415.719 428.301 404.136 427.343 398.568C426.833 395.603 425.209 392.384 424.855 389.329C425.399 390.725 425.588 391.762 426.806 392.56C429.629 391.449 434.982 393.324 437.17 395.213C438.446 394.495 439.859 394.907 441.15 395.324L442.581 394.292L442.408 393.663L442.696 392.761L441.101 390.553C444.394 389.288 443.993 391.893 447.742 393.351C449.017 392.641 448.656 392.685 449.327 390.948C451.089 395.976 454.77 403.671 451.588 408.44C452.125 410.882 453.892 418.468 452.832 420.464C451.688 427.916 455.791 432.52 447.416 437.834C443.568 439.67 434.232 443.285 430.073 442.631C429.233 441.622 429.435 442.023 429.123 440.793C427.389 442.333 425.823 444.16 423.582 444.412C414.347 445.432 391.027 448.206 383.485 444.086C385.079 443.933 385.673 444.208 386.417 443.321C384.537 440.388 377.365 436.935 376.65 433.12C375.368 428.791 372.003 423.968 373.291 420.581C375.325 418.458 378.035 418.734 380.996 418.56L383.225 418.249L383.169 416.88C387.031 418.855 387.726 423.005 390.7 426.625C392.506 428.823 393.144 429.577 395.276 431.591C398.348 431.736 402.811 434.067 406.693 434.704C416.678 436.344 421.444 429.171 422.868 419.676L423.741 419.225Z"/><path fill="#F6F6EA" transform="scale(0.195312 0.195312)" d="M441.101 390.553C444.394 389.288 443.993 391.893 447.742 393.351C449.017 392.641 448.656 392.685 449.327 390.948C451.089 395.976 454.77 403.671 451.588 408.44C452.125 410.882 453.892 418.468 452.832 420.464C451.688 427.916 455.791 432.52 447.416 437.834C443.568 439.67 434.232 443.285 430.073 442.631C429.233 441.622 429.435 442.023 429.123 440.793C433.735 436.115 437.222 429.51 438.276 423.023C441.902 414.113 439.401 406.883 439.228 398.918L439.214 397.964C438.969 397.488 437.575 395.743 437.17 395.213C438.446 394.495 439.859 394.907 441.15 395.324L442.581 394.292L442.408 393.663L442.696 392.761L441.101 390.553Z"/><path fill="#070705" transform="scale(0.195312 0.195312)" d="M441.101 390.553C444.394 389.288 443.993 391.893 447.742 393.351C449.017 392.641 448.656 392.685 449.327 390.948C451.089 395.976 454.77 403.671 451.588 408.44C452.125 410.882 453.892 418.468 452.832 420.464L451.414 416.306C450.322 409.764 443.539 402.793 439.214 397.964C438.969 397.488 437.575 395.743 437.17 395.213C438.446 394.495 439.859 394.907 441.15 395.324L442.581 394.292L442.408 393.663L442.696 392.761L441.101 390.553Z"/><path fill="#E1D3A5" transform="scale(0.195312 0.195312)" d="M441.101 390.553C444.394 389.288 443.993 391.893 447.742 393.351C449.017 392.641 448.656 392.685 449.327 390.948C451.089 395.976 454.77 403.671 451.588 408.44C449.106 400.997 447.828 398.662 442.696 392.761L441.101 390.553Z"/><path fill="#F6F1CD" transform="scale(0.195312 0.195312)" d="M451.414 416.306L452.832 420.464C451.688 427.916 455.791 432.52 447.416 437.834C449.924 428.095 452.121 427.461 451.414 416.306Z"/><path fill="#332008" transform="scale(0.195312 0.195312)" d="M423.741 419.225C428.892 415.719 428.301 404.136 427.343 398.568C426.833 395.603 425.209 392.384 424.855 389.329C425.399 390.725 425.588 391.762 426.806 392.56C429.629 391.449 434.982 393.324 437.17 395.213C437.575 395.743 438.969 397.488 439.214 397.964L439.228 398.918C439.401 406.883 441.902 414.113 438.276 423.023C436.88 423.417 436.915 426.259 436.25 427.758C433.114 434.826 430.073 439.542 423.794 443.75C428.048 438.551 435.251 430.133 436.445 422.942C436.57 422.192 436.034 422.036 435.278 421.371C432.524 420.32 432.594 422.372 429.542 421.448C428.447 420.527 428.447 419.761 428.096 418.334L427.961 417.763L427.282 417.511C426.441 418.287 426.346 418.481 425.733 419.44L423.741 419.225Z"/><path fill="#2B1A07" transform="scale(0.195312 0.195312)" d="M383.169 416.88C387.031 418.855 387.726 423.005 390.7 426.625C392.506 428.823 393.144 429.577 395.276 431.591C398.348 431.736 402.811 434.067 406.693 434.704C416.678 436.344 421.444 429.171 422.868 419.676L423.741 419.225L425.733 419.44C426.346 418.481 426.441 418.287 427.282 417.511L427.961 417.763L428.096 418.334C428.447 419.761 428.447 420.527 429.542 421.448C432.594 422.372 432.524 420.32 435.278 421.371C436.034 422.036 436.57 422.192 436.445 422.942C435.251 430.133 428.048 438.551 423.794 443.75C430.073 439.542 433.114 434.826 436.25 427.758C436.915 426.259 436.88 423.417 438.276 423.023C437.222 429.51 433.735 436.115 429.123 440.793C427.389 442.333 425.823 444.16 423.582 444.412L423.371 443.94C425.121 440.333 426.276 439.678 428.084 436.653C426.093 435.969 426.255 436.394 425.452 435.008C426.902 432.356 426.621 434.869 429.486 435.157C432.047 433.26 434.184 427.552 432.822 424.541C432.41 423.631 427.435 421.376 426.292 420.818C423.555 423.658 421.868 426.763 419.841 430.125C415.128 434.979 413.761 435.504 407.031 436.644C401.637 436.469 400.788 436.369 396.029 433.806C390.327 431.02 389.119 428.539 385.478 423.388C384.744 422.003 383.867 419.752 383.225 418.249L383.169 416.88Z"/><path fill="#7B532A" transform="scale(0.195312 0.195312)" d="M419.841 430.125C420.866 432.008 420.647 431.185 420.279 433.583C417.748 437.197 411.775 437.831 407.785 436.842L407.031 436.644C413.761 435.504 415.128 434.979 419.841 430.125Z"/><path fill="#7B532A" transform="scale(0.195312 0.195312)" d="M383.225 418.249C383.867 419.752 384.744 422.003 385.478 423.388C383.08 426.146 380.558 424.945 379.463 421.736C379.749 419.71 379.624 420.37 380.996 418.56L383.225 418.249Z"/><path fill="#D6B579" transform="scale(0.195312 0.195312)" d="M348.24 391.214C348.099 389.241 348.376 387.488 349.38 385.727C363.414 361.12 402.557 356.077 426.506 366.327C436.349 370.54 446.186 381.829 449.327 390.948C448.656 392.685 449.017 392.641 447.742 393.351C443.993 391.893 444.394 389.288 441.101 390.553C440.378 390.139 435.487 385.532 434.337 384.674C420.902 374.65 407.684 372.197 391.457 373.88C389.724 374.025 387.527 374.111 385.897 374.587C375.257 374.858 357.464 385.658 348.24 391.214Z"/><path fill="#F6F6EA" transform="scale(0.195312 0.195312)" d="M350.894 405.141C352.51 404.316 353.783 402.323 355.408 400.966C361.419 395.944 365.847 393.012 373.121 390.39C364.966 408.437 366.667 431.186 383.065 444.069L381.981 444.699C371.266 442.958 355.075 435.747 352.775 423.845L351.799 423.424C346.938 417.704 345.065 410.68 342.747 403.643C341.473 402.67 340.845 401.918 339.739 400.77C343.783 401.086 344.746 407.82 349.589 406.003L350.486 404.845L350.894 405.141Z"/><path fill="#070705" transform="scale(0.195312 0.195312)" d="M339.739 400.77C343.783 401.086 344.746 407.82 349.589 406.003L350.486 404.845L350.894 405.141C351.677 411.684 351.063 417.489 352.775 423.845L351.799 423.424C346.938 417.704 345.065 410.68 342.747 403.643C341.473 402.67 340.845 401.918 339.739 400.77Z"/><path fill="#332008" transform="scale(0.195312 0.195312)" d="M376.65 433.12C374.784 431.211 372.492 425.347 371.398 422.741C370.383 418.871 375.259 419.121 375.749 417.454C376.844 413.727 374.864 404.865 380.752 403.887C382.695 405.722 382.864 413.747 383.169 416.88L383.225 418.249L380.996 418.56C378.035 418.734 375.325 418.458 373.291 420.581C372.003 423.968 375.368 428.791 376.65 433.12Z"/><path fill="#070705" transform="scale(0.195312 0.195312)" d="M385.897 374.587C387.527 374.111 389.724 374.025 391.457 373.88C395.626 374.147 395.759 375.686 399.586 376.22C398.847 376.361 398.111 376.522 397.381 376.702C397.519 378.925 398.993 377.446 398.757 380.1C395.847 383.196 390.2 383.132 388.78 379.295L389.895 375.483C391.266 375.29 392.016 375.206 393.362 374.84C390.698 374.29 388.654 375.625 385.897 374.587Z"/><path fill="#070705" transform="scale(0.195312 0.195312)" d="M339.446 400.498C338.076 399.331 334.921 396.487 334.915 394.707C335.996 394.113 340.662 394.393 342.633 394.293L343.581 394.937C341.983 394.993 341.221 395.05 339.643 395.273C338.408 396.959 338.578 396.105 338.551 397.796C339.669 399.572 339.497 398.67 339.446 400.498Z"/><path fill="#F6F6EA" transform="scale(0.195312 0.195312)" d="M385.791 404.839C376.147 392.654 398.993 383.437 397.973 399.069C395.686 403.639 391.217 409.764 385.791 404.839Z"/><path fill="#F2F1F2" transform="scale(0.195312 0.195312)" d="M385.791 404.839C389.143 404.39 392.106 403.969 394.401 401.581C394.656 400.129 394.428 400.527 395.133 399.339L397.973 399.069C395.686 403.639 391.217 409.764 385.791 404.839Z"/><path fill="#120E03" transform="scale(0.195312 0.195312)" d="M589.203 387.718C613.413 365.99 644.698 370.493 670.759 386.405C678.82 391.326 682.693 396.476 693.129 393.531C692.123 395.478 690.498 398.601 688.798 399.817C680.859 405.495 681.709 418.406 674.863 424.264L674.345 424.399L673.985 426.177C673.153 431.514 664.525 438.474 659.516 440.363C656.142 441.79 646.628 445.808 643.349 444.884L642.892 445.069C638.305 446.678 605.057 445.773 601.882 443.679L600.67 443.257C598.632 444.608 594.308 443.351 591.964 442.726C580.475 439.665 570.98 434.561 574.33 420.919C574.095 420.718 573.859 420.517 573.624 420.316C573.299 408.365 580.325 395.424 589.203 387.718Z"/><path fill="#2B1A07" transform="scale(0.195312 0.195312)" d="M590.596 387.639C596.509 382.8 604.556 377.348 612.146 375.892L612.562 376.145C610.314 377.204 608.818 377.37 607.217 379.303C606.901 381.415 607.59 382.987 606.855 384.674L604.726 385.185C603.804 386.74 604.133 385.871 604.3 388.104C605.258 388.764 605.452 388.911 606.506 389.379L606.715 390.094L606.206 390.27C604.892 390.738 604.225 390.825 603.335 391.886L603.387 392.539C600.018 397.299 599.824 400.194 603.061 405.207C601.533 404.561 602.228 404.527 600.858 404.775C600.316 414.126 602.291 417.442 606.351 425.485C605.581 424.622 605.949 424.958 605.299 424.423C609.148 431.72 613.812 434.926 621.922 435.953L622.265 435.549C618.08 432.442 618.682 436.129 612.949 429.509C624.664 438.415 622.776 431.844 629.249 432.235L627.616 434.457L628.235 434.927C635.626 435.347 642.989 417.685 644.256 411.441C645.147 407.054 642.697 392.818 639.881 388.637C639.155 387.56 639.431 387.812 639.647 386.654C641.669 385.384 652.729 388.881 654.166 390.044L654.378 390.918C657.86 405 661.689 411.118 655.803 426.658C653.158 434.993 649.733 439.03 643.349 444.884L642.892 445.069C638.305 446.678 605.057 445.773 601.882 443.679L600.67 443.257C598.632 444.608 594.308 443.351 591.964 442.726C580.475 439.665 570.98 434.561 574.33 420.919C574.095 420.718 573.859 420.517 573.624 420.316C573.299 408.365 580.325 395.424 589.203 387.718L590.596 387.639Z"/><path fill="#74491E" transform="scale(0.195312 0.195312)" d="M644.872 417.973C650.45 418.446 652.55 417.544 654.209 423.66L654.748 424.081C654.776 422.442 654.705 422.232 655.666 420.793L656.209 421.022C656.346 424.285 655.291 424.597 655.803 426.658C653.158 434.993 649.733 439.03 643.349 444.884L642.892 445.069C638.305 446.678 605.057 445.773 601.882 443.679L602.163 442.622C600.253 440.11 594.431 428.681 593.835 425.723C594.878 423.479 597.777 422.465 600.079 421.448C609.694 427.132 604.608 435.073 623.369 436.6C628.489 436.233 629.761 435.76 633.95 433.175C634.15 432.859 637.188 429.82 637.661 429.338C639.975 425.989 642.353 420.279 644.872 417.973Z"/><path fill="#332008" transform="scale(0.195312 0.195312)" d="M654.209 423.66L654.748 424.081C654.776 422.442 654.705 422.232 655.666 420.793L656.209 421.022C656.346 424.285 655.291 424.597 655.803 426.658C653.158 434.993 649.733 439.03 643.349 444.884L642.892 445.069C641.236 444.838 640.881 445.103 639.948 444.166C647.548 438.04 651.803 433.542 654.209 423.66Z"/><path fill="#7B532A" transform="scale(0.195312 0.195312)" d="M633.95 433.175L634.361 435.228C632.556 437.502 625.976 438.387 623.166 437.476L622.881 436.935L623.369 436.6C628.489 436.233 629.761 435.76 633.95 433.175Z"/><path fill="#7B532A" transform="scale(0.195312 0.195312)" d="M645.24 432.731L646.096 432.891L646.565 434.019C646.094 436.201 646.667 435.429 645.013 436.572C643.219 436.042 642.846 436.259 642.036 434.745C643.233 433.189 643.131 433.599 645.24 432.731Z"/><path fill="#F6F6EA" transform="scale(0.195312 0.195312)" d="M588.317 397.766C585.482 413.671 585.612 422.639 594.919 437.265C596.578 439.873 598.223 441.36 600.67 443.257C598.632 444.608 594.308 443.351 591.964 442.726C580.475 439.665 570.98 434.561 574.33 420.919C576.155 412.402 582.243 403.838 588.317 397.766Z"/><path fill="#070705" transform="scale(0.195312 0.195312)" d="M589.203 387.718L590.596 387.639C589.547 388.779 588.976 389.448 587.737 390.422L587.688 391.529L587.64 390.516L587.018 391.525C587.423 391.919 588.567 390.941 590.027 392.073C589.991 393.449 589.953 394.525 590.053 395.912C592.555 394.005 592.819 392.001 595.645 392.147L596.271 392.759C592.103 393.141 591.57 396.585 588.561 397.354L588.317 397.766C582.243 403.838 576.155 412.402 574.33 420.919C574.095 420.718 573.859 420.517 573.624 420.316C573.299 408.365 580.325 395.424 589.203 387.718Z"/><path fill="#F6F6EA" transform="scale(0.195312 0.195312)" d="M655.803 426.658C661.689 411.118 657.86 405 654.378 390.918L654.166 390.044C662.291 393.471 671.491 398.865 676.206 406.574C675.92 412.728 675.666 418.319 674.345 424.399L673.985 426.177C673.153 431.514 664.525 438.474 659.516 440.363C656.142 441.79 646.628 445.808 643.349 444.884C649.733 439.03 653.158 434.993 655.803 426.658Z"/><path fill="#F6F1CD" transform="scale(0.195312 0.195312)" d="M659.516 440.363C663.346 436.565 669.354 428.339 673.985 426.177C673.153 431.514 664.525 438.474 659.516 440.363Z"/><path fill="#F6F6EA" transform="scale(0.195312 0.195312)" d="M603.387 392.539C606.276 391.069 608.177 389.849 611.529 390.902C615.949 392.29 616.918 397.176 615.081 400.969C613.952 403.277 611.886 404.99 609.409 405.672C607.055 406.324 605.344 405.836 603.061 405.207C599.824 400.194 600.018 397.299 603.387 392.539Z"/><path fill="#C2995F" transform="scale(0.195312 0.195312)" d="M454.938 543.39C449.912 542.012 450.991 542.663 445.974 542.906C445.021 542.952 444.645 542.126 444.224 541.51C444.183 539.147 444.427 538.084 446.102 536.29L447.128 536.651C447.519 537.482 447.863 538.237 448.436 538.964C451.051 542.276 493.165 537.987 499.098 538.057C503.433 538.108 507.695 539.332 511.998 539.8C516.706 540.312 521.35 537.87 526.045 537.966C535.548 538.162 572.206 543.547 578.902 538.03L577.482 540.976C575.455 542.392 573.109 542.951 570.724 543.721C548.706 573.155 501.292 579.31 471.633 558.274C468.153 555.805 456.104 546.974 454.938 543.39Z"/><path fill="#B68254" transform="scale(0.195312 0.195312)" d="M454.938 543.39C449.912 542.012 450.991 542.663 445.974 542.906C445.021 542.952 444.645 542.126 444.224 541.51C444.183 539.147 444.427 538.084 446.102 536.29L447.128 536.651C447.519 537.482 447.863 538.237 448.436 538.964C451.051 542.276 493.165 537.987 499.098 538.057C503.433 538.108 507.695 539.332 511.998 539.8C516.706 540.312 521.35 537.87 526.045 537.966C535.548 538.162 572.206 543.547 578.902 538.03L577.482 540.976C575.455 542.392 573.109 542.951 570.724 543.721C567.161 544.16 563.598 545.411 560.052 546.035C531.955 550.975 502.289 552.452 474.126 547.329C467.667 546.154 461.313 544.692 454.938 543.39Z"/><path fill="#2B1A07" transform="scale(0.195312 0.195312)" d="M383.813 322.716C400.775 321.865 421.75 328.173 437.728 333.642C446.513 337.18 458.619 340.191 463.296 349.198C465.939 352.606 462.99 362.818 458.769 363.56C450.602 364.996 432.511 356.088 425.191 353.002C418.397 350.223 411.451 347.827 404.387 345.827C377.767 338.132 364.703 342.304 339.227 350.678C347.202 336.306 367.229 323.648 383.813 322.716Z"/><path fill="#2B1A07" transform="scale(0.195312 0.195312)" d="M632.817 323.201C642.175 322.238 651.386 322.702 659.916 326.962C670.882 332.438 681.436 340.027 688.258 350.361C681.488 348.678 673.933 345.95 666.982 344.256C644.907 338.876 631.508 342.507 611.102 349.495C598.159 354.161 586.004 360.559 572.523 363.684C560.92 367.155 560.526 349.467 565.653 345.271C579.663 333.806 615.746 324.927 632.817 323.201Z"/><path fill="#B18E5C" transform="scale(0.195312 0.195312)" d="M501.161 495.539L505.756 495.582C511.038 495.932 539.172 495.386 541.399 496.918C541.367 498.617 540.918 499.154 540.123 500.643C536.236 510.016 522.734 521.888 512.485 523.689C502.721 520.459 495.224 512.823 488.927 504.506C488.86 504.309 488.793 504.111 488.726 503.914C487.139 501.569 485.415 499.432 486.75 496.693C489.626 494.811 496.773 495.703 501.161 495.539Z"/><path fill="#C2995F" transform="scale(0.195312 0.195312)" d="M540.123 500.643C536.236 510.016 522.734 521.888 512.485 523.689C502.721 520.459 495.224 512.823 488.927 504.506C488.86 504.309 488.793 504.111 488.726 503.914L488.705 502.378L489.503 501.93C493.777 502.879 497.345 506.126 501.159 508.151C504.131 509.729 504.86 508.804 506.916 511.848C510.891 512.188 514.629 512.332 518.618 512.477C520.487 510.853 537.358 501.321 540.123 500.643Z"/><path fill="#E1D3A5" transform="scale(0.195312 0.195312)" d="M498.027 473.751C509.001 467.313 521.83 464.573 530.489 476.607C530.494 481.286 530.966 489.71 528.736 493.743C527.986 494.254 527.292 494.727 526.524 495.212C520.942 495.354 510.628 495.076 505.756 495.582L501.161 495.539L501.213 493.566L500.701 493.176C495.069 488.779 496.771 479.995 498.027 473.751Z"/><path fill="#B18E5C" transform="scale(0.195312 0.195312)" d="M578.902 538.03L579.302 536.753L580.07 536.399C581.681 537.926 583.463 540.833 582.329 543.045C580.632 543.66 581.541 543.538 579.479 542.956C578.796 542.291 578.15 541.658 577.482 540.976L578.902 538.03Z"/><path fill="#398DBE" transform="scale(0.195312 0.195312)" d="M564.103 631.113C565.98 630.866 567.974 630.491 569.853 630.176C569.843 653.822 567.946 653.117 588.554 665.636C589.612 664.077 590.744 662.327 591.879 660.841C602.575 663.954 613.717 673.294 623.511 676.791C649.832 685.93 676.044 694.025 701.4 705.784C717.085 713.057 721.452 721.567 729.576 736.007C752.463 776.687 773.777 818.076 795.66 859.269C789.852 864.173 782.755 867.841 777.541 872.177L772.306 875.532C746.056 891.646 722.318 900.128 692.717 907.33L687.273 908.006C685.668 908.031 684.366 907.805 683.187 908.764C682.038 917.227 680.93 936.314 680.47 945.491C682.485 945.027 683.905 944.45 685.719 945.524C687.039 947.404 687.589 947.969 689.215 949.63C705.392 968.641 708.777 979.493 710.32 1004.3C710.201 1007.8 709.924 1012.77 708.944 1016.14C708.569 1018.54 708.499 1019.56 708.49 1021.99L706.581 1024L659.915 1024L548.79 1024L493.089 1024L364.518 1024L320.01 1024L319.474 1021.93C318.816 1019.84 318.263 1017.24 317.742 1015.07L317.383 1011.09C316.454 1000.19 318.032 991.808 320.166 981.331C327.116 963.557 325.396 965.187 337.973 949.3L341.989 945.416C344.38 945.431 345.374 945.395 347.689 945.823C346.561 933.116 345.794 920.357 344.616 907.702C343.232 907.887 341.759 907.75 340.352 907.687C338.375 907.585 336.723 907.283 334.775 906.968C305.678 901.294 279.901 889.947 254.46 875.125C252.668 873.921 250.883 872.705 249.107 871.477C244.422 867.458 237.741 864.44 232.053 859.228C232.189 858.861 232.327 858.494 232.469 858.129C234.938 851.898 241.647 840.026 245.055 833.615C253.487 817.69 262.028 801.824 270.676 786.016C276.91 774.688 283.075 763.323 289.171 751.92C293.995 742.913 298.512 734.391 303.974 725.785C313.551 710.699 323.899 706.188 339.858 699.769C360.635 691.411 382.038 684.962 403.067 677.257C408.361 675.318 413.607 671.413 418.711 668.878C424.483 665.802 429.453 663.631 435.494 661.068L439.497 665.533C440.263 666.79 441.771 669.442 442.586 670.512C452.877 664.635 459.909 660.319 463.918 648.814C488.731 663.26 521.975 663.436 548.746 654.591C550.636 653.966 564.005 649.318 564.232 649.32C564.82 647.213 564.197 633.965 564.103 631.113Z"/><path fill="#78D1D6" transform="scale(0.195312 0.195312)" d="M680.47 945.491C682.485 945.027 683.905 944.45 685.719 945.524C687.039 947.404 687.589 947.969 689.215 949.63C705.392 968.641 708.777 979.493 710.32 1004.3C710.201 1007.8 709.924 1012.77 708.944 1016.14C708.569 1018.54 708.499 1019.56 708.49 1021.99L706.581 1024L659.915 1024L548.79 1024L493.089 1024L364.518 1024L320.01 1024L319.474 1021.93C318.816 1019.84 318.263 1017.24 317.742 1015.07L317.383 1011.09C316.454 1000.19 318.032 991.808 320.166 981.331C327.116 963.557 325.396 965.187 337.973 949.3L341.989 945.416C344.38 945.431 345.374 945.395 347.689 945.823C349.452 946.842 350.673 947.576 352.535 948.376C356.229 950.438 361.507 952.679 365.449 954.603C373.948 958.819 382.476 962.973 391.035 967.065C395.839 969.313 401.575 971.695 406.08 974.217C417.925 968.488 438.943 953.47 451.355 950.469L452.593 955.204C453.966 959.6 456.064 963.319 458.114 967.443C460.785 967.548 462.449 967.481 465.083 967.323C467.713 967.592 469.658 967.419 472.278 967.286C475.185 967.581 477.064 967.569 479.939 967.537C489.872 969.073 494.478 971.21 503.703 974.427C510.189 977.324 513.946 981.273 518.672 986.333C528.357 975.552 533.134 974.789 546.716 969.599C549.186 969.52 552.536 968.857 555.042 968.451C557.554 968.537 561 968.966 562.915 967.339C565.031 967.413 568.776 967.656 570.764 967.508C572.657 963.695 574.178 960.089 575.409 956.018C575.968 954.406 576.442 952.367 576.885 950.69C591.449 954.544 608.213 966.232 621.152 973.457C638.044 964.874 658.377 956.814 675.491 947.9C677.161 947.117 678.82 946.314 680.47 945.491Z"/><path fill="#78D1D6" transform="scale(0.195312 0.195312)" d="M680.47 945.491C682.485 945.027 683.905 944.45 685.719 945.524C687.039 947.404 687.589 947.969 689.215 949.63C705.392 968.641 708.777 979.493 710.32 1004.3C710.201 1007.8 709.924 1012.77 708.944 1016.14C708.569 1018.54 708.499 1019.56 708.49 1021.99L706.581 1024L659.915 1024L548.79 1024C555.565 1021.7 579.539 1020.01 579.697 1014.04C577.915 1011.24 573.301 1013.42 570.426 1013.53C561.597 1013.84 532.602 1022.56 525.105 1020.16C525.882 1013.6 525.999 1014.68 523.788 1008.17C526.597 1003.04 552.765 997.824 558.976 996.481C563.174 995.573 576.653 995.306 578.952 993.32C579.418 991.775 579.49 992.488 578.833 991.103C574.966 988.51 560.54 990.736 555.672 991.431C552.864 989.836 527.981 990.893 522.814 991.153L522.03 990.362C522.319 990.023 522.614 989.688 522.914 989.358C534.098 977.109 555.185 972.92 571.051 973.246C579.8 973.425 587.417 974.756 596.497 974.391C588.584 968.906 580.223 967.309 570.764 967.508C572.657 963.695 574.178 960.089 575.409 956.018C575.968 954.406 576.442 952.367 576.885 950.69C591.449 954.544 608.213 966.232 621.152 973.457C638.044 964.874 658.377 956.814 675.491 947.9C677.161 947.117 678.82 946.314 680.47 945.491Z"/><path fill="#4EB2BE" transform="scale(0.195312 0.195312)" d="M680.47 945.491C682.485 945.027 683.905 944.45 685.719 945.524C687.039 947.404 687.589 947.969 689.215 949.63C705.392 968.641 708.777 979.493 710.32 1004.3C710.201 1007.8 709.924 1012.77 708.944 1016.14C708.569 1018.54 708.499 1019.56 708.49 1021.99L706.581 1024L659.915 1024C666.741 1019.25 692.86 1026.11 700.955 1019.43C702.662 1018.02 703.916 1006.7 703.943 1003.82C704.158 980.85 697.741 967.11 682.41 950.791C670.831 957.029 657.887 962.012 646.163 968.306C637.797 972.798 629.531 974.299 622.131 981.032C606.694 972.94 592.622 961.555 575.409 956.018C575.968 954.406 576.442 952.367 576.885 950.69C591.449 954.544 608.213 966.232 621.152 973.457C638.044 964.874 658.377 956.814 675.491 947.9C677.161 947.117 678.82 946.314 680.47 945.491Z"/><path fill="#4EB2BE" transform="scale(0.195312 0.195312)" d="M555.042 968.451C557.554 968.537 561 968.966 562.915 967.339C565.031 967.413 568.776 967.656 570.764 967.508C580.223 967.309 588.584 968.906 596.497 974.391C587.417 974.756 579.8 973.425 571.051 973.246C555.185 972.92 534.098 977.109 522.914 989.358C522.614 989.688 522.319 990.023 522.03 990.362L522.814 991.153C527.981 990.893 552.864 989.836 555.672 991.431C560.54 990.736 574.966 988.51 578.833 991.103C579.49 992.488 579.418 991.775 578.952 993.32C576.653 995.306 563.174 995.573 558.976 996.481C552.765 997.824 526.597 1003.04 523.788 1008.17C525.999 1014.68 525.882 1013.6 525.105 1020.16C532.602 1022.56 561.597 1013.84 570.426 1013.53C573.301 1013.42 577.915 1011.24 579.697 1014.04C579.539 1020.01 555.565 1021.7 548.79 1024L493.089 1024C481.818 1021.08 469.616 1020.27 458.227 1017.88C455.86 1017.39 453.85 1016.66 453.457 1014.15C453.702 1013.79 453.844 1013.33 454.193 1013.08C459.465 1009.21 507.822 1023.77 517.894 1019.27C519.012 1018.77 519.719 1018.24 520.031 1017C520.697 1014.36 518.926 1011.28 517.606 1009.15C503.599 1001.11 487.044 998.266 471.202 995.64C467.113 994.963 456.625 995.136 453.409 993.615C452.988 992.041 453.026 992.151 453.424 990.557C455.941 988.786 473.967 990.454 477.846 991.015C483.799 989.182 500.641 991.456 507.66 991.073C509.595 990.967 511.748 991.627 513.786 990.962C511.18 984.433 505.564 982.059 499.649 979.197C485.578 972.39 470.024 971.882 454.706 972.917C449.158 973.291 442.549 974.587 437.078 973.643L437.058 972.888C441.989 968.507 451.736 967.482 458.114 967.443C460.785 967.548 462.449 967.481 465.083 967.323C467.713 967.592 469.658 967.419 472.278 967.286C475.185 967.581 477.064 967.569 479.939 967.537C489.872 969.073 494.478 971.21 503.703 974.427C510.189 977.324 513.946 981.273 518.672 986.333C528.357 975.552 533.134 974.789 546.716 969.599C549.186 969.52 552.536 968.857 555.042 968.451Z"/><path fill="#5EC1CA" transform="scale(0.195312 0.195312)" d="M555.672 991.431C549.936 993.344 523.706 1000.7 519.753 995.097C519.543 993.347 520.98 991.753 522.03 990.362L522.814 991.153C527.981 990.893 552.864 989.836 555.672 991.431Z"/><path fill="#5EC1CA" transform="scale(0.195312 0.195312)" d="M477.846 991.015C483.799 989.182 500.641 991.456 507.66 991.073C509.595 990.967 511.748 991.627 513.786 990.962C513.506 992.278 513.5 993.373 512.284 994.229C507.931 997.291 482.636 992.337 477.846 991.015Z"/><path fill="#4EB2BE" transform="scale(0.195312 0.195312)" d="M341.989 945.416C344.38 945.431 345.374 945.395 347.689 945.823C349.452 946.842 350.673 947.576 352.535 948.376C356.229 950.438 361.507 952.679 365.449 954.603C373.948 958.819 382.476 962.973 391.035 967.065C395.839 969.313 401.575 971.695 406.08 974.217C417.925 968.488 438.943 953.47 451.355 950.469L452.593 955.204C445.126 958.971 438.307 962.464 431.033 966.477C423.94 970.39 412.276 978.24 405.154 980.745C398.677 975.48 390.721 973.457 383.608 969.564C371.037 962.685 357.791 957.364 345.034 951.067C329.837 966.326 323.866 981.612 323.112 1003.54C323.03 1005.94 323.797 1017.56 324.979 1019.2C336.313 1025.48 361.41 1020.53 364.838 1023.08L364.518 1024L320.01 1024L319.474 1021.93C318.816 1019.84 318.263 1017.24 317.742 1015.07L317.383 1011.09C316.454 1000.19 318.032 991.808 320.166 981.331C327.116 963.557 325.396 965.187 337.973 949.3L341.989 945.416Z"/><path fill="#4EB2BE" transform="scale(0.195312 0.195312)" d="M334.323 976.379C334.338 976.931 332.973 987.209 332.937 987.3C331.351 991.344 333.562 1007.13 332.658 1009.26L331.453 1009.21C326.404 1000.54 330.237 984.851 334.323 976.379Z"/><path fill="#D6B579" transform="scale(0.195312 0.195312)" d="M564.103 631.113C565.98 630.866 567.974 630.491 569.853 630.176C569.843 653.822 567.946 653.117 588.554 665.636C586.862 667.491 586.301 668.257 584.932 670.368C568.02 696.725 535.464 732.109 513.721 755.266C497.964 738.743 482.729 721.728 468.04 704.248C460.175 694.847 448.928 681.137 442.586 670.512C452.877 664.635 459.909 660.319 463.918 648.814C488.731 663.26 521.975 663.436 548.746 654.591C550.636 653.966 564.005 649.318 564.232 649.32C564.82 647.213 564.197 633.965 564.103 631.113Z"/><path fill="#B18E5C" transform="scale(0.195312 0.195312)" d="M564.103 631.113C565.98 630.866 567.974 630.491 569.853 630.176C569.843 653.822 567.946 653.117 588.554 665.636C586.862 667.491 586.301 668.257 584.932 670.368C576.209 663.01 567.532 663.887 564.232 649.32C564.82 647.213 564.197 633.965 564.103 631.113Z"/><path fill="#BDBDBC" transform="scale(0.195312 0.195312)" d="M479.939 967.537C475.443 962.727 472.591 959.156 470.078 952.912C465.466 941.775 465.573 929.243 470.373 918.186C475.798 905.857 484.149 896.327 496.932 891.527C509.506 886.949 523.381 887.533 535.527 893.15C545.122 897.276 554.88 908.82 558.532 918.431C565.609 937.054 560.98 956.035 546.716 969.599C533.134 974.789 528.357 975.552 518.672 986.333C513.946 981.273 510.189 977.324 503.703 974.427C494.478 971.21 489.872 969.073 479.939 967.537Z"/><path fill="#A4A3A2" transform="scale(0.195312 0.195312)" d="M535.527 893.15C545.122 897.276 554.88 908.82 558.532 918.431C565.609 937.054 560.98 956.035 546.716 969.599C533.134 974.789 528.357 975.552 518.672 986.333C513.946 981.273 510.189 977.324 503.703 974.427C512.587 974.686 515.128 974.35 523.835 973.13L524.632 973.461L524.715 973.058L525.043 973.054C520.928 975.305 510.094 974.732 509.215 975.53C510.862 978.151 514.941 981.098 517.474 982.909C519.493 982.655 528.478 975.945 531.279 974.587C535.586 972.499 542.504 970.864 546.239 968.406C552.848 964.057 558.564 952.241 560.018 944.726C562.514 931.825 559.862 919.268 552.031 908.727C549.751 905.658 546.745 901.166 542.889 901.011C541.451 900.953 540.061 900.481 539.018 899.525C539.046 898.013 539.119 897.519 538.824 896.022C537.081 894.958 536.808 894.737 535.527 893.15Z"/><path fill="#F2F1F2" transform="scale(0.195312 0.195312)" d="M497.837 899.021C514.988 897.776 507.146 914.377 498.211 919.904C494.889 921.959 492.037 925.542 487.828 927.91C474.644 931.654 477.892 912.988 484.416 906.958C490.935 900.933 489.298 901.54 497.837 899.021Z"/><path fill="#F2F1F2" transform="scale(0.195312 0.195312)" d="M515.938 896.359C521.969 896.736 523.719 901.451 518.208 905.282C511.645 905.949 511.298 900.211 515.938 896.359Z"/><path fill="#F2F1F2" transform="scale(0.195312 0.195312)" d="M478.125 932.023C484.663 932.109 485.305 936.78 480.475 940.509C475.163 940.259 473.655 935.136 478.125 932.023Z"/><path fill="#6B6C6C" transform="scale(0.195312 0.195312)" d="M451.355 950.469C444.051 909.209 469.829 874.412 512.549 871.588C518.48 871.196 524.105 872.295 529.876 873.577C541.88 877.402 552.659 882.887 561.33 892.332C563.986 895.224 566.379 898.913 568.866 901.947C577.796 917.127 580.761 933.417 576.885 950.69C576.442 952.367 575.968 954.406 575.409 956.018C574.178 960.089 572.657 963.695 570.764 967.508C568.776 967.656 565.031 967.413 562.915 967.339C561 968.966 557.554 968.537 555.042 968.451C552.536 968.857 549.186 969.52 546.716 969.599C560.98 956.035 565.609 937.054 558.532 918.431C554.88 908.82 545.122 897.276 535.527 893.15C523.381 887.533 509.506 886.949 496.932 891.527C484.149 896.327 475.798 905.857 470.373 918.186C465.573 929.243 465.466 941.775 470.078 952.912C472.591 959.156 475.443 962.727 479.939 967.537C477.064 967.569 475.185 967.581 472.278 967.286C469.658 967.419 467.713 967.592 465.083 967.323C462.449 967.481 460.785 967.548 458.114 967.443C456.064 963.319 453.966 959.6 452.593 955.204L451.355 950.469Z"/><path fill="#6B6C6C" transform="scale(0.195312 0.195312)" d="M510.335 883.461C526.79 883.362 536.745 886.564 549.61 897.282L553.957 901.739C563.215 913.989 568.895 926.795 566.598 942.612C565.2 952.125 561.2 961.066 555.042 968.451C552.536 968.857 549.186 969.52 546.716 969.599C560.98 956.035 565.609 937.054 558.532 918.431C554.88 908.82 545.122 897.276 535.527 893.15C523.381 887.533 509.506 886.949 496.932 891.527C484.149 896.327 475.798 905.857 470.373 918.186C465.573 929.243 465.466 941.775 470.078 952.912C472.591 959.156 475.443 962.727 479.939 967.537C477.064 967.569 475.185 967.581 472.278 967.286C455.194 941.99 458.461 915.457 481.179 895.091C490.713 888.302 498.646 884.721 510.335 883.461Z"/><path fill="#BDBDBC" transform="scale(0.195312 0.195312)" d="M526.058 878.511C565.41 884.212 587.63 935.335 562.915 967.339C561 968.966 557.554 968.537 555.042 968.451C561.2 961.066 565.2 952.125 566.598 942.612C568.895 926.795 563.215 913.989 553.957 901.739L549.61 897.282C536.745 886.564 526.79 883.362 510.335 883.461C513.298 882.651 516.41 883.096 519.202 882.757C519.773 882.688 519.866 880.503 522.499 879.49C523.784 879.877 524.074 880.147 525.325 879.834L526.058 878.511Z"/><path fill="#BDBDBC" transform="scale(0.195312 0.195312)" d="M549.61 897.282C551.417 897.117 552.346 896.883 554.078 897.458C555.437 899.256 554.911 899.78 553.957 901.739L549.61 897.282Z"/><defs><linearGradient id="gradient_2" gradientUnits="userSpaceOnUse" x1="451.30026" y1="953.79279" x2="491.67581" y2="906.82697"><stop offset="0" stop-color="#B1B0B0"/><stop offset="1" stop-color="#D2D2D2"/></linearGradient></defs><path fill="url(#gradient_2)" transform="scale(0.195312 0.195312)" d="M472.1 894.902C474.471 897.104 477.827 894.783 481.179 895.091C458.461 915.457 455.194 941.99 472.278 967.286C469.658 967.419 467.713 967.592 465.083 967.323C448.983 944.683 453.345 914.603 472.1 894.902Z"/><path fill="#F2F1F2" transform="scale(0.195312 0.195312)" d="M472.1 894.902C484.892 880.232 507.357 874.61 526.058 878.511L525.325 879.834C524.074 880.147 523.784 879.877 522.499 879.49C519.866 880.503 519.773 882.688 519.202 882.757C516.41 883.096 513.298 882.651 510.335 883.461C498.646 884.721 490.713 888.302 481.179 895.091C477.827 894.783 474.471 897.104 472.1 894.902Z"/><path fill="#2A6F9E" transform="scale(0.195312 0.195312)" d="M591.879 660.841C602.575 663.954 613.717 673.294 623.511 676.791C649.832 685.93 676.044 694.025 701.4 705.784C717.085 713.057 721.452 721.567 729.576 736.007C752.463 776.687 773.777 818.076 795.66 859.269C789.852 864.173 782.755 867.841 777.541 872.177L772.306 875.532C746.056 891.646 722.318 900.128 692.717 907.33L687.273 908.006C685.668 908.031 684.366 907.805 683.187 908.764C682.038 917.227 680.93 936.314 680.47 945.491C678.82 946.314 677.161 947.117 675.491 947.9C674.567 943.81 676.254 928.948 676.655 924.191C677.732 911.969 678.672 899.734 679.475 887.49C681.231 858.574 681.828 829.395 684.258 800.544C684.635 796.074 684.475 792.382 685.396 787.832C685.527 793.595 684.772 796.747 684.408 801.883C683.851 810.235 683.349 818.591 682.904 826.95C681.544 852.813 680.971 878.186 678.985 904.14C678.072 916.066 675.807 935.095 676.159 946.035L676.657 946.507C682.611 944.419 679.717 921.488 681.866 915.713C682.461 914.114 681.007 909.289 682.492 907.863C688.898 906.398 698.579 905.148 704.983 903.41C732.155 896.208 757.882 884.375 781.033 868.43C784.348 866.195 791.426 861.796 793.763 859.247C793.847 855.228 743.242 763.311 737.373 752.438C734.1 746.373 726.528 733.282 723.2 726.569C721.776 723.696 720.493 722.617 718.645 720.288C709.859 709.217 699.391 706.135 687.038 700.721C671.259 693.807 654.888 688.823 638.702 683.012C633.597 681.179 624.455 678.605 620.035 676.566C616.852 675.098 594.881 661.389 592.729 662.723C589.175 664.928 578.501 681.738 574.948 686.355C555.711 711.354 535.168 733.661 513.893 756.715L513.198 756.078C509.465 752.629 506.139 748.854 502.704 745.126C485.259 726.193 468.393 706.761 452.392 686.59C446.947 679.727 442.972 671.721 437.272 665.101C436.66 664.396 436.012 663.558 435.414 662.822C428.562 663.558 411.219 674.606 404.486 678.067C400.767 679.979 393.039 681.645 388.799 683.308C382.674 685.711 376.313 687.583 370.09 689.654C363.733 691.77 356.08 694.579 349.831 697.07C326.608 706.328 314.812 708.593 301.605 731.575C295.022 743.03 288.932 754.793 282.673 766.293C270.606 788.216 258.708 810.231 246.98 832.338C245.267 835.56 233.434 856.97 233.703 858.714C235.577 862.18 240.265 863.947 243.372 866.253C256.951 876.334 271.448 883.709 286.777 890.654C297.06 895.312 307.089 898.216 317.652 902.081C320.182 903.007 320.539 902.679 322.807 901.42C327.147 901.743 333.661 903.77 338.019 905.027L337.945 905.474L336.37 906.141C340.33 907.746 343.614 906.463 345.261 907.539C347.825 914.822 345.621 942.99 350.48 946.797L351.677 946.944C352.845 943.934 348.142 898.637 347.803 892.13C346.937 875.517 345.749 856.732 345.241 839.839C345.04 834.261 343.828 824.284 344.743 819.547C346.576 857.821 348.176 895.751 351.899 933.913C352.281 937.828 352.97 944.708 352.535 948.376C350.673 947.576 349.452 946.842 347.689 945.823C346.561 933.116 345.794 920.357 344.616 907.702C343.232 907.887 341.759 907.75 340.352 907.687C338.375 907.585 336.723 907.283 334.775 906.968C305.678 901.294 279.901 889.947 254.46 875.125C252.668 873.921 250.883 872.705 249.107 871.477C244.422 867.458 237.741 864.44 232.053 859.228C232.189 858.861 232.327 858.494 232.469 858.129C234.938 851.898 241.647 840.026 245.055 833.615C253.487 817.69 262.028 801.824 270.676 786.016C276.91 774.688 283.075 763.323 289.171 751.92C293.995 742.913 298.512 734.391 303.974 725.785C313.551 710.699 323.899 706.188 339.858 699.769C360.635 691.411 382.038 684.962 403.067 677.257C408.361 675.318 413.607 671.413 418.711 668.878C424.483 665.802 429.453 663.631 435.494 661.068L439.497 665.533C440.263 666.79 441.771 669.442 442.586 670.512C448.928 681.137 460.175 694.847 468.04 704.248C482.729 721.728 497.964 738.743 513.721 755.266C535.464 732.109 568.02 696.725 584.932 670.368C586.301 668.257 586.862 667.491 588.554 665.636C589.612 664.077 590.744 662.327 591.879 660.841Z"/><path fill="#2A6F9E" transform="scale(0.195312 0.195312)" d="M529.876 873.577C542.126 870.917 566.361 890.916 568.866 901.947C566.379 898.913 563.986 895.224 561.33 892.332C552.659 882.887 541.88 877.402 529.876 873.577Z"/><path fill="#2A6F9E" transform="scale(0.195312 0.195312)" d="M620.092 680.816C622.882 681.003 636.381 686.323 640.202 687.591C661.004 694.495 681.681 701.488 701.514 710.917C706.145 713.254 710.006 716.826 713.691 720.364C720.453 726.855 723.625 734.999 727.893 742.944L755.533 793.562L775.532 831.205C777.829 835.487 788.843 854.76 788.82 858.127C787.356 859.9 783.923 862.688 781.906 863.736C775.886 866.865 769.592 872.374 763.47 874.978C758.736 876.897 754.432 879.914 749.831 882.109C736.417 888.511 722.678 894.325 708.246 898.024C702.876 899.401 697.465 900.208 692.232 902.101L692.69 902.035C689.38 903.766 687.521 904.465 684.158 901.763C683.811 899.058 684.332 890.847 684.513 887.775C685.059 878.521 685.267 868.205 685.848 859.115C686.516 848.663 685.045 823.317 687.33 814.579L687.675 814.946C688.06 818.886 687.433 822.807 687.355 826.76C686.872 851.5 686.385 876.482 685.255 901.188L686.153 901.747C687.901 901.805 687.955 901.583 689.413 900.64C690.61 899.857 709.592 897.086 713.401 895.893C740.358 887.169 765.784 874.28 788.756 857.694C782.35 846.487 775.828 833.095 769.714 821.529C759.324 801.881 748.772 782.318 738.059 762.843C732.621 752.831 723.714 734.889 717.598 726.326C714.157 721.592 709.922 717.49 705.081 714.203C703.401 720.106 698.05 732.363 694.522 737.405L693.761 737.325C693.018 734.233 697.863 714.862 699.036 710.705C679.748 700.867 642.823 689.29 620.946 681.668C611.171 692.563 598.694 711.889 588.687 721.703C589.665 719.296 595.944 711.865 597.86 709.579C603.091 703.277 608.191 696.868 613.158 690.356C615.252 687.638 618.538 683.787 620.092 680.816Z"/><path fill="#2A6F9E" transform="scale(0.195312 0.195312)" d="M691.673 744.856C693.398 748.201 688.621 762.313 687.331 766.395L687.31 766.41C686.113 762.723 690.076 749.012 691.673 744.856Z"/><path fill="#2A6F9E" transform="scale(0.195312 0.195312)" d="M335.584 746.885C337.948 749.362 340.178 764.354 339.934 768.142C337.658 765.168 335.632 750.864 335.584 746.885Z"/><path fill="#DFC28A" transform="scale(0.195312 0.195312)" d="M249.107 871.477C250.883 872.705 252.668 873.921 254.46 875.125C279.901 889.947 305.678 901.294 334.775 906.968C336.723 907.283 338.375 907.585 340.352 907.687C336.009 918.448 332.255 926.483 327.042 936.898C332.053 939.483 337.368 942.202 341.989 945.416L337.973 949.3C325.396 965.187 327.116 963.557 320.166 981.331C318.032 991.808 316.454 1000.19 317.383 1011.09L317.742 1015.07C318.263 1017.24 318.816 1019.84 319.474 1021.93C293.284 1015.62 246.993 995.787 236.027 970.124C224.927 944.149 239.064 897.009 249.107 871.477Z"/><path fill="#B18E5C" transform="scale(0.195312 0.195312)" d="M249.107 871.477C250.883 872.705 252.668 873.921 254.46 875.125C252.884 877.168 251.946 879.386 251.27 881.879C243.896 904.147 230.26 947.486 241.66 969.148C252.561 989.862 292.736 1007.99 314.407 1014.27C315.508 1014.59 316.601 1014.93 317.742 1015.07C318.263 1017.24 318.816 1019.84 319.474 1021.93C293.284 1015.62 246.993 995.787 236.027 970.124C224.927 944.149 239.064 897.009 249.107 871.477Z"/><path fill="#D6B579" transform="scale(0.195312 0.195312)" d="M251.27 881.879C251.946 879.386 252.884 877.168 254.46 875.125C279.901 889.947 305.678 901.294 334.775 906.968C333.637 909.14 332.522 911.324 331.43 913.519C328.662 912.616 322.864 911.794 319.657 911.11C298.88 906.676 280.038 898.695 261.614 888.247C259.75 887.19 252.479 882.14 251.27 881.879Z"/><defs><linearGradient id="gradient_3" gradientUnits="userSpaceOnUse" x1="342.53171" y1="926.10376" x2="289.86023" y2="940.47955"><stop offset="0" stop-color="#A88A5C"/><stop offset="1" stop-color="#CAA46C"/></linearGradient></defs><path fill="url(#gradient_3)" transform="scale(0.195312 0.195312)" d="M334.775 906.968C336.723 907.283 338.375 907.585 340.352 907.687C336.009 918.448 332.255 926.483 327.042 936.898C332.053 939.483 337.368 942.202 341.989 945.416L337.973 949.3C334.649 947.037 330.788 945.26 327.405 943.309C311.942 934.39 301.26 932.981 284.06 930.443C298.138 925.899 308.282 928.832 321.865 933.989C325.115 927.296 328.276 920.281 331.43 913.519C332.522 911.324 333.637 909.14 334.775 906.968Z"/><path fill="#E1D3A5" transform="scale(0.195312 0.195312)" d="M317.383 1011.09C316.311 1008.86 314.776 1001.63 315.245 999.101C315.829 995.957 318.038 983.208 320.166 981.331C318.032 991.808 316.454 1000.19 317.383 1011.09Z"/><path fill="#DFC28A" transform="scale(0.195312 0.195312)" d="M777.541 872.177C787.931 895.343 801.211 942.596 792.658 967.338C785.606 987.738 758.102 1002.52 739.421 1011.2C728.465 1016.28 719.114 1018.17 708.49 1021.99C708.499 1019.56 708.569 1018.54 708.944 1016.14C709.924 1012.77 710.201 1007.8 710.32 1004.3C708.777 979.493 705.392 968.641 689.215 949.63C687.589 947.969 687.039 947.404 685.719 945.524C687.119 944.738 688.736 943.277 690.342 942.296C693.448 940.398 696.616 938.906 699.884 937.321C695.506 927.625 691.302 917.852 687.273 908.006L692.717 907.33C722.318 900.128 746.056 891.646 772.306 875.532L777.541 872.177Z"/><path fill="#B18E5C" transform="scale(0.195312 0.195312)" d="M777.541 872.177C787.931 895.343 801.211 942.596 792.658 967.338C785.606 987.738 758.102 1002.52 739.421 1011.2C728.465 1016.28 719.114 1018.17 708.49 1021.99C708.499 1019.56 708.569 1018.54 708.944 1016.14C709.924 1012.77 710.201 1007.8 710.32 1004.3C730.278 1000.03 752.027 991.652 769.79 981.565C774.022 979.161 779.186 974.624 783.924 971.644C799.59 954.249 781.44 901.718 775.709 881.636C774.567 879.164 774.018 877.709 772.306 875.532L777.541 872.177Z"/><path fill="#D6B579" transform="scale(0.195312 0.195312)" d="M710.32 1004.3C730.278 1000.03 752.027 991.652 769.79 981.565C774.022 979.161 779.186 974.624 783.924 971.644C773.055 992.228 731.069 1009.33 708.944 1016.14C709.924 1012.77 710.201 1007.8 710.32 1004.3Z"/><path fill="#D6B579" transform="scale(0.195312 0.195312)" d="M772.306 875.532C774.018 877.709 774.567 879.164 775.709 881.636C748.115 898.716 728.404 907.567 695.927 913.726C694.933 911.462 693.873 909.502 692.717 907.33C722.318 900.128 746.056 891.646 772.306 875.532Z"/><path fill="#B18E5C" transform="scale(0.195312 0.195312)" d="M692.717 907.33C693.873 909.502 694.933 911.462 695.927 913.726C698.956 920.582 701.989 927.704 705.34 934.384C715.938 929.34 727.435 926.195 739.503 929.297C740.023 929.431 740.404 929.735 740.836 930.036L740.652 930.711C735.921 932.342 730.658 931.924 725.974 932.964C714.406 935.534 699.22 942.863 689.215 949.63C687.589 947.969 687.039 947.404 685.719 945.524C687.119 944.738 688.736 943.277 690.342 942.296C693.448 940.398 696.616 938.906 699.884 937.321C695.506 927.625 691.302 917.852 687.273 908.006L692.717 907.33Z"/></svg>