<?xml version="1.0" encoding="utf-8" ?><svg xmlns="http://www.w3.org/2000/svg" xmlns:xlink="http://www.w3.org/1999/xlink" width="200" height="200" viewBox="0 0 200 200"><path fill="#C58B52" transform="scale(0.195312 0.195312)" d="M272.685 373.995C253.148 326.164 244.922 258.561 261.42 207.749C261.998 205.968 263.903 201.506 264.89 199.931C291.881 157.099 330.725 117.346 375.356 92.2622C450.013 50.3024 574.665 21.2123 638.123 97.7815C642.765 103.383 645.76 109.142 649.886 114.874L650.245 115.366C699.104 116.096 736.72 142.152 756.838 186.207C776.182 228.568 773.034 275.746 765.674 320.598C763.896 331.432 761.424 348.168 757.741 358.343C756.53 363.612 755.111 368.597 753.65 373.795C760.658 372.525 765.597 373.047 771.925 377.022C778.576 381.2 783.352 391.513 784.37 399.272C787.874 425.956 775.885 456.733 760.281 478.036C752.571 488.561 739.419 502.067 726.017 504.131C720.072 505.046 714.526 504.131 708.735 503.075C707.516 511.555 705.437 517.483 703.164 525.489C695.742 551.636 683.424 570.855 661.4 587.207C639.493 603.472 596.07 625.172 569.699 630.354C569.621 632.849 569.393 636.849 569.549 639.195C569.315 641.057 568.905 643.525 568.929 645.339C567.322 649.095 569.246 653.524 566.72 656.006C565.202 656.073 565.971 656.182 564.418 655.004C564.419 652.939 564.455 651.116 564.234 649.047C558.438 651.739 553.747 652.953 547.851 654.872C518.876 664.3 491.154 662.062 463.881 648.883C464.118 652.236 464.779 654.324 463.343 656.966C459.542 653.826 459.574 645.599 458.126 639.65C457.937 637.105 458.035 633.305 458.024 630.659C429.484 622.154 402.22 609.84 376.97 594.051C339.677 570.321 328.988 545.02 319.671 503.204C314.418 504.087 308.527 504.998 303.204 504.45C291.259 503.22 279.199 491.615 272.163 482.492C254.572 459.681 240.121 429.993 243.496 400.51C244.455 392.134 248.172 382.843 255.08 377.731C260.351 373.831 266.385 373.155 272.685 373.995Z"/><path fill="#412810" transform="scale(0.195312 0.195312)" d="M272.685 373.995C253.148 326.164 244.922 258.561 261.42 207.749C261.998 205.968 263.903 201.506 264.89 199.931C291.881 157.099 330.725 117.346 375.356 92.2622C450.013 50.3024 574.665 21.2123 638.123 97.7815C642.765 103.383 645.76 109.142 649.886 114.874L650.245 115.366C699.104 116.096 736.72 142.152 756.838 186.207C776.182 228.568 773.034 275.746 765.674 320.598C763.896 331.432 761.424 348.168 757.741 358.343C756.53 363.612 755.111 368.597 753.65 373.795C753.005 375.244 752.403 376.711 751.845 378.195C742.583 402.19 733.878 428.615 721.786 451.472C721.239 452.506 719.763 453.417 718.741 453.989C715.412 452.754 715.013 451.872 712.9 448.858C711.734 445.403 712.653 427.76 712.998 423.188C715.766 386.44 716.077 350.585 700.224 316.182C676.384 315.531 642.936 261.848 634.176 242.107C630.548 233.929 627.945 225.513 623.087 217.63C614.954 226.86 608.458 236.416 599.252 244.99C572.04 270.331 541.056 293.176 502.116 291.377L499.173 285.203C504.668 278.611 511.017 272.914 515.988 265.801C516.963 264.406 519.154 262.241 520.393 260.902C510.62 265.826 500.991 272.315 491.378 277.354C471.301 287.923 449.631 295.139 427.226 298.716C422.355 299.48 411.154 302.035 407.804 298.166C404.013 293.788 415.52 283.994 418.465 281.732C403.312 286.498 388.619 292.214 373.004 295.429C357.573 298.606 341.438 301.533 325.673 300.952C321.285 322.951 315.129 343.799 313.972 366.491C313.007 385.427 313.835 403.917 315.562 422.782C316.135 430.31 318.054 444.055 315.664 450.827C313.62 452.545 312.607 453.346 309.855 453.404C305.558 450.083 300.87 437.942 297.847 432.027C295.128 426.054 292.591 419.29 289.849 413.085C285.328 402.274 279.567 390.389 274.793 379.325L272.685 373.995Z"/><path fill="#B57941" transform="scale(0.195312 0.195312)" d="M566.472 213.031C557.602 231.331 540.207 251.903 526.089 266.587C522.738 270.072 514.174 275.74 514.722 280.396C515.498 281.417 516.292 282.367 517.809 282.362C539.078 282.285 570.312 260.374 586.133 247.376C598.145 237.508 618.199 215.745 625.556 203.248C627.584 209.285 629.473 216.496 631.631 222.222C641.597 248.289 656.299 272.288 674.996 293.006C677.947 296.253 685.976 306.168 690.258 305.233C691.795 303.491 691.745 303.13 691.589 300.781C691.558 300.345 691.523 299.91 691.483 299.475C694.974 304.997 697.478 310.278 700.224 316.182C676.384 315.531 642.936 261.848 634.176 242.107C630.548 233.929 627.945 225.513 623.087 217.63C614.954 226.86 608.458 236.416 599.252 244.99C572.04 270.331 541.056 293.176 502.116 291.377L499.173 285.203C504.668 278.611 511.017 272.914 515.988 265.801C516.963 264.406 519.154 262.241 520.393 260.902C510.62 265.826 500.991 272.315 491.378 277.354C471.301 287.923 449.631 295.139 427.226 298.716C422.355 299.48 411.154 302.035 407.804 298.166C404.013 293.788 415.52 283.994 418.465 281.732C403.312 286.498 388.619 292.214 373.004 295.429C357.573 298.606 341.438 301.533 325.673 300.952L326.871 297.132C327.268 295.058 327.437 293.416 329.896 293.302C345.065 292.597 358.387 289.605 373.131 285.953C397.436 279.782 420.8 270.37 442.595 257.968C448.434 254.71 457.686 247.962 462.255 245.708L462.216 246.654C458.584 250.215 454.604 255.116 451.039 258.959C443.949 266.743 436.361 274.058 428.323 280.859C425.701 283.076 419.782 286.688 423.867 290.22C430.308 291.536 439.554 288.841 445.724 286.999C469.492 279.786 492.084 269.151 512.788 255.429C530.495 243.706 550.788 227.413 566.472 213.031Z"/><path fill="#301D08" transform="scale(0.195312 0.195312)" d="M326.871 297.132L326.553 295.193C324.686 293.6 302.86 292.494 297.598 291.384L298.275 291.475C287.077 287.28 283.893 286.723 272.511 281.178L272.564 280.582C273.784 280.585 276.194 281.258 277.326 281.76C282.404 284.013 288.136 283.668 293.58 284.74C299.453 285.897 305.673 287.29 311.661 287.777C314.038 288.179 318.349 287.324 320.505 287.683C326.354 288.655 329.963 287.608 335.626 287.025C356.274 284.929 376.598 280.37 396.163 273.445C401.14 271.64 406.144 269.159 411.041 267.085C414.825 265.483 419.493 264.166 423.06 262.274C433.629 256.669 444.579 251.507 454.348 244.553C457.321 242.434 459.988 240.383 463.43 239.076L463.828 239.291C463.328 239.948 446.003 251.111 444.219 252.147C415.97 268.751 385.01 280.235 352.766 286.07C343.848 287.651 331.727 287.821 324.325 289.319L323.831 290.244C324.176 291.872 324.203 292.41 325.049 293.885C326.951 293.933 327.427 292.598 328.023 292.558C374.623 289.437 421.707 272.146 460.147 245.81C461.278 245.034 461.396 244.682 462.807 244L463.478 244.514C463.462 246.367 463.745 245.591 462.858 246.994L462.216 246.654L462.255 245.708C457.686 247.962 448.434 254.71 442.595 257.968C420.8 270.37 397.436 279.782 373.131 285.953C358.387 289.605 345.065 292.597 329.896 293.302C327.437 293.416 327.268 295.058 326.871 297.132Z"/><path fill="#301D08" transform="scale(0.195312 0.195312)" d="M691.483 299.475L691.393 298.149C695.308 300.139 705.483 327.007 707.289 332.29C719.83 368.964 713.676 407.464 713.096 445.225C713.075 446.573 713.574 448.448 714.655 449.358C723.064 450.655 724.977 443.895 727.492 437.905C727.007 438.099 726.523 438.292 726.038 438.486L725.95 437.695C727.074 436.619 726.606 436.971 728.112 436.374C730.45 432.168 732.411 426.62 734.156 422.088C740.228 406.316 746.204 390.493 752.284 374.724C753.612 371.278 755.446 360.495 757.741 358.343C756.53 363.612 755.111 368.597 753.65 373.795C753.005 375.244 752.403 376.711 751.845 378.195C742.583 402.19 733.878 428.615 721.786 451.472C721.239 452.506 719.763 453.417 718.741 453.989C715.412 452.754 715.013 451.872 712.9 448.858C711.734 445.403 712.653 427.76 712.998 423.188C715.766 386.44 716.077 350.585 700.224 316.182C697.478 310.278 694.974 304.997 691.483 299.475Z"/><path fill="#A76B36" transform="scale(0.195312 0.195312)" d="M753.65 373.795C760.658 372.525 765.597 373.047 771.925 377.022C778.576 381.2 783.352 391.513 784.37 399.272C787.874 425.956 775.885 456.733 760.281 478.036C752.571 488.561 739.419 502.067 726.017 504.131C720.072 505.046 714.526 504.131 708.735 503.075C707.516 511.555 705.437 517.483 703.164 525.489C695.742 551.636 683.424 570.855 661.4 587.207C639.493 603.472 596.07 625.172 569.699 630.354C569.621 632.849 569.393 636.849 569.549 639.195C569.315 641.057 568.905 643.525 568.929 645.339C567.322 649.095 569.246 653.524 566.72 656.006C565.202 656.073 565.971 656.182 564.418 655.004C564.419 652.939 564.455 651.116 564.234 649.047C558.438 651.739 553.747 652.953 547.851 654.872C518.876 664.3 491.154 662.062 463.881 648.883C464.118 652.236 464.779 654.324 463.343 656.966C459.542 653.826 459.574 645.599 458.126 639.65C457.937 637.105 458.035 633.305 458.024 630.659C429.484 622.154 402.22 609.84 376.97 594.051C339.677 570.321 328.988 545.02 319.671 503.204C314.418 504.087 308.527 504.998 303.204 504.45C291.259 503.22 279.199 491.615 272.163 482.492C254.572 459.681 240.121 429.993 243.496 400.51C244.455 392.134 248.172 382.843 255.08 377.731C260.351 373.831 266.385 373.155 272.685 373.995L274.793 379.325C279.567 390.389 285.328 402.274 289.849 413.085C292.591 419.29 295.128 426.054 297.847 432.027C300.87 437.942 305.558 450.083 309.855 453.404C312.607 453.346 313.62 452.545 315.664 450.827C316.01 456.918 318.516 467.444 319.782 473.683C327.178 510.116 333.359 554.004 365.187 577.867C391.892 597.889 424.611 613.535 456.713 622.756C469.466 626.419 485.859 628.696 499.154 630.101C554.1 634.122 602.579 615.741 648.941 588.019C693.148 561.586 698.937 520.866 708.233 474.406C709.891 466.118 710.965 457.074 712.9 448.858C715.013 451.872 715.412 452.754 718.741 453.989C719.763 453.417 721.239 452.506 721.786 451.472C733.878 428.615 742.583 402.19 751.845 378.195C752.403 376.711 753.005 375.244 753.65 373.795Z"/><path fill="#C58B52" transform="scale(0.195312 0.195312)" d="M751.845 378.195C769.004 375.919 777.589 387.341 779.11 403.035C781.641 429.162 767.753 458.897 752.223 479.301C741.178 493.812 728.493 501.656 710.098 497.658C713.157 485.292 715.134 472.687 717.327 460.145C717.704 457.984 718.01 456.066 718.741 453.989C719.763 453.417 721.239 452.506 721.786 451.472C733.878 428.615 742.583 402.19 751.845 378.195Z"/><path fill="#C58B52" transform="scale(0.195312 0.195312)" d="M318.149 498.078C312.635 499.137 309.496 500.076 303.511 498.823C288.471 495.673 277.612 482.201 269.514 470.017C255.691 449.134 245.238 423.729 250.136 398.293C252.521 385.911 261.347 376.198 274.793 379.325C279.567 390.389 285.328 402.274 289.849 413.085C292.591 419.29 295.128 426.054 297.847 432.027C300.87 437.942 305.558 450.083 309.855 453.404C309.108 456.422 316.772 493.221 318.149 498.078Z"/><path fill="#A76B36" transform="scale(0.195312 0.195312)" d="M265.708 402.284C263.99 401.968 262.102 401.861 260.903 400.705L261.061 399.691C262.786 398.485 265.178 398.346 267.22 398.443C275.653 398.845 283.199 407.853 288.575 413.604L289.849 413.085C292.591 419.29 295.128 426.054 297.847 432.027C291.514 437.877 290.765 456.261 297.172 461.991C299.038 463.661 303.55 466.213 304.348 468.311C302.297 469.007 299.051 467.388 297.145 466.412C279.275 457.261 286.379 441.126 292.823 428.324C289.908 422.219 277.259 405.725 270.63 405.447C264.982 408.248 268.431 423.768 266.118 427.16C265.613 426.658 265.568 426.748 265.381 426.172C262.663 417.789 261.667 410.35 265.708 402.284Z"/><path fill="#1A1916" transform="scale(0.195312 0.195312)" d="M576.725 405.584C576.455 405.565 576.185 405.546 575.916 405.527C574.726 395.792 578.399 386.8 584.136 379.152C601.951 355.4 645.747 357.089 667.316 374.4C669.941 376.507 678.165 383.788 678.548 387.167C677.097 387.792 676.547 387.943 675.498 389.213C681.697 394.012 685.14 395.622 693.092 393.547C690.03 400.299 688.937 399.886 683.875 404.843C682.054 410.992 679.531 419.043 675.431 424.049L674.965 423.968L674.719 423.608C674.754 423.449 674.368 425.697 674.487 425.382C670.002 437.279 656.319 444.364 644.252 445.3C644.03 445.199 643.808 445.099 643.586 444.998C641.807 445.585 640.706 445.5 638.854 445.549C634.092 446.36 606.856 445.389 602.385 444.078L601.287 443.862C599.417 444.848 595.568 443.869 593.472 443.378C581.332 440.533 570.766 435.935 574.2 421.131C573.318 416.141 575.267 410.322 576.725 405.584Z"/><path fill="#B57941" transform="scale(0.195312 0.195312)" d="M576.725 405.584C576.455 405.565 576.185 405.546 575.916 405.527C574.726 395.792 578.399 386.8 584.136 379.152C601.951 355.4 645.747 357.089 667.316 374.4C669.941 376.507 678.165 383.788 678.548 387.167C677.097 387.792 676.547 387.943 675.498 389.213C659.305 380.148 648.156 373.401 628.995 373.302C623.18 373.272 616.986 373.363 611.403 375.054C598.971 378.82 585.541 388.268 579.513 400.027C578.558 401.891 577.729 403.808 576.725 405.584Z"/><path fill="#764B1F" transform="scale(0.195312 0.195312)" d="M630.652 435.253C637.192 431.519 638.329 428.026 642.423 422.122C643.58 420.453 645.694 418 647.854 417.939C650.419 417.867 652.157 419.089 653.83 420.79C655.359 420.135 655.303 420.208 656.99 420.154L657.882 420.914C654.88 430.862 651.581 437.933 643.586 444.998C641.807 445.585 640.706 445.5 638.854 445.549C634.092 446.36 606.856 445.389 602.385 444.078C603.779 441.158 593.711 432.256 594.655 423.924C597.896 422.569 599.157 421.591 602.262 422.109C603.71 424.553 604.885 426.768 606.896 428.809C607.651 429.612 608.073 430.171 608.977 430.798L609.809 431.082C611.27 431.593 612.619 432.789 613.448 432.907C617.726 433.516 625.507 434.456 629.715 434.391L630.652 435.253Z"/><defs><linearGradient id="gradient_0" gradientUnits="userSpaceOnUse" x1="645.1673" y1="427.35809" x2="652.06537" y2="437.4834"><stop offset="0" stop-color="#1D0900"/><stop offset="1" stop-color="#483820"/></linearGradient></defs><path fill="url(#gradient_0)" transform="scale(0.195312 0.195312)" d="M653.83 420.79C655.359 420.135 655.303 420.208 656.99 420.154L657.882 420.914C654.88 430.862 651.581 437.933 643.586 444.998C641.807 445.585 640.706 445.5 638.854 445.549C640.001 444.025 642.263 442.473 643.805 441.167C647.15 438.324 649.904 434.852 651.91 430.947C653.46 427.9 654.912 424.075 653.83 420.79Z"/><path fill="#301D08" transform="scale(0.195312 0.195312)" d="M608.977 430.798L609.809 431.082C611.27 431.593 612.619 432.789 613.448 432.907C617.726 433.516 625.507 434.456 629.715 434.391L630.652 435.253C628.425 435.968 626.114 436.388 623.778 436.505C617.665 436.772 613.389 434.894 608.977 430.798Z"/><path fill="#F8F8F8" transform="scale(0.195312 0.195312)" d="M654.21 390.09C662.221 393.566 672.08 398.683 676.336 406.714C676.038 412.772 675.881 417.599 674.719 423.608C674.754 423.449 674.368 425.697 674.487 425.382C670.002 437.279 656.319 444.364 644.252 445.3C644.03 445.199 643.808 445.099 643.586 444.998C651.581 437.933 654.88 430.862 657.882 420.914C660.726 410.546 657.868 399.768 654.21 390.09Z"/><path fill="#F8F8F8" transform="scale(0.195312 0.195312)" d="M588.467 397.667C584.771 414.069 587.523 432.722 601.287 443.862C599.417 444.848 595.568 443.869 593.472 443.378C581.332 440.533 570.766 435.935 574.2 421.131C576.918 412.239 581.823 404.172 588.467 397.667Z"/><path fill="#301D08" transform="scale(0.195312 0.195312)" d="M588.467 397.667C589.6 397.791 589.159 397.778 590.335 397.328C592.792 393.688 598.633 391.815 602.314 394.148C600.466 398.407 600.693 401.381 603.537 405.054L601.251 404.063C600.386 404.968 600.25 409.091 600.253 410.456C600.263 415.51 604.018 420.548 606.72 424.712L606.413 424.386C605.346 423.264 605.645 423.384 604.278 422.7C604.506 425.61 607.056 426.508 606.896 428.809C604.885 426.768 603.71 424.553 602.262 422.109C599.157 421.591 597.896 422.569 594.655 423.924C593.711 432.256 603.779 441.158 602.385 444.078L601.287 443.862C587.523 432.722 584.771 414.069 588.467 397.667Z"/><path fill="#412810" transform="scale(0.195312 0.195312)" d="M594.655 423.924C594.882 422.244 594.974 420.833 595.583 419.247C598.701 416.461 600.581 419.625 602.262 422.109C599.157 421.591 597.896 422.569 594.655 423.924Z"/><path fill="#301D08" transform="scale(0.195312 0.195312)" d="M629.715 434.391C645.349 427.386 647.881 401.455 640.43 388.069C639.987 387.274 640.083 387.635 640.229 386.673C645.053 387.131 650.013 387.375 654.21 390.09C657.868 399.768 660.726 410.546 657.882 420.914L656.99 420.154C655.303 420.208 655.359 420.135 653.83 420.79C652.157 419.089 650.419 417.867 647.854 417.939C645.694 418 643.58 420.453 642.423 422.122C638.329 428.026 637.192 431.519 630.652 435.253L629.715 434.391Z"/><path fill="#F8F8F8" transform="scale(0.195312 0.195312)" d="M602.314 394.148C618.702 379.63 621.834 411.458 603.537 405.054C600.693 401.381 600.466 398.407 602.314 394.148Z"/><path fill="#1A1916" transform="scale(0.195312 0.195312)" d="M342.892 403.774C340.8 402.026 334.812 396.878 334.882 394.226C336.638 394.326 342.172 394.708 343.456 394.143C347.836 391.977 352.436 389.152 356.572 386.449C376.477 373.439 405.364 367.813 427.202 380.13C433.401 383.066 440.571 389.266 444.489 394.854C450.114 401.388 453.072 410.339 453.301 419.414C453.31 419.774 453.035 420.133 452.833 420.443C454.014 433.646 452.032 438.048 438.29 441.485C434.623 442.403 430.056 444.429 426.224 443.895L425.198 444.176C417.557 446.022 393.036 446.545 385.097 445.382C380.367 446.102 371.281 442.255 366.899 440.227C361.298 437.635 354.313 430.791 352.456 424.93C347.095 416.714 345.721 412.971 342.892 403.774Z"/><path fill="#090907" transform="scale(0.195312 0.195312)" d="M342.892 403.774C340.8 402.026 334.812 396.878 334.882 394.226C336.638 394.326 342.172 394.708 343.456 394.143C347.836 391.977 352.436 389.152 356.572 386.449C376.477 373.439 405.364 367.813 427.202 380.13L424.983 380.255C424.936 382.001 426.618 381.926 426.612 384.111C423.603 388.936 395.834 385.537 393.058 383.349C392.075 383.961 389.133 385.811 388.316 385.973C382.994 387.026 377.642 385.098 373.671 389.849C373.354 390.115 373.036 390.381 372.719 390.647C363.907 394.055 357.032 398.393 350.979 405.688C351.129 407.995 352.718 424.331 352.456 424.93C347.095 416.714 345.721 412.971 342.892 403.774Z"/><path fill="#764B1F" transform="scale(0.195312 0.195312)" d="M426.172 416.95C428.961 418.893 432.392 415.573 435.116 422.543C436.511 422.802 435.887 422.663 437.186 423.738C437.824 422.098 438.102 421.758 439.06 420.349C437.129 430.286 433.677 437.043 426.224 443.895L425.198 444.176C417.557 446.022 393.036 446.545 385.097 445.382C382.898 444.171 382.621 443.975 380.961 442.097C382.707 442.657 383.093 443.277 385.225 443.731L385.448 443.358C381.673 439.902 378.778 437.924 376.642 433.077C375.045 429.475 372.039 424.616 373.152 421.206C375.138 418.804 377.446 418.828 380.498 418.541C381.474 418.451 382.451 418.382 383.43 418.335C386.182 425.166 389.152 430.484 396.058 433.824C401.009 436.734 402.312 436.591 408.108 436.509C413.938 435.411 415.43 434.639 419.477 430.628C421.325 428.054 423.376 424.569 425.09 421.823L423.736 420.405L424.019 419.071C425.723 418.568 425.615 418.382 426.172 416.95Z"/><path fill="#412810" transform="scale(0.195312 0.195312)" d="M426.172 416.95C428.961 418.893 432.392 415.573 435.116 422.543C436.511 422.802 435.887 422.663 437.186 423.738C437.824 422.098 438.102 421.758 439.06 420.349C437.129 430.286 433.677 437.043 426.224 443.895L425.198 444.176L423.9 443.717C424.096 442.042 425.72 440.406 426.829 439.004C428.805 436.791 430.538 435.078 431.98 432.478C433.33 429.177 432.835 427.61 433.574 424.146C430.834 423.119 427.723 420.758 425.09 421.823L423.736 420.405L424.019 419.071C425.723 418.568 425.615 418.382 426.172 416.95Z"/><path fill="#A76B36" transform="scale(0.195312 0.195312)" d="M419.477 430.628C420.431 432.922 419.664 433.611 418.509 435.768C414.456 436.836 411.485 438.367 408.108 436.509C413.938 435.411 415.43 434.639 419.477 430.628Z"/><path fill="#643A16" transform="scale(0.195312 0.195312)" d="M426.829 439.004C425.599 437.248 425.061 434.472 426.782 432.964C427.441 433.407 427.801 433.675 428.437 434.183L429.044 434.674C430.283 434.061 430.912 433.381 431.98 432.478C430.538 435.078 428.805 436.791 426.829 439.004Z"/><path fill="#F8F8F8" transform="scale(0.195312 0.195312)" d="M350.979 405.688C357.032 398.393 363.907 394.055 372.719 390.647L372.521 391.457C371.793 394.322 369.763 398.137 369.28 401.002C367.4 412.141 368.357 423.835 374.247 433.7C375.536 435.859 379.074 440.914 380.961 442.097C382.621 443.975 382.898 444.171 385.097 445.382C380.367 446.102 371.281 442.255 366.899 440.227C361.298 437.635 354.313 430.791 352.456 424.93C352.718 424.331 351.129 407.995 350.979 405.688Z"/><defs><linearGradient id="gradient_1" gradientUnits="userSpaceOnUse" x1="450.18329" y1="433.84961" x2="427.99664" y2="413.74921"><stop offset="0" stop-color="#FBFBE4"/><stop offset="1" stop-color="#F6F5F5"/></linearGradient></defs><path fill="url(#gradient_1)" transform="scale(0.195312 0.195312)" d="M436.802 394.367L436.836 393.065C439.857 392.183 441.1 394.38 444.489 394.854C450.114 401.388 453.072 410.339 453.301 419.414C453.31 419.774 453.035 420.133 452.833 420.443C454.014 433.646 452.032 438.048 438.29 441.485C434.623 442.403 430.056 444.429 426.224 443.895C433.677 437.043 437.129 430.286 439.06 420.349C441.775 415.142 439.524 404.257 439.361 398.873L439.34 398.047C438.912 396.868 437.633 395.435 436.802 394.367Z"/><path fill="#090907" transform="scale(0.195312 0.195312)" d="M436.802 394.367L436.836 393.065C439.857 392.183 441.1 394.38 444.489 394.854C450.114 401.388 453.072 410.339 453.301 419.414C453.31 419.774 453.035 420.133 452.833 420.443C449.748 409.268 447.075 406.458 439.34 398.047C438.912 396.868 437.633 395.435 436.802 394.367Z"/><path fill="#301D08" transform="scale(0.195312 0.195312)" d="M425.863 393.553C433.45 391.607 432.858 395.009 436.465 394.156L436.802 394.367C437.633 395.435 438.912 396.868 439.34 398.047L439.361 398.873C439.524 404.257 441.775 415.142 439.06 420.349C438.102 421.758 437.824 422.098 437.186 423.738C435.887 422.663 436.511 422.802 435.116 422.543C432.392 415.573 428.961 418.893 426.172 416.95C428.278 410.264 429.906 399.642 425.863 393.553Z"/><path fill="#301D08" transform="scale(0.195312 0.195312)" d="M403.96 433.991C407.736 433.443 411.192 433.895 414.344 433.414C419.056 432.696 417.486 426.838 419.072 424.494C421.99 423.407 422.146 423.257 422.785 420.152L422.896 419.585L424.019 419.071L423.736 420.405L425.09 421.823C423.376 424.569 421.325 428.054 419.477 430.628C415.43 434.639 413.938 435.411 408.108 436.509C402.312 436.591 401.009 436.734 396.058 433.824L395.28 431.901C398.847 431.045 400.577 432.39 403.96 433.991Z"/><path fill="#301D08" transform="scale(0.195312 0.195312)" d="M376.642 433.077C374.952 431.562 373.427 428.414 372.264 426.48C369.733 422.273 374.602 419.606 375.3 416.867C376.144 413.553 376.159 411.359 377.527 407.747L377.806 407.855C377.276 411.355 376.917 414.095 376.663 417.617C378.72 417.812 380.693 418.087 382.339 416.933C382.063 413.057 381.713 409.157 381.804 405.274C382.046 407.685 382.552 415.608 383.562 417.439C388.173 419.089 387.176 421.095 389.868 425.098C391.51 427.538 393.355 429.69 395.28 431.901L396.058 433.824C389.152 430.484 386.182 425.166 383.43 418.335C382.451 418.382 381.474 418.451 380.498 418.541C377.446 418.828 375.138 418.804 373.152 421.206C372.039 424.616 375.045 429.475 376.642 433.077Z"/><path fill="#22210F" transform="scale(0.195312 0.195312)" d="M423.095 386.469C425.46 388.855 426.847 391.158 430.507 391.36C431.34 391.406 435.754 393.622 436.465 394.156C432.858 395.009 433.45 391.607 425.863 393.553C424.298 392.089 423.607 388.573 423.095 386.469Z"/><path fill="#F8F8F8" transform="scale(0.195312 0.195312)" d="M389.615 390.49C400.768 390.136 400.055 400.368 392.55 406.103C382.856 408.397 380.248 396.557 389.615 390.49Z"/><path fill="#22210F" transform="scale(0.195312 0.195312)" d="M385.996 387.022C386.4 387.404 386.316 387.556 386.531 388.238C385.943 389.858 384.079 391.388 382.789 392.658C382.162 391.597 382.346 391.979 382.079 390.743C382.555 389.393 384.774 388.071 385.996 387.022Z"/><path fill="#CF9E66" transform="scale(0.195312 0.195312)" d="M452.506 542.805C448.743 541.561 447.911 543.796 445.294 543.041C443.565 540.974 444.351 538.65 445.851 536.679L446.763 536.412C447.999 537.279 448.146 537.705 448.991 538.956C452.44 539.968 456.215 539.777 459.77 539.943C472.908 540.526 485.948 538.771 499.049 538.214C502.273 538.077 511.027 540.734 512.971 540.219C529.248 535.905 545.074 540.496 561.567 540.355C566.258 540.314 573.001 540.253 577.517 538.745C577.964 538.567 579.093 537.371 579.462 536.98L580.422 536.811C582.485 538.31 583.489 540.065 582.116 542.4C578.192 543.83 578.424 540.443 572.919 543.302C572.419 544.247 571.766 545 570.995 545.735C534.713 580.364 487.733 577.317 452.395 543.72L452.506 542.805Z"/><path fill="#B57941" transform="scale(0.195312 0.195312)" d="M452.506 542.805C448.743 541.561 447.911 543.796 445.294 543.041C443.565 540.974 444.351 538.65 445.851 536.679L446.763 536.412C447.999 537.279 448.146 537.705 448.991 538.956C452.44 539.968 456.215 539.777 459.77 539.943C472.908 540.526 485.948 538.771 499.049 538.214C502.273 538.077 511.027 540.734 512.971 540.219C529.248 535.905 545.074 540.496 561.567 540.355C566.258 540.314 573.001 540.253 577.517 538.745C577.964 538.567 579.093 537.371 579.462 536.98L580.422 536.811C582.485 538.31 583.489 540.065 582.116 542.4C578.192 543.83 578.424 540.443 572.919 543.302C566.655 544.21 560.543 546.145 554.179 547.001C527.133 550.639 499.381 552.11 472.429 546.945C465.769 545.669 459.132 544.196 452.506 542.805Z"/><path fill="#301D08" transform="scale(0.195312 0.195312)" d="M384.786 322.719C393.349 322.311 407.761 324.393 416.95 327.3C431.361 332.181 452.473 335.467 462.425 347.657C465.016 351.362 464.479 361.844 459.394 363.032C450.368 365.14 432.832 356.261 424.377 352.8C386.765 338.337 377.165 338.719 339.152 350.676C348.03 335.825 367.307 323.564 384.786 322.719Z"/><path fill="#301D08" transform="scale(0.195312 0.195312)" d="M632.628 323.197C639.826 322.091 648.95 322.737 655.869 325.192C664.642 328.304 683.057 340.516 686.967 348.768L686.733 349.415C682.182 349.352 673.173 345.587 668.273 344.365C645.637 338.72 631.477 342.297 610.621 349.71C600.778 353.225 591.314 357.736 581.469 361.253C577.664 362.613 570.422 365.424 566.658 363.137C564.364 361.742 562.78 358.365 562.381 355.809C561.834 352.304 563.172 348.871 565.301 346.127C573.782 335.191 617.772 324.748 632.628 323.197Z"/><path fill="#A76B36" transform="scale(0.195312 0.195312)" d="M518.851 495.943C523.568 496.016 537.673 495.15 540.8 496.738L541.363 497.707C540.975 499.119 541.135 498.81 540.444 500.075C536.987 508.712 526.26 518.002 517.997 522.522C517.249 522.931 513.211 523.509 512.137 523.667C502.737 519.93 491.257 510.55 487.244 501.159C486.474 499.179 486.321 498.956 486.194 496.882C488.142 495.396 504.392 495.958 508.097 495.942C511.483 495.96 515.524 496.082 518.851 495.943Z"/><path fill="#B57941" transform="scale(0.195312 0.195312)" d="M487.244 501.159C491.965 501.053 498.994 507.372 503.64 509.921C520.142 518.973 527.499 503.52 540.444 500.075C536.987 508.712 526.26 518.002 517.997 522.522C517.249 522.931 513.211 523.509 512.137 523.667C502.737 519.93 491.257 510.55 487.244 501.159Z"/><path fill="#CF9E66" transform="scale(0.195312 0.195312)" d="M498.494 492.056C494.303 483.501 494.655 474.412 504.269 470.029C510.038 467.417 516.611 467.216 522.528 469.472C535.437 474.484 533.721 491.904 522.219 495.155C521.107 495.463 519.984 495.725 518.851 495.943C515.524 496.082 511.483 495.96 508.097 495.942C503.676 495.329 502.284 494.465 498.494 492.056Z"/><path fill="#DAD9D9" transform="scale(0.195312 0.195312)" d="M456.555 640.87L458.126 639.65C459.574 645.599 459.542 653.826 463.343 656.966C464.779 654.324 464.118 652.236 463.881 648.883C491.154 662.062 518.876 664.3 547.851 654.872C553.747 652.953 558.438 651.739 564.234 649.047C564.455 651.116 564.419 652.939 564.418 655.004C565.971 656.182 565.202 656.073 566.72 656.006C569.246 653.524 567.322 649.095 568.929 645.339L570.26 647.886C573.348 649.35 576.992 650.87 578.098 654.428C579.574 654.12 581.257 652.985 582.617 652.19C597.135 653.087 631.38 675.381 638.716 687.106C646.24 689.653 653.995 693.062 661.288 696.27C677.982 703.613 695.236 709.912 711.426 718.297C719.774 722.62 724.221 731.865 728.248 739.999L767.975 821.967C781.249 849.435 795.324 876.867 805.573 905.605C812.768 926.584 823.508 950.192 815.845 972.463C808.731 993.142 789.304 1003.77 770.854 1012.9C761.975 1017.29 752.272 1019.88 743.555 1024L647.711 1024L642.239 1024L546.273 1024L492.718 1024L386.128 1024L380.769 1024L368.505 1024L362.684 1024L310.922 1024L285.669 1024C242.58 1011.19 196.861 986.288 213.189 933.85C235.249 863.001 273.743 797.942 305.528 731.127C311.385 718.815 325.885 713.887 337.877 708.685L375.188 692.934C379.897 690.942 384.781 688.923 389.496 686.976C392.724 685.112 395.121 681.268 398.038 678.949C408.861 670.344 419.75 661.535 432.561 656.05C436.711 654.273 441.864 653.127 445.69 650.853C449.789 645.402 450.829 644.791 456.555 640.87ZM335.077 931.537C336.911 932.229 338.712 932.944 340.588 933.51L347.044 936.552C346.851 932.633 346.022 911.287 344.243 909.367C340.715 916.542 337.684 926.429 335.077 931.537Z"/><path fill="#F8F8F8" transform="scale(0.195312 0.195312)" d="M215.892 957.774C215.68 917.706 262.514 831.262 281.061 793.138C286.246 782.57 291.377 771.976 296.453 761.355C300.226 753.3 303.65 745.037 307.934 737.236C309.934 733.594 312.005 729.85 315.192 727.11C326.98 716.975 370.103 700.812 387.197 694.171C383.949 701.091 368.096 741.313 367.073 747.157C374.3 751.999 394.376 759.917 402.646 761.572C401.411 763.19 399.807 764.493 398.441 766.003C392.705 772.349 386.856 778.241 380.688 784.161C377.395 787.321 373.806 790.439 371.045 794.091C370.557 794.736 369.736 795.801 369.591 796.623C368.288 804.019 409.793 874.311 416.945 886.2L434.683 915.293C441.07 925.763 448.72 936.942 450.403 948.992C450.565 950.149 449.212 950.955 448.428 951.698C436.876 956.25 426.287 962.173 415.615 968.437C410.678 971.542 407.841 974.541 404.596 979.47C396.522 991.922 388.922 1009.45 386.128 1024L380.769 1024L368.505 1024L362.684 1024L310.922 1024C306.611 1021.22 297.109 1020.51 291.885 1018.91C263.708 1010.25 216.579 993.076 215.892 957.774ZM335.077 931.537C336.911 932.229 338.712 932.944 340.588 933.51L347.044 936.552C346.851 932.633 346.022 911.287 344.243 909.367C340.715 916.542 337.684 926.429 335.077 931.537Z"/><path fill="#DAD9D9" transform="scale(0.195312 0.195312)" d="M328.921 756.466C340.381 780.275 342.603 820.86 344.822 847.737L348.574 890.231C349.879 906.482 352.564 923.218 352.659 939.401C368.684 948.046 381.44 952.995 397.189 960.735C403.091 962.785 409.848 965.848 415.615 968.437C410.678 971.542 407.841 974.541 404.596 979.47C396.522 991.922 388.922 1009.45 386.128 1024L380.769 1024L368.505 1024L362.684 1024C362.865 1022.12 362.875 1020.7 362.886 1018.8C364.841 999.863 374.445 976.282 387.14 962.019C378.009 958.773 369.431 954.172 360.737 949.898L323.401 931.689C299.782 920.364 290.974 916.484 264.568 918.226L262.839 917.849L262.59 917.148C263.761 916.366 264.02 916.294 265.438 915.897C288.66 909.378 310.15 917.092 330.254 928.523C333.99 918.717 339.194 907.308 342.133 897.394C342.961 894.602 341.684 880.044 341.377 876.384C339.597 855.171 339.163 832.017 335.066 811.246C334.2 793.018 329.004 773.447 328.921 756.466ZM335.077 931.537C336.911 932.229 338.712 932.944 340.588 933.51L347.044 936.552C346.851 932.633 346.022 911.287 344.243 909.367C340.715 916.542 337.684 926.429 335.077 931.537Z"/><path fill="#F8F8F8" transform="scale(0.195312 0.195312)" d="M397.189 960.735C403.091 962.785 409.848 965.848 415.615 968.437C410.678 971.542 407.841 974.541 404.596 979.47C396.522 991.922 388.922 1009.45 386.128 1024L380.769 1024L368.505 1024C371.17 1004.53 374.958 988.294 386.823 971.958C388.051 970.267 390.957 966.313 392.397 965.212L392.684 964.161C394.349 962.21 394.914 961.987 397.189 960.735Z"/><path fill="#A6A5A5" transform="scale(0.195312 0.195312)" d="M397.189 960.735C403.091 962.785 409.848 965.848 415.615 968.437C410.678 971.542 407.841 974.541 404.596 979.47C396.522 991.922 388.922 1009.45 386.128 1024L380.769 1024C381.364 1011.43 390.177 992.215 396.918 981.221C398.688 978.334 403.163 973.029 405.49 970.219C401.073 967.977 397.104 966.681 392.397 965.212L392.684 964.161C394.349 962.21 394.914 961.987 397.189 960.735Z"/><path fill="#E4E3E3" transform="scale(0.195312 0.195312)" d="M335.066 811.246C339.163 832.017 339.597 855.171 341.377 876.384C341.684 880.044 342.961 894.602 342.133 897.394C339.194 907.308 333.99 918.717 330.254 928.523C310.15 917.092 288.66 909.378 265.438 915.897C264.02 916.294 263.761 916.366 262.59 917.148L262.839 917.849L264.568 918.226C262.554 918.583 254.869 918.556 252.408 918.599C268.881 904.19 292.115 906.452 311.814 911.776C314.835 912.592 318.479 913.351 321.197 914.879C323.167 915.987 322.508 916.391 324.49 915.151C325.79 908.014 304.553 894.447 298.53 891.874C296.292 890.918 279.222 883.139 278.716 882.382C284.969 879.348 313.112 891.591 320.638 892.849C322.512 893.162 322.307 895.225 324.959 895.453L325.397 894.834C325.502 877.88 319.774 866.655 315.916 850.665C321.456 856.329 326.041 862.871 330.705 869.268C335.794 850.473 334.225 830.835 335.066 811.246Z"/><path fill="#E4E3E3" transform="scale(0.195312 0.195312)" d="M215.892 957.774C221.097 957.625 219.02 961.488 221.724 965.108C240.516 990.272 273.763 1000.57 302.917 1007.87C316.879 1011.36 328.71 1014.17 342.801 1016.36C349.424 1017.4 356.551 1017.8 362.886 1018.8C362.875 1020.7 362.865 1022.12 362.684 1024L310.922 1024C306.611 1021.22 297.109 1020.51 291.885 1018.91C263.708 1010.25 216.579 993.076 215.892 957.774Z"/><path fill="#F8F8F8" transform="scale(0.195312 0.195312)" d="M661.35 745.578C657.827 734.627 653.053 723.62 648.936 712.869C647.347 708.719 643.203 699.45 642.556 695.613C644.255 694.956 646.013 695.733 647.678 696.537C653.026 699.12 658.424 700.715 663.935 702.934C674.036 707.011 684.055 711.29 693.985 715.768C700.406 718.657 707.647 721.301 713.021 725.956C721.602 733.389 736.845 770.846 743.014 783.464C761.737 821.76 782.115 859.39 797.506 899.213C805.324 919.442 818.988 951.046 809.802 971.953C801.165 991.606 777.004 1004.08 757.922 1011.33C748.66 1014.85 739.134 1017.41 729.586 1020.01C727.225 1020.65 724.903 1021.83 722.538 1022.31C718.747 1023.08 669.273 1022.86 667.276 1022.02C667.144 1021.97 667.027 1021.88 666.902 1021.82L666.822 1020.98L668.099 1020.06L666.53 1019.97C664.782 1016.15 663.935 1008.11 662.817 1003.7C659.357 990.072 651.006 973.004 641.681 962.721C660.125 955.607 678.86 945.022 696.559 935.965C720.677 923.624 733.03 917 760.477 918.067L768.432 918.04C755.556 911.218 732.837 913.27 719.539 918.692C714.999 920.543 702.491 926.521 698.985 927.471L698.283 927.048C697.035 924.99 685.245 898.556 685.314 897.173C686.458 874.079 690.6 831.984 693.251 810.431C695.466 794.401 700.428 770.185 700.963 755.063C686.655 782.083 684.246 844.056 681.316 875.731C679.462 895.773 677.039 919.642 675.883 939.587C667.306 945.811 651.837 951.786 642.185 956.585C639.786 957.778 633.295 960.267 631.494 961.624C625.806 963.723 618.841 966.048 613.7 969.067C600.313 961.083 592.204 956.738 577.911 950.437C578.673 948.043 579.251 940.511 579.795 939.563C591.212 919.652 603.762 900.298 615.452 880.518C616.578 878.612 624.069 865.226 625.204 864.854C633.696 862.076 663.66 865.036 670.057 861.56C671.092 858.396 671.386 849.798 671.587 846.203C662.152 844.509 651.021 846.553 641.843 845.192C649.079 831.768 660.135 812.875 659.943 797.597C659.971 797.098 659.991 796.995 659.95 796.454C659.685 792.909 635.671 771.886 631.366 768.172C632.305 767.667 632.71 767.507 633.704 767.173C640.198 764.992 663.699 753.715 661.35 745.578Z"/><path fill="#E4E3E3" transform="scale(0.195312 0.195312)" d="M768.432 918.04C755.556 911.218 732.837 913.27 719.539 918.692C714.999 920.543 702.491 926.521 698.985 927.471L698.283 927.048C697.035 924.99 685.245 898.556 685.314 897.173C686.458 874.079 690.6 831.984 693.251 810.431C694.996 814.264 693.726 845.078 694.53 852.547C695.082 857.672 697.147 866.725 697.434 870.881C700.254 864.721 707.309 856.646 712.403 852.223C709.865 860.413 702.164 886.874 703.704 894.591C704.122 894.984 704.494 895.588 705.045 895.318C720.173 887.921 733.471 883.391 750.696 882.178C737.272 889.597 709.685 899.427 704.451 914.851L705.244 914.732C711.29 913.785 716.701 911.258 722.414 910.22C739.968 907.03 761.535 904.482 775.241 918.477C771.271 918.48 764.152 918.695 760.477 918.067L768.432 918.04Z"/><path fill="#1A1916" transform="scale(0.195312 0.195312)" d="M577.911 950.437C592.204 956.738 600.313 961.083 613.7 969.067C617.849 971.627 619.615 973.619 622.828 977.308C623.76 978.741 625.063 980.614 625.86 982.069C633.52 993.833 639.454 1010.27 642.239 1024L546.273 1024L492.718 1024L386.128 1024C388.922 1009.45 396.522 991.922 404.596 979.47C407.841 974.541 410.678 971.542 415.615 968.437C426.287 962.173 436.876 956.25 448.428 951.698L451.436 950.943C451.856 952.863 451.957 953.44 452.727 955.217C454.157 958.958 455.775 964.452 458.834 966.846C460.121 967.115 460.569 967.154 461.887 967.237L465.097 966.921L472.232 967.062C474.266 967.196 477.621 967.52 479.556 967.451C489.173 968.984 493.253 970.213 502.231 974.001C509.482 977.876 512.681 980.048 517.972 986.306C526.694 976.914 534.611 973.516 547.019 970.219C549.313 969.823 553.907 969.365 555.828 968.69L563.077 968.094C566.01 968.033 567.407 967.815 570.229 967.35C572.371 963.785 573.764 959.983 575.261 956.118C575.998 953.967 576.488 952.567 577.435 950.513L577.911 950.437Z"/><path fill="#1A1916" transform="scale(0.195312 0.195312)" d="M577.911 950.437C592.204 956.738 600.313 961.083 613.7 969.067C617.849 971.627 619.615 973.619 622.828 977.308C623.76 978.741 625.063 980.614 625.86 982.069C633.52 993.833 639.454 1010.27 642.239 1024L546.273 1024C553.002 1021.81 561.137 1021.07 568.066 1019.38C572.458 1018.31 577.281 1019.39 579.392 1014.78C579.368 1013.1 579.655 1013.79 578.651 1012.59C574.792 1011.23 533.87 1021.62 524.633 1021.19C525.009 1019.75 526.048 1016.05 526.242 1014.88C526.595 1012.73 523.592 1010.91 523.496 1007.96C525.714 1002.69 553.355 997.747 559.623 996.302C563.376 995.436 579.23 995.823 579.89 992.357C574.198 984.191 532.571 999.453 522.872 996.919C521.42 995.924 521.103 994.45 520.419 992.749C524.571 985.691 529.234 983.309 536.355 979.924C550.295 973.296 564.768 972.72 579.896 973.64C584.355 973.911 590.165 974.617 594.493 974.212L594.939 973.626C591.927 969.544 575.549 967.396 570.229 967.35C572.371 963.785 573.764 959.983 575.261 956.118C575.998 953.967 576.488 952.567 577.435 950.513L577.911 950.437Z"/><path fill="#090907" transform="scale(0.195312 0.195312)" d="M577.911 950.437C592.204 956.738 600.313 961.083 613.7 969.067C617.849 971.627 619.615 973.619 622.828 977.308C623.76 978.741 625.063 980.614 625.86 982.069L625.231 982.414C623.047 982.51 616.81 978.207 614.53 976.84C601.817 969.219 589.406 960.854 575.261 956.118C575.998 953.967 576.488 952.567 577.435 950.513L577.911 950.437Z"/><path fill="#090907" transform="scale(0.195312 0.195312)" d="M465.097 966.921L472.232 967.062C474.266 967.196 477.621 967.52 479.556 967.451C489.173 968.984 493.253 970.213 502.231 974.001C509.482 977.876 512.681 980.048 517.972 986.306C526.694 976.914 534.611 973.516 547.019 970.219C549.313 969.823 553.907 969.365 555.828 968.69L563.077 968.094C566.01 968.033 567.407 967.815 570.229 967.35C575.549 967.396 591.927 969.544 594.939 973.626L594.493 974.212C590.165 974.617 584.355 973.911 579.896 973.64C564.768 972.72 550.295 973.296 536.355 979.924C529.234 983.309 524.571 985.691 520.419 992.749C521.103 994.45 521.42 995.924 522.872 996.919C532.571 999.453 574.198 984.191 579.89 992.357C579.23 995.823 563.376 995.436 559.623 996.302C553.355 997.747 525.714 1002.69 523.496 1007.96C523.592 1010.91 526.595 1012.73 526.242 1014.88C526.048 1016.05 525.009 1019.75 524.633 1021.19C533.87 1021.62 574.792 1011.23 578.651 1012.59C579.655 1013.79 579.368 1013.1 579.392 1014.78C577.281 1019.39 572.458 1018.31 568.066 1019.38C561.137 1021.07 553.002 1021.81 546.273 1024L492.718 1024C483.232 1020.28 467.026 1019.72 456.767 1017.01C455.771 1016.75 455.57 1017.09 454.102 1016.49C453.32 1015.07 453.6 1015.37 453.786 1013.41C457.738 1009.51 508.544 1021.88 516.606 1020.49C520.831 1017.52 521.074 1015.01 519.051 1011.06C516.775 1006.61 508.022 1005.1 506.319 1003.66C499.524 997.916 453.305 994.999 451.372 992.028C452.227 992.149 452.319 992.136 453.174 992.137L454.264 990.545C461.853 986.728 495.182 994.292 505.33 995.726C518.267 997.554 514.142 986.877 506.538 982.485C489.755 972.791 472.032 971.911 453.213 973.133C449.4 973.381 440.944 975.507 438.246 973.003L438.463 972.083C441.807 968.997 451.277 968.397 455.825 967.641C457.79 967.314 459.733 968.025 461.887 967.237L465.097 966.921Z"/><path fill="#090907" transform="scale(0.195312 0.195312)" d="M451.436 950.943C451.856 952.863 451.957 953.44 452.727 955.217C448.968 958.096 434.181 964.849 428.64 967.91C422.96 971.047 411.375 979.224 406.842 981.257C405.496 980.631 405.586 980.61 404.596 979.47C407.841 974.541 410.678 971.542 415.615 968.437C426.287 962.173 436.876 956.25 448.428 951.698L451.436 950.943Z"/><path fill="#BCBBBB" transform="scale(0.195312 0.195312)" d="M509.787 871.632C514.88 871.405 519.93 871.155 524.954 872.169C543.185 876.542 552.781 882.169 565.112 896.114C568.677 901.267 572.73 907.244 574.711 913.253C576.75 918.683 577.437 921.75 578.25 927.513C578.855 935.217 578.666 941.449 577.405 949.131C577.265 949.981 577.282 949.691 577.435 950.513C576.488 952.567 575.998 953.967 575.261 956.118C573.764 959.983 572.371 963.785 570.229 967.35C567.407 967.815 566.01 968.033 563.077 968.094L555.828 968.69C553.907 969.365 549.313 969.823 547.019 970.219C534.611 973.516 526.694 976.914 517.972 986.306C512.681 980.048 509.482 977.876 502.231 974.001C493.253 970.213 489.173 968.984 479.556 967.451C477.621 967.52 474.266 967.196 472.232 967.062L465.097 966.921L461.887 967.237C460.569 967.154 460.121 967.115 458.834 966.846C455.775 964.452 454.157 958.958 452.727 955.217C451.957 953.44 451.856 952.863 451.436 950.943C451.471 950.142 450.5 944.591 450.314 943.359C449.372 937.147 449.646 933.79 450.286 927.574C451.209 921.717 451.818 918.924 453.889 913.396C456.703 906.416 458.137 903.914 462.357 897.614L463.702 895.967C474.309 883.697 482.57 878.585 497.881 873.503C499.716 873.046 502.596 872.626 504.534 872.278L509.787 871.632Z"/><path fill="#717070" transform="scale(0.195312 0.195312)" d="M509.787 871.632C514.88 871.405 519.93 871.155 524.954 872.169C543.185 876.542 552.781 882.169 565.112 896.114C568.677 901.267 572.73 907.244 574.711 913.253C576.75 918.683 577.437 921.75 578.25 927.513C578.855 935.217 578.666 941.449 577.405 949.131C577.265 949.981 577.282 949.691 577.435 950.513C576.488 952.567 575.998 953.967 575.261 956.118C573.764 959.983 572.371 963.785 570.229 967.35C567.407 967.815 566.01 968.033 563.077 968.094L555.828 968.69C553.907 969.365 549.313 969.823 547.019 970.219C560.28 954.182 566.417 937.927 558.156 917.365C554.441 908.12 544.948 896.959 535.593 893.151C520.317 885.545 499.418 886.927 485.839 897.593C463.813 914.893 460.147 946.563 479.556 967.451C477.621 967.52 474.266 967.196 472.232 967.062L465.097 966.921L461.887 967.237C460.569 967.154 460.121 967.115 458.834 966.846C455.775 964.452 454.157 958.958 452.727 955.217C451.957 953.44 451.856 952.863 451.436 950.943C451.471 950.142 450.5 944.591 450.314 943.359C449.372 937.147 449.646 933.79 450.286 927.574C451.209 921.717 451.818 918.924 453.889 913.396C456.703 906.416 458.137 903.914 462.357 897.614L463.702 895.967C474.309 883.697 482.57 878.585 497.881 873.503C499.716 873.046 502.596 872.626 504.534 872.278L509.787 871.632Z"/><path fill="#717070" transform="scale(0.195312 0.195312)" d="M482.73 893.877C510.302 874.149 538.537 882.289 558.514 907.583C569.211 926.035 570.399 945.357 558.549 963.162C557.623 964.553 555.776 966.789 555.243 968.199L555.828 968.69C553.907 969.365 549.313 969.823 547.019 970.219C560.28 954.182 566.417 937.927 558.156 917.365C554.441 908.12 544.948 896.959 535.593 893.151C520.317 885.545 499.418 886.927 485.839 897.593C463.813 914.893 460.147 946.563 479.556 967.451C477.621 967.52 474.266 967.196 472.232 967.062L465.097 966.921C450.306 951.984 453.685 921.733 464.111 905.048C466.597 900.882 469.425 897.68 472.635 894.075C472.896 895.969 472.573 895.689 473.609 896.953C476.843 896.807 478.173 891.616 482.73 893.877Z"/><path fill="#BCBBBB" transform="scale(0.195312 0.195312)" d="M464.111 905.048C465.096 906.631 465.293 907.044 465.801 908.833C467.186 909.975 466.397 909.517 468.481 909.847C458.607 929.946 459.21 948.481 472.232 967.062L465.097 966.921C450.306 951.984 453.685 921.733 464.111 905.048Z"/><path fill="#E4E3E3" transform="scale(0.195312 0.195312)" d="M472.635 894.075C472.896 895.969 472.573 895.689 473.609 896.953C476.843 896.807 478.173 891.616 482.73 893.877C475.486 899.781 473.589 902.031 468.481 909.847C466.397 909.517 467.186 909.975 465.801 908.833C465.293 907.044 465.096 906.631 464.111 905.048C466.597 900.882 469.425 897.68 472.635 894.075Z"/><defs><linearGradient id="gradient_2" gradientUnits="userSpaceOnUse" x1="539.40515" y1="921.87921" x2="493.83356" y2="874.43109"><stop offset="0" stop-color="#BBBABB"/><stop offset="1" stop-color="#EBEBEB"/></linearGradient></defs><path fill="url(#gradient_2)" transform="scale(0.195312 0.195312)" d="M487.396 883.622C490.892 881.289 494.858 880.218 498.828 879.064C522.255 872.253 545.606 881.443 560.839 899.66C558.352 900.528 558.602 899.988 557.537 901.739C557.498 903.757 557.798 904.952 558.532 906.812L558.514 907.583C538.537 882.289 510.302 874.149 482.73 893.877C478.173 891.616 476.843 896.807 473.609 896.953C472.573 895.689 472.896 895.969 472.635 894.075C475.489 891.303 476.794 890.05 480.023 887.804C483.012 885.781 484.125 885.12 487.396 883.622Z"/><path fill="#F8F8F8" transform="scale(0.195312 0.195312)" d="M480.023 887.804C483.012 885.781 484.125 885.12 487.396 883.622C488.473 886.568 486.825 889.112 484.211 890.521C481.705 890.604 481.053 890.296 480.023 887.804Z"/><path fill="#BCBBBB" transform="scale(0.195312 0.195312)" d="M558.532 906.812C563.386 907.277 561.952 910.601 564.977 911.858C566.491 911.675 566.426 911.631 567.798 910.912C574.329 922.259 574.162 938.815 570.972 951.228C569.111 958.468 565.913 962.152 563.077 968.094L555.828 968.69L555.243 968.199C555.776 966.789 557.623 964.553 558.549 963.162C570.399 945.357 569.211 926.035 558.514 907.583L558.532 906.812Z"/><path fill="#E4E3E3" transform="scale(0.195312 0.195312)" d="M558.532 906.812C557.798 904.952 557.498 903.757 557.537 901.739C558.602 899.988 558.352 900.528 560.839 899.66C563.174 902.93 566.227 907.194 567.798 910.912C566.426 911.631 566.491 911.675 564.977 911.858C561.952 910.601 563.386 907.277 558.532 906.812Z"/><path fill="#A6A5A5" transform="scale(0.195312 0.195312)" d="M535.593 893.151C544.948 896.959 554.441 908.12 558.156 917.365C566.417 937.927 560.28 954.182 547.019 970.219C534.611 973.516 526.694 976.914 517.972 986.306C512.681 980.048 509.482 977.876 502.231 974.001C504.727 973.612 504.396 973.25 506.221 974.168L505.067 974.004C510.6 976.896 513.669 982.761 519.465 983.107C521.47 982.426 522.591 979.59 525.136 978.064C529.364 975.528 534.247 973.794 538.652 971.395C539.655 970.847 544.974 970.262 545.581 969.703C563.122 953.543 566.137 927.151 551.572 907.939C550.345 906.321 549.548 904.695 548.11 903.637C547.828 905.164 548.081 904.811 547.316 906.015L546.404 905.26C546.076 903.57 546.095 903.414 545.356 901.787C543.038 900.443 541.3 901.632 539.657 900.864C537.517 899.863 539.878 898.256 538.761 895.651C536.925 894.818 536.738 894.79 535.593 893.151Z"/><path fill="#F8F8F8" transform="scale(0.195312 0.195312)" d="M500.197 898.651C522.176 900.767 494.277 924.669 486.888 928.157C474.655 928.144 477.737 915.893 482.84 909.318C488.095 902.544 491.877 900.031 500.197 898.651Z"/><path fill="#F8F8F8" transform="scale(0.195312 0.195312)" d="M515.265 896.498C522.097 896.324 523.557 900.375 518.793 905.107C512.243 905.627 511.262 900.606 515.265 896.498Z"/><path fill="#F8F8F8" transform="scale(0.195312 0.195312)" d="M479.023 932.024C481.146 931.708 483.15 933.095 483.601 935.194C484.052 937.292 482.795 939.38 480.729 939.964C479.27 940.376 477.704 939.943 476.664 938.841C475.624 937.739 475.282 936.15 475.778 934.718C476.273 933.286 477.524 932.248 479.023 932.024Z"/><path fill="#F8F8F8" transform="scale(0.195312 0.195312)" d="M574.711 913.253C576.229 905.752 578.368 898.83 579.841 891.019C586.77 854.334 591.179 817.218 593.037 779.93C594.968 742.636 596.101 699.569 584.786 663.238C584.301 661.681 583.324 660.348 583.711 658.848C591.605 656.09 628.443 681.209 631.345 686.889C638.764 701.41 647.591 722.818 652.869 738.282C653.532 740.229 654.119 742.201 654.631 744.193C647.512 746.917 620.444 756.667 615.119 760.216C626.969 772.707 641.523 784.406 653.817 797.037C631.249 842.806 605.422 883.557 579.277 927.176L578.25 927.513C577.437 921.75 576.75 918.683 574.711 913.253Z"/><path fill="#F8F8F8" transform="scale(0.195312 0.195312)" d="M373.875 744.078C378.274 730.43 389.522 703.142 395.261 690.635C401.211 677.668 431.4 661.292 445.461 657.323C438.699 680.871 435.885 696.166 435.01 720.744C433.664 758.518 434.95 795.671 440.531 833.125C442.432 845.884 443.852 858.673 445.98 871.395C448.275 885.488 449.826 899.708 453.889 913.396C451.818 918.924 451.209 921.717 450.286 927.574C445.761 924.369 380.575 809.534 375.025 797.897C380.646 791.453 409.742 765.593 412.152 760.376C410.664 757.219 378.973 745.989 373.875 744.078Z"/><defs><linearGradient id="gradient_3" gradientUnits="userSpaceOnUse" x1="476.69516" y1="791.2251" x2="515.98486" y2="640.64526"><stop offset="0" stop-color="#9E9FA4"/><stop offset="1" stop-color="#B2AEA4"/></linearGradient></defs><path fill="url(#gradient_3)" transform="scale(0.195312 0.195312)" d="M456.555 640.87L458.126 639.65C459.574 645.599 459.542 653.826 463.343 656.966C464.779 654.324 464.118 652.236 463.881 648.883C491.154 662.062 518.876 664.3 547.851 654.872C553.747 652.953 558.438 651.739 564.234 649.047C564.455 651.116 564.419 652.939 564.418 655.004C565.971 656.182 565.202 656.073 566.72 656.006C569.246 653.524 567.322 649.095 568.929 645.339L570.26 647.886C573.348 649.35 576.992 650.87 578.098 654.428C577.418 656.76 577.665 658.051 577.322 659.409C577.239 659.555 577.158 659.702 577.071 659.846C573.922 665.054 568.496 668.713 564.831 673.563C561.103 678.494 559.869 701.208 558.725 708.736C556.135 710.473 555.233 710.751 552.661 712.057C554.468 713.071 553.298 712.77 554.058 713.703C554.595 714.363 556.971 715.324 557.808 715.977L555.588 717.119L555.456 716.431C553.811 717.311 546.664 716.687 545.202 715.535C545.491 714.481 545.489 714.403 545.537 713.307C543.959 711.967 543.069 711.626 541.191 710.684C539.948 711.921 539.178 712.038 537.473 712.013C536.169 710.689 536.56 710.531 536.223 708.212C534.417 706.542 532.045 704.404 529.735 703.626C529 706.256 524.708 710.958 522.952 713.67C519.724 718.654 519.211 720.008 517.697 725.641C516.975 728.211 517.065 728.58 517.132 731.315C515.157 730.315 513.869 728.688 512.378 728.147C511.09 729.661 510.927 729.955 509.292 731.006C505.044 731.072 501.979 730.742 498.016 729.093C496.776 731.885 497.952 730.631 498.229 734.065C496.667 733.876 495.922 732.969 494.69 731.923L494.27 731.734C481.428 742.961 474.775 764.08 473.67 780.632C473.43 783.836 473.401 787.052 473.584 790.26L473.379 790.718L472.743 790.77C470.562 788.621 469.468 786.564 467.858 783.974L468.062 778.291C469.957 761.025 474.488 747.464 485.198 733.444C486.471 731.778 489.894 727.593 490.046 725.77C489.144 724.385 488.168 721.652 487.52 720.024C479.847 717.616 474.03 719.537 467.86 713.955C464.377 710.946 461.898 709.02 458.143 706.354C453.505 703.911 446.608 697.087 442.879 693.377C443.232 691.154 443.449 689.255 444.159 687.111C447.483 690.973 454.736 696.953 458.862 700.474C460.211 701.923 462.386 703.697 463.93 705.035C463.473 696.21 461.213 686.821 460.93 677.507C457.187 674.131 453.221 670.944 449.352 667.436C449.671 665.035 449.675 662.747 451.138 660.93C451.411 659.409 450.497 655.481 450.202 653.726C447.97 652.618 447.507 652.473 445.69 650.853C449.789 645.402 450.829 644.791 456.555 640.87Z"/><path fill="#B57941" transform="scale(0.195312 0.195312)" d="M564.234 649.047C564.455 651.116 564.419 652.939 564.418 655.004C564.045 655.831 562.518 659.703 561.959 659.966C548.161 666.473 528.113 682.174 513.905 686.364C502.812 682.946 502.041 680.899 492.152 675.132C485.329 671.154 478.06 667.192 471.265 662.913C469.606 661.869 464.434 657.423 463.343 656.966C464.779 654.324 464.118 652.236 463.881 648.883C491.154 662.062 518.876 664.3 547.851 654.872C553.747 652.953 558.438 651.739 564.234 649.047Z"/><path fill="#F8F8F8" transform="scale(0.195312 0.195312)" d="M570.26 647.886C573.348 649.35 576.992 650.87 578.098 654.428C577.418 656.76 577.665 658.051 577.322 659.409C577.239 659.555 577.158 659.702 577.071 659.846C573.922 665.054 568.496 668.713 564.831 673.563C561.103 678.494 559.869 701.208 558.725 708.736C556.135 710.473 555.233 710.751 552.661 712.057C544.886 711.163 536.462 695.969 519.012 692.536C534.987 683.367 560.392 669.628 572.903 657.341C571.717 653.804 571.091 651.527 570.26 647.886Z"/><path fill="#F8F8F8" transform="scale(0.195312 0.195312)" d="M455.764 647.6C455.549 650.893 455.26 653.689 454.851 656.966C458.548 660.322 462.305 663.55 466.447 666.358C477.818 674.549 489.095 681.681 501.487 688.229C503.823 689.464 506.47 690.911 508.659 692.336C495.173 697.256 491.758 700.058 481.006 709.414C476.672 708.83 475.44 708.64 471.426 710.509C467.071 704.775 467.606 684.983 465.45 676.385C461.104 671.316 454.503 666.285 451.138 660.93C451.411 659.409 450.497 655.481 450.202 653.726C452.249 651.212 453.363 649.786 455.764 647.6Z"/><path fill="#F8F8F8" transform="scale(0.195312 0.195312)" d="M502.618 706.418C501.251 705.521 500.407 704.824 500.152 703.187C502.465 694.652 523.009 695.225 528.122 702.659C528.907 703.231 528.854 703.309 529.735 703.626C529 706.256 524.708 710.958 522.952 713.67C519.724 718.654 519.211 720.008 517.697 725.641C516.975 728.211 517.065 728.58 517.132 731.315C515.157 730.315 513.869 728.688 512.378 728.147C512.655 725.905 512.755 725.708 513.637 723.592L512.049 721.107C511.888 719.491 509.729 716.112 508.806 714.661L508.272 714.973C508.427 717.006 508.477 717.229 507.65 719.076C506.144 716.888 503.667 713.543 502.918 711.11L503.284 710.196C502.548 708.312 502.496 708.393 502.618 706.418Z"/><path fill="#BCBBBB" transform="scale(0.195312 0.195312)" d="M513.637 723.592C516.033 719.008 524.648 705.858 528.122 702.659C528.907 703.231 528.854 703.309 529.735 703.626C529 706.256 524.708 710.958 522.952 713.67C519.724 718.654 519.211 720.008 517.697 725.641C516.975 728.211 517.065 728.58 517.132 731.315C515.157 730.315 513.869 728.688 512.378 728.147C512.655 725.905 512.755 725.708 513.637 723.592Z"/><path fill="#E4E3E3" transform="scale(0.195312 0.195312)" d="M502.618 706.418C503.654 706.857 508.684 713.424 508.806 714.661L508.272 714.973C508.427 717.006 508.477 717.229 507.65 719.076C506.144 716.888 503.667 713.543 502.918 711.11L503.284 710.196C502.548 708.312 502.496 708.393 502.618 706.418Z"/><path fill="#F8F8F8" transform="scale(0.195312 0.195312)" d="M492.65 718.457C491.685 714.595 491.008 706.557 495.159 704.473C497.93 704.673 500.819 708.771 502.918 711.11C503.667 713.543 506.144 716.888 507.65 719.076C508.477 717.229 508.427 717.006 508.272 714.973L508.806 714.661C509.729 716.112 511.888 719.491 512.049 721.107L513.637 723.592C512.755 725.708 512.655 725.905 512.378 728.147C511.09 729.661 510.927 729.955 509.292 731.006C505.044 731.072 501.979 730.742 498.016 729.093L496.369 727.748L494.836 725.936C493.82 723.601 493.273 720.948 492.65 718.457Z"/><path fill="#E4E3E3" transform="scale(0.195312 0.195312)" d="M507.65 719.076C508.477 717.229 508.427 717.006 508.272 714.973L508.806 714.661C509.729 716.112 511.888 719.491 512.049 721.107L513.637 723.592C512.755 725.708 512.655 725.905 512.378 728.147C511.09 729.661 510.927 729.955 509.292 731.006C505.044 731.072 501.979 730.742 498.016 729.093L496.369 727.748L494.836 725.936C493.82 723.601 493.273 720.948 492.65 718.457C493.188 718.568 493.866 718.709 494.686 718.878C497.241 721.393 502.943 727.429 506.999 725.083L507.734 723.786C507.273 721.751 507.439 721.206 507.65 719.076Z"/><path fill="#A6A5A5" transform="scale(0.195312 0.195312)" d="M456.555 640.87C456.959 642.819 457.654 644.726 457.978 646.368L455.764 647.6C453.363 649.786 452.249 651.212 450.202 653.726C447.97 652.618 447.507 652.473 445.69 650.853C449.789 645.402 450.829 644.791 456.555 640.87Z"/><path fill="#BCBBBB" transform="scale(0.195312 0.195312)" d="M455.764 647.6L457.978 646.368C458.171 648.241 461.3 661.024 461.815 661.767L463.577 660.426C465.083 660.651 464.391 660.349 465.517 661.736C465.513 663.842 465.283 664.607 466.447 666.358C462.305 663.55 458.548 660.322 454.851 656.966C455.26 653.689 455.549 650.893 455.764 647.6Z"/><path fill="#A6A5A5" transform="scale(0.195312 0.195312)" d="M494.836 725.936L496.369 727.748L498.016 729.093C496.776 731.885 497.952 730.631 498.229 734.065C496.667 733.876 495.922 732.969 494.69 731.923L494.27 731.734L494.42 731.02C493.644 729.916 493.024 729.434 492.039 728.543L492.18 727.692C493.49 727.145 493.914 727.077 494.836 725.936Z"/><path fill="#BCBBBB" transform="scale(0.195312 0.195312)" d="M458.143 706.354C464.054 706.571 467.085 707.519 467.86 713.955C464.377 710.946 461.898 709.02 458.143 706.354Z"/><path fill="#E4E3E3" transform="scale(0.195312 0.195312)" d="M471.426 710.509C475.44 708.64 476.672 708.83 481.006 709.414C477.047 712.852 476.192 712.207 471.426 710.509Z"/><path fill="#F8F8F8" transform="scale(0.195312 0.195312)" d="M529.735 703.626C532.045 704.404 534.417 706.542 536.223 708.212C536.56 710.531 536.169 710.689 537.473 712.013C539.178 712.038 539.948 711.921 541.191 710.684C543.069 711.626 543.959 711.967 545.537 713.307C545.489 714.403 545.491 714.481 545.202 715.535C546.664 716.687 553.811 717.311 555.456 716.431L555.588 717.119C551.717 718.778 548.306 717.269 542.068 719.921C540.855 720.43 537.479 725.118 536.96 726.321C538.51 727.153 538.099 726.567 538.79 727.741C541.443 732.249 544.526 735.437 547.412 740.026C556.492 754.463 558.526 767.35 560.626 783.779C559.235 786.795 558.529 787.897 556.721 790.635C554.112 796.626 519.457 834.639 514.314 836.156C503.892 829.274 481.639 804.928 474.88 793.587C474.544 793.024 475.316 792.085 475.73 791.613C475.224 790.925 474.431 790.686 473.584 790.26C473.401 787.052 473.43 783.836 473.67 780.632C474.775 764.08 481.428 742.961 494.27 731.734L494.69 731.923C495.922 732.969 496.667 733.876 498.229 734.065C497.952 730.631 496.776 731.885 498.016 729.093C501.979 730.742 505.044 731.072 509.292 731.006C510.927 729.955 511.09 729.661 512.378 728.147C513.869 728.688 515.157 730.315 517.132 731.315C517.065 728.58 516.975 728.211 517.697 725.641C519.211 720.008 519.724 718.654 522.952 713.67C524.708 710.958 529 706.256 529.735 703.626Z"/><path fill="#A6A5A5" transform="scale(0.195312 0.195312)" d="M529.735 703.626C532.045 704.404 534.417 706.542 536.223 708.212C536.56 710.531 536.169 710.689 537.473 712.013C539.178 712.038 539.948 711.921 541.191 710.684C543.069 711.626 543.959 711.967 545.537 713.307C545.489 714.403 545.491 714.481 545.202 715.535C546.664 716.687 553.811 717.311 555.456 716.431L555.588 717.119C551.717 718.778 548.306 717.269 542.068 719.921C540.855 720.43 537.479 725.118 536.96 726.321C538.51 727.153 538.099 726.567 538.79 727.741C541.443 732.249 544.526 735.437 547.412 740.026C556.492 754.463 558.526 767.35 560.626 783.779C559.235 786.795 558.529 787.897 556.721 790.635C555.505 790.16 555.276 789.708 554.284 788.755C555.912 783.559 552.652 764.457 550.402 758.53C548.045 752.323 541.15 735.378 534.392 732.142C532.988 731.469 532.395 732.181 531.077 732.901C528.632 736.456 524.386 736.64 520.522 735.919C513.479 735.076 514.596 731.606 507.772 736.002C506.334 735.96 500.887 736.558 500.509 736.388C500.943 735.6 500.862 736.008 500.804 735.175L499.893 735.085L499.317 736.948L498.882 735.521L499.219 736.75L499.373 735.359L498.837 735.171L498.823 734.411L498.229 734.065C497.952 730.631 496.776 731.885 498.016 729.093C501.979 730.742 505.044 731.072 509.292 731.006C510.927 729.955 511.09 729.661 512.378 728.147C513.869 728.688 515.157 730.315 517.132 731.315C517.065 728.58 516.975 728.211 517.697 725.641C519.211 720.008 519.724 718.654 522.952 713.67C524.708 710.958 529 706.256 529.735 703.626Z"/><path fill="#F8F8F8" transform="scale(0.195312 0.195312)" d="M529.735 703.626C532.045 704.404 534.417 706.542 536.223 708.212C535.901 713.321 536.047 715.684 535.034 720.818C529.255 720.331 530.466 723.844 524.57 724.999C521.934 724.808 520.284 725.212 517.697 725.641C519.211 720.008 519.724 718.654 522.952 713.67C524.708 710.958 529 706.256 529.735 703.626Z"/><path fill="#E4E3E3" transform="scale(0.195312 0.195312)" d="M524.57 724.999C530.466 723.844 529.255 720.331 535.034 720.818C530.853 729.135 526.791 731.352 517.132 731.315C517.065 728.58 516.975 728.211 517.697 725.641C520.284 725.212 521.934 724.808 524.57 724.999Z"/><path fill="#DAD9D9" transform="scale(0.195312 0.195312)" d="M517.697 725.641C520.284 725.212 521.934 724.808 524.57 724.999C523.881 726.609 523.401 727.392 521.923 728.111C520.107 727.764 519.74 726.541 517.697 725.641Z"/><path fill="#BCBBBB" transform="scale(0.195312 0.195312)" d="M498.229 734.065C497.952 730.631 496.776 731.885 498.016 729.093C501.979 730.742 505.044 731.072 509.292 731.006L509.163 732.979C504.864 736.004 503.215 734.136 498.823 734.411L498.229 734.065Z"/><path fill="#BCBBBB" transform="scale(0.195312 0.195312)" d="M536.96 726.321L536.39 725.696C536.225 723.06 537.793 719.237 540.094 717.751C541.449 718.15 541.113 718.26 542.068 719.921C540.855 720.43 537.479 725.118 536.96 726.321Z"/><path fill="#E4E3E3" transform="scale(0.195312 0.195312)" d="M540.724 804.885C545.406 800.356 551.177 794.439 554.284 788.755C555.276 789.708 555.505 790.16 556.721 790.635C554.112 796.626 519.457 834.639 514.314 836.156C503.892 829.274 481.639 804.928 474.88 793.587C474.544 793.024 475.316 792.085 475.73 791.613C479.681 795.469 483.416 799.925 487.457 803.952C488.806 799.67 489.825 793.002 490.662 788.425C491.798 791.459 492.941 796.936 494.113 800.253C499.718 816.116 503.174 818.874 514.491 829.011C520.393 823.737 525.793 817.981 529.768 811.095C531.125 808.759 532.312 806.329 533.319 803.823C534.617 800.535 535.915 793.154 538.5 791.649L539.203 792.226C540.632 795.913 540.613 800.92 540.724 804.885Z"/><defs><linearGradient id="gradient_4" gradientUnits="userSpaceOnUse" x1="491.40802" y1="750.6084" x2="514.31366" y2="757.74664"><stop offset="0" stop-color="#C3C2C2"/><stop offset="1" stop-color="#E5E5E5"/></linearGradient></defs><path fill="url(#gradient_4)" transform="scale(0.195312 0.195312)" d="M494.69 731.923C495.922 732.969 496.667 733.876 498.229 734.065L498.823 734.411L498.837 735.171L499.373 735.359L499.219 736.75L498.882 735.521L499.317 736.948L499.893 735.085L500.804 735.175C500.862 736.008 500.943 735.6 500.509 736.388C500.887 736.558 506.334 735.96 507.772 736.002C514.596 731.606 513.479 735.076 520.522 735.919L519.148 737.394C519.676 738.558 519.823 738.62 519.947 739.869L518.053 740.664L517.376 740.939C515.27 740.444 504.014 739.726 503.141 741.428C498.206 751.053 497.557 767.595 497.431 778.207C493.825 770.416 490.497 759.349 491.46 750.69C491.665 748.772 492.095 746.885 492.74 745.067C493.354 743.384 494.799 740.394 495.627 738.868C498.542 733.495 495.741 736.024 494.69 731.923Z"/><defs><linearGradient id="gradient_5" gradientUnits="userSpaceOnUse" x1="536.45404" y1="752.80042" x2="525.81201" y2="755.87659"><stop offset="0" stop-color="#BAB9B9"/><stop offset="1" stop-color="#DBDBDB"/></linearGradient></defs><path fill="url(#gradient_5)" transform="scale(0.195312 0.195312)" d="M520.522 735.919C524.386 736.64 528.632 736.456 531.077 732.901C531.642 735.479 531.646 737.068 532.881 739.584C539.76 753.609 536.374 764.72 531.107 778.59C530.754 768.841 530.429 748.981 523.443 741.192C522.774 740.445 519.319 740.724 518.053 740.664L519.947 739.869C519.823 738.62 519.676 738.558 519.148 737.394L520.522 735.919Z"/><path fill="#F8F8F8" transform="scale(0.195312 0.195312)" d="M588.253 748.498C588.515 787.936 582.831 826.123 577.504 865.073C576.572 871.887 575.15 879.119 573.458 885.763C572.305 890.471 571.836 896.516 570.624 901.603C567.847 900.481 569.248 898.521 565.112 896.114C552.781 882.169 543.185 876.542 524.954 872.169C519.93 871.155 514.88 871.405 509.787 871.632L504.534 872.278L503.05 872.006C502.564 870.919 502.824 856.111 503.608 855.076C510.342 846.189 520.774 838.664 529.129 830.967C555.866 806.34 571.357 780.37 588.253 748.498Z"/><path fill="#DAD9D9" transform="scale(0.195312 0.195312)" d="M509.787 871.632C508.113 863.395 511.142 855.127 521.771 860.366C525.166 862.039 525.16 868.53 524.954 872.169C519.93 871.155 514.88 871.405 509.787 871.632Z"/><path fill="#F8F8F8" transform="scale(0.195312 0.195312)" d="M463.702 895.967C463.406 895.749 462.783 895.052 462.5 894.756C452.929 851.545 446.704 806.99 444.227 762.8C444.108 760.68 443.656 758.319 444.707 756.463C460.692 788.222 482.714 816.559 509.543 839.891C497.136 851.967 495.503 855.511 497.881 873.503C482.57 878.585 474.309 883.697 463.702 895.967Z"/><path fill="#F8F8F8" transform="scale(0.195312 0.195312)" d="M442.566 698.835C458.494 713.886 467.324 724.145 490.046 725.77C489.894 727.593 486.471 731.778 485.198 733.444C474.488 747.464 469.957 761.025 468.062 778.291L467.027 780.28C465.398 780.585 466.124 780.711 464.754 780.112C463.762 776.7 457.252 766.502 455.089 762.939C451.996 757.845 441.188 737.106 440.75 732.372C440.108 725.438 441.983 706.559 442.566 698.835Z"/><path fill="#E4E3E3" transform="scale(0.195312 0.195312)" d="M439.79 746.365C441.378 749.503 443.409 753.273 444.707 756.463C443.656 758.319 444.108 760.68 444.227 762.8C446.704 806.99 452.929 851.545 462.5 894.756C462.783 895.052 463.406 895.749 463.702 895.967L462.357 897.614C459.929 899.035 460.437 900.066 458.607 901.052C456.375 898.588 454.053 883.072 453.351 878.925C447.261 844.686 443.186 810.119 441.147 775.402C440.56 765.556 439.866 756.231 439.79 746.365Z"/><path fill="#A6A5A5" transform="scale(0.195312 0.195312)" d="M577.322 659.409C578.574 661.23 579.974 663.516 578.565 665.656C575.615 670.138 571.324 673.722 567.74 677.789C566.939 681.868 566.852 684.485 566.647 688.671C566.226 692.009 565.812 694.963 565.215 698.271C567.519 699.593 567.303 699.047 567.789 701.912L571.052 698.618C573.212 697.34 575.019 695.321 576.83 693.53C578.606 696.463 577.207 696.832 577.273 699.395C571.11 706.568 565.846 708.254 559.353 714.655C558.856 715.145 558.349 715.543 557.808 715.977C556.971 715.324 554.595 714.363 554.058 713.703C553.298 712.77 554.468 713.071 552.661 712.057C555.233 710.751 556.135 710.473 558.725 708.736C559.869 701.208 561.103 678.494 564.831 673.563C568.496 668.713 573.922 665.054 577.071 659.846C577.158 659.702 577.239 659.555 577.322 659.409Z"/><path fill="#E4E3E3" transform="scale(0.195312 0.195312)" d="M564.144 704.961C564.392 702.05 564.476 701.1 565.215 698.271C567.519 699.593 567.303 699.047 567.789 701.912C566.646 703.066 565.418 703.957 564.144 704.961Z"/><path fill="#A6A5A5" transform="scale(0.195312 0.195312)" d="M622.828 977.308L623.563 976.379C626.159 976.709 627.04 977.332 629.332 978.489C638.585 992.341 645.197 1007.45 647.711 1024L642.239 1024C639.454 1010.27 633.52 993.833 625.86 982.069C625.063 980.614 623.76 978.741 622.828 977.308Z"/><path fill="#F8F8F8" transform="scale(0.195312 0.195312)" d="M444.159 687.111C444.162 684.341 447.523 672.413 448.551 669.555L449.301 668.902L450.11 669.02C450.752 670.903 449.479 671.286 450.58 672.917C453.534 677.298 466.374 696.781 458.862 700.474C454.736 696.953 447.483 690.973 444.159 687.111Z"/><path fill="#F8F8F8" transform="scale(0.195312 0.195312)" d="M569.222 687.273C571.256 679.617 577.13 678.056 578.574 671.035C578.636 670.735 579.096 669.472 579.19 669.202L579.832 669.007C582.065 672.702 583.811 681.379 584.256 685.707L583.88 686.515C581.582 688.773 579.017 691.197 576.83 693.53C575.019 695.321 573.212 697.34 571.052 698.618L569.627 698.206C569.078 698.939 568.821 699.14 568.165 699.783C566.53 697.252 568.575 690.43 569.222 687.273Z"/><path fill="#E4E3E3" transform="scale(0.195312 0.195312)" d="M661.35 745.578C663.699 753.715 640.198 764.992 633.704 767.173C632.71 767.507 632.305 767.667 631.366 768.172C628.751 765.545 627.977 764.692 624.846 762.673C634.021 758.09 656.156 750.96 661.35 745.578Z"/><path fill="#E4E3E3" transform="scale(0.195312 0.195312)" d="M641.843 845.192C640.023 844.979 638.088 844.979 636.677 843.919C638.297 838.335 650.015 818.439 652.981 811.79C653.716 810.143 659.099 799.165 659.943 797.597C660.135 812.875 649.079 831.768 641.843 845.192Z"/><path fill="#BCBBBB" transform="scale(0.195312 0.195312)" d="M631.494 961.624C633.935 963.244 634.429 963.618 636.415 965.758C631.788 967.222 627.976 968.682 623.477 970.441C625.439 973.342 627.193 975.712 629.332 978.489C627.04 977.332 626.159 976.709 623.563 976.379L622.828 977.308C619.615 973.619 617.849 971.627 613.7 969.067C618.841 966.048 625.806 963.723 631.494 961.624Z"/><path fill="#BCBBBB" transform="scale(0.195312 0.195312)" d="M583.88 686.515C584.873 688.638 584.81 688.913 585 691.314C583.742 692.983 578.934 699.013 577.273 699.395C577.207 696.832 578.606 696.463 576.83 693.53C579.017 691.197 581.582 688.773 583.88 686.515Z"/><path fill="#F8F8F8" transform="scale(0.195312 0.195312)" d="M639.892 848.999C647.922 848.312 661.229 849.029 667.646 847.942C667.495 851.543 667.427 855.913 666.929 859.409C655.716 859.859 644.495 860.054 633.274 859.995L626.493 860.073C628.988 856.069 629.981 852.918 632.979 848.8C635.491 848.761 637.403 848.85 639.892 848.999Z"/><path fill="#E4E3E3" transform="scale(0.195312 0.195312)" d="M632.979 848.8C635.491 848.761 637.403 848.85 639.892 848.999C638.016 853.797 636.461 855.909 633.274 859.995L626.493 860.073C628.988 856.069 629.981 852.918 632.979 848.8Z"/><path fill="#F8F8F8" transform="scale(0.195312 0.195312)" d="M684.122 909.284C685.36 910.344 691.958 928.134 693.294 931.467L687.728 934.446C686.291 935.106 683.409 936.857 681.917 937.7C681.92 931.841 683.303 915.103 684.122 909.284Z"/><path fill="#BCBBBB" transform="scale(0.195312 0.195312)" d="M569.549 639.195C575.701 643.219 579.659 645.193 582.617 652.19C581.257 652.985 579.574 654.12 578.098 654.428C576.992 650.87 573.348 649.35 570.26 647.886L568.929 645.339C568.905 643.525 569.315 641.057 569.549 639.195Z"/></svg>