<?xml version="1.0" encoding="utf-8" ?><svg xmlns="http://www.w3.org/2000/svg" xmlns:xlink="http://www.w3.org/1999/xlink" width="200" height="200" viewBox="0 0 200 200"><path fill="#010001" fill-opacity="0.011764706" transform="scale(0.195312 0.195312)" d="M429.949 70.7852C431.775 70.7518 432.662 70.1376 434.608 70.7078L434.142 71.6189L433.776 72.1129C432.681 72.0912 432.052 72.1305 430.962 72.196L429.949 70.7852Z"/><path fill="#291A10" transform="scale(0.195312 0.195312)" d="M389.146 747.337L388.536 747.344L387.52 747.343C360.031 747.461 324.265 733.038 301.317 719.298C251.254 689.323 224.417 640.021 211.272 584.647C207.817 570.092 207.624 553.485 204.02 539.539L203.916 539.729C203.231 538.131 202.555 496.249 202.53 491.157C202.077 433.761 209.178 376.556 223.651 321.014C225.499 314.075 226.979 307.038 229.06 300.168C245.498 245.897 271.912 194.277 312.2 153.702C365.701 98.9719 438.992 68.1007 515.528 68.0579C547.735 67.9041 583.948 74.3058 610.667 93.4447C617.995 98.6944 621.055 102.412 627.262 108.559C634.087 109.188 640.987 108.506 647.798 109.163C673.119 111.608 696.24 121.617 716.417 136.91C779.648 184.835 807.28 293.791 820.623 368.516C822.598 379.576 825.025 390.656 826.542 401.786C830.914 432.78 833.579 463.991 834.523 495.277C834.675 500.777 835.149 506.414 835.194 511.875C835.22 514.995 834.561 519.061 834.447 522.315C833.26 556.249 828.316 592.176 816.275 624.021C815.138 627.025 811.507 637.381 810.112 639.869C803.86 651.021 796.463 663.57 788.628 673.617C757.453 713.59 716.571 735.46 667.555 745.82C660.821 747.243 655.132 747.276 648.571 748.153C657.787 738.103 664.522 731.488 674.431 721.947L674.442 721.196C674.269 721.044 674.108 720.876 673.922 720.739C669.34 717.364 617.938 717.587 609.417 717.903C603.215 718.133 597.105 718.957 590.927 719.388C590.794 724.505 589.969 735.563 591.967 739.85C595.045 754.594 596.457 758.353 602.915 772.399C603.698 775.012 604.035 775.681 603.936 778.415C605.79 805.647 592.423 847.248 583.87 873.464L581.332 881.362L581.002 880.843C580.977 880.837 561.966 884.957 559.793 885.314C547.692 887.38 535.458 888.572 523.186 888.88C508.245 889.206 491.983 887.727 477.251 885.062C470.129 883.773 461.755 881.16 454.768 880.239L454.233 880.174L451.648 872.431C443.821 846.971 429.774 804.912 433.911 778.206C433.578 775.728 433.857 773.75 434.739 771.452C441.258 765.456 444.807 746.023 447.035 737.99C447.065 732.413 448.068 727.052 448.01 719.95C435.082 716.289 376.059 718.163 362.653 721.17C372.021 729.631 379.953 738.665 389.146 747.337Z"/><defs><linearGradient id="gradient_0" gradientUnits="userSpaceOnUse" x1="544.17676" y1="706.51758" x2="503.79855" y2="247.14319"><stop offset="0" stop-color="#904B2C"/><stop offset="1" stop-color="#AE7559"/></linearGradient></defs><path fill="url(#gradient_0)" transform="scale(0.195312 0.195312)" d="M411.176 378.221C420.498 366.035 430.582 353.255 438.627 340.656C468.812 293.378 498.377 247.948 559.687 241.982C575.155 239.432 588.47 240.279 603.239 245.457C604.615 245.94 610.924 245.895 612.969 246.119C637.643 248.817 655.383 280.66 667.829 299.569C675.199 310.903 682.67 322.17 690.242 333.37C714.981 369.532 741.314 401.026 753.332 444.117C755.568 455.128 759.524 507.414 757.681 517.383L757.046 516.335C755.621 516.204 750.002 518.724 747.947 519.427C746.871 525.141 741.815 545.52 742.726 549.252C742.326 550.86 741.972 552.081 741.822 553.748L740.668 554.791C739.952 560.513 737.807 568.661 736.296 574.273C728.005 605.079 711.509 636.506 685.775 656.097C659.297 676.255 622.557 693.221 591.392 704.283C591.096 709.312 590.941 714.349 590.927 719.388C590.794 724.505 589.969 735.563 591.967 739.85C595.045 754.594 596.457 758.353 602.915 772.399C603.698 775.012 604.035 775.681 603.936 778.415C605.79 805.647 592.423 847.248 583.87 873.464L581.332 881.362L581.002 880.843C580.977 880.837 561.966 884.957 559.793 885.314C547.692 887.38 535.458 888.572 523.186 888.88C508.245 889.206 491.983 887.727 477.251 885.062C470.129 883.773 461.755 881.16 454.768 880.239L454.233 880.174L451.648 872.431C443.821 846.971 429.774 804.912 433.911 778.206C433.578 775.728 433.857 773.75 434.739 771.452C441.258 765.456 444.807 746.023 447.035 737.99C447.065 732.413 448.068 727.052 448.01 719.95C448.214 715.051 448.085 708.95 448.099 703.965C446.58 703.609 445.072 703.21 443.576 702.768C431.09 699.029 416.551 692.362 404.826 686.73C362.573 666.432 331.272 646.338 312.333 601.528C309.063 593.631 306.299 585.534 304.057 577.285C302.949 573.169 300.394 558.715 298.721 555.972L298.525 554.123C299.799 547.701 291.289 520.026 291.155 511.506C291.115 509.013 289.553 501.234 288.733 498.653C288.786 496.409 291.073 487.641 291.719 485.02C292.789 482.591 295.067 473.218 296.377 469.483C302.434 467.563 321.97 459.837 325.528 455.1L325.771 454.342C331.655 450.231 337.453 446.511 343.395 442.522C348.745 438.929 355.455 432.568 361.543 430.216C365.266 425.779 377.855 414.981 382.958 409.82C388.531 404.152 394.342 398.088 399.475 392.012C410.9 394.586 422.656 398.92 433.633 402.744C436.811 403.851 456.555 412.235 457.887 410.621C475.022 389.856 420.889 380.657 411.176 378.221Z"/><defs><linearGradient id="gradient_1" gradientUnits="userSpaceOnUse" x1="519.20599" y1="458.55252" x2="564.97461" y2="836.58398"><stop offset="0" stop-color="#5C2712"/><stop offset="1" stop-color="#93573A"/></linearGradient></defs><path fill="url(#gradient_1)" transform="scale(0.195312 0.195312)" d="M753.332 444.117C755.568 455.128 759.524 507.414 757.681 517.383L757.046 516.335C755.621 516.204 750.002 518.724 747.947 519.427C746.871 525.141 741.815 545.52 742.726 549.252C742.326 550.86 741.972 552.081 741.822 553.748L740.668 554.791C739.952 560.513 737.807 568.661 736.296 574.273C728.005 605.079 711.509 636.506 685.775 656.097C659.297 676.255 622.557 693.221 591.392 704.283C591.096 709.312 590.941 714.349 590.927 719.388C590.794 724.505 589.969 735.563 591.967 739.85C595.045 754.594 596.457 758.353 602.915 772.399C603.698 775.012 604.035 775.681 603.936 778.415C605.79 805.647 592.423 847.248 583.87 873.464L581.332 881.362L581.002 880.843C580.977 880.837 561.966 884.957 559.793 885.314C547.692 887.38 535.458 888.572 523.186 888.88C508.245 889.206 491.983 887.727 477.251 885.062C470.129 883.773 461.755 881.16 454.768 880.239L454.233 880.174L451.648 872.431C443.821 846.971 429.774 804.912 433.911 778.206C433.578 775.728 433.857 773.75 434.739 771.452C441.258 765.456 444.807 746.023 447.035 737.99C447.065 732.413 448.068 727.052 448.01 719.95C448.214 715.051 448.085 708.95 448.099 703.965C446.58 703.609 445.072 703.21 443.576 702.768C431.09 699.029 416.551 692.362 404.826 686.73C362.573 666.432 331.272 646.338 312.333 601.528C309.063 593.631 306.299 585.534 304.057 577.285C302.949 573.169 300.394 558.715 298.721 555.972L298.525 554.123C299.799 547.701 291.289 520.026 291.155 511.506C291.115 509.013 289.553 501.234 288.733 498.653C288.786 496.409 291.073 487.641 291.719 485.02C291.922 485.216 292.125 485.413 292.327 485.609C295.245 500.338 299.129 516.486 301.537 531.346C307.829 570.173 319.534 619.139 351.964 645.527C391.05 677.331 451.745 703.304 502.188 707.95C549.224 712.281 595.502 697.784 636.814 676.728C651.252 669.43 672.251 658.27 684.271 647.773C714.16 621.674 725.597 590.265 733.521 553.216C733.969 548.422 736.062 539.426 737.067 534.546C739.375 523.547 741.583 512.528 743.693 501.49C747.124 483.187 749.488 461.537 753.332 444.117Z"/><path fill="#A1664B" transform="scale(0.195312 0.195312)" d="M433.911 778.206L434.358 778.96C435.837 781.5 436.885 784.821 438.188 787.516C450.323 812.619 471.294 834.699 498.75 842.323C518.424 847.609 539.387 844.964 557.132 834.957C581.276 821.226 593.266 803.18 603.936 778.415C605.79 805.647 592.423 847.248 583.87 873.464L581.332 881.362L581.002 880.843C580.977 880.837 561.966 884.957 559.793 885.314C547.692 887.38 535.458 888.572 523.186 888.88C508.245 889.206 491.983 887.727 477.251 885.062C470.129 883.773 461.755 881.16 454.768 880.239L454.233 880.174L451.648 872.431C443.821 846.971 429.774 804.912 433.911 778.206Z"/><path fill="#C8C7C2" transform="scale(0.195312 0.195312)" d="M451.648 872.431C453.416 872.016 460.368 874.519 462.76 875.159C469.949 877.01 477.229 878.484 484.572 879.576C502.293 882.289 522.599 882.636 540.438 881.124C551.305 880.119 562.093 878.383 572.727 875.929C575.03 875.381 582.511 873.105 583.87 873.464L581.332 881.362L581.002 880.843C580.977 880.837 561.966 884.957 559.793 885.314C547.692 887.38 535.458 888.572 523.186 888.88C508.245 889.206 491.983 887.727 477.251 885.062C470.129 883.773 461.755 881.16 454.768 880.239L454.233 880.174L451.648 872.431Z"/><path fill="#A29288" transform="scale(0.195312 0.195312)" d="M434.739 771.452C437.174 776.88 438.819 782.487 441.641 787.866C453.186 809.867 468.84 828.24 492.278 837.363C539.443 855.722 584.642 822.027 600.761 778.337C601.428 776.529 602.104 774.131 602.915 772.399C603.698 775.012 604.035 775.681 603.936 778.415C593.266 803.18 581.276 821.226 557.132 834.957C539.387 844.964 518.424 847.609 498.75 842.323C471.294 834.699 450.323 812.619 438.188 787.516C436.885 784.821 435.837 781.5 434.358 778.96L433.911 778.206C433.578 775.728 433.857 773.75 434.739 771.452Z"/><path fill="#7B4825" transform="scale(0.195312 0.195312)" d="M753.332 444.117C755.568 455.128 759.524 507.414 757.681 517.383L757.046 516.335C755.621 516.204 750.002 518.724 747.947 519.427C746.871 525.141 741.815 545.52 742.726 549.252C742.326 550.86 741.972 552.081 741.822 553.748L740.668 554.791C741.266 545.404 743.416 538.068 745.213 529.081C747.499 517.629 749.636 506.148 751.621 494.641C752.558 489.469 753.913 484.311 754.231 479.076L754.632 478.765C756.252 481.861 749.728 510.555 749.215 516.608C751.449 516.817 755.126 514.196 757 512.892C757.014 494.101 756.601 476.14 754.479 457.419C754.173 454.719 754.301 450.48 753.56 448.207C751.779 451.923 751.71 461.379 750.634 465.73C747.637 477.839 738.315 546.541 733.521 553.216C733.969 548.422 736.062 539.426 737.067 534.546C739.375 523.547 741.583 512.528 743.693 501.49C747.124 483.187 749.488 461.537 753.332 444.117Z"/><defs><linearGradient id="gradient_2" gradientUnits="userSpaceOnUse" x1="393.21939" y1="424.44421" x2="389.23666" y2="494.53043"><stop offset="0" stop-color="#090804"/><stop offset="1" stop-color="#211504"/></linearGradient></defs><path fill="url(#gradient_2)" transform="scale(0.195312 0.195312)" d="M361.543 430.216C365.266 425.779 377.855 414.981 382.958 409.82C386.108 410.957 394.915 409.825 399.17 409.872C429.515 410.21 455.753 434.691 455.305 465.492C455.3 465.82 454.72 466.91 454.572 467.192C454.945 469.482 456.479 476.553 455.384 478.369C455.837 483.783 456.234 489.792 452.498 494.231C447.638 500.006 433.195 504.497 425.914 504.293C423.527 505.292 423.178 505.432 420.606 505.557C407.457 506.658 394.262 507.106 381.069 506.9C378.715 506.45 378.445 506.488 376.483 505.233C366.112 506.385 343.211 492.958 341.664 482.614C335.569 476.687 333.364 466.987 330.723 459.294C329.111 457.903 327.206 456.447 325.528 455.1L325.771 454.342C331.655 450.231 337.453 446.511 343.395 442.522C348.745 438.929 355.455 432.568 361.543 430.216Z"/><path fill="#7B4825" transform="scale(0.195312 0.195312)" d="M363.633 479.128C370.031 475.683 369.291 476.451 376.134 475.615C378.442 480.05 381.062 485.398 384.409 489.12C388.41 493.62 394.067 496.301 400.083 496.549C407.275 496.862 412.454 494.006 417.476 489.279C419.451 486.898 421.599 483.357 423.321 480.676L424.603 477.35L426.982 476.815C428.343 477.712 432.947 483.33 434.057 484.787C434.188 487.537 433.985 488.396 435.361 490.691C433.607 495.639 429.702 500.702 425.914 504.293C423.527 505.292 423.178 505.432 420.606 505.557C407.457 506.658 394.262 507.106 381.069 506.9C378.715 506.45 378.445 506.488 376.483 505.233C371.291 501.417 368.574 497.157 365.348 491.738C366.618 492.48 366.102 492.327 367.535 492.529C367.471 491.157 367.168 490.199 366.836 488.88C366.387 486.887 364.365 481.328 363.633 479.128Z"/><path fill="#5E311A" transform="scale(0.195312 0.195312)" d="M424.603 477.35L426.982 476.815C428.343 477.712 432.947 483.33 434.057 484.787C434.188 487.537 433.985 488.396 435.361 490.691C433.607 495.639 429.702 500.702 425.914 504.293C423.527 505.292 423.178 505.432 420.606 505.557C421.222 503.596 427.181 499.195 429.017 497.171C434.014 491.663 433.448 478.77 423.321 480.676L424.603 477.35Z"/><path fill="#5E311A" transform="scale(0.195312 0.195312)" d="M366.836 488.88C369.506 493.711 381.875 504.203 382.147 506.264L381.069 506.9C378.715 506.45 378.445 506.488 376.483 505.233C371.291 501.417 368.574 497.157 365.348 491.738C366.618 492.48 366.102 492.327 367.535 492.529C367.471 491.157 367.168 490.199 366.836 488.88Z"/><path fill="#7B4825" transform="scale(0.195312 0.195312)" d="M361.543 430.216C365.266 425.779 377.855 414.981 382.958 409.82C386.108 410.957 394.915 409.825 399.17 409.872C429.515 410.21 455.753 434.691 455.305 465.492C455.3 465.82 454.72 466.91 454.572 467.192C449.483 449.415 437.377 436.837 420.498 429.077C402.544 420.823 379.616 423.202 361.543 430.216Z"/><path fill="#F8F8F6" transform="scale(0.195312 0.195312)" d="M365.344 442.726C356.654 457.738 357.714 476.557 365.348 491.738C368.574 497.157 371.291 501.417 376.483 505.233C366.112 506.385 343.211 492.958 341.664 482.614C340.42 475.189 339.444 468.497 340.14 460.912C346.06 452.18 356.105 447.254 365.344 442.726Z"/><path fill="#F8F8F6" transform="scale(0.195312 0.195312)" d="M438.953 451.972C448.13 460.118 451.446 466.827 455.384 478.369C455.837 483.783 456.234 489.792 452.498 494.231C447.638 500.006 433.195 504.497 425.914 504.293C429.702 500.702 433.607 495.639 435.361 490.691C441.721 479.108 442.027 464.586 438.953 451.972Z"/><path fill="#311E07" transform="scale(0.195312 0.195312)" d="M420.152 441.863C423.88 443.288 429.085 445.097 432.606 446.886C434.353 447.774 436.452 451.255 438.953 451.972C442.027 464.586 441.721 479.108 435.361 490.691C433.985 488.396 434.188 487.537 434.057 484.787C432.947 483.33 428.343 477.712 426.982 476.815L424.603 477.35L424.33 477.075C426.214 473.173 426.962 468.057 426.682 463.727C426.11 454.908 426.744 448.283 420.152 441.863Z"/><path fill="#291A10" transform="scale(0.195312 0.195312)" d="M417.476 489.279C418.043 481.857 414.775 481.148 424.33 477.075L424.603 477.35L423.321 480.676C421.599 483.357 419.451 486.898 417.476 489.279Z"/><path fill="#F8F8F6" transform="scale(0.195312 0.195312)" d="M383.137 443.536C384.248 443.48 387.254 443.283 388.132 443.612C389.93 444.295 391.4 445.637 392.244 447.365C394.869 452.7 391.147 458.019 386.256 460.303C374.325 462.714 373.483 449.683 383.137 443.536Z"/><defs><linearGradient id="gradient_3" gradientUnits="userSpaceOnUse" x1="671.78479" y1="421.29797" x2="624.70355" y2="501.02185"><stop offset="0" stop-color="#040605"/><stop offset="1" stop-color="#271803"/></linearGradient></defs><path fill="url(#gradient_3)" transform="scale(0.195312 0.195312)" d="M583.271 479.122C581.644 471.33 587.173 457.443 591.575 451.158C600.037 439.075 615.616 427.723 630.333 425.052C652.001 421.119 673.086 426.897 691.717 437.963C697.518 441.408 703.503 446.323 709.978 447.909C711.846 448.367 716.967 447.517 719.063 447.232C718.285 448.371 715.878 452.044 714.97 452.754C705.044 460.519 706.238 474.272 697.672 482.649C693.402 494.678 675.424 505.361 662.933 505.212L659.544 506.509C644.84 506.541 632.067 506.53 617.384 505.749C615.806 505.631 615.507 505.563 613.965 505.171C607.222 504.706 590.41 500.057 586.255 494.501C582.559 489.559 582.775 484.789 583.271 479.122Z"/><path fill="#F8F8F6" transform="scale(0.195312 0.195312)" d="M656.851 438.197C662.335 438.647 667.155 439.9 672.092 442.467C673.295 443.093 673.178 443.355 674.609 443.136C682.842 447.265 693.863 453.345 699.032 461.148C699.121 464.321 699.121 466.24 698.919 469.305C698.715 472.383 697.266 480.145 697.672 482.649C693.402 494.678 675.424 505.361 662.933 505.212L659.544 506.509C657.719 505.857 658.036 506.39 657.479 505.24C664.418 500.175 667.692 497.422 671.891 489.762C678.376 477.935 673.766 476.024 662.315 476.086C665.638 461.356 662.093 451.506 656.851 438.197Z"/><defs><linearGradient id="gradient_4" gradientUnits="userSpaceOnUse" x1="680.22772" y1="451.02957" x2="642.69104" y2="489.62442"><stop offset="0" stop-color="#241500"/><stop offset="1" stop-color="#4D3017"/></linearGradient></defs><path fill="url(#gradient_4)" transform="scale(0.195312 0.195312)" d="M656.851 438.197C662.335 438.647 667.155 439.9 672.092 442.467C673.295 443.093 673.178 443.355 674.609 443.136C675.431 447.225 677.594 451.416 678.541 455.751C682.216 472.575 677.432 494.386 662.933 505.212L659.544 506.509C657.719 505.857 658.036 506.39 657.479 505.24C664.418 500.175 667.692 497.422 671.891 489.762C678.376 477.935 673.766 476.024 662.315 476.086C665.638 461.356 662.093 451.506 656.851 438.197Z"/><path fill="#7B4825" transform="scale(0.195312 0.195312)" d="M662.315 476.086C673.766 476.024 678.376 477.935 671.891 489.762C667.692 497.422 664.418 500.175 657.479 505.24C658.036 506.39 657.719 505.857 659.544 506.509C644.84 506.541 632.067 506.53 617.384 505.749C615.806 505.631 615.507 505.563 613.965 505.171C609.923 501.431 608.41 499.169 605.466 494.509L606.752 493.585C608.783 490.165 608.437 482.637 614.374 480.797L616.048 480.283C628.548 504.634 653.283 500.78 662.315 476.086Z"/><path fill="#5C3711" transform="scale(0.195312 0.195312)" d="M606.752 493.585C608.783 490.165 608.437 482.637 614.374 480.797C611.792 483.911 609.891 488.78 610 493.037C610.154 499.077 618.368 501.669 619.831 504.845C619.249 505.674 618.749 505.482 617.384 505.749C615.806 505.631 615.507 505.563 613.965 505.171C609.923 501.431 608.41 499.169 605.466 494.509L606.752 493.585Z"/><path fill="#F8F8F6" transform="scale(0.195312 0.195312)" d="M599.975 451.808C596.739 466.181 596.99 477.927 603.888 491.428L605.466 494.509C608.41 499.169 609.923 501.431 613.965 505.171C607.222 504.706 590.41 500.057 586.255 494.501C582.559 489.559 582.775 484.789 583.271 479.122C587.771 466.539 590.158 461.02 599.975 451.808Z"/><path fill="#5C3711" transform="scale(0.195312 0.195312)" d="M605.116 483.153C608.652 479.973 611.58 479.133 614.422 476.732L615.323 478.286L616.048 480.283L614.374 480.797C608.437 482.637 608.783 490.165 606.752 493.585L605.466 494.509L603.888 491.428C604.632 490.276 604.898 485.05 605.116 483.153Z"/><path fill="#5E311A" transform="scale(0.195312 0.195312)" d="M615.323 478.286L616.048 480.283L614.374 480.797C608.437 482.637 608.783 490.165 606.752 493.585C606.476 491.59 606.418 491.26 606.887 489.299L607.077 488.534C608.565 482.36 609.398 480.276 615.323 478.286Z"/><path fill="#F8F8F6" transform="scale(0.195312 0.195312)" d="M622.451 442.501C634.044 444.787 633.614 456.501 623.073 461.081C610.122 461.12 610.43 446.153 622.451 442.501Z"/><path fill="#F8F8F6" transform="scale(0.195312 0.195312)" d="M454.575 610.243C456.661 609.224 466.161 607.806 469.392 607.104C481.344 604.506 493.213 600.854 505.538 601.218C509.298 601.33 514.175 603.026 517.484 603.088C522.043 603.067 526.687 601.193 531.224 601.312C543.481 601.633 555.545 605.079 567.536 607.433C570.621 608.039 579.096 608.885 580.968 610.261C582.852 609.887 582.85 609.549 584.303 610.176C583.893 615.501 565.788 635.225 561.068 639.196C545.309 652.458 529.857 655.465 509.634 654.005C490.829 652.648 477.16 643.856 465.072 629.809C462.571 626.902 454.173 615.305 453.319 611.961L453.552 611.229L453.263 610.351L454.575 610.243Z"/><path fill="#D27863" transform="scale(0.195312 0.195312)" d="M580.968 610.261C582.852 609.887 582.85 609.549 584.303 610.176C583.893 615.501 565.788 635.225 561.068 639.196C545.309 652.458 529.857 655.465 509.634 654.005C490.829 652.648 477.16 643.856 465.072 629.809C462.571 626.902 454.173 615.305 453.319 611.961L453.552 611.229L453.263 610.351L454.575 610.243C458.349 611.23 460.67 611.526 464.576 612.012C465.454 613.669 467.674 618.246 469.178 619.027C469.929 620.454 470.698 621.659 471.014 623.232L471.406 623.014C473.314 627.066 483.202 630.223 487.476 632.04C507.41 640.514 548.296 638.407 565.126 623.774L565.414 623.671C565.608 621.708 566.148 621.023 567.094 619.228C569.599 617.118 570.571 614.843 571.901 611.983C573.503 612.094 574.638 611.632 576.186 611.192C577.615 610.842 579.486 610.54 580.968 610.261Z"/><path fill="#291A10" transform="scale(0.195312 0.195312)" d="M453.552 611.229L453.263 610.351L454.575 610.243C458.349 611.23 460.67 611.526 464.576 612.012C465.454 613.669 467.674 618.246 469.178 619.027C469.929 620.454 470.698 621.659 471.014 623.232C469.049 623.289 456.056 613.152 453.552 611.229Z"/><path fill="#291A10" transform="scale(0.195312 0.195312)" d="M571.901 611.983C573.503 612.094 574.638 611.632 576.186 611.192C577.374 611.785 579.085 612.568 580.134 613.279C577.161 615.491 568.326 622.194 565.414 623.671C565.608 621.708 566.148 621.023 567.094 619.228C569.599 617.118 570.571 614.843 571.901 611.983Z"/><path fill="#3C1411" transform="scale(0.195312 0.195312)" d="M580.968 610.261C582.852 609.887 582.85 609.549 584.303 610.176C583.631 610.679 580.664 612.985 580.134 613.279C579.085 612.568 577.374 611.785 576.186 611.192C577.615 610.842 579.486 610.54 580.968 610.261Z"/><path fill="#D27863" transform="scale(0.195312 0.195312)" d="M454.575 610.243C456.661 609.224 466.161 607.806 469.392 607.104C481.344 604.506 493.213 600.854 505.538 601.218C509.298 601.33 514.175 603.026 517.484 603.088C522.043 603.067 526.687 601.193 531.224 601.312C543.481 601.633 555.545 605.079 567.536 607.433C570.621 608.039 579.096 608.885 580.968 610.261C579.486 610.54 577.615 610.842 576.186 611.192C574.638 611.632 573.503 612.094 571.901 611.983C568.28 612.009 559.832 613.213 555.499 613.542C546.052 614.182 536.59 614.598 527.122 614.79C503.833 615.39 487.205 613.51 464.576 612.012C460.67 611.526 458.349 611.23 454.575 610.243Z"/><path fill="#A29288" transform="scale(0.195312 0.195312)" d="M469.178 619.027C475.767 621.474 482.824 622.346 489.777 623.215C484.588 623.86 473.016 621.546 471.406 623.014L471.014 623.232C470.698 621.659 469.929 620.454 469.178 619.027Z"/><path fill="#76726D" transform="scale(0.195312 0.195312)" d="M552.381 622.184C556.5 621.856 562.895 620.205 567.094 619.228C566.148 621.023 565.608 621.708 565.414 623.671L565.126 623.774L564.67 622.461C562.73 621.612 558.591 622.334 556.278 622.584L552.381 622.184Z"/><path fill="#C8C7C2" transform="scale(0.195312 0.195312)" d="M556.278 622.584C554.023 623.073 547.298 624.031 545.511 622.626L546.345 622.412L546.682 623.252L546.789 622.358C548.653 622.29 550.517 622.232 552.381 622.184L556.278 622.584Z"/><path fill="#291A10" transform="scale(0.195312 0.195312)" d="M664.223 372.225C683.104 372.076 702.377 383.52 714.191 397.748C701.905 392.863 689.421 385.522 675.704 385.696C658.279 385.916 639.71 391.212 623.079 396.303C610.442 400.262 598.7 404.699 586.343 409.375C584.095 410.226 580.869 411.433 578.706 410.376C577.332 408.963 576.646 407.518 576.496 405.526C576.195 401.531 577.953 397.21 580.548 394.227C589.862 383.523 647.633 373.113 664.223 372.225Z"/><path fill="#5E311A" transform="scale(0.195312 0.195312)" d="M488.301 563.9C488.012 561.635 487.71 562.004 488.525 560.256C491.513 558.573 500.212 559.491 504.271 559.532C512.501 559.718 520.932 560.049 529.136 559.695C533.321 559.578 544.832 558.675 547.901 560.331C548.725 561.624 548.559 560.913 548.651 562.41C544.866 571.361 540.701 574.991 533.679 581.514C527.866 586.913 521.001 593.986 512.385 589.356C503.464 584.562 492.188 573.187 488.301 563.9Z"/><path fill="#7B4825" transform="scale(0.195312 0.195312)" d="M488.301 563.9C488.893 563.92 490.324 563.966 490.773 564.329C500.528 572.219 513.369 583.006 526.635 576.832C534.912 572.979 541.623 567.862 548.651 562.41C544.866 571.361 540.701 574.991 533.679 581.514C527.866 586.913 521.001 593.986 512.385 589.356C503.464 584.562 492.188 573.187 488.301 563.9Z"/><path fill="#A1664B" transform="scale(0.195312 0.195312)" d="M504.271 559.532C503.806 558 503.625 557.793 502.747 556.437C499.427 551.442 498.201 546.67 499.099 540.785C500.759 529.908 515.831 526.463 525.061 528.944C541.344 533.32 539.239 550.274 529.136 559.695C520.932 560.049 512.501 559.718 504.271 559.532Z"/><path fill="#A1664B" transform="scale(0.195312 0.195312)" d="M288.733 498.653C289.553 501.234 291.115 509.013 291.155 511.506C291.289 520.026 299.799 547.701 298.525 554.123L298.408 553.567C297.421 549.047 295.933 547.44 291.934 544.999C289.241 543.355 285.727 542.61 283.971 545.643C284.524 540.584 284.555 533.388 284.909 528.01C285.518 518.149 286.795 508.341 288.733 498.653Z"/><path fill="#A1664B" transform="scale(0.195312 0.195312)" d="M747.947 519.427C750.002 518.724 755.621 516.204 757.046 516.335L757.681 517.383C757.584 521.954 757.398 539.489 756.647 542.891C750.593 542.821 746.325 543.826 742.726 549.252C741.815 545.52 746.871 525.141 747.947 519.427Z"/><path fill="#F8F8F6" transform="scale(0.195312 0.195312)" d="M742.726 549.252C746.325 543.826 750.593 542.821 756.647 542.891C756.401 546.58 755.657 564.261 753.66 566.231C745.534 567.342 743 560.26 741.822 553.748C741.972 552.081 742.326 550.86 742.726 549.252Z"/><path fill="#F8F8F6" transform="scale(0.195312 0.195312)" d="M283.971 545.643C285.727 542.61 289.241 543.355 291.934 544.999C295.933 547.44 297.421 549.047 298.408 553.567L298.525 554.123L298.721 555.972C297.08 561.12 295.94 564.333 290.384 566.628C282.425 569.915 284.217 550.749 283.971 545.643Z"/><path fill="#311E07" transform="scale(0.195312 0.195312)" d="M704.782 230.284C712.049 234.635 742.322 269.276 743.473 276.392C742.47 275.757 741.059 273.295 740.306 272.162C733.582 262.253 727.102 253.624 719.157 244.653C719.094 244.569 719.031 244.485 718.968 244.401C717.468 244.954 718.143 244.67 716.922 246.197L716.306 246.025C716.613 245.248 716.861 244.669 717.198 243.915C712.344 238.05 711.153 237.126 704.948 232.423L705.766 231.478L705.838 232.045L705.992 231.851L704.782 230.284Z"/><path fill="#21324C" transform="scale(0.195312 0.195312)" d="M447.035 737.99C444.807 746.023 441.258 765.456 434.739 771.452C433.857 773.75 433.578 775.728 433.911 778.206C429.774 804.912 443.821 846.971 451.648 872.431L454.233 880.174L454.768 880.239C461.755 881.16 470.129 883.773 477.251 885.062C491.983 887.727 508.245 889.206 523.186 888.88C535.458 888.572 547.692 887.38 559.793 885.314C561.966 884.957 580.977 880.837 581.002 880.843L581.332 881.362C570.836 911.337 558.899 940.788 545.563 969.612C540.293 981.03 534.883 992.383 529.334 1003.67C526.111 1010.18 522.152 1017.46 519.236 1024L514.918 1024L506.357 1024L495.657 1024L472.791 1024L211.183 1024L201.377 1024C203.026 1012.48 203.372 999.718 205.13 988.004C206.088 981.625 207.278 975.32 208.212 968.976L215.042 920.494C218.752 895.731 222.888 860.438 238.203 840.087C246.852 828.729 257.984 819.499 270.747 813.102C280.842 807.965 291.777 806.433 302.358 802.764C323.138 795.558 344.257 790.054 365.297 783.739C372.001 781.727 380.425 778.719 387.239 777.767C389.372 776.055 390.689 774.339 392.592 772.424C404.137 760.804 417.685 750.037 432.529 743C436.998 740.881 442.026 740.122 446.538 738.207L447.035 737.99Z"/><path fill="#21324C" transform="scale(0.195312 0.195312)" d="M447.035 737.99C444.807 746.023 441.258 765.456 434.739 771.452C433.857 773.75 433.578 775.728 433.911 778.206C429.774 804.912 443.821 846.971 451.648 872.431L454.233 880.174L454.768 880.239C461.755 881.16 470.129 883.773 477.251 885.062C491.983 887.727 508.245 889.206 523.186 888.88C535.458 888.572 547.692 887.38 559.793 885.314C561.966 884.957 580.977 880.837 581.002 880.843L581.332 881.362C570.836 911.337 558.899 940.788 545.563 969.612C540.293 981.03 534.883 992.383 529.334 1003.67C526.111 1010.18 522.152 1017.46 519.236 1024L514.918 1024L506.357 1024L495.657 1024L472.791 1024C474.318 1022.16 474.453 1022.59 476.716 1022.4C472.633 1016.54 463.155 1006.39 458.137 1000.38L422.588 957.276C416.047 949.361 409.916 940.203 403.576 931.945C398.458 925.279 393.287 918.769 388.244 911.979C385.298 908.012 382.803 903.779 379.837 899.429C376.801 894.904 371.124 889.441 369.661 884.243C368.803 881.194 378.902 873.413 380.971 871.336C387.357 864.924 395.206 858.752 401.21 852.082L401.64 851.595C392.46 848.24 366.575 842.766 360.435 839.38C361.217 837.006 362.113 834.569 363.06 832.254C369.568 816.343 375.792 800.337 383.217 784.829C365.471 791.669 343.866 795.86 325.499 802.384C301.756 810.202 275.589 814.022 255.936 830.862C223.829 858.373 223.236 911.714 217.521 950.755C214.094 974.164 210.967 998.767 209.287 1022.12L211.183 1024L201.377 1024C203.026 1012.48 203.372 999.718 205.13 988.004C206.088 981.625 207.278 975.32 208.212 968.976L215.042 920.494C218.752 895.731 222.888 860.438 238.203 840.087C246.852 828.729 257.984 819.499 270.747 813.102C280.842 807.965 291.777 806.433 302.358 802.764C323.138 795.558 344.257 790.054 365.297 783.739C372.001 781.727 380.425 778.719 387.239 777.767C389.372 776.055 390.689 774.339 392.592 772.424C404.137 760.804 417.685 750.037 432.529 743C436.998 740.881 442.026 740.122 446.538 738.207L447.035 737.99Z"/><path fill="#F8F8F6" transform="scale(0.195312 0.195312)" d="M454.233 880.174L454.768 880.239C461.755 881.16 470.129 883.773 477.251 885.062C491.983 887.727 508.245 889.206 523.186 888.88C535.458 888.572 547.692 887.38 559.793 885.314C561.966 884.957 580.977 880.837 581.002 880.843L581.332 881.362C570.836 911.337 558.899 940.788 545.563 969.612C540.293 981.03 534.883 992.383 529.334 1003.67C526.111 1010.18 522.152 1017.46 519.236 1024L514.918 1024C513.741 1020.81 510.237 1014.02 508.58 1010.61C504.419 1002.2 500.378 993.731 496.457 985.205C488.614 967.985 481.149 950.595 474.071 933.047C467.287 916.541 459.594 897.229 454.233 880.174Z"/><path fill="#101E2F" transform="scale(0.195312 0.195312)" d="M447.035 737.99C444.807 746.023 441.258 765.456 434.739 771.452C433.857 773.75 433.578 775.728 433.911 778.206C429.774 804.912 443.821 846.971 451.648 872.431L454.233 880.174C459.594 897.229 467.287 916.541 474.071 933.047C481.149 950.595 488.614 967.985 496.457 985.205C500.378 993.731 504.419 1002.2 508.58 1010.61C510.237 1014.02 513.741 1020.81 514.918 1024L506.357 1024C503.486 1017.26 499.814 1010.78 496.879 1003.96C468.071 937.158 435.703 868.507 426.686 795.653C425.893 789.245 426.249 781.829 427.282 775.417C429.15 763.812 435.783 756.754 441.245 747.136C440.238 747.519 439.237 747.919 438.243 748.335C424.908 753.845 398.724 771.18 391.229 784.097C383.722 797.036 374.661 821.605 368.723 835.953C375.242 836.524 407.105 845.618 414.495 848.046C406.099 858.418 387.397 874.854 377.227 884.195C381.943 892.058 389.001 900.871 394.381 908.431C419.81 944.16 448.466 977.798 477.461 1010.66C480.835 1014.49 483.798 1018.76 487.358 1022.37C488.376 1022.33 489.393 1022.31 490.412 1022.3C493.438 1022.28 493.868 1022.23 495.657 1024L472.791 1024C474.318 1022.16 474.453 1022.59 476.716 1022.4C472.633 1016.54 463.155 1006.39 458.137 1000.38L422.588 957.276C416.047 949.361 409.916 940.203 403.576 931.945C398.458 925.279 393.287 918.769 388.244 911.979C385.298 908.012 382.803 903.779 379.837 899.429C376.801 894.904 371.124 889.441 369.661 884.243C368.803 881.194 378.902 873.413 380.971 871.336C387.357 864.924 395.206 858.752 401.21 852.082L401.64 851.595C392.46 848.24 366.575 842.766 360.435 839.38C361.217 837.006 362.113 834.569 363.06 832.254C369.568 816.343 375.792 800.337 383.217 784.829C365.471 791.669 343.866 795.86 325.499 802.384C301.756 810.202 275.589 814.022 255.936 830.862C223.829 858.373 223.236 911.714 217.521 950.755C214.094 974.164 210.967 998.767 209.287 1022.12L211.183 1024L201.377 1024C203.026 1012.48 203.372 999.718 205.13 988.004C206.088 981.625 207.278 975.32 208.212 968.976L215.042 920.494C218.752 895.731 222.888 860.438 238.203 840.087C246.852 828.729 257.984 819.499 270.747 813.102C280.842 807.965 291.777 806.433 302.358 802.764C323.138 795.558 344.257 790.054 365.297 783.739C372.001 781.727 380.425 778.719 387.239 777.767C389.372 776.055 390.689 774.339 392.592 772.424C404.137 760.804 417.685 750.037 432.529 743C436.998 740.881 442.026 740.122 446.538 738.207L447.035 737.99Z"/><path fill="#21324C" transform="scale(0.195312 0.195312)" d="M591.967 739.85C596.354 740.737 600.242 741.56 604.386 743.344C617.391 748.945 639.689 763.965 647.862 775.398C662.921 780.6 677.613 784.626 692.889 789.042C700.079 791.12 708.966 793.68 715.901 796.155C736.321 803.534 759.45 807.373 777.94 819.247C803.009 835.344 813.806 863.165 818.738 891.282C823.021 915.695 825.899 940.212 829.12 964.762C830.81 977.219 832.432 989.685 833.985 1002.16C834.808 1009 835.968 1017.21 836.058 1024L829.427 1024L739.214 1024L730.671 1024L557.09 1024L546.61 1024L532.785 1024L519.236 1024C522.152 1017.46 526.111 1010.18 529.334 1003.67C534.883 992.383 540.293 981.03 545.563 969.612C558.899 940.788 570.836 911.337 581.332 881.362L583.87 873.464C592.423 847.248 605.79 805.647 603.936 778.415C604.035 775.681 603.698 775.012 602.915 772.399C596.457 758.353 595.045 754.594 591.967 739.85Z"/><path fill="#21324C" transform="scale(0.195312 0.195312)" d="M591.967 739.85C596.354 740.737 600.242 741.56 604.386 743.344C617.391 748.945 639.689 763.965 647.862 775.398C662.921 780.6 677.613 784.626 692.889 789.042C700.079 791.12 708.966 793.68 715.901 796.155C736.321 803.534 759.45 807.373 777.94 819.247C803.009 835.344 813.806 863.165 818.738 891.282C823.021 915.695 825.899 940.212 829.12 964.762C830.81 977.219 832.432 989.685 833.985 1002.16C834.808 1009 835.968 1017.21 836.058 1024L829.427 1024C829.282 1020.96 828.259 1015.04 827.851 1011.75L824.553 984.136C823.422 974.53 822.683 964.684 821.518 955.249C819.913 943.21 818.2 931.187 816.378 919.179C811.447 885.469 806.097 843.724 773.785 824.049C764.218 818.223 750.462 814.037 739.802 810.52C722.659 805.044 705.457 799.753 688.2 794.647C677.441 791.537 665.851 788.602 655.367 784.863C661.316 801.93 671.848 823.329 676.998 839.942C670.483 841.84 640.365 849.513 636.456 851.654C637.643 854.914 664.366 879.174 668.811 883.606C665.323 887.8 660.882 894.603 657.554 899.277C651.525 907.684 645.405 916.025 639.196 924.301C621.327 947.974 602.708 971.073 583.367 993.56C579.907 997.64 576.914 1002.02 573.56 1005.97C568.408 1012.03 562.588 1018.23 557.09 1024L546.61 1024L532.785 1024L519.236 1024C522.152 1017.46 526.111 1010.18 529.334 1003.67C534.883 992.383 540.293 981.03 545.563 969.612C558.899 940.788 570.836 911.337 581.332 881.362L583.87 873.464C592.423 847.248 605.79 805.647 603.936 778.415C604.035 775.681 603.698 775.012 602.915 772.399C596.457 758.353 595.045 754.594 591.967 739.85Z"/><path fill="#101E2F" transform="scale(0.195312 0.195312)" d="M591.967 739.85C596.354 740.737 600.242 741.56 604.386 743.344C617.391 748.945 639.689 763.965 647.862 775.398C662.921 780.6 677.613 784.626 692.889 789.042C700.079 791.12 708.966 793.68 715.901 796.155C736.321 803.534 759.45 807.373 777.94 819.247C803.009 835.344 813.806 863.165 818.738 891.282C823.021 915.695 825.899 940.212 829.12 964.762C830.81 977.219 832.432 989.685 833.985 1002.16C834.808 1009 835.968 1017.21 836.058 1024L829.427 1024C829.282 1020.96 828.259 1015.04 827.851 1011.75L824.553 984.136C823.422 974.53 822.683 964.684 821.518 955.249C819.913 943.21 818.2 931.187 816.378 919.179C811.447 885.469 806.097 843.724 773.785 824.049C764.218 818.223 750.462 814.037 739.802 810.52C722.659 805.044 705.457 799.753 688.2 794.647C677.441 791.537 665.851 788.602 655.367 784.863C661.316 801.93 671.848 823.329 676.998 839.942C670.483 841.84 640.365 849.513 636.456 851.654C637.643 854.914 664.366 879.174 668.811 883.606C665.323 887.8 660.882 894.603 657.554 899.277C651.525 907.684 645.405 916.025 639.196 924.301C621.327 947.974 602.708 971.073 583.367 993.56C579.907 997.64 576.914 1002.02 573.56 1005.97C568.408 1012.03 562.588 1018.23 557.09 1024L546.61 1024C555.84 1013.79 564.919 1003.5 574.261 993.358C582.052 984.905 589.034 974.759 596.699 966.179C609.794 951.519 621.62 936.171 633.25 920.344C634.196 919.047 634.002 917.582 635.043 915.891C635.761 915.785 636.376 915.679 637.088 915.537C642.921 908.294 655.206 891.49 659.688 883.688C656.733 881.798 654.377 878.908 651.714 876.714C641.439 868.245 632.02 856.42 622.159 848.035C626.362 846.551 631.191 845.553 635.51 844.253C646.234 841.025 657.014 838.094 667.88 835.373C658.123 813.8 654.166 789.345 636.154 772.785C623.901 761.521 613.709 754.094 598.054 747.79C603.09 756.516 609.155 764.955 610.639 775.194C616.026 812.373 580.903 905.394 565.741 941.479C562.074 950.205 529.682 1020.44 529.912 1022.12C530.878 1022.73 531.836 1023.36 532.785 1024L519.236 1024C522.152 1017.46 526.111 1010.18 529.334 1003.67C534.883 992.383 540.293 981.03 545.563 969.612C558.899 940.788 570.836 911.337 581.332 881.362L583.87 873.464C592.423 847.248 605.79 805.647 603.936 778.415C604.035 775.681 603.698 775.012 602.915 772.399C596.457 758.353 595.045 754.594 591.967 739.85Z"/><path fill="#C8C7C2" transform="scale(0.195312 0.195312)" d="M596.228 881.867C606.224 882.553 614.776 883.176 623.205 889.885C628.617 892.162 633.39 892.196 639.19 892.279C636.371 898.085 634.791 902.228 632.894 908.417C632.188 911.062 631.402 917.138 629.806 918.131L628.36 918.074L627.587 919.487C620.577 923.634 606.825 913.688 600.86 910.709C597.43 908.996 582.838 911.066 590.555 902.771C591.077 902.212 591.398 901.163 591.716 900.391L592.164 898.409C593.129 895.799 594.272 891.173 595.054 888.352C595.396 886.155 595.675 884.022 596.228 881.867Z"/><path fill="#C8C7C2" transform="scale(0.195312 0.195312)" d="M592.164 898.409C595.252 900.919 600.746 899.233 603.52 900.47C615.168 905.662 617.47 910.606 631.482 910.145C631.992 909.306 632.223 909.148 632.894 908.417C632.188 911.062 631.402 917.138 629.806 918.131L628.36 918.074L627.587 919.487C620.577 923.634 606.825 913.688 600.86 910.709C597.43 908.996 582.838 911.066 590.555 902.771C591.077 902.212 591.398 901.163 591.716 900.391L592.164 898.409Z"/><path fill="#101E2F" transform="scale(0.195312 0.195312)" d="M628.36 918.074L627.587 919.487C620.577 923.634 606.825 913.688 600.86 910.709C597.43 908.996 582.838 911.066 590.555 902.771L589.859 907.033C597.619 907.938 600.911 905.238 608.413 911.294C614.571 916.266 620.618 917.612 628.36 918.074Z"/><path fill="#A4483D" transform="scale(0.195312 0.195312)" d="M592.164 898.409C595.252 900.919 600.746 899.233 603.52 900.47C615.168 905.662 617.47 910.606 631.482 910.145C625.4 917.837 609.646 905.048 603.78 902.476C600.54 901.055 594.919 902.49 591.716 900.391L592.164 898.409Z"/><path fill="#A4483D" transform="scale(0.195312 0.195312)" d="M592.095 903.213C608.406 903.392 604.695 907.625 618.626 913.38C622.684 915.056 628.283 914.108 629.82 914.988L629.888 916.32C616.326 917.951 612.487 910.868 601.279 906.301C598.654 905.231 594.432 906.355 592.143 905.003L592.095 903.213Z"/><path fill="#4A4E8E" transform="scale(0.195312 0.195312)" d="M598.322 887.424C598.405 885.865 598.374 885.744 597.584 884.397L597.939 883.832C603.038 883.194 611.352 884.287 615.862 886.788L616.102 887.35C615.799 888.104 615.406 888.928 615.246 889.712L614.633 891.062L613.492 892.792L613.675 896.163L613.288 897.947C611.963 898.09 595.699 895.071 595.248 893.055C596.261 890.896 598.426 891.367 598.322 887.424Z"/><path fill="#A4483D" transform="scale(0.195312 0.195312)" d="M596.228 881.867C606.224 882.553 614.776 883.176 623.205 889.885C626.238 894.431 634.336 891.78 636.475 894.446C634.454 899.771 618.394 891.525 615.246 889.712C615.406 888.928 615.799 888.104 616.102 887.35L615.862 886.788C611.352 884.287 603.038 883.194 597.939 883.832L597.584 884.397C598.374 885.744 598.405 885.865 598.322 887.424C596.543 888.301 596.456 888.771 595.054 888.352C595.396 886.155 595.675 884.022 596.228 881.867Z"/><path fill="#A4483D" transform="scale(0.195312 0.195312)" d="M613.675 896.163C619.043 899.154 624.994 902.151 631.143 901.718C632.96 901.59 633.743 901.491 634.216 902.846C629.414 906.525 617.808 900.556 613.288 897.947L613.675 896.163Z"/><path fill="#A4483D" transform="scale(0.195312 0.195312)" d="M614.633 891.062L615.147 891.477C618.23 893.924 619.601 894.282 622.989 895.816C625.637 897.014 633.86 897.439 634.773 898.735C630.235 901.889 617.502 896.171 613.492 892.792L614.633 891.062Z"/><path fill="#A4483D" transform="scale(0.195312 0.195312)" d="M602.879 897.247C611.082 899.108 614.156 901.787 621.815 904.573C624.455 905.534 629.845 905.348 632.677 906.548L632.628 907.036L632.907 906.807L632.449 906.467L631.97 907.226C616.102 909.083 613.503 900.192 602.161 898.412C602.307 897.965 602.589 897.66 602.879 897.247Z"/><path fill="#9B7373" transform="scale(0.195312 0.195312)" d="M602.161 898.412C599.634 898.291 597.391 898.344 594.992 897.579L594.992 897.133C597.194 896.417 600.639 896.758 602.879 897.247C602.589 897.66 602.307 897.965 602.161 898.412Z"/><path fill="#101E2F" transform="scale(0.195312 0.195312)" d="M730.671 1024C731.662 1010.38 732.716 997.122 732.887 983.436C732.953 978.116 731.029 947.843 733.766 945.013C735.249 945.751 735.257 946.071 736.386 947.393L736.965 947.053C737.853 943.248 738.203 937.35 738.633 933.316C739.298 927.415 740.125 921.534 741.111 915.679C745.379 890.891 753.741 862.419 762.34 838.886C763.368 836.075 766.415 827.085 767.604 825.06C767.833 825.775 763.141 840.962 762.495 843.087C758.835 855.132 754.853 867.023 752.266 879.376C749.82 890.202 748.675 900.523 746.7 911.173C744.131 925.029 741.571 938.386 740.36 952.499C739.092 967.284 739.952 981.864 740.091 996.626C740.175 1005.5 739.142 1014.97 739.214 1024L730.671 1024Z"/></svg>