<?xml version="1.0" encoding="utf-8" ?><svg xmlns="http://www.w3.org/2000/svg" xmlns:xlink="http://www.w3.org/1999/xlink" width="200" height="200" viewBox="0 0 200 200"><path fill="#B85E39" transform="scale(0.195312 0.195312)" d="M298.023 302.298C301.375 259.708 301.532 216.928 298.492 174.315C297.582 157.859 296.148 141.436 294.192 125.072C292.629 113.004 290.949 100.814 288.674 88.8595C287.173 80.9701 285.116 73.1281 283.836 65.2069C282.984 59.9323 283.401 54.5354 286.756 50.1759C300.616 32.1686 351.074 25.6521 373.056 23.0701C418.003 17.7907 463.701 15.7381 508.938 15.0971C558.19 14.3991 716.511 17.2625 752.202 45.9018C756.378 49.2527 759.566 53.9534 759.39 59.5285C759.181 66.1847 756.678 73.5204 755.405 80.0864C752.986 92.415 751.018 104.828 749.505 117.3C741.8 182.365 738.794 236.266 745.432 301.695L746.39 301.426C748.609 300.819 750.984 300.491 753.251 300.033C777.693 295.137 804.382 290.161 827.459 302.775C846.188 313.012 849.985 335.105 839.19 352.686C827.374 371.931 805.987 381.318 784.887 386.448C783.72 394.525 783.315 402.885 782.397 410.976C781.536 418.571 780.421 426.314 779.409 433.907C784.38 433.822 791.588 433.167 794.927 437.311C819.9 468.308 798.153 518.301 778.748 547.162C770.91 558.821 765.39 566.134 751.345 566.142C749.405 566.458 748.866 566.154 747.936 567.295C747.781 572.656 751.565 588.739 750.234 591.804C747.686 591.94 744.538 590.027 742.206 588.808L742.321 589.618C743.585 598.178 747.148 607.267 747.775 615.715C748.647 627.49 746.989 637.014 749.404 648.958L748.944 650.048C744.57 651.512 737.515 644.883 734.253 642.146C733.89 651.041 736.876 660.512 735.44 669.752C732.752 687.055 737.629 709.077 718.56 682.316C717.253 690.777 715.903 699.134 713.319 707.345C710.238 717.138 707.589 724.623 705.698 734.707C704.535 740.912 706.43 758.205 704.815 760.92C697.443 762.334 687.695 748.682 682.962 743.574C680.57 756.998 677.877 762.661 671.708 775.023C670.688 776.945 669.644 779.012 668.51 780.855C662.874 788.881 658.527 793.558 649.162 796.792C649.771 789.042 649.626 784.667 647.827 777.064C645.949 780.709 641.849 792.596 640.368 797.05L641.172 797.357C641.976 800.826 641.947 810.892 639.726 813.869C639.699 816.753 639.658 819.757 639.446 822.625C637.26 852.201 634.215 882.062 622.169 909.453C618.828 915.129 614.698 922.695 611.628 928.218C607.891 934.942 586.242 966.987 580.786 967.947C577.807 974.89 545.019 1001.18 537.479 1005.25L537.037 1004.93L536.776 1002.21C536.552 1005.56 536.55 1005.99 533.954 1008.16C529.602 1011.79 524.365 1014.88 519.639 1018.08C516.235 1015.29 504.126 1007.85 503.723 1005.15L502.896 1005.52C496.292 1002.4 461.314 974.367 459.231 967.533C458.548 967.761 458.955 967.706 457.999 967.489C439.811 949.49 430.928 930.482 417.821 909.463C418.047 914.595 422.618 926.632 424.441 931.803C435.435 962.988 449.574 993.878 463.45 1024L394.363 1024L171.765 1024C173.031 1015.29 175.342 1005.87 176.966 997.126C182.648 966.546 190.415 936.522 199.618 906.809C204.107 892.319 211.291 869.267 219.693 856.523C238.296 828.302 275.992 818.773 306.009 808.056C314.985 804.852 334.895 797.42 343.571 795.591C350.413 786.239 362.94 777.984 372.615 771.854C370.912 767.94 368.773 764.164 367.338 760.146C365.279 754.382 363.61 748.48 361.683 742.649C354.669 753.836 352.271 757.812 338.992 761.561C342.614 733.896 338.576 728.497 330.197 702.264C328.892 698.179 326.993 687.304 326.131 682.669C323.891 685.408 314.077 697.857 310.039 694.765C308.766 690.903 308.986 686.899 308.389 682.937C306.251 668.743 306.472 655.809 306.926 641.527C303.822 644.859 295.949 652.854 291.244 649.838C290.868 647.235 292.457 643.895 292.516 640.987C292.813 630.589 291.329 619.456 293.271 609.211C294.477 602.846 296.059 596.41 297.362 590.031C295.073 590.813 292.433 591.997 290.149 591.303C287.939 587.797 292.192 572.063 292.503 566.93C281.69 565.258 274.293 560.482 267.403 551.985C248.189 527.755 234.427 494.494 237.02 463.23C238.392 446.697 244.839 432.696 263.922 434.405C260.576 419.246 259.603 402.553 258.39 387.062L257.918 386.955C238.313 382.482 215.499 371.525 204.422 354.207C193.196 336.655 196.208 313.561 215.011 302.831C239.475 288.87 272.329 295.801 298.023 302.298Z"/><path fill="#202020" transform="scale(0.195312 0.195312)" d="M298.023 302.298C301.375 259.708 301.532 216.928 298.492 174.315C297.582 157.859 296.148 141.436 294.192 125.072C292.629 113.004 290.949 100.814 288.674 88.8595C287.173 80.9701 285.116 73.1281 283.836 65.2069C282.984 59.9323 283.401 54.5354 286.756 50.1759C300.616 32.1686 351.074 25.6521 373.056 23.0701C418.003 17.7907 463.701 15.7381 508.938 15.0971C558.19 14.3991 716.511 17.2625 752.202 45.9018C756.378 49.2527 759.566 53.9534 759.39 59.5285C759.181 66.1847 756.678 73.5204 755.405 80.0864C752.986 92.415 751.018 104.828 749.505 117.3C741.8 182.365 738.794 236.266 745.432 301.695L746.39 301.426C748.609 300.819 750.984 300.491 753.251 300.033C777.693 295.137 804.382 290.161 827.459 302.775C846.188 313.012 849.985 335.105 839.19 352.686C827.374 371.931 805.987 381.318 784.887 386.448C785.045 381.908 784.845 373.756 781.026 370.83C767.342 360.345 737.598 357.857 720.393 358.002C697.096 356.288 674.542 356.552 651.251 357.213C598.638 358.869 546.334 361.728 493.652 360.779C450.86 360.008 407.496 356.713 364.76 356.564C349.579 356.617 334.403 357.093 319.249 357.993C302.216 358.254 275.857 360.527 262.128 370.908C258.223 373.862 257.853 382.486 258.39 387.062L257.918 386.955C238.313 382.482 215.499 371.525 204.422 354.207C193.196 336.655 196.208 313.561 215.011 302.831C239.475 288.87 272.329 295.801 298.023 302.298Z"/><path fill="#E3C497" transform="scale(0.195312 0.195312)" d="M319.249 357.993C334.403 357.093 349.579 356.617 364.76 356.564C407.496 356.713 450.86 360.008 493.652 360.779C546.334 361.728 598.638 358.869 651.251 357.213C674.542 356.552 697.096 356.288 720.393 358.002C737.598 357.857 767.342 360.345 781.026 370.83C784.845 373.756 785.045 381.908 784.887 386.448C783.72 394.525 783.315 402.885 782.397 410.976C781.536 418.571 780.421 426.314 779.409 433.907C759.722 436.837 757.104 459.743 753.446 475.659C750.505 472.841 742.281 466.051 738.984 463.698L738.176 463.127C735.307 461.084 734.133 462.194 731.655 461L731.273 458.553C728.219 486.602 724.154 521.645 714.525 548.047C703.294 578.843 674.327 608.5 648.334 627.768C644.824 619.727 641.143 611.763 637.293 603.88C629.565 587.973 624.109 577.916 605.51 571.29C585.034 563.995 550.598 558.393 529.328 565.751C528.563 566.015 522.903 569.002 521.767 569.566C516.597 567.295 509.047 564.141 503.31 563.354C483.389 560.622 454.759 564.614 435.974 571.365C419.254 577.375 411.989 587.808 405.128 603.114C401.95 610.204 397.209 620.179 393.639 627.097C375.973 616.038 361.027 601.744 348.554 585.036C340.5 574.248 332.38 563.384 327.078 550.824C316.048 522.383 313.167 490.535 309.428 460.421C309.347 459.772 309.48 460.179 309.233 459.629C309.114 460.059 308.995 460.489 308.876 460.919C301.398 465.238 295.477 469.303 290.629 476.587L290.083 476.8L289.438 476.504C288.647 476.146 288.974 476.249 288.341 476.101C286.989 468.337 284.694 458.802 282.067 451.434C278.65 441.853 272.524 438.308 263.922 434.405C260.576 419.246 259.603 402.553 258.39 387.062C257.853 382.486 258.223 373.862 262.128 370.908C275.857 360.527 302.216 358.254 319.249 357.993Z"/><path fill="#643212" transform="scale(0.195312 0.195312)" d="M720.393 358.002C737.598 357.857 767.342 360.345 781.026 370.83C784.845 373.756 785.045 381.908 784.887 386.448C783.72 394.525 783.315 402.885 782.397 410.976C781.536 418.571 780.421 426.314 779.409 433.907C759.722 436.837 757.104 459.743 753.446 475.659C750.505 472.841 742.281 466.051 738.984 463.698L738.176 463.127C735.307 461.084 734.133 462.194 731.655 461L731.273 458.553C732.69 442.072 733.4 421.306 730.469 404.824C729.129 397.286 720.389 387.345 719.617 379.148C718.99 372.486 720.439 365.478 720.402 358.632L720.393 358.002Z"/><path fill="#643212" transform="scale(0.195312 0.195312)" d="M258.39 387.062C257.853 382.486 258.223 373.862 262.128 370.908C275.857 360.527 302.216 358.254 319.249 357.993C320.546 381.745 325.158 380.201 312.756 402.145C306.032 414.043 307.671 445.509 309.233 459.629C309.114 460.059 308.995 460.489 308.876 460.919C301.398 465.238 295.477 469.303 290.629 476.587L290.083 476.8L289.438 476.504C288.647 476.146 288.974 476.249 288.341 476.101C286.989 468.337 284.694 458.802 282.067 451.434C278.65 441.853 272.524 438.308 263.922 434.405C260.576 419.246 259.603 402.553 258.39 387.062Z"/><defs><linearGradient id="gradient_0" gradientUnits="userSpaceOnUse" x1="649.02325" y1="425.54111" x2="634.79016" y2="491.98993"><stop offset="0" stop-color="#060B01"/><stop offset="1" stop-color="#31230A"/></linearGradient></defs><path fill="url(#gradient_0)" transform="scale(0.195312 0.195312)" d="M585.72 472.655C584.077 463.356 588.754 453.81 593.693 446.163C601.094 434.786 614.495 427.386 627.767 425.086C643.556 422.35 660.498 425.883 674.159 434.162C682.058 438.95 702.726 466.304 692.98 473.89C691.628 475.41 688.891 478.828 687.551 479.889C682.114 484.193 657.448 494.088 651.534 489.768C641.293 493.507 630.113 492.904 619.938 489.289C616.754 491.208 604.093 487.531 600.314 486.34C592.753 483.958 583.914 482.398 585.72 472.655Z"/><path fill="#F7F7F3" transform="scale(0.195312 0.195312)" d="M665.371 438.449C683.03 450.127 683.251 454.937 692.98 473.89C691.628 475.41 688.891 478.828 687.551 479.889C682.114 484.193 657.448 494.088 651.534 489.768C658.153 486.075 663.35 480.278 666.302 473.296C671.099 461.846 670.076 449.694 665.371 438.449Z"/><path fill="#F7F7F3" transform="scale(0.195312 0.195312)" d="M585.72 472.655C589.16 462.307 594.558 451.639 602.977 444.489C603.073 462.738 602.576 478.604 619.938 489.289C616.754 491.208 604.093 487.531 600.314 486.34C592.753 483.958 583.914 482.398 585.72 472.655Z"/><path fill="#66472C" transform="scale(0.195312 0.195312)" d="M654.905 466.616C656.745 463.892 658.493 460.662 662.464 462.145C664.252 463.935 664.35 466.462 663.811 468.837C660.613 477.146 660.511 482.594 651.454 486.651C640.346 491.627 624.744 489.84 615.101 482.178L614.971 481.675C616.071 482.135 617.558 483.027 618.45 482.796C617.44 480.985 617.6 480.503 615.372 480.096L614.886 479.082C614.632 477.901 613.967 477.216 613.661 476.174C612.579 472.485 617.133 471.019 619.789 470.35C626.971 479.902 636.25 483.959 646.671 476.384C648.773 474.53 649.989 473.143 651.824 471.076C652.621 469.619 653.908 467.989 654.905 466.616Z"/><path fill="#442D13" transform="scale(0.195312 0.195312)" d="M654.905 466.616C656.745 463.892 658.493 460.662 662.464 462.145C664.252 463.935 664.35 466.462 663.811 468.837C660.473 467.723 658.421 466.892 654.905 466.616Z"/><path fill="#7D5A3B" transform="scale(0.195312 0.195312)" d="M651.824 471.076C653.098 475.566 651.687 478.304 646.671 476.384C648.773 474.53 649.989 473.143 651.824 471.076Z"/><path fill="#F7F7F3" transform="scale(0.195312 0.195312)" d="M618.739 438.498C628.663 437.884 631.619 445.558 623.759 450.832C622.804 451.17 621.808 451.378 620.797 451.452C614.448 451.859 614.083 443.048 618.739 438.498Z"/><path fill="#442D13" transform="scale(0.195312 0.195312)" d="M611.936 466.465C611.716 463.808 612.307 460.551 615.044 459.516L615.969 460.195C616.528 461.649 616.636 461.834 616.868 463.352C617.804 466.496 619.06 468.174 619.789 470.35C617.133 471.019 612.579 472.485 613.661 476.174C613.967 477.216 614.632 477.901 614.886 479.082C613.76 480.191 614.344 480.022 613.092 480.289L612.758 479.503L613.747 478.206C610.635 473.725 610.257 469.57 608.859 464.265L609.297 463.943C610.606 466.337 609.864 468.647 611.162 471.072L611.768 470.713C612.505 467.997 612.636 468.927 611.936 466.465Z"/><path fill="#2E1C0B" transform="scale(0.195312 0.195312)" d="M611.936 466.465C611.716 463.808 612.307 460.551 615.044 459.516L615.969 460.195C616.528 461.649 616.636 461.834 616.868 463.352C614.423 464.395 614.072 464.776 611.936 466.465Z"/><path fill="#181817" transform="scale(0.195312 0.195312)" d="M348.927 474.225C341.864 464.838 356.676 442.342 364.62 436.237C386.733 419.247 426.52 419.253 445.111 441.911C450.809 448.855 457.104 462.016 456.329 471.091C456.691 473.904 456.996 477.491 454.967 479.897C449.989 485.799 435.39 488.188 427.979 489.349C426.525 489.577 425.356 489.465 424.111 488.857L423.1 489.21C413.697 493.276 400.165 492.548 390.553 489.283C384.536 494.664 353.662 482.623 348.927 474.225Z"/><path fill="#66472C" transform="scale(0.195312 0.195312)" d="M386.909 464.546C387.752 464.135 388.52 463.768 389.38 463.395C391.855 464.361 391.475 466.74 391.804 469.295C401.126 477.093 403.643 477.415 415.59 475.919C418.335 473.353 418.948 472.089 420.902 469.012L421.068 469.419C422.566 469.862 422.64 469.788 423.869 470.7L424.981 469.321C426.129 470.007 426.328 471.029 426.85 472.319C427.261 474.974 426.764 474.022 428.546 475.976C430.183 476.661 430.722 476.434 432.468 476.186C433.27 477.491 433.111 477.983 433.775 479.189C430.962 483.326 428.656 486.271 424.111 488.857L423.1 489.21C413.697 493.276 400.165 492.548 390.553 489.283C387.138 487.835 384.933 485.682 382.27 483.218L383.93 482.693C380.522 477.406 378.745 471.905 377.573 465.797C381.11 464.135 383.289 462.44 386.909 464.546Z"/><path fill="#643212" transform="scale(0.195312 0.195312)" d="M377.573 465.797C381.11 464.135 383.289 462.44 386.909 464.546L386.783 465.167C384.919 466.632 384.958 468.118 384.486 470.627C387.69 475.824 391.426 482.301 396.088 486.164C392.1 486.975 387.307 484.742 383.93 482.693C380.522 477.406 378.745 471.905 377.573 465.797Z"/><path fill="#442D13" transform="scale(0.195312 0.195312)" d="M383.93 482.693C387.307 484.742 392.1 486.975 396.088 486.164C406.125 491.746 411.737 490.02 421.485 485.096C422.546 486.899 422.326 487.421 423.1 489.21C413.697 493.276 400.165 492.548 390.553 489.283C387.138 487.835 384.933 485.682 382.27 483.218L383.93 482.693Z"/><defs><linearGradient id="gradient_1" gradientUnits="userSpaceOnUse" x1="402.4288" y1="468.68915" x2="399.30823" y2="477.29312"><stop offset="0" stop-color="#271B06"/><stop offset="1" stop-color="#41270F"/></linearGradient></defs><path fill="url(#gradient_1)" transform="scale(0.195312 0.195312)" d="M386.909 464.546C387.752 464.135 388.52 463.768 389.38 463.395C391.855 464.361 391.475 466.74 391.804 469.295C401.126 477.093 403.643 477.415 415.59 475.919C418.335 473.353 418.948 472.089 420.902 469.012L421.068 469.419C419.257 474.973 416.022 475.797 415.591 479.273C400.513 481.235 394.21 478.597 386.783 465.167L386.909 464.546Z"/><path fill="#442D13" transform="scale(0.195312 0.195312)" d="M421.068 469.419C422.566 469.862 422.64 469.788 423.869 470.7C422.389 473.616 420.685 475.555 418.456 477.938L415.591 479.273C416.022 475.797 419.257 474.973 421.068 469.419Z"/><path fill="#F7F7F3" transform="scale(0.195312 0.195312)" d="M348.927 474.225C358.769 459.075 357.954 447.275 377.173 438.991C372.065 449.264 371.307 461.16 375.069 471.998C376.725 476.701 378.744 479.734 382.27 483.218C384.933 485.682 387.138 487.835 390.553 489.283C384.536 494.664 353.662 482.623 348.927 474.225Z"/><path fill="#F7F7F3" transform="scale(0.195312 0.195312)" d="M437.618 442.477C448.912 456.251 449.565 453.756 456.329 471.091C456.691 473.904 456.996 477.491 454.967 479.897C449.989 485.799 435.39 488.188 427.979 489.349C426.525 489.577 425.356 489.465 424.111 488.857C428.656 486.271 430.962 483.326 433.775 479.189L435.224 475.992C441.116 462.92 439.509 456.329 437.618 442.477Z"/><path fill="#643212" transform="scale(0.195312 0.195312)" d="M431.214 465.74C433.555 470.096 433.431 474.809 434.636 475.871L435.224 475.992L433.775 479.189C433.111 477.983 433.27 477.491 432.468 476.186C430.722 476.434 430.183 476.661 428.546 475.976C426.764 474.022 427.261 474.974 426.85 472.319C426.328 471.029 426.129 470.007 424.981 469.321C425.641 466.491 428.74 466.302 431.214 465.74Z"/><path fill="#2E1C0B" transform="scale(0.195312 0.195312)" d="M420.902 469.012C421.2 468.085 421.489 466.403 422.264 465.956C425.371 464.161 428.787 462.369 431.214 465.74C428.74 466.302 425.641 466.491 424.981 469.321L423.869 470.7C422.64 469.788 422.566 469.862 421.068 469.419L420.902 469.012Z"/><path fill="#F7F7F3" transform="scale(0.195312 0.195312)" d="M391.014 438.001C401.13 436.98 397.493 446.795 392.317 451.181C386.308 451.848 383.142 442.323 391.014 438.001Z"/><path fill="#643212" transform="scale(0.195312 0.195312)" d="M380.418 368.686C399.286 366.106 435.953 372.785 453.605 381.547C459.544 384.495 469.48 399.109 465.011 405.412C461.058 407.337 447.856 401.962 443.175 400.742C435.257 398.68 427.277 396.696 419.324 394.758C394.879 389.279 376.604 385.907 352.583 397.042C348.818 398.788 339.894 403.352 335.897 403.416L335.389 402.394C335.596 399.094 338.375 394.975 340.407 392.358C351.197 378.459 363.123 371.071 380.418 368.686Z"/><path fill="#643212" transform="scale(0.195312 0.195312)" d="M644.604 368.706C672.14 365.184 697.692 377.926 707.637 404.408C679.191 393.136 674.347 386.375 640.88 391.169C627.178 392.931 612.736 397.575 599.196 400.53C595.003 401.446 581.253 407.469 578.39 405.504C572.393 391.68 588.261 379.397 600.113 376.526C614.263 373.098 630.161 369.936 644.604 368.706Z"/><path fill="#181817" transform="scale(0.195312 0.195312)" d="M343.571 795.591C350.413 786.239 362.94 777.984 372.615 771.854L375.361 776.941C372.179 781.554 359.555 787.872 355.229 793.249C339.941 812.248 321.127 844.49 311.867 866.711C328.951 879.124 348.781 890.271 366.415 901.585C376.674 908.168 327.691 934.35 322.354 938.122C325.803 944.792 331.982 953.297 336.42 959.417C346.627 973.755 357.877 987.321 370.077 1000.01C378.07 1008.35 386.246 1015.9 394.363 1024L171.765 1024C173.031 1015.29 175.342 1005.87 176.966 997.126C182.648 966.546 190.415 936.522 199.618 906.809C204.107 892.319 211.291 869.267 219.693 856.523C238.296 828.302 275.992 818.773 306.009 808.056C314.985 804.852 334.895 797.42 343.571 795.591Z"/><path fill="#202020" transform="scale(0.195312 0.195312)" d="M375.361 776.941C381.829 787.617 386.03 791.191 397.003 796.685C396.417 789.308 396.214 785.237 397.019 777.809C400.618 791.146 405.521 804.598 413.972 815.809C419.514 823.162 427.443 827.576 435.759 831.243C433.677 821.905 433.406 816.398 434.251 806.837C442.959 827.524 455.755 840.767 476.516 850.442C477.943 851.107 480.551 851.768 482.135 852.146C480.876 847.725 476.318 834.396 481.216 831.387C483.046 831.948 484.735 835.201 485.385 836.96C485.824 839.334 486.079 839.767 487.331 841.858C487.28 843.744 485.298 859.496 484.882 860.945L483.85 861.402L485.364 862.156C486.114 864.503 486.32 867.98 486.703 870.551C487.379 875.089 488.168 878.589 489.359 882.999C481.534 897.335 467.158 908.819 462.179 925.883C458.209 939.492 457.11 953.539 459.231 967.533C458.548 967.761 458.955 967.706 457.999 967.489C439.811 949.49 430.928 930.482 417.821 909.463C418.047 914.595 422.618 926.632 424.441 931.803C435.435 962.988 449.574 993.878 463.45 1024L394.363 1024C386.246 1015.9 378.07 1008.35 370.077 1000.01C357.877 987.321 346.627 973.755 336.42 959.417C331.982 953.297 325.803 944.792 322.354 938.122C327.691 934.35 376.674 908.168 366.415 901.585C348.781 890.271 328.951 879.124 311.867 866.711C321.127 844.49 339.941 812.248 355.229 793.249C359.555 787.872 372.179 781.554 375.361 776.941Z"/><path fill="#F7F7F3" transform="scale(0.195312 0.195312)" d="M399.634 813.11L400.044 813.647C416.723 835.119 456.8 857.849 483.85 861.402L485.364 862.156C486.114 864.503 486.32 867.98 486.703 870.551C487.379 875.089 488.168 878.589 489.359 882.999C481.534 897.335 467.158 908.819 462.179 925.883C458.209 939.492 457.11 953.539 459.231 967.533C458.548 967.761 458.955 967.706 457.999 967.489C439.811 949.49 430.928 930.482 417.821 909.463C403.592 875.63 402.44 849.213 399.634 813.11Z"/><path fill="#181817" transform="scale(0.195312 0.195312)" d="M640.368 797.05L641.172 797.357C641.976 800.826 641.947 810.892 639.726 813.869C639.699 816.753 639.658 819.757 639.446 822.625C637.26 852.201 634.215 882.062 622.169 909.453C618.828 915.129 614.698 922.695 611.628 928.218C607.891 934.942 586.242 966.987 580.786 967.947C577.807 974.89 545.019 1001.18 537.479 1005.25L537.037 1004.93L536.776 1002.21C536.552 1005.56 536.55 1005.99 533.954 1008.16C529.602 1011.79 524.365 1014.88 519.639 1018.08C516.235 1015.29 504.126 1007.85 503.723 1005.15L502.896 1005.52C496.292 1002.4 461.314 974.367 459.231 967.533C457.11 953.539 458.209 939.492 462.179 925.883C467.158 908.819 481.534 897.335 489.359 882.999C488.168 878.589 487.379 875.089 486.703 870.551C486.32 867.98 486.114 864.503 485.364 862.156L483.85 861.402L484.882 860.945C485.298 859.496 487.28 843.744 487.331 841.858C486.079 839.767 485.824 839.334 485.385 836.96C494.78 849.874 506.347 860.223 520.677 867.514C528.551 863.035 536.538 857.264 543.593 851.6C550.763 845.842 555.245 837.679 561.514 831.217C561.718 841.689 560.946 844.224 556.027 853.614C556.502 853.519 556.976 853.419 557.449 853.313C576.207 849.079 593.885 833.072 603.394 816.809C605.401 813.378 607.475 810.027 609.608 806.669C609.803 816.521 609.582 821.358 608.271 831.119C608.74 830.947 609.206 830.77 609.67 830.587C626.403 823.959 633.485 812.799 640.368 797.05Z"/><path fill="#F7F7F3" transform="scale(0.195312 0.195312)" d="M639.726 813.869C639.699 816.753 639.658 819.757 639.446 822.625C637.26 852.201 634.215 882.062 622.169 909.453C618.828 915.129 614.698 922.695 611.628 928.218C607.891 934.942 586.242 966.987 580.786 967.947C581.957 961.032 581.602 954.395 581.682 947.478C581.999 920.294 566.129 904.732 551.092 884.242C551.56 877.415 553.76 870.306 554.363 861.688C554.762 861.641 555.16 861.588 555.557 861.529C582.862 857.357 623.524 836.192 639.726 813.869Z"/><path fill="#F7F7F3" transform="scale(0.195312 0.195312)" d="M513.302 896.446C517.798 896.59 522.415 896.532 526.922 896.53C531.348 913.464 541.432 929.708 542.381 947.722C543.335 965.835 539.664 984.332 536.776 1002.21C536.552 1005.56 536.55 1005.99 533.954 1008.16C529.602 1011.79 524.365 1014.88 519.639 1018.08C516.235 1015.29 504.126 1007.85 503.723 1005.15C502.727 994.981 499.867 979.771 498.323 969.257C493.99 939.752 504.306 923.33 513.302 896.446Z"/><path fill="#E3C497" transform="scale(0.195312 0.195312)" d="M779.409 433.907C784.38 433.822 791.588 433.167 794.927 437.311C819.9 468.308 798.153 518.301 778.748 547.162C770.91 558.821 765.39 566.134 751.345 566.142C750.026 566.138 748.522 566.414 747.731 565.778C743.608 533.714 746.778 507.173 753.446 475.659C757.104 459.743 759.722 436.837 779.409 433.907Z"/><path fill="#E3C497" transform="scale(0.195312 0.195312)" d="M292.503 566.93C281.69 565.258 274.293 560.482 267.403 551.985C248.189 527.755 234.427 494.494 237.02 463.23C238.392 446.697 244.839 432.696 263.922 434.405C272.524 438.308 278.65 441.853 282.067 451.434C284.694 458.802 286.989 468.337 288.341 476.101C291.703 502.564 295.343 529.166 293.584 555.871C293.356 559.334 292.532 563.647 292.503 566.93Z"/><path fill="#E3C497" transform="scale(0.195312 0.195312)" d="M521.519 592.087C529.593 594.845 534.313 597.363 542.935 597.985C548.816 597.897 568.258 597.447 573.522 598.479C576.415 598.5 585.171 599.864 587.147 601.819L586.567 602.292L589.718 602.82C594.366 603.843 601.053 611.306 603.878 615.531C622.365 643.175 589.35 686.093 558.807 678.826C554.645 677.836 550.243 675.769 548.108 671.94C542.635 664.104 552.289 646.826 543.018 643.814C539.979 642.827 531.297 644.713 526.576 645.192C516.998 646.165 506.849 642.912 497.927 643.832C497.196 643.908 495.042 646.823 494.435 647.689C495.633 664.635 498.245 678.812 476.214 679.872C465.213 680.402 453.43 672.09 445.988 664.905C437.719 657.039 432.968 646.174 432.808 634.763C432.585 621.432 438.215 610.394 449.804 603.587L451.866 602.723L455.04 602.394L455.417 601.447C459.014 598.88 465.594 598.441 470.025 598.132L472.389 597.953C475.985 597.107 498.795 597.593 504.323 597.586C512.615 595.837 514.485 594.341 521.519 592.087Z"/><path fill="#F7F7F3" transform="scale(0.195312 0.195312)" d="M521.519 592.087C529.593 594.845 534.313 597.363 542.935 597.985C548.816 597.897 568.258 597.447 573.522 598.479C576.415 598.5 585.171 599.864 587.147 601.819L586.567 602.292C580.214 602.9 581.182 603.035 576.112 605.942L575.066 608.992L576.425 610.347L573.523 612.816C572.713 613.372 572.702 613.444 571.809 613.822C569.684 616.272 563.764 618.576 560.592 619.888C541.191 627.914 519.3 629.913 498.712 626.014C494.417 625.141 490.69 622.227 486.696 620.716C481.67 618.815 471.872 617.654 468.164 613.433L468.94 612.945L468.197 611.884C465.288 611.07 463.894 607.077 462.133 603.965C460.708 602.545 457.233 602.596 455.04 602.394L455.417 601.447C459.014 598.88 465.594 598.441 470.025 598.132L472.389 597.953C475.985 597.107 498.795 597.593 504.323 597.586C512.615 595.837 514.485 594.341 521.519 592.087Z"/><path fill="#CCAF88" transform="scale(0.195312 0.195312)" d="M521.519 592.087C529.593 594.845 534.313 597.363 542.935 597.985C548.816 597.897 568.258 597.447 573.522 598.479C576.415 598.5 585.171 599.864 587.147 601.819L586.567 602.292C580.214 602.9 581.182 603.035 576.112 605.942L575.508 605.099L573.421 604.836C572.613 605.401 572.372 605.55 571.488 605.985C563.928 604.403 554.297 605.401 546.26 605.244C525.948 604.847 505.669 605.813 485.351 605.138C481.228 605.001 464.209 602.912 462.133 603.965C460.708 602.545 457.233 602.596 455.04 602.394L455.417 601.447C459.014 598.88 465.594 598.441 470.025 598.132L472.389 597.953C475.985 597.107 498.795 597.593 504.323 597.586C512.615 595.837 514.485 594.341 521.519 592.087Z"/><path fill="#E3C497" transform="scale(0.195312 0.195312)" d="M521.519 592.087C529.593 594.845 534.313 597.363 542.935 597.985C548.816 597.897 568.258 597.447 573.522 598.479C569.181 600.577 548.595 599.25 542.554 599.014C537.701 599.613 508.242 599.435 504.323 597.586C512.615 595.837 514.485 594.341 521.519 592.087Z"/><path fill="#E3C497" transform="scale(0.195312 0.195312)" d="M470.025 598.132L472.389 597.953C478.11 598.247 492.07 597.578 496.61 598.442C494.115 599.494 472.194 599.599 470.025 598.132Z"/><path fill="#BAB8A5" transform="scale(0.195312 0.195312)" d="M570.809 612.718C568.644 613.142 557.191 615.137 555.854 614.632C561.279 613.22 565.221 612.672 570.803 611.907L570.809 612.718Z"/><path fill="#BAB8A5" transform="scale(0.195312 0.195312)" d="M468.197 611.884C471.729 612.472 476.415 613.098 479.698 614.223C476.156 614.374 472.368 613.825 468.94 612.945L468.197 611.884Z"/><path fill="#474747" transform="scale(0.195312 0.195312)" d="M575.066 608.992L576.425 610.347L573.523 612.816C572.713 613.372 572.702 613.444 571.809 613.822L570.809 612.718L570.803 611.907C572.664 611.273 573.698 610.31 575.066 608.992Z"/><path fill="#CCAF88" transform="scale(0.195312 0.195312)" d="M455.04 602.394C457.233 602.596 460.708 602.545 462.133 603.965C463.894 607.077 465.288 611.07 468.197 611.884L468.94 612.945L468.164 613.433C471.872 617.654 481.67 618.815 486.696 620.716C490.69 622.227 494.417 625.141 498.712 626.014C519.3 629.913 541.191 627.914 560.592 619.888C563.764 618.576 569.684 616.272 571.809 613.822C572.702 613.444 572.713 613.372 573.523 612.816C575.929 616.571 575.388 612.923 576.608 615.784L575.143 618.779C548.252 637.067 505.698 640.463 477.565 624.756C468.864 619.899 453.529 613.823 449.804 603.587L451.866 602.723L455.04 602.394Z"/><path fill="#2E1C0B" transform="scale(0.195312 0.195312)" d="M455.04 602.394C457.233 602.596 460.708 602.545 462.133 603.965C463.894 607.077 465.288 611.07 468.197 611.884L468.94 612.945L468.164 613.433C463.377 612.563 455.94 605.981 451.866 602.723L455.04 602.394Z"/><path fill="#2E1C0B" transform="scale(0.195312 0.195312)" d="M586.567 602.292L589.718 602.82C586.129 605.638 580.58 608.314 576.425 610.347L575.066 608.992L576.112 605.942C581.182 603.035 580.214 602.9 586.567 602.292Z"/><path fill="#181817" transform="scale(0.195312 0.195312)" d="M668.51 780.855C669.644 779.012 670.688 776.945 671.708 775.023C680.576 781.059 689.739 788.904 697.455 795.63C698.996 796.973 717.392 802.845 720.818 804.038C730.886 807.645 740.932 811.311 750.956 815.038C774.686 823.7 800.192 832.357 816.563 852.927C823.529 861.68 827.254 873.214 831.342 883.635C848.977 928.595 858.05 976.009 867.118 1023.25C867.156 1023.5 867.194 1023.75 867.232 1024L645.494 1024L577.005 1024C578.64 1019.2 581.65 1013.09 583.811 1008.33C587.2 1000.85 590.549 993.352 593.858 985.838C598.203 976.011 623.053 916.914 622.169 909.453C634.215 882.062 637.26 852.201 639.446 822.625C639.658 819.757 639.699 816.753 639.726 813.869C641.947 810.892 641.976 800.826 641.172 797.357L640.368 797.05C641.849 792.596 645.949 780.709 647.827 777.064C649.626 784.667 649.771 789.042 649.162 796.792C658.527 793.558 662.874 788.881 668.51 780.855Z"/><path fill="#202020" transform="scale(0.195312 0.195312)" d="M647.827 777.064C649.626 784.667 649.771 789.042 649.162 796.792C658.527 793.558 662.874 788.881 668.51 780.855C672.891 785.395 680.416 788.772 684.316 793.612C701.63 815.1 717.114 841.847 728.009 867.177C717.842 873.746 675.794 898.916 670.47 905.327C685.313 920.939 702.049 926.937 717.895 938.197C703.298 960.808 689.514 979.013 670.899 998.642C662.886 1007.09 652.99 1015.87 645.494 1024L577.005 1024C578.64 1019.2 581.65 1013.09 583.811 1008.33C587.2 1000.85 590.549 993.352 593.858 985.838C598.203 976.011 623.053 916.914 622.169 909.453C634.215 882.062 637.26 852.201 639.446 822.625C639.658 819.757 639.699 816.753 639.726 813.869C641.947 810.892 641.976 800.826 641.172 797.357L640.368 797.05C641.849 792.596 645.949 780.709 647.827 777.064Z"/><path fill="#474747" transform="scale(0.195312 0.195312)" d="M417.821 909.463C430.928 930.482 439.811 949.49 457.999 967.489C458.955 967.706 458.548 967.761 459.231 967.533C461.314 974.367 496.292 1002.4 502.896 1005.52L503.723 1005.15C504.126 1007.85 516.235 1015.29 519.639 1018.08C524.365 1014.88 529.602 1011.79 533.954 1008.16C536.55 1005.99 536.552 1005.56 536.776 1002.21L537.037 1004.93L537.479 1005.25C545.019 1001.18 577.807 974.89 580.786 967.947C586.242 966.987 607.891 934.942 611.628 928.218C614.698 922.695 618.828 915.129 622.169 909.453C623.053 916.914 598.203 976.011 593.858 985.838C590.549 993.352 587.2 1000.85 583.811 1008.33C581.65 1013.09 578.64 1019.2 577.005 1024L463.45 1024C449.574 993.878 435.435 962.988 424.441 931.803C422.618 926.632 418.047 914.595 417.821 909.463Z"/></svg>