<?xml version="1.0" encoding="utf-8" ?><svg xmlns="http://www.w3.org/2000/svg" xmlns:xlink="http://www.w3.org/1999/xlink" width="200" height="200" viewBox="0 0 200 200"><path fill="#F2D0AA" transform="matrix(0.19329 0.00202215 -0.00202215 0.19329 2.0708 0)" d="M285.76 210.669C289.12 202.806 292.174 199.564 295.322 192.654C296.725 189.574 298.822 179.917 300.058 176.031C303.532 165.102 307.824 153.202 313.573 143.292C327.624 119.102 349.008 100.35 366.144 78.5297C378.174 63.211 387.636 46.4106 400.992 32.0947C414.837 17.2541 435.029 10.3562 454.193 19.0544C462.723 22.9261 469.997 28.4337 478.339 32.5914C500.591 43.7794 533.257 45.1526 556.566 36.0413C580.396 26.7258 593.958 6.74204 622.744 18.7464C629.892 21.727 635.807 26.4676 641.148 32.1269C655.666 47.5085 664.758 64.6891 678.317 81.2745C692.703 98.8705 709.188 114.276 722.248 132.447C728.708 141.437 735.083 155.445 739.251 165.833C741.087 170.166 742.316 174.812 743.753 179.227C744.887 182.711 745.612 189.634 747.091 192.573C750.276 198.903 753.922 203.702 756.887 210.494C798.02 188.919 829.344 164.796 855.466 126.305C861.925 116.788 873.853 111.989 884.605 115.937C904.756 122.326 917.662 140.986 927.095 158.793C950.076 202.178 951.672 251.012 937.033 297.344C917.077 360.504 863.282 416.396 804.98 446.473C803.984 446.986 802.983 447.488 801.977 447.979C808.686 474.558 803.948 497.205 792.867 521.788C785.092 539.04 765.522 580.031 740.668 563.712C738.703 562.397 736.755 561.054 734.827 559.686C729.983 575.864 726.253 592.268 720.134 608.127C717.392 615.237 714.889 624.124 710.6 630.548C691.9 658.553 660.282 674.7 630.538 688.437C627.688 689.753 619.089 692.703 617.489 694.027C608.907 697.255 599.948 700.985 591.381 704.382C590.635 715.461 591.302 744.12 596.39 753.869C597.376 755.254 597.388 755.134 597.532 756.809L595.983 757.588L595.91 758.228L596.726 758.484C598.74 758.931 597.961 758.434 599.241 759.863C599.47 761.246 599.613 762.215 599.743 763.629L600.496 764.172L603.317 763.516C603.012 761.619 602.544 759.915 603.075 758.09C606.612 759.292 609.845 760.329 613.245 761.894C607.734 766.136 605.286 770.006 604.02 777.001C603.855 777.91 603.892 779.297 603.655 780.09C598.157 783.158 596.037 792.832 596.278 798.794C596.36 800.837 595.931 804.473 596.392 806.295L598.26 806.163C599.969 807.985 598.462 810.628 597.708 812.838L597.768 814.838C600.863 816.166 601.437 816.104 602.172 819.407L601.037 821.995C600.119 825.016 600.549 826.785 603.638 828.364C605.809 832.808 601.988 833.303 604.271 837.904C579.553 853.027 547.021 865.463 517.421 864.66C488.526 863.876 456.715 851.39 433.062 834.96C430.304 831.228 430.565 829.528 434.224 826.947L435.233 825.943C435.852 824.349 435.17 823.999 434.917 822.496C433.653 814.994 440.73 818.054 438.466 809.701L436.794 808.183C437.475 806.888 437.638 805.565 438.731 803.672C440.448 803.03 439.794 803.167 441.958 803.956C441.961 803.972 441.72 802.704 441.727 802.725C439.712 796.764 442.128 788.307 438.329 783.455C437.158 781.959 435.268 781.921 433.652 781.833C432.563 772.974 430.761 769.181 424.03 763.136C428.761 761.179 433.669 759.28 438.434 757.378C439.424 756.519 441.756 755.346 442.99 754.661C443.278 754.09 443.982 753.831 444.698 753.375C449.028 741.654 449.433 717.863 449.639 704.946C443.78 701.92 430.207 697.003 423.62 694.347C419.936 692.003 408.45 687.019 403.985 684.931C395.385 680.906 386.984 676.471 378.81 671.638C336.082 646.704 326.22 626.344 312.984 579.813C311.125 573.274 309.825 566.187 308.075 559.55C284.737 577.391 269.927 559.941 258.107 539.893C240.793 510.53 230.162 481.416 238.943 447.398C223.624 438.275 208.399 429.459 194.316 418.377C150.578 384.07 115.538 338.585 101.948 284.058C90.5425 238.294 95.4164 192.554 119.351 151.767C134.316 126.264 166.569 95.4427 190.026 130.293C194.975 137.646 201.215 145.506 207.162 151.973C224.011 170.372 243.415 186.256 264.78 199.138C271.836 203.374 278.669 206.725 285.76 210.669Z"/><path fill="#573B22" transform="matrix(0.19329 0.00202215 -0.00202215 0.19329 2.0708 0)" d="M285.76 210.669C289.12 202.806 292.174 199.564 295.322 192.654C296.725 189.574 298.822 179.917 300.058 176.031C303.532 165.102 307.824 153.202 313.573 143.292C327.624 119.102 349.008 100.35 366.144 78.5297C378.174 63.211 387.636 46.4106 400.992 32.0947C414.837 17.2541 435.029 10.3562 454.193 19.0544C462.723 22.9261 469.997 28.4337 478.339 32.5914C500.591 43.7794 533.257 45.1526 556.566 36.0413C580.396 26.7258 593.958 6.74204 622.744 18.7464C629.892 21.727 635.807 26.4676 641.148 32.1269C655.666 47.5085 664.758 64.6891 678.317 81.2745C692.703 98.8705 709.188 114.276 722.248 132.447C728.708 141.437 735.083 155.445 739.251 165.833C741.087 170.166 742.316 174.812 743.753 179.227C744.887 182.711 745.612 189.634 747.091 192.573C750.276 198.903 753.922 203.702 756.887 210.494C798.02 188.919 829.344 164.796 855.466 126.305C861.925 116.788 873.853 111.989 884.605 115.937C904.756 122.326 917.662 140.986 927.095 158.793C950.076 202.178 951.672 251.012 937.033 297.344C917.077 360.504 863.282 416.396 804.98 446.473C803.984 446.986 802.983 447.488 801.977 447.979C801.37 446.571 800.4 444.906 799.648 443.524C792.997 435.2 787.723 432.928 777.383 434.295C780.765 417.409 782.918 400.299 783.824 383.101C784.417 355.317 784.119 343.746 780.7 316.242C771.775 303.86 742.572 289.725 727.711 285.999C721.872 284.535 693.338 274.928 688.998 277.217C681.239 274.039 654.711 271.972 645.523 271.833C641.976 271.779 625.562 274.864 620.786 275.561C607.074 277.562 589.551 277.979 576.455 281.309C574.257 280.21 552.667 280.847 549.818 281.625C544.367 281.508 539.651 281.034 534.414 282.712C531.742 281.234 482.786 281.028 474.781 280.464C467.286 279.663 453.347 277.917 446.484 279.212L445.504 278.363C442.794 277.807 411.315 273.479 410.026 273.712C396.075 270.702 384.502 272.393 370.483 274.369C363.339 275.375 351.271 275.664 345.366 279.126C341.743 277.333 318.47 285.489 313.268 286.593C303.072 288.758 263.913 308.281 261.119 317.254C255.921 333.944 257.751 364.222 257.589 382.717C258.696 396.449 260.651 420.95 264.168 434.206C254.324 432.826 248.194 434.318 241.656 442.41C240.843 443.873 239.611 445.931 238.943 447.398C223.624 438.275 208.399 429.459 194.316 418.377C150.578 384.07 115.538 338.585 101.948 284.058C90.5425 238.294 95.4164 192.554 119.351 151.767C134.316 126.264 166.569 95.4427 190.026 130.293C194.975 137.646 201.215 145.506 207.162 151.973C224.011 170.372 243.415 186.256 264.78 199.138C271.836 203.374 278.669 206.725 285.76 210.669Z"/><defs><linearGradient id="gradient_0" gradientUnits="userSpaceOnUse" x1="728.86304" y1="358.64929" x2="951.86633" y2="213.41342"><stop offset="0" stop-color="#724726"/><stop offset="1" stop-color="#9E6E4B"/></linearGradient></defs><path fill="url(#gradient_0)" transform="matrix(0.19329 0.00202215 -0.00202215 0.19329 2.0708 0)" d="M778.079 228.926C783.667 223.372 790.934 219.675 797.315 214.982C806.355 208.334 815.235 200.998 823.192 193.074C830.612 185.431 837.125 176.736 843.501 168.247C853.029 155.561 863.485 138.229 881.813 139.782C899.248 141.258 910.263 157.725 919.277 170.875C921.154 173.613 923.051 179.237 924.941 181.423C924.671 179.824 923.315 173.897 925.36 173.313C926.912 176.935 927.461 175.481 929.298 180.123C931.808 186.464 933.011 192.725 935.094 198.942L935.673 198.886C939.025 207.808 940.202 219.869 940.509 229.319C943.188 311.67 892.761 384.13 825.435 427.471C821.841 429.785 800.805 441.858 799.648 443.524C792.997 435.2 787.723 432.928 777.383 434.295C780.765 417.409 782.918 400.299 783.824 383.101C793.787 371.858 801.166 364.542 802.472 348.142C803.417 336.274 796.605 324.463 789.039 315.855C768.935 292.982 742.729 283.501 714.077 276.251C697.337 272.015 684.865 268.88 667.273 267.728C676.308 265.154 687.989 263.091 697.589 260.614C717.553 255.433 737.148 248.927 756.246 241.139C761.257 239.093 776.756 234.121 778.079 228.926Z"/><defs><linearGradient id="gradient_1" gradientUnits="userSpaceOnUse" x1="313.60782" y1="359.61554" x2="95.01944" y2="207.38197"><stop offset="0" stop-color="#724725"/><stop offset="1" stop-color="#9D6B4A"/></linearGradient></defs><path fill="url(#gradient_1)" transform="matrix(0.19329 0.00202215 -0.00202215 0.19329 2.0708 0)" d="M106.331 200.903L106.93 201C108.186 196.494 109.356 191.901 110.594 187.391C111.438 184.313 112.543 182.248 116.086 182.32L116.644 183.012C116.274 186.081 112.488 188.7 113.199 192.085L113.367 191.646C121.749 170.213 145.054 130.723 173.309 142.346C176.601 143.688 179.637 145.588 182.283 147.963C196.599 160.804 207.52 181.432 221.528 195.005C229.06 202.302 255.95 225.944 265.731 226.778C265.101 228.463 264.903 228.543 265.357 230.305C267.989 233.828 277.315 237.133 281.571 238.974C302.413 247.993 323.996 254.766 345.902 260.669C354.565 263.003 364.839 265.984 373.665 267.288C374.358 267.39 375.052 267.482 375.748 267.563C332.02 273.776 278.361 282.588 249.723 320.316C243.164 328.956 238.867 340.434 240.44 351.362C242.715 367.161 249.925 371.527 257.589 382.717C258.696 396.449 260.651 420.95 264.168 434.206C254.324 432.826 248.194 434.318 241.656 442.41C237.912 439.024 228.739 434.698 224.15 431.901C152.686 388.336 95.9536 311.221 102.456 224.286C102.977 217.318 104.033 207.542 106.331 200.903Z"/><defs><linearGradient id="gradient_2" gradientUnits="userSpaceOnUse" x1="517.82367" y1="274.83014" x2="520.62305" y2="115.21473"><stop offset="0" stop-color="#9F6E48"/><stop offset="1" stop-color="#B6875E"/></linearGradient></defs><path fill="url(#gradient_2)" transform="matrix(0.19329 0.00202215 -0.00202215 0.19329 2.0708 0)" d="M106.331 200.903C109.034 185.992 115.642 171.084 122.849 157.747C131.629 141.501 155.272 110.132 176.974 124.07C182.582 127.671 193.076 145.777 198.304 150.953C216.079 171.32 238.31 190.092 261.272 204.06C284.846 218.215 310.09 229.379 336.423 237.294C424.886 264.236 540.784 267.164 631.772 253.349C646.605 251.097 666.197 247.772 680.643 244.11C717.424 234.786 754.397 221.442 786.367 200.784C813.532 183.231 836.112 164.041 854.811 137.435C859.065 132.15 864.969 121.875 872.351 121.057C906.366 117.287 930.44 173.878 935.673 198.886L935.094 198.942C933.011 192.725 931.808 186.464 929.298 180.123C927.461 175.481 926.912 176.935 925.36 173.313C923.315 173.897 924.671 179.824 924.941 181.423C923.051 179.237 921.154 173.613 919.277 170.875C910.263 157.725 899.248 141.258 881.813 139.782C863.485 138.229 853.029 155.561 843.501 168.247C837.125 176.736 830.612 185.431 823.192 193.074C815.235 200.998 806.355 208.334 797.315 214.982C790.934 219.675 783.667 223.372 778.079 228.926C776.756 234.121 761.257 239.093 756.246 241.139C737.148 248.927 717.553 255.433 697.589 260.614C687.989 263.091 676.308 265.154 667.273 267.728C684.865 268.88 697.337 272.015 714.077 276.251C742.729 283.501 768.935 292.982 789.039 315.855C796.605 324.463 803.417 336.274 802.472 348.142C801.166 364.542 793.787 371.858 783.824 383.101C784.417 355.317 784.119 343.746 780.7 316.242C771.775 303.86 742.572 289.725 727.711 285.999C721.872 284.535 693.338 274.928 688.998 277.217C681.239 274.039 654.711 271.972 645.523 271.833C641.976 271.779 625.562 274.864 620.786 275.561C607.074 277.562 589.551 277.979 576.455 281.309C574.257 280.21 552.667 280.847 549.818 281.625C544.367 281.508 539.651 281.034 534.414 282.712C531.742 281.234 482.786 281.028 474.781 280.464C467.286 279.663 453.347 277.917 446.484 279.212L445.504 278.363C442.794 277.807 411.315 273.479 410.026 273.712C396.075 270.702 384.502 272.393 370.483 274.369C363.339 275.375 351.271 275.664 345.366 279.126C341.743 277.333 318.47 285.489 313.268 286.593C303.072 288.758 263.913 308.281 261.119 317.254C255.921 333.944 257.751 364.222 257.589 382.717C249.925 371.527 242.715 367.161 240.44 351.362C238.867 340.434 243.164 328.956 249.723 320.316C278.361 282.588 332.02 273.776 375.748 267.563C375.052 267.482 374.358 267.39 373.665 267.288C364.839 265.984 354.565 263.003 345.902 260.669C323.996 254.766 302.413 247.993 281.571 238.974C277.315 237.133 267.989 233.828 265.357 230.305C264.903 228.543 265.101 228.463 265.731 226.778C255.95 225.944 229.06 202.302 221.528 195.005C207.52 181.432 196.599 160.804 182.283 147.963C179.637 145.588 176.601 143.688 173.309 142.346C145.054 130.723 121.749 170.213 113.367 191.646L113.199 192.085C112.488 188.7 116.274 186.081 116.644 183.012L116.086 182.32C112.543 182.248 111.438 184.313 110.594 187.391C109.356 191.901 108.186 196.494 106.93 201L106.331 200.903Z"/><path fill="#573B22" transform="matrix(0.19329 0.00202215 -0.00202215 0.19329 2.0708 0)" d="M265.731 226.778C266.623 226.502 267.548 226.199 268.439 226.562C276.558 229.86 285.29 234.272 293.371 237.468C324.813 249.583 357.347 258.648 390.523 264.538C410.512 268.205 431.637 270.388 451.858 272.128C464.403 273.207 477.071 274.527 489.633 275.119C536.289 277.017 583.022 274.765 629.279 268.39C670.938 262.293 709.382 253.183 748.68 238.038C756.218 235.133 767.204 229.819 774.998 226.625C775.414 226.749 775.829 226.873 776.245 226.997L778.079 228.926C776.756 234.121 761.257 239.093 756.246 241.139C737.148 248.927 717.553 255.433 697.589 260.614C687.989 263.091 676.308 265.154 667.273 267.728C684.865 268.88 697.337 272.015 714.077 276.251C742.729 283.501 768.935 292.982 789.039 315.855C796.605 324.463 803.417 336.274 802.472 348.142C801.166 364.542 793.787 371.858 783.824 383.101C784.417 355.317 784.119 343.746 780.7 316.242C771.775 303.86 742.572 289.725 727.711 285.999C721.872 284.535 693.338 274.928 688.998 277.217C681.239 274.039 654.711 271.972 645.523 271.833C641.976 271.779 625.562 274.864 620.786 275.561C607.074 277.562 589.551 277.979 576.455 281.309C574.257 280.21 552.667 280.847 549.818 281.625C544.367 281.508 539.651 281.034 534.414 282.712C531.742 281.234 482.786 281.028 474.781 280.464C467.286 279.663 453.347 277.917 446.484 279.212L445.504 278.363C442.794 277.807 411.315 273.479 410.026 273.712C396.075 270.702 384.502 272.393 370.483 274.369C363.339 275.375 351.271 275.664 345.366 279.126C341.743 277.333 318.47 285.489 313.268 286.593C303.072 288.758 263.913 308.281 261.119 317.254C255.921 333.944 257.751 364.222 257.589 382.717C249.925 371.527 242.715 367.161 240.44 351.362C238.867 340.434 243.164 328.956 249.723 320.316C278.361 282.588 332.02 273.776 375.748 267.563C375.052 267.482 374.358 267.39 373.665 267.288C364.839 265.984 354.565 263.003 345.902 260.669C323.996 254.766 302.413 247.993 281.571 238.974C277.315 237.133 267.989 233.828 265.357 230.305C264.903 228.543 265.101 228.463 265.731 226.778Z"/><defs><linearGradient id="gradient_3" gradientUnits="userSpaceOnUse" x1="521.09692" y1="196.68629" x2="525.29944" y2="19.962059"><stop offset="0" stop-color="#855736"/><stop offset="1" stop-color="#A3724E"/></linearGradient></defs><path fill="url(#gradient_3)" transform="matrix(0.19329 0.00202215 -0.00202215 0.19329 2.0708 0)" d="M436.365 21.2222C450.933 20.5882 464.035 32.3199 477.25 38.5136C503.296 50.9307 539.64 50.7733 565.621 38.4491C584.589 29.452 598.762 13.5076 621.522 24.8725C638.073 32.9207 647.726 48.8276 657.677 63.5286C666.056 75.9065 676.285 89.0874 686.434 100.176C700.376 115.408 712.695 127.913 723.414 145.873C733.415 162.629 735.103 175.185 741.292 192.643C734.899 191.745 728.329 189.672 722.015 188.091C714.132 186.118 706.194 184.369 698.212 182.847C673.884 178.003 653.844 175.871 629.382 172.712C541.017 163.309 451.8 165.556 364.021 179.396C345.763 182.42 319.94 187.444 302.037 192.81C303.124 186.284 305.086 180.424 306.82 174.201C317.068 136.656 346.564 112.171 370.275 83.0685C388.203 61.0645 404.712 23.0781 436.365 21.2222Z"/><path fill="#875B3D" transform="matrix(0.19329 0.00202215 -0.00202215 0.19329 2.0708 0)" d="M343.447 233.7C354.885 231.952 365.813 231.127 377.291 229.762C468.626 218.894 571.445 216.938 662.783 229.662C669.24 230.56 675.715 231.321 682.204 231.945C685.161 232.234 691.155 232.445 693.612 233.24L693.812 233.773C691.173 235.591 682.861 237.283 679.441 237.535C676.269 239.409 653.231 243.856 647.949 244.805C568.699 259.056 485.843 258.92 406.315 246.879C393.628 244.959 376.03 242.105 363.95 238.022L364.485 237.016C356.054 237.601 351.425 236.595 343.447 233.7Z"/><path fill="#3A2615" transform="matrix(0.19329 0.00202215 -0.00202215 0.19329 2.0708 0)" d="M343.447 233.7C354.885 231.952 365.813 231.127 377.291 229.762C468.626 218.894 571.445 216.938 662.783 229.662C669.24 230.56 675.715 231.321 682.204 231.945C685.161 232.234 691.155 232.445 693.612 233.24L693.812 233.773C691.173 235.591 682.861 237.283 679.441 237.535C666.984 235.297 647.719 233.63 634.957 232.313C572.652 225.953 509.927 224.787 447.429 228.826C429.404 230.104 411.405 231.711 393.439 233.644C385.432 234.524 372.528 236.677 364.97 237L364.485 237.016C356.054 237.601 351.425 236.595 343.447 233.7Z"/><path fill="#292725" transform="matrix(0.19329 0.00202215 -0.00202215 0.19329 2.0708 0)" d="M688.998 277.217C693.338 274.928 721.872 284.535 727.711 285.999C742.572 289.725 771.775 303.86 780.7 316.242C784.119 343.746 784.417 355.317 783.824 383.101C782.918 400.299 780.765 417.409 777.383 434.295C768.184 438.607 763.634 441.756 760.472 451.942C756.844 463.636 754.97 475.714 752.377 487.659C751.422 492.059 751.055 497.628 749.301 501.69C747.888 504.872 745.652 507.619 742.823 509.648C740.802 511.104 739.965 511.6 737.796 511.216C736.535 510.272 734.458 508.225 734.397 506.799C734.054 498.74 736.151 486.984 737.041 478.944C740.087 451.445 742.917 429.007 730.704 402.826C729.059 397.046 720.329 385.054 720.51 379.69C722.028 334.717 731.675 305.753 688.998 277.217Z"/><path fill="#292725" transform="matrix(0.19329 0.00202215 -0.00202215 0.19329 2.0708 0)" d="M257.589 382.717C257.751 364.222 255.921 333.944 261.119 317.254C263.913 308.281 303.072 288.758 313.268 286.593C318.47 285.489 341.743 277.333 345.366 279.126C309.746 307.695 319.255 343.786 320.754 383.423C320.837 385.619 318.679 390.264 317.555 392.294C312.44 401.527 308.125 410.429 305.405 420.724C299.795 441.949 303.766 464.371 306.181 485.785C306.885 492.026 308.472 499.656 308.684 505.767C305.954 510.542 303.527 513.124 297.83 509.371C294.174 506.963 292.491 502.124 291.733 497.876C288.697 480.868 285.165 463.342 279.369 447.047C276.99 440.36 270.088 437.298 264.168 434.206C260.651 420.95 258.696 396.449 257.589 382.717Z"/><path fill="#D14944" transform="matrix(0.19329 0.00202215 -0.00202215 0.19329 2.0708 0)" d="M436.794 808.183C437.475 806.888 437.638 805.565 438.731 803.672C440.448 803.03 439.794 803.167 441.958 803.956C455.723 817.576 475.294 825.894 493.509 831.516C495.598 832.161 498.393 832.715 500.335 833.492L500.992 833.331L501.465 833.991C502.182 835.01 502.345 835.479 502.829 836.621L504.981 838.02C508.985 837.869 511.534 829.653 515.81 826.901L518.564 828.497L520.938 825.45L521.545 825.3C522.078 826.189 521.773 825.776 522.459 826.542L524.821 826.651C524.354 825.474 524.083 825.101 524.362 823.846L524.746 823.942C531.92 818.492 534.361 829.23 536.414 833.429C537.754 833.302 538.702 832.91 539.97 832.487L540.489 833.066C553.978 832.086 587.314 816.508 596.392 806.295L598.26 806.163C599.969 807.985 598.462 810.628 597.708 812.838L597.768 814.838C600.863 816.166 601.437 816.104 602.172 819.407L601.037 821.995C600.119 825.016 600.549 826.785 603.638 828.364C605.809 832.808 601.988 833.303 604.271 837.904C579.553 853.027 547.021 865.463 517.421 864.66C488.526 863.876 456.715 851.39 433.062 834.96C430.304 831.228 430.565 829.528 434.224 826.947L435.233 825.943C435.852 824.349 435.17 823.999 434.917 822.496C433.653 814.994 440.73 818.054 438.466 809.701L436.794 808.183Z"/><path fill="#A62C28" transform="matrix(0.19329 0.00202215 -0.00202215 0.19329 2.0708 0)" d="M434.224 826.947C447.536 842.718 491.202 856.922 512.648 858.575C539.081 860.612 577.023 848.668 599.211 833.67C600.52 832.785 601.33 829.841 603.638 828.364C605.809 832.808 601.988 833.303 604.271 837.904C579.553 853.027 547.021 865.463 517.421 864.66C488.526 863.876 456.715 851.39 433.062 834.96C430.304 831.228 430.565 829.528 434.224 826.947Z"/><path fill="#9A2F29" transform="matrix(0.19329 0.00202215 -0.00202215 0.19329 2.0708 0)" d="M436.794 808.183C437.475 806.888 437.638 805.565 438.731 803.672C440.448 803.03 439.794 803.167 441.958 803.956C455.723 817.576 475.294 825.894 493.509 831.516C495.598 832.161 498.393 832.715 500.335 833.492L500.992 833.331L501.465 833.991C502.182 835.01 502.345 835.479 502.829 836.621L504.981 838.02C508.985 837.869 511.534 829.653 515.81 826.901L518.564 828.497L517.592 830.347L513.539 835.916L512.949 836.353C512.111 839.157 510.181 840.048 508.328 842.407C506.479 842.637 505.708 842.831 504.025 842.113C493.402 837.586 478.496 834.278 468.44 828.899C461.027 826.346 450.222 819.154 444.164 814.236C442.099 812.357 440.898 811.158 438.466 809.701L436.794 808.183Z"/><path fill="#5F2D17" transform="matrix(0.19329 0.00202215 -0.00202215 0.19329 2.0708 0)" d="M515.81 826.901L518.564 828.497L517.592 830.347L513.539 835.916L512.949 836.353C510.114 838.888 509.439 839.846 505.397 839.676C502.331 839.547 500.048 836.312 500.335 833.492L500.992 833.331L501.465 833.991C502.182 835.01 502.345 835.479 502.829 836.621L504.981 838.02C508.985 837.869 511.534 829.653 515.81 826.901Z"/><path fill="#A62C28" transform="matrix(0.19329 0.00202215 -0.00202215 0.19329 2.0708 0)" d="M444.164 814.236C445.576 813.954 446.812 813.498 448.113 814.719C450.805 817.246 467.324 826.985 468.44 828.899C461.027 826.346 450.222 819.154 444.164 814.236Z"/><path fill="#9A2F29" transform="matrix(0.19329 0.00202215 -0.00202215 0.19329 2.0708 0)" d="M596.392 806.295L598.26 806.163C599.969 807.985 598.462 810.628 597.708 812.838C585.589 827.099 557.957 835.191 540.124 839.644C540.814 837.151 541.547 835.347 540.489 833.066C553.978 832.086 587.314 816.508 596.392 806.295Z"/><path fill="#9A835F" transform="matrix(0.19329 0.00202215 -0.00202215 0.19329 2.0708 0)" d="M524.746 823.942C531.92 818.492 534.361 829.23 536.414 833.429C537.754 833.302 538.702 832.91 539.97 832.487L540.489 833.066C541.547 835.347 540.814 837.151 540.124 839.644C537.292 842.602 536.783 842.347 532.584 842.459C532.138 841.539 531.575 840.831 530.987 839.989C528.926 838.46 528.52 838.021 526.852 836.055L526.627 836.004C525.543 833.925 524.314 832.04 523.071 830.055C522.243 828.566 521.617 827.014 520.938 825.45L521.545 825.3C522.078 826.189 521.773 825.776 522.459 826.542L524.821 826.651C524.354 825.474 524.083 825.101 524.362 823.846L524.746 823.942Z"/><path fill="#5F2D17" transform="matrix(0.19329 0.00202215 -0.00202215 0.19329 2.0708 0)" d="M539.97 832.487L540.489 833.066C541.547 835.347 540.814 837.151 540.124 839.644C537.292 842.602 536.783 842.347 532.584 842.459C532.138 841.539 531.575 840.831 530.987 839.989C528.926 838.46 528.52 838.021 526.852 836.055C529.08 835.498 529.28 835.792 531.561 836.388L532.4 836.599L532.902 836.733C533.941 837.741 533.311 837.445 534.709 837.818L535.796 837.068C536.538 835.333 536.595 835.41 536.414 833.429C537.754 833.302 538.702 832.91 539.97 832.487Z"/><path fill="#9A2F29" transform="matrix(0.19329 0.00202215 -0.00202215 0.19329 2.0708 0)" d="M530.987 839.989C533.795 840.083 536.966 839.613 540.124 839.644C537.292 842.602 536.783 842.347 532.584 842.459C532.138 841.539 531.575 840.831 530.987 839.989Z"/><path fill="#6C482B" transform="matrix(0.19329 0.00202215 -0.00202215 0.19329 2.0708 0)" d="M520.938 825.45L521.545 825.3C522.078 826.189 521.773 825.776 522.459 826.542L524.821 826.651C524.354 825.474 524.083 825.101 524.362 823.846L524.746 823.942L525.896 825.981C529.218 830.128 530.317 832.091 532.902 836.733L532.4 836.599L531.561 836.388C529.28 835.792 529.08 835.498 526.852 836.055L526.627 836.004C525.543 833.925 524.314 832.04 523.071 830.055C522.243 828.566 521.617 827.014 520.938 825.45Z"/><path fill="#573B22" transform="matrix(0.19329 0.00202215 -0.00202215 0.19329 2.0708 0)" d="M520.938 825.45L521.545 825.3C522.078 826.189 521.773 825.776 522.459 826.542L524.821 826.651C524.354 825.474 524.083 825.101 524.362 823.846L524.746 823.942L525.896 825.981L525.538 827.964C526.69 829.568 527.501 831.038 527.778 833.024C525.84 832.41 525.984 830.895 523.071 830.055C522.243 828.566 521.617 827.014 520.938 825.45Z"/><path fill="#A62C28" transform="matrix(0.19329 0.00202215 -0.00202215 0.19329 2.0708 0)" d="M518.564 828.497L520.938 825.45C521.617 827.014 522.243 828.566 523.071 830.055C524.314 832.04 525.543 833.925 526.627 836.004L526.852 836.055C528.52 838.021 528.926 838.46 530.987 839.989C531.575 840.831 532.138 841.539 532.584 842.459C524.499 842.598 516.412 842.581 508.328 842.407C510.181 840.048 512.111 839.157 512.949 836.353L513.539 835.916L517.592 830.347L518.564 828.497Z"/><path fill="#F2D0AA" transform="matrix(0.19329 0.00202215 -0.00202215 0.19329 2.0708 0)" d="M518.564 828.497L520.938 825.45C521.617 827.014 522.243 828.566 523.071 830.055C524.314 832.04 525.543 833.925 526.627 836.004C524.774 836.219 521.869 836.055 519.922 836.008C517.725 836.084 515.728 835.994 513.539 835.916L517.592 830.347L518.564 828.497Z"/><path fill="#B34E48" transform="matrix(0.19329 0.00202215 -0.00202215 0.19329 2.0708 0)" d="M597.768 814.838C600.863 816.166 601.437 816.104 602.172 819.407L601.037 821.995C599.638 818.119 598.195 819.464 597.768 814.838Z"/><path fill="#F2D0AA" transform="matrix(0.19329 0.00202215 -0.00202215 0.19329 2.0708 0)" d="M442.99 754.661C443.278 754.09 443.982 753.831 444.698 753.375C448.557 757.315 449.295 757.892 450.779 763.2C456.056 767.692 456.758 768.493 459.65 774.792C468.954 780.465 464.966 777.853 471.09 785.101C477.08 787.188 478.851 787.85 483.03 793.045C489.753 795.056 492.316 796.337 497.534 801.147C502.093 801.342 509.102 802.559 511.712 806.744C512.163 808.863 512.773 809.587 513.916 811.486C512.341 819.332 517.478 819.884 523.593 819.095L524.75 819.367C525.497 820.722 524.789 821.889 524.362 823.846C524.083 825.101 524.354 825.474 524.821 826.651L522.459 826.542C521.773 825.776 522.078 826.189 521.545 825.3L520.938 825.45L518.564 828.497L515.81 826.901C511.534 829.653 508.985 837.869 504.981 838.02L502.829 836.621C502.345 835.479 502.182 835.01 501.465 833.991L500.992 833.331L500.335 833.492C498.393 832.715 495.598 832.161 493.509 831.516C475.294 825.894 455.723 817.576 441.958 803.956C441.961 803.972 441.72 802.704 441.727 802.725C439.712 796.764 442.128 788.307 438.329 783.455C437.158 781.959 435.268 781.921 433.652 781.833C432.563 772.974 430.761 769.181 424.03 763.136C428.761 761.179 433.669 759.28 438.434 757.378C439.424 756.519 441.756 755.346 442.99 754.661Z"/><path fill="#573B22" transform="matrix(0.19329 0.00202215 -0.00202215 0.19329 2.0708 0)" d="M442.99 754.661C443.278 754.09 443.982 753.831 444.698 753.375C448.557 757.315 449.295 757.892 450.779 763.2C456.056 767.692 456.758 768.493 459.65 774.792C468.954 780.465 464.966 777.853 471.09 785.101C477.08 787.188 478.851 787.85 483.03 793.045C489.753 795.056 492.316 796.337 497.534 801.147C502.093 801.342 509.102 802.559 511.712 806.744C512.163 808.863 512.773 809.587 513.916 811.486C512.341 819.332 517.478 819.884 523.593 819.095L524.75 819.367C525.497 820.722 524.789 821.889 524.362 823.846C524.083 825.101 524.354 825.474 524.821 826.651L522.459 826.542C521.773 825.776 522.078 826.189 521.545 825.3L520.938 825.45L518.564 828.497L515.81 826.901C511.534 829.653 508.985 837.869 504.981 838.02L502.829 836.621C502.345 835.479 502.182 835.01 501.465 833.991L500.992 833.331C502.894 827.828 505.581 824.47 507.46 819.525C507.322 819.257 507.184 818.989 507.045 818.721C504.101 818.2 496.937 816.317 494.501 815.737C491.259 814.965 490.015 814.543 487.863 813.566C486.788 812.2 485.779 810.66 484.786 809.222C476.854 807.881 474.308 806.799 469.539 800.173C467.778 799.916 465.956 799.571 464.197 799.265C460.472 796.121 460.044 794.372 457.617 791.951C451.352 785.702 448.528 787.604 446.075 777.858C446.024 775.982 445.957 774.107 445.875 772.232C446.15 764.556 447.835 763.787 443.154 756.977C443.263 756.077 443.11 755.592 442.99 754.661Z"/><path fill="#9A835F" transform="matrix(0.19329 0.00202215 -0.00202215 0.19329 2.0708 0)" d="M504.981 838.02C505.166 833.236 509.367 818.136 516.173 823.336C516.807 825.503 516.814 824.578 515.81 826.901C511.534 829.653 508.985 837.869 504.981 838.02Z"/><path fill="#917957" transform="matrix(0.19329 0.00202215 -0.00202215 0.19329 2.0708 0)" d="M459.506 778.681C461.039 778.911 462.391 778.955 463.573 780.097C466.794 783.21 468.811 791.83 468.668 796.087C460.476 796.011 459.569 784.803 459.506 778.681Z"/><path fill="#9A835F" transform="matrix(0.19329 0.00202215 -0.00202215 0.19329 2.0708 0)" d="M487.063 806.695C486.759 806.202 486.47 805.7 486.197 805.189C484.963 802.843 483.308 798.904 486.409 797.427C488.863 797.901 490.149 799.588 491.733 801.445C493.336 804.002 495.871 807.653 496.459 810.484L496.182 811.673C493.545 813.172 488.661 808.74 487.063 806.695Z"/><path fill="#917957" transform="matrix(0.19329 0.00202215 -0.00202215 0.19329 2.0708 0)" d="M487.063 806.695C486.759 806.202 486.47 805.7 486.197 805.189C484.963 802.843 483.308 798.904 486.409 797.427C488.863 797.901 490.149 799.588 491.733 801.445C489.634 802.952 489.738 804.24 487.063 806.695Z"/><path fill="#9A835F" transform="matrix(0.19329 0.00202215 -0.00202215 0.19329 2.0708 0)" d="M449.401 774.01C449.456 771.981 449.12 768.636 451.109 767.777C452.781 768.615 453.502 770.236 454.503 771.867C455.502 775.314 457.389 781.56 455.636 784.772C451.661 786.691 449.715 776.475 449.401 774.01Z"/><path fill="#917957" transform="matrix(0.19329 0.00202215 -0.00202215 0.19329 2.0708 0)" d="M449.401 774.01C449.456 771.981 449.12 768.636 451.109 767.777C452.781 768.615 453.502 770.236 454.503 771.867C452.313 773.185 451.845 773.661 449.401 774.01Z"/><path fill="#9A835F" transform="matrix(0.19329 0.00202215 -0.00202215 0.19329 2.0708 0)" d="M471.359 788.328C478.274 791.156 481.099 797.68 481.965 804.594C473.402 801.744 472.624 796.43 471.359 788.328Z"/><path fill="#9A835F" transform="matrix(0.19329 0.00202215 -0.00202215 0.19329 2.0708 0)" d="M498.896 805.025C503.352 805.246 504.294 805.488 508.16 807.707C509.702 810.791 510.546 812.344 509.836 815.718C507.825 815.317 506.056 814.835 504.081 814.305C502.493 811.913 498.3 807.513 498.896 805.025Z"/><path fill="#573B22" transform="matrix(0.19329 0.00202215 -0.00202215 0.19329 2.0708 0)" d="M442.99 754.661C443.11 755.592 443.263 756.077 443.154 756.977C447.835 763.787 446.15 764.556 445.875 772.232C445.957 774.107 446.024 775.982 446.075 777.858C437.183 775.574 437.053 764.642 438.434 757.378C439.424 756.519 441.756 755.346 442.99 754.661Z"/><path fill="#917957" transform="matrix(0.19329 0.00202215 -0.00202215 0.19329 2.0708 0)" d="M445.875 772.232C445.454 773.192 445.748 772.797 445.035 773.446C440.816 770.779 439.675 759.914 443.154 756.977C447.835 763.787 446.15 764.556 445.875 772.232Z"/><path fill="#573B22" transform="matrix(0.19329 0.00202215 -0.00202215 0.19329 2.0708 0)" d="M596.39 753.869C597.376 755.254 597.388 755.134 597.532 756.809L595.983 757.588L595.91 758.228L596.726 758.484C598.74 758.931 597.961 758.434 599.241 759.863C599.47 761.246 599.613 762.215 599.743 763.629L600.496 764.172L603.317 763.516C603.012 761.619 602.544 759.915 603.075 758.09C606.612 759.292 609.845 760.329 613.245 761.894C607.734 766.136 605.286 770.006 604.02 777.001C603.855 777.91 603.892 779.297 603.655 780.09C598.157 783.158 596.037 792.832 596.278 798.794C596.36 800.837 595.931 804.473 596.392 806.295C587.314 816.508 553.978 832.086 540.489 833.066L539.97 832.487C538.702 832.91 537.754 833.302 536.414 833.429C534.361 829.23 531.92 818.492 524.746 823.942L524.362 823.846C524.789 821.889 525.497 820.722 524.75 819.367L523.593 819.095C526.654 817.725 527.285 815.877 527.583 812.763C527.25 809.866 527.257 809.683 527.995 806.799C533.822 802.815 536.954 801.085 544.141 801.2C548.654 796.438 550.558 794.66 557.249 793.835C563.876 785.378 564.325 789.304 570.405 783.974C575.919 779.141 573.026 779.073 581.435 774.618C582.603 769.911 586.115 767.681 588.734 764.017C591.502 760.147 592.798 757.137 596.39 753.869Z"/><path fill="#F2D0AA" transform="matrix(0.19329 0.00202215 -0.00202215 0.19329 2.0708 0)" d="M603.075 758.09C606.612 759.292 609.845 760.329 613.245 761.894C607.734 766.136 605.286 770.006 604.02 777.001C603.855 777.91 603.892 779.297 603.655 780.09C598.157 783.158 596.037 792.832 596.278 798.794C596.36 800.837 595.931 804.473 596.392 806.295C587.314 816.508 553.978 832.086 540.489 833.066L539.97 832.487C538.097 827.686 536.764 825.076 533.315 821.178L532.838 820.65L533.082 819.507C536.732 819.474 536.082 818.799 538.689 817.213C538.724 817.192 545.72 816.216 546.598 816.042C550.636 814.149 554.018 813.031 556.674 809.275L556.679 809.462C562.775 807.492 567.024 806.376 570.795 800.944C581.148 797.986 577.519 797.31 584.146 790.648C589.41 785.356 592.492 787.049 594.716 778.017C600.213 775.066 603.65 769.881 603.317 763.516C603.012 761.619 602.544 759.915 603.075 758.09Z"/><path fill="#9A835F" transform="matrix(0.19329 0.00202215 -0.00202215 0.19329 2.0708 0)" d="M532.954 817.024C531.632 815.956 530.79 815.54 530.383 813.918C530.822 808.224 540.048 803.634 542.227 805.626C541.909 807.176 539.796 809.66 538.753 811.061C536.839 813.98 535.724 814.905 532.954 817.024Z"/><path fill="#6C482B" transform="matrix(0.19329 0.00202215 -0.00202215 0.19329 2.0708 0)" d="M599.743 763.629L600.496 764.172L603.317 763.516C603.65 769.881 600.213 775.066 594.716 778.017C596.861 774.036 594.178 774.42 595.213 771.125C595.285 772.243 595.099 771.737 595.781 772.639C598.299 771.566 599.562 766.119 599.743 763.629Z"/><path fill="#9A835F" transform="matrix(0.19329 0.00202215 -0.00202215 0.19329 2.0708 0)" d="M596.726 758.484C598.74 758.931 597.961 758.434 599.241 759.863C599.47 761.246 599.613 762.215 599.743 763.629C599.562 766.119 598.299 771.566 595.781 772.639C595.099 771.737 595.285 772.243 595.213 771.125C595.856 766.936 595.467 762.069 596.726 758.484Z"/><path fill="#6C482B" transform="matrix(0.19329 0.00202215 -0.00202215 0.19329 2.0708 0)" d="M532.954 817.024C535.724 814.905 536.839 813.98 538.753 811.061L540.38 811.751L540.572 812.485C539.739 813.224 539.289 813.606 538.521 814.408L538.737 815.061C541.055 816.075 543.865 813.869 546.598 816.042C545.72 816.216 538.724 817.192 538.689 817.213C536.082 818.799 536.732 819.474 533.082 819.507L533.553 818.58L532.954 817.024Z"/><path fill="#917957" transform="matrix(0.19329 0.00202215 -0.00202215 0.19329 2.0708 0)" d="M555.581 796.926L556.201 797.273C558.701 804.647 550.55 810.069 544.716 812.339C544.119 812.114 544.489 812.289 543.688 811.669C544.738 805.695 550.077 799.446 555.581 796.926Z"/><path fill="#917957" transform="matrix(0.19329 0.00202215 -0.00202215 0.19329 2.0708 0)" d="M580.272 778.4L580.726 779.159C580.917 786.531 580.515 793.906 572.729 796.843C571.198 794.739 573.339 788.5 574.177 786.171C575.542 782.377 577.106 780.788 580.272 778.4Z"/><path fill="#917957" transform="matrix(0.19329 0.00202215 -0.00202215 0.19329 2.0708 0)" d="M568.064 789.021L568.438 789.441C569.444 797.45 567.515 799.432 561.218 804.353C557.094 798.238 563.025 792.159 568.064 789.021Z"/><path fill="#917957" transform="matrix(0.19329 0.00202215 -0.00202215 0.19329 2.0708 0)" d="M589.841 767.322C593.116 769.517 590.972 777.117 589.821 780.206C588.777 783.011 588.089 783.737 585.836 785.654L585.187 785.962L584.607 785.609C583.625 780.121 587.268 772.106 589.841 767.322Z"/><path fill="#292725" transform="matrix(0.19329 0.00202215 -0.00202215 0.19329 2.0708 0)" d="M474.781 280.464C482.786 281.028 531.742 281.234 534.414 282.712C515.045 290.446 495.867 296.079 474.864 296.537C471.195 296.617 463.168 297.137 462.64 292.742C464.151 289.114 471.421 283.584 474.781 280.464Z"/><path fill="#292725" transform="matrix(0.19329 0.00202215 -0.00202215 0.19329 2.0708 0)" d="M410.026 273.712C411.315 273.479 442.794 277.807 445.504 278.363L446.484 279.212C439.304 280.594 404.424 287.377 400.603 280.748C401.474 277.755 407.04 275.371 410.026 273.712Z"/><path fill="#917957" transform="matrix(0.19329 0.00202215 -0.00202215 0.19329 2.0708 0)" d="M513.916 811.486C517.829 806.974 525.691 807.172 527.583 812.763C527.285 815.877 526.654 817.725 523.593 819.095C517.478 819.884 512.341 819.332 513.916 811.486Z"/><path fill="#292725" transform="matrix(0.19329 0.00202215 -0.00202215 0.19329 2.0708 0)" d="M549.818 281.625C552.667 280.847 574.257 280.21 576.455 281.309C570.708 283.044 553.449 288.861 548.733 286.617C547.737 285.224 547.976 285.991 548.078 284.212C548.646 283.35 549.211 282.456 549.818 281.625Z"/><path fill="#6C482B" transform="matrix(0.19329 0.00202215 -0.00202215 0.19329 2.0708 0)" d="M511.712 806.744C518.578 803.886 521.134 803.199 527.995 806.799C527.257 809.683 527.25 809.866 527.583 812.763C525.691 807.172 517.829 806.974 513.916 811.486C512.773 809.587 512.163 808.863 511.712 806.744Z"/><path fill="#0B2A14" transform="matrix(0.19329 0.00202215 -0.00202215 0.19329 2.0708 0)" d="M349.313 474.045C347.754 472.835 347.106 471.616 347.295 469.592C351.547 423.911 412.513 410.711 442.738 439.537C450.232 446.684 456.62 461.242 456.597 471.44C459.45 485.919 439.386 487.719 429.487 490.183C427.225 490.746 423.996 491.177 422.032 489.784C412.309 492.905 402.46 493.371 392.533 490.737L391.699 491.56C387.932 492.418 377.264 489.577 373.276 488.86C368.135 487.935 349.881 479.532 348.638 474.517L349.313 474.045Z"/><path fill="#44D87C" transform="matrix(0.19329 0.00202215 -0.00202215 0.19329 2.0708 0)" d="M376.977 439.223C381.201 436.196 386.269 436.504 391.04 437.977C386.26 440.868 384.42 445.229 387.563 450.233L387.158 450.91C386.801 454.484 386.414 459.375 387.499 462.844L387.345 465.002C389.426 473.215 397.599 480.846 406.385 480.481C416.152 480.658 421.077 474.863 425.26 466.961C425.339 466.532 426.38 464.203 426.616 463.65C429.085 464.993 429.481 464.819 432.256 464.987C434.17 465.193 435.821 465.708 437.357 465.055L437.223 465.384L436.465 465.561L437.624 465.875L438.035 464.673L438.848 464.055C438.642 468.578 435.169 479.609 431.466 482.098C428.868 485.807 426.222 487.925 422.032 489.784C412.309 492.905 402.46 493.371 392.533 490.737L391.699 491.56C387.932 492.418 377.264 489.577 373.276 488.86C368.135 487.935 349.881 479.532 348.638 474.517L349.313 474.045C350.334 472.175 351.3 469.352 352.409 467.268C359.497 453.934 363.595 446.109 376.977 439.223Z"/><path fill="#F7F8F3" transform="matrix(0.19329 0.00202215 -0.00202215 0.19329 2.0708 0)" d="M376.977 439.223L376.772 440.082C376.015 443.146 374.26 446.241 373.68 449.301C370.586 465.636 376.198 483.94 392.533 490.737L391.699 491.56C387.932 492.418 377.264 489.577 373.276 488.86C368.135 487.935 349.881 479.532 348.638 474.517L349.313 474.045C350.334 472.175 351.3 469.352 352.409 467.268C359.497 453.934 363.595 446.109 376.977 439.223Z"/><path fill="#105F2C" transform="matrix(0.19329 0.00202215 -0.00202215 0.19329 2.0708 0)" d="M376.977 439.223C381.201 436.196 386.269 436.504 391.04 437.977C386.26 440.868 384.42 445.229 387.563 450.233L387.158 450.91C386.801 454.484 386.414 459.375 387.499 462.844L387.345 465.002C383.476 464.138 378.93 464.599 377.63 468.955C377.811 470.208 377.908 470.95 378.224 472.188C381.096 477.67 383.5 482.879 389.149 486.095C398.076 491.179 407.878 491.357 417.713 489.42C424.205 488.726 427.917 482.224 431.466 482.098C428.868 485.807 426.222 487.925 422.032 489.784C412.309 492.905 402.46 493.371 392.533 490.737C376.198 483.94 370.586 465.636 373.68 449.301C374.26 446.241 376.015 443.146 376.772 440.082L376.977 439.223Z"/><path fill="#137537" transform="matrix(0.19329 0.00202215 -0.00202215 0.19329 2.0708 0)" d="M378.224 472.188C375.079 469.199 374.364 460.526 377.483 457.312C383.568 455.676 378.2 452.072 387.158 450.91C386.801 454.484 386.414 459.375 387.499 462.844L387.345 465.002C383.476 464.138 378.93 464.599 377.63 468.955C377.811 470.208 377.908 470.95 378.224 472.188Z"/><path fill="#1A8440" transform="matrix(0.19329 0.00202215 -0.00202215 0.19329 2.0708 0)" d="M438.848 464.055C438.642 468.578 435.169 479.609 431.466 482.098C427.917 482.224 424.205 488.726 417.713 489.42C421.03 485.663 424.68 483.497 427.916 479.759C431.671 475.424 429.556 469.913 425.26 466.961C425.339 466.532 426.38 464.203 426.616 463.65C429.085 464.993 429.481 464.819 432.256 464.987C434.17 465.193 435.821 465.708 437.357 465.055L437.223 465.384L436.465 465.561L437.624 465.875L438.035 464.673L438.848 464.055Z"/><path fill="#F7F8F3" transform="matrix(0.19329 0.00202215 -0.00202215 0.19329 2.0708 0)" d="M438.157 444.56C448.686 453.886 450.996 458.491 456.597 471.44C459.45 485.919 439.386 487.719 429.487 490.183C427.225 490.746 423.996 491.177 422.032 489.784C426.222 487.925 428.868 485.807 431.466 482.098C435.169 479.609 438.642 468.578 438.848 464.055C440.135 456.757 439.239 451.915 438.157 444.56Z"/><path fill="#105F2C" transform="matrix(0.19329 0.00202215 -0.00202215 0.19329 2.0708 0)" d="M424.047 437.875C427.591 439.59 435.539 442.625 438.157 444.56C439.239 451.915 440.135 456.757 438.848 464.055L438.035 464.673L437.624 465.875L436.465 465.561L437.223 465.384L437.357 465.055C435.821 465.708 434.17 465.193 432.256 464.987C429.481 464.819 429.085 464.993 426.616 463.65L426.446 463.236C427.639 459.777 427.526 457.552 427.592 453.961L427.16 450.56C426.581 445.147 426.037 442.881 424.047 437.875Z"/><path fill="#137537" transform="matrix(0.19329 0.00202215 -0.00202215 0.19329 2.0708 0)" d="M427.592 453.961C428.959 453.898 428.279 453.794 429.587 454.674C431.207 457.538 430.928 457.868 430.608 461.242L430.238 461.754C430.253 463.616 430.386 463.92 432.256 464.987C429.481 464.819 429.085 464.993 426.616 463.65L426.446 463.236C427.639 459.777 427.526 457.552 427.592 453.961Z"/><path fill="#137537" transform="matrix(0.19329 0.00202215 -0.00202215 0.19329 2.0708 0)" d="M435.354 455.962L436.082 456.435L435.851 457.712C434.686 459.219 434.541 459.598 432.772 460.397C432.51 459.007 432.214 458.064 432.465 456.669C433.569 456.322 434.214 456.188 435.354 455.962Z"/><path fill="#0A4A1E" transform="matrix(0.19329 0.00202215 -0.00202215 0.19329 2.0708 0)" d="M427.16 450.56L427.592 453.961C427.526 457.552 427.639 459.777 426.446 463.236L426.616 463.65C426.38 464.203 425.339 466.532 425.26 466.961C421.077 474.863 416.152 480.658 406.385 480.481C397.599 480.846 389.426 473.215 387.345 465.002L387.499 462.844C390.835 465.96 393.477 469.353 397.49 471.652C403.675 475.196 411.926 475.262 417.344 470.23C417.595 468.82 421.575 461.341 422.383 459.775C422.587 461.139 422.525 461.062 423.438 462.087C425.097 462.36 424.347 462.503 425.774 461.698C426.52 460.293 426.35 453.604 427.16 450.56Z"/><path fill="#105F2C" transform="matrix(0.19329 0.00202215 -0.00202215 0.19329 2.0708 0)" d="M418.85 472.065C418.973 471.269 419.139 470.559 419.308 469.773L420.811 469.004C421.63 467.236 421.649 466.619 421.983 464.659C423.219 463.536 424.579 463.601 426.446 463.236L426.616 463.65C426.38 464.203 425.339 466.532 425.26 466.961C421.077 474.863 416.152 480.658 406.385 480.481C408.371 479.238 412.192 478.667 415.022 477.215C414.782 477.138 410.802 478.269 410.202 478.43C414.129 476.559 416.911 475.848 418.85 472.065Z"/><path fill="#F7F8F3" transform="matrix(0.19329 0.00202215 -0.00202215 0.19329 2.0708 0)" d="M391.04 437.977C404.008 437.928 398.29 455.16 387.563 450.233C384.42 445.229 386.26 440.868 391.04 437.977Z"/><defs><linearGradient id="gradient_4" gradientUnits="userSpaceOnUse" x1="641.78827" y1="432.99997" x2="627.13605" y2="490.66974"><stop offset="0" stop-color="#0B5728"/><stop offset="1" stop-color="#207937"/></linearGradient></defs><path fill="url(#gradient_4)" transform="matrix(0.19329 0.00202215 -0.00202215 0.19329 2.0708 0)" d="M585.314 473.38C585.75 444.574 610.696 423.352 638.921 424.598C654.27 425.276 670.086 428.394 680.881 440.084C687.403 446.942 694.961 460.059 694.819 469.476C694.803 471.211 694.402 472.921 693.645 474.482C693.422 475.857 689.288 478.996 687.956 479.991C679.4 486.385 662.236 491.503 651.76 491.282C651.215 490.93 650.956 490.853 650.573 490.38C640.463 493.135 631.026 493.041 621 489.949L620.329 490.737C614.435 491.868 579.223 484.583 585.314 473.38Z"/><defs><linearGradient id="gradient_5" gradientUnits="userSpaceOnUse" x1="649.86328" y1="425.9585" x2="637.10889" y2="480.87097"><stop offset="0" stop-color="#0C1D10"/><stop offset="1" stop-color="#09431B"/></linearGradient></defs><path fill="url(#gradient_5)" transform="matrix(0.19329 0.00202215 -0.00202215 0.19329 2.0708 0)" d="M585.314 473.38C585.75 444.574 610.696 423.352 638.921 424.598C654.27 425.276 670.086 428.394 680.881 440.084C687.403 446.942 694.961 460.059 694.819 469.476C694.803 471.211 694.402 472.921 693.645 474.482C691.547 472.647 690.162 468.75 688.9 466.09C682.863 453.357 677.495 446.016 665.26 439.161C662.945 437.392 652.399 434.16 649.939 436.133L650.751 437.876C655.88 443.414 655.536 453.093 655.405 460.185L655.665 460.525L655.554 460.951C655.199 462.486 655.115 462.394 655.115 463.942C651.389 464.118 649.513 464.471 648.875 468.582C648.731 469.282 643.225 476.56 642.49 477.254C636.99 482.449 630.637 478.26 624.959 476.682C623.015 475.763 621.131 472.878 619.84 471.105C616.297 464.171 616.03 464.334 614.798 456.19C615.317 454.031 615.087 451.622 616.51 450.188C613.963 445.177 614.987 442.471 618.726 438.746C614.639 438.354 606.224 441.38 603.895 444.51C590.664 456.13 592.443 459.891 585.314 473.38Z"/><path fill="#F7F8F3" transform="matrix(0.19329 0.00202215 -0.00202215 0.19329 2.0708 0)" d="M618.726 438.746C633.891 434.891 627.54 458.906 616.51 450.188C613.963 445.177 614.987 442.471 618.726 438.746Z"/><path fill="#0A4A1E" transform="matrix(0.19329 0.00202215 -0.00202215 0.19329 2.0708 0)" d="M650.751 437.876C655.88 443.414 655.536 453.093 655.405 460.185L654.034 461.195L653.409 460.917C653.175 459.337 653.04 458.532 652.648 456.997L651.637 456.533C651.545 455.739 651.734 452.062 651.73 450.87C651.716 446.191 651.453 442.53 650.751 437.876Z"/><path fill="#105F2C" transform="matrix(0.19329 0.00202215 -0.00202215 0.19329 2.0708 0)" d="M651.637 456.533L652.648 456.997C653.04 458.532 653.175 459.337 653.409 460.917L654.034 461.195L655.405 460.185L655.665 460.525L655.554 460.951C655.199 462.486 655.115 462.394 655.115 463.942C651.389 464.118 649.513 464.471 648.875 468.582L648.268 467.835C643.719 473.515 643.456 473.912 635.769 475.844C634.724 476.107 631.771 475.833 630.726 475.011C643.756 476.301 648.936 467.864 651.637 456.533Z"/><path fill="#F7F8F3" transform="matrix(0.19329 0.00202215 -0.00202215 0.19329 2.0708 0)" d="M665.26 439.161C677.495 446.016 682.863 453.357 688.9 466.09C690.162 468.75 691.547 472.647 693.645 474.482C693.422 475.857 689.288 478.996 687.956 479.991C679.4 486.385 662.236 491.503 651.76 491.282C651.215 490.93 650.956 490.853 650.573 490.38C665.3 484.485 671.508 464.769 668.504 450.284C667.762 446.704 666.092 443.289 665.408 439.923L665.26 439.161Z"/><path fill="#44D87C" transform="matrix(0.19329 0.00202215 -0.00202215 0.19329 2.0708 0)" d="M655.115 463.942C657.924 464.095 661.32 464.806 663.924 465.873L664.995 468.152C661.572 477.149 659.031 483.467 649.483 487.843C640.333 492.037 630.885 490.836 621.633 487.69C619.877 486.218 615.33 478.449 613.909 476.031L614.783 473.295C614.312 471.754 614.231 471.436 613.999 469.758C614.897 468.643 614.362 469.129 616.022 468.656C617.75 468.964 618.505 469.919 619.84 471.105C621.131 472.878 623.015 475.763 624.959 476.682C630.637 478.26 636.99 482.449 642.49 477.254C643.225 476.56 648.731 469.282 648.875 468.582C649.513 464.471 651.389 464.118 655.115 463.942Z"/><path fill="#137537" transform="matrix(0.19329 0.00202215 -0.00202215 0.19329 2.0708 0)" d="M648.875 468.582C649.513 464.471 651.389 464.118 655.115 463.942C653.403 469.749 649.01 475.414 643.838 478.623C638.595 481.877 629.228 481.581 624.959 476.682C630.637 478.26 636.99 482.449 642.49 477.254C643.225 476.56 648.731 469.282 648.875 468.582Z"/><path fill="#F7F8F3" transform="matrix(0.19329 0.00202215 -0.00202215 0.19329 2.0708 0)" d="M603.895 444.51L603.875 445.407C603.778 448.625 602.762 452.001 602.676 455.214C602.308 469.006 607.904 483.718 621 489.949L620.329 490.737C614.435 491.868 579.223 484.583 585.314 473.38C592.443 459.891 590.664 456.13 603.895 444.51Z"/><path fill="#27AF5A" transform="matrix(0.19329 0.00202215 -0.00202215 0.19329 2.0708 0)" d="M614.798 456.19C616.03 464.334 616.297 464.171 619.84 471.105C618.505 469.919 617.75 468.964 616.022 468.656C614.362 469.129 614.897 468.643 613.999 469.758C614.231 471.436 614.312 471.754 614.783 473.295L613.909 476.031C615.33 478.449 619.877 486.218 621.633 487.69C614.802 485.606 609.874 477.084 607.517 470.722C606.644 468.366 611.928 460.834 613.3 458.682L614.053 458.302C614.471 457.447 614.575 457.095 614.798 456.19Z"/><path fill="#137537" transform="matrix(0.19329 0.00202215 -0.00202215 0.19329 2.0708 0)" d="M655.665 460.525C656.18 457.323 655.868 456.505 657.233 453.529L658.211 452.875L659.123 453.171L659.403 454.611C660.786 454.825 660.685 454.831 661.983 454.302C663.418 455.4 663.953 456.117 665.11 457.463C665.228 461.136 665.327 464.472 664.995 468.152L663.924 465.873C661.32 464.806 657.924 464.095 655.115 463.942C655.115 462.394 655.199 462.486 655.554 460.951L655.665 460.525Z"/><path fill="#1A8440" transform="matrix(0.19329 0.00202215 -0.00202215 0.19329 2.0708 0)" d="M655.554 460.951L656.558 460.982C658.284 461.028 658.675 460.771 660.619 460.913L660.759 460.426C659.389 458.84 659.237 459.199 659.131 457.543C661.364 457.26 662.042 456.765 663.704 457.565C665.042 460.252 663.244 462.779 663.924 465.873C661.32 464.806 657.924 464.095 655.115 463.942C655.115 462.394 655.199 462.486 655.554 460.951Z"/><path fill="#F7F8F3" transform="matrix(0.19329 0.00202215 -0.00202215 0.19329 2.0708 0)" d="M458.615 603.273C458.826 603.104 459.963 601.692 460.215 601.388C465.09 600.102 475.333 600.586 480.623 600.107C508.448 597.592 536.174 597.867 563.961 600.55C568.128 600.952 582.799 600.755 586.13 602.404C582.185 603.231 579.181 602.866 576.861 605.477C574.396 609.109 573.605 611.075 569.562 612.741C570.298 613.866 569.963 613.578 571.101 614.168L570.682 614.153C567.539 618.313 557.466 622.187 552.638 623.703C526.784 631.82 496.349 630.507 472.447 617.064C470.891 616.188 469.676 615.773 469.181 614.202L470.322 613.964L468.42 613.634L467.838 612.32C465.952 611.144 463.073 606.807 461.648 604.85C460.335 603.54 460.443 603.618 458.615 603.273Z"/><path fill="#E9B68F" transform="matrix(0.19329 0.00202215 -0.00202215 0.19329 2.0708 0)" d="M458.615 603.273C458.826 603.104 459.963 601.692 460.215 601.388C465.09 600.102 475.333 600.586 480.623 600.107C508.448 597.592 536.174 597.867 563.961 600.55C568.128 600.952 582.799 600.755 586.13 602.404C582.185 603.231 579.181 602.866 576.861 605.477C574.901 604.499 554.819 605.491 551.2 605.547C521.348 606.056 491.488 605.824 461.648 604.85C460.335 603.54 460.443 603.618 458.615 603.273Z"/><path fill="#C7C3C2" transform="matrix(0.19329 0.00202215 -0.00202215 0.19329 2.0708 0)" d="M467.838 612.32C473.041 612.381 484.644 614.58 490.423 615.217C483.669 615.152 477.055 614.406 470.322 613.964L468.42 613.634L467.838 612.32Z"/><path fill="#C7C3C2" transform="matrix(0.19329 0.00202215 -0.00202215 0.19329 2.0708 0)" d="M570.682 614.153C565.867 613.953 560.701 614.602 555.52 614.464C560.244 613.742 564.786 612.98 569.562 612.741C570.298 613.866 569.963 613.578 571.101 614.168L570.682 614.153Z"/><path fill="#3A2615" transform="matrix(0.19329 0.00202215 -0.00202215 0.19329 2.0708 0)" d="M643.833 369.21C669.54 366.144 700.337 377.286 707.417 404.529C701.389 402.624 696.155 399.695 690.353 397.21C672.754 389.673 660.295 388.382 641.806 391.156C631.002 392.823 620.907 395.381 610.566 397.557C603.669 399.007 581.938 406.632 578.456 406.436C577.436 405.508 577.114 405.25 577.044 403.755C576.456 392.741 582.201 383.605 592.562 379.61C608.379 373.511 626.954 370.745 643.833 369.21Z"/><path fill="#3A2615" transform="matrix(0.19329 0.00202215 -0.00202215 0.19329 2.0708 0)" d="M381.36 369.193C382.07 369.116 382.768 369.049 383.48 369.007C399.923 368.049 445.192 373.239 457.488 384.65C462.431 389.236 465.293 395.947 465.374 402.666C465.396 404.446 465.109 405.049 463.86 406.292C462.393 406.685 461.098 406.526 459.646 406.056C445.459 401.46 431.691 397.657 417.116 394.393C393.023 388.278 370.04 387.17 347.784 399.348C343.852 401.5 339.23 403.328 334.998 404.801C335.033 404.651 335.068 404.5 335.103 404.35L335.289 403.6C340.021 383.904 362.409 371.355 381.36 369.193Z"/><path fill="#E9B68F" transform="matrix(0.19329 0.00202215 -0.00202215 0.19329 2.0708 0)" d="M254.826 460.561C255.523 460.536 256.221 460.532 256.919 460.551C276.475 461.193 288.708 499.374 292.188 515.002C292.409 515.996 293.106 523.433 292.854 523.959C289.431 531.111 274.804 526.959 271.595 521.334L271.906 520.722L273.6 520.905C280.992 522.672 287.87 523.887 285.355 513.464C282.149 500.178 277.327 486.855 268.55 476.182C263.133 469.595 253.79 463.234 249.471 474.628C248.903 476.136 249.273 475.854 248.155 476.992C244.987 471.431 249.494 463.511 254.826 460.561Z"/><path fill="#E9B68F" transform="matrix(0.19329 0.00202215 -0.00202215 0.19329 2.0708 0)" d="M782.784 460.559C794.699 459.92 794.31 470.813 793.857 479.617C792.113 474.707 788.958 464.122 781.653 469.543C772.848 476.077 766.83 486.354 762.763 496.358C760.729 501.361 754.311 516.574 757.342 521.186C758.902 522.227 760.192 521.957 762.116 521.926L771.638 520.227C765.605 526.099 756.819 530.424 749.267 524.57C752.518 504.162 761.193 468.193 782.784 460.559Z"/><path fill="#E9B68F" transform="matrix(0.19329 0.00202215 -0.00202215 0.19329 2.0708 0)" d="M495.563 650.33C499.527 650.659 503.596 651.91 508.761 652.211C521.05 652.927 531.658 652.075 543.844 651.041C541.681 653.734 540.705 654.659 538.141 656.98C532.41 661.336 526.869 662.434 519.879 663.021C512.504 663.641 495.841 659.191 495.563 650.33Z"/><path fill="#3A2615" transform="matrix(0.19329 0.00202215 -0.00202215 0.19329 2.0708 0)" d="M590.722 601.883L591.021 602.225C588.557 603.869 572.851 614.181 571.101 614.168C569.963 613.578 570.298 613.866 569.562 612.741C573.605 611.075 574.396 609.109 576.861 605.477C579.181 602.866 582.185 603.231 586.13 602.404L590.722 601.883Z"/><path fill="#3A2615" transform="matrix(0.19329 0.00202215 -0.00202215 0.19329 2.0708 0)" d="M449.604 601.911C452.669 602.24 455.578 602.757 458.615 603.273C460.443 603.618 460.335 603.54 461.648 604.85C463.073 606.807 465.952 611.144 467.838 612.32L468.42 613.634C463.786 613.635 454.025 605.412 449.532 602.211L449.604 601.911Z"/><path fill="#E9B68F" transform="matrix(0.19329 0.00202215 -0.00202215 0.19329 2.0708 0)" d="M590.722 601.883C592.346 600.516 592.018 599.484 592.506 596.914L593.39 596.347L595.018 597.039C597.547 599.135 599.582 600.728 598.418 604.331C597.181 605.423 597.875 605.169 596.297 605.208C594.775 604.361 594.749 604.494 593.982 602.969C592.098 601.781 593.065 601.954 591.021 602.225L590.722 601.883Z"/><path fill="#E9B68F" transform="matrix(0.19329 0.00202215 -0.00202215 0.19329 2.0708 0)" d="M446.854 595.932C447.632 598.627 447.737 599.945 449.604 601.911L449.532 602.211L446.336 602.814C444.746 604.291 443.508 605.518 441.224 604.898L441.068 604.077C442.208 600.298 444.128 598.53 446.854 595.932Z"/><path fill="#292725" transform="matrix(0.19329 0.00202215 -0.00202215 0.19329 2.0708 0)" d="M423.62 694.347C430.207 697.003 443.78 701.92 449.639 704.946C449.433 717.863 449.028 741.654 444.698 753.375C443.982 753.831 443.278 754.09 442.99 754.661C441.756 755.346 439.424 756.519 438.434 757.378C433.669 759.28 428.761 761.179 424.03 763.136C430.761 769.181 432.563 772.974 433.652 781.833C435.268 781.921 437.158 781.959 438.329 783.455C442.128 788.307 439.712 796.764 441.727 802.725C441.72 802.704 441.961 803.972 441.958 803.956C439.794 803.167 440.448 803.03 438.731 803.672C437.638 805.565 437.475 806.888 436.794 808.183L438.466 809.701C440.73 818.054 433.653 814.994 434.917 822.496C435.17 823.999 435.852 824.349 435.233 825.943L434.224 826.947C430.565 829.528 430.304 831.228 433.062 834.96C456.715 851.39 488.526 863.876 517.421 864.66C547.021 865.463 579.553 853.027 604.271 837.904C605.171 838.501 605.82 838.911 606.67 839.593C608.934 843.248 603.595 844.288 611.149 853.233C607.357 859.596 609.304 860.312 612.767 866.223C614.205 869.456 613.814 874.193 613.796 877.889C612.788 880.73 612.319 881.372 610.701 883.837C614.343 889.998 614.269 890.035 611.176 896.356L614.354 901.754L611.219 908.223C613.051 910.633 617.889 918.652 611.977 919.042C611.873 920.993 611.418 922.649 612.994 924.012C615.393 925.656 614.733 928.804 614.741 931.652C613.404 932.969 612.487 933.575 612.072 935.387C612.18 938.44 614.713 938.854 614.904 942.195C615.192 947.234 608.951 946.636 613.381 952.345C614.711 953.795 614.92 955.42 614.779 957.233C614.608 959.421 610.271 962.573 612.425 964.842C617.17 969.837 615.791 972.134 611.416 977.743C612.214 978.85 612.778 979.917 613.966 980.502C615.987 983.064 615.621 984.477 615.677 987.939C614.815 989.301 612.985 992.018 612.415 993.382C613.402 994.522 614.512 995.754 615.445 996.92L615.937 1003.04C614.882 1004.5 613.802 1006.05 612.713 1007.47C620.543 1019.8 611.485 1016.85 613.795 1024L420.223 1024L410.832 1024L155.736 1024C157.483 1015.69 158.656 1006.67 160.462 998.253C171.043 948.948 182.827 879.264 210.334 837.342C232.696 803.26 291.77 778.805 329.004 767.257C338.69 764.253 353.371 758.961 363.242 757.145C374.178 723.881 384.999 698.926 423.62 694.347Z"/><path fill="#875B3D" transform="matrix(0.19329 0.00202215 -0.00202215 0.19329 2.0708 0)" d="M433.062 834.96C456.715 851.39 488.526 863.876 517.421 864.66C547.021 865.463 579.553 853.027 604.271 837.904C605.171 838.501 605.82 838.911 606.67 839.593C608.934 843.248 603.595 844.288 611.149 853.233C607.357 859.596 609.304 860.312 612.767 866.223C614.205 869.456 613.814 874.193 613.796 877.889C612.788 880.73 612.319 881.372 610.701 883.837C614.343 889.998 614.269 890.035 611.176 896.356L614.354 901.754L611.219 908.223C613.051 910.633 617.889 918.652 611.977 919.042C611.873 920.993 611.418 922.649 612.994 924.012C615.393 925.656 614.733 928.804 614.741 931.652C613.404 932.969 612.487 933.575 612.072 935.387C612.18 938.44 614.713 938.854 614.904 942.195C615.192 947.234 608.951 946.636 613.381 952.345C614.711 953.795 614.92 955.42 614.779 957.233C614.608 959.421 610.271 962.573 612.425 964.842C617.17 969.837 615.791 972.134 611.416 977.743C612.214 978.85 612.778 979.917 613.966 980.502C615.987 983.064 615.621 984.477 615.677 987.939C614.815 989.301 612.985 992.018 612.415 993.382C613.402 994.522 614.512 995.754 615.445 996.92L615.937 1003.04C614.882 1004.5 613.802 1006.05 612.713 1007.47C620.543 1019.8 611.485 1016.85 613.795 1024L420.223 1024C420.857 1022.66 420.935 1022.68 421.061 1021.23C417.483 1014.64 417.665 1013.47 421.963 1007.65C415.645 1001.48 419.215 999.441 421.649 993.304L421.963 992.491C420.377 990.702 419.852 990.363 419.199 988.156C419.16 984.736 418.719 983.304 420.903 980.858C423.99 976.612 420.186 975.209 419.52 970.696C418.261 968.237 422.403 964.394 422.243 963.72C421.345 959.939 420.207 956.13 420.158 951.955C421.134 951.053 421.982 950.19 422.907 949.245C422.668 948.385 422.689 948.191 422.264 947.676C417.225 941.561 423.819 938.872 422.879 935.299C421.202 928.922 420.145 933.148 420.486 925.008C421.855 923.84 422.078 923.806 422.898 922.167C422.93 920.406 421.823 919.427 420.693 917.955C420.503 916.343 420.088 914.354 419.798 912.723C420.669 911.647 420.579 911.649 421.808 911.054C423.33 908.145 422.823 906.215 420.245 904.128C420.383 902.844 420.537 901.764 420.735 900.497C427.869 891.958 417.084 895.308 423.961 884.489C422.222 881.61 421.349 880.838 421.447 877.372C421.591 873.435 421.934 869.508 422.474 865.606C430.773 854.434 418.971 856.234 430.328 846.82C431.472 845.872 428.186 843.089 428.806 840.506L433.062 834.96Z"/><path fill="#D14944" transform="matrix(0.19329 0.00202215 -0.00202215 0.19329 2.0708 0)" d="M433.062 834.96C456.715 851.39 488.526 863.876 517.421 864.66C547.021 865.463 579.553 853.027 604.271 837.904C605.171 838.501 605.82 838.911 606.67 839.593C608.934 843.248 603.595 844.288 611.149 853.233C607.357 859.596 609.304 860.312 612.767 866.223C614.205 869.456 613.814 874.193 613.796 877.889C612.788 880.73 612.319 881.372 610.701 883.837C614.343 889.998 614.269 890.035 611.176 896.356L614.354 901.754L611.219 908.223C613.051 910.633 617.889 918.652 611.977 919.042C610.298 918.027 598.074 918.451 595.228 918.453L544.238 918.432C538.093 918.75 529.651 918.515 523.305 918.515L482.996 918.509C465.156 918.503 437.735 919.284 420.693 917.955C420.503 916.343 420.088 914.354 419.798 912.723C420.669 911.647 420.579 911.649 421.808 911.054C423.33 908.145 422.823 906.215 420.245 904.128C420.383 902.844 420.537 901.764 420.735 900.497C427.869 891.958 417.084 895.308 423.961 884.489C422.222 881.61 421.349 880.838 421.447 877.372C421.591 873.435 421.934 869.508 422.474 865.606C430.773 854.434 418.971 856.234 430.328 846.82C431.472 845.872 428.186 843.089 428.806 840.506L433.062 834.96Z"/><path fill="#B34E48" transform="matrix(0.19329 0.00202215 -0.00202215 0.19329 2.0708 0)" d="M421.808 911.054C423.1 913.183 424.153 914.819 424.748 917.255L476.198 917.277C481.32 917.307 486.541 917.674 491.595 917.651L522.755 917.739C527.264 917.751 540.645 917.472 544.238 918.432C538.093 918.75 529.651 918.515 523.305 918.515L482.996 918.509C465.156 918.503 437.735 919.284 420.693 917.955C420.503 916.343 420.088 914.354 419.798 912.723C420.669 911.647 420.579 911.649 421.808 911.054Z"/><path fill="#C8B3B0" transform="matrix(0.19329 0.00202215 -0.00202215 0.19329 2.0708 0)" d="M612.767 866.223C614.205 869.456 613.814 874.193 613.796 877.889C612.498 876.238 611.205 874.392 609.959 872.685C610.949 869.836 611.33 868.922 612.767 866.223Z"/><path fill="#C8B3B0" transform="matrix(0.19329 0.00202215 -0.00202215 0.19329 2.0708 0)" d="M421.447 877.372C421.591 873.435 421.934 869.508 422.474 865.606C423.485 868.241 424.481 870.882 425.461 873.529L421.447 877.372Z"/><path fill="#6C482B" transform="matrix(0.19329 0.00202215 -0.00202215 0.19329 2.0708 0)" d="M608.839 980.285C609.705 979.307 610.466 978.621 611.416 977.743C612.214 978.85 612.778 979.917 613.966 980.502C615.987 983.064 615.621 984.477 615.677 987.939C614.815 989.301 612.985 992.018 612.415 993.382C613.402 994.522 614.512 995.754 615.445 996.92L615.937 1003.04C614.882 1004.5 613.802 1006.05 612.713 1007.47C620.543 1019.8 611.485 1016.85 613.795 1024L420.223 1024C420.857 1022.66 420.935 1022.68 421.061 1021.23C417.483 1014.64 417.665 1013.47 421.963 1007.65C415.645 1001.48 419.215 999.441 421.649 993.304L421.963 992.491C420.377 990.702 419.852 990.363 419.199 988.156C419.16 984.736 418.719 983.304 420.903 980.858C476.913 982.119 533.864 980.769 590.246 981.446C595.153 980.638 603.929 980.186 608.839 980.285Z"/><path fill="#573B22" transform="matrix(0.19329 0.00202215 -0.00202215 0.19329 2.0708 0)" d="M608.839 980.285C609.705 979.307 610.466 978.621 611.416 977.743C612.214 978.85 612.778 979.917 613.966 980.502C615.987 983.064 615.621 984.477 615.677 987.939C614.815 989.301 612.985 992.018 612.415 993.382C609.168 991.367 609.531 991.529 605.304 991.507C584.922 991.398 564.362 991.732 544 991.771L452.284 991.874C446.436 991.911 426.18 990.418 422.522 991.268L421.963 992.491C420.377 990.702 419.852 990.363 419.199 988.156C419.16 984.736 418.719 983.304 420.903 980.858C476.913 982.119 533.864 980.769 590.246 981.446C595.153 980.638 603.929 980.186 608.839 980.285Z"/><path fill="#875B3D" transform="matrix(0.19329 0.00202215 -0.00202215 0.19329 2.0708 0)" d="M615.677 987.939C614.815 989.301 612.985 992.018 612.415 993.382C609.168 991.367 609.531 991.529 605.304 991.507C584.922 991.398 564.362 991.732 544 991.771L452.284 991.874C446.436 991.911 426.18 990.418 422.522 991.268L421.963 992.491C420.377 990.702 419.852 990.363 419.199 988.156C426.602 987.777 435.593 988.001 443.148 987.995L486.772 987.963L615.677 987.939Z"/><path fill="#6C482B" transform="matrix(0.19329 0.00202215 -0.00202215 0.19329 2.0708 0)" d="M608.839 980.285C609.705 979.307 610.466 978.621 611.416 977.743C612.214 978.85 612.778 979.917 613.966 980.502C613.42 980.907 612.756 981.399 611.974 981.979C605.727 982.137 596.153 981.647 590.246 981.446C595.153 980.638 603.929 980.186 608.839 980.285Z"/><path fill="#5F2D17" transform="matrix(0.19329 0.00202215 -0.00202215 0.19329 2.0708 0)" d="M420.693 917.955C437.735 919.284 465.156 918.503 482.996 918.509L523.305 918.515C529.651 918.515 538.093 918.75 544.238 918.432L595.228 918.453C598.074 918.451 610.298 918.027 611.977 919.042C611.873 920.993 611.418 922.649 612.994 924.012C611.597 925.127 611.438 924.955 609.215 925.018C600.972 925.249 592.626 925.185 584.377 925.172L539.358 925.061L420.486 925.008C421.855 923.84 422.078 923.806 422.898 922.167C422.93 920.406 421.823 919.427 420.693 917.955Z"/><defs><linearGradient id="gradient_6" gradientUnits="userSpaceOnUse" x1="447.31088" y1="908.14105" x2="405.98401" y2="898.14032"><stop offset="0" stop-color="#AEB8B6"/><stop offset="1" stop-color="#D3C2C1"/></linearGradient></defs><path fill="url(#gradient_6)" transform="matrix(0.19329 0.00202215 -0.00202215 0.19329 2.0708 0)" d="M433.652 781.833C435.268 781.921 437.158 781.959 438.329 783.455C442.128 788.307 439.712 796.764 441.727 802.725C441.72 802.704 441.961 803.972 441.958 803.956C439.794 803.167 440.448 803.03 438.731 803.672C437.638 805.565 437.475 806.888 436.794 808.183L438.466 809.701C440.73 818.054 433.653 814.994 434.917 822.496C435.17 823.999 435.852 824.349 435.233 825.943L434.224 826.947C430.565 829.528 430.304 831.228 433.062 834.96L428.806 840.506C428.186 843.089 431.472 845.872 430.328 846.82C418.971 856.234 430.773 854.434 422.474 865.606C421.934 869.508 421.591 873.435 421.447 877.372C421.349 880.838 422.222 881.61 423.961 884.489C417.084 895.308 427.869 891.958 420.735 900.497C420.537 901.764 420.383 902.844 420.245 904.128C422.823 906.215 423.33 908.145 421.808 911.054C420.579 911.649 420.669 911.647 419.798 912.723C420.088 914.354 420.503 916.343 420.693 917.955C421.823 919.427 422.93 920.406 422.898 922.167C422.078 923.806 421.855 923.84 420.486 925.008C420.145 933.148 421.202 928.922 422.879 935.299C423.819 938.872 417.225 941.561 422.264 947.676C422.689 948.191 422.668 948.385 422.907 949.245C421.982 950.19 421.134 951.053 420.158 951.955C420.207 956.13 421.345 959.939 422.243 963.72C422.403 964.394 418.261 968.237 419.52 970.696C420.186 975.209 423.99 976.612 420.903 980.858C418.719 983.304 419.16 984.736 419.199 988.156C419.852 990.363 420.377 990.702 421.963 992.491L421.649 993.304C419.215 999.441 415.645 1001.48 421.963 1007.65C417.665 1013.47 417.483 1014.64 421.061 1021.23C420.935 1022.68 420.857 1022.66 420.223 1024L410.832 1024L413.334 930.161C413.867 908.297 413.656 885.673 415.946 863.893C417.121 852.721 422.399 839.342 425.516 828.434C428.101 819.386 430.181 810.612 431.603 801.284C432.022 798.535 433.455 791.71 433.401 789.266C432.648 788.075 432.011 787.415 432.131 786.047C433.481 784.152 433.542 784.091 433.652 781.833Z"/><path fill="#C8B3B0" transform="matrix(0.19329 0.00202215 -0.00202215 0.19329 2.0708 0)" d="M436.794 808.183L438.466 809.701C440.73 818.054 433.653 814.994 434.917 822.496C435.17 823.999 435.852 824.349 435.233 825.943L434.224 826.947C430.565 829.528 430.304 831.228 433.062 834.96L428.806 840.506C428.616 838.836 428.363 838.671 428.973 837.278L428.92 837.884C429.561 837.208 430.43 836.455 431.129 835.81C431.633 833.971 429.498 830.31 429.091 828.589C429.101 828.631 431.397 825.325 431.782 824.584C433.761 820.779 435.878 814.926 436.667 810.778C436.291 812.757 436.971 806.775 436.794 808.183Z"/><path fill="#C8B3B0" transform="matrix(0.19329 0.00202215 -0.00202215 0.19329 2.0708 0)" d="M419.798 912.723C420.839 909.81 419.177 906.516 420.245 904.128C422.823 906.215 423.33 908.145 421.808 911.054C420.579 911.649 420.669 911.647 419.798 912.723Z"/><path fill="#292725" transform="matrix(0.19329 0.00202215 -0.00202215 0.19329 2.0708 0)" d="M617.489 694.027C648.616 700.275 659.807 716.101 669.38 744.951C670.429 748.113 671.891 752.758 673.239 755.767C678.476 757.958 685.794 759.523 691.448 761.267C696.21 762.735 701.996 764.769 706.747 765.828C710.293 767.277 713.179 768.127 716.862 769.224C718.051 769.647 721.593 771.01 722.625 771.255C727.178 773.424 730.946 774.347 735.798 775.678C737.919 776.95 738.451 777.071 740.853 777.848C772.383 791.151 808.34 808.655 828.051 837.517C846.327 864.277 856.835 902.734 863.995 933.762C870.773 963.612 876.391 993.714 880.836 1024L623.118 1024L613.795 1024C611.485 1016.85 620.543 1019.8 612.713 1007.47C613.802 1006.05 614.882 1004.5 615.937 1003.04L615.445 996.92C614.512 995.754 613.402 994.522 612.415 993.382C612.985 992.018 614.815 989.301 615.677 987.939C615.621 984.477 615.987 983.064 613.966 980.502C612.778 979.917 612.214 978.85 611.416 977.743C615.791 972.134 617.17 969.837 612.425 964.842C610.271 962.573 614.608 959.421 614.779 957.233C614.92 955.42 614.711 953.795 613.381 952.345C608.951 946.636 615.192 947.234 614.904 942.195C614.713 938.854 612.18 938.44 612.072 935.387C612.487 933.575 613.404 932.969 614.741 931.652C614.733 928.804 615.393 925.656 612.994 924.012C611.418 922.649 611.873 920.993 611.977 919.042C617.889 918.652 613.051 910.633 611.219 908.223L614.354 901.754L611.176 896.356C614.269 890.035 614.343 889.998 610.701 883.837C612.319 881.372 612.788 880.73 613.796 877.889C613.814 874.193 614.205 869.456 612.767 866.223C609.304 860.312 607.357 859.596 611.149 853.233C603.595 844.288 608.934 843.248 606.67 839.593C605.82 838.911 605.171 838.501 604.271 837.904C601.988 833.303 605.809 832.808 603.638 828.364C600.549 826.785 600.119 825.016 601.037 821.995L602.172 819.407C601.437 816.104 600.863 816.166 597.768 814.838L597.708 812.838C598.462 810.628 599.969 807.985 598.26 806.163L596.392 806.295C595.931 804.473 596.36 800.837 596.278 798.794C596.037 792.832 598.157 783.158 603.655 780.09C603.892 779.297 603.855 777.91 604.02 777.001C605.286 770.006 607.734 766.136 613.245 761.894C609.845 760.329 606.612 759.292 603.075 758.09C602.544 759.915 603.012 761.619 603.317 763.516L600.496 764.172L599.743 763.629C599.613 762.215 599.47 761.246 599.241 759.863C597.961 758.434 598.74 758.931 596.726 758.484L595.91 758.228L595.983 757.588L597.532 756.809C597.388 755.134 597.376 755.254 596.39 753.869C591.302 744.12 590.635 715.461 591.381 704.382C599.948 700.985 608.907 697.255 617.489 694.027Z"/><path fill="#C7C3C2" transform="matrix(0.19329 0.00202215 -0.00202215 0.19329 2.0708 0)" d="M596.392 806.295C595.931 804.473 596.36 800.837 596.278 798.794C596.037 792.832 598.157 783.158 603.655 780.09C603.017 783.152 603.546 784.007 604.652 786.836C604.27 788.142 604.489 787.682 603.598 788.743C604.271 802.022 607.8 818.779 611.241 831.617C613.897 841.53 617.486 849.047 618.57 859.814C620.753 881.499 620.197 902.84 620.635 924.492L623.118 1024L613.795 1024C611.485 1016.85 620.543 1019.8 612.713 1007.47C613.802 1006.05 614.882 1004.5 615.937 1003.04L615.445 996.92C614.512 995.754 613.402 994.522 612.415 993.382C612.985 992.018 614.815 989.301 615.677 987.939C615.621 984.477 615.987 983.064 613.966 980.502C612.778 979.917 612.214 978.85 611.416 977.743C615.791 972.134 617.17 969.837 612.425 964.842C610.271 962.573 614.608 959.421 614.779 957.233C614.92 955.42 614.711 953.795 613.381 952.345C608.951 946.636 615.192 947.234 614.904 942.195C614.713 938.854 612.18 938.44 612.072 935.387C612.487 933.575 613.404 932.969 614.741 931.652C614.733 928.804 615.393 925.656 612.994 924.012C611.418 922.649 611.873 920.993 611.977 919.042C617.889 918.652 613.051 910.633 611.219 908.223L614.354 901.754L611.176 896.356C614.269 890.035 614.343 889.998 610.701 883.837C612.319 881.372 612.788 880.73 613.796 877.889C613.814 874.193 614.205 869.456 612.767 866.223C609.304 860.312 607.357 859.596 611.149 853.233C603.595 844.288 608.934 843.248 606.67 839.593C605.82 838.911 605.171 838.501 604.271 837.904C601.988 833.303 605.809 832.808 603.638 828.364C600.549 826.785 600.119 825.016 601.037 821.995L602.172 819.407C601.437 816.104 600.863 816.166 597.768 814.838L597.708 812.838C598.462 810.628 599.969 807.985 598.26 806.163L596.392 806.295Z"/><path fill="#C8B3B0" transform="matrix(0.19329 0.00202215 -0.00202215 0.19329 2.0708 0)" d="M601.037 821.995L602.172 819.407C602.886 821.429 603.157 821.092 602.518 822.526L602.511 822.016C601.397 824.03 601.508 823.056 601.602 824.979C603.943 828.874 605.169 826.903 605.898 830.899C608.035 830.698 607.388 830.326 608.561 831.238L606.392 831.771C606.626 834.635 606.665 836.738 606.67 839.593C605.82 838.911 605.171 838.501 604.271 837.904C601.988 833.303 605.809 832.808 603.638 828.364C600.549 826.785 600.119 825.016 601.037 821.995Z"/><path fill="#573B22" transform="matrix(0.19329 0.00202215 -0.00202215 0.19329 2.0708 0)" d="M597.532 756.809L598.61 756.657L599.184 755.481C600.735 755.701 601.825 756.991 603.075 758.09C602.544 759.915 603.012 761.619 603.317 763.516L600.496 764.172L599.743 763.629C599.613 762.215 599.47 761.246 599.241 759.863C597.961 758.434 598.74 758.931 596.726 758.484L595.91 758.228L595.983 757.588L597.532 756.809Z"/><path fill="#F7F8F3" fill-opacity="0.011764706" transform="matrix(0.19329 0.00202215 -0.00202215 0.19329 2.0708 0)" d="M747.949 745.001L748.372 745.258C748.519 746.59 748.662 746.882 749.5 748C747.667 748.964 747.539 749.025 747.297 751.301C749.181 749.491 748.889 750.257 749.5 748L750.264 747.397C750.804 748.676 750.558 748.849 750.204 750.262C748.604 752.419 747.156 752.921 744.947 754.32C742.141 756.098 739.019 760.208 736.731 762.798C737.694 763.395 737.523 763.312 738.51 763.716C737.721 764.856 737.413 765.234 736.476 766.257C734.456 765.972 733.677 765.66 731.717 764.995L730.589 763.454C733.025 760.531 734.837 758.779 735.777 755.034L734.89 753.669C734.839 753.731 741.138 748.329 741.39 748.119L742.601 748.429C743.5 749.468 743.909 749.927 744.925 750.842C746.426 750.097 745.303 749.383 745.58 747.788C746.565 746.629 747.355 745.7 747.949 745.001Z"/><path fill="#BFB491" fill-opacity="0.34901962" transform="matrix(0.19329 0.00202215 -0.00202215 0.19329 2.0708 0)" d="M734.89 753.669L735.777 755.034C734.837 758.779 733.025 760.531 730.589 763.454C728.985 765.236 724.801 770.078 722.695 770.882L722.625 771.255C721.593 771.01 718.051 769.647 716.862 769.224C719.081 764.851 730.369 756.402 734.89 753.669Z"/><path fill="#BFB491" fill-opacity="0.40392157" transform="matrix(0.19329 0.00202215 -0.00202215 0.19329 2.0708 0)" d="M735.798 775.678L735.934 775.091L735.051 774.369C738.598 772.478 750.764 768.802 753.798 772.198C752.585 775.31 744.038 777.368 740.853 777.848C738.451 777.071 737.919 776.95 735.798 775.678Z"/><path fill="#BFB491" fill-opacity="0.3019608" transform="matrix(0.19329 0.00202215 -0.00202215 0.19329 2.0708 0)" d="M706.935 765.43C705.635 764.638 705.034 764.371 704.007 763.209C703.494 760.069 705.889 755.039 708.876 754.251C708.918 756.833 709.08 758.486 709.369 761.022C708.612 762.648 708.086 764.055 706.935 765.43Z"/></svg>