<?xml version="1.0" encoding="utf-8" ?><svg xmlns="http://www.w3.org/2000/svg" xmlns:xlink="http://www.w3.org/1999/xlink" width="200" height="200" viewBox="0 0 200 200"><defs><linearGradient id="gradient_0" gradientUnits="userSpaceOnUse" x1="517.5144" y1="666.54504" x2="505.62354" y2="162.28487"><stop offset="0" stop-color="#241505"/><stop offset="1" stop-color="#492E14"/></linearGradient></defs><path fill="url(#gradient_0)" transform="scale(0.195312 0.195312)" d="M277.563 115.882C283.499 108.165 290.95 101.31 298.162 94.8133C417.92 -13.0696 642.217 -7.10519 749.732 115.249C748.206 120.273 744.291 128.735 742.075 133.796C735.056 149.992 727.362 165.887 719.014 181.441C760.887 236.048 770.599 308.891 775.035 375.584C776.091 391.452 775.818 408.064 776.898 423.382C777.102 426.953 777.46 431.236 777.295 434.746C777.257 445.842 778.155 456.868 778.153 467.952C778.148 512.387 778.257 557.593 770.924 601.528C768.933 613.462 765.101 623.477 756.217 631.944C731.493 655.75 696.649 666.838 663.271 671.289C662.116 671.443 661.574 670.632 660.935 669.913C660.542 667.742 660.753 667.18 661.1 664.939C645.513 660.937 615.425 663.442 599.375 665.202C596.004 665.571 589.086 666.101 585.87 666.712C583.986 662.359 578.03 657.685 573.419 656.689L571.345 656.338C569.983 654.279 570.188 644.89 571.05 642.732C569.002 643.12 566.95 643.492 564.896 643.846C564.775 650.033 565.047 655.267 565.05 661.291C564.955 661.063 564.403 659.348 563.943 659.566C557.228 662.743 550.067 665.164 542.86 666.905C539.852 667.632 536.955 668.356 533.963 668.861C517.063 671.65 499.743 670.411 483.413 665.244C479.401 664.003 474.332 661.075 470.582 660.373C470.433 664.382 469.777 673.175 467.801 676.542C465.604 670.741 465.071 662.722 464.943 656.556C458.528 658.384 453.661 661.367 449.559 666.75C445.05 665.675 439.363 665.297 434.197 664.771C414.004 662.712 393.31 661.065 373.275 665.322C371.038 665.798 373.729 668.289 372.737 670.545C370.024 672.045 360.496 670.072 357.146 669.393C324.526 662.848 288.207 649.856 268.211 621.791C262.09 611.954 260.008 595.701 258.858 584.341C255.076 546.982 254.586 509.698 253.833 472.223C253.732 467.215 254.327 461.298 254.435 456.097C256.105 376.132 256.976 290.714 291.721 217.005C296.113 207.78 303.791 193.262 310.089 185.457C300.882 167.751 291.505 150.786 283.798 132.264C281.911 127.73 278.57 120.509 277.563 115.882Z"/><defs><linearGradient id="gradient_1" gradientUnits="userSpaceOnUse" x1="523.28009" y1="641.5553" x2="510.36218" y2="239.76778"><stop offset="0" stop-color="#D8B36B"/><stop offset="1" stop-color="#EBE2B3"/></linearGradient></defs><path fill="url(#gradient_1)" transform="scale(0.195312 0.195312)" d="M507.828 288.956C501.908 297.456 495.471 305.582 488.553 313.29C483.802 318.568 466.794 334.481 464.822 338.768C466.249 343.514 476.713 339.532 480.129 338.313C530.138 320.459 583.316 278.714 612.879 234.874C624.303 278.677 648.999 323.3 682.322 354.347C688.933 360.507 695.018 364.218 702.02 369.497C705.831 385.434 708.101 401.701 708.8 418.073C709.352 429.924 709.208 443.257 710.202 454.814C711.433 459.139 711.286 459.356 715.209 461.501C721.947 456.498 738.712 412.909 742.606 402.625L745.01 396.888C757.747 395.232 763.157 397.363 771.199 407.593C773.966 413.301 775.13 417.289 776.898 423.382C777.102 426.953 777.46 431.236 777.295 434.746C777.257 445.842 778.155 456.868 778.153 467.952C778.148 512.387 778.257 557.593 770.924 601.528C768.933 613.462 765.101 623.477 756.217 631.944C731.493 655.75 696.649 666.838 663.271 671.289C662.116 671.443 661.574 670.632 660.935 669.913C660.542 667.742 660.753 667.18 661.1 664.939C645.513 660.937 615.425 663.442 599.375 665.202C596.004 665.571 589.086 666.101 585.87 666.712C583.986 662.359 578.03 657.685 573.419 656.689L571.345 656.338C569.983 654.279 570.188 644.89 571.05 642.732C569.002 643.12 566.95 643.492 564.896 643.846C564.775 650.033 565.047 655.267 565.05 661.291C564.955 661.063 564.403 659.348 563.943 659.566C557.228 662.743 550.067 665.164 542.86 666.905C539.852 667.632 536.955 668.356 533.963 668.861C517.063 671.65 499.743 670.411 483.413 665.244C479.401 664.003 474.332 661.075 470.582 660.373C470.433 664.382 469.777 673.175 467.801 676.542C465.604 670.741 465.071 662.722 464.943 656.556C464.893 651.891 464.81 647.228 464.695 642.564C447.06 640.562 405.267 619.124 389.315 609.601C351.401 586.969 340.852 561.322 331.052 520.495C323.281 522.391 319.087 522.727 311.382 520.637C310.571 520.298 309.764 519.948 308.962 519.587C291.509 511.875 277.375 490.852 269.37 474.185C266.29 467.771 264.214 461.502 261.693 454.944C256.233 432.516 253.664 393.404 288.081 397.052C289.624 398.95 290.238 400.801 290.876 403.187C295.138 413.547 300.875 426.084 304.731 436.296C305.776 438.106 311.037 448.611 311.683 450.433C313.725 454.722 315.467 459.952 319.881 461.775C324.047 460.32 323.763 458.268 324.579 454.369C325.082 424.278 324.792 405.297 330.816 375.364C336.568 375.04 346.281 373.007 352.757 372.222C359.279 370.921 366.035 368.181 372.565 366.532C395.641 360.704 416.677 367.877 437.676 376.955C446.883 380.835 454.731 384.831 464.888 386.126C492.238 363.539 418.661 348.128 406.232 347.205C443.503 332.037 476.302 314.518 507.828 288.956Z"/><path fill="#271707" transform="scale(0.195312 0.195312)" d="M770.807 463.391C773.175 455.935 776.929 442.449 777.295 434.746C777.257 445.842 778.155 456.868 778.153 467.952C778.148 512.387 778.257 557.593 770.924 601.528C768.933 613.462 765.101 623.477 756.217 631.944C731.493 655.75 696.649 666.838 663.271 671.289C662.116 671.443 661.574 670.632 660.935 669.913C660.542 667.742 660.753 667.18 661.1 664.939C645.513 660.937 615.425 663.442 599.375 665.202C596.004 665.571 589.086 666.101 585.87 666.712C583.986 662.359 578.03 657.685 573.419 656.689L571.345 656.338C569.983 654.279 570.188 644.89 571.05 642.732C587.749 639.937 624.606 621.653 639.779 613.035C682.873 588.558 691.964 564.938 703.748 520.425C710.751 522.16 716.175 522.442 723.116 520.643C741.403 514.37 754.36 495.467 763.396 479.198C766.21 474.132 768.264 468.565 770.807 463.391Z"/><path fill="#3C250E" transform="scale(0.195312 0.195312)" d="M770.807 463.391L771.51 463.403L772.149 462.359C774.478 473.059 772.767 499.891 772.509 511.039C771.808 541.363 771.205 578.435 764.484 608.018C757.239 639.906 703.426 658.563 675.343 663.999C673.47 664.361 671.722 664.694 669.903 665.238C699.906 633.214 715.974 593.42 721.658 549.967C722.482 543.667 723.389 533.778 723.258 527.528C724.759 525.306 725.139 525.589 724.946 523.549L724.313 522.75C723.621 521.864 723.502 521.732 723.116 520.643C741.403 514.37 754.36 495.467 763.396 479.198C766.21 474.132 768.264 468.565 770.807 463.391Z"/><path fill="#C49860" transform="scale(0.195312 0.195312)" d="M745.01 396.888C757.747 395.232 763.157 397.363 771.199 407.593C773.966 413.301 775.13 417.289 776.898 423.382C777.102 426.953 777.46 431.236 777.295 434.746C776.929 442.449 773.175 455.935 770.807 463.391C768.264 468.565 766.21 474.132 763.396 479.198C754.36 495.467 741.403 514.37 723.116 520.643C716.175 522.442 710.751 522.16 703.748 520.425C691.964 564.938 682.873 588.558 639.779 613.035C624.606 621.653 587.749 639.937 571.05 642.732C569.002 643.12 566.95 643.492 564.896 643.846C564.775 650.033 565.047 655.267 565.05 661.291C564.955 661.063 564.403 659.348 563.943 659.566C557.228 662.743 550.067 665.164 542.86 666.905C539.852 667.632 536.955 668.356 533.963 668.861C517.063 671.65 499.743 670.411 483.413 665.244C479.401 664.003 474.332 661.075 470.582 660.373C470.433 664.382 469.777 673.175 467.801 676.542C465.604 670.741 465.071 662.722 464.943 656.556C464.893 651.891 464.81 647.228 464.695 642.564C447.06 640.562 405.267 619.124 389.315 609.601C351.401 586.969 340.852 561.322 331.052 520.495C323.281 522.391 319.087 522.727 311.382 520.637C310.571 520.298 309.764 519.948 308.962 519.587C291.509 511.875 277.375 490.852 269.37 474.185C266.29 467.771 264.214 461.502 261.693 454.944C256.233 432.516 253.664 393.404 288.081 397.052C289.624 398.95 290.238 400.801 290.876 403.187C295.138 413.547 300.875 426.084 304.731 436.296C305.776 438.106 311.037 448.611 311.683 450.433C313.725 454.722 315.467 459.952 319.881 461.775C324.047 460.32 323.763 458.268 324.579 454.369C326.042 456.708 334.127 507.106 336.085 514.355C342.427 537.84 346.507 562.671 364.095 581.705C384.017 602.185 413.204 616.894 439.676 627.539C491.461 648.362 551.845 647.277 602.695 624.146C613.141 619.394 623.066 614.209 632.834 609.59C680.804 586.91 693.744 545.939 701.849 497.115C702.825 491.377 708.293 459.089 710.202 454.814C711.433 459.139 711.286 459.356 715.209 461.501C721.947 456.498 738.712 412.909 742.606 402.625L745.01 396.888Z"/><path fill="#DABC80" transform="scale(0.195312 0.195312)" d="M742.606 402.625C749.077 401.466 754.571 400.148 760.298 404.315C773.738 414.093 772.47 434.388 768.924 448.615C765.043 464.19 758.555 478.489 749.198 491.479C741.818 501.668 731.975 512.956 718.994 515.667C714.606 516.507 709.085 515.429 704.757 514.535C708.07 502.785 709.864 487.67 712.469 475.646C713.354 471.559 714.055 465.31 715.209 461.501C721.947 456.498 738.712 412.909 742.606 402.625Z"/><path fill="#DABC80" transform="scale(0.195312 0.195312)" d="M329.764 515.036C324.007 516.019 320.491 517.089 314.602 515.463C298.744 511.083 285.199 492.156 277.475 478.543C267.853 460.719 260.229 437.849 265.464 417.559C268.758 404.795 278.228 399.055 290.876 403.187C295.138 413.547 300.875 426.084 304.731 436.296C305.776 438.106 311.037 448.611 311.683 450.433C313.725 454.722 315.467 459.952 319.881 461.775C320.233 466.755 322.135 476.084 323.074 481.173C325.096 492.501 327.326 503.79 329.764 515.036Z"/><path fill="#C49860" transform="scale(0.195312 0.195312)" d="M281.049 451.328C277.85 442.01 275.615 434.525 279.541 424.847L279.825 424.154C279.316 423.054 277.344 422.832 275.509 421.95L275.758 421.13C284.412 415.918 296.398 426.786 301.212 433.212C302.034 434.309 303.473 435.898 304.731 436.296C305.776 438.106 311.037 448.611 311.683 450.433C310.324 451.459 310.129 452.33 309.115 453.877C303.226 462.855 304.153 479.87 315.216 484.297C316.769 484.918 319.22 484.403 321.33 485.551C316.974 486.622 312.016 486.52 308.087 484.121C288.494 472.158 306.255 454.619 304.055 446.909C301.995 439.693 290.912 429.775 284.459 425.888C279.891 435.208 280.788 441.194 281.049 451.328Z"/><path fill="#B18958" transform="scale(0.195312 0.195312)" d="M464.695 642.564C467.099 642.451 468.7 643.153 471.007 643.871C470.907 649.325 470.878 654.939 470.582 660.373C470.433 664.382 469.777 673.175 467.801 676.542C465.604 670.741 465.071 662.722 464.943 656.556C464.893 651.891 464.81 647.228 464.695 642.564Z"/><path fill="#1B1814" transform="scale(0.195312 0.195312)" d="M575.691 425.552L575.493 425.467L574.923 425.543C573.901 421.147 574.772 418.122 575.923 413.99C587.137 373.745 653.032 374.315 672.372 407.144C673.103 408.385 673.209 409.473 672.752 410.761L670.953 410.766C677.298 415.16 679.71 416.297 687.386 414.157C684.08 419.293 682.949 420.498 678.234 424.387C676.191 430.635 674.01 438.746 669.587 443.576L668.81 443.811C666.844 453.184 648.751 464.821 639.872 462.797L638.022 463.77C632.741 464.828 604.361 463.96 600.464 462.651L599.131 462.284C592.695 462.81 580.684 459.175 576.131 454.335C572.528 450.504 573.134 445.52 573.416 440.696C572.614 436.471 574.533 429.621 575.691 425.552Z"/><path fill="#DABC80" transform="scale(0.195312 0.195312)" d="M575.691 425.552L575.493 425.467L574.923 425.543C573.901 421.147 574.772 418.122 575.923 413.99C587.137 373.745 653.032 374.315 672.372 407.144C673.103 408.385 673.209 409.473 672.752 410.761L670.953 410.766C654.164 401.314 645.217 395.208 625.048 394.912C603.02 394.59 585.097 405.636 575.691 425.552Z"/><path fill="#F9F9F8" transform="scale(0.195312 0.195312)" d="M586.55 418.634C591.569 415.704 595.486 409.132 602.359 412.85C599.272 416.634 598.422 418.224 599.497 423.119C597.358 425.84 597.77 429.072 598.354 432.419C598.567 435.325 598.859 437.055 599.382 439.861C589.748 445.367 590.451 445.347 596.483 455.068C597.734 457.084 601.227 460.023 601.2 462.136L600.464 462.651L599.131 462.284C592.695 462.81 580.684 459.175 576.131 454.335C572.528 450.504 573.134 445.52 573.416 440.696C576.454 430.837 579.327 426.14 586.55 418.634Z"/><path fill="#3C250E" transform="scale(0.195312 0.195312)" d="M586.55 418.634C591.569 415.704 595.486 409.132 602.359 412.85C599.272 416.634 598.422 418.224 599.497 423.119C597.358 425.84 597.77 429.072 598.354 432.419C598.567 435.325 598.859 437.055 599.382 439.861C589.748 445.367 590.451 445.347 596.483 455.068C597.734 457.084 601.227 460.023 601.2 462.136L600.464 462.651L599.131 462.284C585.971 450.889 583.449 435.01 586.55 418.634Z"/><path fill="#764B20" transform="scale(0.195312 0.195312)" d="M639.544 437.64C643.475 437.913 652.115 438.481 649.766 445.07C647.385 451.751 642.249 458.164 636.457 462.277C637.139 463.437 637.254 462.982 638.022 463.77C632.741 464.828 604.361 463.96 600.464 462.651L601.2 462.136C601.227 460.023 597.734 457.084 596.483 455.068C590.451 445.347 589.748 445.367 599.382 439.861C602.569 446.238 606.27 451.466 613.333 454.073C620.634 456.768 630.724 454.265 634.595 447.123C636.77 444.133 638.107 441.041 639.544 437.64Z"/><path fill="#F9F9F8" transform="scale(0.195312 0.195312)" d="M649.22 410.847C656.774 413.864 665.363 419.127 670.449 425.595C670.581 432.847 670.148 436.672 668.81 443.811C666.844 453.184 648.751 464.821 639.872 462.797C655.874 450.21 656.505 428.357 649.22 410.847Z"/><path fill="#3C250E" transform="scale(0.195312 0.195312)" d="M634.186 446.605C637.852 437.855 641.505 434.61 640.057 424.061C639.037 416.638 637.05 414.004 634.31 407.419L634.872 406.712C638.671 405.934 645.813 409.026 649.22 410.847C656.505 428.357 655.874 450.21 639.872 462.797L638.022 463.77C637.254 462.982 637.139 463.437 636.457 462.277C642.249 458.164 647.385 451.751 649.766 445.07C652.115 438.481 643.475 437.913 639.544 437.64C638.107 441.041 636.77 444.133 634.595 447.123L634.186 446.605Z"/><path fill="#F9F9F8" transform="scale(0.195312 0.195312)" d="M602.359 412.85C619.84 402.575 612.75 438.346 599.497 423.119C598.422 418.224 599.272 416.634 602.359 412.85Z"/><path fill="#271707" transform="scale(0.195312 0.195312)" d="M598.354 432.419C600.044 435.543 599.75 440.263 601.886 442.113C603.345 441.777 603.969 441.464 605.429 442.059C608.556 447.033 605.468 451.448 613.803 453.196C617.425 453.956 623.492 454.281 627.002 452.642C629.538 451.459 633.179 447.3 634.186 446.605L634.595 447.123C630.724 454.265 620.634 456.768 613.333 454.073C606.27 451.466 602.569 446.238 599.382 439.861C598.859 437.055 598.567 435.325 598.354 432.419Z"/><path fill="#1B1814" transform="scale(0.195312 0.195312)" d="M360.786 411.999C360.491 407.853 362.297 404.483 365.233 401.28C392.272 371.79 452.923 376.804 459.155 422.054C459.303 423.132 459.181 423.971 458.78 425.016C458.449 425.278 457.95 425.708 457.605 425.904C458.808 429.802 460.534 436.129 459.724 440.142C460.26 452.533 459.099 455.815 446.654 459.832C444.173 460.632 436.829 462.821 434.619 461.89L432.47 462.901C426.645 463.324 397.813 466.256 394.589 463.037L394.065 463.105C387.018 465.803 365.474 452.803 364.71 443.832L363.805 443.435C359.454 437.661 357.512 431.647 355.652 424.707C351.053 420.774 349.603 419.668 346.507 414.527C352.945 416.039 355.406 415.499 360.786 411.999Z"/><path fill="#DABC80" transform="scale(0.195312 0.195312)" d="M360.786 411.999C360.491 407.853 362.297 404.483 365.233 401.28C392.272 371.79 452.923 376.804 459.155 422.054C459.303 423.132 459.181 423.971 458.78 425.016C458.449 425.278 457.95 425.708 457.605 425.904C450.523 406.995 430.9 395.045 411.065 394.838C390.158 394.619 377.861 401.156 360.786 411.999Z"/><path fill="#764B20" transform="scale(0.195312 0.195312)" d="M394.589 463.037C394.961 462.95 395.68 462.615 396.064 462.454L396.17 461.853C390.71 458.747 382.609 447.062 383.474 440.691C385.286 437.971 389.215 438.27 392.734 437.285L393.178 437.158C398.383 450.524 407.645 458.361 422.477 453.266C428.441 449.494 429.965 446.249 433.113 440.2C452.279 442.093 431.822 459.104 431.457 462.291L432.47 462.901C426.645 463.324 397.813 466.256 394.589 463.037Z"/><path fill="#F9F9F8" transform="scale(0.195312 0.195312)" d="M363.123 425.565C368.884 418.77 375.934 414.513 383.992 410.841C376.24 428.522 377.576 450.831 394.065 463.105C387.018 465.803 365.474 452.803 364.71 443.832C363.331 437.38 362.819 432.211 363.123 425.565Z"/><path fill="#F9F9F8" transform="scale(0.195312 0.195312)" d="M434.619 461.89C447.599 450.385 448.902 434.528 446.689 418.494C453.524 425.787 457.113 430.478 459.724 440.142C460.26 452.533 459.099 455.815 446.654 459.832C444.173 460.632 436.829 462.821 434.619 461.89Z"/><defs><linearGradient id="gradient_2" gradientUnits="userSpaceOnUse" x1="444.87546" y1="415.80081" x2="423.0441" y2="456.72205"><stop offset="0" stop-color="#271B08"/><stop offset="1" stop-color="#502C0A"/></linearGradient></defs><path fill="url(#gradient_2)" transform="scale(0.195312 0.195312)" d="M430.424 409.07C438.123 411.729 441.711 412.043 446.689 418.494C448.902 434.528 447.599 450.385 434.619 461.89L432.47 462.901L431.457 462.291C431.822 459.104 452.279 442.093 433.113 440.2L433.416 438.798C436.952 427.864 436.646 418.978 430.424 409.07Z"/><path fill="#3C250E" transform="scale(0.195312 0.195312)" d="M422.477 453.266C425.712 448.934 427.689 439.099 433.416 438.798L433.113 440.2C429.965 446.249 428.441 449.494 422.477 453.266Z"/><path fill="#F9F9F8" transform="scale(0.195312 0.195312)" d="M399.121 411.508C409.964 410.746 409.827 421.19 402.356 426.319C391.112 427.374 391.724 417.16 399.121 411.508Z"/><path fill="#C49860" transform="scale(0.195312 0.195312)" d="M458.561 558.822C456.682 557.92 456.425 557.893 455.085 556.375L454.937 555.37C456.549 554.561 459.205 555.03 461.062 555.203C474.762 556.478 488.341 554.233 501.99 553.661C506.408 553.476 511.543 555.742 515.985 555.759C519.571 555.766 525.206 553.621 528.511 553.731C547.254 554.354 558.914 558.284 577.51 553.764L578.35 554.12C578.021 555.699 576.829 556.939 575.52 557.813C574.422 558.547 573.248 559.159 572.018 559.64C571.566 560.355 570.837 561.299 570.224 561.886C554.774 576.687 539.435 584.992 517.934 585.477C491.689 586.07 476.775 576.088 458.561 558.822Z"/><path fill="#B18958" transform="scale(0.195312 0.195312)" d="M458.561 558.822C456.682 557.92 456.425 557.893 455.085 556.375L454.937 555.37C456.549 554.561 459.205 555.03 461.062 555.203C474.762 556.478 488.341 554.233 501.99 553.661C506.408 553.476 511.543 555.742 515.985 555.759C519.571 555.766 525.206 553.621 528.511 553.731C547.254 554.354 558.914 558.284 577.51 553.764L578.35 554.12C578.021 555.699 576.829 556.939 575.52 557.813C574.422 558.547 573.248 559.159 572.018 559.64C564.869 560.393 555.933 562.781 548.121 563.752C514.835 567.89 490.759 565.614 458.561 558.822Z"/><path fill="#3C250E" transform="scale(0.195312 0.195312)" d="M632.433 346.207C637.951 345.55 644.254 345.997 649.623 347.461C660.743 350.493 676.798 362.351 682.407 372.151C676.653 370.82 669.853 368.124 663.748 366.738C640.49 361.458 628.064 364.903 606.854 372.459C600.192 374.958 570.559 389.337 566.695 384.789C545.888 360.296 619.057 347.43 632.433 346.207Z"/><path fill="#B18958" transform="scale(0.195312 0.195312)" d="M515.568 512.434L526.529 512.544C531.024 512.713 539.014 511.789 542.101 513.445C542.854 515 542.688 514.373 541.962 516.537C538.976 524.599 521.332 543.738 511.646 538.523C504.176 534.502 494.807 525.711 491.35 517.907C490.678 516.201 490.013 515.054 490.196 513.254C492.521 512.069 511.214 512.526 515.568 512.434Z"/><path fill="#C49860" transform="scale(0.195312 0.195312)" d="M491.35 517.907C497.031 518.401 502.486 525.761 510.34 528.031C522.595 531.574 530.448 522.158 541.171 516.918L541.962 516.537C538.976 524.599 521.332 543.738 511.646 538.523C504.176 534.502 494.807 525.711 491.35 517.907Z"/><path fill="#E6D29C" transform="scale(0.195312 0.195312)" d="M505.173 512.075C479.434 477.151 553.802 478.412 526.529 512.544L515.568 512.434C511.859 512 508.919 512.059 505.173 512.075Z"/><path fill="#A7A6A6" transform="scale(0.195312 0.195312)" d="M277.563 115.882C283.499 108.165 290.95 101.31 298.162 94.8133C417.92 -13.0696 642.217 -7.10519 749.732 115.249C748.206 120.273 744.291 128.735 742.075 133.796C735.056 149.992 727.362 165.887 719.014 181.441C717.868 183.259 717.229 184.35 716.304 186.286C711.668 193.496 702.748 210.686 696.554 216.056C689.664 211.154 682.36 205.625 674.901 201.531C579.294 149.057 456.602 148.837 359.486 197.632C348.706 203.049 339.69 209.885 329.813 216.487C322.855 208.75 315.325 194.582 310.089 185.457C300.882 167.751 291.505 150.786 283.798 132.264C281.911 127.73 278.57 120.509 277.563 115.882Z"/><path fill="#F9F9F8" transform="scale(0.195312 0.195312)" d="M504.295 23.7207C514.033 23.425 523.779 23.568 533.503 24.1491C609.39 28.824 692.056 58.4984 743.388 116.614C729.334 150.178 716.188 177.874 695.886 208.465C647.905 174.796 580.401 157.267 522.276 156.353C511.323 155.643 495.282 156.585 484.325 157.483C431.817 161.784 374.238 177.907 330.959 208.873C310.618 175.739 298.562 153.33 283.772 117.142C285.049 115.624 286.356 114.133 287.694 112.668C294.754 104.96 303.098 97.5115 311.229 90.9527C366.541 46.337 434.343 26.6986 504.295 23.7207Z"/><path fill="#D8110D" transform="scale(0.195312 0.195312)" d="M502.748 55.744C511.966 55.5429 521.188 55.5782 530.405 55.8501C530.744 64.1244 530.487 74.0884 530.493 82.492C539.153 82.4013 547.814 82.3961 556.474 82.4765C557.097 91.5994 556.846 103.483 556.822 112.821C548.338 113.075 539.015 112.865 530.527 112.672C530.573 116.865 531.122 135.66 530.062 138.29L528.748 138.793C519.692 138.976 509.682 138.663 500.556 138.568C500.495 130.013 500.484 121.457 500.525 112.901L474.551 112.957C473.966 105.511 473.952 89.6669 474.32 82.2575C482.836 82.0855 491.77 82.1993 500.322 82.1748C500.422 75.3871 499.758 63.466 500.83 56.6572C500.937 55.9723 501.774 56.0049 502.748 55.744Z"/><path fill="#3C250E" transform="scale(0.195312 0.195312)" d="M362.106 664.24C361.093 664.099 360.082 663.949 359.071 663.792C330.103 659.292 272.893 639.387 267.146 605.24C259.972 562.615 259.428 515.931 260.224 472.759C260.327 467.167 259.458 457.944 260.255 452.912L261.071 454.984L261.693 454.944C264.214 461.502 266.29 467.771 269.37 474.185C277.375 490.852 291.509 511.875 308.962 519.587C309.764 519.948 310.571 520.298 311.382 520.637C310.45 521.35 310.062 522.531 310.096 523.75C311.316 567.408 323.232 611.405 348.719 647.359C353 653.398 357.826 658.456 362.106 664.24Z"/><path fill="#271707" transform="scale(0.195312 0.195312)" d="M512.17 292.104C503.687 305.022 495.358 314.024 485.193 325.693C483.544 327.587 479.012 331.709 478.305 333.013L479.108 331.809L479.017 333.18C480.783 332.35 483.236 330.723 485.031 330.551C487.4 330.325 488.304 328.944 490.102 328.341C497.705 325.791 503.634 322.388 510.563 318.431C547.105 297.92 579.007 270.068 604.261 236.627C606.622 233.513 612.558 223.336 615.489 224.026C616.715 225.887 618.302 234.066 619.156 236.973C631.37 278.554 653.048 317.15 683.699 347.979C689.949 354.266 699.948 360.659 707.194 367.458C712.792 388.756 714.776 415.463 714.719 437.384C714.705 442.839 715.207 448.867 714.912 454.252C724.383 435.82 731.277 415.065 739.361 396.007C740.073 394.328 741.123 392.827 742.797 392.058C744.601 392.128 743.8 391.835 745.234 393.085C745.776 394.614 745.417 395.307 745.01 396.888L742.606 402.625C738.712 412.909 721.947 456.498 715.209 461.501C711.286 459.356 711.433 459.139 710.202 454.814C709.208 443.257 709.352 429.924 708.8 418.073C708.101 401.701 705.831 385.434 702.02 369.497C695.018 364.218 688.933 360.507 682.322 354.347C648.999 323.3 624.303 278.677 612.879 234.874C583.316 278.714 530.138 320.459 480.129 338.313C476.713 339.532 466.249 343.514 464.822 338.768C466.794 334.481 483.802 318.568 488.553 313.29C495.471 305.582 501.908 297.456 507.828 288.956C476.302 314.518 443.503 332.037 406.232 347.205C418.661 348.128 492.238 363.539 464.888 386.126C454.731 384.831 446.883 380.835 437.676 376.955C416.677 367.877 395.641 360.704 372.565 366.532C366.035 368.181 359.279 370.921 352.757 372.222C346.281 373.007 336.568 375.04 330.816 375.364C324.792 405.297 325.082 424.278 324.579 454.369C323.763 458.268 324.047 460.32 319.881 461.775C315.467 459.952 313.725 454.722 311.683 450.433C311.037 448.611 305.776 438.106 304.731 436.296C300.875 426.084 295.138 413.547 290.876 403.187C290.238 400.801 289.624 398.95 288.081 397.052C287.94 395.473 287.764 395.141 288.368 393.68C290.081 392.185 289.147 392.49 291.122 392.368C292.595 393.405 292.584 393.036 293.238 394.597C296.725 402.914 300.223 411.399 303.652 419.745C308.347 431.174 315.178 443.263 319.488 454.358C318.605 424.41 320.768 397.129 327.12 367.888C315.355 370.184 298.773 370.057 286.892 368.91C289.557 366.057 311.427 364.835 316.206 364.264C373.418 357.423 427.949 336.266 476.411 305.366C484.969 299.909 493.206 292.368 501.908 286.952C505.826 284.514 522.201 269.546 525.084 269.387L525.545 269.989C522.242 274.529 513.726 287.199 512.17 292.104Z"/><path fill="#DABC80" transform="scale(0.195312 0.195312)" d="M332.76 367.582C343.918 364.966 352.468 363.447 363.827 360.223C359.671 363.528 355.263 367.498 352.757 372.222C346.281 373.007 336.568 375.04 330.816 375.364L332.76 367.582Z"/><path fill="#3C250E" transform="scale(0.195312 0.195312)" d="M559.143 216.375C549.938 238.408 528.926 275.757 512.17 292.104C513.726 287.199 522.242 274.529 525.545 269.989L525.084 269.387C522.201 269.546 505.826 284.514 501.908 286.952C493.206 292.368 484.969 299.909 476.411 305.366C427.949 336.266 373.418 357.423 316.206 364.264C311.427 364.835 289.557 366.057 286.892 368.91C286.462 365.569 294.367 365.999 296.683 365.549C334.786 358.16 372.689 344.366 407.857 327.789C446.198 309.644 481.938 286.446 514.122 258.815C524.15 250.074 533.487 240.877 543.025 231.641C547.879 226.94 553.317 221.16 558.445 216.944L559.143 216.375Z"/><path fill="#1B1814" transform="scale(0.195312 0.195312)" d="M719.014 181.441C760.887 236.048 770.599 308.891 775.035 375.584C776.091 391.452 775.818 408.064 776.898 423.382C775.13 417.289 773.966 413.301 771.199 407.593C771.274 405.646 770.769 398.427 770.702 395.96C770.318 380.439 769.307 364.94 767.674 349.501C761.834 293.676 751.637 232.008 716.304 186.286C717.229 184.35 717.868 183.259 719.014 181.441Z"/><path fill="#F9F9F8" transform="scale(0.195312 0.195312)" d="M564.896 643.846C566.95 643.492 569.002 643.12 571.05 642.732C570.188 644.89 569.983 654.279 571.345 656.338L573.419 656.689C578.03 657.685 583.986 662.359 585.87 666.712C586.603 668.678 588.629 670.029 590.401 671.227C601.298 675.522 613.799 683.18 619.212 694.041C634.625 697.559 647.605 703.571 662.038 709.741C681.263 717.959 694.935 726.534 705.802 744.757C722.497 772.752 736.171 802.043 750.613 831.214C752.01 834.036 753.613 837.028 754.691 839.957C750.722 844.215 740.987 850.632 739.952 852.023L735.14 855.357C735.398 856.134 737.534 862.15 737.63 862.638C730.959 865.236 720.543 872.337 713.705 875.799C702.753 881.344 690.397 886.574 678.753 890.379C678.099 889.117 677.141 886.451 676.579 885.029C674.715 885.695 672.736 886.285 671.073 887.331L669.865 885.537C666.289 885.492 665.343 894.432 664.211 897.402C655.504 920.241 653.935 944.07 653.363 968.503L653.876 969.067C655.269 969.347 657.116 968.219 658.528 967.56C660.02 968.61 662.505 970.213 663.828 971.293C665.789 974.052 668.445 975.975 670.343 978.813C676.551 988.093 677.714 998.209 677.537 1009.11C677.365 1012.53 676.844 1015.2 675.491 1018.39C674.299 1020.8 673.635 1021.79 672.078 1024L653.852 1024L643.882 1024L564.374 1024L481.279 1024L399.508 1024L382.508 1024L372.002 1024L369.66 1019.11C364.605 1005.93 367.007 992.975 373.518 980.658C374.927 977.992 377.221 975.491 378.878 972.948L379.248 972.374C380.812 971.355 382.785 970.382 383.539 968.772L383.065 967.499L383.339 967.496C383.217 955.137 382.242 937.701 380.101 925.745C378.102 914.58 374.117 901.194 371.083 890.038L366.919 887.966C365.441 887.012 363.35 886.255 361.683 885.553C360.913 887.038 360.096 888.56 359.388 890.069L357.746 889.621C343.264 885.805 312.292 871.012 299.94 862.415C300.76 860.548 301.721 857.42 302.413 855.403C300.83 854.126 298.319 853.127 297.26 851.817C294.181 848.35 285.003 844.021 283.679 839.799C282.648 836.51 290.562 822.72 292.26 819.409L305.412 793.633C313.343 778.246 322.68 758.465 331.753 744.04C336.774 735.97 343.193 728.861 350.709 723.044C365.645 711.543 396.227 699.815 414.475 695.728C423.577 681.419 429.868 676.563 445.746 670.67C447.171 669.424 448.283 668.143 449.559 666.75C453.661 661.367 458.528 658.384 464.943 656.556C465.071 662.722 465.604 670.741 467.801 676.542C469.777 673.175 470.433 664.382 470.582 660.373C474.332 661.075 479.401 664.003 483.413 665.244C499.743 670.411 517.063 671.65 533.963 668.861C536.955 668.356 539.852 667.632 542.86 666.905C550.067 665.164 557.228 662.743 563.943 659.566C564.403 659.348 564.955 661.063 565.05 661.291C565.047 655.267 564.775 650.033 564.896 643.846Z"/><defs><linearGradient id="gradient_3" gradientUnits="userSpaceOnUse" x1="524.67438" y1="1023.7747" x2="517.81348" y2="894.94189"><stop offset="0" stop-color="#B9B8B8"/><stop offset="1" stop-color="#E0E0E0"/></linearGradient></defs><path fill="url(#gradient_3)" transform="scale(0.195312 0.195312)" d="M592.435 884.01C605.825 883.804 609.123 886.205 609.055 899.998C608.971 917.213 606.769 934.804 606.514 951.935C606.558 953.547 606.395 955.89 607.216 957.115C616.454 962.308 628.666 967.216 637.032 973.671C639.587 972.644 645.547 970.128 647.941 969.729L653.363 968.503L653.876 969.067C655.269 969.347 657.116 968.219 658.528 967.56C660.02 968.61 662.505 970.213 663.828 971.293C665.789 974.052 668.445 975.975 670.343 978.813C676.551 988.093 677.714 998.209 677.537 1009.11C677.365 1012.53 676.844 1015.2 675.491 1018.39C674.299 1020.8 673.635 1021.79 672.078 1024L653.852 1024L643.882 1024L564.374 1024L481.279 1024L399.508 1024L382.508 1024L372.002 1024L369.66 1019.11C364.605 1005.93 367.007 992.975 373.518 980.658C374.927 977.992 377.221 975.491 378.878 972.948L379.248 972.374C380.812 971.355 382.785 970.382 383.539 968.772L383.065 967.499L383.339 967.496C385.54 968.59 386.274 968.24 388.836 967.661C394.341 969.364 401.356 972.457 407.442 974.453C417.231 967.895 427.702 962.988 438.036 957.446C439.169 956.838 439.003 956.046 439.224 954.875C437.936 943.047 438.015 929.43 437.052 917.287C436.415 907.603 432.25 884.897 445.605 884.266C450.49 884.035 455.841 883.968 460.759 883.982L485.971 884.045L571.913 884.018L576.424 884.051L587.403 884.019L592.435 884.01Z"/><path fill="#F9F9F8" transform="scale(0.195312 0.195312)" d="M439.224 954.875C439.697 958.126 439.053 960.611 439.929 963.438C440.169 967.498 440.444 971.622 440.63 975.678C437.24 977.193 432.431 976.089 430.375 978.803C430.752 980.474 430.331 979.778 431.827 980.865C446.156 982.28 483.369 970.813 497.708 978.877C498.391 979.274 499.191 981.244 498.902 982.091C498.292 983.878 497.899 985.598 495.008 986.923C480.007 993.8 462.322 993.805 446.311 996.689C446.093 997.085 445.875 997.48 445.657 997.876C446.32 1001.24 452.443 1000.3 455.251 1000.1C461.006 999.762 466.732 999.041 472.393 997.945C476.673 997.142 511.217 986.918 504.716 1001.98C502.771 1006.49 487.04 1010.68 482.61 1011.49C472.948 1014.51 458.446 1012.56 449.597 1014.85C448.741 1016.14 448.944 1015.43 449.178 1017.12C452.756 1020.88 473.035 1017.68 478.204 1017.28C482.189 1016.97 492.273 1013.23 495.012 1013.5C496.186 1018.85 485.2 1022.45 481.279 1024L399.508 1024L382.508 1024L372.002 1024L369.66 1019.11C364.605 1005.93 367.007 992.975 373.518 980.658C374.927 977.992 377.221 975.491 378.878 972.948L379.248 972.374C380.812 971.355 382.785 970.382 383.539 968.772L383.065 967.499L383.339 967.496C385.54 968.59 386.274 968.24 388.836 967.661C394.341 969.364 401.356 972.457 407.442 974.453C417.231 967.895 427.702 962.988 438.036 957.446C439.169 956.838 439.003 956.046 439.224 954.875Z"/><path fill="#BEBEBD" transform="scale(0.195312 0.195312)" d="M439.224 954.875C439.697 958.126 439.053 960.611 439.929 963.438C434.658 962.149 404.168 984.018 400.545 983.73L400.04 983.058C400.913 981.062 402.079 979.675 401.748 978.032C398.503 976.103 391.072 973.869 387.231 972.572C378.178 981.117 373.564 990.086 372.834 1002.84C372.543 1007.91 373.802 1016.92 377.178 1020.8C377.765 1021.02 378.451 1021.33 379.041 1021.44C380.348 1022.22 381.622 1022.8 382.508 1024L372.002 1024L369.66 1019.11C364.605 1005.93 367.007 992.975 373.518 980.658C374.927 977.992 377.221 975.491 378.878 972.948L379.248 972.374C380.812 971.355 382.785 970.382 383.539 968.772L383.065 967.499L383.339 967.496C385.54 968.59 386.274 968.24 388.836 967.661C394.341 969.364 401.356 972.457 407.442 974.453C417.231 967.895 427.702 962.988 438.036 957.446C439.169 956.838 439.003 956.046 439.224 954.875Z"/><path fill="#E4E4E4" transform="scale(0.195312 0.195312)" d="M394.022 1020.84C396.767 1021.95 397.23 1022.14 399.508 1024L382.508 1024C381.622 1022.8 380.348 1022.22 379.041 1021.44C385.673 1021.72 387.563 1022.09 394.022 1020.84Z"/><path fill="#F9F9F8" transform="scale(0.195312 0.195312)" d="M606.514 951.935C606.558 953.547 606.395 955.89 607.216 957.115C616.454 962.308 628.666 967.216 637.032 973.671C639.587 972.644 645.547 970.128 647.941 969.729L653.363 968.503L653.876 969.067C655.269 969.347 657.116 968.219 658.528 967.56C660.02 968.61 662.505 970.213 663.828 971.293C665.789 974.052 668.445 975.975 670.343 978.813C676.551 988.093 677.714 998.209 677.537 1009.11C677.365 1012.53 676.844 1015.2 675.491 1018.39C674.299 1020.8 673.635 1021.79 672.078 1024L653.852 1024L643.882 1024L564.374 1024C561.263 1022.2 548.16 1017.63 550.008 1012.91C561.481 1016.17 572.116 1018.49 584.1 1018.54C587.226 1018.55 593.846 1019.45 596.201 1017.4L596.294 1015.73C595.558 1014.34 595.374 1014.38 592.954 1014.25C576.628 1013.36 559.627 1013.07 544.921 1004.98C541.586 1003.39 539.351 999.386 541.749 995.982C545.207 991.075 556.991 994.737 561.859 995.586C567.579 996.714 573.589 998.002 579.375 998.704C582.802 999.12 597.603 1001.26 599.627 998.282L599.312 997.423C598.127 996.57 597.088 996.126 595.654 995.814C590.972 994.793 585.877 994.665 581.101 994.124C572.593 993.158 563.511 991.525 555.351 988.89C552.6 988.002 548.21 986.37 547.075 983.388C546.643 982.253 546.476 980.942 547.092 979.829C553.306 968.596 601.849 983.96 613.405 979.248C614.347 978.864 614.023 979.113 614.471 978.154C612.482 975.707 608.122 975.665 604.94 975.256C605.239 971.063 605.455 966.864 605.587 962.662C606.08 958.794 605.74 955.891 606.514 951.935Z"/><path fill="#BEBEBD" transform="scale(0.195312 0.195312)" d="M606.514 951.935C606.558 953.547 606.395 955.89 607.216 957.115C616.454 962.308 628.666 967.216 637.032 973.671C639.587 972.644 645.547 970.128 647.941 969.729L653.363 968.503L653.876 969.067C655.269 969.347 657.116 968.219 658.528 967.56C660.02 968.61 662.505 970.213 663.828 971.293C665.789 974.052 668.445 975.975 670.343 978.813C676.551 988.093 677.714 998.209 677.537 1009.11C677.365 1012.53 676.844 1015.2 675.491 1018.39C674.299 1020.8 673.635 1021.79 672.078 1024L653.852 1024C655.075 1023.21 661.694 1021.87 663.806 1021.31C667.838 1020.39 668.725 1019.87 670.343 1015.71C675.419 1002.64 669.114 978.027 654.979 972.592C650.278 974.311 646.286 975.899 641.443 977.499C642.819 979.016 644.588 980.884 644.164 983.089C641.106 984.585 633.969 978.094 630.991 976.465C624.209 972.753 612.859 964.598 605.587 962.662C606.08 958.794 605.74 955.891 606.514 951.935Z"/><path fill="#E4E4E4" transform="scale(0.195312 0.195312)" d="M643.882 1024C650.455 1018.71 656.231 1019.65 663.806 1021.31C661.694 1021.87 655.075 1023.21 653.852 1024L643.882 1024Z"/><path fill="#A7A6A6" transform="scale(0.195312 0.195312)" d="M592.435 884.01C605.825 883.804 609.123 886.205 609.055 899.998C608.971 917.213 606.769 934.804 606.514 951.935C605.74 955.891 606.08 958.794 605.587 962.662C605.455 966.864 605.239 971.063 604.94 975.256C603.111 975.136 602.639 975.095 600.866 974.705C599.761 971.657 600.881 963.75 600.812 960.676C600.59 950.82 605.83 905.588 603.034 899.835C599.086 897.178 582.181 897.979 576.519 897.991L541.234 898.013L482.092 898.059C478.343 898.052 441.733 896.083 441.688 901.175C441.495 922.872 444.3 945.274 445.243 967.083C445.372 970.061 445.753 972.421 445.33 975.428L444.249 976.106C442.597 976.23 442.146 976.389 440.63 975.678C440.444 971.622 440.169 967.498 439.929 963.438C439.053 960.611 439.697 958.126 439.224 954.875C437.936 943.047 438.015 929.43 437.052 917.287C436.415 907.603 432.25 884.897 445.605 884.266C450.49 884.035 455.841 883.968 460.759 883.982L485.971 884.045L571.913 884.018L576.424 884.051L587.403 884.019L592.435 884.01Z"/><path fill="#E4E4E4" transform="scale(0.195312 0.195312)" d="M584.15 888.228C587.455 887.761 597.76 888.085 600.946 889.576C602.868 890.475 603.409 892.172 604.049 894.021C602.45 894.374 597.015 894.116 594.844 894.19C582.77 894.606 570.722 894.154 558.647 894.064L463.25 894.025C456.093 893.934 448.936 894.061 441.787 894.406L441.599 893.695C442.41 891.392 443.963 888.73 446.676 888.625C450.641 888.473 454.617 888.537 458.587 888.555L483.178 888.673L544.647 888.683C557.046 888.668 571.907 888.941 584.15 888.228Z"/><path fill="#F9F9F8" transform="scale(0.195312 0.195312)" d="M590.401 671.227C601.298 675.522 613.799 683.18 619.212 694.041C634.625 697.559 647.605 703.571 662.038 709.741C681.263 717.959 694.935 726.534 705.802 744.757C722.497 772.752 736.171 802.043 750.613 831.214C752.01 834.036 753.613 837.028 754.691 839.957C750.722 844.215 740.987 850.632 739.952 852.023L735.14 855.357C735.398 856.134 737.534 862.15 737.63 862.638C730.959 865.236 720.543 872.337 713.705 875.799C702.753 881.344 690.397 886.574 678.753 890.379C678.099 889.117 677.141 886.451 676.579 885.029C674.715 885.695 672.736 886.285 671.073 887.331L669.865 885.537C666.289 885.492 665.343 894.432 664.211 897.402C655.504 920.241 653.935 944.07 653.363 968.503L647.941 969.729C645.547 970.128 639.587 972.644 637.032 973.671C628.666 967.216 616.454 962.308 607.216 957.115C606.395 955.89 606.558 953.547 606.514 951.935C606.769 934.804 608.971 917.213 609.055 899.998C609.123 886.205 605.825 883.804 592.435 884.01C594.173 854.357 596.661 825.015 596.539 795.244C596.461 776.134 596.608 757.843 594.28 738.77C600.375 727.531 604.729 718.392 605.404 705.405C605.601 701.613 605.001 697.068 605.613 693.49C600.517 682.945 596.244 680.229 590.401 671.227Z"/><path fill="#B7BED5" transform="scale(0.195312 0.195312)" d="M619.212 694.041C634.625 697.559 647.605 703.571 662.038 709.741C681.263 717.959 694.935 726.534 705.802 744.757C722.497 772.752 736.171 802.043 750.613 831.214C752.01 834.036 753.613 837.028 754.691 839.957C750.722 844.215 740.987 850.632 739.952 852.023L735.14 855.357C735.398 856.134 737.534 862.15 737.63 862.638C730.959 865.236 720.543 872.337 713.705 875.799C702.753 881.344 690.397 886.574 678.753 890.379C678.099 889.117 677.141 886.451 676.579 885.029C674.715 885.695 672.736 886.285 671.073 887.331L669.865 885.537C666.289 885.492 665.343 894.432 664.211 897.402C655.504 920.241 653.935 944.07 653.363 968.503L647.941 969.729C647.731 952.44 649.2 932.285 652.909 915.403C654.123 909.879 656.985 902.18 658.653 896.439C661.519 886.549 663.169 876.347 663.568 866.058C663.893 858.767 663.925 851.646 663.072 844.376C662.375 838.545 661.425 832.747 660.223 826.999C658.708 820.035 655.925 811.951 657.776 805.023C666.694 813.963 668.095 845.257 669.489 858.303C672.261 857.314 676.274 856.011 678.876 854.871C696.149 848.075 724.674 831.295 738.976 819.707C733.37 808.005 727.598 796.384 721.663 784.846C707.004 756.001 695.087 727.525 663.379 716.066C658.003 714.123 625.228 699.46 622.196 700.406C621.275 698.865 620 695.785 619.212 694.041Z"/><path fill="#DABC80" transform="scale(0.195312 0.195312)" d="M735.14 855.357C735.398 856.134 737.534 862.15 737.63 862.638C730.959 865.236 720.543 872.337 713.705 875.799C702.753 881.344 690.397 886.574 678.753 890.379C678.099 889.117 677.141 886.451 676.579 885.029C691.882 883.524 721.172 863.61 735.14 855.357Z"/><path fill="#F9F9F8" transform="scale(0.195312 0.195312)" d="M741.527 824.459C743.637 828.818 746.002 834.034 748.329 838.21C733.315 852.021 698.04 871.704 678.842 878.306C675.644 879.598 671.092 880.763 667.729 881.635C668.559 875.762 668.899 869.857 669.222 863.941C671.562 863.216 674.984 861.994 677.093 860.856L679.528 860.318C682.583 858.993 685.223 857.798 688.196 856.306C701.738 851.67 729.886 833.344 741.527 824.459Z"/><path fill="#E4E4E4" transform="scale(0.195312 0.195312)" d="M677.093 860.856L679.528 860.318C679.584 865.657 680.945 873.285 678.144 877.552L678.842 878.306C675.644 879.598 671.092 880.763 667.729 881.635C668.559 875.762 668.899 869.857 669.222 863.941C671.562 863.216 674.984 861.994 677.093 860.856Z"/><path fill="#6A6969" transform="scale(0.195312 0.195312)" d="M624.632 799.55C628.015 798.897 631.501 799.004 634.838 799.862C646.325 802.815 653.754 813.935 652.086 825.678C650.418 837.421 640.187 846.032 628.331 845.67C616.476 845.308 606.788 836.088 605.84 824.265C604.892 812.442 612.986 801.797 624.632 799.55Z"/><path fill="#BEBEBD" transform="scale(0.195312 0.195312)" d="M625.649 803.686C636.009 801.745 645.987 808.554 647.957 818.909C649.926 829.264 643.145 839.26 632.795 841.258C622.405 843.264 612.361 836.451 610.384 826.055C608.407 815.66 615.248 805.635 625.649 803.686Z"/><path fill="#6A6969" transform="scale(0.195312 0.195312)" d="M628.613 808.116C636.396 807.747 643.024 813.714 643.473 821.492C643.922 829.27 638.025 835.96 630.251 836.49C625.151 836.837 620.257 834.418 617.435 830.155C614.613 825.893 614.299 820.442 616.611 815.883C618.924 811.324 623.507 808.358 628.613 808.116Z"/><path fill="#BEBEBD" transform="scale(0.195312 0.195312)" d="M627.353 812.16C631.01 811.443 634.767 812.766 637.167 815.616C639.567 818.465 640.232 822.393 638.904 825.874C637.576 829.355 634.463 831.842 630.775 832.368C625.272 833.153 620.146 829.411 619.219 823.931C618.291 818.451 621.899 813.229 627.353 812.16Z"/><path fill="#1B1814" transform="scale(0.195312 0.195312)" d="M590.401 671.227C601.298 675.522 613.799 683.18 619.212 694.041C620 695.785 621.275 698.865 622.196 700.406C635.55 733.604 636.295 764.538 634.838 799.862C631.501 799.004 628.015 798.897 624.632 799.55C624.794 766.755 625.187 721.61 605.613 693.49C600.517 682.945 596.244 680.229 590.401 671.227Z"/><path fill="#E4E4E4" transform="scale(0.195312 0.195312)" d="M657.776 805.023C659.665 801.269 664.013 791.677 666.893 789.254L668.028 789.357C669.376 791.368 669.558 797.699 669.4 800.526C668.35 819.352 674.267 836.265 678.598 854.23C678.691 854.444 678.783 854.657 678.876 854.871C676.274 856.011 672.261 857.314 669.489 858.303C668.095 845.257 666.694 813.963 657.776 805.023Z"/><path fill="#B7BED5" transform="scale(0.195312 0.195312)" d="M564.896 643.846C566.95 643.492 569.002 643.12 571.05 642.732C570.188 644.89 569.983 654.279 571.345 656.338L573.419 656.689C578.03 657.685 583.986 662.359 585.87 666.712C586.603 668.678 588.629 670.029 590.401 671.227C596.244 680.229 600.517 682.945 605.613 693.49C605.001 697.068 605.601 701.613 605.404 705.405C604.729 718.392 600.375 727.531 594.28 738.77C596.608 757.843 596.461 776.134 596.539 795.244C596.661 825.015 594.173 854.357 592.435 884.01L587.403 884.019L576.424 884.051C578.531 849.538 581.369 815.21 581.535 780.571C581.562 774.794 581.611 768.861 581.276 763.106C581.073 759.255 580.877 756.508 580.319 752.708C578.71 753.961 578.403 753.978 576.418 754.642C566.653 756.783 556.164 748.738 547.294 745.283C535.405 740.652 523.414 736.965 512.539 730.134C498.375 737.732 473.733 759.754 457.512 754.374C456.686 753.842 455.877 753.283 455.088 752.698C441.958 742.897 432.758 724.475 430.911 708.295C430.313 703.06 431.129 696.708 430.245 691.853C436.003 682.279 439.852 678.978 445.746 670.67C447.171 669.424 448.283 668.143 449.559 666.75C453.661 661.367 458.528 658.384 464.943 656.556C465.071 662.722 465.604 670.741 467.801 676.542C469.777 673.175 470.433 664.382 470.582 660.373C474.332 661.075 479.401 664.003 483.413 665.244C499.743 670.411 517.063 671.65 533.963 668.861C536.955 668.356 539.852 667.632 542.86 666.905C550.067 665.164 557.228 662.743 563.943 659.566C564.403 659.348 564.955 661.063 565.05 661.291C565.047 655.267 564.775 650.033 564.896 643.846Z"/><path fill="#DABC80" transform="scale(0.195312 0.195312)" d="M470.582 660.373C474.332 661.075 479.401 664.003 483.413 665.244C499.743 670.411 517.063 671.65 533.963 668.861C536.955 668.356 539.852 667.632 542.86 666.905C550.067 665.164 557.228 662.743 563.943 659.566C564.403 659.348 564.955 661.063 565.05 661.291C564.884 666.467 565.123 673.961 567.64 678.52C559.404 696.337 546.296 708.055 529.963 718.492C526.774 720.529 522.288 723.706 518.901 725.069C518.155 725.077 517.001 725.015 516.357 724.581C497.078 711.581 476.446 699.079 467.801 676.542C469.777 673.175 470.433 664.382 470.582 660.373Z"/><path fill="#F9F9F8" transform="scale(0.195312 0.195312)" d="M581.276 763.106L581.745 760.808C583.62 758.658 587.647 753.953 590.435 753.299C593.333 799.273 588.968 839.05 587.403 884.019L576.424 884.051C578.531 849.538 581.369 815.21 581.535 780.571C581.562 774.794 581.611 768.861 581.276 763.106Z"/><path fill="#B18958" transform="scale(0.195312 0.195312)" d="M564.896 643.846C566.95 643.492 569.002 643.12 571.05 642.732C570.188 644.89 569.983 654.279 571.345 656.338L573.419 656.689C571.608 656.999 571.531 656.672 570.664 657.755C570.289 664.326 570.2 672.502 567.64 678.52C565.123 673.961 564.884 666.467 565.05 661.291C565.047 655.267 564.775 650.033 564.896 643.846Z"/><path fill="#E4E4E4" transform="scale(0.195312 0.195312)" d="M580.319 752.708L580.718 752.531C584.012 751.036 587.061 747.345 590.005 750.268C590.431 751.756 590.534 751.786 590.435 753.299C587.647 753.953 583.62 758.658 581.745 760.808L581.276 763.106C581.073 759.255 580.877 756.508 580.319 752.708Z"/><path fill="#F9F9F8" transform="scale(0.195312 0.195312)" d="M459.438 663.443C460.358 664.455 461.231 673.213 461.793 675.67C466.911 698.04 489.891 715.332 509.034 726.38C498.557 732.107 489.415 738.952 479.338 744.273C472.986 747.616 469.154 749.328 462.168 750.574C445.168 741.95 431.573 710.243 436.821 691.915C438.499 686.055 454.699 668.545 459.438 663.443Z"/><path fill="#F9F9F8" transform="scale(0.195312 0.195312)" d="M576.786 663.377C580.698 665.906 598.548 688.359 599.485 692.683C603.472 711.09 592.235 741.077 574.69 749.518C570.562 751.504 560.358 745.6 556.382 743.484C546.029 737.243 538.023 731.832 526.912 726.773C531.814 724.375 539.039 719.802 543.244 716.394C563.138 700.274 573.38 688.545 576.786 663.377Z"/><path fill="#E4E4E4" transform="scale(0.195312 0.195312)" d="M520.948 729.475C524.456 729.781 527.21 731.053 530.118 732.986C526.955 733.115 523.423 731.334 520.948 729.475Z"/><path fill="#B7BED5" transform="scale(0.195312 0.195312)" d="M297.26 851.817C294.181 848.35 285.003 844.021 283.679 839.799C282.648 836.51 290.562 822.72 292.26 819.409L305.412 793.633C313.343 778.246 322.68 758.465 331.753 744.04C336.774 735.97 343.193 728.861 350.709 723.044C365.645 711.543 396.227 699.815 414.475 695.728C413.839 697.06 412.52 700.042 411.823 701.179C401.727 704.31 392.644 708.465 383.243 712.101C349.978 724.969 341.334 736.258 325.076 767.093C315.918 784.586 306.979 802.193 298.262 819.91C316.101 834.129 335.856 845.761 356.943 854.463C359.057 850.909 360.048 845.311 361.271 841.292C366.575 823.852 368.723 806.502 369.145 788.258C370.494 789.618 370.644 789.905 371.656 791.565C377.413 799.885 381.264 806.588 379.129 816.489C374.295 838.905 370.793 860.364 375.517 883.297C376.737 885.355 378.055 886.276 379.571 888.236C393.968 906.846 415.005 912.727 437.052 917.287C438.015 929.43 437.936 943.047 439.224 954.875C439.003 956.046 439.169 956.838 438.036 957.446C427.702 962.988 417.231 967.895 407.442 974.453C401.356 972.457 394.341 969.364 388.836 967.661C386.274 968.24 385.54 968.59 383.339 967.496C383.217 955.137 382.242 937.701 380.101 925.745C378.102 914.58 374.117 901.194 371.083 890.038L366.919 887.966C365.441 887.012 363.35 886.255 361.683 885.553C360.913 887.038 360.096 888.56 359.388 890.069L357.746 889.621C343.264 885.805 312.292 871.012 299.94 862.415C300.76 860.548 301.721 857.42 302.413 855.403C300.83 854.126 298.319 853.127 297.26 851.817Z"/><path fill="#E4E4E4" transform="scale(0.195312 0.195312)" d="M375.517 883.297C376.737 885.355 378.055 886.276 379.571 888.236C393.968 906.846 415.005 912.727 437.052 917.287C438.015 929.43 437.936 943.047 439.224 954.875C439.003 956.046 439.169 956.838 438.036 957.446C427.702 962.988 417.231 967.895 407.442 974.453C401.356 972.457 394.341 969.364 388.836 967.661C388.498 952.003 387.81 931.445 384.075 916.202C381.107 904.091 377.82 896.502 375.517 883.297Z"/><path fill="#E4E4E4" transform="scale(0.195312 0.195312)" d="M369.145 788.258C370.494 789.618 370.644 789.905 371.656 791.565C370.531 795.257 375.228 805.311 374.403 810.069C371.566 826.434 368.821 841.61 367.467 858.218C364.461 857.199 359.684 855.726 356.943 854.463C359.057 850.909 360.048 845.311 361.271 841.292C366.575 823.852 368.723 806.502 369.145 788.258Z"/><path fill="#DABC80" transform="scale(0.195312 0.195312)" d="M302.413 855.403C316.696 866.154 334.445 875.324 351.087 881.385C354.406 882.593 358.436 884.761 361.683 885.553C360.913 887.038 360.096 888.56 359.388 890.069L357.746 889.621C343.264 885.805 312.292 871.012 299.94 862.415C300.76 860.548 301.721 857.42 302.413 855.403Z"/><path fill="#F9F9F8" transform="scale(0.195312 0.195312)" d="M295.42 824.444C311.362 838.224 338.148 852.211 357.442 860.532C360.595 861.706 364.293 863.031 367.55 863.875C368.128 870.348 368.557 876.094 369.845 882.485C365.302 880.732 360.967 879.488 356.561 877.848C331.683 867.334 309.351 855.869 288.46 838.274C290.879 833.984 293.23 828.908 295.42 824.444Z"/><path fill="#E4E4E4" transform="scale(0.195312 0.195312)" d="M357.442 860.532C360.595 861.706 364.293 863.031 367.55 863.875C368.128 870.348 368.557 876.094 369.845 882.485C365.302 880.732 360.967 879.488 356.561 877.848C356.392 873.192 357.002 865.174 357.442 860.532Z"/><path fill="#F9F9F8" transform="scale(0.195312 0.195312)" d="M393.13 807.392C393.845 805.419 393.555 801.514 393.22 799.533C384.97 750.742 440.066 740.377 449.761 789.176C450.43 792.547 451.183 795.032 453.594 797.567L454.129 798.735C456.048 818.936 463.665 865.976 432.939 868.646C427.035 869.159 422.039 866.949 417.885 863.061C407.275 854.607 394.606 820.858 393.13 807.392Z"/><path fill="#1B1814" transform="scale(0.195312 0.195312)" d="M414.475 695.728C423.577 681.419 429.868 676.563 445.746 670.67C439.852 678.978 436.003 682.279 430.245 691.853C417.581 708.494 414.801 725.109 416.808 745.561C429.739 746.005 437.472 748.896 446.804 758.267C452.902 764.39 466.302 788.71 461.461 796.152L460.122 796.638C457.317 797.612 456.572 797.55 453.594 797.567C451.183 795.032 450.43 792.547 449.761 789.176C440.066 740.377 384.97 750.742 393.22 799.533C393.555 801.514 393.845 805.419 393.13 807.392L390.988 808.919C389.67 809.284 388.081 809.769 386.775 810.077L385.288 809.8C384.212 809.443 382.672 808.819 382.414 807.525C377.561 783.268 382.528 759.279 405.82 748.347C403.055 731.57 405.765 716.74 411.823 701.179C412.52 700.042 413.839 697.06 414.475 695.728Z"/><path fill="#E4E4E4" transform="scale(0.195312 0.195312)" d="M460.122 796.638L461.461 796.152L461.477 796.65C461.983 808.896 464.532 820.728 463.973 833.11C463.847 835.916 460.843 853.438 460.926 853.726L459.198 855.41C457.01 857.837 451.862 862.363 451.778 865.389L452.818 867.615C441.909 874.829 429.711 876.501 417.559 871.507C415.159 870.002 414.072 869.183 411.88 867.413C409.866 865.721 408.299 864.004 405.93 862.073L406.076 861.474C395.131 845.151 390.392 828.481 385.288 809.8L386.775 810.077C388.081 809.769 389.67 809.284 390.988 808.919L393.13 807.392C394.606 820.858 407.275 854.607 417.885 863.061C422.039 866.949 427.035 869.159 432.939 868.646C463.665 865.976 456.048 818.936 454.129 798.735L453.594 797.567C456.572 797.55 457.317 797.612 460.122 796.638Z"/><path fill="#A7A6A6" transform="scale(0.195312 0.195312)" d="M454.129 798.735L454.775 798.509C459.127 812.939 459.607 842.873 452.504 857.07C449.444 863.189 444.614 866.504 438.155 868.783C430.571 871.459 419.103 868.399 413.874 861.934C402.497 847.867 397.432 828.542 391.494 811.684C391.306 811.144 391.072 809.526 390.988 808.919L393.13 807.392C394.606 820.858 407.275 854.607 417.885 863.061C422.039 866.949 427.035 869.159 432.939 868.646C463.665 865.976 456.048 818.936 454.129 798.735Z"/><path fill="#A7A6A6" transform="scale(0.195312 0.195312)" d="M385.288 809.8L386.775 810.077C391.404 828.638 398.094 849.992 411.105 864.408C411.608 864.966 411.788 866.677 411.88 867.413C409.866 865.721 408.299 864.004 405.93 862.073L406.076 861.474C395.131 845.151 390.392 828.481 385.288 809.8Z"/><path fill="#A7A6A6" transform="scale(0.195312 0.195312)" d="M460.122 796.638L461.461 796.152L461.477 796.65C461.983 808.896 464.532 820.728 463.973 833.11C463.847 835.916 460.843 853.438 460.926 853.726L459.198 855.41C459.964 850.5 461.295 846.276 461.996 840.727C463.954 825.227 462.082 811.897 460.122 796.638Z"/><path fill="#E4E4E4" transform="scale(0.195312 0.195312)" d="M512.539 730.134C523.414 736.965 535.405 740.652 547.294 745.283C556.164 748.738 566.653 756.783 576.418 754.642C576.596 756.859 577.002 760.522 576.949 762.634L576.466 762.869C574.314 763.935 574.477 764.205 572 764.347L571.875 764.492C571.397 763.088 570.6 761.814 569.545 760.771C567.199 758.45 563.822 757.501 560.61 758.261C559.731 757.711 553.359 756.664 550.566 755.709C537.687 751.306 525.547 747.031 513.614 740.314C505.43 745.161 461.322 770.99 457.512 754.374C473.733 759.754 498.375 737.732 512.539 730.134Z"/><path fill="#B7BED5" transform="scale(0.195312 0.195312)" d="M576.418 754.642C578.403 753.978 578.71 753.961 580.319 752.708C580.877 756.508 581.073 759.255 581.276 763.106C581.611 768.861 581.562 774.794 581.535 780.571C581.369 815.21 578.531 849.538 576.424 884.051L571.913 884.018C573.75 856.785 575.194 829.526 576.243 802.252C576.692 789.649 577.536 775.048 576.949 762.634C577.002 760.522 576.596 756.859 576.418 754.642Z"/><path fill="#B7BED5" transform="scale(0.195312 0.195312)" d="M560.61 758.261C563.822 757.501 567.199 758.45 569.545 760.771C570.6 761.814 571.397 763.088 571.875 764.492C573.15 768.236 571.99 772.378 568.957 774.916C565.924 777.454 561.643 777.866 558.182 775.952C554.721 774.038 552.794 770.192 553.331 766.274C553.869 762.356 556.761 759.172 560.61 758.261Z"/><path fill="#F9F9F8" transform="scale(0.195312 0.195312)" d="M562.177 761.177C565.598 760.764 568.718 763.172 569.185 766.586C569.653 770 567.295 773.158 563.889 773.68C561.637 774.025 559.373 773.129 557.967 771.336C556.56 769.543 556.23 767.131 557.103 765.026C557.975 762.921 559.915 761.449 562.177 761.177Z"/><path fill="#1B1814" transform="scale(0.195312 0.195312)" d="M460.926 853.726C464.456 852.198 470.227 851.566 471.644 856.061C474.366 864.694 461.034 874.658 453.729 869.229L452.818 867.615L451.778 865.389C451.862 862.363 457.01 857.837 459.198 855.41L460.926 853.726Z"/><path fill="#1B1814" transform="scale(0.195312 0.195312)" d="M415.683 876.261C410.773 879.546 401.854 878.086 398.224 873.432C396.843 871.662 396.25 869.402 396.582 867.182C397.342 862.378 401.814 861.503 405.93 862.073C408.299 864.004 409.866 865.721 411.88 867.413C414.072 869.183 415.159 870.002 417.559 871.507C417.02 872.952 416.361 874.925 415.683 876.261Z"/><path fill="#BEBEBD" transform="scale(0.195312 0.195312)" d="M452.818 867.615L453.729 869.229C445.071 876.862 426.65 877.938 415.683 876.261C416.361 874.925 417.02 872.952 417.559 871.507C429.711 876.501 441.909 874.829 452.818 867.615Z"/><path fill="#E6D29C" transform="scale(0.195312 0.195312)" d="M297.26 851.817C298.319 853.127 300.83 854.126 302.413 855.403C301.721 857.42 300.76 860.548 299.94 862.415C312.292 871.012 343.264 885.805 357.746 889.621L359.388 890.069C360.096 888.56 360.913 887.038 361.683 885.553C363.35 886.255 365.441 887.012 366.919 887.966C364.592 891.587 360.682 902.388 358.89 906.821C353.384 920.442 348.455 934.205 342.595 947.714C355.811 954.856 369.312 961.456 383.065 967.499L383.539 968.772C382.785 970.382 380.812 971.355 379.248 972.374L378.878 972.948C377.221 975.491 374.927 977.992 373.518 980.658C367.007 992.975 364.605 1005.93 369.66 1019.11L372.002 1024L363.752 1024C359.683 1022.71 352.148 1021.3 347.759 1020.29C337.489 1017.97 327.268 1015.44 317.102 1012.7C297.911 1007.35 277.954 1000.54 267.557 982.134C257.584 964.473 268.258 938 274.176 920.31L288.009 879.52C291.165 870.352 294.59 861.122 297.26 851.817Z"/><path fill="#B18958" transform="scale(0.195312 0.195312)" d="M297.26 851.817C298.319 853.127 300.83 854.126 302.413 855.403C301.721 857.42 300.76 860.548 299.94 862.415C297.27 871.592 292.871 883.091 289.665 892.274C285.157 905.384 280.798 918.545 276.588 931.754C272.145 945.563 264.031 964.755 271.837 978.518C281.102 994.851 297.876 1001.52 314.992 1006.48C326.126 1009.74 337.395 1012.54 348.767 1014.85C353.933 1015.92 365.086 1017.74 369.66 1019.11L372.002 1024L363.752 1024C359.683 1022.71 352.148 1021.3 347.759 1020.29C337.489 1017.97 327.268 1015.44 317.102 1012.7C297.911 1007.35 277.954 1000.54 267.557 982.134C257.584 964.473 268.258 938 274.176 920.31L288.009 879.52C291.165 870.352 294.59 861.122 297.26 851.817Z"/><path fill="#B18958" transform="scale(0.195312 0.195312)" d="M361.683 885.553C363.35 886.255 365.441 887.012 366.919 887.966C364.592 891.587 360.682 902.388 358.89 906.821C353.384 920.442 348.455 934.205 342.595 947.714C355.811 954.856 369.312 961.456 383.065 967.499L383.539 968.772C382.785 970.382 380.812 971.355 379.248 972.374C375.266 969.895 364.03 964.597 359.167 962.262C344.044 955.002 326.361 944.392 310.157 940.859C313.843 940.083 314.998 940.073 318.782 940.029C323.533 937.239 335.571 936.378 340.728 937.665C347.126 922.084 352.998 905.853 359.388 890.069C360.096 888.56 360.913 887.038 361.683 885.553Z"/><path fill="#DABC80" transform="scale(0.195312 0.195312)" d="M318.782 940.029C323.533 937.239 335.571 936.378 340.728 937.665C339.633 940.654 338.767 943.016 337.404 945.901C329.936 942.516 326.771 941.796 318.782 940.029Z"/><path fill="#E6D29C" transform="scale(0.195312 0.195312)" d="M735.14 855.357L739.952 852.023C748.001 874.465 755.684 897.038 762.999 919.731C766.751 931.403 773.405 950.096 774.355 961.945C777.567 1002.01 726.251 1011.95 696.913 1019.24C690.962 1020.71 682.785 1021.98 677.208 1024L672.078 1024C673.635 1021.79 674.299 1020.8 675.491 1018.39C676.844 1015.2 677.365 1012.53 677.537 1009.11C677.714 998.209 676.551 988.093 670.343 978.813C668.445 975.975 665.789 974.052 663.828 971.293C662.505 970.213 660.02 968.61 658.528 967.56C670.634 961.126 683.608 955.038 695.421 948.373C686.95 928.217 680.193 907.695 671.073 887.331C672.736 886.285 674.715 885.695 676.579 885.029C677.141 886.451 678.099 889.117 678.753 890.379C690.397 886.574 702.753 881.344 713.705 875.799C720.543 872.337 730.959 865.236 737.63 862.638C737.534 862.15 735.398 856.134 735.14 855.357Z"/><path fill="#B18958" transform="scale(0.195312 0.195312)" d="M735.14 855.357L739.952 852.023C748.001 874.465 755.684 897.038 762.999 919.731C766.751 931.403 773.405 950.096 774.355 961.945C777.567 1002.01 726.251 1011.95 696.913 1019.24C690.962 1020.71 682.785 1021.98 677.208 1024L672.078 1024C673.635 1021.79 674.299 1020.8 675.491 1018.39C676.844 1015.2 677.365 1012.53 677.537 1009.11C692.783 1007.31 739.489 993.582 752.033 985.174C757.348 981.612 765.358 971.187 768.724 969.746C769.182 953.444 763.845 940.959 758.932 925.577C752.169 904.484 745.067 883.502 737.63 862.638C737.534 862.15 735.398 856.134 735.14 855.357Z"/><path fill="#DABC80" transform="scale(0.195312 0.195312)" d="M677.537 1009.11C692.783 1007.31 739.489 993.582 752.033 985.174C757.348 981.612 765.358 971.187 768.724 969.746C761.677 1002.61 718.956 1007.1 691.97 1014.73C686.81 1016.19 680.513 1016.72 675.491 1018.39C676.844 1015.2 677.365 1012.53 677.537 1009.11Z"/><path fill="#B18958" transform="scale(0.195312 0.195312)" d="M676.579 885.029C677.141 886.451 678.099 889.117 678.753 890.379C685.351 906.688 691.821 923.049 698.162 939.46C705.93 938.797 711.39 938.004 718.927 940.713C722.916 940.538 724.62 940.598 728.617 941.151C707.59 946.575 683.366 960.748 663.828 971.293C662.505 970.213 660.02 968.61 658.528 967.56C670.634 961.126 683.608 955.038 695.421 948.373C686.95 928.217 680.193 907.695 671.073 887.331C672.736 886.285 674.715 885.695 676.579 885.029Z"/><path fill="#DABC80" transform="scale(0.195312 0.195312)" d="M698.162 939.46C705.93 938.797 711.39 938.004 718.927 940.713C711.247 941.975 708.177 943.414 700.937 946.22L698.162 939.46Z"/></svg>