<?xml version="1.0" encoding="utf-8" ?><svg xmlns="http://www.w3.org/2000/svg" xmlns:xlink="http://www.w3.org/1999/xlink" width="200" height="200" viewBox="0 0 200 200"><path fill="#641E18" transform="matrix(0.195312 0 0 0.195312 0.000488281 0)" d="M308.829 758.114C273.396 744.174 248.319 717.91 232.976 683.006C225.208 665.334 220.055 646.211 213.098 628.194C204.951 605.867 195.477 577.151 191.997 553.526C184.003 499.253 202.475 433.929 216.323 381.33C221.31 362.28 226.395 343.256 231.577 324.257C237.119 303.768 241.607 285.911 249.608 266.11C274.586 204.296 307.477 162.542 362.726 125.768C380.979 113.425 400.35 102.82 420.583 94.0929C483.216 67.0617 547.928 65.2103 611.532 90.5876C634.369 99.6496 656.228 111.002 676.776 124.472C727.428 157.474 761.608 198.602 784.89 254.562C798.511 287.302 806.312 320.902 815.531 355.196C830.189 409.72 847.136 466.234 848.516 523.119C849.017 543.789 843.037 576.286 835.497 595.52C843.255 588.819 849.446 583.563 858.504 578.456C901.117 554.429 953.628 568.126 984.885 604.122C1001.89 623.7 1008.67 647.415 1006.83 673.095C1006.11 684.654 1003.44 696.007 998.92 706.669C987.27 733.799 967.563 756.685 954.268 783.164C948.259 793.513 946.049 808.272 937.827 816.796C932.899 821.905 921.443 818.788 919.203 813.335C896.851 758.926 958.067 717.442 955.277 665.249C953.961 640.626 938.944 621.213 916.112 616.95C904.747 614.848 893.015 617.429 883.581 624.105C857.111 642.648 844.819 685.807 839.866 716.429C835.365 744.257 832.513 772.169 823.846 799.249C822.004 805.006 819.247 811.169 816.882 816.778C824.482 828.111 830.955 840.161 836.209 852.755C847.287 879.761 853.731 908.721 866.139 935.451C869.282 942.221 895.374 971.239 883.026 979.231C877.46 982.835 856.432 986.593 849.049 986.601C851.299 999.256 854.354 1011.48 857.079 1024L849.936 1024L728.918 1024L721.241 1024L697.128 1024L695.021 1024L688.857 1024L681.51 1024L317.619 1024L309.433 1024L183.801 1024L176.611 1024C178.864 1012.34 182.266 998.072 183.968 986.684C173.995 985.959 153.738 983.679 146.419 976.71C141.459 971.988 153.716 952.133 156.761 947.896C160.442 942.774 165.289 938.267 167.451 931.968C189.391 881.036 193.677 819.935 244.414 786.774C259.793 776.722 275.7 770.315 292.861 763.879C297.922 761.981 303.942 760.113 308.829 758.114ZM725.24 759.505C730.735 761.488 736.203 763.545 741.643 765.675C754.854 770.327 765.35 776.221 777.575 781.016C782.764 762.005 786.56 744.218 789.028 724.665C789.822 718.38 791.15 711.469 791.629 705.224L791.165 704.912C774.596 730.57 754.353 748.911 725.24 759.505Z"/><path fill="#9E342E" transform="matrix(0.195312 0 0 0.195312 0.000488281 0)" d="M317.619 1024C317.387 1016.06 317.998 1005.27 318.567 996.976C318.921 991.817 320.499 976.765 321.416 971.849C321.749 970.065 338.264 965.241 342.046 963.386C363.162 953.03 384.779 942.258 403.358 927.639C408.826 923.337 406.826 921.536 407.287 915.316C409.721 915.397 411.468 918.231 413.995 918.147C423.607 917.826 458.296 874.131 466.548 865.186C477.504 879.685 485.992 885.547 502.049 892.826L502.513 891.244C503.283 888.694 503.559 888.667 503.189 886.058C504.238 879.921 508.474 880.535 513.627 880.163C515.906 879.689 517.431 879.793 519.788 879.138L520.921 879.214C523.99 879.816 525.052 878.72 527.357 879.159C534.879 879.875 536.395 879.234 537.892 887.226C538.061 889.607 538.119 891.186 539.275 893.312C542.571 890.795 547.399 889.059 551.025 886.576C558.43 881.506 564.333 875.043 570.376 868.499C576.721 876.376 587.475 890.355 594.295 897.258C597.793 896.541 598.876 896.458 601.858 894.308C601.813 897.323 601.669 900.556 602.027 903.532C606.133 908.956 613.772 914.469 619.187 918.868C639.434 935.315 661.661 948.625 685.057 960.08C687.662 961.356 698.041 963.978 698.919 966.049C695.072 984.121 686.584 1005.93 681.51 1024L317.619 1024Z"/><path fill="#522E17" transform="matrix(0.195312 0 0 0.195312 0.000488281 0)" d="M519.788 879.138L520.921 879.214C523.99 879.816 525.052 878.72 527.357 879.159C534.879 879.875 536.395 879.234 537.892 887.226C538.061 889.607 538.119 891.186 539.275 893.312C540.794 900.101 547.157 926.679 545.306 932.442C543.971 936.602 526.65 951.93 520.86 954.805C517.23 953.115 497.019 935.457 496.823 933.407C496.031 925.144 500.282 900.965 502.049 892.826L502.513 891.244C503.283 888.694 503.559 888.667 503.189 886.058C504.238 879.921 508.474 880.535 513.627 880.163C515.906 879.689 517.431 879.793 519.788 879.138Z"/><path fill="#8A5832" transform="matrix(0.195312 0 0 0.195312 0.000488281 0)" d="M520.115 885.315C521.527 884.787 527.992 884.622 530.144 884.438L530.005 884.845L530.634 884.418L530.995 884.612C529.801 884.742 528.609 884.898 527.422 885.081C529.051 885.274 530.66 885.193 531.747 886.263C532.993 889.572 536.942 908.244 536.971 911.318C536.801 912.784 536.599 912.27 537.086 913.39C539.16 916.842 540.181 926.355 539.325 930.363C538.789 932.876 536.819 934.403 534.511 935.351L533.899 935.142C531.79 929.222 533.93 923.763 532.572 919.949L531.894 919.933C530.963 921.701 532.073 934.995 530.765 939.823C528.537 941.192 523.943 945.927 521.247 948.169C519.097 946.347 515.12 942.984 513.803 940.46C512.399 939.218 512.018 938.839 510.414 937.922L506.724 935.493C505.549 934.338 504.346 933.297 503.113 932.209C502.617 931.416 501.968 930.39 502.144 929.39C503.443 922.032 504.387 914.367 505.872 907.061C507.222 900.418 507.582 893.161 509.137 886.68C511.017 884.984 517.273 885.348 520.115 885.315Z"/><path fill="#8A5832" transform="matrix(0.195312 0 0 0.195312 0.000488281 0)" d="M520.115 885.315C521.527 884.787 527.992 884.622 530.144 884.438L530.005 884.845L530.634 884.418L530.995 884.612C529.801 884.742 528.609 884.898 527.422 885.081C526.453 888.214 525.467 891.327 524.353 894.412C518.949 909.385 516.526 924.838 513.803 940.46C512.399 939.218 512.018 938.839 510.414 937.922L506.724 935.493C505.549 934.338 504.346 933.297 503.113 932.209C502.617 931.416 501.968 930.39 502.144 929.39C503.443 922.032 504.387 914.367 505.872 907.061C507.222 900.418 507.582 893.161 509.137 886.68C511.017 884.984 517.273 885.348 520.115 885.315Z"/><defs><linearGradient id="gradient_0" gradientUnits="userSpaceOnUse" x1="524.43323" y1="912.9057" x2="513.034" y2="912.01349"><stop offset="0" stop-color="#533115"/><stop offset="1" stop-color="#734423"/></linearGradient></defs><path fill="url(#gradient_0)" transform="matrix(0.195312 0 0 0.195312 0.000488281 0)" d="M520.115 885.315C521.527 884.787 527.992 884.622 530.144 884.438L530.005 884.845L530.634 884.418L530.995 884.612C529.801 884.742 528.609 884.898 527.422 885.081C526.453 888.214 525.467 891.327 524.353 894.412C518.949 909.385 516.526 924.838 513.803 940.46C512.399 939.218 512.018 938.839 510.414 937.922C514.1 927.012 516.015 917.696 518.811 906.633C520.532 899.825 523.665 891.878 526.126 885.31L520.115 885.315Z"/><path fill="#815630" transform="matrix(0.195312 0 0 0.195312 0.000488281 0)" d="M503.113 932.209C505.149 930.034 504.823 927.935 506.638 925.306C506.827 925.592 506.741 935.403 506.724 935.493C505.549 934.338 504.346 933.297 503.113 932.209Z"/><path fill="#814231" transform="matrix(0.195312 0 0 0.195312 0.000488281 0)" d="M512.937 888.261L514.033 889.255C514.294 890.021 514.907 891.754 514.723 892.479C513.134 898.725 511.142 910.532 509.027 915.99L508.47 916.295C508.733 905.404 514.12 901.216 512.937 888.261Z"/><path fill="#815630" transform="matrix(0.195312 0 0 0.195312 0.000488281 0)" d="M537.086 913.39C539.16 916.842 540.181 926.355 539.325 930.363C538.789 932.876 536.819 934.403 534.511 935.351L533.899 935.142C534.643 926.163 531.351 922.402 537.086 913.39Z"/><path fill="#814231" transform="matrix(0.195312 0 0 0.195312 0.000488281 0)" d="M530.765 939.823C530.208 934.692 529.798 920.506 531.414 915.83C531.87 916.7 532.253 917.495 532.677 918.379C533.787 915.428 533.261 914.257 533.841 911.449C535.227 910.572 534.785 910.855 536.971 911.318C536.801 912.784 536.599 912.27 537.086 913.39C531.351 922.402 534.643 926.163 533.899 935.142C531.79 929.222 533.93 923.763 532.572 919.949L531.894 919.933C530.963 921.701 532.073 934.995 530.765 939.823Z"/><path fill="#814231" transform="matrix(0.195312 0 0 0.195312 0.000488281 0)" d="M688.857 1024C703.678 981.339 714.751 936.948 730.934 894.806C738.108 878.313 747.199 862.679 755.72 846.84C766.597 826.62 775.574 807.234 782.811 785.41C798.798 737.197 794.533 683.52 814.901 636.977C824.891 614.147 844.7 591.913 867.238 581.058C888.372 571.011 912.635 569.781 934.676 577.642C987.215 596.227 1015.04 648.237 994.658 700.97C983.004 731.114 957.601 757.784 945.466 787.997C941.772 797.193 938.785 807.962 930.495 813.752C930.531 809.698 930.622 800.995 930.098 797.079C930.097 800.618 931.181 812.234 927.664 813.143C925.12 811.761 922.965 807.875 922.332 805.159C913.392 766.207 941.441 736.008 955.073 702.421C964.599 678.949 965.398 640.964 944.198 623.009C924.004 605.907 892.71 604.671 873.345 624.265C827.837 670.309 836.406 738.333 818.373 795.434C808.354 827.049 791.236 853.907 776.224 883.068C756.012 921.953 741.806 962.367 727.899 1003.77C725.799 1010.02 723.778 1018.15 721.241 1024L697.128 1024L695.021 1024L688.857 1024Z"/><path fill="#641E18" transform="matrix(0.195312 0 0 0.195312 0.000488281 0)" d="M695.021 1024C698.098 1015.47 703.52 1005.55 707.201 996.88C712.407 984.622 716.129 973.396 720.47 961.007C720.471 963.63 718.858 968.81 718.096 971.517C714.639 983.811 709.538 995.113 704.433 1006.74C702.801 1010.45 698.123 1020.51 697.128 1024L695.021 1024Z"/><path fill="#641E18" transform="matrix(0.195312 0 0 0.195312 0.000488281 0)" d="M917.253 597.698C926.825 596.392 937.233 599.041 945.741 603.317C988.26 624.688 966.695 667.336 979.292 704.594L979.551 705.348C980.795 704.133 982.759 702.26 983.557 700.797C994.229 681.226 992.972 665.037 988.224 644.812C986.693 651.383 985.652 658.192 984.668 664.857C984.185 668.137 983.805 676.008 982.907 678.736C981.637 671.713 983.725 649.643 986.126 643.071C987.34 644.578 986.652 644.332 988.065 644.598L988.736 642.987C995.366 648.724 994.499 677.824 991.936 685.656C990.039 691.449 986.273 704.318 980.912 707.567C979.637 707.71 979.238 707.804 978.141 706.964C972.677 702.779 972.567 653.317 971.326 643.968C969.556 630.646 964.354 619.505 953.459 611.305C940.152 601.29 922.637 596.454 906.977 603.616C904.176 604.897 900.387 608.344 897.533 608.553C896.646 608.618 896.687 608.374 896.09 607.809C896.436 602.176 912.416 598.18 917.253 597.698Z"/><path fill="#641E18" transform="matrix(0.195312 0 0 0.195312 0.000488281 0)" d="M912.817 582.18C923.169 581.508 929.29 584.041 938.887 587.616C947.657 590.884 973.566 606.555 976.778 614.327C974.909 613.633 968.433 608.529 966.501 607.106L966.051 606.78C952.18 596.779 933.131 584.329 915.153 584.27C910.381 584.413 905.889 586.353 901.275 587.176C898.933 587.594 899.245 587.218 897.098 588.773L896.925 588.388C899.651 585.687 908.903 582.74 912.817 582.18Z"/><path fill="#641E18" transform="matrix(0.195312 0 0 0.195312 0.000488281 0)" d="M802.008 725.796C806.445 729.498 791.796 780.106 789.08 787.973C788.302 786.564 791.001 779.817 791.561 777.83C796.24 761.232 799.729 742.848 802.008 725.796Z"/><defs><linearGradient id="gradient_1" gradientUnits="userSpaceOnUse" x1="283.00729" y1="955.37842" x2="223.16476" y2="1046.9429"><stop offset="0" stop-color="#7E251F"/><stop offset="1" stop-color="#AF3934"/></linearGradient></defs><path fill="url(#gradient_1)" transform="matrix(0.195312 0 0 0.195312 0.000488281 0)" d="M191.42 987.901C216.889 989.074 213.451 990.269 223.771 967.778C224.626 992.516 224.201 988.225 248.106 986.186C270.65 984.263 290.902 978.568 312.564 972.85C312.303 982.155 311.369 991.753 310.775 1001.07C310.289 1008.7 310.042 1016.41 309.433 1024L183.801 1024C185.936 1011.38 189.116 1000.03 191.42 987.901Z"/><defs><linearGradient id="gradient_2" gradientUnits="userSpaceOnUse" x1="760.61914" y1="969.62659" x2="813.68945" y2="1046.1437"><stop offset="0" stop-color="#842620"/><stop offset="1" stop-color="#AD3732"/></linearGradient></defs><path fill="url(#gradient_2)" transform="matrix(0.195312 0 0 0.195312 0.000488281 0)" d="M743.192 980.686C751.971 982.273 786.45 989.17 792.512 985.998C795.534 981.835 794.422 970.012 794.767 964.297C799.051 972.193 800.21 979.611 805.303 987.344C814.899 988.908 832.038 988.653 841.717 987.904C844.488 999.798 847.009 1012.28 849.936 1024L728.918 1024C730.668 1019.27 732.754 1011.79 734.389 1006.64C737.095 998.122 740.65 989.034 743.192 980.686Z"/><path fill="#E4CB98" transform="matrix(0.195312 0 0 0.195312 0.000488281 0)" d="M476.21 794.909C479.177 796.292 480.518 796.578 483.679 797.38C489.677 803.449 492.261 802.874 500.42 805.343C502.855 806.079 505.909 807.261 508.53 808.029C504.83 812.251 499.867 819.773 501.073 825.254C504.804 842.222 518.266 816.737 520.606 813.653C523.695 819.08 527.972 828.084 534.132 830.551C536.997 831.698 539.159 828.741 539.837 826.249C540.397 824.018 539.812 824.812 541.214 823.477L546.013 832.719C537.127 843.067 530.733 851.952 525.785 864.956C523.991 869.673 522.634 874.749 520.921 879.214L519.788 879.138C512.962 856.221 506.813 846.495 491.171 828.833C492.896 825.306 493.598 823.551 494.636 819.827C491.734 811.786 481.259 801.634 475.205 795.384L476.21 794.909Z"/><path fill="#9E342E" transform="matrix(0.195312 0 0 0.195312 0.000488281 0)" d="M491.367 838.63C500.418 847.77 510.14 867.633 513.627 880.163C508.474 880.535 504.238 879.921 503.189 886.058C497.854 888.876 475.724 868.951 472.847 863.588C472.519 862.386 472.166 861.191 471.788 860.004C472.356 858.815 472.284 858.741 473.265 857.904L473.518 859.872L474.333 859.179L473.536 859.865L474.102 859.591C474.902 858.464 474.6 858.939 474.715 857.983C475.336 852.805 481.922 845.554 484.904 840.061L485.255 839.406L491.367 838.63Z"/><path fill="#9E342E" transform="matrix(0.195312 0 0 0.195312 0.000488281 0)" d="M549.143 838.547C554.281 846.452 561.95 856.377 566.372 863.586C559.455 872.666 548.766 883.172 537.892 887.226C536.395 879.234 534.879 879.875 527.357 879.159C532.056 863.485 538.623 850.967 549.143 838.547Z"/><path fill="#E4CB98" transform="matrix(0.195312 0 0 0.195312 0.000488281 0)" d="M532.259 808.608C536.96 806.847 548.522 803.596 551.63 802.068C546.522 807.371 541.111 812.237 540.003 819.808L539.197 819.621C537.015 813.835 536.525 813.098 532.259 808.608Z"/><path fill="#814231" transform="matrix(0.195312 0 0 0.195312 0.000488281 0)" d="M467.524 788.642C468.195 787.73 467.748 788.055 468.904 787.724C468.786 787.108 451.894 770.401 461.706 767.585C466.175 769.956 469.419 784.735 470.677 789.404C469.587 789.041 468.641 788.871 467.524 788.642Z"/><path fill="#82201C" transform="matrix(0.195312 0 0 0.195312 0.000488281 0)" d="M487.532 834.136L491.367 838.63L485.255 839.406L484.904 840.061C481.922 845.554 475.336 852.805 474.715 857.983C474.6 858.939 474.902 858.464 474.102 859.591L473.536 859.865L474.333 859.179L473.518 859.872L473.265 857.904C472.284 858.741 472.356 858.815 471.788 860.004C472.166 861.191 472.519 862.386 472.847 863.588C472.139 862.893 471.554 862.062 470.939 861.27C470.876 860.834 470.813 860.397 470.751 859.961C475.253 853.19 483.505 840.544 487.532 834.136Z"/><path fill="#C3A676" transform="matrix(0.195312 0 0 0.195312 0.000488281 0)" d="M467.524 788.642C468.641 788.871 469.587 789.041 470.677 789.404C472.897 792.098 473.408 792.722 476.21 794.909L475.205 795.384C472.547 793.232 469.815 791.174 467.524 788.642Z"/><path fill="#E6D9A9" transform="matrix(0.195312 0 0 0.195312 0.000488281 0)" d="M539.197 819.621L540.003 819.808L541.214 823.477C539.812 824.812 540.397 824.018 539.837 826.249C539.745 824.054 539.444 821.809 539.197 819.621Z"/><defs><linearGradient id="gradient_3" gradientUnits="userSpaceOnUse" x1="526.54517" y1="695.88611" x2="509.42609" y2="238.24591"><stop offset="0" stop-color="#D7AF6D"/><stop offset="1" stop-color="#EAE0AE"/></linearGradient></defs><path fill="url(#gradient_3)" transform="matrix(0.195312 0 0 0.195312 0.000488281 0)" d="M518.93 167.424C522.913 167.459 527.32 167.363 531.211 167.996C538.262 168.629 545.383 169.254 552.218 171.173C555.462 171.778 557.86 172.168 560.992 173.23C565.06 174.183 567.778 175.122 571.745 176.521C578.769 178.947 586.563 181.548 593.096 185.088C598.41 187.483 608.534 192.571 613.465 195.724C617.098 197.424 620.556 199.73 623.744 202.155C631.681 206.576 653.544 223.067 659.783 229.776C662.415 231.547 670.736 238.817 672.55 241.175C681.249 248.457 698.782 268.373 705.3 277.938C707.599 280.697 712.76 287.826 714.423 291.024C730.329 313.702 745.358 344.704 753.851 371.121C754.947 374.539 756.731 379.557 757.556 382.92C760.682 392.515 764.978 407.528 767.222 417.349C767.957 420.394 768.71 423.434 769.481 426.47C770.08 429.237 770.69 432.366 771.378 435.079C771.825 437.513 772.34 440.877 772.958 443.199C774.749 451.733 776.979 461.402 778.397 469.931C781.051 486.689 782.587 503.604 782.995 520.565C783.107 523.212 783.749 534.468 783.235 536.431C782.891 542.197 781.543 567.365 780.174 571.341C779.73 577.639 778.642 583.721 777.33 589.886C774.956 600.438 772.393 610.244 768.703 620.445C766.749 626.317 764.454 632.068 761.827 637.671C755.067 651.458 750.011 660.615 740.707 672.947C734.813 680.689 724.181 691.862 716.54 697.878C711.034 702.57 705.447 706.488 700.169 710.902C698.211 712.364 699.234 712.104 697.139 712.164C695.396 711.201 695.138 710.848 693.688 709.421C683.632 718.464 674.117 723.583 660.81 726.482C650.266 728.78 643.478 730.245 646.936 716.758L647.683 713.901C645.061 716.627 631.339 730.392 626.274 727.416C624.564 726.411 625.066 721.359 625.195 719.257C614.978 726.848 606.836 731.037 593.995 732.202L593.152 732.891C593.773 736.663 594.682 739.384 596.142 742.859C592.884 745.665 582.924 759.055 580.981 762.854C574.656 766.591 574.309 767.014 569.919 772.949C563.682 775.169 561.907 776.019 557.691 781.18C550.591 783.144 549.211 784.126 543.924 788.879C536.196 789.818 534.357 790.708 528.013 795.017C521.757 791.894 518.802 791.086 512.572 795.012C506.541 790.891 504.415 789.713 497.006 788.958C490.684 784.031 489.002 783.754 482.361 779.957C477.314 777.071 477.437 775.493 470.909 773.208C466.695 767.516 463.69 765.818 458.711 761.057C453.489 756.063 449.753 746.363 443.965 742.353C445.305 738.762 445.964 735.731 446.849 731.995C433.648 731.485 426.512 727.764 416.138 719.896C415.872 722.729 415.822 724.824 415.386 727.747C411.331 732.534 395.535 718.069 392.4 715.338C393.546 721.67 395.555 729.375 385.773 728.147C373.295 726.58 355.164 719.008 346.855 709.607L342.242 714.494C340.712 713.877 339.116 712.9 337.66 712.072C332.454 708.331 327.313 704.154 322.269 700.177C311.183 690.787 305.685 685.364 296.917 673.973C289.174 664.477 280.72 650.17 275.796 639.041L271.243 627.919C266.036 616.193 260.91 597.478 259.258 584.841C258.476 583.07 257.424 571.923 257.24 569.53C255.409 556.777 254.479 543.91 254.457 531.025C253.65 527.629 254.422 517.046 254.96 513.375C255.545 496.371 257.428 481.731 259.817 465.031C260.265 462.267 260.767 459.512 261.322 456.768C261.925 452.772 262.847 448.569 263.648 444.588C264.113 441.405 264.533 439.16 265.267 436.029C269.559 417.128 273.856 399.651 279.677 381.091C280.285 378.34 282.055 373.306 282.971 370.448C288.41 355.874 293.217 343.82 300.014 329.974C313.472 300.174 338.234 267.163 361.614 244.527C365.869 240.407 370.246 235.756 374.901 232.132C385.423 222.347 406.565 206.375 418.916 199.118C420.28 197.327 430.971 191.867 433.565 190.702C460.873 176.509 487.788 167.718 518.93 167.424Z"/><path fill="#656362" transform="matrix(0.195312 0 0 0.195312 0.000488281 0)" d="M518.93 167.424C522.913 167.459 527.32 167.363 531.211 167.996C538.262 168.629 545.383 169.254 552.218 171.173C555.462 171.778 557.86 172.168 560.992 173.23C565.06 174.183 567.778 175.122 571.745 176.521C578.769 178.947 586.563 181.548 593.096 185.088C598.41 187.483 608.534 192.571 613.465 195.724C617.098 197.424 620.556 199.73 623.744 202.155C631.681 206.576 653.544 223.067 659.783 229.776C662.415 231.547 670.736 238.817 672.55 241.175C681.249 248.457 698.782 268.373 705.3 277.938C707.599 280.697 712.76 287.826 714.423 291.024C730.329 313.702 745.358 344.704 753.851 371.121C754.947 374.539 756.731 379.557 757.556 382.92C760.682 392.515 764.978 407.528 767.222 417.349C767.957 420.394 768.71 423.434 769.481 426.47C770.08 429.237 770.69 432.366 771.378 435.079C771.825 437.513 772.34 440.877 772.958 443.199C774.749 451.733 776.979 461.402 778.397 469.931C781.051 486.689 782.587 503.604 782.995 520.565C783.107 523.212 783.749 534.468 783.235 536.431C782.891 542.197 781.543 567.365 780.174 571.341C779.73 577.639 778.642 583.721 777.33 589.886C774.956 600.438 772.393 610.244 768.703 620.445C766.749 626.317 764.454 632.068 761.827 637.671C755.067 651.458 750.011 660.615 740.707 672.947C734.813 680.689 724.181 691.862 716.54 697.878C711.034 702.57 705.447 706.488 700.169 710.902C698.211 712.364 699.234 712.104 697.139 712.164C695.396 711.201 695.138 710.848 693.688 709.421C683.632 718.464 674.117 723.583 660.81 726.482C650.266 728.78 643.478 730.245 646.936 716.758L647.683 713.901C645.061 716.627 631.339 730.392 626.274 727.416C624.564 726.411 625.066 721.359 625.195 719.257C614.978 726.848 606.836 731.037 593.995 732.202L593.152 732.891C591.386 727.248 591.824 699.175 591.933 691.827C618.351 682.086 632.53 675.352 657.497 662.097C673.079 652.968 679.773 648.275 693.303 636.002C693.891 635.39 693.773 635.36 694.123 634.507C693.837 631.851 693.266 630.882 692.224 628.454C691.804 627.445 691.696 626.86 691.394 625.881C681.638 594.291 690.107 570.191 709.248 544.233C714.516 537.088 723.218 525.667 727.587 518.168C743.254 491.275 729.194 451.334 721.133 423.224C700.002 407.145 687.861 396.051 674.676 372.137C672.509 367.689 670.616 363.72 668.699 359.131C658.057 335.471 654.151 307.488 645.53 282.979C629.873 238.471 592.978 226.96 550.674 241.365C525.828 234.865 492.813 235.947 470.1 248.9C456.473 256.673 442.956 271.724 439.443 287.219C432.878 316.17 426.968 338.68 413.086 364.976C410.029 369.844 406.405 375.101 403.541 379.746C398.138 386.142 393.871 390.986 387.974 396.869C384.111 400.463 378.268 406.031 374.162 409.168C371.956 410.721 364.975 415.274 364.103 417.158C356.993 420.58 348.502 426.469 341.323 430.432C338.179 432.168 325.575 438.489 324.097 439.753C320.777 441.878 314.57 444.058 310.713 446.073C304.345 465.361 299.284 498.243 309.34 516.142C313.9 524.26 322.464 535.731 328.468 543.443C347.413 567.781 357.686 594.978 347.67 625.715C347.561 626.051 347.447 626.385 347.328 626.718L344.547 634.246C349.457 640.195 361.777 649.483 368.351 653.414C377.213 660.197 387.787 665.042 397.626 670.228C414.242 678.985 431.058 685.663 448.532 692.388C448.497 705.761 448.674 718.693 446.849 731.995C433.648 731.485 426.512 727.764 416.138 719.896C415.872 722.729 415.822 724.824 415.386 727.747C411.331 732.534 395.535 718.069 392.4 715.338C393.546 721.67 395.555 729.375 385.773 728.147C373.295 726.58 355.164 719.008 346.855 709.607L342.242 714.494C340.712 713.877 339.116 712.9 337.66 712.072C332.454 708.331 327.313 704.154 322.269 700.177C311.183 690.787 305.685 685.364 296.917 673.973C289.174 664.477 280.72 650.17 275.796 639.041L271.243 627.919C266.036 616.193 260.91 597.478 259.258 584.841C258.476 583.07 257.424 571.923 257.24 569.53C255.409 556.777 254.479 543.91 254.457 531.025C253.65 527.629 254.422 517.046 254.96 513.375C255.545 496.371 257.428 481.731 259.817 465.031C260.265 462.267 260.767 459.512 261.322 456.768C261.925 452.772 262.847 448.569 263.648 444.588C264.113 441.405 264.533 439.16 265.267 436.029C269.559 417.128 273.856 399.651 279.677 381.091C280.285 378.34 282.055 373.306 282.971 370.448C288.41 355.874 293.217 343.82 300.014 329.974C313.472 300.174 338.234 267.163 361.614 244.527C365.869 240.407 370.246 235.756 374.901 232.132C385.423 222.347 406.565 206.375 418.916 199.118C420.28 197.327 430.971 191.867 433.565 190.702C460.873 176.509 487.788 167.718 518.93 167.424Z"/><path fill="#8F8F8D" transform="matrix(0.195312 0 0 0.195312 0.000488281 0)" d="M433.565 190.702C460.873 176.509 487.788 167.718 518.93 167.424L519.306 167.798C523.318 171.72 527.594 174.405 531.953 178.953C541.592 189.005 552.704 206.248 553.405 220.542C553.575 223.994 552.333 227.471 551.236 230.636C547.086 221.878 544.387 216.054 538.663 208.064C503.407 158.853 444.538 188.051 421.563 232.831C406.082 263.004 400.644 297.774 386.817 328.782C368.888 370.257 333.76 398.989 295.154 420.532C291.104 422.792 268.181 436.718 265.267 436.029C269.559 417.128 273.856 399.651 279.677 381.091C280.285 378.34 282.055 373.306 282.971 370.448C288.41 355.874 293.217 343.82 300.014 329.974C313.472 300.174 338.234 267.163 361.614 244.527C365.869 240.407 370.246 235.756 374.901 232.132C385.423 222.347 406.565 206.375 418.916 199.118C420.28 197.327 430.971 191.867 433.565 190.702Z"/><path fill="#8F8F8D" transform="matrix(0.195312 0 0 0.195312 0.000488281 0)" d="M418.916 199.118C419.442 202.028 410.349 217.737 408.552 221.334C404.051 230.344 400.361 239.718 395.928 248.76C386.304 268.348 375.286 287.22 362.959 305.23C349.164 325.149 332.093 345.833 311.285 358.85C302.804 364.156 292.905 367.769 284.612 372.554L283.372 372.534C282.969 371.302 283.044 371.695 282.971 370.448C288.41 355.874 293.217 343.82 300.014 329.974C313.472 300.174 338.234 267.163 361.614 244.527C365.869 240.407 370.246 235.756 374.901 232.132C385.423 222.347 406.565 206.375 418.916 199.118Z"/><defs><linearGradient id="gradient_4" gradientUnits="userSpaceOnUse" x1="344.88486" y1="286.96942" x2="332.49985" y2="277.98575"><stop offset="0" stop-color="#585858"/><stop offset="1" stop-color="#888685"/></linearGradient></defs><path fill="url(#gradient_4)" transform="matrix(0.195312 0 0 0.195312 0.000488281 0)" d="M300.014 329.974C313.472 300.174 338.234 267.163 361.614 244.527C365.869 240.407 370.246 235.756 374.901 232.132C374.071 234.737 372.837 236.777 371.77 239.238C358.748 269.28 342.85 298.37 315.99 318.268C311.261 321.771 305.028 327.261 300.014 329.974Z"/><path fill="#656362" transform="matrix(0.195312 0 0 0.195312 0.000488281 0)" d="M418.916 199.118C420.28 197.327 430.971 191.867 433.565 190.702C418.612 212.225 415.649 222.882 404.517 245.408C383.478 287.981 355.13 336.826 314.925 363.688C302.534 371.967 292.141 374.966 279.677 381.091C280.285 378.34 282.055 373.306 282.971 370.448C283.044 371.695 282.969 371.302 283.372 372.534L284.612 372.554C292.905 367.769 302.804 364.156 311.285 358.85C332.093 345.833 349.164 325.149 362.959 305.23C375.286 287.22 386.304 268.348 395.928 248.76C400.361 239.718 404.051 230.344 408.552 221.334C410.349 217.737 419.442 202.028 418.916 199.118Z"/><defs><linearGradient id="gradient_5" gradientUnits="userSpaceOnUse" x1="634.99481" y1="349.90506" x2="706.36554" y2="303.29828"><stop offset="0" stop-color="#80807E"/><stop offset="1" stop-color="#A2A19F"/></linearGradient></defs><path fill="url(#gradient_5)" transform="matrix(0.195312 0 0 0.195312 0.000488281 0)" d="M623.744 202.155C631.681 206.576 653.544 223.067 659.783 229.776C662.415 231.547 670.736 238.817 672.55 241.175C681.249 248.457 698.782 268.373 705.3 277.938C707.599 280.697 712.76 287.826 714.423 291.024C730.329 313.702 745.358 344.704 753.851 371.121C754.947 374.539 756.731 379.557 757.556 382.92C760.682 392.515 764.978 407.528 767.222 417.349C767.957 420.394 768.71 423.434 769.481 426.47C770.08 429.237 770.69 432.366 771.378 435.079L770.014 435.721C765.91 435.401 762.596 434.061 758.779 432.995C703.691 417.612 674.754 372.711 661.986 319.732C654.508 288.705 646.819 252.384 615.23 236.694C597.309 227.793 576.073 227.014 557.069 233.289C557.664 231.112 558.717 228.782 560.398 227.255C581.158 208.391 596.386 201.903 623.744 202.155Z"/><path fill="#8F8F8D" transform="matrix(0.195312 0 0 0.195312 0.000488281 0)" d="M672.55 241.175C681.249 248.457 698.782 268.373 705.3 277.938C707.599 280.697 712.76 287.826 714.423 291.024C730.329 313.702 745.358 344.704 753.851 371.121C754.947 374.539 756.731 379.557 757.556 382.92C760.682 392.515 764.978 407.528 767.222 417.349C766.044 417.245 762.527 415.746 761.218 415.198C749.359 410.235 737.258 403.663 727.719 394.946C699.349 369.022 691.614 332.597 684.548 296.693C682.882 288.232 681.873 279.393 680.172 271.028C678.959 265.201 677.552 259.417 675.956 253.683C675.146 250.794 672.652 243.66 672.55 241.175Z"/><path fill="#8F8F8D" transform="matrix(0.195312 0 0 0.195312 0.000488281 0)" d="M714.423 291.024C730.329 313.702 745.358 344.704 753.851 371.121L753.313 372.022L752.366 372.252C749.347 370.182 745.585 367.532 742.919 364.943C728.687 351.118 722.618 327.483 717.825 308.684C716.685 304.212 714.547 295.312 714.423 291.024Z"/><path fill="#656362" transform="matrix(0.195312 0 0 0.195312 0.000488281 0)" d="M705.3 277.938C707.599 280.697 712.76 287.826 714.423 291.024C714.547 295.312 716.685 304.212 717.825 308.684C722.618 327.483 728.687 351.118 742.919 364.943C745.585 367.532 749.347 370.182 752.366 372.252L753.313 372.022L753.851 371.121C754.947 374.539 756.731 379.557 757.556 382.92C715.985 361.934 714.46 317.209 705.3 277.938Z"/><path fill="#656362" transform="matrix(0.195312 0 0 0.195312 0.000488281 0)" d="M659.783 229.776C662.415 231.547 670.736 238.817 672.55 241.175C672.652 243.66 675.146 250.794 675.956 253.683C677.552 259.417 678.959 265.201 680.172 271.028C681.873 279.393 682.882 288.232 684.548 296.693C691.614 332.597 699.349 369.022 727.719 394.946C737.258 403.663 749.359 410.235 761.218 415.198C762.527 415.746 766.044 417.245 767.222 417.349C767.957 420.394 768.71 423.434 769.481 426.47C766.869 424.558 756.48 420.396 752.8 418.769C743.465 414.601 734.76 409.146 726.939 402.563C695.376 376.081 685.44 335.9 678.482 297.209C675.984 283.323 673.843 269.144 670.15 255.531C667.756 246.707 663.455 238.161 659.783 229.776Z"/><path fill="#8F8F8D" transform="matrix(0.195312 0 0 0.195312 0.000488281 0)" d="M263.648 444.588C263.842 444.46 264.036 444.332 264.23 444.204C304.784 424.991 344.74 400.266 372.748 364.482C388.977 343.86 398.103 318.202 405.959 293.426C418.514 253.83 427.09 215.342 467.892 194.972C498.988 179.448 522.829 192.671 540.206 220.453C542.527 224.164 543.863 226.712 545.361 230.871C534.542 218.246 519.996 210.157 503.615 209.052C470.297 206.805 449.92 226.458 441.211 257.163C435.956 275.69 432.262 293.971 427.161 312.499C414.849 357.982 396.394 388.607 355.903 414.374C341.889 423.292 333.974 428.165 318.195 435.354C301.969 442.747 286.592 448.829 269.502 454.278C267.963 454.769 262.342 456.751 261.322 456.768C261.925 452.772 262.847 448.569 263.648 444.588Z"/><defs><linearGradient id="gradient_6" gradientUnits="userSpaceOnUse" x1="319.09531" y1="618.18292" x2="234.32153" y2="586.04376"><stop offset="0" stop-color="gray"/><stop offset="1" stop-color="#999795"/></linearGradient></defs><path fill="url(#gradient_6)" transform="matrix(0.195312 0 0 0.195312 0.000488281 0)" d="M254.457 531.025C254.586 531.101 267.044 550.988 269.524 553.838C295.063 583.185 321.755 624.401 302.521 663.997C301.152 666.815 298.684 671.987 296.917 673.973C289.174 664.477 280.72 650.17 275.796 639.041L271.243 627.919C266.036 616.193 260.91 597.478 259.258 584.841C258.476 583.07 257.424 571.923 257.24 569.53C255.409 556.777 254.479 543.91 254.457 531.025Z"/><path fill="#656362" transform="matrix(0.195312 0 0 0.195312 0.000488281 0)" d="M257.24 569.53C273.701 590.962 281.513 612.056 275.796 639.041L271.243 627.919C266.036 616.193 260.91 597.478 259.258 584.841C258.476 583.07 257.424 571.923 257.24 569.53Z"/><path fill="#71706F" transform="matrix(0.195312 0 0 0.195312 0.000488281 0)" d="M259.258 584.841L259.833 584.356C265.452 590.136 275.185 621.326 271.243 627.919C266.036 616.193 260.91 597.478 259.258 584.841Z"/><defs><linearGradient id="gradient_7" gradientUnits="userSpaceOnUse" x1="719.34076" y1="525.8103" x2="772.12769" y2="545.55573"><stop offset="0" stop-color="#80807F"/><stop offset="1" stop-color="#9A9997"/></linearGradient></defs><path fill="url(#gradient_7)" transform="matrix(0.195312 0 0 0.195312 0.000488281 0)" d="M750.739 437.115C758.13 439.6 765.239 441.937 772.958 443.199C774.749 451.733 776.979 461.402 778.397 469.931C781.051 486.689 782.587 503.604 782.995 520.565C778.591 526.214 773.568 536.359 768.605 542.954C750.619 566.858 723.386 598.938 723.749 630.382C716.767 608.357 716.679 575.931 732.74 557.849C739.655 549.353 749.946 540.8 754.502 530.73C767.931 501.048 760.017 465.968 750.739 437.115Z"/><path fill="#8F8F8D" transform="matrix(0.195312 0 0 0.195312 0.000488281 0)" d="M740.707 672.947C737.389 669.274 731.258 652.618 730.464 647.508C723.378 601.873 757.956 570.623 780.853 536.332C781.756 534.98 781.251 535.099 782.743 534.834L783.235 536.431C782.891 542.197 781.543 567.365 780.174 571.341C779.73 577.639 778.642 583.721 777.33 589.886C774.956 600.438 772.393 610.244 768.703 620.445C766.749 626.317 764.454 632.068 761.827 637.671C755.067 651.458 750.011 660.615 740.707 672.947Z"/><path fill="#656362" transform="matrix(0.195312 0 0 0.195312 0.000488281 0)" d="M761.827 637.671C761.13 634.359 761.456 627.771 761.394 624.263C761.128 609.068 769.008 582.025 780.174 571.341C779.73 577.639 778.642 583.721 777.33 589.886C774.956 600.438 772.393 610.244 768.703 620.445C766.749 626.317 764.454 632.068 761.827 637.671Z"/><path fill="#71706F" transform="matrix(0.195312 0 0 0.195312 0.000488281 0)" d="M768.703 620.445C766.488 616.457 772.874 591.666 776.284 589.469L777.33 589.886C774.956 600.438 772.393 610.244 768.703 620.445Z"/><defs><linearGradient id="gradient_8" gradientUnits="userSpaceOnUse" x1="309.37155" y1="538.51477" x2="268.97543" y2="553.59564"><stop offset="0" stop-color="#7E7E7D"/><stop offset="1" stop-color="#A2A19F"/></linearGradient></defs><path fill="url(#gradient_8)" transform="matrix(0.195312 0 0 0.195312 0.000488281 0)" d="M259.817 465.031C266.841 462.589 273.16 459.691 280.981 457.103C275.937 479.976 269.904 511.417 283.475 532.201C289.538 542.546 298.509 549.719 306.176 558.556C321.313 576.004 320.748 602.124 316.535 623.479C316.175 625.303 315.21 627.017 315.09 628.59C315.009 628.458 313.098 616.488 312.795 615.145C304.103 576.596 270.258 553.053 255.245 518.045C254.968 517.4 254.968 514.204 254.96 513.375C255.545 496.371 257.428 481.731 259.817 465.031Z"/><path fill="#71706F" transform="matrix(0.195312 0 0 0.195312 0.000488281 0)" d="M657.497 662.097C673.079 652.968 679.773 648.275 693.303 636.002C693.681 636.995 694.707 639.204 694.082 640.163C691.413 644.256 690.383 648.942 688.988 653.53C683.962 670.054 683.021 687.337 689.288 703.643C681.471 714.64 669.076 719.017 656.202 722.16C655.236 722.396 654.121 722.33 653.133 722.242L652.564 721.715C652.666 715.076 656.438 705.723 656.792 698.715C657.45 685.694 656.377 675.435 657.497 662.097Z"/><path fill="#71706F" transform="matrix(0.195312 0 0 0.195312 0.000488281 0)" d="M320.815 667.038C324.772 663.285 327.907 660.367 331.558 656.357C333.805 653.889 337.769 646.995 339.182 645.904C340.569 646.459 341.222 647.388 341.776 648.893C348.06 665.958 351.806 684.362 344.252 701.705C342.601 705.495 340.612 709.346 337.66 712.072C332.454 708.331 327.313 704.154 322.269 700.177C324.949 692.484 324.558 674.601 320.815 667.038Z"/><path fill="#71706F" transform="matrix(0.195312 0 0 0.195312 0.000488281 0)" d="M700.169 710.902C687.481 690.721 688.415 665.587 699.063 644.674C707.325 655.539 707.098 657.553 718.476 667.814C713.779 677.142 715.26 687.941 716.54 697.878C711.034 702.57 705.447 706.488 700.169 710.902Z"/><path fill="#71706F" transform="matrix(0.195312 0 0 0.195312 0.000488281 0)" d="M560.616 219.025C567.798 196.516 572.005 193.618 593.096 185.088C598.41 187.483 608.534 192.571 613.465 195.724C611.617 196.75 605.254 196.548 602.707 197.108C586.439 200.685 572.765 207.808 560.616 219.025Z"/><path fill="#71706F" transform="matrix(0.195312 0 0 0.195312 0.000488281 0)" d="M531.211 167.996C538.262 168.629 545.383 169.254 552.218 171.173C554.124 174.071 555.326 176.049 556.806 179.081C564.17 194.157 563.016 196.693 558.177 211.294C553.35 201.757 551.033 192.453 544.186 183.461C542.553 181.316 531.368 168.522 531.211 167.996Z"/><path fill="#71706F" transform="matrix(0.195312 0 0 0.195312 0.000488281 0)" d="M560.992 173.23C565.06 174.183 567.778 175.122 571.745 176.521C569.326 182.148 568.773 184.175 567.198 190.185C566.19 186.111 565.322 183.091 563.61 179.205C562.699 177.137 561.598 175.342 560.992 173.23Z"/><path fill="#8F8F8D" transform="matrix(0.195312 0 0 0.195312 0.000488281 0)" d="M729.387 428.18C733.883 430.189 737.994 431.927 742.395 434.185C746.778 446.472 749.638 453.508 752.117 466.587C756.777 491.175 758.134 518.434 741.433 539.036C735.366 546.52 728.703 552.19 723.172 560.399C710.965 578.874 710.992 605.044 715.494 626.056C717.613 635.948 724.092 646.544 726.2 656.797C726.878 660.096 730.498 664.56 731.371 668.65L730.898 668.989L729.112 668.03C710.434 654.06 700.209 637.438 695.243 615.237C686.831 577.629 710.597 553.799 730.463 525.574C741.526 509.856 742.419 493.422 740.016 474.453C739.082 466.627 737.632 458.872 735.676 451.237C733.833 444.18 730.966 435.674 729.503 428.749L729.387 428.18Z"/><path fill="#8F8F8D" transform="matrix(0.195312 0 0 0.195312 0.000488281 0)" d="M287.876 455.105C292.904 453.094 298.919 450.862 303.807 448.705C297.926 469.752 292.606 502.191 305.164 521.363C326.591 554.072 354.3 577.658 342.286 621.234C340.479 628.018 337.766 634.528 334.222 640.589C331.046 650.412 314.309 664.776 305.836 670.921C309.928 662.091 311.234 657.299 314.439 648.673C320.745 631.7 325.352 620.483 325.709 601.641C326.012 585.637 322.904 571.455 313.797 557.952C311.001 553.806 304.81 547.528 301.196 543.759C296.871 540.327 290.339 531.361 287.694 526.421C276.393 505.317 282.365 477.33 287.876 455.105Z"/><defs><linearGradient id="gradient_9" gradientUnits="userSpaceOnUse" x1="266.54388" y1="618.64526" x2="334.21088" y2="563.05621"><stop offset="0" stop-color="#7F7F7D"/><stop offset="1" stop-color="#A5A4A3"/></linearGradient></defs><path fill="url(#gradient_9)" transform="matrix(0.195312 0 0 0.195312 0.000488281 0)" d="M292.323 510.7L292.677 511.508C304.268 537.62 328.576 553.069 336.097 580.749C340.609 597.352 339.719 613.344 336.178 629.973C335.768 631.902 334.134 638.966 334.222 640.589C331.046 650.412 314.309 664.776 305.836 670.921C309.928 662.091 311.234 657.299 314.439 648.673C320.745 631.7 325.352 620.483 325.709 601.641C326.012 585.637 322.904 571.455 313.797 557.952C311.001 553.806 304.81 547.528 301.196 543.759C302.789 544.179 303.475 545.132 304.604 546.258C304.97 544.799 304.717 543.092 303.893 541.863C297.31 532.033 293.63 522.526 292.323 510.7Z"/><path fill="#71706F" transform="matrix(0.195312 0 0 0.195312 0.000488281 0)" d="M486.374 225.222C489.791 224.97 495.241 224.642 498.332 225.831C500.985 226.852 513.496 229.628 514.205 231.787C493.761 231.582 477.373 236.469 460.404 247.88C453.227 253.585 451.46 255.947 445.567 262.753C448.297 251.971 452.761 242.681 459.196 233.686C470.261 228.35 474.449 226.535 486.374 225.222Z"/><defs><linearGradient id="gradient_10" gradientUnits="userSpaceOnUse" x1="519.61957" y1="622.65814" x2="513.79462" y2="793.54413"><stop offset="0" stop-color="#AA804A"/><stop offset="1" stop-color="#DBBE82"/></linearGradient></defs><path fill="url(#gradient_10)" transform="matrix(0.195312 0 0 0.195312 0.000488281 0)" d="M344.547 634.246L347.328 626.718C349.461 627.892 353.072 632.473 355.379 634.472C370.718 647.768 388.625 657.156 406.632 666.255C408.628 667.263 411.296 668.492 413.068 669.818C429.266 677.249 439.857 681.331 456.481 686.67C531.597 710.795 595.416 688.992 661.5 651.414C666.698 649.108 671.096 645.212 675.558 642.295C679.699 639.587 688.947 629.947 692.224 628.454C693.266 630.882 693.837 631.851 694.123 634.507C693.773 635.36 693.891 635.39 693.303 636.002C679.773 648.275 673.079 652.968 657.497 662.097C632.53 675.352 618.351 682.086 591.933 691.827C591.824 699.175 591.386 727.248 593.152 732.891C593.773 736.663 594.682 739.384 596.142 742.859C592.884 745.665 582.924 759.055 580.981 762.854C574.656 766.591 574.309 767.014 569.919 772.949C563.682 775.169 561.907 776.019 557.691 781.18C550.591 783.144 549.211 784.126 543.924 788.879C536.196 789.818 534.357 790.708 528.013 795.017C521.757 791.894 518.802 791.086 512.572 795.012C506.541 790.891 504.415 789.713 497.006 788.958C490.684 784.031 489.002 783.754 482.361 779.957C477.314 777.071 477.437 775.493 470.909 773.208C466.695 767.516 463.69 765.818 458.711 761.057C453.489 756.063 449.753 746.363 443.965 742.353C445.305 738.762 445.964 735.731 446.849 731.995C448.674 718.693 448.497 705.761 448.532 692.388C431.058 685.663 414.242 678.985 397.626 670.228C387.787 665.042 377.213 660.197 368.351 653.414C361.777 649.483 349.457 640.195 344.547 634.246Z"/><path fill="#C3A676" transform="matrix(0.195312 0 0 0.195312 0.000488281 0)" d="M344.547 634.246L347.328 626.718C349.461 627.892 353.072 632.473 355.379 634.472C370.718 647.768 388.625 657.156 406.632 666.255C408.628 667.263 411.296 668.492 413.068 669.818C406.086 668.528 373.468 649.539 366.428 644.053C362.807 641.232 357.553 637.579 353.898 634.672C353.422 634.293 351.302 634.838 349.62 634.546C348.015 631.338 350.353 632.171 348.8 628.779L347.979 628.641C346.476 630.3 346.098 632.018 345.346 634.157C352.251 641.047 359.897 646.568 367.756 652.253C368.074 652.483 368.227 653.05 368.351 653.414C361.777 649.483 349.457 640.195 344.547 634.246Z"/><defs><linearGradient id="gradient_11" gradientUnits="userSpaceOnUse" x1="426.03387" y1="444.14786" x2="361.3439" y2="465.49686"><stop offset="0" stop-color="#072505"/><stop offset="1" stop-color="#0E440F"/></linearGradient></defs><path fill="url(#gradient_11)" transform="matrix(0.195312 0 0 0.195312 0.000488281 0)" d="M374.162 409.168C378.268 406.031 384.111 400.463 387.974 396.869C390.092 397.632 398.914 396.626 402.297 396.896C419.746 398.293 435.918 406.93 445.821 421.509C451.214 429.552 454.547 438.797 455.529 448.431C455.731 450.626 456.095 452.205 454.806 454.111C455.315 456.636 456.763 462.804 455.846 464.946C456.469 471.237 456.987 476.377 452.694 481.822C448.146 487.59 436.304 490.779 429.267 491.414C428.294 491.505 427.315 491.491 426.345 491.373C424.207 492.41 424.083 492.529 421.769 492.718C416.657 493.028 401.249 494.137 397.149 493.535C393.383 493.766 389.342 493.611 385.547 493.54C381.732 493.524 380.141 493.622 376.576 492.224C368.202 492.948 354.918 485.985 349.277 480.063C347.191 477.873 340.704 472.193 341.991 469.189C336.447 463.323 334.924 455.813 331.726 448.742C330.219 445.411 326.715 442.314 324.097 439.753C325.575 438.489 338.179 432.168 341.323 430.432C348.502 426.469 356.993 420.58 364.103 417.158C364.975 415.274 371.956 410.721 374.162 409.168Z"/><path fill="#0B0A05" transform="matrix(0.195312 0 0 0.195312 0.000488281 0)" d="M374.162 409.168C378.268 406.031 384.111 400.463 387.974 396.869C390.092 397.632 398.914 396.626 402.297 396.896C419.746 398.293 435.918 406.93 445.821 421.509C451.214 429.552 454.547 438.797 455.529 448.431C455.731 450.626 456.095 452.205 454.806 454.111C455.315 456.636 456.763 462.804 455.846 464.946C451.102 452.381 449.034 448.863 439.677 439.411C435.967 434.158 426.963 430.73 421.04 428.719C408.637 423.475 377.477 423.481 365.448 430.28C356.672 434.663 346.537 440.056 340.541 448.107C340.271 456.816 340.74 460.73 341.991 469.189C336.447 463.323 334.924 455.813 331.726 448.742C330.219 445.411 326.715 442.314 324.097 439.753C325.575 438.489 338.179 432.168 341.323 430.432C348.502 426.469 356.993 420.58 364.103 417.158C364.975 415.274 371.956 410.721 374.162 409.168Z"/><path fill="#C3A676" transform="matrix(0.195312 0 0 0.195312 0.000488281 0)" d="M374.162 409.168C378.268 406.031 384.111 400.463 387.974 396.869C390.092 397.632 398.914 396.626 402.297 396.896C419.746 398.293 435.918 406.93 445.821 421.509C451.214 429.552 454.547 438.797 455.529 448.431C455.731 450.626 456.095 452.205 454.806 454.111C451.121 440.89 443.708 431.389 432.648 423.564C415.584 411.491 399.388 409.157 379.038 412.687L378.297 412.139C377.067 412.299 377.613 412.448 376.648 411.736L376.94 410.606C376.277 409.469 375.853 409.699 374.162 409.168Z"/><path fill="#E4CB98" transform="matrix(0.195312 0 0 0.195312 0.000488281 0)" d="M374.162 409.168C375.853 409.699 376.277 409.469 376.94 410.606L376.648 411.736C377.613 412.448 377.067 412.299 378.297 412.139L379.038 412.687C374.052 413.873 368.894 415.307 364.103 417.158C364.975 415.274 371.956 410.721 374.162 409.168Z"/><path fill="#EFF1E7" transform="matrix(0.195312 0 0 0.195312 0.000488281 0)" d="M421.04 428.719C426.963 430.73 435.967 434.158 439.677 439.411C449.034 448.863 451.102 452.381 455.846 464.946C456.469 471.237 456.987 476.377 452.694 481.822C448.146 487.59 436.304 490.779 429.267 491.414C428.294 491.505 427.315 491.491 426.345 491.373C430.642 486.893 434.207 482.038 436.696 476.342C434.643 473.287 437.401 470.71 431.623 465.742C430.39 465.699 430.446 465.69 429.252 465.464C428.132 464.186 427.633 463.406 426.715 462.014L425.586 461.819C428.649 449.119 426.458 440.304 421.04 428.719Z"/><defs><linearGradient id="gradient_12" gradientUnits="userSpaceOnUse" x1="440.20386" y1="440.73413" x2="421.26608" y2="461.55087"><stop offset="0" stop-color="#0C3D0D"/><stop offset="1" stop-color="#125B17"/></linearGradient></defs><path fill="url(#gradient_12)" transform="matrix(0.195312 0 0 0.195312 0.000488281 0)" d="M421.04 428.719C426.963 430.73 435.967 434.158 439.677 439.411C441.055 452.573 442.799 463.38 436.696 476.342C434.643 473.287 437.401 470.71 431.623 465.742C430.39 465.699 430.446 465.69 429.252 465.464C428.132 464.186 427.633 463.406 426.715 462.014L425.586 461.819C428.649 449.119 426.458 440.304 421.04 428.719Z"/><path fill="#2CB23E" transform="matrix(0.195312 0 0 0.195312 0.000488281 0)" d="M425.586 461.819L426.715 462.014C427.633 463.406 428.132 464.186 429.252 465.464C430.446 465.69 430.39 465.699 431.623 465.742C437.401 470.71 434.643 473.287 436.696 476.342C434.207 482.038 430.642 486.893 426.345 491.373C424.207 492.41 424.083 492.529 421.769 492.718C416.657 493.028 401.249 494.137 397.149 493.535C393.383 493.766 389.342 493.611 385.547 493.54L385.357 492.072C377.762 490.698 371.867 484.984 368.616 478.163C368.235 471.999 371.934 466.511 376.99 463.325C379.974 471.05 383.968 477.851 391.927 481.462C397.683 484.097 404.279 484.203 410.116 481.754C417.28 478.724 421.509 472.744 424.26 465.731L425.586 461.819Z"/><path fill="#1D681B" transform="matrix(0.195312 0 0 0.195312 0.000488281 0)" d="M425.586 461.819L426.715 462.014C427.633 463.406 428.132 464.186 429.252 465.464C430.446 465.69 430.39 465.699 431.623 465.742C437.401 470.71 434.643 473.287 436.696 476.342C434.207 482.038 430.642 486.893 426.345 491.373C424.207 492.41 424.083 492.529 421.769 492.718C423.932 488.465 431.139 484.739 432.19 478.944C432.876 475.158 430.313 470.812 428.566 467.461C427.924 466.228 425.629 465.941 424.26 465.731L425.586 461.819Z"/><path fill="#1D681B" transform="matrix(0.195312 0 0 0.195312 0.000488281 0)" d="M385.357 492.072C388.233 492.019 394.883 492.025 397.149 493.535C393.383 493.766 389.342 493.611 385.547 493.54L385.357 492.072Z"/><path fill="#EFF1E7" transform="matrix(0.195312 0 0 0.195312 0.000488281 0)" d="M365.448 430.28C355.789 451.726 358.091 476.342 376.576 492.224C368.202 492.948 354.918 485.985 349.277 480.063C347.191 477.873 340.704 472.193 341.991 469.189C340.74 460.73 340.271 456.816 340.541 448.107C346.537 440.056 356.672 434.663 365.448 430.28Z"/><path fill="#26A12D" transform="matrix(0.195312 0 0 0.195312 0.000488281 0)" d="M369.329 463.988C371.439 463.475 375.105 462.288 376.99 463.325C371.934 466.511 368.235 471.999 368.616 478.163L367.371 475.823C367.912 472.387 368.231 469.549 368.067 466.032C368.566 465.224 368.986 464.543 369.329 463.988Z"/><path fill="#1D681B" transform="matrix(0.195312 0 0 0.195312 0.000488281 0)" d="M364.1 465.602C365.671 464.982 367.669 464.466 369.329 463.988C368.986 464.543 368.566 465.224 368.067 466.032C368.231 469.549 367.912 472.387 367.371 475.823C365.414 472.476 364.822 469.331 364.1 465.602Z"/><path fill="#EFF1E7" transform="matrix(0.195312 0 0 0.195312 0.000488281 0)" d="M385.285 430.477C396.111 430.762 396.483 444.218 385.345 448.268C373.563 448.293 374.87 434.814 385.285 430.477Z"/><path fill="#8F8F8D" transform="matrix(0.195312 0 0 0.195312 0.000488281 0)" d="M668.699 359.131C670.616 363.72 672.509 367.689 674.676 372.137C669.648 372.994 664.481 373.26 659.421 374.154C645.774 376.565 632.368 380.455 619.256 384.891C611.996 387.347 604.715 389.891 597.568 392.659C592.918 394.461 587.649 397.453 582.76 398.232C581.465 398.439 580.196 398.377 579.162 397.458C578.082 396.498 577.645 395.101 577.518 393.708C577.145 389.617 578.736 384.833 581.512 381.814C591.34 371.13 634.403 362.963 649.113 360.833C655.648 359.887 662.111 359.425 668.699 359.131Z"/><path fill="#8F8F8D" transform="matrix(0.195312 0 0 0.195312 0.000488281 0)" d="M403.541 379.746C406.405 375.101 410.029 369.844 413.086 364.976C424.157 368.645 435.555 371.295 446.516 375.302C452.196 377.378 458.034 380.067 460.364 386.11C461.693 389.557 462.354 395.834 458.898 398.226C456.67 398.548 449.175 395.826 446.727 394.747C432.872 388.636 417.516 384.933 403.541 379.746Z"/><path fill="#092E08" transform="matrix(0.195312 0 0 0.195312 0.000488281 0)" d="M583.889 465.694C582.378 458.361 588.067 444.71 592.205 438.739C618.647 400.573 667.564 406.433 701.492 431.027C708.611 436.187 711.406 436.007 719.353 434.446C716.135 439.896 713.357 442.795 708.761 447.152C707.108 452.936 703.414 464.628 698.577 468.676L697.777 468.523C695.357 481.788 676.08 492.135 663.393 492.267C661.411 493.059 660.8 493.504 658.763 493.296C650.424 493.801 629.264 493.774 621.172 492.66C618.691 492.576 616.364 492.711 614.097 491.804C611.759 491.892 609.94 491.546 607.66 491.109C593.232 488.349 580.444 483.126 583.889 465.694Z"/><path fill="#0B0A05" transform="matrix(0.195312 0 0 0.195312 0.000488281 0)" d="M583.889 465.694C582.378 458.361 588.067 444.71 592.205 438.739C618.647 400.573 667.564 406.433 701.492 431.027C708.611 436.187 711.406 436.007 719.353 434.446C716.135 439.896 713.357 442.795 708.761 447.152C707.108 452.936 703.414 464.628 698.577 468.676L697.777 468.523C699.353 459.845 699.569 456.412 699.433 447.824C691.866 439.031 685.234 435.694 675.156 430.155C671.427 428.324 660.578 425.741 656.49 425.309C648.391 423.882 623.765 425.743 617.262 430.182C610.681 432.739 606.074 434.399 600.762 439.101C591.583 446.752 588.187 454.664 583.889 465.694Z"/><path fill="#EFF1E7" transform="matrix(0.195312 0 0 0.195312 0.000488281 0)" d="M656.49 425.309C660.578 425.741 671.427 428.324 675.156 430.155C685.234 435.694 691.866 439.031 699.433 447.824C699.569 456.412 699.353 459.845 697.777 468.523C695.357 481.788 676.08 492.135 663.393 492.267C661.411 493.059 660.8 493.504 658.763 493.296L654.265 492.794L654.353 492.43L658.021 491.431C660.265 490.327 662.344 488.917 664.201 487.241C670.518 481.551 684.412 461.824 665.046 462.274C663.675 462.306 662.757 463.626 661.959 464.669L661.606 462.964C667.011 450.284 663.254 436.62 656.49 425.309Z"/><defs><linearGradient id="gradient_13" gradientUnits="userSpaceOnUse" x1="676.72333" y1="432.30408" x2="646.93475" y2="485.52698"><stop offset="0" stop-color="#0C3F0E"/><stop offset="1" stop-color="#1C601F"/></linearGradient></defs><path fill="url(#gradient_13)" transform="matrix(0.195312 0 0 0.195312 0.000488281 0)" d="M656.49 425.309C660.578 425.741 671.427 428.324 675.156 430.155C675.813 434.122 677.92 438.098 678.721 442.136C682.58 461.573 678.121 478.801 663.393 492.267C661.411 493.059 660.8 493.504 658.763 493.296L654.265 492.794L654.353 492.43L658.021 491.431C660.265 490.327 662.344 488.917 664.201 487.241C670.518 481.551 684.412 461.824 665.046 462.274C663.675 462.306 662.757 463.626 661.959 464.669L661.606 462.964C667.011 450.284 663.254 436.62 656.49 425.309Z"/><path fill="#2CB23E" transform="matrix(0.195312 0 0 0.195312 0.000488281 0)" d="M661.959 464.669C662.757 463.626 663.675 462.306 665.046 462.274C684.412 461.824 670.518 481.551 664.201 487.241C662.344 488.917 660.265 490.327 658.021 491.431L654.353 492.43L654.265 492.794L658.763 493.296C650.424 493.801 629.264 493.774 621.172 492.66C618.691 492.576 616.364 492.711 614.097 491.804C609.17 487.176 606.228 482.486 603.292 476.466C605.559 474.791 606.836 470.992 608.336 468.569L608.799 467.834C610.944 466.261 611.565 466.785 615.071 463.841C619.501 480.59 638.78 490.143 652.602 477.883C657.103 474.271 659.901 469.989 661.959 464.669Z"/><path fill="#1D681B" transform="matrix(0.195312 0 0 0.195312 0.000488281 0)" d="M603.292 476.466C605.559 474.791 606.836 470.992 608.336 468.569L608.799 467.834C614.278 476.024 606.491 476.741 609.577 483.002C611.135 486.163 618.006 490.924 622.018 491.213C621.615 492.182 621.811 492.22 621.172 492.66C618.691 492.576 616.364 492.711 614.097 491.804C609.17 487.176 606.228 482.486 603.292 476.466Z"/><path fill="#26A12D" transform="matrix(0.195312 0 0 0.195312 0.000488281 0)" d="M622.018 491.213C625.587 490.181 653.274 490.987 658.021 491.431L654.353 492.43L654.265 492.794L658.763 493.296C650.424 493.801 629.264 493.774 621.172 492.66C621.811 492.22 621.615 492.182 622.018 491.213Z"/><path fill="#EFF1E7" transform="matrix(0.195312 0 0 0.195312 0.000488281 0)" d="M600.762 439.101C597.602 453.538 597.222 462.778 603.292 476.466C606.228 482.486 609.17 487.176 614.097 491.804C611.759 491.892 609.94 491.546 607.66 491.109C593.232 488.349 580.444 483.126 583.889 465.694C588.187 454.664 591.583 446.752 600.762 439.101Z"/><path fill="#0D4812" transform="matrix(0.195312 0 0 0.195312 0.000488281 0)" d="M617.262 430.182L619.646 430.438C614.219 434.655 612.424 438.884 615.209 445.45C611.441 449.423 613.642 459.021 615.071 463.841C611.565 466.785 610.944 466.261 608.799 467.834L608.336 468.569C606.836 470.992 605.559 474.791 603.292 476.466C597.222 462.778 597.602 453.538 600.762 439.101C606.074 434.399 610.681 432.739 617.262 430.182Z"/><path fill="#EFF1E7" transform="matrix(0.195312 0 0 0.195312 0.000488281 0)" d="M619.646 430.438C640.514 427.359 629.368 458.346 615.801 446.006C615.601 445.824 615.404 445.638 615.209 445.45C612.424 438.884 614.219 434.655 619.646 430.438Z"/><path fill="#0D4812" transform="matrix(0.195312 0 0 0.195312 0.000488281 0)" d="M652.602 477.883C653.601 476.292 657.352 471.545 657.595 470.441C658.587 465.938 656.381 465.842 661.606 462.964L661.959 464.669C659.901 469.989 657.103 474.271 652.602 477.883Z"/><path fill="#EFF1E7" transform="matrix(0.195312 0 0 0.195312 0.000488281 0)" d="M453.106 597.654L453.514 596.956C456.227 596.73 464.519 596.189 466.505 595.699C476.248 593.293 485.249 590.9 495.19 589.398C505.429 587.852 509.187 589.205 519.056 590.607C521.493 590.953 527.859 588.666 532.317 588.934C543.332 589.614 554.232 592.266 565.099 594.262C570.485 595.252 577.612 596.094 582.678 597.514L584.061 597.568L584.236 598.245L582.897 599.625C582.882 600.507 582.776 601.725 582.291 602.46C571.494 618.82 557.807 635.18 537.976 639.85C519.584 644.181 499.594 642.858 483.339 633.312C473.289 627.409 457.22 610.12 454.412 599.056L453.106 597.654Z"/><path fill="#CD8469" transform="matrix(0.195312 0 0 0.195312 0.000488281 0)" d="M572.349 599.558L576.598 599.212C577.977 600.476 577.633 600.568 578.252 602.702C579.71 601.62 581.357 600.611 582.897 599.625C582.882 600.507 582.776 601.725 582.291 602.46C571.494 618.82 557.807 635.18 537.976 639.85C519.584 644.181 499.594 642.858 483.339 633.312C473.289 627.409 457.22 610.12 454.412 599.056L461.354 603.917C461.183 601.343 460.63 600.571 461.964 599.045L465.256 599.998C467.148 603.424 468.106 606.312 471.583 607.859L471.558 609.5L472.863 609.824L472.167 610.736C472.935 614.585 486.099 618.88 489.673 620.095C506.769 625.904 524.508 626.182 541.981 621.916C548.661 620.389 560.937 616.298 565.57 611.065L566.08 611.132C565.891 609.659 565.798 609.427 565.983 607.92C569.688 606.251 570.743 603.09 572.349 599.558Z"/><path fill="#0B0A05" transform="matrix(0.195312 0 0 0.195312 0.000488281 0)" d="M572.349 599.558L576.598 599.212C577.977 600.476 577.633 600.568 578.252 602.702C574.324 605.554 570.234 608.667 566.08 611.132C565.891 609.659 565.798 609.427 565.983 607.92C569.688 606.251 570.743 603.09 572.349 599.558Z"/><path fill="#0B0A05" transform="matrix(0.195312 0 0 0.195312 0.000488281 0)" d="M461.964 599.045L465.256 599.998C467.148 603.424 468.106 606.312 471.583 607.859L471.558 609.5C471.306 610.501 471.581 610.106 470.741 610.69C469.193 610.113 463.077 605.212 461.354 603.917C461.183 601.343 460.63 600.571 461.964 599.045Z"/><path fill="#CD8469" transform="matrix(0.195312 0 0 0.195312 0.000488281 0)" d="M453.106 597.654L453.514 596.956C456.227 596.73 464.519 596.189 466.505 595.699C476.248 593.293 485.249 590.9 495.19 589.398C505.429 587.852 509.187 589.205 519.056 590.607C521.493 590.953 527.859 588.666 532.317 588.934C543.332 589.614 554.232 592.266 565.099 594.262C570.485 595.252 577.612 596.094 582.678 597.514L584.061 597.568L584.236 598.245L582.897 599.625C581.357 600.611 579.71 601.62 578.252 602.702C577.633 600.568 577.977 600.476 576.598 599.212L572.349 599.558C547.909 602.609 523.25 603.525 498.651 602.298C491.233 601.964 471.225 599.755 465.256 599.998L461.964 599.045C460.63 600.571 461.183 601.343 461.354 603.917L454.412 599.056L453.106 597.654Z"/><path fill="#522E17" transform="matrix(0.195312 0 0 0.195312 0.000488281 0)" d="M453.106 597.654C456.642 597.423 458.752 598.747 461.964 599.045C460.63 600.571 461.183 601.343 461.354 603.917L454.412 599.056L453.106 597.654Z"/><path fill="#522E17" transform="matrix(0.195312 0 0 0.195312 0.000488281 0)" d="M582.678 597.514L584.061 597.568L584.236 598.245L582.897 599.625C581.357 600.611 579.71 601.62 578.252 602.702C577.633 600.568 577.977 600.476 576.598 599.212C578.082 598.64 581.035 597.952 582.678 597.514Z"/><path fill="#8F8F8D" transform="matrix(0.195312 0 0 0.195312 0.000488281 0)" d="M471.583 607.859C475.094 607.883 487.918 610.401 492.637 610.945L492.618 610.935L493.685 611.24C487.463 611.256 479.178 610.406 472.863 609.824L471.558 609.5L471.583 607.859Z"/><path fill="#8F8F8D" transform="matrix(0.195312 0 0 0.195312 0.000488281 0)" d="M565.57 611.065L565.106 609.909C561.675 609.092 553.389 611.418 548.537 610.838C550.219 610.259 564.763 607.812 565.983 607.92C565.798 609.427 565.891 609.659 566.08 611.132L565.57 611.065Z"/><defs><linearGradient id="gradient_14" gradientUnits="userSpaceOnUse" x1="518.6286" y1="546.81549" x2="519.89752" y2="577.48358"><stop offset="0" stop-color="#B28954"/><stop offset="1" stop-color="#C7A364"/></linearGradient></defs><path fill="url(#gradient_14)" transform="matrix(0.195312 0 0 0.195312 0.000488281 0)" d="M532.122 547.569C536.802 547.685 543.253 546.733 547.566 547.437C548.28 548.001 549.307 548.854 549.058 549.814C546.191 560.838 530.059 576.485 519.206 578.979C514.16 580.138 500.919 568.037 498.237 564.544C495.475 560.947 485.869 552.099 489.921 547.678C492.652 546.986 500.442 547.47 503.639 547.526C512.996 547.531 522.803 547.38 532.122 547.569Z"/><path fill="#E6D9A9" transform="matrix(0.195312 0 0 0.195312 0.000488281 0)" d="M504.827 519.665C513.518 516.272 519.333 515.815 528.703 517.145C533.505 520.849 536.765 522.763 538.075 529.092C539.305 535.036 532.022 544.166 532.122 547.569C522.803 547.38 512.996 547.531 503.639 547.526C504.541 537.949 494.654 531.602 504.827 519.665Z"/><path fill="#9E342E" transform="matrix(0.195312 0 0 0.195312 0.000488281 0)" d="M469.539 808.977C464.267 806.741 459.205 804.106 453.915 801.901C419.719 787.648 384.528 777.576 349.338 766.105C328.048 759.166 304.443 751.842 285.585 739.259C264.378 723.968 246.298 700.165 236.777 675.842C231.904 663.392 228.34 651.4 223.836 639.009C213.808 611.421 199.758 573.568 196.665 544.543C192.282 503.426 205.614 447.224 215.735 407.194C220.601 387.467 225.765 367.816 231.227 348.246C240.737 313.778 245.479 291.325 259.601 257.783C292.208 180.333 354.128 127.269 431.145 96.1556C494.284 70.6484 555.553 72.4478 617.676 99.5219C696.648 133.938 749.971 181.582 781.936 262.693C794.149 293.289 800.544 323.411 809.405 355.28C820.645 395.709 830.177 431.54 837.648 473.577C844.274 510.862 844.899 549.122 832.238 585.998C830.303 591.633 828.751 597.897 826.71 603.523C818.25 615.766 810.544 628.011 804.931 641.848C799.026 656.405 797.372 671.329 793.478 686.342C791.961 692.191 787.387 698.303 784.519 703.561C764.969 735.136 740.028 748.563 705.61 760.114C675.845 770.104 646.217 778.942 616.63 789.037C595.43 796.271 569.165 804.716 550.804 817.362C556.134 817.581 563.702 816.277 568.321 813.996C566.653 820.047 565.992 824.87 569.217 830.672C574.63 840.411 586.827 842.084 595.261 835.092C595.852 834.144 595.854 834.203 596.614 833.371C606.373 821.786 598.796 811.18 586.82 806.092C590.911 804.901 594.799 803.501 598.804 802.053C627.055 791.901 655.657 782.744 684.295 773.753C695.174 770.338 706.304 765.932 717.238 762.965C734.626 768.633 759.591 778.367 775.502 787.114C773.181 793.068 770.85 799.066 768.41 804.973C756.602 833.552 739.518 859.733 726.561 887.665C723.845 893.645 721.451 899.767 719.388 906.003C718.137 909.755 716.311 917.798 713.278 920.035C713.916 930.761 710.387 924.571 706.748 925.358L706.868 925.847C708.52 926.434 709.671 926.623 710.746 927.974C711.151 931.618 703.716 953.663 702.12 958.089C674.849 950.69 627.967 920.862 608.249 900.903C608.692 894.098 611.021 883.193 612.395 876.444C607.267 881.359 602.817 885.02 596.881 888.894C586.999 880.653 550.768 834.113 546.65 819.046C546.461 814.411 554.301 807.534 556.887 805.035C608.156 755.557 682.181 743.101 732.542 691.597C782.556 640.449 795.303 559.001 787.037 490.361C773.627 379.009 732.392 267.856 635.732 202.751C635.589 202.603 635.445 202.454 635.301 202.306C589.1 171.962 542.136 153.348 486.262 164.854C417.821 178.948 348.864 236.98 312.369 295.439C261.923 376.245 236.778 498.973 254.729 592.947C264.765 645.485 294.321 692.785 339.794 720.848C362.277 735.002 384.855 746.798 408.43 759.093C431.145 770.94 471.342 793.191 485.829 814.98L485.405 815.523C480.682 816.528 476.062 809.963 469.731 808.56L469.539 808.977Z"/><defs><linearGradient id="gradient_15" gradientUnits="userSpaceOnUse" x1="224.79526" y1="578.76019" x2="676.36768" y2="407.70856"><stop offset="0" stop-color="#A6332E"/><stop offset="1" stop-color="#CA4C4A"/></linearGradient></defs><path fill="url(#gradient_15)" transform="matrix(0.195312 0 0 0.195312 0.000488281 0)" d="M469.731 808.56L469.077 806.782C467.597 805.673 466.299 804.834 465.721 803.169C468.012 803.839 471.829 806.409 474.011 807.755L474.144 807.35C473.654 806.676 473.015 805.988 472.186 805.82C471.033 805.588 469.86 803.584 468.759 802.313C467.085 801.755 466.17 802.173 464.411 802.567L463.681 802.736C444.227 792.694 424.309 782.989 404.108 774.506C350.222 751.878 301.838 737.26 267.796 685.421C258.42 671.142 252.711 654.849 248.108 638.502C241.187 613.928 237.274 585.019 234.287 559.588C232.568 544.951 230.775 530.825 230.623 516.048C230.591 512.902 230.139 509.237 230.831 506.173C231.926 501.318 231.991 495.765 232.588 490.773C233.995 479.006 235.435 467.356 237.624 455.705C240.322 441.347 243.794 427.045 247.25 412.844C250.004 401.529 252.615 390.048 256.279 378.988C281.592 302.561 328.007 232.784 395.146 187.024C421.584 169.004 450.048 154.617 481.251 146.992C487.261 145.523 493.453 143.985 499.602 143.256C518.92 140.966 538.486 142.461 557.447 146.499C565.236 148.158 573.782 150.858 581.195 153.796C585.865 155.646 592.769 159.643 597.401 160.361C597.714 160.409 598.03 160.444 598.344 160.486C598.496 163.605 599.122 166.934 602.262 168.444L603.087 168.048C603.565 166.414 603.206 165.748 602.751 164.105C604.999 163.619 615.386 169.203 617.9 170.527L617.697 170.855C613.897 169.33 607.824 166.762 604.429 164.681L603.851 165.175C603.802 166.486 603.864 168.736 603.402 169.812C598.698 170.263 598.858 162.362 597.075 161.45C589.811 157.807 582.008 155.118 574.41 152.238C570.171 150.631 564.658 150.689 560.674 148.177C558.667 146.912 554.437 147.176 552.276 148.006L552.05 148.542C553.67 149.445 553.132 149.147 554.624 149.483C558.081 150.344 559.58 153.739 562.856 155.257C569.628 158.395 579.436 157.37 584.26 163.888C586.395 166.772 585.026 170.204 584.013 173.203C585.131 173.977 585.491 173.754 586.305 174.105C593.824 177.352 632.79 196.846 635.301 202.306C589.1 171.962 542.136 153.348 486.262 164.854C417.821 178.948 348.864 236.98 312.369 295.439C261.923 376.245 236.778 498.973 254.729 592.947C264.765 645.485 294.321 692.785 339.794 720.848C362.277 735.002 384.855 746.798 408.43 759.093C431.145 770.94 471.342 793.191 485.829 814.98L485.405 815.523C480.682 816.528 476.062 809.963 469.731 808.56Z"/><path fill="#82201C" transform="matrix(0.195312 0 0 0.195312 0.000488281 0)" d="M598.344 160.486C598.541 157.917 598.46 155.283 599.365 152.969C601.495 154.771 601.347 161.377 602.751 164.105C603.206 165.748 603.565 166.414 603.087 168.048L602.262 168.444C599.122 166.934 598.496 163.605 598.344 160.486Z"/><path fill="#82201C" transform="matrix(0.195312 0 0 0.195312 0.000488281 0)" d="M595.261 835.092C595.852 834.144 595.854 834.203 596.614 833.371C597.296 834.78 598.359 836.379 598.265 837.729C596.762 837.111 596.309 836.333 595.261 835.092Z"/><path fill="#82201C" transform="matrix(0.195312 0 0 0.195312 0.000488281 0)" d="M217.356 531.353C223.738 531.975 226.602 536.144 223.981 542.501C222.921 545.075 221.276 545.303 218.689 546.114C212.604 547.204 208.383 534.199 217.356 531.353Z"/><path fill="#82201C" transform="matrix(0.195312 0 0 0.195312 0.000488281 0)" d="M755.76 249.391C764.33 249.031 765.606 260.403 758.625 262.057C749.865 262.422 750.934 259.498 750.433 251.661C752.554 250.964 753.732 250.371 755.76 249.391Z"/><path fill="#82201C" transform="matrix(0.195312 0 0 0.195312 0.000488281 0)" d="M750.719 240.988C754.597 240.759 759.221 241.484 758.022 246.555C756.865 248.176 756.022 248.229 754.117 248.861C747.747 250.956 746.837 245.219 750.719 240.988Z"/><path fill="#82201C" transform="matrix(0.195312 0 0 0.195312 0.000488281 0)" d="M657.96 197.017C661.675 194.893 660.337 186.192 663.434 185.561C665.247 188.485 663.193 197.062 661.453 199.979C660.089 200.754 659.074 201.554 657.548 201.563C656.936 199.862 657.492 199.153 657.96 197.017Z"/><defs><linearGradient id="gradient_16" gradientUnits="userSpaceOnUse" x1="336.81241" y1="958.78851" x2="285.6796" y2="771.12518"><stop offset="0" stop-color="#82251F"/><stop offset="1" stop-color="#BD413C"/></linearGradient></defs><path fill="url(#gradient_16)" transform="matrix(0.195312 0 0 0.195312 0.000488281 0)" d="M316.852 762.076C324.026 763.699 338.204 769.452 346.19 771.947C380.635 782.423 414.78 793.859 448.586 806.244C444.458 808.991 442.726 809.166 439.51 813.778C436.787 817.656 435.835 822.507 436.891 827.127C438.925 836.106 449.591 841.331 458.199 838.685C462.836 837.269 466.667 833.972 468.757 829.597C472.218 822.314 468.903 817.623 469.5 815.789C472.866 815.693 479.454 817.054 483.027 817.672C479.387 814.116 474.049 811.383 469.539 808.977L469.731 808.56C476.062 809.963 480.682 816.528 485.405 815.523L485.829 814.98C486.823 815.995 487.713 817.77 488.464 819.069C480.072 841.905 433.68 896.59 414.261 911.789C407.39 906.538 402.075 901.092 395.456 895.635C397.562 903.611 400.248 912.897 401.352 920.99C401.05 921.295 400.748 921.6 400.445 921.906C362.453 950.987 315.843 968.603 268.984 976.867C255.929 979.17 243.225 981.196 230.399 981.076C230.319 978.096 230.419 946.328 230.512 946.08C231.34 945.9 231.747 945.827 232.607 945.73L233.323 945.655C230.971 945.423 227.88 945.092 225.593 945.751C226.905 945.819 227.007 945.695 228.197 946.105C227.861 947.63 210.774 980.199 209.405 981.993C191.675 982.399 166.994 980.529 151.116 973.083C155.884 956.056 166.873 948.898 173.404 933.708C191.938 890.602 197.77 838.323 232.764 804.002C253.438 783.724 289.664 770.882 316.852 762.076Z"/><path fill="#82201C" transform="matrix(0.195312 0 0 0.195312 0.000488281 0)" d="M361.828 899.035L362.099 899.181L361.929 899.976C348.285 910.577 320.582 927.781 303.709 930.083L303.328 929.648C303.892 928.535 311.65 925.084 313.404 924.302C330.184 916.825 345.568 907.551 361.828 899.035Z"/><defs><linearGradient id="gradient_17" gradientUnits="userSpaceOnUse" x1="811.8017" y1="982.54901" x2="827.62958" y2="827.33893"><stop offset="0" stop-color="#842520"/><stop offset="1" stop-color="#AC3B34"/></linearGradient></defs><path fill="url(#gradient_17)" transform="matrix(0.195312 0 0 0.195312 0.000488281 0)" d="M814.542 824.372C817.89 828.038 819.972 832.657 822.33 836.949C832.776 855.959 838.008 875.863 844.895 896.265C848.795 907.82 853.558 921.549 858.489 932.725C865.717 949.106 876.998 955.43 880.527 974.436C855.1 982.179 835.194 982.765 808.826 981.856C805.271 972.537 802.671 965.298 798.046 956.469C796.894 954.284 793.268 948.102 793.454 945.973L795.932 946.041L795.851 945.312C794.866 944.746 789.29 944.47 788.193 944.992C787.922 956.589 788.075 968.827 787.846 980.623C778.054 980.479 754.802 977.555 745.51 974.69C751.315 956.867 757.86 938.586 765.44 921.465C777.577 894.057 793.367 868.412 806.565 841.534C809.342 835.88 811.75 830.045 814.542 824.372Z"/><path fill="#82201C" transform="matrix(0.195312 0 0 0.195312 0.000488281 0)" d="M450.865 811.972C462.212 811.24 464.013 816.584 463.516 826.365C461.33 830.35 460.267 831.579 456.062 833.051C453.639 833.541 451.686 833.723 449.43 832.645C446.65 831.296 444.549 828.858 443.626 825.909C441.702 819.898 444.442 813.451 450.865 811.972Z"/><path fill="#82201C" transform="matrix(0.195312 0 0 0.195312 0.000488281 0)" d="M581.774 811.914C586.784 811.98 591.643 812.977 593.756 818.091C594.894 820.793 594.879 823.843 593.714 826.534C592.146 830.172 589.837 831.613 586.362 833.01C574.482 834.003 571.719 825.458 574.944 815.566C577.482 813.673 578.823 812.928 581.774 811.914Z"/><path fill="#E4CB98" transform="matrix(0.195312 0 0 0.195312 0.000488281 0)" d="M414.157 755.575C421.97 753.167 428.575 751.522 436.558 749.584C436.974 758.121 439.537 760.991 444.741 767.252C447.192 770.2 448.792 772.972 451.595 775.822L450.966 776.61C439.252 768.667 426.947 761.635 414.157 755.575Z"/><path fill="#E4CB98" transform="matrix(0.195312 0 0 0.195312 0.000488281 0)" d="M603.614 749.424C609.159 751.644 615.157 753.191 620.949 754.637C616.252 756.917 611.21 759.632 606.542 762.041L594.773 768.144C601.261 761.176 603.268 759.141 603.614 749.424Z"/><path fill="#814231" transform="matrix(0.195312 0 0 0.195312 0.000488281 0)" d="M516.747 796.53C525.508 795.908 532.72 801.863 523.613 807.431C515.229 807.966 508.65 804.226 516.747 796.53Z"/><path fill="#8A5832" transform="matrix(0.195312 0 0 0.195312 0.000488281 0)" d="M512.569 809.244C514.531 809.623 515.688 810.547 517.41 811.62C514.339 817.232 512.084 820.741 507.913 825.708L506.414 826.685L505.454 826.479L504.89 825.323C505.09 819.612 508.502 813.224 512.569 809.244Z"/><path fill="#814231" transform="matrix(0.195312 0 0 0.195312 0.000488281 0)" d="M484.319 784.901C491.991 787.341 495.297 794.502 498.43 801.243C494.426 799.902 491.317 798.64 487.661 796.565C485.444 792.535 484.428 789.534 484.319 784.901Z"/><path fill="#814231" transform="matrix(0.195312 0 0 0.195312 0.000488281 0)" d="M555.567 784.914L556.136 785.527C556.717 793.12 549.898 799.042 543.258 801.251L542.719 801.228C542.719 800.491 542.624 800.432 542.889 799.86C546.257 792.589 548.162 788.38 555.567 784.914Z"/><path fill="#8A5832" transform="matrix(0.195312 0 0 0.195312 0.000488281 0)" d="M527.439 809.46C530.956 811.498 540.452 823.954 534.53 826.713C531.984 824.511 525.495 815.217 524.124 812.183C524.637 810.82 525.889 810.455 527.439 809.46Z"/><path fill="#8A5832" transform="matrix(0.195312 0 0 0.195312 0.000488281 0)" d="M470.84 776.692C478.883 778.221 481.017 786.49 482.091 793.41C474.307 791.033 471.32 784.237 470.84 776.692Z"/><path fill="#814231" transform="matrix(0.195312 0 0 0.195312 0.000488281 0)" d="M568.691 776.441C570.481 777.78 568.635 783.692 568.18 785.707C565.276 788.666 562.459 790.581 559.084 792.945L558.646 792.445C558.612 784.894 562.845 780.348 568.691 776.441Z"/><path fill="#814231" transform="matrix(0.195312 0 0 0.195312 0.000488281 0)" d="M449.941 755.775C454.711 759.013 458.1 770.094 456.025 775.288C448.767 769.655 448.465 764.147 449.941 755.775Z"/><path fill="#8A5832" transform="matrix(0.195312 0 0 0.195312 0.000488281 0)" d="M503.253 802.02C501.43 799.872 497.058 795.082 500.106 792.869C504.219 792.56 508.57 795.971 510.055 799.701C510.009 801.266 510.073 801.878 509.564 803.391C507.256 804.978 505.303 803.892 503.253 802.02Z"/><path fill="#814231" transform="matrix(0.195312 0 0 0.195312 0.000488281 0)" d="M510.055 799.701C510.009 801.266 510.073 801.878 509.564 803.391C507.256 804.978 505.303 803.892 503.253 802.02C504.854 801.264 505.263 800.148 507.49 800.529C508.724 800.74 508.962 800.297 510.055 799.701Z"/><path fill="#8A5832" transform="matrix(0.195312 0 0 0.195312 0.000488281 0)" d="M541.071 792.461L541.509 792.731C542.075 794.577 539.056 800.077 538.113 801.937C535.388 803.804 534.671 804.274 531.626 805.623L530.733 804.786C528.719 797.498 535.425 794.834 541.071 792.461Z"/><path fill="#814231" transform="matrix(0.195312 0 0 0.195312 0.000488281 0)" d="M580.083 766.869L580.664 767.166C581.435 769.641 580.286 774.836 579.76 777.475C577.759 779.626 575.192 781.59 572.903 783.473L572.337 783.289C570.49 778.339 576.18 769.839 580.083 766.869Z"/><path fill="#8A5832" transform="matrix(0.195312 0 0 0.195312 0.000488281 0)" d="M589.357 756.226C592.574 758.717 591.038 766.745 589.791 770.108L585.798 773.664L584.891 773.948C582.898 770.087 586.907 759.787 589.357 756.226Z"/><path fill="#8A5832" transform="matrix(0.195312 0 0 0.195312 0.000488281 0)" d="M441.408 745.414C447.725 749.121 446.792 756.481 445.009 762.77C440.611 758.46 438.741 751.094 441.408 745.414Z"/><path fill="#815630" transform="matrix(0.195312 0 0 0.195312 0.000488281 0)" d="M594.774 751.064C595.64 749.292 596.035 747.877 597.698 746.945C600.935 747.426 600.131 751.709 599.667 754.118L599.044 755.754C597.812 759.014 597.602 759.335 595.643 762.119C595.219 758.205 594.907 754.988 594.774 751.064Z"/><path fill="#8A5832" transform="matrix(0.195312 0 0 0.195312 0.000488281 0)" d="M594.774 751.064C595.64 749.292 596.035 747.877 597.698 746.945C600.935 747.426 600.131 751.709 599.667 754.118C599.509 752.109 599.856 751.293 598.77 750.243C597.436 750.507 596.104 750.781 594.774 751.064Z"/><path fill="#C3A676" transform="matrix(0.195312 0 0 0.195312 0.000488281 0)" d="M451.595 775.822C454.252 777.509 455.976 777.859 458.078 780.26L458.02 780.64L457.602 780.583L457.952 780.244L457.2 780.451L457.564 779.876L456.604 780.213C454.399 779.015 452.993 778.028 450.966 776.61L451.595 775.822Z"/></svg>