<?xml version="1.0" encoding="utf-8" ?><svg xmlns="http://www.w3.org/2000/svg" xmlns:xlink="http://www.w3.org/1999/xlink" width="200" height="201" viewBox="0 0 200 201"><defs><linearGradient id="gradient_0" gradientUnits="userSpaceOnUse" x1="789.36176" y1="542.60162" x2="511.04556" y2="223.91862"><stop offset="0" stop-color="#266023"/><stop offset="1" stop-color="#539636"/></linearGradient></defs><path fill="url(#gradient_0)" transform="matrix(0.215517 0 0 0.215665 -0.000488281 0)" d="M226.336 189.637C235.61 140.341 266.746 91.4287 305.261 59.6218C354.769 18.7378 416.376 2.36294 480.023 7.97917C542.24 14.4591 599.3 45.4919 638.549 94.1953C660.281 121.516 676.575 154.409 683.375 188.76C740.249 201.718 789.97 233.242 821.299 283.148C850.653 329.683 860.524 385.895 848.782 439.646C836.212 494.641 800.324 542.759 752.607 572.52C729.331 587.101 703.289 596.71 676.119 600.742C668.362 601.829 660.67 601.839 653.244 602.787C644.665 601.15 630.454 603.844 620.771 602.538C611.328 601.263 602.549 600.15 593.215 597.914C593.077 597.9 592.939 597.885 592.801 597.87C582.82 594.82 574.392 591.109 565.267 586.26C547.163 614.581 520.042 635.975 488.283 646.988C462.764 655.837 435.324 657.609 408.879 652.115C370.193 644.077 336.262 621.055 314.502 588.078L300.878 590.465C290.797 591.786 280.636 592.396 270.469 592.29C264.81 592.22 259.316 591.729 253.711 591.6C250.839 591.07 245.227 591.108 242.065 590.968C236.623 590.726 231.199 590.186 225.816 589.351C195.934 584.898 163.869 570.384 139.612 552.474C95.5409 520.409 66.0959 472.078 57.8152 418.212C50.0522 366.688 62.0303 311.213 93.2139 269.085C125.258 225.958 173.162 197.368 226.336 189.637Z"/><defs><linearGradient id="gradient_1" gradientUnits="userSpaceOnUse" x1="378.81723" y1="528.88751" x2="121.74964" y2="238.86633"><stop offset="0" stop-color="#4A9335"/><stop offset="1" stop-color="#97CD4B"/></linearGradient></defs><path fill="url(#gradient_1)" transform="matrix(0.215517 0 0 0.215665 -0.000488281 0)" d="M226.336 189.637C270.359 183.006 305.877 190.763 345.44 210.062C352.43 214.454 360.308 218.536 366.843 223.312C392.067 241.748 411.653 262.771 424.697 291.385C429.079 300.996 433.046 308.854 435.248 319.688C435.644 321.639 436.605 327.231 437.336 328.768C436.396 332.411 435.211 336.526 434.795 340.223C434.268 343.603 433.34 348.595 433.183 351.883C432.335 353.089 432.315 353.971 432.091 355.379C431.086 356.45 431.021 356.305 429.527 356.575C376.38 360.054 329.097 391.541 305.4 439.235C281.703 486.929 285.17 543.626 314.502 588.078L300.878 590.465C290.797 591.786 280.636 592.396 270.469 592.29C264.81 592.22 259.316 591.729 253.711 591.6C250.839 591.07 245.227 591.108 242.065 590.968C236.623 590.726 231.199 590.186 225.816 589.351C195.934 584.898 163.869 570.384 139.612 552.474C95.5409 520.409 66.0959 472.078 57.8152 418.212C50.0522 366.688 62.0303 311.213 93.2139 269.085C125.258 225.958 173.162 197.368 226.336 189.637Z"/><defs><linearGradient id="gradient_2" gradientUnits="userSpaceOnUse" x1="568.32458" y1="264.14865" x2="421.56143" y2="46.98175"><stop offset="0" stop-color="#7CB842"/><stop offset="1" stop-color="#B6DC51"/></linearGradient></defs><path fill="url(#gradient_2)" transform="matrix(0.215517 0 0 0.215665 -0.000488281 0)" d="M226.336 189.637C235.61 140.341 266.746 91.4287 305.261 59.6218C354.769 18.7378 416.376 2.36294 480.023 7.97917C542.24 14.4591 599.3 45.4919 638.549 94.1953C660.281 121.516 676.575 154.409 683.375 188.76C664.481 185.035 648.385 183.224 629.055 183.589C545.47 185.164 465.185 241.486 439.589 321.774C438.858 324.072 437.882 326.422 437.336 328.768C436.605 327.231 435.644 321.639 435.248 319.688C433.046 308.854 429.079 300.996 424.697 291.385C411.653 262.771 392.067 241.748 366.843 223.312C360.308 218.536 352.43 214.454 345.44 210.062C305.877 190.763 270.359 183.006 226.336 189.637Z"/><path fill="#D4E654" transform="matrix(0.215517 0 0 0.215665 -0.000488281 0)" d="M226.336 189.637C235.61 140.341 266.746 91.4287 305.261 59.6218C354.769 18.7378 416.376 2.36294 480.023 7.97917C478.361 10.6552 465.509 16.612 461.251 19.5061C452.151 25.615 443.602 32.5079 435.702 40.106C399.527 75.5331 372.512 119.227 356.989 167.42C354.023 176.454 351.767 185.628 349.319 194.78C348.486 197.896 346.439 207.64 345.44 210.062C305.877 190.763 270.359 183.006 226.336 189.637Z"/><defs><linearGradient id="gradient_3" gradientUnits="userSpaceOnUse" x1="545.19971" y1="610.78284" x2="332.72018" y2="400.85052"><stop offset="0" stop-color="#235822"/><stop offset="1" stop-color="#326F27"/></linearGradient></defs><path fill="url(#gradient_3)" transform="matrix(0.215517 0 0 0.215665 -0.000488281 0)" d="M429.527 356.575C485.784 352.892 539.328 381.165 568.009 429.696C596.69 478.227 595.63 538.763 565.267 586.26C547.163 614.581 520.042 635.975 488.283 646.988C462.764 655.837 435.324 657.609 408.879 652.115C370.193 644.077 336.262 621.055 314.502 588.078C285.17 543.626 281.703 486.929 305.4 439.235C329.097 391.541 376.38 360.054 429.527 356.575Z"/><path fill="#3F7F2B" transform="matrix(0.215517 0 0 0.215665 -0.000488281 0)" d="M434.795 340.223C436.031 342.775 434.915 348.879 434.035 351.534L433.183 351.883C433.34 348.595 434.268 343.603 434.795 340.223Z"/><defs><linearGradient id="gradient_4" gradientUnits="userSpaceOnUse" x1="661.36127" y1="621.6875" x2="272.40405" y2="840.60999"><stop offset="0" stop-color="#3C2B07"/><stop offset="1" stop-color="#5A300D"/></linearGradient></defs><path fill="url(#gradient_4)" transform="matrix(0.215517 0 0 0.215665 -0.000488281 0)" d="M253.711 591.6C259.316 591.729 264.81 592.22 270.469 592.29C280.636 592.396 290.797 591.786 300.878 590.465C307.903 596.836 315.739 605.199 322.568 611.994C332.516 621.746 342.549 631.411 352.665 640.987C365.889 653.53 379.47 665.918 392.423 678.71C396.679 682.914 403.551 689.203 407.254 693.41C407.507 686.257 407.85 679.116 408.125 671.964C408.37 665.588 408.24 658.456 408.879 652.115C435.324 657.609 462.764 655.837 488.283 646.988C488.252 662.827 487.944 678.762 489.766 694.526C498.846 688.847 517.19 670.164 525.58 662.018L566.914 622.367C575.372 614.274 584.063 605.584 592.801 597.87C592.939 597.885 593.077 597.9 593.215 597.914C602.549 600.15 611.328 601.263 620.771 602.538C630.454 603.844 644.665 601.15 653.244 602.787C638.527 616.176 623.808 630.637 609.386 644.412L554.645 696.524C542.743 707.887 530.945 719.358 519.253 730.936C512.104 738.028 496.049 751.255 496.24 761.586C496.422 771.372 497.497 783.324 498.747 793.109C502.437 821.981 502.846 853.15 516.009 879.668C520.825 889.34 530.723 897.861 539.825 903.314C551.666 911.404 573.04 915.213 582.165 925.581C571.672 926.468 551.216 925.765 539.939 925.746L456.455 925.633L365.44 925.732C352.378 925.758 331.793 926.477 319.224 925.637L318.891 925.225C321.576 921.227 350.611 909.38 357.231 905.566C363.223 902.084 368.662 897.729 373.37 892.645C379.247 886.302 385.345 876.664 387.767 868.26C397.553 834.299 398.491 797.607 402.086 762.57C402.532 758.232 402.153 749.72 399.618 746.197C387.411 729.232 372.13 714.089 357.933 698.744C333.727 672.45 309.016 646.626 283.813 621.286C274.541 612.007 263.337 600.294 253.711 591.6Z"/></svg>