<?xml version="1.0" encoding="utf-8" ?><svg xmlns="http://www.w3.org/2000/svg" xmlns:xlink="http://www.w3.org/1999/xlink" width="200" height="194" viewBox="0 0 200 194"><clipPath id="cl_7"><rect x="-0.0002822876" y="7.6293945e-06" width="200" height="194.00003"/></clipPath><g clip-path="url(#cl_7)"><path fill="#66411F" transform="matrix(0.253165 0 0 0.253595 -34.4307 -33.2209)" d="M508.134 380.528C518.177 389.175 532.958 401.13 542.227 410.003L547.021 414.34C551.661 417.981 555.735 421.679 560.147 425.571C563.224 431.137 567.912 438.012 571.373 443.51C579.603 456.584 587.933 469.587 594.956 483.385C596.352 485.902 597.721 488.435 599.06 490.983C611.929 515.35 623.229 540.514 632.889 566.321C633.728 568.666 634.83 572.044 635.768 574.26C645.629 603.437 654.867 632.636 660.404 663.024L662.346 672.854C668.484 709.579 671.953 737.825 672.062 775.169L672.091 786.309C672.091 804.885 671.274 823.451 669.64 841.955C668.49 854.203 666.704 866.267 665.181 878.463C651.494 878.062 635.867 878.456 622.05 878.468L539.639 878.451C550.921 853.446 559.447 826.609 566.193 800.015C594.541 688.264 582.54 579.88 539.159 473.974C528.062 446.438 514.949 419.758 499.927 394.151C501.515 390.708 506.052 383.689 508.134 380.528Z"/><path fill="#442207" transform="matrix(0.253165 0 0 0.253595 -34.4307 -33.2209)" d="M592.449 782.206C598.002 782.337 603.663 782.934 609.479 783.006C631.741 783.285 650.621 780.974 672.062 775.169L672.091 786.309C665.735 786.583 658.689 787.852 651.936 788.095C633.284 788.765 610.473 786.948 592.449 782.206Z"/><path fill="#442207" transform="matrix(0.253165 0 0 0.253595 -34.4307 -33.2209)" d="M660.404 663.024L662.346 672.854C643.94 678.755 620.423 680.97 600.848 678.991C599.876 678.893 600.883 678.672 599.946 678.944C618.106 676.677 644.364 672.115 660.404 663.024Z"/><path fill="#442207" transform="matrix(0.253165 0 0 0.253595 -34.4307 -33.2209)" d="M632.889 566.321C633.728 568.666 634.83 572.044 635.768 574.26C620.141 581.18 606.954 584.959 589.655 585.107C608.43 579.865 616.45 575.55 632.889 566.321Z"/><path fill="#442207" transform="matrix(0.253165 0 0 0.253595 -34.4307 -33.2209)" d="M594.956 483.385C596.352 485.902 597.721 488.435 599.06 490.983C585.909 498.487 577.51 500.856 562.984 503.568C575.287 498.451 585.328 492.742 594.956 483.385Z"/><path fill="#442207" transform="matrix(0.253165 0 0 0.253595 -34.4307 -33.2209)" d="M542.227 410.003L547.021 414.34C543.606 415.654 539.991 417.714 536.466 419.132C532.244 420.831 528.527 421.817 524.159 423.005C531.903 418.985 535.938 415.994 542.227 410.003Z"/><path fill="#5D9836" transform="matrix(0.253165 0 0 0.253595 -34.4307 -33.2209)" d="M509.32 287.546C511.384 281.82 513.358 274.75 515.68 269.335C531.854 231.628 558.549 198.034 596.193 180.243C631.035 163.355 671.188 161.119 707.69 174.034C712.89 175.907 719.085 178.634 723.892 181.43C705.055 198.448 686.328 215.589 667.713 232.851C662.575 237.569 656.704 243.468 651.585 247.929C639.153 244.494 621.599 241.502 610.432 237.927C617.992 246.731 625.603 255.805 633.242 264.511C620.699 276.202 600.475 293.697 589.467 305.759L530.104 360.365C526.594 362.405 523.616 364.611 520.443 367.105C515.728 370.812 513.412 371.824 512.003 377.856C511.076 378.452 508.77 379.832 508.134 380.528C506.052 383.689 501.515 390.708 499.927 394.151C482.295 422.07 466.961 451.568 450.04 479.924C444.874 488.58 439.341 499.427 433.861 507.643C426.204 503.846 410.166 495.278 403.07 490.778C409.779 503.112 416.209 515.596 422.355 528.221C418.193 536.608 412.351 546.412 407.658 554.757L384.768 595.442C381.447 601.253 377.168 608.199 374.12 614.037C349.283 582.024 338.17 544.687 343.228 504.239C347.686 468.587 363.37 442.619 387.569 417.264C391.202 413.006 400.595 405.464 405.478 401.915C434.029 381.164 461.321 370.377 496.026 365.865C497.797 365.876 501.632 365.532 503.527 365.414C509.787 345.219 510.263 323.231 509.407 302.275C509.212 297.508 508.923 292.267 509.32 287.546Z"/><path fill="#387C2D" transform="matrix(0.253165 0 0 0.253595 -34.4307 -33.2209)" d="M530.104 360.365C532.639 361.413 545.691 359.554 549.535 359.453C561.826 359.173 574.118 359.975 586.269 361.851C606.97 365.079 627.044 371.499 645.776 380.883C650.747 383.398 656.197 387.527 661.094 389.769L661.437 390.073C664.61 392.845 668.335 395.481 671.699 398.072C719.79 435.113 737.988 503.746 718.637 560.72C693.057 541.033 668.17 516.642 642.971 496.76C644.656 482.935 646.502 468.925 648.046 455.101C640.558 462.519 632.684 472.661 625.111 480.705C603.055 462.935 581.991 443.298 560.147 425.571C555.735 421.679 551.661 417.981 547.021 414.34L542.227 410.003C532.958 401.13 518.177 389.175 508.134 380.528C508.77 379.832 511.076 378.452 512.003 377.856C513.412 371.824 515.728 370.812 520.443 367.105C523.616 364.611 526.594 362.405 530.104 360.365Z"/><path fill="#AFDF53" transform="matrix(0.253165 0 0 0.253595 -34.4307 -33.2209)" d="M346.22 334.057C354.35 331.914 367.411 330.46 375.815 330.034C412.607 327.84 449.222 336.625 481.014 355.273C484.527 357.324 493.709 362.85 496.026 365.865C461.321 370.377 434.029 381.164 405.478 401.915C400.595 405.464 391.202 413.006 387.569 417.264C373.052 422.447 359.093 428.123 344.356 433.012C341.26 424.222 334.996 407.266 332.969 398.791C329.259 412.768 325.642 426.77 322.118 440.795C316.9 443.321 301.325 448.34 294.877 450.641L254.275 465.502C245.969 468.53 237.015 471.476 228.885 474.802C228.957 457.848 235.041 436.445 241.424 420.834C257.782 380.823 293.44 350.05 334.556 337.56C338.407 336.39 342.532 335.675 346.22 334.057Z"/><path fill="#295F23" transform="matrix(0.253165 0 0 0.253595 -34.4307 -33.2209)" d="M589.467 305.759C633.566 291.853 677.59 288.932 720.205 311.105C755.217 329.391 781.538 360.828 793.386 398.509C794.413 401.782 795.185 404.912 795.994 408.234C763.443 403.412 730.856 398.842 698.234 394.524C692.3 382.311 685.64 369.385 680.077 357.111C678.189 367.821 675.867 380.764 674.541 391.532C670.022 391.005 665.587 390.516 661.094 389.769C656.197 387.527 650.747 383.398 645.776 380.883C627.044 371.499 606.97 365.079 586.269 361.851C574.118 359.975 561.826 359.173 549.535 359.453C545.691 359.554 532.639 361.413 530.104 360.365L589.467 305.759Z"/><path fill="#77AC3B" transform="matrix(0.253165 0 0 0.253595 -34.4307 -33.2209)" d="M308.948 161.761C373.533 136.044 449.102 165.134 484.392 223.414C497.233 244.62 503.883 263.466 509.32 287.546C508.923 292.267 509.212 297.508 509.407 302.275C510.263 323.231 509.787 345.219 503.527 365.414C502.296 363.526 500.165 358.442 499.101 356.194C495.901 349.431 492.89 342.55 489.039 336.109C468.006 300.17 435.313 272.506 396.389 257.71C395.367 255.553 392.581 253.433 390.939 251.383C399.051 242.935 408.354 235.564 416.559 227.377C404.177 230.203 387.256 230.769 374.468 233.222C363.211 222.212 350.206 206.851 339.102 194.984C331.059 186.389 315.906 170.682 308.948 161.761Z"/><path fill="#9BCB46" transform="matrix(0.253165 0 0 0.253595 -34.4307 -33.2209)" d="M223.54 312.729C241.943 289.615 256.856 274.295 284.8 261.615C320.026 245.651 360.133 244.247 396.389 257.71C435.313 272.506 468.006 300.17 489.039 336.109C492.89 342.55 495.901 349.431 499.101 356.194C500.165 358.442 502.296 363.526 503.527 365.414C501.632 365.532 497.797 365.876 496.026 365.865C493.709 362.85 484.527 357.324 481.014 355.273C449.222 336.625 412.607 327.84 375.815 330.034C367.411 330.46 354.35 331.914 346.22 334.057C346.77 328.609 350.417 309.677 351.916 304.957C345.702 311.721 328.26 328.113 321.435 334.161C299.352 329.86 277.044 323.939 255.003 319.209C245.358 317.14 233.22 313.852 223.54 312.729Z"/></g></svg>