<?xml version="1.0" encoding="utf-8" ?><svg xmlns="http://www.w3.org/2000/svg" xmlns:xlink="http://www.w3.org/1999/xlink" width="200" height="212" viewBox="0 0 200 212"><defs><linearGradient id="gradient_0" gradientUnits="userSpaceOnUse" x1="652.19562" y1="337.06686" x2="379.71835" y2="101.97791"><stop offset="0" stop-color="#488733"/><stop offset="1" stop-color="#8EC347"/></linearGradient></defs><path fill="url(#gradient_0)" transform="scale(0.217865 0.218107)" d="M449.51 18.2105C453.706 18.2596 456.474 18.754 459.475 22.0701C462.974 25.9361 466.431 30.3314 469.757 34.3808L487.991 56.414L550.927 132.305L639.505 238.743L663.576 267.483C668.59 273.399 673.667 279.185 678.52 285.35C682.037 289.819 683.357 291.556 683.518 297.555C683.69 303.932 678.589 310.931 672.045 311.847C663.395 313.058 653.264 312.05 644.473 312.401C632.704 312.116 618.827 312.886 607.324 312.246C604.521 311.909 594.552 312.156 591.374 312.162L556.855 312.213L450.408 312.203C442.246 312.673 431.492 312.345 423.098 312.346L372.595 312.344L323.867 312.345C315.631 312.35 304.687 312.68 296.774 312.199L293.909 312.259C273.611 312.557 252.906 312.485 232.615 312.191C226.288 312.099 220.036 308.273 218.159 302.086C217.278 299.183 217.111 293.414 218.766 290.568C225.743 280.734 234.167 271.493 241.975 262.295C257.347 244.221 272.619 226.061 287.788 207.816L390.435 84.488L423.892 44.0488C429.735 36.9887 435.62 29.8709 441.547 22.8815C443.922 20.0801 446.063 19.1398 449.51 18.2105Z"/><defs><linearGradient id="gradient_1" gradientUnits="userSpaceOnUse" x1="475.83914" y1="279.16071" x2="329.36639" y2="157.54967"><stop offset="0" stop-color="#81B642"/><stop offset="1" stop-color="#A7D74F"/></linearGradient></defs><path fill="url(#gradient_1)" transform="scale(0.217865 0.218107)" d="M293.909 312.259C273.611 312.557 252.906 312.485 232.615 312.191C226.288 312.099 220.036 308.273 218.159 302.086C217.278 299.183 217.111 293.414 218.766 290.568C225.743 280.734 234.167 271.493 241.975 262.295C257.347 244.221 272.619 226.061 287.788 207.816L390.435 84.488L423.892 44.0488C429.735 36.9887 435.62 29.8709 441.547 22.8815C443.922 20.0801 446.063 19.1398 449.51 18.2105C451.654 23.8369 450.588 105.369 450.581 118.39L450.439 311.831C437.012 311.935 298.95 311.276 296.774 312.199L293.909 312.259Z"/><path fill="#265E23" transform="scale(0.217865 0.218107)" d="M450.662 517.269L599.248 517.223L642.9 517.195C645.937 517.192 659.77 516.928 661.745 517.168L661.648 517.833C695.214 559.458 729.001 600.904 763.01 642.168L791.231 676.654C800.088 687.369 812.039 696.758 806.76 711.778C804.188 719.097 797.445 723.532 789.687 724.196C778.147 724.583 766.353 724.33 754.777 724.331L683.246 724.346L558.484 724.36C537.818 724.363 515.134 724.845 494.604 724.328C481.24 723.748 463.914 724.01 450.405 724.174L448.784 724.08L450 723.686C451.106 722.193 450.684 717.022 450.679 714.847C450.66 705.464 450.643 696.081 450.631 686.698L450.615 561.577L450.516 532.747C450.502 528.584 450.261 521.229 450.662 517.269Z"/><defs><linearGradient id="gradient_2" gradientUnits="userSpaceOnUse" x1="440.14093" y1="735.9917" x2="192.6868" y2="559.94427"><stop offset="0" stop-color="#2D6B29"/><stop offset="1" stop-color="#448330"/></linearGradient></defs><path fill="url(#gradient_2)" transform="scale(0.217865 0.218107)" d="M241.331 517.246C257.926 516.481 279.529 517.162 296.635 517.171L404.922 517.216C418.423 517.22 437.19 517.799 450.341 517.156L450.662 517.269C450.261 521.229 450.502 528.584 450.516 532.747L450.615 561.577L450.631 686.698C450.643 696.081 450.66 705.464 450.679 714.847C450.684 717.022 451.106 722.193 450 723.686L448.784 724.08C437.042 724.312 425.3 723.982 413.559 724.181C411.477 724.216 409.377 724.188 407.312 724.472C383.578 723.57 355.096 724.305 331.077 724.309L186.674 724.289L137.613 724.316C128.656 724.337 119.924 724.431 110.84 724.172C98.2952 723.813 91.6462 711.87 94.3382 700.332C94.7497 698.568 95.7003 695.316 96.7292 693.886C102.022 686.533 108.118 679.653 113.898 672.659L147.41 631.867L202.995 563.948C215.418 548.663 228.496 532.083 241.331 517.246Z"/><defs><linearGradient id="gradient_3" gradientUnits="userSpaceOnUse" x1="725.48755" y1="553.60254" x2="429.0199" y2="343.70874"><stop offset="0" stop-color="#296527"/><stop offset="1" stop-color="#428230"/></linearGradient></defs><path fill="url(#gradient_3)" transform="scale(0.217865 0.218107)" d="M450.408 312.203L556.855 312.213L591.374 312.162C594.552 312.156 604.521 311.909 607.324 312.246C619.393 325.313 632.848 342.294 644.46 356.225L708.143 432.581L741.643 472.643C747.181 479.222 752.865 485.816 758.071 492.632C759.449 495.35 760.697 499.824 760.356 502.796C758.551 518.508 744.907 517.427 732.97 517.287C709.273 517.008 685.417 517.717 661.745 517.168C659.77 516.928 645.937 517.192 642.9 517.195L599.248 517.223L450.662 517.269L450.341 517.156C450.73 515.143 450.54 503.172 450.532 500.229L450.484 462.458L450.408 312.203Z"/><defs><linearGradient id="gradient_4" gradientUnits="userSpaceOnUse" x1="454.99371" y1="506.79233" x2="221.59798" y2="366.21988"><stop offset="0" stop-color="#488732"/><stop offset="1" stop-color="#70AA3F"/></linearGradient></defs><path fill="url(#gradient_4)" transform="scale(0.217865 0.218107)" d="M293.909 312.259L296.774 312.199C304.687 312.68 315.631 312.35 323.867 312.345L372.595 312.344L423.098 312.346C431.492 312.345 442.246 312.673 450.408 312.203L450.484 462.458L450.532 500.229C450.54 503.172 450.73 515.143 450.341 517.156C437.19 517.799 418.423 517.22 404.922 517.216L296.635 517.171C279.529 517.162 257.926 516.481 241.331 517.246L185.345 517.291C175.419 517.294 164.87 517.681 155.021 516.711C142.989 515.526 138.873 500.115 145.684 491.122C151.065 484.017 157.086 477.065 162.841 470.129L197.115 428.848C228.935 390.536 261.444 349.746 293.909 312.259Z"/><path fill="#482307" transform="scale(0.217865 0.218107)" d="M450.405 724.174C463.914 724.01 481.24 723.748 494.604 724.328C494.386 749.496 495.449 774.66 497.788 799.72C501.753 844.522 508.579 892.296 541.778 925.86C551.869 936.064 563.802 944.985 575.672 953.06C578.578 955.037 581.035 955.593 582.619 958.953L582.594 960.258C581.036 961.039 463.182 960.686 450.774 960.68L363.296 960.687C357.603 960.685 321.754 961.316 318.852 959.854L318.653 959.06C320.016 956.348 332.382 948.858 335.849 946.388C344.13 940.515 351.866 933.909 358.963 926.65C370.987 914.657 380.528 900.41 387.038 884.725C404.193 844.087 407.385 769.306 407.312 724.472C409.377 724.188 411.477 724.216 413.559 724.181C425.3 723.982 437.042 724.312 448.784 724.08L450.405 724.174Z"/><path fill="#593410" transform="scale(0.217865 0.218107)" d="M407.312 724.472C409.377 724.188 411.477 724.216 413.559 724.181C425.3 723.982 437.042 724.312 448.784 724.08L450.405 724.174L450.47 882.764L450.468 932.688C450.469 940.534 450.118 953.257 450.774 960.68L363.296 960.687C357.603 960.685 321.754 961.316 318.852 959.854L318.653 959.06C320.016 956.348 332.382 948.858 335.849 946.388C344.13 940.515 351.866 933.909 358.963 926.65C370.987 914.657 380.528 900.41 387.038 884.725C404.193 844.087 407.385 769.306 407.312 724.472Z"/></svg>