<?xml version="1.0" encoding="utf-8" ?><svg xmlns="http://www.w3.org/2000/svg" xmlns:xlink="http://www.w3.org/1999/xlink" width="200" height="193" viewBox="0 0 200 193"><clipPath id="cl_b"><rect x="-4.5776367e-05" y="-6.1035156e-05" width="200.00002" height="193"/></clipPath><g clip-path="url(#cl_b)"><defs><linearGradient id="gradient_0" gradientUnits="userSpaceOnUse" x1="2200.1165" y1="3513.9126" x2="1799.2468" y2="2356.9539"><stop offset="0" stop-color="#453520"/><stop offset="1" stop-color="#988267"/></linearGradient></defs><path fill="url(#gradient_0)" transform="matrix(0.0874508 0 0 0.0877672 -75.9073 -115.94)" d="M1566.64 2520.14L1568.74 2518.43C1586.62 2503.72 1608.93 2478.96 1624.79 2461.34C1740.77 2332.53 1944.84 2302.63 2109.23 2317.63C2147.73 2320.88 2185.86 2327.62 2223.13 2337.79C2304.88 2360.31 2389.3 2399.57 2470.7 2427.82C2547.71 2454.55 2639.46 2495.92 2692.98 2559.01C2767.47 2657.8 2817.73 2778.6 2879.48 2885.72C2909.44 2937.71 2938.96 2995.37 2936.89 3056.87C2936.54 3067.45 2929.99 3087.01 2934.59 3095.81C2962.86 3058.14 3025.06 2978.57 3068.23 2960.98C3075.53 2961.47 3072.49 2960.2 3077.93 2964.17C3079.73 2975.78 3043.05 3022.78 3034.98 3035.36C2999.81 3090.19 2960.41 3145.25 2931.18 3203.53C2924.37 3215.8 2916.89 3227.97 2914.94 3241.97L2916.96 3244.05C2924.3 3240.28 2928.72 3233.78 2934.19 3227.34C2964.63 3195.74 2997.37 3165.1 3036.18 3144.01C3047.48 3137.88 3076.51 3121.09 3088.39 3127.78C3090.86 3138.45 3060.55 3161.95 3052.08 3170.55C3035.94 3186.92 3020.29 3203.77 3005.15 3221.07C2984.37 3244.97 2965.06 3268.73 2946.35 3294.29C2934.23 3310.86 2920.03 3337.35 2907.75 3351.79C2900.81 3354.99 2889.1 3359.3 2881.57 3359.19C2855.49 3358.78 2744.96 3372.05 2731.13 3352.72C2732.53 3345.54 2738.8 3340.33 2744.04 3334.76C2593.57 3375.77 2511.44 3382.56 2357.96 3380.25L2129.03 3376.15C2068.84 3375.66 1992.47 3383.47 1927.66 3385.15C1927.44 3394.71 1926.14 3404.2 1919.46 3411.48C1908.02 3416.25 1894.11 3417.1 1881.73 3417.26C1852.77 3417.64 1814.62 3425.81 1805.66 3388.75C1797.32 3387.03 1730.44 3383.82 1717.38 3382.78C1669.1 3378.92 1618.77 3373.17 1570.72 3370.52C1477.27 3365.38 1393.84 3369.38 1303.63 3337.86C1292.66 3374.8 1253.67 3357.05 1223.69 3362.51C1170.65 3372.18 1147.65 3324.87 1117.7 3288.97C1091.96 3258.22 1064.96 3228.56 1036.76 3200.06C1021.09 3184.51 966.955 3141.14 960.568 3127.7L962.29 3124.02C995.363 3112.29 1105.03 3201.22 1130.55 3226.04L1132.41 3227.87C1143.46 3239.79 1151.99 3248.28 1163.95 3259.26C1158.73 3245.2 1157.06 3240.91 1149.33 3228.09C1101.38 3140.12 1054.24 3052.61 1019.5 2958.28C1014.6 2944.98 999.467 2921.95 1009.42 2909.36L1013.12 2909.37C1062.07 2934.12 1117.74 3095.34 1165.93 3147.73C1167.09 3145.18 1169.22 3106.16 1169.91 3099.48C1173.8 3061.85 1181.63 3027.5 1190.39 2991.46C1223.12 2856.68 1283 2789.79 1380.79 2697.45C1404.28 2675.27 1431.05 2652.86 1453.41 2629.55C1453.87 2629.02 1454.34 2628.49 1454.8 2627.96L1456.07 2629.4C1470.99 2622.52 1488.24 2615.05 1492.58 2597.75L1495.24 2592.43C1501.46 2587.63 1509.38 2584.56 1516.9 2577.81C1532.66 2563.66 1545.96 2546.69 1559.8 2530.69C1565.25 2525.27 1562.12 2524.17 1566.64 2520.14Z"/><path fill="#6E8357" transform="matrix(0.0874508 0 0 0.0877672 -75.9073 -115.94)" d="M2934.59 3095.81C2962.86 3058.14 3025.06 2978.57 3068.23 2960.98C3075.53 2961.47 3072.49 2960.2 3077.93 2964.17C3079.73 2975.78 3043.05 3022.78 3034.98 3035.36C2999.81 3090.19 2960.41 3145.25 2931.18 3203.53C2924.37 3215.8 2916.89 3227.97 2914.94 3241.97L2916.96 3244.05C2924.3 3240.28 2928.72 3233.78 2934.19 3227.34C2964.63 3195.74 2997.37 3165.1 3036.18 3144.01C3047.48 3137.88 3076.51 3121.09 3088.39 3127.78C3090.86 3138.45 3060.55 3161.95 3052.08 3170.55C3035.94 3186.92 3020.29 3203.77 3005.15 3221.07C2984.37 3244.97 2965.06 3268.73 2946.35 3294.29C2934.23 3310.86 2920.03 3337.35 2907.75 3351.79C2900.81 3354.99 2889.1 3359.3 2881.57 3359.19C2855.49 3358.78 2744.96 3372.05 2731.13 3352.72C2732.53 3345.54 2738.8 3340.33 2744.04 3334.76L2762.65 3322.14C2787.3 3239.14 2801.32 3153.4 2827.15 3070.71C2833.01 3051.94 2837.67 2995.36 2861.87 2992.56L2865.39 2995.98C2877.24 3030.84 2839.18 3208.92 2835.91 3256.87L2835.73 3259.68C2858.16 3215.85 2900.28 3128.99 2934.59 3095.81Z"/><path fill="#6E8357" transform="matrix(0.0874508 0 0 0.0877672 -75.9073 -115.94)" d="M1149.33 3228.09C1101.38 3140.12 1054.24 3052.61 1019.5 2958.28C1014.6 2944.98 999.467 2921.95 1009.42 2909.36L1013.12 2909.37C1062.07 2934.12 1117.74 3095.34 1165.93 3147.73C1170.92 3153.11 1184.1 3183.35 1189.46 3192.46C1201.88 3213.53 1216.4 3242.07 1230.42 3261.76C1229.86 3239.8 1222.26 3146.67 1253.33 3145.54C1280.25 3164.2 1269.97 3321.87 1303.63 3337.86C1292.66 3374.8 1253.67 3357.05 1223.69 3362.51C1170.65 3372.18 1147.65 3324.87 1117.7 3288.97C1091.96 3258.22 1064.96 3228.56 1036.76 3200.06C1021.09 3184.51 966.955 3141.14 960.568 3127.7L962.29 3124.02C995.363 3112.29 1105.03 3201.22 1130.55 3226.04L1132.41 3227.87C1143.46 3239.79 1151.99 3248.28 1163.95 3259.26C1158.73 3245.2 1157.06 3240.91 1149.33 3228.09Z"/><defs><linearGradient id="gradient_1" gradientUnits="userSpaceOnUse" x1="1875.0267" y1="3409.657" x2="1847.5277" y2="3146.6653"><stop offset="0" stop-color="#5D7144"/><stop offset="1" stop-color="#728856"/></linearGradient></defs><path fill="url(#gradient_1)" transform="matrix(0.0874508 0 0 0.0877672 -75.9073 -115.94)" d="M1838.96 3341.63C1845.03 3291.21 1851.91 3238.94 1867.14 3190.31C1871.58 3178.74 1876.17 3160.16 1888.07 3154.42C1893.92 3151.61 1887.63 3159.51 1900.9 3162.51C1907.74 3204.38 1865.7 3315.63 1889.1 3350.31C1903.31 3307.42 1934.14 3264.62 1967.53 3234.4C1972.03 3229.58 1972.11 3228.59 1978.56 3227.13C1986.17 3229.58 1987.16 3230.99 1993.53 3236.22C1970.63 3276.71 1930.94 3339.03 1926.46 3383.31L1927.66 3385.15C1927.44 3394.71 1926.14 3404.2 1919.46 3411.48C1908.02 3416.25 1894.11 3417.1 1881.73 3417.26C1852.77 3417.64 1814.62 3425.81 1805.66 3388.75C1813.26 3357.1 1727.99 3200.71 1715.43 3154.35C1765.61 3172.33 1819.75 3292.4 1838.96 3341.63Z"/><path fill="#6E8357" transform="matrix(0.0874508 0 0 0.0877672 -75.9073 -115.94)" d="M1967.53 3234.4C1968.76 3235.66 1972.35 3238.37 1971.42 3240.29C1959.1 3265.63 1912.91 3355.64 1892.98 3369.31C1888.8 3365.31 1889.5 3357.06 1889.1 3350.31C1903.31 3307.42 1934.14 3264.62 1967.53 3234.4Z"/><path fill="#5C4B33" transform="matrix(0.0874508 0 0 0.0877672 -75.9073 -115.94)" d="M2040.79 2632.67C2030.59 2642.07 2010.94 2652.71 2006.61 2658.52C2011.76 2659.72 2010.12 2659.54 2015.25 2659.39L2014.13 2661.54C1972.85 2673.56 1927.91 2686.98 1886.58 2698.69C1877.63 2701.23 1822.59 2690.63 1816.58 2685.57C1816.92 2680.51 1817.38 2680.61 1820.15 2676.21C1813.39 2675.72 1813.86 2675.83 1807.61 2678.64C1803.44 2683.46 1803.94 2681.78 1801.94 2687.33C1775.97 2689.95 1749.82 2692.7 1723.8 2694.68C1704.85 2696.11 1683.94 2694.88 1665.31 2698.32L1663.89 2700.1C1662.16 2702.23 1660.77 2703.77 1658.93 2705.77C1653.56 2704.84 1653.75 2704.6 1649.03 2701.69C1640.21 2707.73 1647.68 2709.96 1639.17 2713.61C1623.39 2700.5 1633.2 2670.64 1622.61 2671.5L1618.89 2674.75C1617.31 2665.47 1617.1 2652.06 1614.58 2644.02C1602.4 2605.06 1562.87 2570.94 1600.05 2534.02C1629.35 2592.17 1645.96 2676.67 1729.76 2646.43C1816.94 2610.25 1826.97 2660.18 1889.6 2655.78C1897.88 2653.43 1895.62 2652.87 1903.13 2654.57L1892.85 2657.05C1909.87 2657.51 1935.79 2667.94 1950.63 2655C1955.17 2651.04 1953.25 2646.33 1952.6 2640.87C1960.3 2640.37 1966.96 2636.18 1973.97 2632.67C1999.86 2624.54 2014.29 2628.67 2040.79 2632.67Z"/><path fill="#75624A" transform="matrix(0.0874508 0 0 0.0877672 -75.9073 -115.94)" d="M1729.76 2646.43C1816.94 2610.25 1826.97 2660.18 1889.6 2655.78C1883.99 2659 1872.47 2664.36 1866.96 2661.77C1817.23 2638.43 1784.93 2641.06 1729.76 2646.43Z"/><path fill="#6E5A42" transform="matrix(0.0874508 0 0 0.0877672 -75.9073 -115.94)" d="M1586.84 3018.98C1581.66 3016.76 1568.37 3016.1 1562.02 3015.47C1568.21 3011.71 1572.75 3015.86 1578.44 3014.28C1624.2 3001.55 1668.52 3011.09 1714.02 3012.16L1713.52 3014.58C1718.72 3017.02 1718.55 3016.29 1723.36 3017.11C1748.41 3021.34 1772.54 3031.55 1797.53 3036.38C1805.16 3037.9 1822.37 3037.4 1825.92 3039.69C1792.65 3043.7 1782.42 3037.99 1751.58 3030.77C1731.49 3026.06 1598.04 3030.17 1586.84 3018.98Z"/><path fill="#75624A" transform="matrix(0.0874508 0 0 0.0877672 -75.9073 -115.94)" d="M1586.84 3018.98C1581.66 3016.76 1568.37 3016.1 1562.02 3015.47C1568.21 3011.71 1572.75 3015.86 1578.44 3014.28C1624.2 3001.55 1668.52 3011.09 1714.02 3012.16L1713.52 3014.58C1664.92 3011.6 1631.59 3019.11 1586.84 3018.98Z"/><path fill="#5C4B33" transform="matrix(0.0874508 0 0 0.0877672 -75.9073 -115.94)" d="M2227.39 2767.76C2225.57 2764.74 2224.7 2762.28 2223.31 2759.03C2224.71 2751.12 2222.91 2754.34 2228.83 2749C2241.64 2745.54 2245.74 2746.55 2258.36 2751.26C2266.21 2760.54 2273.09 2766.69 2262.68 2776.64C2246.67 2781.13 2240.32 2777.76 2227.39 2767.76Z"/><path fill="#6E5A42" transform="matrix(0.0874508 0 0 0.0877672 -75.9073 -115.94)" d="M2258.36 2751.26C2266.21 2760.54 2273.09 2766.69 2262.68 2776.64C2246.67 2781.13 2240.32 2777.76 2227.39 2767.76C2238.75 2769.59 2249.87 2770.14 2261.34 2770.95C2255.84 2766.6 2252.2 2764.12 2247.73 2758.6L2249.23 2754.97L2258.36 2751.26Z"/><path fill="#75624A" transform="matrix(0.0874508 0 0 0.0877672 -75.9073 -115.94)" d="M1952.6 2640.87C1946.96 2637.81 1939.31 2644.66 1924.72 2644.12L1972.58 2624.74L1976.07 2628.32L1974.35 2624.04L1976.82 2627.3L1980.6 2623.09C1982.06 2627.01 1977.87 2622.39 1973.97 2632.67C1966.96 2636.18 1960.3 2640.37 1952.6 2640.87Z"/><path fill="#5C4B33" transform="matrix(0.0874508 0 0 0.0877672 -75.9073 -115.94)" d="M1588.3 2837.23L1593.36 2840.73C1597.62 2848.6 1595.6 2863.44 1595.08 2872.96C1584.88 2866.35 1587.8 2848.14 1588.3 2837.23Z"/><path fill="#6E8357" transform="matrix(0.0874508 0 0 0.0877672 -75.9073 -115.94)" d="M1464.86 2545.46C1444.72 2508.17 1430.09 2484.61 1402.03 2451.61C1391.26 2438.92 1369.54 2415.59 1360.96 2403.39C1367.98 2387.79 1407.61 2418.26 1416.46 2424.93C1447.47 2448.29 1476.19 2476.94 1496.94 2509.9C1503.31 2519.93 1516.98 2543.73 1523.48 2551.52L1527.18 2552.79L1530.55 2551.09L1530.97 2542.26L1535.91 2546.5L1539.78 2545.13C1546.31 2532.84 1545.88 2530.51 1559.8 2530.69C1545.96 2546.69 1532.66 2563.66 1516.9 2577.81C1509.38 2584.56 1501.46 2587.63 1495.24 2592.43C1485.31 2580.51 1473.09 2559.18 1464.86 2545.46Z"/><path fill="#6E8357" transform="matrix(0.0874508 0 0 0.0877672 -75.9073 -115.94)" d="M1523.48 2551.52C1524.89 2544.11 1518.4 2507.04 1517.42 2496.27C1513.42 2451.52 1506.34 2405 1511.6 2360.13C1512.97 2348.5 1517.34 2313.55 1533.06 2316.53C1543.14 2329.6 1546.11 2479.92 1565.85 2518.68C1566.1 2519.17 1566.38 2519.65 1566.64 2520.14C1562.12 2524.17 1565.25 2525.27 1559.8 2530.69C1545.88 2530.51 1546.31 2532.84 1539.78 2545.13L1535.91 2546.5L1530.97 2542.26L1530.55 2551.09L1527.18 2552.79L1523.48 2551.52Z"/><path fill="#6E8357" transform="matrix(0.0874508 0 0 0.0877672 -75.9073 -115.94)" d="M1454.8 2627.96C1440.49 2608.48 1359.2 2553.52 1371.06 2538.14C1395.86 2531.96 1417.65 2551.66 1439.26 2559.83L1441.86 2560.79C1451.87 2568.05 1485.3 2595.71 1492.58 2597.75C1488.24 2615.05 1470.99 2622.52 1456.07 2629.4L1454.8 2627.96Z"/><path fill="#FEFEFC" fill-opacity="0.043137256" transform="matrix(0.0874508 0 0 0.0877672 -75.9073 -115.94)" d="M1464.86 2545.46C1473.09 2559.18 1485.31 2580.51 1495.24 2592.43L1492.58 2597.75C1485.3 2595.71 1451.87 2568.05 1441.86 2560.79C1450.39 2562 1457.11 2564.67 1463.85 2562.21C1467.07 2556.68 1465.61 2552.06 1464.86 2545.46Z"/><path fill="#FEFEFC" fill-opacity="0.06666667" transform="matrix(0.0874508 0 0 0.0877672 -75.9073 -115.94)" d="M2931.18 3203.53C2930.56 3212.01 2928.37 3219.72 2931.74 3226.01L2934.19 3227.34C2928.72 3233.78 2924.3 3240.28 2916.96 3244.05L2914.94 3241.97C2916.89 3227.97 2924.37 3215.8 2931.18 3203.53Z"/><path fill="#FEFEFC" fill-opacity="0.12156863" transform="matrix(0.0874508 0 0 0.0877672 -75.9073 -115.94)" d="M1132.41 3227.87L1149.33 3228.09C1157.06 3240.91 1158.73 3245.2 1163.95 3259.26C1151.99 3248.28 1143.46 3239.79 1132.41 3227.87Z"/></g></svg>