<?xml version="1.0" encoding="utf-8" ?><svg xmlns="http://www.w3.org/2000/svg" xmlns:xlink="http://www.w3.org/1999/xlink" width="200" height="200" viewBox="0 0 200 200"><path fill="#7E7976" transform="matrix(0.195312 0 0 0.195312 0.000488281 7.62939e-06)" d="M525.969 293.289C544.362 300.938 565.807 313.233 585.032 321.703C587.763 323.812 599.131 358.92 601.521 364.501C602.622 367.071 609.068 383.346 609.692 386.148L610.47 386.51C617.243 385.452 661.794 379.259 664.907 380.511C667.682 383.121 669.899 386.278 672.233 389.276C681.837 401.608 691.824 413.636 701.427 425.969C703.643 429.58 714.572 474.152 716.501 480.989C728.903 478.611 741.323 476.336 753.762 474.163C766.323 480.751 779.818 489.352 792.695 496.442C794.371 501.816 796.863 518.229 797.742 524.154C798.829 531.488 801.825 546.776 802.205 553.923C804.444 555.962 826.196 561.436 831.328 563.625C835.085 574.115 837.805 589.379 841.929 601.426C843.576 603.914 873.479 615.048 878.664 618.074C881.161 625.185 883.448 633.98 885.699 641.395C891.157 659.193 896.485 677.03 901.684 694.906C905.039 706.362 908.657 719.658 912.438 730.827C902.075 732.797 880.286 735.932 869.77 736.66C870.081 738.379 870.33 739.378 870.281 741.15C860.142 742.898 850.569 744.551 840.32 745.444C836.172 745.555 832.021 745.499 827.877 745.279C823.216 745.015 807.919 742.902 804.658 744.122C799.656 750.223 723.14 752.053 711.987 752.124C694.554 752.178 677.473 751.42 660.083 750.233C656.715 750.003 653.779 750.025 650.503 749.046C648.667 747.964 623.939 748.132 620.918 749.119C616.224 751.599 591.854 751.749 584.951 751.993L541.237 753.556C532.34 753.852 523.44 754.068 514.539 754.203C513.275 754.223 505.999 754.411 505.019 754.279C496.537 753.764 485.574 754.101 476.782 753.881C457.166 753.395 437.561 752.562 417.975 751.381C415.803 751.026 411.025 750.886 408.646 750.748C387.324 749.925 366.008 748.95 344.7 747.823C338.949 747.489 323.258 746.957 318.255 746.072C305.236 746.049 289.692 748.563 275.474 748.59C270.042 748.619 224.9 745.62 221.948 744.138L221.698 743.082C218.477 741.581 183.655 743.74 175.748 743.094C151.051 743.567 112.948 739.763 89.1067 734.13C90.0415 727.498 94.8543 710.188 96.5825 702.599C102.065 677.908 107.795 653.273 113.77 628.697C116.018 624.869 151.375 593.876 156.479 590.129C165.34 590.992 174.185 592.014 183.009 593.196C188.666 594.001 196.148 595.551 201.619 595.954C208.938 575.299 218.269 554.938 226.576 534.623C228.557 531.491 271.551 494.666 276.568 490.925C279.503 491.647 283.241 492.949 286.075 494.021C302.804 500.349 321.353 504.83 337.578 512.143C339.673 519.026 342.166 526.085 344.484 532.922C350.122 523.019 361.548 491.542 364.706 480.642C368.416 467.725 371.848 452.77 375.162 439.641C379.678 420.862 384.297 402.108 389.019 383.379C390.71 379.729 415.268 359.043 420.449 355.195C429.063 356.268 440.149 358.818 449.462 360.169C451.724 355.618 457.59 347.041 460.619 342.282C465.955 333.905 471.087 325.399 476.011 316.773C480.781 313.211 519.086 295.788 525.969 293.289Z"/><path fill="#7E7976" transform="matrix(0.195312 0 0 0.195312 0.000488281 7.62939e-06)" d="M470.972 472.151C474.171 478.999 478.056 487.825 482.068 494.142L450.886 507.792C446.047 509.886 435.631 514.114 431.541 516.682L470.771 540.862C474.954 543.43 488.065 551.128 491.021 553.669L493.389 617.406C493.706 625.882 493.746 636.397 494.309 644.624L470.869 651.689C469.232 652.183 462.454 654.392 461.107 654.642L460.192 655.083C454.897 659.912 425.754 738.582 417.975 751.381C415.803 751.026 411.025 750.886 408.646 750.748C387.324 749.925 366.008 748.95 344.7 747.823C338.949 747.489 323.258 746.957 318.255 746.072C305.236 746.049 289.692 748.563 275.474 748.59C270.042 748.619 224.9 745.62 221.948 744.138L221.698 743.082C218.477 741.581 183.655 743.74 175.748 743.094C151.051 743.567 112.948 739.763 89.1067 734.13C90.0415 727.498 94.8543 710.188 96.5825 702.599C102.065 677.908 107.795 653.273 113.77 628.697C116.018 624.869 151.375 593.876 156.479 590.129C165.34 590.992 174.185 592.014 183.009 593.196C188.666 594.001 196.148 595.551 201.619 595.954C208.938 575.299 218.269 554.938 226.576 534.623C228.557 531.491 271.551 494.666 276.568 490.925C279.503 491.647 283.241 492.949 286.075 494.021C302.804 500.349 321.353 504.83 337.578 512.143C339.673 519.026 342.166 526.085 344.484 532.922C350.122 523.019 361.548 491.542 364.706 480.642L365.991 480.956C376.221 485.046 386.396 489.948 396.74 494.049C399.232 495.038 411.328 499.761 412.691 500.57C418.874 498.314 429.021 493.06 435.152 490.039C447.139 484.17 459.079 478.207 470.972 472.151Z"/><path fill="#ACA9A2" transform="matrix(0.195312 0 0 0.195312 0.000488281 7.62939e-06)" d="M156.479 590.129C165.34 590.992 174.185 592.014 183.009 593.196C188.666 594.001 196.148 595.551 201.619 595.954L204.886 596.164C207.908 601.156 212.819 612.242 215.617 618.105C222.705 632.86 229.702 647.658 236.608 662.499C240.186 670.101 244.203 677.62 247.86 685.177C249.17 687.882 251.992 693.115 252.958 695.711C250.872 696.59 241.879 700.185 240.496 701.586C234.323 707.84 229.207 722.096 225.164 730.059C222.864 734.588 222.682 739.01 221.698 743.082C218.477 741.581 183.655 743.74 175.748 743.094C151.051 743.567 112.948 739.763 89.1067 734.13C90.0415 727.498 94.8543 710.188 96.5825 702.599C102.065 677.908 107.795 653.273 113.77 628.697C116.018 624.869 151.375 593.876 156.479 590.129Z"/><path fill="#7E7976" transform="matrix(0.195312 0 0 0.195312 0.000488281 7.62939e-06)" d="M204.886 596.164C207.908 601.156 212.819 612.242 215.617 618.105C222.705 632.86 229.702 647.658 236.608 662.499C240.186 670.101 244.203 677.62 247.86 685.177C249.17 687.882 251.992 693.115 252.958 695.711C250.872 696.59 241.879 700.185 240.496 701.586C234.323 707.84 229.207 722.096 225.164 730.059C222.864 734.588 222.682 739.01 221.698 743.082C218.477 741.581 183.655 743.74 175.748 743.094C178.885 742.771 181.984 742.976 185.137 743.089C182.371 718.062 177.845 691.899 174.203 666.909C173.4 661.396 171.447 645.601 170.288 641.744C175.836 635.285 181.995 626.758 187.204 619.877C192.867 612.395 199.682 603.856 204.886 596.164Z"/><path fill="#D4D1C6" transform="matrix(0.195312 0 0 0.195312 0.000488281 7.62939e-06)" d="M156.479 590.129C165.34 590.992 174.185 592.014 183.009 593.196C188.666 594.001 196.148 595.551 201.619 595.954L204.886 596.164C199.682 603.856 192.867 612.395 187.204 619.877C181.995 626.758 175.836 635.285 170.288 641.744C166.551 640.271 158.013 639.011 153.673 637.957C140.858 634.844 126.341 632.466 113.77 628.697C116.018 624.869 151.375 593.876 156.479 590.129Z"/><path fill="#ACA9A2" transform="matrix(0.195312 0 0 0.195312 0.000488281 7.62939e-06)" d="M431.541 516.682L470.771 540.862C474.954 543.43 488.065 551.128 491.021 553.669L493.389 617.406C493.706 625.882 493.746 636.397 494.309 644.624L470.869 651.689C469.232 652.183 462.454 654.392 461.107 654.642L460.192 655.083C454.897 659.912 425.754 738.582 417.975 751.381C415.803 751.026 411.025 750.886 408.646 750.748L410.19 750.233C410.303 745.396 410.221 739.931 410.012 735.07C408.801 706.955 409.118 678.065 407.292 650.02C406.648 649.981 395.951 646.318 394.315 645.794C377.667 640.591 361.084 635.185 344.569 629.576C354.174 621.405 363.833 613.298 373.546 605.256C378.413 601.196 385.718 594.685 390.801 591.305C394.905 591.725 405.69 592.958 409.133 594.276C410.11 594.432 409.591 594.482 410.658 593.93C411.619 591.774 415.759 575.752 416.684 572.438C420.029 560.512 423.277 548.56 426.428 536.581C428.007 530.646 430.391 522.583 431.541 516.682Z"/><path fill="#555" transform="matrix(0.195312 0 0 0.195312 0.000488281 7.62939e-06)" d="M407.292 650.02C409.329 645.929 412.724 641.023 415.311 637.205C423.792 624.688 431.948 611.857 440.461 599.374C447.711 616.617 454.695 636.906 461.107 654.642L460.192 655.083C454.897 659.912 425.754 738.582 417.975 751.381C415.803 751.026 411.025 750.886 408.646 750.748L410.19 750.233C410.303 745.396 410.221 739.931 410.012 735.07C408.801 706.955 409.118 678.065 407.292 650.02Z"/><path fill="#ACA9A2" transform="matrix(0.195312 0 0 0.195312 0.000488281 7.62939e-06)" d="M276.568 490.925C279.503 491.647 283.241 492.949 286.075 494.021C302.804 500.349 321.353 504.83 337.578 512.143C325.43 526.688 312.069 540.3 299.465 554.446C297.876 556.23 295.768 558.355 294.399 560.27C294.773 566.304 293.967 572.925 293.858 579.01C293.194 616.311 290.045 653.775 288.918 691.01L277.956 686.594C271.023 688.788 259.808 692.865 252.958 695.711C251.992 693.115 249.17 687.882 247.86 685.177C244.203 677.62 240.186 670.101 236.608 662.499C229.702 647.658 222.705 632.86 215.617 618.105C212.819 612.242 207.908 601.156 204.886 596.164L201.619 595.954C208.938 575.299 218.269 554.938 226.576 534.623C228.557 531.491 271.551 494.666 276.568 490.925Z"/><path fill="#D4D1C6" transform="matrix(0.195312 0 0 0.195312 0.000488281 7.62939e-06)" d="M276.568 490.925C279.503 491.647 283.241 492.949 286.075 494.021C302.804 500.349 321.353 504.83 337.578 512.143C325.43 526.688 312.069 540.3 299.465 554.446C297.876 556.23 295.768 558.355 294.399 560.27C285.777 556.202 270.78 551.193 261.324 547.386C254.592 544.676 232.284 535.624 226.576 534.623C228.557 531.491 271.551 494.666 276.568 490.925Z"/><path fill="#BB7F4F" transform="matrix(0.195312 0 0 0.195312 0.000488281 7.62939e-06)" d="M252.958 695.711C259.808 692.865 271.023 688.788 277.956 686.594L288.918 691.01C295.585 693.077 303.647 696.027 310.177 698.635C312.938 703.048 322.056 723.859 321.285 729.543C320.788 733.211 318.741 741.785 318.255 746.072C305.236 746.049 289.692 748.563 275.474 748.59C270.042 748.619 224.9 745.62 221.948 744.138L221.698 743.082C222.682 739.01 222.864 734.588 225.164 730.059C229.207 722.096 234.323 707.84 240.496 701.586C241.879 700.185 250.872 696.59 252.958 695.711Z"/><path fill="#905732" transform="matrix(0.195312 0 0 0.195312 0.000488281 7.62939e-06)" d="M310.177 698.635C312.938 703.048 322.056 723.859 321.285 729.543C320.788 733.211 318.741 741.785 318.255 746.072C305.236 746.049 289.692 748.563 275.474 748.59C275.556 741.978 276.469 731.325 277.083 724.696C284.195 720.994 293.09 717.544 298.532 711.781C302.358 707.73 305.791 702.911 309.776 699.019L310.177 698.635Z"/><path fill="#555" transform="matrix(0.195312 0 0 0.195312 0.000488281 7.62939e-06)" d="M470.972 472.151C474.171 478.999 478.056 487.825 482.068 494.142L450.886 507.792C446.047 509.886 435.631 514.114 431.541 516.682C430.391 522.583 428.007 530.646 426.428 536.581C423.277 548.56 420.029 560.512 416.684 572.438C415.759 575.752 411.619 591.774 410.658 593.93C409.591 594.482 410.11 594.432 409.133 594.276C408.283 591.165 409.18 577.373 409.349 573.615L411.508 525.87C411.825 519.769 413.018 506.067 412.691 500.57C418.874 498.314 429.021 493.06 435.152 490.039C447.139 484.17 459.079 478.207 470.972 472.151Z"/><path fill="#ACA9A2" transform="matrix(0.195312 0 0 0.195312 0.000488281 7.62939e-06)" d="M831.328 563.625C835.085 574.115 837.805 589.379 841.929 601.426C843.576 603.914 873.479 615.048 878.664 618.074C881.161 625.185 883.448 633.98 885.699 641.395C891.157 659.193 896.485 677.03 901.684 694.906C905.039 706.362 908.657 719.658 912.438 730.827C902.075 732.797 880.286 735.932 869.77 736.66C870.081 738.379 870.33 739.378 870.281 741.15C860.142 742.898 850.569 744.551 840.32 745.444C836.172 745.555 832.021 745.499 827.877 745.279C823.216 745.015 807.919 742.902 804.658 744.122C799.656 750.223 723.14 752.053 711.987 752.124C713.481 743.681 716.056 734.034 717.822 725.539C718.694 721.344 721.3 709.147 722.809 705.757C720.732 703.837 718.527 701.561 716.618 699.446C707.675 689.534 697.483 679.909 688.985 669.67C696.134 667.189 706.945 666.322 715.237 663.718C717.798 663.227 728.076 661.456 729.817 660.654C731.612 660.37 732.604 660.289 734.321 659.611L733.633 658.738C733.312 655.859 733.868 652.666 734.234 649.762C738.352 647.643 750.411 638.822 754.953 635.55C766.353 627.34 776.297 620.745 788.28 613.362C788.564 608.42 788.324 603.32 788.188 598.36C793.573 593.144 803.419 585.594 809.465 580.792C815.89 575.689 824.744 568.16 831.328 563.625Z"/><path fill="#7E7976" transform="matrix(0.195312 0 0 0.195312 0.000488281 7.62939e-06)" d="M878.664 618.074C881.161 625.185 883.448 633.98 885.699 641.395C891.157 659.193 896.485 677.03 901.684 694.906C905.039 706.362 908.657 719.658 912.438 730.827C902.075 732.797 880.286 735.932 869.77 736.66C870.081 738.379 870.33 739.378 870.281 741.15C860.142 742.898 850.569 744.551 840.32 745.444C836.172 745.555 832.021 745.499 827.877 745.279C823.216 745.015 807.919 742.902 804.658 744.122C803.785 742.944 801.59 736.323 800.974 734.571C797.764 726.005 793.62 717.466 790.341 708.93C803.504 703.182 818.428 697.942 831.261 691.903C832.043 681.71 835.67 663.612 837.589 653.043C850.512 641.896 866.476 629.467 878.664 618.074Z"/><path fill="#BB7F4F" transform="matrix(0.195312 0 0 0.195312 0.000488281 7.62939e-06)" d="M790.341 708.93C803.504 703.182 818.428 697.942 831.261 691.903C830.794 695.047 829.651 701.531 829.689 704.431C833.07 703.261 836.476 702.168 839.906 701.154C847.378 703.881 853.408 707.13 860.142 711.305C865.246 718.101 868.046 728.437 869.77 736.66C870.081 738.379 870.33 739.378 870.281 741.15C860.142 742.898 850.569 744.551 840.32 745.444C836.172 745.555 832.021 745.499 827.877 745.279C823.216 745.015 807.919 742.902 804.658 744.122C803.785 742.944 801.59 736.323 800.974 734.571C797.764 726.005 793.62 717.466 790.341 708.93Z"/><path fill="#905732" transform="matrix(0.195312 0 0 0.195312 0.000488281 7.62939e-06)" d="M860.142 711.305C865.246 718.101 868.046 728.437 869.77 736.66C870.081 738.379 870.33 739.378 870.281 741.15C860.142 742.898 850.569 744.551 840.32 745.444C839.915 739.271 839.762 732.476 838.918 726.416C847.636 720.948 852.192 717.876 860.142 711.305Z"/><path fill="#8F8A84" transform="matrix(0.195312 0 0 0.195312 0.000488281 7.62939e-06)" d="M790.341 708.93C803.504 703.182 818.428 697.942 831.261 691.903C830.794 695.047 829.651 701.531 829.689 704.431C821.774 706.519 815.564 707.075 810.996 714.394C807.874 719.396 804.978 731.55 800.974 734.571C797.764 726.005 793.62 717.466 790.341 708.93Z"/><path fill="#555" transform="matrix(0.195312 0 0 0.195312 0.000488281 7.62939e-06)" d="M831.328 563.625C835.085 574.115 837.805 589.379 841.929 601.426C843.576 603.914 873.479 615.048 878.664 618.074C866.476 629.467 850.512 641.896 837.589 653.043C835.806 652.239 829.632 648.49 827.914 647.326C816.195 639.388 796.118 631.018 786.298 621.721C777.11 637.369 769.52 658.833 760.92 675.353C757.04 672.654 738.931 658.595 735.192 659.401C734.9 659.464 734.611 659.541 734.321 659.611L733.633 658.738C733.312 655.859 733.868 652.666 734.234 649.762C738.352 647.643 750.411 638.822 754.953 635.55C766.353 627.34 776.297 620.745 788.28 613.362C788.564 608.42 788.324 603.32 788.188 598.36C793.573 593.144 803.419 585.594 809.465 580.792C815.89 575.689 824.744 568.16 831.328 563.625Z"/><path fill="#D4D1C6" transform="matrix(0.195312 0 0 0.195312 0.000488281 7.62939e-06)" d="M835.933 598.962L841.929 601.426C843.576 603.914 873.479 615.048 878.664 618.074C866.476 629.467 850.512 641.896 837.589 653.043C835.806 652.239 829.632 648.49 827.914 647.326C816.195 639.388 796.118 631.018 786.298 621.721C790.124 619.587 798.585 616.111 802.99 614.096C813.934 608.971 824.915 603.926 835.933 598.962Z"/><path fill="#555" transform="matrix(0.195312 0 0 0.195312 0.000488281 7.62939e-06)" d="M722.809 705.757C742.522 700.866 762.455 694.232 782.123 688.805C784.975 695.334 787.519 702.809 790.341 708.93C793.62 717.466 797.764 726.005 800.974 734.571C801.59 736.323 803.785 742.944 804.658 744.122C799.656 750.223 723.14 752.053 711.987 752.124C713.481 743.681 716.056 734.034 717.822 725.539C718.694 721.344 721.3 709.147 722.809 705.757Z"/><path fill="#7E7976" transform="matrix(0.195312 0 0 0.195312 0.000488281 7.62939e-06)" d="M716.501 480.989C728.903 478.611 741.323 476.336 753.762 474.163C766.323 480.751 779.818 489.352 792.695 496.442C794.371 501.816 796.863 518.229 797.742 524.154C798.829 531.488 801.825 546.776 802.205 553.923C804.444 555.962 826.196 561.436 831.328 563.625C824.744 568.16 815.89 575.689 809.465 580.792C803.419 585.594 793.573 593.144 788.188 598.36C788.324 603.32 788.564 608.42 788.28 613.362C776.297 620.745 766.353 627.34 754.953 635.55C750.411 638.822 738.352 647.643 734.234 649.762C733.868 652.666 733.312 655.859 733.633 658.738L734.321 659.611C732.604 660.289 731.612 660.37 729.817 660.654L729.385 660.034C728.287 660.471 728.365 660.478 727.191 660.437C725.723 658.254 729.55 618.405 730.006 612.721C720.368 611.706 706.341 607.839 698.102 607.376C696.055 600.51 693.756 592.047 691.337 585.436C674.335 594.173 657.597 604.54 640.989 614.115C626.134 606.469 609.671 597.987 594.578 590.884C602.275 584.325 623.311 571.128 632.522 565.202C637.109 566.618 641.587 568.224 646.112 569.817C652.596 572.203 659.471 574.455 666.027 576.709C673.223 556.435 681.826 535.047 689.486 514.823C691.81 508.749 694.095 502.66 696.343 496.558C697.736 492.687 699.27 487.623 701.069 484.048C704.95 483.096 712.656 481.225 716.501 480.989Z"/><path fill="#ACA9A2" transform="matrix(0.195312 0 0 0.195312 0.000488281 7.62939e-06)" d="M666.027 576.709C673.223 556.435 681.826 535.047 689.486 514.823C691.81 508.749 694.095 502.66 696.343 496.558C697.736 492.687 699.27 487.623 701.069 484.048C704.296 488.37 736.441 526.991 738.501 528.364C738.233 528.725 730.164 606.896 730.006 612.721C720.368 611.706 706.341 607.839 698.102 607.376C696.055 600.51 693.756 592.047 691.337 585.436C674.335 594.173 657.597 604.54 640.989 614.115C626.134 606.469 609.671 597.987 594.578 590.884C602.275 584.325 623.311 571.128 632.522 565.202C637.109 566.618 641.587 568.224 646.112 569.817C652.596 572.203 659.471 574.455 666.027 576.709Z"/><path fill="#D4D1C6" transform="matrix(0.195312 0 0 0.195312 0.000488281 7.62939e-06)" d="M716.501 480.989C728.903 478.611 741.323 476.336 753.762 474.163C766.323 480.751 779.818 489.352 792.695 496.442C783.849 502.227 773.214 508.119 763.964 513.465C756.197 517.955 746.326 524.395 738.501 528.364C736.441 526.991 704.296 488.37 701.069 484.048C704.95 483.096 712.656 481.225 716.501 480.989Z"/><path fill="#ACA9A2" transform="matrix(0.195312 0 0 0.195312 0.000488281 7.62939e-06)" d="M802.205 553.923C804.444 555.962 826.196 561.436 831.328 563.625C824.744 568.16 815.89 575.689 809.465 580.792C803.419 585.594 793.573 593.144 788.188 598.36C782.249 589.541 771.468 575.127 764.879 566.352C771.431 562.943 795.043 554.23 802.205 553.923Z"/><path fill="#555" transform="matrix(0.195312 0 0 0.195312 0.000488281 7.62939e-06)" d="M691.337 585.436C693.756 592.047 696.055 600.51 698.102 607.376C706.341 607.839 720.368 611.706 730.006 612.721C729.55 618.405 725.723 658.254 727.191 660.437C728.365 660.478 728.287 660.471 729.385 660.034L729.817 660.654C728.076 661.456 717.798 663.227 715.237 663.718C706.945 666.322 696.134 667.189 688.985 669.67C697.483 679.909 707.675 689.534 716.618 699.446C718.527 701.561 720.732 703.837 722.809 705.757C721.3 709.147 718.694 721.344 717.822 725.539C716.056 734.034 713.481 743.681 711.987 752.124C694.554 752.178 677.473 751.42 660.083 750.233C656.715 750.003 653.779 750.025 650.503 749.046C648.667 747.964 623.939 748.132 620.918 749.119C616.688 744.703 595.67 702.649 591.711 695.054C608.269 695.179 625.065 694.951 641.64 694.866L640.989 614.115C657.597 604.54 674.335 594.173 691.337 585.436Z"/><path fill="#7E7976" transform="matrix(0.195312 0 0 0.195312 0.000488281 7.62939e-06)" d="M650.503 749.046C653.291 745.857 657.989 734.83 660.011 730.497L677.712 692.857C680.542 686.758 685.561 674.967 688.985 669.67C697.483 679.909 707.675 689.534 716.618 699.446C718.527 701.561 720.732 703.837 722.809 705.757C721.3 709.147 718.694 721.344 717.822 725.539C716.056 734.034 713.481 743.681 711.987 752.124C694.554 752.178 677.473 751.42 660.083 750.233C656.715 750.003 653.779 750.025 650.503 749.046Z"/><path fill="#8F8A84" transform="matrix(0.195312 0 0 0.195312 0.000488281 7.62939e-06)" d="M698.102 607.376C706.341 607.839 720.368 611.706 730.006 612.721C729.55 618.405 725.723 658.254 727.191 660.437C728.365 660.478 728.287 660.471 729.385 660.034L729.817 660.654C728.076 661.456 717.798 663.227 715.237 663.718C714.444 659.401 711.472 650.96 710.148 646.521C706.28 633.548 701.563 620.453 698.102 607.376Z"/><path fill="#7E7976" transform="matrix(0.195312 0 0 0.195312 0.000488281 7.62939e-06)" d="M610.47 386.51C617.243 385.452 661.794 379.259 664.907 380.511C667.682 383.121 669.899 386.278 672.233 389.276C681.837 401.608 691.824 413.636 701.427 425.969C703.643 429.58 714.572 474.152 716.501 480.989C712.656 481.225 704.95 483.096 701.069 484.048C699.27 487.623 697.736 492.687 696.343 496.558C694.095 502.66 691.81 508.749 689.486 514.823C681.826 535.047 673.223 556.435 666.027 576.709C659.471 574.455 652.596 572.203 646.112 569.817C646.271 569.398 646.432 568.764 646.267 568.333C639.221 549.918 629.898 531.632 623.162 513.181L623.924 513.122C625.441 510.944 629.179 492.858 630.049 488.918C634.143 468.65 639.737 447.868 643.249 427.571C638.739 422.403 611.729 390.94 610.47 386.51Z"/><path fill="#D4D1C6" transform="matrix(0.195312 0 0 0.195312 0.000488281 7.62939e-06)" d="M610.47 386.51C617.243 385.452 661.794 379.259 664.907 380.511C667.682 383.121 669.899 386.278 672.233 389.276C681.837 401.608 691.824 413.636 701.427 425.969C697.375 426.914 681.998 427.038 677.033 427.081C665.955 427.175 654.259 427.674 643.249 427.571C638.739 422.403 611.729 390.94 610.47 386.51Z"/><path fill="#ACA9A2" transform="matrix(0.195312 0 0 0.195312 0.000488281 7.62939e-06)" d="M525.969 293.289C544.362 300.938 565.807 313.233 585.032 321.703C576.522 326.85 564.25 332.147 555.113 336.984C551.592 338.848 540.132 344.931 537.186 346.086C535.923 349.563 532.652 375.55 531.869 380.895L522.484 442.955C520.649 454.394 519.136 465.124 516.734 476.497L478.356 400.232C472.028 387.714 464.791 374.455 458.824 361.894C456.588 360.567 452.189 360.43 449.462 360.169C451.724 355.618 457.59 347.041 460.619 342.282C465.955 333.905 471.087 325.399 476.011 316.773C480.781 313.211 519.086 295.788 525.969 293.289Z"/><path fill="#D4D1C6" transform="matrix(0.195312 0 0 0.195312 0.000488281 7.62939e-06)" d="M525.969 293.289C544.362 300.938 565.807 313.233 585.032 321.703C576.522 326.85 564.25 332.147 555.113 336.984C551.592 338.848 540.132 344.931 537.186 346.086C516.855 337.384 496.406 325.4 476.011 316.773C480.781 313.211 519.086 295.788 525.969 293.289Z"/><path fill="#ACA9A2" transform="matrix(0.195312 0 0 0.195312 0.000488281 7.62939e-06)" d="M417.975 751.381C425.754 738.582 454.897 659.912 460.192 655.083C461.89 658.294 505.916 691.695 513.075 697.041C511.89 701.068 511.354 709.387 510.913 713.877L508.234 741.864C508.008 744.358 507.512 751.98 506.917 753.704L505.019 754.279C496.537 753.764 485.574 754.101 476.782 753.881C457.166 753.395 437.561 752.562 417.975 751.381Z"/><path fill="#ACA9A2" transform="matrix(0.195312 0 0 0.195312 0.000488281 7.62939e-06)" d="M567.396 466.6C573.997 453.845 581.057 441.211 587.786 428.491C595.031 414.798 601.708 399.306 609.692 386.148L610.47 386.51C611.729 390.94 638.739 422.403 643.249 427.571C639.737 447.868 634.143 468.65 630.049 488.918C629.179 492.858 625.441 510.944 623.924 513.122L623.162 513.181C620.554 507.34 614.423 492.785 611.5 488.026C611.483 487.915 611.505 487.79 611.449 487.693C609.947 485.097 570.013 474.523 563.532 472.58C565.011 471.577 566.461 468.336 567.396 466.6Z"/><path fill="#8F8A84" transform="matrix(0.195312 0 0 0.195312 0.000488281 7.62939e-06)" d="M567.396 466.6C576.058 469.466 586.21 473.78 594.916 477.082C606.962 481.652 617.847 485.082 630.049 488.918C629.179 492.858 625.441 510.944 623.924 513.122L623.162 513.181C620.554 507.34 614.423 492.785 611.5 488.026C611.483 487.915 611.505 487.79 611.449 487.693C609.947 485.097 570.013 474.523 563.532 472.58C565.011 471.577 566.461 468.336 567.396 466.6Z"/><path fill="#D4D1C6" transform="matrix(0.195312 0 0 0.195312 0.000488281 7.62939e-06)" d="M503.691 484.637C508.327 486.416 512.975 488.645 517.419 490.884C532.256 498.358 547.401 505.72 561.944 513.746L514.79 540.477C508.195 544.189 497.666 550.529 491.021 553.669C488.065 551.128 474.954 543.43 470.771 540.862L431.541 516.682C435.631 514.114 446.047 509.886 450.886 507.792L482.068 494.142C489.334 491.107 496.542 487.939 503.691 484.637Z"/><path fill="#ACA9A2" transform="matrix(0.195312 0 0 0.195312 0.000488281 7.62939e-06)" d="M441.274 431.652C442.077 435.003 444.175 457.503 444.502 461.897C450.904 464.328 465.353 469.37 470.972 472.151C459.079 478.207 447.139 484.17 435.152 490.039C429.021 493.06 418.874 498.314 412.691 500.57C411.328 499.761 399.232 495.038 396.74 494.049C386.396 489.948 376.221 485.046 365.991 480.956L364.706 480.642C368.416 467.725 371.848 452.77 375.162 439.641L375.577 440.131C377.431 440.727 438.074 434.147 440.871 433.188L441.274 431.652Z"/><path fill="#8F8A84" transform="matrix(0.195312 0 0 0.195312 0.000488281 7.62939e-06)" d="M441.274 431.652C442.077 435.003 444.175 457.503 444.502 461.897C432.928 458.181 420.321 453.471 408.753 450.323L380.226 469.745C377.072 471.911 366.82 478.144 365.991 480.956L364.706 480.642C368.416 467.725 371.848 452.77 375.162 439.641L375.577 440.131C377.431 440.727 438.074 434.147 440.871 433.188L441.274 431.652Z"/><path fill="#ACA9A2" transform="matrix(0.195312 0 0 0.195312 0.000488281 7.62939e-06)" d="M420.449 355.195C429.063 356.268 440.149 358.818 449.462 360.169C452.189 360.43 456.588 360.567 458.824 361.894C453.16 370.219 442.234 386.986 437.263 395.74C439.197 407.242 439.681 420.044 441.274 431.652L440.871 433.188C438.074 434.147 377.431 440.727 375.577 440.131L375.162 439.641C379.678 420.862 384.297 402.108 389.019 383.379C390.71 379.729 415.268 359.043 420.449 355.195Z"/><path fill="#D4D1C6" transform="matrix(0.195312 0 0 0.195312 0.000488281 7.62939e-06)" d="M420.449 355.195C429.063 356.268 440.149 358.818 449.462 360.169C452.189 360.43 456.588 360.567 458.824 361.894C453.16 370.219 442.234 386.986 437.263 395.74C434.978 394.793 432.397 394.194 429.971 393.647C416.271 390.556 402.721 386.377 389.019 383.379C390.71 379.729 415.268 359.043 420.449 355.195Z"/><path fill="#D4D1C6" transform="matrix(0.195312 0 0 0.195312 0.000488281 7.62939e-06)" d="M494.309 644.624C501.503 642.506 508.72 640.472 515.961 638.522L575.234 663.573C554.468 674.849 533.639 685.357 513.075 697.041C505.916 691.695 461.89 658.294 460.192 655.083L461.107 654.642C462.454 654.392 469.232 652.183 470.869 651.689L494.309 644.624Z"/><path fill="#555" transform="matrix(0.195312 0 0 0.195312 0.000488281 7.62939e-06)" d="M611.5 488.026C614.423 492.785 620.554 507.34 623.162 513.181C629.898 531.632 639.221 549.918 646.267 568.333C646.432 568.764 646.271 569.398 646.112 569.817C641.587 568.224 637.109 566.618 632.522 565.202C623.311 571.128 602.275 584.325 594.578 590.884L594.094 590.87C592.755 589.878 585.672 573.033 585.671 570.639C585.665 553.235 590.443 534.885 591.443 517.617L591.467 517.147C598.263 507.919 605.551 497.721 611.5 488.026Z"/><path fill="#ACA9A2" transform="matrix(0.195312 0 0 0.195312 0.000488281 7.62939e-06)" d="M563.532 472.58C570.013 474.523 609.947 485.097 611.449 487.693C611.505 487.79 611.483 487.915 611.5 488.026C605.551 497.721 598.263 507.919 591.467 517.147C587.418 514.372 580.89 510.778 576.539 508.213L549.341 492.234C551.887 488.911 561.367 473.409 563.532 472.58Z"/></svg>