<?xml version="1.0" encoding="utf-8" ?><svg xmlns="http://www.w3.org/2000/svg" xmlns:xlink="http://www.w3.org/1999/xlink" width="200" height="200" viewBox="0 0 200 200"><defs><linearGradient id="gradient_0" gradientUnits="userSpaceOnUse" x1="868.77106" y1="598.42609" x2="568.22809" y2="241.6713"><stop offset="0" stop-color="#256122"/><stop offset="1" stop-color="#539936"/></linearGradient></defs><path fill="url(#gradient_0)" transform="scale(0.195312 0.195312)" d="M249.576 206.563C251.158 201.39 252.109 195.706 253.544 190.439C266.855 141.573 299.111 93.8071 338.5 62.2072C392.065 19.1831 460.517 -0.8216 528.821 6.58673C536.635 6.84414 551.849 9.72962 559.557 11.4671C610.176 22.8775 656.233 49.1479 691.822 86.9095C722.799 120.013 745.507 161.609 754.144 206.263C819.122 221.622 871.953 255.17 907.679 312.685C938.668 362.574 949.925 426.763 936.205 484.088C921.264 545.052 882.692 597.571 828.991 630.069C797.407 649.361 763.953 660.435 726.896 662.168C725.263 662.244 721.555 662.457 720.21 663.126C710.979 662.471 699.78 663.518 690.787 662.989C684.055 662.594 659.209 660.53 654.355 657.373C652.202 656.266 645.247 654.081 642.527 653.021C635.59 650.316 630.56 647.907 624.06 644.282C603.959 675.912 573.688 699.755 538.23 711.888C510.344 721.429 480.412 723.327 451.545 717.382C408.585 708.536 370.916 682.948 346.862 646.271C344.095 646.771 333.786 648.558 331.617 649.37C322.244 650.707 311.144 651.291 301.61 651.51C295.119 651.66 287.125 650.667 280.662 650.893C275.766 649.458 268.501 649.57 263.256 649.31C258.078 649.014 252.914 648.487 247.782 647.729C214.996 642.678 179.949 626.133 153.305 606.681C105.187 571.392 73.0028 518.484 63.7916 459.528C55.0487 402.341 68.8865 340.369 103.44 293.7C138.791 246.837 191.168 215.77 249.244 207.219L249.576 206.563Z"/><defs><linearGradient id="gradient_1" gradientUnits="userSpaceOnUse" x1="419.38623" y1="577.62909" x2="131.39223" y2="264.1105"><stop offset="0" stop-color="#4A9533"/><stop offset="1" stop-color="#99CF4C"/></linearGradient></defs><path fill="url(#gradient_1)" transform="scale(0.195312 0.195312)" d="M249.576 206.563C250.911 207.534 256.322 206.369 258.503 206.101C271.713 204.446 285.058 204.149 298.328 205.217C329.282 207.58 353.708 216.895 381.538 229.806C428.229 256.228 462.712 291.868 478.976 344.526C480.271 348.719 481.089 355.845 482.815 359.437C480.171 370.778 478.725 379.899 476.558 391.018C417.49 393.979 364.526 428.332 337.736 481.058C310.945 533.784 314.427 596.816 346.862 646.271C344.095 646.771 333.786 648.558 331.617 649.37C322.244 650.707 311.144 651.291 301.61 651.51C295.119 651.66 287.125 650.667 280.662 650.893C275.766 649.458 268.501 649.57 263.256 649.31C258.078 649.014 252.914 648.487 247.782 647.729C214.996 642.678 179.949 626.133 153.305 606.681C105.187 571.392 73.0028 518.484 63.7916 459.528C55.0487 402.341 68.8865 340.369 103.44 293.7C138.791 246.837 191.168 215.77 249.244 207.219L249.576 206.563Z"/><path fill="#DF161A" transform="scale(0.195312 0.195312)" d="M170.893 274.817C187.048 272.811 190.881 266.393 210.186 272.481C254.469 291.42 238.701 364.859 200.326 381.23C184.554 387.958 176.661 375.372 161.587 381.414C146.039 387.646 132.078 377.511 122.322 366.396C120.129 363.681 118.12 360.822 116.311 357.839C101.885 333.528 97.3309 292.543 125.771 274.978C139.252 266.651 152.151 270.806 166.432 274.608L170.893 274.817Z"/><path fill="#BA1618" transform="scale(0.195312 0.195312)" d="M210.186 272.481C254.469 291.42 238.701 364.859 200.326 381.23C184.554 387.958 176.661 375.372 161.587 381.414C146.039 387.646 132.078 377.511 122.322 366.396C125.717 365.772 132.637 368.562 136.481 369.695C150.932 374.012 169.461 373.168 183.234 366.748C211.036 353.79 229.39 312.744 217.397 283.848C215.625 279.579 211.754 276.315 210.186 272.481Z"/><path fill="#F47073" transform="scale(0.195312 0.195312)" d="M131.763 280.55C147.459 279.644 131.692 305.65 124.093 309.755C115.211 309.909 116.393 300.875 118.564 294.982C121.046 288.249 125.446 283.645 131.763 280.55Z"/><path fill="#DF161A" transform="scale(0.195312 0.195312)" d="M175.761 598.023C173.225 595.15 170.956 592.051 168.985 588.764C157.395 569.21 153.886 537.127 176.945 523.779C187.429 517.71 197.302 520.236 208.198 523.358L212.386 523.647C224.311 522.804 228.1 517.01 243.095 521.936C278.068 537.046 265.743 595.677 234.497 607.984C224.116 612.073 218.672 605.708 212.269 606.501C195.305 608.599 190.034 613.893 175.761 598.023Z"/><path fill="#BA1618" transform="scale(0.195312 0.195312)" d="M243.095 521.936C278.068 537.046 265.743 595.677 234.497 607.984C224.116 612.073 218.672 605.708 212.269 606.501C195.305 608.599 190.034 613.893 175.761 598.023C179.849 596.09 187.776 599.532 193.344 600.219C205.495 601.823 219.25 599.136 229.287 591.621C247.27 578.158 259.863 545.391 245.278 525.541C244.147 524.001 243.901 523.756 243.095 521.936Z"/><path fill="#F47073" transform="scale(0.195312 0.195312)" d="M180.258 528.507C194.236 527.222 180.801 547.356 175.901 551.235C169.494 552.525 168.893 546.579 170.28 541.992C172.22 535.578 174.579 531.946 180.258 528.507Z"/><path fill="#DF161A" transform="scale(0.195312 0.195312)" d="M388.091 311.992C400.403 309.751 404.848 306.313 417.067 310.706C449.522 326.908 436.452 380.017 406.713 391.073C399.672 393.691 392.822 388.945 385.838 389.241C370.634 393.759 364.505 392.792 352.697 379.708C337.415 362.12 332.171 326.811 354.682 312.603C364.605 306.34 374.091 309.055 384.372 311.875L388.091 311.992Z"/><path fill="#BA1618" transform="scale(0.195312 0.195312)" d="M417.067 310.706C449.522 326.908 436.452 380.017 406.713 391.073C399.672 393.691 392.822 388.945 385.838 389.241C370.634 393.759 364.505 392.792 352.697 379.708C354.768 379.182 359.821 380.893 362.338 381.696C400.081 393.738 431.896 357.023 422.563 321.059C421.941 318.662 418.47 313.555 417.067 310.706Z"/><path fill="#F47073" transform="scale(0.195312 0.195312)" d="M359.155 316.441C361.665 316.409 362.023 316.499 363.695 318.025C366.582 323.832 358.542 334.563 354.072 338.041C344.666 337.354 349.776 325.75 353.143 321.48C355.223 318.842 356.367 318.114 359.155 316.441Z"/><path fill="#6E3916" transform="scale(0.195312 0.195312)" d="M175.667 245.99C179.796 247.498 181.291 248.528 184.509 251.542C175.831 260.958 174.384 263.01 170.893 274.817L166.432 274.608C166.645 263.002 168.851 255.538 175.667 245.99Z"/><path fill="#6E3916" transform="scale(0.195312 0.195312)" d="M215.749 500.844C219.242 502.028 220.179 502.331 222.779 504.868C217.656 511.043 214.145 515.589 212.386 523.647L208.198 523.358C208.987 513.434 210.474 509.3 215.749 500.844Z"/><path fill="#6E3916" transform="scale(0.195312 0.195312)" d="M391.556 290.897C393.641 291.684 394.853 291.926 396.405 293.436C396.765 294.511 397.103 295.392 396.306 296.594C392.491 302.35 389.806 304.901 388.091 311.992L384.372 311.875C385.088 303.16 386.49 298.078 391.556 290.897Z"/><defs><linearGradient id="gradient_2" gradientUnits="userSpaceOnUse" x1="624.21167" y1="288.41937" x2="466.83401" y2="47.834682"><stop offset="0" stop-color="#7EBA41"/><stop offset="1" stop-color="#B6DE51"/></linearGradient></defs><path fill="url(#gradient_2)" transform="scale(0.195312 0.195312)" d="M249.576 206.563C251.158 201.39 252.109 195.706 253.544 190.439C266.855 141.573 299.111 93.8071 338.5 62.2072C392.065 19.1831 460.517 -0.8216 528.821 6.58673C536.635 6.84414 551.849 9.72962 559.557 11.4671C610.176 22.8775 656.233 49.1479 691.822 86.9095C722.799 120.013 745.507 161.609 754.144 206.263C693.885 192.196 630.503 202.799 578.102 235.712C530.149 266.041 500.298 305.928 482.815 359.437C481.089 355.845 480.271 348.719 478.976 344.526C462.712 291.868 428.229 256.228 381.538 229.806C353.708 216.895 329.282 207.58 298.328 205.217C285.058 204.149 271.713 204.446 258.503 206.101C256.322 206.369 250.911 207.534 249.576 206.563Z"/><path fill="#D3E654" transform="scale(0.195312 0.195312)" d="M249.576 206.563C251.158 201.39 252.109 195.706 253.544 190.439C266.855 141.573 299.111 93.8071 338.5 62.2072C392.065 19.1831 460.517 -0.8216 528.821 6.58673C528.485 7.15804 528.15 7.72936 527.814 8.30067C506.527 19.9272 486.951 34.8496 470.628 52.8244C468.563 55.0979 465.238 58.1647 463.864 60.8499L468.451 62.2513C469.62 65.7958 475.026 70.6993 477.024 74.9371C493.06 108.942 468.473 160.506 434.944 174.378C417.777 181.481 395.271 181.658 377.829 176.163C374.68 175.171 366.85 172.11 364.139 173.232C372.16 182.06 378.637 187.958 390.192 191.777L391.307 192.157C389.026 199.935 386.953 207.771 385.089 215.659C384.237 219.149 382.64 226.654 381.538 229.806C353.708 216.895 329.282 207.58 298.328 205.217C285.058 204.149 271.713 204.446 258.503 206.101C256.322 206.369 250.911 207.534 249.576 206.563Z"/><path fill="#DF161A" transform="scale(0.195312 0.195312)" d="M422.011 65.4941C425.978 65.0796 430.403 63.7552 434.241 62.5911C445.773 59.0937 452.212 58.6601 463.864 60.8499L468.451 62.2513C469.62 65.7958 475.026 70.6993 477.024 74.9371C493.06 108.942 468.473 160.506 434.944 174.378C417.777 181.481 395.271 181.658 377.829 176.163C374.68 175.171 366.85 172.11 364.139 173.232C347.388 151.845 338.565 122.137 346.236 95.4325C350.756 79.6938 362.899 65.7614 378.981 61.3942C391.989 57.8618 404.131 61.4409 416.577 65.2817L422.011 65.4941Z"/><path fill="#F47073" transform="scale(0.195312 0.195312)" d="M377.086 72.1364C385.992 72.995 384.129 81.5193 381.354 87.3443C377.92 94.5544 373.014 103.946 365.192 106.913C350.174 102.533 362.666 75.922 377.086 72.1364Z"/><path fill="#6E3916" transform="scale(0.195312 0.195312)" d="M428.314 31.4508C433.326 33.4256 434.585 33.9863 438.251 38.1566C429.352 47.5484 425.625 52.8707 422.011 65.4941L416.577 65.2817C417.228 52.9062 419.882 41.0635 428.314 31.4508Z"/><path fill="#BA1618" transform="scale(0.195312 0.195312)" d="M468.451 62.2513C521.503 84.2984 503.16 171.063 457.291 190.537C442.234 196.93 435.307 189.454 420.886 188.57C409.496 188.89 407.751 195.087 391.307 192.157L390.192 191.777C378.637 187.958 372.16 182.06 364.139 173.232C366.85 172.11 374.68 175.171 377.829 176.163C395.271 181.658 417.777 181.481 434.944 174.378C468.473 160.506 493.06 108.942 477.024 74.9371C475.026 70.6993 469.62 65.7958 468.451 62.2513Z"/><path fill="#DF161A" transform="scale(0.195312 0.195312)" d="M650.272 117.765C660.522 115.661 667.101 111.976 677.417 115.846C708.94 129.279 698.144 181.036 670.812 193.047C661.711 197.046 656.602 191.244 651.031 191.984C635.372 194.066 630.239 197.63 617.436 184.281C601.657 166.024 595.337 131.895 619.253 117.45C627.816 112.278 637.676 114.761 646.463 117.388L650.272 117.765Z"/><path fill="#BA1618" transform="scale(0.195312 0.195312)" d="M677.417 115.846C708.94 129.279 698.144 181.036 670.812 193.047C661.711 197.046 656.602 191.244 651.031 191.984C635.372 194.066 630.239 197.63 617.436 184.281C619.477 182.541 622.045 184.136 624.691 184.78C627.857 185.567 631.087 186.07 634.343 186.28C641.341 186.694 651.543 185.684 658.196 182.927C677.622 174.879 691.016 145.417 683.429 125.678C682.088 122.191 678.729 119.487 677.417 115.846Z"/><path fill="#F47073" transform="scale(0.195312 0.195312)" d="M623.176 121.444C633.813 123.151 622.12 140.187 616.357 143.146C606.099 139.104 615.502 124.879 623.176 121.444Z"/><path fill="#6E3916" transform="scale(0.195312 0.195312)" d="M653.484 96.9033C655.738 98.1487 657.794 99.2111 659.888 100.726C654.296 106.796 652.357 109.542 650.272 117.765L646.463 117.388C647.566 108.91 648.237 103.89 653.484 96.9033Z"/><defs><linearGradient id="gradient_3" gradientUnits="userSpaceOnUse" x1="599.39484" y1="672.24261" x2="369.9147" y2="438.09357"><stop offset="0" stop-color="#215820"/><stop offset="1" stop-color="#337127"/></linearGradient></defs><path fill="url(#gradient_3)" transform="scale(0.195312 0.195312)" d="M476.558 391.018C538.161 387.929 596.341 419.462 627.383 472.761C658.425 526.061 657.143 592.224 624.06 644.282C603.959 675.912 573.688 699.755 538.23 711.888C510.344 721.429 480.412 723.327 451.545 717.382C408.585 708.536 370.916 682.948 346.862 646.271C314.427 596.816 310.945 533.784 337.736 481.058C364.526 428.332 417.49 393.979 476.558 391.018Z"/><path fill="#DF161A" transform="scale(0.195312 0.195312)" d="M456.563 528.621C473.981 526.533 487.679 516.77 507.449 526.574C518.914 530.554 528.7 540.998 533.91 551.805C543.453 571.923 540.883 596.203 533.927 616.602C527.044 636.784 515.092 653.196 496.085 663.04C480.757 670.979 470.808 663.535 455.596 661.938C452.231 661.585 447.723 663.458 444.544 664.376C425.367 671.49 407.174 660.465 395.425 645.197C389.442 639.869 381.863 625.169 379.043 617.772C372.156 599.71 369.552 581.452 374.576 562.584C380.102 541.834 395.02 525.693 416.945 522.995C427.945 521.617 438.072 525.03 448.63 527.848C451.998 528.604 453.136 528.573 456.563 528.621Z"/><path fill="#BA1618" transform="scale(0.195312 0.195312)" d="M507.449 526.574C518.914 530.554 528.7 540.998 533.91 551.805C543.453 571.923 540.883 596.203 533.927 616.602C527.044 636.784 515.092 653.196 496.085 663.04C480.757 670.979 470.808 663.535 455.596 661.938C452.231 661.585 447.723 663.458 444.544 664.376C425.367 671.49 407.174 660.465 395.425 645.197C399.398 645.415 408.528 649.154 413.458 650.187C434.625 654.643 460.541 653.78 479.209 641.758C504.352 625.567 520.143 593.758 520.551 564.145C520.781 547.454 516.036 539.956 507.449 526.574Z"/><path fill="#F47073" transform="scale(0.195312 0.195312)" d="M406.593 536.029C414.28 535.109 416.494 539.885 414.409 546.762C411.71 555.662 405.09 567.732 396.915 572.505C385.733 572.969 387.669 560.31 390.313 553.297C393.255 545.623 399.105 539.418 406.593 536.029Z"/><path fill="#6E3916" transform="scale(0.195312 0.195312)" d="M448.63 527.848L449.678 527.541C450.828 524.776 450.482 520.546 451.343 517.229C453.045 510.671 455.916 496.718 462.42 493.484C465.647 491.88 471.272 496.879 473.519 499.173C465.234 507.705 458.677 516.488 456.563 528.621C453.136 528.573 451.998 528.604 448.63 527.848Z"/><path fill="#DF161A" transform="scale(0.195312 0.195312)" d="M808.861 453.208C811.617 452.956 814.177 452.345 816.814 451.538C830.153 447.459 844.381 444.681 857.83 450.301C870.598 455.301 880.824 465.216 886.216 477.824C902.588 515.091 882.074 580.439 837.574 589.69C824.387 592.431 811.279 580.884 797.647 587.392C777.905 595.428 758.669 583.861 747.121 568.027C720.656 537.156 712.348 474.87 754.188 452.543C770.501 443.839 785.96 447.651 802.528 452.838C804.621 452.972 806.771 453.14 808.861 453.208Z"/><path fill="#BA1618" transform="scale(0.195312 0.195312)" d="M857.83 450.301C870.598 455.301 880.824 465.216 886.216 477.824C902.588 515.091 882.074 580.439 837.574 589.69C824.387 592.431 811.279 580.884 797.647 587.392C777.905 595.428 758.669 583.861 747.121 568.027C749.285 567.719 762.837 572.772 766.742 573.673C787.369 578.568 813.956 576.651 832.057 564.79C862.4 544.907 883.767 495.16 865.527 461.033C863.189 456.659 860.143 454.105 857.83 450.301Z"/><path fill="#F47073" transform="scale(0.195312 0.195312)" d="M759.204 460.525C779.142 459.563 758.575 492.661 749.737 497.2C746.74 497.39 742.345 496.195 741.539 493.252C737.955 480.164 748.94 465.451 759.204 460.525Z"/><path fill="#DF161A" transform="scale(0.195312 0.195312)" d="M641.892 275.763C645.18 275.322 650.907 273.703 654.295 272.709C666.106 269.242 676.906 268.373 688.548 273.072C724.483 286.361 728.245 333.103 715.513 363.711C707.952 381.891 696.769 398.724 678.191 407.073C662.369 414.43 654.92 407.32 639.646 405.826C636.944 405.562 632.647 407.223 630.024 407.936C610.288 415.716 594.537 404.571 581.67 389.689C578.508 385.912 575.674 381.871 573.202 377.611C561.555 357.727 555.545 331.888 561.425 309.199C566.424 289.908 581.67 272.365 602.327 270.331C613.74 269.208 622.828 272.234 633.657 275.295C635.299 275.573 640.278 276.011 641.892 275.763Z"/><path fill="#BA1618" transform="scale(0.195312 0.195312)" d="M688.548 273.072C724.483 286.361 728.245 333.103 715.513 363.711C707.952 381.891 696.769 398.724 678.191 407.073C662.369 414.43 654.92 407.32 639.646 405.826C636.944 405.562 632.647 407.223 630.024 407.936C610.288 415.716 594.537 404.571 581.67 389.689C584.418 388.574 587.805 390.482 590.627 391.308C596.202 393.022 601.708 395.038 607.488 395.992C650.453 403.083 684.001 379.58 697.927 339.243C703.728 321.723 705.354 301.504 697.168 284.458C695.097 280.144 689.813 276.4 688.548 273.072Z"/><path fill="#F47073" transform="scale(0.195312 0.195312)" d="M593.794 282.529C594.828 282.554 596.225 282.617 597.181 282.978C598.694 283.541 599.916 284.692 600.566 286.17C604.114 294.16 590.752 315.669 582.996 319.055C565.784 318.395 577.145 288.411 593.794 282.529Z"/><path fill="#6E3916" transform="scale(0.195312 0.195312)" d="M815.188 416.848C817.466 417.909 827.368 422.308 824.488 425.199C815.711 434.007 811.623 440.646 808.861 453.208C806.771 453.14 804.621 452.972 802.528 452.838C802.801 440.478 806.25 425.884 815.188 416.848Z"/><path fill="#6E3916" transform="scale(0.195312 0.195312)" d="M646.657 240.376C649.977 241.486 655.494 243.311 656.756 246.811C655.531 249.372 651.12 254.306 649.161 256.855C646.14 260.785 640.841 270.444 641.284 275.298L641.892 275.763C640.278 276.011 635.299 275.573 633.657 275.295L634.673 274.736C635.06 271.92 634.961 269.411 635.338 266.825C636.689 257.581 640.489 247.489 646.657 240.376Z"/><defs><linearGradient id="gradient_4" gradientUnits="userSpaceOnUse" x1="719.67853" y1="666.86493" x2="301.81601" y2="937.39679"><stop offset="0" stop-color="#3D2C06"/><stop offset="1" stop-color="#5B310B"/></linearGradient></defs><path fill="url(#gradient_4)" transform="scale(0.195312 0.195312)" d="M331.617 649.37C335.183 651.982 341.986 659.107 345.294 662.44C352.866 670.209 360.564 677.855 368.384 685.374C385.594 701.805 402.902 718.133 420.307 734.358C429.086 742.677 441.339 754.006 449.464 762.888C450.236 748.007 450.488 732.028 451.545 717.382C480.412 723.327 510.344 721.429 538.23 711.888C539.159 727.408 537.739 749.409 540.52 764.266C554.438 753.758 568.501 739.496 581.079 727.385L626.726 683.583C634.304 676.205 646.464 663.74 654.355 657.373C659.209 660.53 684.055 662.594 690.787 662.989C699.78 663.518 710.979 662.471 720.21 663.126L609.502 768.503C598.085 779.346 586.784 790.31 575.601 801.394C568.324 808.48 560.048 816.01 553.736 823.823C549.917 828.706 547.235 833.132 547.476 839.546C548.008 853.657 549.314 868.303 551.239 882.294C555.555 913.651 556.223 957.603 579.399 981.546C586.911 989.154 595.783 995.288 605.555 999.629C619.729 1005.99 630.786 1008.16 642.489 1019.04C642.355 1020.88 642.293 1022.2 641.922 1024L354.128 1024L352.247 1018.94C355.76 1013.71 386.696 1001.15 394.962 996.236C402.296 991.937 408.843 986.417 414.318 979.913C419.298 973.979 424.552 966.421 426.954 958.901C436.851 927.914 438.831 893.384 441.766 861.075C442.693 850.863 444.109 839.491 443.605 829.332C443.265 826.149 442.728 822.792 440.801 820.172C429.111 804.277 415.417 789.819 401.929 775.52C384.998 757.34 367.911 739.305 350.67 721.418C335.037 704.88 319.133 688.6 302.963 672.585C296.908 666.549 286.858 656.006 280.662 650.893C287.125 650.667 295.119 651.66 301.61 651.51C311.144 651.291 322.244 650.707 331.617 649.37Z"/><path fill="#FDFCFD" transform="scale(0.195312 0.195312)" d="M352.247 1018.94C371.196 1019.89 391.912 1019.29 410.986 1019.13L481.121 1019.02L582.789 1019.06C602.894 1019.11 622.332 1019.64 642.489 1019.04C642.355 1020.88 642.293 1022.2 641.922 1024L354.128 1024L352.247 1018.94Z"/></svg>