<?xml version="1.0" encoding="utf-8" ?><svg xmlns="http://www.w3.org/2000/svg" xmlns:xlink="http://www.w3.org/1999/xlink" width="200" height="200" viewBox="0 0 200 200"><defs><linearGradient id="gradient_0" gradientUnits="userSpaceOnUse" x1="869.42035" y1="598.23663" x2="575.15747" y2="236.47667"><stop offset="0" stop-color="#266022"/><stop offset="1" stop-color="#529835"/></linearGradient></defs><path fill="url(#gradient_0)" transform="scale(0.195312 0.195312)" d="M249.658 207.302C274.58 86.8644 382.86 2.9149 503.678 5.85004C512.719 6.06966 520.408 5.79276 529.524 6.83786C542.551 7.6765 560.992 11.4294 573.559 15.0294C621.409 28.4862 664.34 55.5095 697.166 92.8353C726.773 126.542 744.688 162.62 754.252 206.196C774.535 210.914 799.891 219.31 818.124 229.677C819.725 226.632 820.628 224.616 824.515 225.904C827.462 228.372 826.57 230.16 824.414 232.645C878.093 262.88 917.478 313.295 933.824 372.695C949.878 430.268 942.255 491.87 912.65 543.793C881.532 598.705 829.876 639.007 769.045 655.834C757.894 658.853 746.131 660.148 734.663 661.309C732.933 661.484 721.493 662.376 720.636 662.997C704.285 663.042 668.694 663.544 653.819 657.438C651.638 656.225 641.392 652.37 638.356 651.073C629.377 662.252 621.264 667.736 606.507 669.804C605.49 669.946 604.718 670.015 603.693 669.918L601.559 671.544C590.593 684.76 571.232 697.342 555.47 704.76C552.42 706.195 540.397 710.524 538.601 712.072C526.146 717.99 499.091 720.232 485.421 721.311C480.918 721.666 455.073 718.986 451.51 717.373C445.52 715.231 437.568 714.11 430.372 711.372C393.032 697.166 370.243 678.545 347.396 646.61C343.677 647.196 335.055 648.32 331.789 649.264C321.538 650.57 311.516 651.185 301.18 651.472C295.692 651.624 285.331 650.341 280.445 650.872C276.58 649.264 258.737 649.291 251.988 648.236C215.1 642.429 180.262 627.448 150.672 604.669C102.06 567.891 70.3719 513.03 62.8038 452.544C55.3899 394.711 71.0125 336.282 106.3 289.866C141.525 244.742 192.95 215.125 249.658 207.302Z"/><defs><linearGradient id="gradient_1" gradientUnits="userSpaceOnUse" x1="416.93347" y1="580.56805" x2="130.04735" y2="264.95636"><stop offset="0" stop-color="#4A9533"/><stop offset="1" stop-color="#99CF4B"/></linearGradient></defs><path fill="url(#gradient_1)" transform="scale(0.195312 0.195312)" d="M249.658 207.302C274.58 86.8644 382.86 2.9149 503.678 5.85004C512.719 6.06966 520.408 5.79276 529.524 6.83786C542.551 7.6765 560.992 11.4294 573.559 15.0294C621.409 28.4862 664.34 55.5095 697.166 92.8353C726.773 126.542 744.688 162.62 754.252 206.196C745.116 203.958 732.378 202.278 722.973 201.411C673.433 196.482 623.638 207.865 581.16 233.829C531.62 263.82 500.825 304.976 482.861 359.431L477.162 390.983C470.923 390.996 462.307 392.23 456.064 393.34C422.116 399.423 390.903 415.924 366.758 440.551C336.542 471.281 319.716 512.721 319.957 555.817C320.061 588.005 328.815 620.081 347.396 646.61C343.677 647.196 335.055 648.32 331.789 649.264C321.538 650.57 311.516 651.185 301.18 651.472C295.692 651.624 285.331 650.341 280.445 650.872C276.58 649.264 258.737 649.291 251.988 648.236C215.1 642.429 180.262 627.448 150.672 604.669C102.06 567.891 70.3719 513.03 62.8038 452.544C55.3899 394.711 71.0125 336.282 106.3 289.866C141.525 244.742 192.95 215.125 249.658 207.302Z"/><defs><linearGradient id="gradient_2" gradientUnits="userSpaceOnUse" x1="626.23352" y1="289.06696" x2="465.67929" y2="49.344284"><stop offset="0" stop-color="#7DBA41"/><stop offset="1" stop-color="#B6DD51"/></linearGradient></defs><path fill="url(#gradient_2)" transform="scale(0.195312 0.195312)" d="M249.658 207.302C274.58 86.8644 382.86 2.9149 503.678 5.85004C512.719 6.06966 520.408 5.79276 529.524 6.83786C542.551 7.6765 560.992 11.4294 573.559 15.0294C621.409 28.4862 664.34 55.5095 697.166 92.8353C726.773 126.542 744.688 162.62 754.252 206.196C745.116 203.958 732.378 202.278 722.973 201.411C673.433 196.482 623.638 207.865 581.16 233.829C531.62 263.82 500.825 304.976 482.861 359.431C481.354 356.559 480.575 348.774 479.427 345.308C476.249 335.709 469.364 317.458 463.893 309.384C459.416 312.419 448.985 317.875 443.699 317.583C443.481 316.577 443.452 316.969 443.534 316.415C441.121 319.296 433.438 319.348 429.858 318.661L429.513 318.994C427.07 319.606 424.056 319.187 421.547 319.093C395.294 318.116 380.812 292.92 383.596 268.599C384.982 256.49 390.051 248.694 395.361 238.053C391.306 235.339 385.789 232.336 381.487 229.837C357.005 218.276 332.792 208.845 305.689 205.961C301.046 205.467 296.501 205.185 291.876 204.459C289.373 203.195 289.403 202.979 286.968 204.369C272.521 205.106 264.007 205.42 249.658 207.302Z"/><path fill="#C6D94E" transform="scale(0.195312 0.195312)" d="M249.658 207.302C274.58 86.8644 382.86 2.9149 503.678 5.85004C512.719 6.06966 520.408 5.79276 529.524 6.83786C527.45 9.47468 511.433 18.0435 507.17 21.0206C498.261 27.3043 489.774 34.1668 481.764 41.5637C441.009 79.7585 408.821 134.411 392.495 187.462C387.949 202.232 385.528 215.77 381.487 229.837C357.005 218.276 332.792 208.845 305.689 205.961C301.046 205.467 296.501 205.185 291.876 204.459C289.373 203.195 289.403 202.979 286.968 204.369C272.521 205.106 264.007 205.42 249.658 207.302Z"/><path fill="#C6D94E" transform="scale(0.195312 0.195312)" d="M426.098 181.069C446.995 177.763 451.547 214.003 458.752 227.009C460.601 230.439 463.211 233.922 465.691 236.902C473.803 246.65 479.722 255.015 481.067 268C482.911 285.802 477.728 298.424 463.893 309.384C459.416 312.419 448.985 317.875 443.699 317.583C443.481 316.577 443.452 316.969 443.534 316.415C441.121 319.296 433.438 319.348 429.858 318.661L429.513 318.994C427.07 319.606 424.056 319.187 421.547 319.093C395.294 318.116 380.812 292.92 383.596 268.599C384.982 256.49 390.051 248.694 395.361 238.053C396.941 234.311 397.948 231.041 398.737 227.045C402.009 210.454 399.408 184.232 422.164 181.672C422.367 183.874 422.146 184.369 423.917 185.758L425 185.429C426.37 183.387 425.934 183.899 426.098 181.069Z"/><path fill="#5C3C14" transform="scale(0.195312 0.195312)" d="M429.858 318.661C432.633 313.752 439.167 313.127 443.534 316.415C441.121 319.296 433.438 319.348 429.858 318.661Z"/><path fill="#E15F4E" transform="scale(0.195312 0.195312)" d="M390.838 279.885C391.454 279.897 393.468 279.991 393.836 280.278C401.5 286.252 428.31 305.697 424.384 316.047C406.019 319.905 386.611 297.743 390.838 279.885Z"/><path fill="#5C3C14" transform="scale(0.195312 0.195312)" d="M422.164 181.672C422.045 175.409 422.435 159.929 430.511 158.618C434.693 159.952 433.078 164.212 431.433 167.018C428.536 171.961 426.936 175.435 426.098 181.069C425.934 183.899 426.37 183.387 425 185.429L423.917 185.758C422.146 184.369 422.367 183.874 422.164 181.672Z"/><path fill="#C6D94E" transform="scale(0.195312 0.195312)" d="M568.877 193.2L568.403 193.807C567.819 193.942 567.372 194.064 566.762 194.054C543.844 193.676 527.228 176.035 526.468 153.169C526.235 146.031 527.323 138.911 529.676 132.167C532.862 122.803 541.226 114.379 544.979 104.913C550.11 91.9668 550.471 72.3397 560.496 62.0714C564.322 58.1548 569.567 55.9501 575.042 55.9581C574.947 57.9446 574.625 59.1798 575.736 60.7677L576.735 61.3066C579.098 60.1288 578.831 59.1026 579.217 56.5677C581.085 56.6135 583.341 56.6014 585.165 56.7824C602.306 69.0116 598.608 86.9487 606.118 104.167C612.356 118.47 621.2 125.199 623.949 141.769C626.072 153.942 623.161 166.455 615.883 176.44C610.818 183.314 603.624 188.174 595.616 190.966C593.24 191.794 585.347 194.749 583.145 193.619C579.251 194.767 572.489 195.275 568.877 193.2Z"/><path fill="#5C3C14" transform="scale(0.195312 0.195312)" d="M568.877 193.2C573.427 189.572 579.193 188.662 583.145 193.619C579.251 194.767 572.489 195.275 568.877 193.2Z"/><path fill="#E15F4E" transform="scale(0.195312 0.195312)" d="M534.616 151.158C540.944 152.668 557.878 174.032 562.413 180.007C564.884 183.261 566.612 187.088 563.84 190.732C548.617 190.358 536.845 179.484 533.254 164.77C532.235 160.595 532.248 154.874 534.616 151.158Z"/><path fill="#5C3C14" transform="scale(0.195312 0.195312)" d="M575.042 55.9581C575.724 50.8117 578.377 33.8492 585.473 34.5903C591.714 38.5211 587.4 40.5523 584.432 45.0492C581.733 49.1389 580.17 51.5989 579.217 56.5677C578.831 59.1026 579.098 60.1288 576.735 61.3066L575.736 60.7677C574.625 59.1798 574.947 57.9446 575.042 55.9581Z"/><path fill="#C6D94E" transform="scale(0.195312 0.195312)" d="M283.821 225.214C304.988 226.633 304.783 257.671 310.585 272.556C314.731 283.194 323.061 291.817 326.468 302.703C328.477 309.19 329.213 316.004 328.636 322.771C326.65 345.26 309.669 360.364 287.56 362.263L286.983 361.657C283.18 363.166 277.069 362.586 273.122 361.673L272.91 362.132C272.276 362.442 271.851 362.594 271.117 362.583C239.538 362.127 224.01 330.079 233.328 302.204C237.002 291.214 245.721 283.154 249.864 272.521C256.527 255.42 254.426 226.46 279.624 225.316C279.513 227.255 279.248 228.14 280.263 229.775L281.322 230.351C283.955 229.121 283.528 228.041 283.821 225.214Z"/><path fill="#5C3C14" transform="scale(0.195312 0.195312)" d="M273.122 361.673C277.028 358.075 283.635 356.743 286.983 361.657C283.18 363.166 277.069 362.586 273.122 361.673Z"/><path fill="#E15F4E" transform="scale(0.195312 0.195312)" d="M238.012 319.766C242.17 319.997 247.043 324.932 249.457 328.137C254.536 334.881 273.232 349.857 268.49 358.835C249.45 360.544 232.169 337.395 238.012 319.766Z"/><path fill="#5C3C14" transform="scale(0.195312 0.195312)" d="M286.968 204.369C289.403 202.979 289.373 203.195 291.876 204.459C292.773 205.879 293.619 206.758 293.433 208.357C288.913 214.582 286.213 217.895 283.821 225.214C283.528 228.041 283.955 229.121 281.322 230.351L280.263 229.775C279.248 228.14 279.513 227.255 279.624 225.316C281.969 215.562 280.128 214.179 286.968 204.369Z"/><path fill="#C6D94E" transform="scale(0.195312 0.195312)" d="M189.729 451.66C210.378 455.416 209.739 482.691 215.631 498.094C217.84 503.868 221.379 509.954 224.917 515.011C239.696 536.138 237.569 567.028 214.765 581.85C208.355 585.955 201.068 588.492 193.495 589.258L192.982 588.678C191.844 588.949 190.695 589.172 189.538 589.345C186.775 589.738 181.246 590.034 178.987 588.355L179.035 588.883L178.528 589.422C175.868 589.774 173.506 589.164 170.923 588.826C138.334 584.55 127.875 544.276 144.052 518.996C148.179 512.546 153.309 505.032 155.838 497.908C160.005 486.164 160.537 472.874 167.382 462.123C172.031 454.776 177.265 453.465 185.191 451.692C185.018 453.884 184.691 454.861 185.694 456.686L186.688 457.227C189.411 455.756 189.12 454.694 189.729 451.66Z"/><path fill="#5C3C14" transform="scale(0.195312 0.195312)" d="M178.987 588.355C183.256 584.809 189.335 583.653 192.982 588.678C191.844 588.949 190.695 589.172 189.538 589.345C186.775 589.738 181.246 590.034 178.987 588.355Z"/><path fill="#E15F4E" transform="scale(0.195312 0.195312)" d="M144.307 546.27C150.005 547.929 157.665 557.488 161.768 562.178C166.328 567.39 179.067 578.906 173.434 585.79C155.585 587.685 136.678 561.804 144.307 546.27Z"/><path fill="#5C3C14" transform="scale(0.195312 0.195312)" d="M185.191 451.692C185.842 446.171 188.216 430.485 195.583 431.134C197.563 432.263 197.986 433.188 199.368 435.096C194.559 440.654 191.705 444.436 189.729 451.66C189.12 454.694 189.411 455.756 186.688 457.227L185.694 456.686C184.691 454.861 185.018 453.884 185.191 451.692Z"/><defs><linearGradient id="gradient_3" gradientUnits="userSpaceOnUse" x1="598.85571" y1="672.81555" x2="370.47415" y2="437.55435"><stop offset="0" stop-color="#225821"/><stop offset="1" stop-color="#337127"/></linearGradient></defs><path fill="url(#gradient_3)" transform="scale(0.195312 0.195312)" d="M477.162 390.983C483.416 390.971 490.051 390.858 496.272 391.278C536.064 393.961 572.96 410.721 601.273 438.946C632.443 469.774 649.937 511.822 649.831 555.663C649.85 563.676 646.703 600.467 641.198 605.17C647.624 622.75 647.305 634.649 638.356 651.073C629.377 662.252 621.264 667.736 606.507 669.804C605.49 669.946 604.718 670.015 603.693 669.918L601.559 671.544C590.593 684.76 571.232 697.342 555.47 704.76C552.42 706.195 540.397 710.524 538.601 712.072C526.146 717.99 499.091 720.232 485.421 721.311C480.918 721.666 455.073 718.986 451.51 717.373C445.52 715.231 437.568 714.11 430.372 711.372C393.032 697.166 370.243 678.545 347.396 646.61C328.815 620.081 320.061 588.005 319.957 555.817C319.716 512.721 336.542 471.281 366.758 440.551C390.903 415.924 422.116 399.423 456.064 393.34C462.307 392.23 470.923 390.996 477.162 390.983Z"/><path fill="#C6D94E" transform="scale(0.195312 0.195312)" d="M589.616 670.762C567.426 669.067 551.591 657.898 547.532 635.01C546.17 627.511 546.558 619.798 548.666 612.473C552.508 599.444 561.253 592.492 565.996 581.085C570.935 569.209 570.578 553.639 578.696 542.493C583.607 535.751 588.23 533.834 596.012 532.602C596.133 534.885 595.974 535.79 597.077 537.69L597.828 538.119C601.025 536.146 599.695 535.13 600.97 532.642C622.304 535.542 620.551 566.074 627.42 581.249C631.339 589.908 636.976 596.733 641.198 605.17C647.624 622.75 647.305 634.649 638.356 651.073C629.377 662.252 621.264 667.736 606.507 669.804C605.49 669.946 604.718 670.015 603.693 669.918L601.559 671.544L600.823 670.909C596.625 669.507 593.301 671.638 590.078 669.452L589.616 670.762Z"/><path fill="#5C3C14" transform="scale(0.195312 0.195312)" d="M590.078 669.452C594.363 665.57 599.866 665.287 603.693 669.918L601.559 671.544L600.823 670.909C596.625 669.507 593.301 671.638 590.078 669.452Z"/><path fill="#E15F4E" transform="scale(0.195312 0.195312)" d="M555.095 627.22C560.179 628.937 568.33 638.62 572.17 643.005C576.702 648.18 589.917 659.951 584.299 667.024C570.247 667.846 557.27 654.818 554.095 641.932C552.864 636.934 552.015 631.666 555.095 627.22Z"/><path fill="#5C3C14" transform="scale(0.195312 0.195312)" d="M605.315 510.408C607.41 512.126 608.394 512.912 610.218 514.96L609.951 515.458C607.227 520.443 601.969 526.951 600.97 532.642C599.695 535.13 601.025 536.146 597.828 538.119L597.077 537.69C595.974 535.79 596.133 534.885 596.012 532.602C598.587 523.455 598.147 517.825 605.315 510.408Z"/><path fill="#8F9B4B" transform="scale(0.195312 0.195312)" d="M590.078 669.452C593.301 671.638 596.625 669.507 600.823 670.909C597.977 672.18 592.729 671.289 589.616 670.762L590.078 669.452Z"/><path fill="#C6D94E" transform="scale(0.195312 0.195312)" d="M414.775 501.135C435.715 506.097 433.98 531.004 440.283 547.398C443.067 554.64 446.611 560.115 450.839 566.574C458.304 578.116 461.13 592.722 457.796 606.226C455.148 617.252 448.171 626.746 438.44 632.567C430.908 637.103 425.655 637.572 417.387 639.474C413.511 640.327 407.921 640.049 403.975 639.575C400.697 639.229 397.432 638.88 394.174 638.343C374.244 635.054 361.829 617.21 361.369 597.411C361.184 590.711 362.233 584.035 364.465 577.715C367.923 567.644 376.018 559.953 379.896 550.184C386.111 534.524 386.577 501.244 410.392 501.519C410.18 503.703 409.614 505.317 411.621 506.623L412.912 506.09C414.324 504.728 414.386 503.106 414.775 501.135Z"/><path fill="#5C3C14" transform="scale(0.195312 0.195312)" d="M403.975 639.575C404.999 634.219 413.764 633.93 417.136 637.672C417.343 638.58 417.424 638.57 417.387 639.474C413.511 640.327 407.921 640.049 403.975 639.575Z"/><path fill="#E15F4E" transform="scale(0.195312 0.195312)" d="M368.47 596.295C369.447 596.311 370.489 596.379 371.407 596.74C376.873 598.887 397.417 623.678 399.421 629.423C400.264 631.837 399.863 633.412 398.8 635.657C380.236 638.509 363.48 614.173 368.47 596.295Z"/><path fill="#5C3C14" transform="scale(0.195312 0.195312)" d="M410.392 501.519C410.521 496.318 414.112 479.609 420.867 480.178C422.612 481.235 422.525 481.269 423.754 482.967C424.126 486.663 418.958 491.336 417.187 494.899C415.896 497.497 415.592 498.404 414.775 501.135C414.386 503.106 414.324 504.728 412.912 506.09L411.621 506.623C409.614 505.317 410.18 503.703 410.392 501.519Z"/><path fill="#C6D94E" transform="scale(0.195312 0.195312)" d="M817.649 246.198C839.796 250.73 836.85 277.186 843.568 292.808C852.611 313.837 866.733 323.923 861.405 349.244C857.442 368.074 840.069 383.852 820.686 384.007C817.614 384.695 810.051 384.618 806.998 384.066C805.667 384.455 803.487 383.987 802.077 383.85C764.716 380.204 754.776 335.963 775.16 308.896C777.843 305.332 781.878 298.386 783.434 294.228C789.2 278.827 789.846 245.885 813.434 246.472C813.266 248.99 812.795 249.933 814.852 251.542L816.011 251.162C817.495 249.72 817.35 248.423 817.649 246.198Z"/><path fill="#5C3C14" transform="scale(0.195312 0.195312)" d="M806.998 384.066C809.54 379.11 818.312 378.625 820.686 384.007C817.614 384.695 810.051 384.618 806.998 384.066Z"/><path fill="#E15F4E" transform="scale(0.195312 0.195312)" d="M772.907 340.829C773.672 341.114 774.407 341.472 775.102 341.9C779.491 344.577 802.541 368.838 803.445 375.64C803.761 378.013 803.356 378.898 802.005 380.706C796.243 380.768 791.11 378.921 786.289 375.879C778.581 371.028 773.198 363.23 771.394 354.303C770.469 349.933 770.365 344.676 772.907 340.829Z"/><path fill="#5C3C14" transform="scale(0.195312 0.195312)" d="M818.124 229.677C819.725 226.632 820.628 224.616 824.515 225.904C827.462 228.372 826.57 230.16 824.414 232.645C821.4 236.707 818.537 241.118 817.649 246.198C817.35 248.423 817.495 249.72 816.011 251.162L814.852 251.542C812.795 249.933 813.266 248.99 813.434 246.472C813.615 240.112 814.731 235.111 818.124 229.677Z"/><path fill="#C6D94E" transform="scale(0.195312 0.195312)" d="M798.771 468.621C805.746 470.512 809.655 472.62 813.519 479.362C819.537 489.86 820.228 503.101 824.163 514.464C827.036 522.76 831.988 528.985 836.338 536.507C842.82 547.712 844.802 562.549 841.37 575.043C838.48 585.843 831.363 595.025 821.626 600.518C817.105 603.083 806.266 607.07 801.164 606.746C798.363 607.254 790.925 607.029 787.926 606.864C780.689 608.039 768.112 603.572 762.289 599.268C746.529 587.62 741.713 566.313 747.127 548.04C750.461 536.413 759.601 528.122 764.031 516.956C769.043 504.317 768.9 489.671 776.974 478.331C781.381 472.143 787.014 469.896 794.225 468.817C794.065 470.724 793.747 471.887 794.621 473.565L795.438 474.255C797.165 473.833 796.364 474.219 797.763 472.776C798.059 471.382 798.395 469.996 798.771 468.621Z"/><path fill="#5C3C14" transform="scale(0.195312 0.195312)" d="M787.926 606.864C789.311 601.601 798.043 601.803 801.221 605.349C801.215 605.687 801.232 606.453 801.164 606.746C798.363 607.254 790.925 607.029 787.926 606.864Z"/><path fill="#E15F4E" transform="scale(0.195312 0.195312)" d="M752.688 563.74C753.278 563.835 753.933 563.917 754.502 564.121C759.972 566.075 781.4 590.926 783.742 596.87C784.711 599.33 783.936 601.071 782.937 603.351C778.25 603.709 774.652 602.741 770.478 600.689C761.98 596.496 755.547 589.034 752.653 580.011C751.083 575.19 750.316 568.38 752.688 563.74Z"/><path fill="#C6D94E" transform="scale(0.195312 0.195312)" d="M627.986 291.178C649.239 293.391 648.302 324.84 654.767 339.95C659.338 350.634 667.38 358.622 670.652 369.717C675.869 387.408 671.657 407.894 656.533 419.421C650.661 423.896 639.111 428.924 631.65 428.804L631.057 428.471C627.808 429.481 620.802 429.259 617.517 428.569C616.94 428.905 616.628 428.987 615.932 428.974C593.027 428.562 576.093 411.51 574.846 388.503C574.476 381.279 575.504 374.052 577.873 367.218C581.4 356.862 589.404 349.956 593.443 340.212C600.408 323.413 598.507 292.461 623.604 291.42C623.487 293.528 623.28 294.699 624.606 296.259L625.661 296.342C627.828 294.604 627.51 294.269 627.986 291.178Z"/><path fill="#5C3C14" transform="scale(0.195312 0.195312)" d="M617.517 428.569C620.105 423.647 630.804 423.796 631.057 428.471C627.808 429.481 620.802 429.259 617.517 428.569Z"/><path fill="#E15F4E" transform="scale(0.195312 0.195312)" d="M582.378 385.644C586.517 386.856 592.211 392.539 594.753 396.031C599.125 402.037 617.881 417.784 612.102 425.097C594.094 427.839 575.43 402.737 582.378 385.644Z"/><path fill="#5C3C14" transform="scale(0.195312 0.195312)" d="M794.225 468.817C794.948 463.817 795.58 460.251 797.27 455.477C798.863 450.975 803.3 442.202 807.685 450.318C807.712 450.86 807.739 451.402 807.766 451.943C804.312 458.023 800.4 461.521 798.771 468.621C798.395 469.996 798.059 471.382 797.763 472.776C796.364 474.219 797.165 473.833 795.438 474.255L794.621 473.565C793.747 471.887 794.065 470.724 794.225 468.817Z"/><path fill="#5C3C14" transform="scale(0.195312 0.195312)" d="M623.604 291.42C625.561 285.69 624.98 276.105 630.505 270.846C634.042 267.478 638.427 273.388 636.913 275.445C632.792 281.046 630.052 284.377 627.986 291.178C627.51 294.269 627.828 294.604 625.661 296.342L624.606 296.259C623.28 294.699 623.487 293.528 623.604 291.42Z"/><defs><linearGradient id="gradient_4" gradientUnits="userSpaceOnUse" x1="720.74707" y1="667.77753" x2="302.65918" y2="936.27734"><stop offset="0" stop-color="#3D2C06"/><stop offset="1" stop-color="#5A310B"/></linearGradient></defs><path fill="url(#gradient_4)" transform="scale(0.195312 0.195312)" d="M331.789 649.264C341.958 658.381 350.856 668.139 360.546 677.658C389.956 706.553 420.838 734 449.959 763.196C450.369 750.449 450.323 729.305 451.51 717.373C455.073 718.986 480.918 721.666 485.421 721.311C499.091 720.232 526.146 717.99 538.601 712.072C539.517 729.637 538.044 746.726 540.539 764.545C545.375 761.154 551.771 755.309 556.199 751.221C567.997 740.311 579.582 729.062 591.021 717.767C611.658 697.391 633.159 677.764 653.819 657.438C668.694 663.544 704.285 663.042 720.636 662.997C710.987 671.213 699.856 682.362 690.648 691.183L645.88 733.795C626.05 752.509 606.351 771.361 586.785 790.35C576.383 800.458 555.388 819.192 548.862 831.278C546.065 845.394 550.091 872.933 551.818 886.173C556.908 925.198 556.723 970.687 594.303 993.471C610.603 1003.35 629.216 1006.3 643.007 1018.99C590.001 1019.39 536.992 1019.39 483.985 1018.99C440.222 1019.01 394.956 1019.77 351.321 1018.9C372.816 1003.67 396.252 1001.59 413.525 980.728C419.042 974.066 425.079 965.558 427.584 957.122C436.159 927.944 438.543 897.104 441.454 866.934C442.455 856.562 446.578 828.227 440.677 820.212C423.822 797.321 402.879 776.661 383.456 755.864C360.748 731.346 337.565 707.272 313.921 683.656C304.009 673.685 290.773 659.503 280.445 650.872C285.331 650.341 295.692 651.624 301.18 651.472C311.516 651.185 321.538 650.57 331.789 649.264Z"/></svg>