<?xml version="1.0" encoding="utf-8" ?><svg xmlns="http://www.w3.org/2000/svg" xmlns:xlink="http://www.w3.org/1999/xlink" width="200" height="200" viewBox="0 0 200 200"><defs><linearGradient id="gradient_0" gradientUnits="userSpaceOnUse" x1="868.49738" y1="598.71387" x2="569.151" y2="241.06343"><stop offset="0" stop-color="#256022"/><stop offset="1" stop-color="#539836"/></linearGradient></defs><path fill="url(#gradient_0)" transform="scale(0.195312 0.195312)" d="M249.832 207.033C252.533 195.138 255.301 182.923 259.72 171.541C303.573 58.6035 409.86 -3.74247 529.22 6.60781C542.573 7.15327 557.38 10.7789 570.24 14.1284C652.112 35.4537 720.674 99.0951 747.337 179.489C750.462 188.913 751.826 196.782 754.21 206.163C852.627 228.363 927.067 302.947 940.047 404.374C951.78 496.056 906.987 581.326 829.407 629.828C807.23 643.499 782.838 653.194 757.327 658.478C749.605 660.012 742.135 660.914 734.298 661.569C731.83 661.775 721.828 662.314 720.453 663.252C717.023 662.776 705.991 662.863 702.082 663.022C690.876 663.48 664.008 661.646 653.921 657.423C651.34 655.996 643.751 653.451 640.562 652.078C634.703 649.555 629.812 647.047 624.151 644.136C604.069 675.809 573.796 699.694 538.32 711.856C510.414 721.423 480.452 723.332 451.557 717.385C408.685 708.56 371.076 683.061 347.011 646.499C344.469 646.882 333.134 648.538 331.476 649.307C322.769 650.931 309.545 651.407 300.556 651.531C294.298 651.617 287.097 650.802 280.643 650.919C274.835 649.214 262.124 649.792 255.214 648.878C235.468 646.267 215.909 640.502 197.775 632.454C141.849 608.055 98.0102 562.295 76.0308 505.375C54.5499 449.202 56.4037 386.775 81.1801 331.976C109.306 269.023 168.581 223.565 235.24 209.837C237.701 209.33 248.534 207.743 249.832 207.033Z"/><defs><linearGradient id="gradient_1" gradientUnits="userSpaceOnUse" x1="419.08282" y1="578.44952" x2="131.93454" y2="263.32599"><stop offset="0" stop-color="#4A9433"/><stop offset="1" stop-color="#98CF4B"/></linearGradient></defs><path fill="url(#gradient_1)" transform="scale(0.195312 0.195312)" d="M249.832 207.033L250.739 207.015C253.882 206.931 258.039 206.214 261.279 205.829C304.203 200.74 342.99 210.929 381.567 229.817C389.043 234.033 396.957 238.487 404.026 243.371C432.358 262.75 454.964 289.383 469.484 320.487C473.239 328.639 476.306 335.121 478.784 343.805C479.869 347.609 481.437 356.509 482.836 359.429C481.598 365.131 480.328 370.717 479.186 376.447C478.393 380.427 477.693 387.435 476.572 391.019C417.453 393.977 364.45 428.381 337.677 481.173C310.905 533.966 314.466 597.055 347.011 646.499C344.469 646.882 333.134 648.538 331.476 649.307C322.769 650.931 309.545 651.407 300.556 651.531C294.298 651.617 287.097 650.802 280.643 650.919C274.835 649.214 262.124 649.792 255.214 648.878C235.468 646.267 215.909 640.502 197.775 632.454C141.849 608.055 98.0102 562.295 76.0308 505.375C54.5499 449.202 56.4037 386.775 81.1801 331.976C109.306 269.023 168.581 223.565 235.24 209.837C237.701 209.33 248.534 207.743 249.832 207.033Z"/><path fill="#FBB089" transform="scale(0.195312 0.195312)" d="M146.789 322.672C154.624 322.092 163.108 322.596 169.517 326.605C202.814 347.432 188.981 393.575 158.138 409.43C151.454 412.867 148.356 415.214 141.217 417.265C137.951 416.466 135.342 415.606 132.147 414.541C118.129 408.646 104.987 400.96 97.1505 387.182C86.0105 367.564 87.6668 338.766 109.115 326.863C118.991 321.382 126.959 322.572 137.232 325.602C140.855 324.292 143.057 323.585 146.789 322.672Z"/><path fill="#F38062" transform="scale(0.195312 0.195312)" d="M368.784 273.673C374.039 273.275 378.759 273.688 383.756 275.389C392.747 278.474 400.154 284.991 404.36 293.516C419.006 323.459 396.259 353.846 369.526 365.34C362.14 368.515 359.356 367.744 352.378 365.187C336.653 358.301 323.201 349.727 315.975 333.89C308.232 316.922 309.913 294.928 324.537 282.266C334.621 273.536 345.617 272.546 357.607 277.04C361.719 275.815 364.378 274.537 368.784 273.673Z"/><path fill="#DA684B" transform="scale(0.195312 0.195312)" d="M367.634 286.307C371.091 287.17 379.198 303.291 380.55 307.258C385.535 321.878 383.875 334.496 377.203 348.199C376.562 349.413 376.437 349.89 375.404 350.789C375.167 348.576 377.675 339.079 378.084 336.146C380.83 316.448 377.706 302.789 367.634 286.307Z"/><path fill="#F38062" transform="scale(0.195312 0.195312)" d="M236.991 519.682C243.866 519.464 249.627 520.287 255.774 523.556C264.308 528.056 270.658 535.817 273.379 545.073C277.052 557.411 275.087 571.215 269.058 582.529C261.96 595.847 242.966 609.703 228.682 613.776C224.382 612.835 221.091 611.652 217.051 609.99C189.118 597.201 170.043 574.305 180.932 542.597C187.15 524.491 206.759 515.68 224.438 522.964C229.543 520.862 231.524 520.167 236.991 519.682Z"/><path fill="#DA684B" transform="scale(0.195312 0.195312)" d="M234.711 532.746C236.695 533.667 238.66 537.295 239.933 539.149C252.651 557.669 252.682 575.734 243.218 595.403L241.804 597.553C241.312 597.098 244.025 587.487 244.279 585.673C247.469 562.965 245.712 551.863 234.711 532.746Z"/><defs><linearGradient id="gradient_2" gradientUnits="userSpaceOnUse" x1="625.74005" y1="288.8364" x2="466.09082" y2="48.879124"><stop offset="0" stop-color="#7DB941"/><stop offset="1" stop-color="#B5DD51"/></linearGradient></defs><path fill="url(#gradient_2)" transform="scale(0.195312 0.195312)" d="M249.832 207.033C252.533 195.138 255.301 182.923 259.72 171.541C303.573 58.6035 409.86 -3.74247 529.22 6.60781C542.573 7.15327 557.38 10.7789 570.24 14.1284C652.112 35.4537 720.674 99.0951 747.337 179.489C750.462 188.913 751.826 196.782 754.21 206.163C689.322 193.165 630.009 201.894 573.763 238.497C543.601 258.125 517.555 286.099 500.201 317.652C492.933 330.867 487.644 345.12 482.836 359.429C481.437 356.509 479.869 347.609 478.784 343.805C476.306 335.121 473.239 328.639 469.484 320.487C454.964 289.383 432.358 262.75 404.026 243.371C396.957 238.487 389.043 234.033 381.567 229.817C342.99 210.929 304.203 200.74 261.279 205.829C258.039 206.214 253.882 206.931 250.739 207.015L249.832 207.033Z"/><path fill="#D2E653" transform="scale(0.195312 0.195312)" d="M249.832 207.033C252.533 195.138 255.301 182.923 259.72 171.541C303.573 58.6035 409.86 -3.74247 529.22 6.60781C527.988 8.96219 519.707 13.1774 516.995 14.8013C485.16 33.8626 459.583 62.2335 438.399 92.4539C449.721 125.739 431.21 149.343 401.533 162.633C391.937 183.724 387.164 207.579 381.567 229.817C342.99 210.929 304.203 200.74 261.279 205.829C258.039 206.214 253.882 206.931 250.739 207.015L249.832 207.033Z"/><path fill="#F69876" transform="scale(0.195312 0.195312)" d="M391.043 165.751C387.041 164.697 384.139 163.146 380.505 161.31C364.634 153.19 351.493 142.314 345.954 124.766C339.221 103.432 347.843 78.6651 370.541 71.9238C378.349 69.6049 387.007 70.332 394.225 74.3245C414.59 67.5959 428.544 73.6776 438.399 92.4539C449.721 125.739 431.21 149.343 401.533 162.633C397.427 164.142 395.299 164.785 391.043 165.751Z"/><path fill="#F38062" transform="scale(0.195312 0.195312)" d="M384.914 82.9543C385.501 84.1455 383.82 86.0168 382.882 87.4506C378.738 93.7843 376.199 101.628 374.901 109.063C373.393 117.995 373.423 127.119 374.988 136.041C375.655 139.944 378.635 148.104 378.273 150.292L377.35 149.308C364.513 123.113 366.669 105.798 384.914 82.9543Z"/><path fill="#FBB089" transform="scale(0.195312 0.195312)" d="M628.343 89.6726C635.506 89.2634 639.189 90.5611 645.83 92.9563C679.187 79.7854 700.143 116.271 689.846 144.908C683.525 162.487 673.089 170.247 657.012 178.457C641.607 186.613 639.612 185.188 625.139 176.72C607.369 166.322 593.951 149.349 594.543 127.909C595.117 107.153 607.344 92.2118 628.343 89.6726Z"/><path fill="#F69876" transform="scale(0.195312 0.195312)" d="M634.445 103.409L634.606 103.577C634.998 105.096 632.539 107.517 631.483 109.802C629.391 114.325 627.83 118.429 626.614 123.271C624.175 133.246 623.763 143.609 625.404 153.745C625.772 155.984 629.336 168.782 629.248 169.22L628.29 168.292C615.059 145.59 618.151 123.395 634.445 103.409Z"/><defs><linearGradient id="gradient_3" gradientUnits="userSpaceOnUse" x1="600.35504" y1="671.14771" x2="368.64645" y2="439.35284"><stop offset="0" stop-color="#225821"/><stop offset="1" stop-color="#337028"/></linearGradient></defs><path fill="url(#gradient_3)" transform="scale(0.195312 0.195312)" d="M476.572 391.019C538.141 387.938 596.292 419.44 627.342 472.695C658.392 525.95 657.161 592.074 624.151 644.136C604.069 675.809 573.796 699.694 538.32 711.856C510.414 721.423 480.452 723.332 451.557 717.385C408.685 708.56 371.076 683.061 347.011 646.499C314.466 597.055 310.905 533.966 337.677 481.173C364.45 428.381 417.453 393.977 476.572 391.019Z"/><path fill="#FBB089" transform="scale(0.195312 0.195312)" d="M430.08 587.121C465.039 584.064 480.394 621.439 465.522 649.35C457.551 664.31 440.411 677.412 424.338 682.35C420.37 681.352 418.639 680.84 414.87 679.294C395.63 671.159 380.436 661.448 374.245 640.266C368.048 619.068 376.801 594.937 399.247 588.548C405.375 586.804 413.994 587.411 419.623 590.645C423.582 588.75 425.812 587.899 430.08 587.121Z"/><path fill="#F69876" transform="scale(0.195312 0.195312)" d="M431.015 601.629C435.141 604.113 441.343 616.63 442.799 621.616C447.653 638.228 445.787 649.946 438.123 664.792C437.82 665.273 437.342 665.913 437.005 666.389C436.796 663.779 439.713 655.541 440.136 652.14C442.792 630.819 440.355 619.829 431.015 601.629Z"/><path fill="#F38062" transform="scale(0.195312 0.195312)" d="M572.03 446.689C576.637 446.446 581.61 447.377 585.908 449.018C595.078 452.551 602.476 459.572 606.482 468.546C611.243 479.337 610.73 493.343 606.243 504.454C599.552 521.023 584.68 532.071 568.887 539.369C562.474 542.333 557.77 540.085 551.844 537.621C550.969 537.242 550.1 536.85 549.237 536.445C533.839 529.314 521.229 520.116 515.287 503.553C511.2 492.035 510.722 478.867 516.133 467.668C523.969 451.447 541.574 442.285 558.626 450.34C564.267 447.848 565.932 447.248 572.03 446.689Z"/><path fill="#F38062" transform="scale(0.195312 0.195312)" d="M738.787 543.653C745.654 542.837 750.825 544.479 756.864 547.3C763.832 544.125 771.951 543.13 779.206 545.589C801.534 553.157 808.248 578.126 801.511 598.914C796.071 615.696 784.517 625.24 769.525 632.961C762.825 636.242 759.831 637.549 752.642 639.282C719.821 628.796 690.883 591.829 713.609 558.144C719.225 549.821 729.001 545.077 738.787 543.653Z"/><path fill="#FBB089" transform="scale(0.195312 0.195312)" d="M833.805 337.613C842.063 336.971 846.007 337.805 853.391 341.375C860.317 338.023 867.908 337.129 875.216 339.458C897.582 346.586 904.49 372.134 897.718 392.75C892.041 410.032 881.631 418.68 866.172 426.755C848.135 435.02 846.654 433.982 829.785 423.459C824.746 420.315 821.016 416.938 816.886 412.774C793.491 389.19 796.629 344.788 833.805 337.613Z"/><path fill="#F69876" transform="scale(0.195312 0.195312)" d="M843.411 350.053L843.663 350.219C843.31 352.112 840.498 354.94 839.247 357.509C836.123 363.923 834.015 370.234 832.914 377.279C831.51 386.82 831.826 396.534 833.848 405.963C834.364 408.35 836.446 415.034 836.328 416.796L835.395 415.788C830.59 406.947 827.706 398.687 827.641 388.5C827.693 374.12 833.35 360.327 843.411 350.053Z"/><path fill="#F38062" transform="scale(0.195312 0.195312)" d="M628.216 263.108C633.412 262.585 638.661 263.098 643.659 264.616C665.703 271.525 673.039 296.782 666.173 317.137C660.238 334.733 646.305 345.969 630.095 353.857C622.855 357.381 620.038 356.796 612.822 354.405C596.56 347.92 581.776 338.043 574.859 321.411C570.12 310.018 569.357 296.741 574.104 285.249C577.697 276.318 584.739 269.212 593.638 265.54C602.045 262.136 609.745 262.921 617.886 266.376C621.655 264.583 624.184 263.823 628.216 263.108Z"/><defs><linearGradient id="gradient_4" gradientUnits="userSpaceOnUse" x1="719.33545" y1="665.54193" x2="301.87778" y2="938.57007"><stop offset="0" stop-color="#3C2C06"/><stop offset="1" stop-color="#5B310C"/></linearGradient></defs><path fill="url(#gradient_4)" transform="scale(0.195312 0.195312)" d="M331.476 649.307C335.193 652.016 341.526 658.623 344.883 662.02C351.184 668.467 357.571 674.829 364.042 681.104C382.856 699.172 401.782 717.121 420.821 734.95C430.42 744.077 440.155 754.165 449.849 762.963L450.991 729.725C451.061 727.822 451.299 718.523 451.557 717.385C480.452 723.332 510.414 721.423 538.32 711.856C538.585 713.37 538.589 728.116 538.615 730.233C538.7 741.573 539.213 752.907 540.156 764.208C555.473 752.968 569.623 738.148 583.379 724.981L653.921 657.423C664.008 661.646 690.876 663.48 702.082 663.022C705.991 662.863 717.023 662.776 720.453 663.252C712.248 671.258 702.338 679.884 693.809 688.016L607.642 770.32L576.186 800.935C569.024 807.92 551.982 823.261 548.518 832.621C546.314 838.575 548.562 858.434 549.57 865.619C554.332 899.549 553.707 935.923 569.086 967.286C575.211 979.764 584.391 986.391 595.086 993.903C608.026 1002.99 632.16 1006.95 641.953 1018.53L642.433 1019.1C625.353 1020.05 605.563 1019.04 588.142 1018.99L485.059 1019.02L403.626 1019.09C388.236 1019.19 365.956 1020.06 351.168 1018.81C356.149 1014.88 364.398 1010.82 370.142 1008.22C387.152 1000.55 403.437 993.923 415.258 978.667C419.933 972.634 425.018 965.209 427.304 957.699C436.848 926.34 438.977 891.783 442.089 859.219C443.026 849.411 444.247 838.793 443.508 829.115C443.286 826.21 442.346 822.552 440.652 820.238C429.771 805.38 416.755 791.672 404.259 778.253C385.896 758.411 367.343 738.747 348.603 719.262C333.761 703.797 318.757 688.489 303.592 673.341C297.584 667.308 286.759 655.839 280.643 650.919C287.097 650.802 294.298 651.617 300.556 651.531C309.545 651.407 322.769 650.931 331.476 649.307Z"/></svg>