<?xml version="1.0" encoding="utf-8" ?><svg xmlns="http://www.w3.org/2000/svg" xmlns:xlink="http://www.w3.org/1999/xlink" width="200" height="200" viewBox="0 0 200 200"><defs><linearGradient id="gradient_0" gradientUnits="userSpaceOnUse" x1="868.98584" y1="598.14807" x2="565.29675" y2="244.09473"><stop offset="0" stop-color="#256023"/><stop offset="1" stop-color="#529935"/></linearGradient></defs><path fill="url(#gradient_0)" transform="scale(0.195312 0.195312)" d="M378.064 36.8826C382.886 33.0228 394.301 27.9754 400.239 25.5058C432.752 11.9837 466.017 5.33058 501.259 5.91544C511.807 6.0905 518.925 5.76798 529.705 6.86029C540.054 7.48845 549.156 9.2447 559.252 11.5017C597.481 19.8638 633.264 36.9352 663.817 61.3872C669.104 65.605 676.582 71.3548 681.029 76.3945C686.036 80.678 698.66 92.6927 701.678 98.4206C728.415 130.899 745.796 164.987 754.228 206.3C777.887 211.772 800.693 220.436 822.017 232.054C826.205 234.295 833.154 238.009 836.495 241.052C854.581 240.228 872.189 246.996 885.067 259.721C897.946 272.446 904.924 289.972 904.316 308.066C937.779 359.051 949.528 421.275 936.962 480.952C924.733 539.16 884.741 593.96 835.178 626.235C808.562 643.72 778.52 655.32 747.06 660.259C740.137 661.359 724.946 661.731 720.189 662.832L719.693 663.038C712.187 662.772 703.48 662.956 695.876 662.928C689.307 663.533 659.105 660.512 654.356 657.341C652.931 656.549 644.914 653.663 642.771 652.842C635.682 650.125 630.873 647.726 624.326 644.022C604.209 675.801 573.838 699.754 538.246 711.911C510.357 721.437 480.426 723.319 451.564 717.362C408.594 708.494 370.926 682.877 346.886 646.173C345.106 646.526 332.532 648.881 331.889 649.324C322.371 650.666 310.809 651.317 301.122 651.509C294.626 651.637 287.164 650.686 280.537 650.874C278.012 649.861 256.015 649.071 250.258 648.157C212.787 642.214 180.202 626.446 149.77 604.299C148.097 603.541 142.7 602.101 140.705 601.549C132.987 599.415 125.534 595.392 119.396 590.179C103.452 576.641 96.9353 563.213 94.8733 542.9C72.9265 507.772 61.2313 467.211 61.1068 425.791C60.2957 368.364 82.5004 313.001 122.768 272.051C120.119 246.52 132.709 221.813 154.923 208.953C177.137 196.092 204.832 197.476 225.654 212.486C233.802 210.356 241.338 208.29 249.755 207.476C257.229 160.398 288.957 108.868 323.486 76.7457C332.8 54.3032 353.851 38.9275 378.064 36.8826Z"/><defs><linearGradient id="gradient_1" gradientUnits="userSpaceOnUse" x1="420.2261" y1="578.297" x2="135.382" y2="261.56589"><stop offset="0" stop-color="#4A9633"/><stop offset="1" stop-color="#98CF4B"/></linearGradient></defs><path fill="url(#gradient_1)" transform="scale(0.195312 0.195312)" d="M122.768 272.051C120.119 246.52 132.709 221.813 154.923 208.953C177.137 196.092 204.832 197.476 225.654 212.486C233.802 210.356 241.338 208.29 249.755 207.476C297.615 198.913 338.527 209.204 381.563 229.811C427.108 254.024 462.462 292.655 478.535 342.464C479.452 345.305 481.882 356.938 483 358.308L483.334 358.381C480.032 371.236 479.148 378.037 476.989 390.962C462.252 391.67 447.677 394.352 433.653 398.936C412.925 405.711 393.746 416.527 377.224 430.76C314.507 484.788 301.53 576.925 346.886 646.173C345.106 646.526 332.532 648.881 331.889 649.324C322.371 650.666 310.809 651.317 301.122 651.509C294.626 651.637 287.164 650.686 280.537 650.874C278.012 649.861 256.015 649.071 250.258 648.157C212.787 642.214 180.202 626.446 149.77 604.299C148.097 603.541 142.7 602.101 140.705 601.549C132.987 599.415 125.534 595.392 119.396 590.179C103.452 576.641 96.9353 563.213 94.8733 542.9C72.9265 507.772 61.2313 467.211 61.1068 425.791C60.2957 368.364 82.5004 313.001 122.768 272.051Z"/><path fill="#F57819" transform="scale(0.195312 0.195312)" d="M94.8733 542.9C95.4177 532.784 95.6232 525.179 99.5893 515.708C118.654 470.178 177.855 460.621 210.384 497.798C221.467 510.619 227.008 527.315 225.791 544.219C224.597 561.607 216.505 577.798 203.316 589.192C192.161 598.762 178.673 604.078 163.829 604.769C159.714 604.96 153.651 603.841 149.77 604.299C148.097 603.541 142.7 602.101 140.705 601.549C132.987 599.415 125.534 595.392 119.396 590.179C103.452 576.641 96.9353 563.213 94.8733 542.9Z"/><path fill="#F57819" transform="scale(0.195312 0.195312)" d="M122.768 272.051C120.119 246.52 132.709 221.813 154.923 208.953C177.137 196.092 204.832 197.476 225.654 212.486C249.946 229.999 259.168 261.818 248.006 289.606C236.844 317.395 208.174 333.993 178.518 329.836C148.861 325.679 125.86 301.837 122.768 272.051Z"/><path fill="#F57819" transform="scale(0.195312 0.195312)" d="M377.224 430.76C366.494 429 361.574 430.16 350.579 424.995C334.982 417.82 322.963 404.625 317.271 388.428C311.193 371.093 311.993 352.957 320.142 336.403C327.781 321.166 341.219 309.633 357.439 304.395C374.14 299.003 392.294 300.429 407.947 308.362C423.285 316.184 434.866 329.804 440.12 346.199C445.846 364.426 442.375 382.368 433.653 398.936C412.925 405.711 393.746 416.527 377.224 430.76Z"/><defs><linearGradient id="gradient_2" gradientUnits="userSpaceOnUse" x1="627.46753" y1="289.306" x2="465.18176" y2="50.042393"><stop offset="0" stop-color="#7DBA41"/><stop offset="1" stop-color="#B6DE50"/></linearGradient></defs><path fill="url(#gradient_2)" transform="scale(0.195312 0.195312)" d="M378.064 36.8826C382.886 33.0228 394.301 27.9754 400.239 25.5058C432.752 11.9837 466.017 5.33058 501.259 5.91544C511.807 6.0905 518.925 5.76798 529.705 6.86029C540.054 7.48845 549.156 9.2447 559.252 11.5017C597.481 19.8638 633.264 36.9352 663.817 61.3872C669.104 65.605 676.582 71.3548 681.029 76.3945C686.036 80.678 698.66 92.6927 701.678 98.4206C728.415 130.899 745.796 164.987 754.228 206.3C689.482 193.101 630.254 201.713 574.246 238.267C530.346 266.918 498.852 308.216 483.334 358.381L483 358.308C481.882 356.938 479.452 345.305 478.535 342.464C462.462 292.655 427.108 254.024 381.563 229.811C338.527 209.204 297.615 198.913 249.755 207.476C257.229 160.398 288.957 108.868 323.486 76.7457C332.8 54.3032 353.851 38.9275 378.064 36.8826Z"/><path fill="#F57819" transform="scale(0.195312 0.195312)" d="M378.064 36.8826C408.526 34.3098 436.666 53.3075 445.668 82.5231C450.866 99.3954 448.98 117.656 440.441 133.109C431.903 148.562 417.448 159.878 400.397 164.457C396.878 175.526 392.654 186.175 389.596 197.535C387.697 204.759 385.9 212.009 384.206 219.284C383.807 220.977 382.109 228.574 381.563 229.811C338.527 209.204 297.615 198.913 249.755 207.476C257.229 160.398 288.957 108.868 323.486 76.7457C332.8 54.3032 353.851 38.9275 378.064 36.8826Z"/><path fill="#D3E753" transform="scale(0.195312 0.195312)" d="M249.755 207.476C257.229 160.398 288.957 108.868 323.486 76.7457C313.992 99.6229 318.321 125.907 334.651 144.531C350.982 163.154 376.475 170.881 400.397 164.457C396.878 175.526 392.654 186.175 389.596 197.535C387.697 204.759 385.9 212.009 384.206 219.284C383.807 220.977 382.109 228.574 381.563 229.811C338.527 209.204 297.615 198.913 249.755 207.476Z"/><path fill="#F57819" transform="scale(0.195312 0.195312)" d="M701.678 98.4206C701.659 101.178 704.939 106.857 705.967 110.369C711.394 128.918 710.167 145.594 700.964 162.625C673.803 212.886 596.155 203.294 581.396 148.281C576.77 131.195 579.237 112.966 588.238 97.7248C597.161 82.8807 611.608 72.1821 628.41 67.976C643.605 64.2577 661.03 66.2452 674.838 73.6788C677.056 74.8733 678.345 76.3901 681.029 76.3945C686.036 80.678 698.66 92.6927 701.678 98.4206Z"/><path fill="#D3E753" transform="scale(0.195312 0.195312)" d="M378.064 36.8826C382.886 33.0228 394.301 27.9754 400.239 25.5058C432.752 11.9837 466.017 5.33058 501.259 5.91544C511.807 6.0905 518.925 5.76798 529.705 6.86029C528.148 8.59971 508.344 20.0513 503.203 23.8356C480.13 40.8198 462.808 59.6988 445.668 82.5231C436.666 53.3075 408.526 34.3098 378.064 36.8826Z"/><path fill="#2A6424" transform="scale(0.195312 0.195312)" d="M476.989 390.962C538.492 388.005 596.524 419.539 627.504 472.75C658.485 525.962 657.26 591.997 624.326 644.022C604.209 675.801 573.838 699.754 538.246 711.911C510.357 721.437 480.426 723.319 451.564 717.362C408.594 708.494 370.926 682.877 346.886 646.173C301.53 576.925 314.507 484.788 377.224 430.76C393.746 416.527 412.925 405.711 433.653 398.936C447.677 394.352 462.252 391.67 476.989 390.962Z"/><path fill="#F57819" transform="scale(0.195312 0.195312)" d="M437.008 536.713C472.653 533.809 503.917 560.317 506.881 595.957C509.845 631.597 483.389 662.906 447.754 665.93C412.035 668.961 380.635 642.428 377.664 606.704C374.693 570.979 401.278 539.624 437.008 536.713Z"/><path fill="#F57819" transform="scale(0.195312 0.195312)" d="M836.495 241.052C854.581 240.228 872.189 246.996 885.067 259.721C897.946 272.446 904.924 289.972 904.316 308.066C903.136 343.226 874.16 371.045 838.981 370.792C803.803 370.539 775.23 342.306 774.556 307.133C773.882 271.96 801.352 242.653 836.495 241.052Z"/><path fill="#2A6424" transform="scale(0.195312 0.195312)" d="M695.876 662.928C702.384 661.982 713.742 661.152 720.189 662.832L719.693 663.038C712.187 662.772 703.48 662.956 695.876 662.928Z"/><path fill="#F57819" transform="scale(0.195312 0.195312)" d="M788.021 508.911C823.693 507.632 853.69 535.426 855.13 571.092C856.57 606.758 828.911 636.879 793.252 638.48C757.365 640.091 727.008 612.217 725.559 576.323C724.11 540.429 752.121 510.198 788.021 508.911Z"/><path fill="#F57819" transform="scale(0.195312 0.195312)" d="M607.784 295.162C643.455 292.496 674.52 319.281 677.133 354.956C679.747 390.631 652.916 421.657 617.237 424.218C581.633 426.773 550.685 400.01 548.077 364.409C545.469 328.809 572.187 297.822 607.784 295.162Z"/><defs><linearGradient id="gradient_3" gradientUnits="userSpaceOnUse" x1="721.17615" y1="669.29169" x2="301.5437" y2="935.64392"><stop offset="0" stop-color="#3D2D06"/><stop offset="1" stop-color="#5B310B"/></linearGradient></defs><path fill="url(#gradient_3)" transform="scale(0.195312 0.195312)" d="M331.889 649.324C341.836 658.542 351.223 668.416 360.928 677.906C388.1 704.476 416.342 729.902 443.38 756.608C445.502 758.703 447.741 760.915 449.935 762.918C450.077 751.081 450.865 739.146 451.072 727.297C451.126 724.182 451.195 720.426 451.564 717.362C480.426 723.319 510.357 721.437 538.246 711.911C538.698 716.846 538.484 724.43 538.632 729.602C538.969 741.376 539.212 752.783 540.354 764.539C555.522 752.395 568.216 739.773 582.221 726.296L624.37 685.828C632.417 678.023 645.882 664.059 654.356 657.341C659.105 660.512 689.307 663.533 695.876 662.928C703.48 662.956 712.187 662.772 719.693 663.038C717.75 665.797 711.295 671.576 708.581 674.127L688.662 692.909L596.377 781.197C585.237 792.041 574 802.799 562.927 813.714C557.04 819.516 547.631 828.872 547.581 837.624C547.491 853.533 550.157 869.497 551.912 885.255C554.699 910.285 556.391 935.526 565.45 959.296C569.561 970.102 575.359 978.363 584.117 985.95C589.375 990.533 595.182 994.445 601.405 997.596C610.311 1002.12 638.344 1011.12 641.794 1018.84C636.548 1020.37 595.085 1019.07 586.897 1019.03L469.31 1019L394.435 1019.27C384.737 1019.43 375.036 1019.42 365.337 1019.24C361.535 1019.17 356.416 1019.39 352.804 1018.79C353.133 1015.88 367.5 1009.26 370.855 1007.76C387.258 1000.41 401.183 995.035 413.408 981.018C419.566 974.034 424.341 965.942 427.478 957.175C436.201 932.086 438.6 893.314 441.44 866.706C442.676 855.125 444.038 841.033 443.606 829.455C443.457 825.454 442.421 822.631 440.061 819.405C429.981 805.625 418.209 792.82 406.519 780.461L375.3 747.314C354.047 724.622 332.441 702.263 310.49 680.245C301.666 671.4 289.658 658.67 280.537 650.874C287.164 650.686 294.626 651.637 301.122 651.509C310.809 651.317 322.371 650.666 331.889 649.324Z"/></svg>