<?xml version="1.0" encoding="utf-8" ?><svg xmlns="http://www.w3.org/2000/svg" xmlns:xlink="http://www.w3.org/1999/xlink" width="200" height="200" viewBox="0 0 200 200"><defs><linearGradient id="gradient_0" gradientUnits="userSpaceOnUse" x1="868.10431" y1="598.90027" x2="569.27588" y2="240.9097"><stop offset="0" stop-color="#256022"/><stop offset="1" stop-color="#529835"/></linearGradient></defs><path fill="url(#gradient_0)" transform="scale(0.195312 0.195312)" d="M249.122 207.247C252.528 195.391 254.768 184.775 259.092 172.966C276.481 126.311 306.885 85.6211 346.699 55.722C389.149 23.2231 446.618 4.95765 499.691 5.87088C510.041 6.04897 518.61 5.36141 529.086 6.74681C535.792 7.23117 542.961 8.34291 549.539 9.49724C638.647 25.1357 715.783 89.8076 745.873 175.239C749.446 185.383 751.891 195.712 754.319 206.203C762.168 207.593 773.798 211.274 781.337 213.815C829.43 229.513 871.193 260.276 900.444 301.553C935.532 352.023 949.077 414.388 938.086 474.865C927.639 533.309 890.377 587.503 842.019 621.49C805.098 647.44 765.832 660.932 720.794 662.559L720.228 662.981C710.51 663.008 690.82 663.548 681.906 662.311C676.17 662.087 659.035 659.682 654.462 657.417C652.071 656.07 644.246 653.46 641.213 652.222C635.117 649.734 629.817 647.217 623.874 644.379C603.777 675.908 573.564 699.673 538.188 711.778C523.936 716.655 509.084 719.557 494.044 720.402C484.205 720.955 474.337 720.625 464.557 719.417C460.226 718.881 455.917 718.174 451.641 717.297C408.654 708.478 370.954 682.893 346.881 646.203L332.04 649.341C321.466 650.718 312.161 651.347 301.503 651.494C296.178 651.567 285.469 650.449 280.956 650.963C275.752 649.312 267.848 649.634 262.202 649.323C256.671 649.061 251.166 648.4 245.731 647.344C202.474 638.967 162.56 618.265 130.795 587.73C85.7816 544.683 62.2951 488.523 61.0726 426.501C60.5305 382.573 73.089 339.48 97.1455 302.721C100.456 297.762 105.996 289.651 110.099 285.387C113.168 281.195 117.545 276.612 121.303 273.023C124.218 268.516 136.08 258.866 140.67 255.054C172.253 228.825 208.705 213.605 249.122 207.247Z"/><defs><linearGradient id="gradient_1" gradientUnits="userSpaceOnUse" x1="419.38602" y1="576.78387" x2="130.81363" y2="264.40085"><stop offset="0" stop-color="#4B9533"/><stop offset="1" stop-color="#98CE4B"/></linearGradient></defs><path fill="url(#gradient_1)" transform="scale(0.195312 0.195312)" d="M249.122 207.247C299.003 199.757 336.627 208.21 381.445 229.815C427.429 255.212 462.588 291.953 478.757 343.482C479.777 346.734 481.567 357.464 482.822 359.488C481.639 365.235 480.326 370.946 479.154 376.707C478.301 380.903 477.824 387.202 476.542 390.991C417.482 393.948 364.524 428.295 337.739 481.015C310.954 533.735 314.443 596.76 346.881 646.203L332.04 649.341C321.466 650.718 312.161 651.347 301.503 651.494C296.178 651.567 285.469 650.449 280.956 650.963C275.752 649.312 267.848 649.634 262.202 649.323C256.671 649.061 251.166 648.4 245.731 647.344C202.474 638.967 162.56 618.265 130.795 587.73C85.7816 544.683 62.2951 488.523 61.0726 426.501C60.5305 382.573 73.089 339.48 97.1455 302.721C100.456 297.762 105.996 289.651 110.099 285.387C113.168 281.195 117.545 276.612 121.303 273.023C124.218 268.516 136.08 258.866 140.67 255.054C172.253 228.825 208.705 213.605 249.122 207.247Z"/><path fill="#CFE552" transform="scale(0.195312 0.195312)" d="M110.099 285.387C113.168 281.195 117.545 276.612 121.303 273.023C120.173 278.204 115.197 283.773 110.099 285.387Z"/><path fill="#E01012" transform="scale(0.195312 0.195312)" d="M171.243 504.343C173.791 495.207 176.807 486.95 181.259 478.468C189.631 462.52 210.625 435.89 225.501 425.733C227.841 428.066 229.677 429.774 231.597 432.475C226.717 436.95 221.941 440.974 216.869 445.228C225.664 461.394 242.876 488.13 248.691 504.403C267.948 500.08 280.734 506.418 289.301 524.187C293.268 535.4 293.237 547.263 288.045 558.112C282.982 568.673 273.902 576.769 262.831 580.592C251.35 584.473 238.795 583.619 227.945 578.219C220.006 574.243 215.265 569.149 210.408 561.866C185.307 601.259 122.977 582.036 130.058 530.989C130.176 530.494 130.298 530.001 130.425 529.508C135.46 510.124 151.438 499.091 171.243 504.343Z"/><path fill="#B71010" transform="scale(0.195312 0.195312)" d="M289.301 524.187C293.268 535.4 293.237 547.263 288.045 558.112C282.982 568.673 273.902 576.769 262.831 580.592C251.35 584.473 238.795 583.619 227.945 578.219C220.006 574.243 215.265 569.149 210.408 561.866C185.307 601.259 122.977 582.036 130.058 530.989C130.711 533.875 135.849 542.046 137.899 544.468C155.739 565.547 183.96 567.832 205.299 550.174C204.586 547.05 204.26 544.156 203.855 540.984C215.81 554.309 228.898 563.707 247.604 561.635C263.13 559.915 278.055 550.387 284.624 535.955C285.899 533.154 287.682 525.762 289.301 524.187Z"/><path fill="#7BB843" transform="scale(0.195312 0.195312)" d="M171.243 504.343C173.791 495.207 176.807 486.95 181.259 478.468C189.631 462.52 210.625 435.89 225.501 425.733C227.841 428.066 229.677 429.774 231.597 432.475C226.717 436.95 221.941 440.974 216.869 445.228C225.664 461.394 242.876 488.13 248.691 504.403L250.207 509.365C249.482 510.413 249.13 511.079 248.147 511.883C245.653 511.4 245.473 511.798 243.962 510.346C243.431 508.886 242.616 507.096 242.002 505.631C226.888 504.614 219.958 505.706 210.525 518.239C201.966 504.909 191.768 504.88 177.701 505.616C177.178 507.275 176.69 508.945 176.238 510.625L175.242 511.504C171.508 512.161 171.001 511.285 170.295 507.938L171.243 504.343Z"/><path fill="#63110C" transform="scale(0.195312 0.195312)" d="M171.243 504.343C173.791 495.207 176.807 486.95 181.259 478.468C189.631 462.52 210.625 435.89 225.501 425.733C227.841 428.066 229.677 429.774 231.597 432.475C226.717 436.95 221.941 440.974 216.869 445.228C225.664 461.394 242.876 488.13 248.691 504.403L250.207 509.365C249.482 510.413 249.13 511.079 248.147 511.883C245.653 511.4 245.473 511.798 243.962 510.346C243.431 508.886 242.616 507.096 242.002 505.631C232.695 485.099 222.113 469.005 211.169 449.58C194.289 467.948 185.422 481.72 177.701 505.616C177.178 507.275 176.69 508.945 176.238 510.625L175.242 511.504C171.508 512.161 171.001 511.285 170.295 507.938L171.243 504.343Z"/><path fill="#B71010" transform="scale(0.195312 0.195312)" d="M170.295 507.938C171.001 511.285 171.508 512.161 175.242 511.504L176.238 510.625C178.397 511.525 182.337 509.668 186.681 511.329L186.848 512.119C183.209 516.119 167.045 514.551 164.957 509.66C165.545 508.023 165.019 508.528 166.363 507.884C167.807 508.409 168.147 508.507 169.656 508.791L170.295 507.938Z"/><path fill="#B71010" transform="scale(0.195312 0.195312)" d="M243.962 510.346C245.473 511.798 245.653 511.4 248.147 511.883C249.253 511.805 248.868 511.681 249.786 512.101L249.786 511.722L250.596 511.989C249.029 512.563 247.453 513.11 245.867 513.628L246.002 514.14C243.765 515.062 234.774 514.791 234.182 511.508C236.345 509.488 240.649 511.331 243.962 510.346Z"/><path fill="#A10F14" transform="scale(0.195312 0.195312)" d="M250.207 509.365C252.219 508.633 252.581 508.313 254.531 508.832L254.82 509.591C253.501 511.584 250.393 513.364 248.018 513.827C247.349 513.953 246.677 514.057 246.002 514.14L245.867 513.628C247.453 513.11 249.029 512.563 250.596 511.989L249.786 511.722L249.786 512.101C248.868 511.681 249.253 511.805 248.147 511.883C249.13 511.079 249.482 510.413 250.207 509.365Z"/><path fill="#F38188" transform="scale(0.195312 0.195312)" d="M149.011 512.206C151.716 511.295 154.701 511.916 156.818 513.829C158.935 515.742 159.855 518.649 159.222 521.431C158.59 524.213 156.505 526.438 153.769 527.248C149.645 528.469 145.303 526.162 144.006 522.062C142.71 517.961 144.936 513.578 149.011 512.206Z"/><path fill="#F38188" transform="scale(0.195312 0.195312)" d="M268.403 511.803C272.667 511.052 276.737 513.884 277.516 518.143C278.294 522.402 275.489 526.49 271.235 527.296C266.942 528.11 262.808 525.273 262.022 520.975C261.237 516.677 264.1 512.561 268.403 511.803Z"/><path fill="#E01012" transform="scale(0.195312 0.195312)" d="M274.996 210.095C277.629 212.571 279.069 214.111 281.419 216.865L266.948 229.231C275.924 245.673 292.712 271.517 298.596 288.285C316.696 283.109 329.991 290.878 338.429 306.842C342.906 317.411 342.968 329.33 338.604 339.945C334.272 350.573 325.821 358.993 315.178 363.287C304.34 367.785 292.157 367.79 281.315 363.301C272.765 359.693 265.83 353.369 260.76 345.659C254.039 355.977 245.481 363.034 233.17 365.706C221.672 368.236 209.641 366.055 199.764 359.65C190.107 353.499 183.303 343.75 180.859 332.565C179.514 326.12 179.732 320.429 180.74 313.978C185.961 294.592 201.266 282.824 221.52 288.07C229.618 257.188 250.615 230.216 274.996 210.095Z"/><path fill="#B71010" transform="scale(0.195312 0.195312)" d="M338.429 306.842C342.906 317.411 342.968 329.33 338.604 339.945C334.272 350.573 325.821 358.993 315.178 363.287C304.34 367.785 292.157 367.79 281.315 363.301C272.765 359.693 265.83 353.369 260.76 345.659C254.039 355.977 245.481 363.034 233.17 365.706C221.672 368.236 209.641 366.055 199.764 359.65C190.107 353.499 183.303 343.75 180.859 332.565C179.514 326.12 179.732 320.429 180.74 313.978C183.369 316.535 184.073 323.435 188.899 328.691C198.048 338.652 209.309 344.978 222.984 345.635C234.854 346.167 246.456 342.006 255.283 334.051C254.812 330.753 254.573 328.018 254.325 324.695C260.733 332.839 267.59 338.837 277.346 342.639C299.239 351.169 326.315 339.833 335.069 317.914C336.547 314.214 336.947 310.1 338.429 306.842Z"/><path fill="#7BB843" transform="scale(0.195312 0.195312)" d="M274.996 210.095C277.629 212.571 279.069 214.111 281.419 216.865L266.948 229.231C275.924 245.673 292.712 271.517 298.596 288.285L299.728 292.051C299.808 294.215 300.134 293.289 298.716 294.926C296.89 295.717 295.208 295.682 293.883 293.978C293.336 292.487 292.688 291.042 292.059 289.583C276.597 288.187 270.375 289.153 260.887 302.278C259.466 300.222 257.862 298.298 256.095 296.53C246.995 287.558 239.267 289.399 228.023 289.417C227.589 290.967 227.169 292.511 226.682 294.046C226.451 294.332 225.746 295.246 225.508 295.462L222.512 295.172C220.886 293.96 221.307 294.036 220.39 291.849L221.52 288.07C229.618 257.188 250.615 230.216 274.996 210.095Z"/><path fill="#63110C" transform="scale(0.195312 0.195312)" d="M274.996 210.095C277.629 212.571 279.069 214.111 281.419 216.865L266.948 229.231C275.924 245.673 292.712 271.517 298.596 288.285L299.728 292.051C299.808 294.215 300.134 293.289 298.716 294.926C296.89 295.717 295.208 295.682 293.883 293.978C293.336 292.487 292.688 291.042 292.059 289.583C281.921 267.194 272.492 254.226 261.302 233.436C245.09 249.741 234.239 267.176 228.023 289.417C227.589 290.967 227.169 292.511 226.682 294.046C226.451 294.332 225.746 295.246 225.508 295.462L222.512 295.172C220.886 293.96 221.307 294.036 220.39 291.849L221.52 288.07C229.618 257.188 250.615 230.216 274.996 210.095Z"/><path fill="#B71010" transform="scale(0.195312 0.195312)" d="M299.728 292.051C302.06 291.773 302.756 291.305 304.69 292.163C305.179 297.267 287.946 300.939 284.877 295.662C286.425 294.036 291.401 294.199 293.883 293.978C295.208 295.682 296.89 295.717 298.716 294.926C300.134 293.289 299.808 294.215 299.728 292.051Z"/><path fill="#B71010" transform="scale(0.195312 0.195312)" d="M226.682 294.046C230.68 295.074 232.54 291.994 236.134 295.366L236.423 296.225C234.597 297.72 229.083 298.167 226.825 297.905C225.799 297.788 224.781 297.603 223.779 297.351L225.508 295.462C225.746 295.246 226.451 294.332 226.682 294.046Z"/><path fill="#A10F14" transform="scale(0.195312 0.195312)" d="M218.429 296.069C217.246 294.721 215.897 293.402 215.999 291.663C217.854 290.967 218.067 291.41 220.39 291.849C221.307 294.036 220.886 293.96 222.512 295.172L225.508 295.462L223.779 297.351C222.411 296.821 219.935 296.385 218.429 296.069Z"/><path fill="#F38188" transform="scale(0.195312 0.195312)" d="M199.895 295.717C204.207 294.685 208.543 297.332 209.597 301.639C210.65 305.945 208.026 310.294 203.725 311.371C199.392 312.454 195.004 309.807 193.942 305.468C192.881 301.13 195.551 296.756 199.895 295.717Z"/><path fill="#F38188" transform="scale(0.195312 0.195312)" d="M317.339 295.858C320.082 294.987 323.082 295.664 325.185 297.629C327.289 299.594 328.168 302.541 327.485 305.337C326.802 308.133 324.664 310.343 321.892 311.117C317.708 312.285 313.361 309.886 312.119 305.724C310.877 301.562 313.2 297.173 317.339 295.858Z"/><defs><linearGradient id="gradient_2" gradientUnits="userSpaceOnUse" x1="624.026" y1="288.38052" x2="466.93268" y2="47.771503"><stop offset="0" stop-color="#7DBA40"/><stop offset="1" stop-color="#B5DE51"/></linearGradient></defs><path fill="url(#gradient_2)" transform="scale(0.195312 0.195312)" d="M249.122 207.247C252.528 195.391 254.768 184.775 259.092 172.966C276.481 126.311 306.885 85.6211 346.699 55.722C389.149 23.2231 446.618 4.95765 499.691 5.87088C510.041 6.04897 518.61 5.36141 529.086 6.74681C535.792 7.23117 542.961 8.34291 549.539 9.49724C638.647 25.1357 715.783 89.8076 745.873 175.239C749.446 185.383 751.891 195.712 754.319 206.203C729.7 200.952 704.456 199.254 679.355 201.161C671.485 201.723 660.959 204.213 653.528 204.11C653.3 203.072 653 202.828 653.553 202.235C657.568 197.934 663.39 193.849 667.826 189.929C665.746 187.078 664.442 185.361 661.548 183.136C650.651 191.644 642.72 200.536 633.873 211.077C629.125 211.229 618.559 215.442 613.764 217.453C582.857 230.074 555.029 249.199 532.17 273.53C508.19 299.109 493.374 326.263 482.822 359.488C481.567 357.464 479.777 346.734 478.757 343.482C462.588 291.953 427.429 255.212 381.445 229.815C336.627 208.21 299.003 199.757 249.122 207.247Z"/><path fill="#CFE552" transform="scale(0.195312 0.195312)" d="M249.122 207.247C252.528 195.391 254.768 184.775 259.092 172.966C276.481 126.311 306.885 85.6211 346.699 55.722C389.149 23.2231 446.618 4.95765 499.691 5.87088C510.041 6.04897 518.61 5.36141 529.086 6.74681C528.827 7.25519 528.568 7.76357 528.309 8.27195C472.898 37.545 432.874 92.3548 407.21 148.295C404.228 154.795 401.213 161.748 398.802 168.466C394.099 181.764 390.003 195.27 386.527 208.94C384.788 215.712 383.237 223.242 381.445 229.815C336.627 208.21 299.003 199.757 249.122 207.247Z"/><path fill="#E01012" transform="scale(0.195312 0.195312)" d="M470.181 106.235C472.367 97.9934 475.224 89.5167 479.042 81.8515C487.807 64.255 507.383 39.9487 523.322 28.1822C525.514 30.3363 527.862 32.5089 529.763 34.9107C525.132 38.8102 519.792 43.1107 515.462 47.2317C526.174 66.1145 538.98 86.6711 547.383 106.323C565.528 100.842 580.208 109.336 587.59 126.106C591.805 137.575 591.547 148.637 586.314 159.799C581.311 170.394 572.271 178.544 561.215 182.426C550.131 186.177 538.015 185.405 527.497 180.278C519.338 176.205 514.441 170.828 509.246 163.536C503.172 173.712 494.774 180.566 483.144 183.513C471.732 186.421 459.634 184.697 449.489 178.717C432.467 168.514 425.465 150.614 429.166 131.397C433.492 112.041 450.879 101.28 470.181 106.235Z"/><path fill="#B71010" transform="scale(0.195312 0.195312)" d="M587.59 126.106C591.805 137.575 591.547 148.637 586.314 159.799C581.311 170.394 572.271 178.544 561.215 182.426C550.131 186.177 538.015 185.405 527.497 180.278C519.338 176.205 514.441 170.828 509.246 163.536C503.172 173.712 494.774 180.566 483.144 183.513C471.732 186.421 459.634 184.697 449.489 178.717C432.467 168.514 425.465 150.614 429.166 131.397C430.898 132.838 433.709 142.239 436.588 145.675C454.628 167.208 481.483 169.548 503.472 152.329L502.691 142.961C508.079 148.998 514.731 154.914 521.921 158.653C532.351 164.072 544.528 165.047 555.687 161.356C566.973 157.719 577.144 149.179 582.48 138.545C584.534 134.452 585.479 129.973 587.59 126.106Z"/><path fill="#CFE552" transform="scale(0.195312 0.195312)" d="M470.181 106.235C472.367 97.9934 475.224 89.5167 479.042 81.8515C487.807 64.255 507.383 39.9487 523.322 28.1822C525.514 30.3363 527.862 32.5089 529.763 34.9107C525.132 38.8102 519.792 43.1107 515.462 47.2317C526.174 66.1145 538.98 86.6711 547.383 106.323L548.669 110.942C547.23 113.162 546.824 112.996 544.227 113.275L542.516 112.548C541.959 110.59 541.654 108.98 540.538 107.279C525.312 106.372 518.454 106.894 509.111 120.364C499.019 106.003 492.16 106.528 476.491 107.111L475.2 112.163L474.721 113.218C472.027 113.504 470.182 113.304 469.329 110.639C469.685 109.185 469.916 107.71 470.181 106.235Z"/><path fill="#63110C" transform="scale(0.195312 0.195312)" d="M470.181 106.235C472.367 97.9934 475.224 89.5167 479.042 81.8515C487.807 64.255 507.383 39.9487 523.322 28.1822C525.514 30.3363 527.862 32.5089 529.763 34.9107C525.132 38.8102 519.792 43.1107 515.462 47.2317C526.174 66.1145 538.98 86.6711 547.383 106.323L548.669 110.942C547.23 113.162 546.824 112.996 544.227 113.275L542.516 112.548C541.959 110.59 541.654 108.98 540.538 107.279C532.255 88.5631 519.933 69.1766 509.605 51.1535C491.894 71.0923 484.789 81.5412 476.491 107.111L475.2 112.163L474.721 113.218C472.027 113.504 470.182 113.304 469.329 110.639C469.685 109.185 469.916 107.71 470.181 106.235Z"/><path fill="#B71010" transform="scale(0.195312 0.195312)" d="M542.516 112.548L544.227 113.275C545.617 114.549 545.554 114.657 547.473 115.009C544.066 115.772 536.082 116.86 533.631 113.86L534.072 113.061C536.731 112.064 539.602 112.449 542.516 112.548Z"/><path fill="#B71010" transform="scale(0.195312 0.195312)" d="M475.2 112.163C477.964 113.64 482.24 111.297 485.401 113.4C484.271 115.905 476.182 116.4 473.992 115.623L474.11 115.348C473.229 114.569 472.509 114.672 471.153 114.401C472.15 114.281 473.148 114.172 474.146 114.073L474.721 113.218L475.2 112.163Z"/><path fill="#A10F14" transform="scale(0.195312 0.195312)" d="M469.329 110.639C470.182 113.304 472.027 113.504 474.721 113.218L474.146 114.073C473.148 114.172 472.15 114.281 471.153 114.401C472.509 114.672 473.229 114.569 474.11 115.348L473.992 115.623C471.156 115.584 465.069 113.716 464.124 110.795C465.457 110.075 467.69 110.636 469.329 110.639Z"/><path fill="#A10F14" transform="scale(0.195312 0.195312)" d="M548.669 110.942C550.425 110.338 551.377 109.777 553.14 110.273L553.362 110.995C551.587 113.159 550.071 113.915 547.473 115.009C545.554 114.657 545.617 114.549 544.227 113.275C546.824 112.996 547.23 113.162 548.669 110.942Z"/><path fill="#F38188" transform="scale(0.195312 0.195312)" d="M565.456 113.779C568.216 112.785 571.299 113.384 573.488 115.338C575.676 117.293 576.618 120.289 575.942 123.144C575.266 125.998 573.08 128.254 570.248 129.019C566.108 130.138 561.822 127.79 560.536 123.699C559.25 119.608 561.42 115.231 565.456 113.779Z"/><path fill="#F38188" transform="scale(0.195312 0.195312)" d="M447.176 114.263C451.244 112.554 455.925 114.484 457.606 118.564C459.287 122.643 457.325 127.312 453.233 128.964C449.182 130.601 444.569 128.661 442.904 124.622C441.24 120.582 443.147 115.955 447.176 114.263Z"/><defs><linearGradient id="gradient_3" gradientUnits="userSpaceOnUse" x1="600.28534" y1="671.22681" x2="368.72092" y2="439.27444"><stop offset="0" stop-color="#215820"/><stop offset="1" stop-color="#337127"/></linearGradient></defs><path fill="url(#gradient_3)" transform="scale(0.195312 0.195312)" d="M476.542 390.991C538.167 387.906 596.36 419.475 627.375 472.816C658.39 526.157 657.039 592.348 623.874 644.379C603.777 675.908 573.564 699.673 538.188 711.778C523.936 716.655 509.084 719.557 494.044 720.402C484.205 720.955 474.337 720.625 464.557 719.417C460.226 718.881 455.917 718.174 451.641 717.297C408.654 708.478 370.954 682.893 346.881 646.203C314.443 596.76 310.954 533.735 337.739 481.015C364.524 428.295 417.482 393.948 476.542 390.991Z"/><path fill="#E01012" transform="scale(0.195312 0.195312)" d="M513.36 398.673C517.464 402.2 520.06 404.353 523.249 408.75C516.621 415.26 507.654 422.652 500.426 428.742C510.389 447.988 523.048 467.584 533.426 486.981C536.962 493.649 540.299 500.421 543.433 507.288C545.256 511.348 547.47 517.116 549.523 520.871C576.33 510.233 601.115 526.716 611.885 551.502C618.144 569.224 617.767 586.368 609.55 603.498C601.554 619.928 587.398 632.539 570.159 638.594C553.113 644.466 534.426 643.274 518.264 635.283C504.712 628.591 498.702 621.429 489.773 609.76C477.507 626.852 464.718 637.512 443.135 641.116C425.347 644.164 407.079 639.986 392.384 629.511C377.32 618.653 367.293 602.16 364.586 583.79C363.324 575.478 363.854 568.362 365.61 560.214C372.44 531.312 399.263 510.673 429.059 520.727C432.328 510.073 436.138 498.093 440.978 488.084C454.856 459.383 488.071 417.532 513.36 398.673Z"/><path fill="#B71010" transform="scale(0.195312 0.195312)" d="M611.885 551.502C618.144 569.224 617.767 586.368 609.55 603.498C601.554 619.928 587.398 632.539 570.159 638.594C553.113 644.466 534.426 643.274 518.264 635.283C504.712 628.591 498.702 621.429 489.773 609.76C477.507 626.852 464.718 637.512 443.135 641.116C425.347 644.164 407.079 639.986 392.384 629.511C377.32 618.653 367.293 602.16 364.586 583.79C363.324 575.478 363.854 568.362 365.61 560.214C366.87 566.735 370.411 572.354 374.113 577.661C396.263 609.41 437.497 619.07 470.877 598.924C474.426 596.783 477.721 594.328 481.125 591.812C480.143 586.483 479.43 581.314 478.678 575.953C487.013 587.263 493.06 592.622 505.106 599.955C542.583 622.886 595.914 601.748 608.69 560.055C609.507 557.388 610.399 553.795 611.885 551.502Z"/><path fill="#306C28" transform="scale(0.195312 0.195312)" d="M513.36 398.673C517.464 402.2 520.06 404.353 523.249 408.75C516.621 415.26 507.654 422.652 500.426 428.742C510.389 447.988 523.048 467.584 533.426 486.981C536.962 493.649 540.299 500.421 543.433 507.288C545.256 511.348 547.47 517.116 549.523 520.871C549.087 522.326 550.619 526.419 551.238 528.06C549.731 530.686 546.039 531.548 543.186 531.031C541.903 530.159 542.018 530.044 541.358 528.587L540.472 525.72C539.461 522.408 539.274 522.389 535.999 521.737C514.229 519.43 503.126 522.816 489.775 541.185C479.703 528.127 467.488 520.036 450.588 521.259C446.879 521.528 443.099 521.576 439.379 521.587C438.401 524.118 437.806 526.386 437.089 528.986L436.197 530.461C433.298 531.972 430.004 530.544 427.735 528.537C428.303 525.731 428.722 523.582 429.059 520.727C432.328 510.073 436.138 498.093 440.978 488.084C454.856 459.383 488.071 417.532 513.36 398.673Z"/><path fill="#63110C" transform="scale(0.195312 0.195312)" d="M513.36 398.673C517.464 402.2 520.06 404.353 523.249 408.75C516.621 415.26 507.654 422.652 500.426 428.742C510.389 447.988 523.048 467.584 533.426 486.981C536.962 493.649 540.299 500.421 543.433 507.288C545.256 511.348 547.47 517.116 549.523 520.871C549.087 522.326 550.619 526.419 551.238 528.06C549.731 530.686 546.039 531.548 543.186 531.031C541.903 530.159 542.018 530.044 541.358 528.587L540.472 525.72C539.461 522.408 539.274 522.389 535.999 521.737C536.948 521.588 537.203 521.493 538.126 521.223C538.132 513.936 497.271 445.291 491.413 435.328C466.299 461.727 450.163 486.84 439.379 521.587C438.401 524.118 437.806 526.386 437.089 528.986L436.197 530.461C433.298 531.972 430.004 530.544 427.735 528.537C428.303 525.731 428.722 523.582 429.059 520.727C432.328 510.073 436.138 498.093 440.978 488.084C454.856 459.383 488.071 417.532 513.36 398.673Z"/><path fill="#B71010" transform="scale(0.195312 0.195312)" d="M437.089 528.986C440.845 530.418 450.153 528.102 452.72 530.695L452.498 531.737C445.958 538.571 420.812 534.96 419.902 526.958C422.165 524.12 425.41 527.026 427.735 528.537C430.004 530.544 433.298 531.972 436.197 530.461L437.089 528.986Z"/><path fill="#B71010" transform="scale(0.195312 0.195312)" d="M551.238 528.06C555.483 526.426 556.97 523.065 560.731 524.204C563.747 532.203 533.992 539.767 527.269 531.134L527.313 530.159C531.022 527.676 539.44 530.727 541.358 528.587C542.018 530.044 541.903 530.159 543.186 531.031C546.039 531.548 549.731 530.686 551.238 528.06Z"/><path fill="#F38188" transform="scale(0.195312 0.195312)" d="M578.65 531.769C585.101 530.081 591.708 533.903 593.459 540.337C595.211 546.771 591.454 553.415 585.038 555.23C578.531 557.071 571.773 553.25 569.996 546.725C568.22 540.201 572.108 533.48 578.65 531.769Z"/><path fill="#F38188" transform="scale(0.195312 0.195312)" d="M397.22 531.682C403.8 531.152 409.6 535.97 410.285 542.535C410.969 549.101 406.288 555.012 399.741 555.851C395.367 556.411 391.032 554.558 388.415 551.008C385.798 547.459 385.309 542.77 387.138 538.757C388.966 534.744 392.825 532.036 397.22 531.682Z"/><path fill="#E01012" transform="scale(0.195312 0.195312)" d="M684.559 261.287C694.314 258.699 700.803 258.784 710.163 263.782C715.568 266.668 721.85 273.431 723.865 279.266C722.385 282.413 722.526 288.244 720.822 292.012C711.105 313.497 683.438 325.114 661.517 315.202C652.446 311.1 646.363 306.076 640.268 297.904C640.617 301.471 640.89 303.693 641.611 307.188C619.369 325.419 590.714 322.159 573.451 299.034C571.511 296.435 568.58 290.636 567.082 287.578C572.068 267.101 587.274 256.919 607.991 261.04L607.46 262.845C607.357 265.559 607.185 265.876 608.623 268.002C610.216 269.007 611.207 269.153 612.663 267.508C613.198 265.453 613.333 264.196 614.55 262.519C630.194 261.178 637.101 262.005 647.27 275.223C655.462 261.953 663.704 261.441 677.803 262.593C678.78 264.772 678.985 265.452 679.528 267.784C681.626 268.665 681.978 268.661 684.28 268.969C686.303 267.412 686.145 267.324 685.694 265.011L684.559 261.287Z"/><path fill="#B71010" transform="scale(0.195312 0.195312)" d="M607.46 262.845C607.357 265.559 607.185 265.876 608.623 268.002C610.216 269.007 611.207 269.153 612.663 267.508C615.115 267.459 621.118 266.96 622.913 268.494L622.453 269.311C617.699 271.791 602.878 272.725 602.324 265.527C604.184 265.646 605.049 266.105 606.784 265.267L607.46 262.845Z"/><path fill="#B71010" transform="scale(0.195312 0.195312)" d="M685.694 265.011C687.813 265.627 690.211 263.635 691.773 265.405C690.303 268.352 686.759 270.028 683.664 270.671C680.253 271.276 673.562 272.114 671.417 268.748L672.089 267.985C674.467 267.13 676.936 267.587 679.528 267.784C681.626 268.665 681.978 268.661 684.28 268.969C686.303 267.412 686.145 267.324 685.694 265.011Z"/><path fill="#F38188" transform="scale(0.195312 0.195312)" d="M586.689 268.873C590.899 268.037 594.998 270.746 595.878 274.947C596.758 279.148 594.092 283.274 589.9 284.198C587.149 284.805 584.285 283.887 582.399 281.794C580.513 279.702 579.897 276.758 580.784 274.085C581.672 271.412 583.927 269.422 586.689 268.873Z"/><path fill="#F38188" transform="scale(0.195312 0.195312)" d="M703.635 268.875C707.785 267.794 712.031 270.255 713.154 274.393C714.278 278.531 711.859 282.802 707.732 283.967C705.026 284.731 702.118 283.983 700.116 282.007C698.114 280.032 697.328 277.134 698.056 274.418C698.784 271.701 700.914 269.585 703.635 268.875Z"/><path fill="#B71010" transform="scale(0.195312 0.195312)" d="M640.268 297.904C646.363 306.076 652.446 311.1 661.517 315.202C683.438 325.114 711.105 313.497 720.822 292.012C722.526 288.244 722.385 282.413 723.865 279.266C734.161 299.627 723.919 324.923 703.951 335.052C693.512 340.396 681.363 341.32 670.236 337.616C659.264 333.951 653.029 328.153 646.552 318.918C632.587 340.243 606.801 346.585 585.321 332.177C575.831 325.829 569.242 315.98 566.996 304.786C565.823 298.705 566.149 293.608 567.082 287.578C568.58 290.636 571.511 296.435 573.451 299.034C590.714 322.159 619.369 325.419 641.611 307.188C640.89 303.693 640.617 301.471 640.268 297.904Z"/><path fill="#4E9035" transform="scale(0.195312 0.195312)" d="M661.548 183.136C664.442 185.361 665.746 187.078 667.826 189.929C663.39 193.849 657.568 197.934 653.553 202.235C653 202.828 653.3 203.072 653.528 204.11C655.497 206.393 659.878 214.149 661.542 217.07C669.282 230.653 679.093 246.67 684.559 261.287L685.694 265.011C686.145 267.324 686.303 267.412 684.28 268.969C681.978 268.661 681.626 268.665 679.528 267.784C678.985 265.452 678.78 264.772 677.803 262.593C663.704 261.441 655.462 261.953 647.27 275.223C637.101 262.005 630.194 261.178 614.55 262.519C613.333 264.196 613.198 265.453 612.663 267.508C611.207 269.153 610.216 269.007 608.623 268.002C607.185 265.876 607.357 265.559 607.46 262.845L607.991 261.04C612.835 240.819 621.663 227.178 633.873 211.077C642.72 200.536 650.651 191.644 661.548 183.136Z"/><path fill="#63110C" transform="scale(0.195312 0.195312)" d="M661.548 183.136C664.442 185.361 665.746 187.078 667.826 189.929C663.39 193.849 657.568 197.934 653.553 202.235C653 202.828 653.3 203.072 653.528 204.11C655.497 206.393 659.878 214.149 661.542 217.07C669.282 230.653 679.093 246.67 684.559 261.287L685.694 265.011C686.145 267.324 686.303 267.412 684.28 268.969C681.978 268.661 681.626 268.665 679.528 267.784C678.985 265.452 678.78 264.772 677.803 262.593C669.371 243.203 657.998 225.191 647.459 206.802C631.806 222.177 620.458 241.388 614.55 262.519C613.333 264.196 613.198 265.453 612.663 267.508C611.207 269.153 610.216 269.007 608.623 268.002C607.185 265.876 607.357 265.559 607.46 262.845L607.991 261.04C612.835 240.819 621.663 227.178 633.873 211.077C642.72 200.536 650.651 191.644 661.548 183.136Z"/><path fill="#306C28" transform="scale(0.195312 0.195312)" d="M681.906 662.311C684.984 661.87 718.658 661.916 720.794 662.559L720.228 662.981C710.51 663.008 690.82 663.548 681.906 662.311Z"/><path fill="#E01012" transform="scale(0.195312 0.195312)" d="M766.668 476.28C769.537 478.858 770.613 479.865 772.994 482.859C769.476 486.54 762.504 492.247 758.395 495.796C769.831 516.171 780.537 533.288 790.389 554.667C807.464 550.146 820.455 556.105 828.996 571.493C833.636 581.154 834.444 593.363 830.887 603.5C826.975 614.576 818.775 623.614 808.13 628.582C787.375 638.496 764.064 631.427 751.962 611.958C744.67 622.618 736.009 629.928 722.995 632.361C711.432 634.635 699.441 632.107 689.78 625.36C680.298 618.809 673.836 608.733 671.835 597.384C670.945 592.163 670.998 586.825 671.992 581.622C672.091 580.393 672.715 577.927 673.121 576.732C678.846 559.891 694.904 549.362 712.539 555.138C714.904 548.437 715.655 543.283 718.988 536.101C729.369 513.731 747.567 491.761 766.668 476.28Z"/><path fill="#B71010" transform="scale(0.195312 0.195312)" d="M828.996 571.493C833.636 581.154 834.444 593.363 830.887 603.5C826.975 614.576 818.775 623.614 808.13 628.582C787.375 638.496 764.064 631.427 751.962 611.958C744.67 622.618 736.009 629.928 722.995 632.361C711.432 634.635 699.441 632.107 689.78 625.36C680.298 618.809 673.836 608.733 671.835 597.384C670.945 592.163 670.998 586.825 671.992 581.622C673.371 582.601 677.99 592.241 680.178 594.771C698.257 615.682 725.045 617.381 746.322 600.429L745.03 590.869C765.903 618.612 804.042 619.158 823.705 589.111C827.651 583.082 827.965 578.464 828.996 571.493Z"/><path fill="#306C28" transform="scale(0.195312 0.195312)" d="M766.668 476.28C769.537 478.858 770.613 479.865 772.994 482.859C769.476 486.54 762.504 492.247 758.395 495.796C769.831 516.171 780.537 533.288 790.389 554.667C790.565 556.194 790.618 557.149 791.094 558.635C791.887 560.432 791.92 559.612 791.399 561.169C789.208 562.566 787.266 561.988 785.137 560.843C784.503 559.057 783.771 557.209 783.099 555.428C780.338 555.489 777.196 555.386 774.411 555.35C773.6 555.362 772.791 555.41 771.984 555.492C762.422 556.398 757.829 560.579 752.098 567.443C741.544 555.718 734.811 554.34 719.566 555.479C718.548 557.237 718.272 559.1 717.803 561.098C715.527 562.68 712.287 561.874 711.354 559.12L712.539 555.138C714.904 548.437 715.655 543.283 718.988 536.101C729.369 513.731 747.567 491.761 766.668 476.28Z"/><path fill="#63110C" transform="scale(0.195312 0.195312)" d="M766.668 476.28C769.537 478.858 770.613 479.865 772.994 482.859C769.476 486.54 762.504 492.247 758.395 495.796C769.831 516.171 780.537 533.288 790.389 554.667C790.565 556.194 790.618 557.149 791.094 558.635C791.887 560.432 791.92 559.612 791.399 561.169C789.208 562.566 787.266 561.988 785.137 560.843C784.503 559.057 783.771 557.209 783.099 555.428C780.338 555.489 777.196 555.386 774.411 555.35C776.857 555.173 780.246 555.208 782.749 555.171C774.163 535.11 762.723 518.815 752.688 499.896C738.153 514.469 724.244 535.465 719.566 555.479C718.548 557.237 718.272 559.1 717.803 561.098C715.527 562.68 712.287 561.874 711.354 559.12L712.539 555.138C714.904 548.437 715.655 543.283 718.988 536.101C729.369 513.731 747.567 491.761 766.668 476.28Z"/><path fill="#B71010" transform="scale(0.195312 0.195312)" d="M791.094 558.635C793.631 558.736 794.444 557.218 796.534 557.836C798.058 564.277 780.628 566.362 776.474 562.387L776.654 561.521C779.341 559.871 781.949 560.551 785.137 560.843C787.266 561.988 789.208 562.566 791.399 561.169C791.92 559.612 791.887 560.432 791.094 558.635Z"/><path fill="#B71010" transform="scale(0.195312 0.195312)" d="M725.013 563.948C719.942 564.139 709.093 565.158 706.927 559.178L707.392 558.33C709.265 558.017 709.276 558.388 711.354 559.12C712.287 561.874 715.527 562.68 717.803 561.098C720.313 560.858 726.031 559.829 727.896 561.505C727.111 563.089 726.834 562.842 725.013 563.948Z"/><path fill="#F38188" transform="scale(0.195312 0.195312)" d="M808.249 562.331C812.204 560.82 816.642 562.732 818.26 566.644C819.878 570.556 818.088 575.045 814.221 576.769C811.625 577.927 808.604 577.583 806.334 575.872C804.064 574.161 802.902 571.352 803.3 568.537C803.699 565.722 805.594 563.346 808.249 562.331Z"/><path fill="#F38188" transform="scale(0.195312 0.195312)" d="M691.426 562.253C695.531 561.365 699.6 563.893 700.623 567.967C701.646 572.04 699.254 576.191 695.217 577.348C692.483 578.131 689.541 577.362 687.54 575.342C685.539 573.322 684.798 570.372 685.608 567.647C686.417 564.921 688.647 562.853 691.426 562.253Z"/><path fill="#E01012" transform="scale(0.195312 0.195312)" d="M785.968 342.867C787.575 341.398 789.121 335.566 790.039 332.928C792.431 325.858 795.452 319.017 799.065 312.487C807.343 297.357 826.691 275.371 840.355 264.618C843.111 267.108 844.541 268.501 846.969 271.295C842.204 276.018 836.752 279.965 831.812 284.39C840.331 298.571 848.861 313.058 856.596 327.694C858.072 330.487 862.59 341.717 864.329 342.873C880.298 338.788 894.476 344.826 902.041 359.66C907.02 370.646 907.769 381.993 903.457 393.379C899.356 404.279 891.009 413.049 880.326 417.685C869.565 422.398 857.354 422.553 846.476 418.115C837.162 414.332 831.284 408.859 825.722 400.692C802.759 436.658 748.335 422.829 745.484 380.233C745.185 375.762 745.914 371.668 746.706 367.284C752.66 349.377 766.503 338.007 785.968 342.867Z"/><path fill="#B71010" transform="scale(0.195312 0.195312)" d="M902.041 359.66C907.02 370.646 907.769 381.993 903.457 393.379C899.356 404.279 891.009 413.049 880.326 417.685C869.565 422.398 857.354 422.553 846.476 418.115C837.162 414.332 831.284 408.859 825.722 400.692C802.759 436.658 748.335 422.829 745.484 380.233C745.185 375.762 745.914 371.668 746.706 367.284C746.641 370.612 749.233 375.792 751.021 378.589C761.384 394.798 780.404 403.597 799.37 399.003C807.686 396.989 813.141 393.749 820.219 389.065C819.663 386.11 819.341 382.515 818.997 379.481C826.39 388.595 835.741 396.183 847.388 398.959C868.678 404.033 892.368 391.813 900.021 371.243C901.243 367.96 901.143 363.236 902.041 359.66Z"/><path fill="#306C28" transform="scale(0.195312 0.195312)" d="M785.968 342.867C787.575 341.398 789.121 335.566 790.039 332.928C792.431 325.858 795.452 319.017 799.065 312.487C807.343 297.357 826.691 275.371 840.355 264.618C843.111 267.108 844.541 268.501 846.969 271.295C842.204 276.018 836.752 279.965 831.812 284.39C840.331 298.571 848.861 313.058 856.596 327.694C858.072 330.487 862.59 341.717 864.329 342.873L863.654 343.493L863.913 345.636C864.486 347.233 864.692 347.337 864.215 348.975C862.942 350.241 861.815 350.213 860.019 350.527L858.961 349.353C858.206 347.295 857.813 345.671 856.375 344.042C841.533 342.662 835.263 344.836 825.838 356.375C823.923 353.753 821.672 351.393 819.144 349.356C810.743 342.65 803.252 342.954 793.388 344.085C792.552 346.072 792.413 346.501 791.966 348.614L791.882 349.007C790.166 350.028 790.249 349.958 788.22 349.965C786.247 349.019 787.003 349.714 785.914 347.759C786.352 346.037 786.942 344.385 785.968 342.867Z"/><path fill="#63110C" transform="scale(0.195312 0.195312)" d="M785.968 342.867C787.575 341.398 789.121 335.566 790.039 332.928C792.431 325.858 795.452 319.017 799.065 312.487C807.343 297.357 826.691 275.371 840.355 264.618C843.111 267.108 844.541 268.501 846.969 271.295C842.204 276.018 836.752 279.965 831.812 284.39C840.331 298.571 848.861 313.058 856.596 327.694C858.072 330.487 862.59 341.717 864.329 342.873L863.654 343.493L863.913 345.636C864.486 347.233 864.692 347.337 864.215 348.975C862.942 350.241 861.815 350.213 860.019 350.527L858.961 349.353C858.206 347.295 857.813 345.671 856.375 344.042C854.193 335.478 831.812 298.022 825.949 288.753C810.725 305.742 799.541 321.552 793.388 344.085C792.552 346.072 792.413 346.501 791.966 348.614L791.882 349.007C790.166 350.028 790.249 349.958 788.22 349.965C786.247 349.019 787.003 349.714 785.914 347.759C786.352 346.037 786.942 344.385 785.968 342.867Z"/><path fill="#B71010" transform="scale(0.195312 0.195312)" d="M863.913 345.636C865.889 346.02 867.795 346.123 869.183 347.499L869.252 348.535C867.601 350.36 865.24 351.088 862.891 351.925C859.784 352.677 851.544 353.389 849.616 350.425L849.745 351.372L849.123 350.82L849.491 350.324C851.301 349.628 851.787 349.431 853.694 349.411L858.961 349.353L860.019 350.527C861.815 350.213 862.942 350.241 864.215 348.975C864.692 347.337 864.486 347.233 863.913 345.636Z"/><path fill="#B71010" transform="scale(0.195312 0.195312)" d="M791.966 348.614C795.424 350.122 799.206 348.015 801.828 349.371L801.884 350.277C799.559 352.776 792.376 353.358 789.467 352.179L789.587 351.882C789.038 350.279 790.858 352.253 791.882 349.007L791.966 348.614Z"/><path fill="#A10F14" transform="scale(0.195312 0.195312)" d="M789.467 352.179C786.114 351.744 783.681 350.501 781.3 348.156L781.387 347.374C783.173 346.863 784.105 347.299 785.914 347.759C787.003 349.714 786.247 349.019 788.22 349.965C790.249 349.958 790.166 350.028 791.882 349.007C790.858 352.253 789.038 350.279 789.587 351.882L789.467 352.179Z"/><path fill="#F38188" transform="scale(0.195312 0.195312)" d="M883.57 350.211C887.83 349.852 891.597 352.96 892.054 357.21C892.511 361.46 889.491 365.297 885.252 365.853C882.422 366.223 879.613 365.032 877.912 362.74C876.211 360.448 875.885 357.414 877.06 354.813C878.235 352.211 880.726 350.45 883.57 350.211Z"/><path fill="#F38188" transform="scale(0.195312 0.195312)" d="M764.775 350.741C767.473 349.861 770.436 350.513 772.515 352.444C774.595 354.376 775.464 357.282 774.786 360.038C774.108 362.794 771.989 364.966 769.251 365.712C765.159 366.827 760.924 364.474 759.709 360.41C758.494 356.346 760.742 352.055 764.775 350.741Z"/><defs><linearGradient id="gradient_4" gradientUnits="userSpaceOnUse" x1="720.81714" y1="668.68774" x2="302.85101" y2="935.94318"><stop offset="0" stop-color="#3C2C06"/><stop offset="1" stop-color="#5A300A"/></linearGradient></defs><path fill="url(#gradient_4)" transform="scale(0.195312 0.195312)" d="M280.956 650.963C285.469 650.449 296.178 651.567 301.503 651.494C312.161 651.347 321.466 650.718 332.04 649.341C352.696 670.199 373.731 690.678 395.135 710.767C406.976 721.79 418.71 732.926 430.336 744.175C436.483 750.077 444.08 757.047 449.745 763.221L450.595 736.736C450.734 731.442 450.821 722.432 451.641 717.297C455.917 718.174 460.226 718.881 464.557 719.417C474.337 720.625 484.205 720.955 494.044 720.402C509.084 719.557 523.936 716.655 538.188 711.778C539.262 729.161 538.056 746.507 540.33 764.284C555.312 752.963 570.412 737.82 583.988 724.629C597.963 710.994 612.019 697.442 626.153 683.973C633.339 677.024 646.969 663.132 654.462 657.417C659.035 659.682 676.17 662.087 681.906 662.311C690.82 663.548 710.51 663.008 720.228 662.981C710.45 672.922 698.299 683.866 688.006 693.701L613.573 764.594L583.088 794.073C573.045 803.796 555.568 819.462 548.927 830.919C545.227 837.302 550.352 874.275 551.342 882.418C554.969 911.617 556.117 942.756 570.036 969.372C575.347 979.528 585.534 987.495 594.823 993.729C610.037 1003.94 629.204 1005.72 642.325 1019.11C629.108 1019.98 613.787 1019.21 600.375 1019.08L538.306 1018.97L415.512 1019.01C393.891 1019.03 372.593 1019.34 350.951 1019.08C371.405 1004.83 394.867 1001.38 411.658 982.776C417.532 976.268 424.17 967.213 426.89 958.729C436.477 928.827 438.609 896.066 441.369 864.936C442.369 853.653 443.877 842.476 443.604 831.226C443.533 828.307 442.824 823.574 441.278 821.267C435.542 812.701 428.229 804.398 421.379 796.752C409.968 784.157 398.418 771.69 386.73 759.352C362.333 733.288 337.566 707.572 312.437 682.212C302.598 672.33 291.09 660.169 280.956 650.963Z"/><path fill="#34541F" transform="scale(0.195312 0.195312)" d="M464.557 719.417C474.337 720.625 484.205 720.955 494.044 720.402C490.18 722.554 469.382 720.295 464.557 719.417Z"/></svg>