<?xml version="1.0" encoding="utf-8" ?><svg xmlns="http://www.w3.org/2000/svg" xmlns:xlink="http://www.w3.org/1999/xlink" width="200" height="200" viewBox="0 0 200 200"><defs><linearGradient id="gradient_0" gradientUnits="userSpaceOnUse" x1="877.18811" y1="600.43646" x2="582.2959" y2="237.7188"><stop offset="0" stop-color="#276024"/><stop offset="1" stop-color="#549836"/></linearGradient></defs><path fill="url(#gradient_0)" transform="scale(0.195312 0.195312)" d="M258.199 205.583C266.341 151.623 305.8 93.3508 348.153 60.0805C385.676 30.6042 418.397 16.1327 464.966 8.41531C489.655 4.09848 514.829 3.27864 539.747 5.97994C609.137 13.4964 672.61 48.5378 715.944 103.252C739.126 132.385 757.049 168.668 763.908 205.398C819.67 214.838 877.397 252.958 910.117 298.918C945.63 348.606 959.999 410.346 950.073 470.609C939.965 529.837 904.032 585.068 855.099 619.629C828.927 638.449 799.035 651.458 767.426 657.784C758.14 659.739 748.408 660.507 738.953 661.171C736.599 661.336 730.183 661.262 728.727 662.188C712.422 661.786 677.233 662.945 662.421 656.073C651.481 652.095 643.489 648.899 633.216 643.559C620.622 665.741 592.597 689.954 569.776 701.353C564.753 703.862 559.958 705.951 554.771 708.031C552.479 708.95 548.099 710.421 546.328 711.497C542.522 713.457 537.483 714.682 533.081 715.745C509.207 721.512 483.877 721.894 459.762 717.361C459.587 717.328 458.733 716.926 458.528 716.833C456.336 715.997 453.322 715.398 451.008 714.82C411.601 704.977 377.646 680.317 354.959 646.756C354.812 646.642 354.665 646.529 354.518 646.415C349.637 647.355 344.736 648.186 339.819 648.909C322.383 652.4 305.884 650.665 288.816 650.499C283.538 649.182 268.016 649.138 260.544 648.036C231.324 643.725 202.421 633.197 177.404 617.585C125.753 585.912 88.8823 534.932 74.977 475.961C61.3181 418.418 71.0768 357.806 102.106 307.458C129.886 263.354 172.335 230.466 221.98 214.582C235.512 210.28 245.066 209.396 257.969 206.426L258.199 205.583Z"/><defs><linearGradient id="gradient_1" gradientUnits="userSpaceOnUse" x1="425.5625" y1="580.70117" x2="142.1756" y2="261.17462"><stop offset="0" stop-color="#499433"/><stop offset="1" stop-color="#9ACF4D"/></linearGradient></defs><path fill="url(#gradient_1)" transform="scale(0.195312 0.195312)" d="M258.199 205.583L258.847 206.259C307.352 199.877 345.93 207.172 389.337 229.15C399.642 235.539 407.016 238.801 417.519 246.674C451.936 272.475 478.23 308.46 488.6 350.525C489.137 352.707 490.228 358.651 490.958 360.21C489.52 365.98 485.386 380.897 485.633 386.176C485.519 388.424 485.891 388.717 484.807 390.215C476.362 391.225 466.393 392.045 458.145 393.854C420.025 402.452 386.013 423.88 361.801 454.552C334.658 488.858 322.526 532.674 328.158 576.055C330.574 596.14 336.656 613.852 345.86 631.797C347.568 635.127 353.825 644.153 354.518 646.415C349.637 647.355 344.736 648.186 339.819 648.909C322.383 652.4 305.884 650.665 288.816 650.499C283.538 649.182 268.016 649.138 260.544 648.036C231.324 643.725 202.421 633.197 177.404 617.585C125.753 585.912 88.8823 534.932 74.977 475.961C61.3181 418.418 71.0768 357.806 102.106 307.458C129.886 263.354 172.335 230.466 221.98 214.582C235.512 210.28 245.066 209.396 257.969 206.426L258.199 205.583Z"/><path fill="#251325" transform="scale(0.195312 0.195312)" d="M178.221 277.606C207.508 275.046 203.486 319.742 178.109 328.547C149.345 332.804 151.896 286.723 178.221 277.606Z"/><path fill="#251325" transform="scale(0.195312 0.195312)" d="M368.402 331.56C396.833 329.892 391.914 376.275 366.194 382.859C337.342 384.679 342.857 338.436 368.402 331.56Z"/><path fill="#251325" transform="scale(0.195312 0.195312)" d="M142.197 471.61C171.207 468.408 168.717 511.908 142.849 522.21C114.689 527.267 115.715 481.894 142.197 471.61Z"/><defs><linearGradient id="gradient_2" gradientUnits="userSpaceOnUse" x1="636.48553" y1="288.64093" x2="473.60959" y2="49.486263"><stop offset="0" stop-color="#7CB942"/><stop offset="1" stop-color="#B6DE52"/></linearGradient></defs><path fill="url(#gradient_2)" transform="scale(0.195312 0.195312)" d="M258.199 205.583C266.341 151.623 305.8 93.3508 348.153 60.0805C385.676 30.6042 418.397 16.1327 464.966 8.41531C489.655 4.09848 514.829 3.27864 539.747 5.97994C609.137 13.4964 672.61 48.5378 715.944 103.252C739.126 132.385 757.049 168.668 763.908 205.398C755.867 202.708 743.559 201.378 734.915 200.545C691.178 196.013 647.055 204.06 607.733 223.741C553.682 250.622 506.886 301.189 490.958 360.21C490.228 358.651 489.137 352.707 488.6 350.525C478.23 308.46 451.936 272.475 417.519 246.674C407.016 238.801 399.642 235.539 389.337 229.15C345.93 207.172 307.352 199.877 258.847 206.259L258.199 205.583Z"/><path fill="#D2E653" transform="scale(0.195312 0.195312)" d="M258.199 205.583C266.341 151.623 305.8 93.3508 348.153 60.0805C385.676 30.6042 418.397 16.1327 464.966 8.41531C489.655 4.09848 514.829 3.27864 539.747 5.97994C539.576 6.1766 539.405 6.37327 539.235 6.56993C521.6 15.1471 504.774 26.7576 490.544 40.3131C441.466 87.0656 406.464 149.636 392.409 215.955C391.594 219.803 390.549 225.471 389.337 229.15C345.93 207.172 307.352 199.877 258.847 206.259L258.199 205.583Z"/><path fill="#251325" transform="scale(0.195312 0.195312)" d="M378.479 87.1426C406.279 85.8405 400.792 132.553 375.111 138.879C346.734 140.615 352.62 91.5466 378.479 87.1426Z"/><path fill="#251325" transform="scale(0.195312 0.195312)" d="M627.523 83.6654C653.079 81.1977 666.707 125.868 641.744 135.689C615.092 138.744 602.084 92.2482 627.523 83.6654Z"/><path fill="#251325" transform="scale(0.195312 0.195312)" d="M483.687 210.643C510.596 208.775 520.651 255.744 496.379 262.663C475.088 264.21 463.999 235.888 472.35 218.973C474.581 214.455 478.995 211.961 483.687 210.643Z"/><defs><linearGradient id="gradient_3" gradientUnits="userSpaceOnUse" x1="608.66547" y1="671.35956" x2="377.0936" y2="438.38898"><stop offset="0" stop-color="#225821"/><stop offset="1" stop-color="#357129"/></linearGradient></defs><path fill="url(#gradient_3)" transform="scale(0.195312 0.195312)" d="M485.633 386.176L486.299 386.473C486.358 387.833 486.335 388.267 486.198 389.625C487.561 390.451 502.579 390.25 505.921 390.51C512.041 391.039 518.134 391.854 524.178 392.954C613.23 408.78 675.081 499.188 655.899 587.813C652.163 605.075 646.111 622.572 636.914 637.713C635.718 639.684 634.485 641.633 633.216 643.559C620.622 665.741 592.597 689.954 569.776 701.353C564.753 703.862 559.958 705.951 554.771 708.031C552.479 708.95 548.099 710.421 546.328 711.497C542.522 713.457 537.483 714.682 533.081 715.745C509.207 721.512 483.877 721.894 459.762 717.361C459.587 717.328 458.733 716.926 458.528 716.833C456.336 715.997 453.322 715.398 451.008 714.82C411.601 704.977 377.646 680.317 354.959 646.756C354.812 646.642 354.665 646.529 354.518 646.415C353.825 644.153 347.568 635.127 345.86 631.797C336.656 613.852 330.574 596.14 328.158 576.055C322.526 532.674 334.658 488.858 361.801 454.552C386.013 423.88 420.025 402.452 458.145 393.854C466.393 392.045 476.362 391.225 484.807 390.215C485.891 388.717 485.519 388.424 485.633 386.176Z"/><path fill="#251325" transform="scale(0.195312 0.195312)" d="M518.489 621.665C543.033 621.358 553.803 668.688 527.527 674.195C500.976 672.419 491.079 625.713 518.489 621.665Z"/><path fill="#251325" transform="scale(0.195312 0.195312)" d="M387.827 465.556C416.489 463.935 410.822 510.727 385.655 517.384C357.093 518.993 361.784 472.843 387.827 465.556Z"/><path fill="#251325" transform="scale(0.195312 0.195312)" d="M558.286 443.628C580.157 441.866 595.462 489.456 567.629 495.546C540.535 494.911 530.422 447.796 558.286 443.628Z"/><path fill="#251325" transform="scale(0.195312 0.195312)" d="M735.387 563.593C738.669 563.46 741.927 564.197 744.831 565.731C761.892 574.573 768.987 609.434 746.718 615.591C742.179 615.68 739.095 615.533 734.918 612.924C722.209 604.983 715.828 584.061 723.811 570.947C726.432 566.64 730.584 564.604 735.387 563.593Z"/><path fill="#251325" transform="scale(0.195312 0.195312)" d="M850.23 284.139C876.001 284.231 885.582 332.04 859.506 335.85C832.843 334.955 824.036 287.584 850.23 284.139Z"/><path fill="#251325" transform="scale(0.195312 0.195312)" d="M619.255 269.103C647.719 266.1 645.347 310.67 619.459 319.837C592.656 325.024 592.485 278.006 619.255 269.103Z"/><defs><linearGradient id="gradient_4" gradientUnits="userSpaceOnUse" x1="725.37866" y1="662.81903" x2="310.54416" y2="941.0174"><stop offset="0" stop-color="#3F2E07"/><stop offset="1" stop-color="#5B330E"/></linearGradient></defs><path fill="url(#gradient_4)" transform="scale(0.195312 0.195312)" d="M288.816 650.499C305.884 650.665 322.383 652.4 339.819 648.909C344.038 652.775 348.324 657.463 352.452 661.565C359.3 668.279 366.186 674.954 373.11 681.589L428.769 734.175C435.239 740.386 441.669 746.638 448.06 752.93C450.664 755.5 454.864 759.993 457.536 762.251C457.473 746.906 458.416 731.971 458.528 716.833C458.733 716.926 459.587 717.328 459.762 717.361C483.877 721.894 509.207 721.512 533.081 715.745C537.483 714.682 542.522 713.457 546.328 711.497C546.58 727.272 546.054 748.819 548.008 764.095C566.136 750.635 584.247 731.62 600.693 715.594C621.153 695.634 641.73 675.793 662.421 656.073C677.233 662.945 712.422 661.786 728.727 662.188L605.754 779.55C596.243 788.672 586.818 797.885 577.483 807.188C568.642 815.974 555.3 826.412 555.852 839.712C556.378 852.379 557.458 865.227 559.001 877.865C562.675 907.951 563.785 940.414 577.866 967.889C583.767 979.18 593.702 987.25 604.13 993.926C617.743 1002.64 639.422 1006.6 650.142 1017.91L650.683 1018.49C634.428 1019.5 613.332 1018.95 596.787 1018.95L504.173 1018.94L412.727 1018.96C396.099 1018.96 375.729 1019.5 359.356 1018.41C377.384 1004.07 398.919 1002.74 416.893 984.941C424.538 977.316 430.423 968.111 434.137 957.972C443.564 932.62 444.935 896.928 448.793 869.885C450.453 858.256 451.94 840.039 451.31 828.706C450.809 819.685 432.313 800.196 425.763 793.084L400.083 765.527C363.527 726.672 326.435 688.326 288.816 650.499Z"/></svg>