<?xml version="1.0" encoding="utf-8" ?><svg xmlns="http://www.w3.org/2000/svg" xmlns:xlink="http://www.w3.org/1999/xlink" width="200" height="188" viewBox="0 0 200 188"><clipPath id="cl_b"><path d="M0.128834 5.72205e-06L200 0.138672L199.871 188L-0.000123978 187.861L0.128834 5.72205e-06Z"/></clipPath><g clip-path="url(#cl_b)"><path fill="#674420" transform="matrix(0.240809 0.000167066 -0.000166182 0.242089 -23.209 -30.0353)" d="M436.808 383.4C452.274 358.94 476.563 352.347 501.854 367.004C505.55 370.187 508.428 372.613 511.59 376.385C512.636 377.87 512.437 378.144 513.826 378.622C524.406 370.994 530.525 367.616 544.202 367.872C556.222 368.059 567.665 373.06 575.966 381.755C584.325 390.548 588.835 402.31 588.499 414.437C588.208 424.109 584.845 432.809 579.382 440.705C577.986 442.14 573.992 446.028 573.243 447.502C579.601 455.945 590.461 473.499 595.233 483.106C596.786 485.893 598.406 488.693 599.783 491.567C613.126 517.637 622.579 538.196 633.122 565.742L636.084 574.023C645.459 603.235 655.402 633.224 660.705 663.464L662.564 672.803C669.511 713.794 673.711 753.178 672.105 794.784C671.048 822.183 670.369 851.023 665.298 878.014L540.122 878.031C542.633 872.777 544.585 868.135 546.717 862.711C596.209 735.18 592.768 593.173 537.156 468.189C530.91 480.576 526.037 487.251 512.991 493.026C492.286 502.191 464.759 492.03 455.97 470.687C453.326 463.225 451.61 456.363 452.476 448.382C452.751 445.846 453.849 443.055 453.868 440.613C432.856 425.196 428.045 407.63 436.808 383.4Z"/><path fill="#543314" transform="matrix(0.240809 0.000167066 -0.000166182 0.242089 -23.209 -30.0353)" d="M436.808 383.4C452.274 358.94 476.563 352.347 501.854 367.004C505.55 370.187 508.428 372.613 511.59 376.385C512.636 377.87 512.437 378.144 513.826 378.622C524.406 370.994 530.525 367.616 544.202 367.872C556.222 368.059 567.665 373.06 575.966 381.755C584.325 390.548 588.835 402.31 588.499 414.437C588.208 424.109 584.845 432.809 579.382 440.705C577.986 442.14 573.992 446.028 573.243 447.502C565.472 456.956 551.19 459.586 539.593 458.696C543.007 425.025 515.059 400.846 481.716 410.634C473.507 413.044 463.176 422.517 458.75 429.642C457.159 432.203 455.309 437.504 453.868 440.613C432.856 425.196 428.045 407.63 436.808 383.4Z"/><path fill="#482709" transform="matrix(0.240809 0.000167066 -0.000166182 0.242089 -23.209 -30.0353)" d="M461.514 368.873C469.347 369.153 470.071 378.422 462.75 380.41C454.891 380.944 454.563 373.393 461.514 368.873Z"/><path fill="#482709" transform="matrix(0.240809 0.000167066 -0.000166182 0.242089 -23.209 -30.0353)" d="M464.89 385.959C471.601 386.416 470.675 389.79 470.493 395.186L465.778 397.535C459.361 395.936 457.628 388.436 464.89 385.959Z"/><path fill="#482709" transform="matrix(0.240809 0.000167066 -0.000166182 0.242089 -23.209 -30.0353)" d="M445.956 385.374C453.821 384.862 455.632 391.454 449.426 396.132C441.138 397.596 440.361 390.311 445.956 385.374Z"/><path fill="#482709" transform="matrix(0.240809 0.000167066 -0.000166182 0.242089 -23.209 -30.0353)" d="M660.705 663.464L662.564 672.803C642.644 678.315 622.522 680.675 601.881 678.505C615.479 677.364 630.129 673.67 643.234 669.95C649.202 668.256 654.875 665.613 660.705 663.464Z"/><path fill="#482709" transform="matrix(0.240809 0.000167066 -0.000166182 0.242089 -23.209 -30.0353)" d="M633.122 565.742L636.084 574.023C624.422 580.581 603.827 585.06 590.354 584.303C602.901 581.51 622.87 573.8 633.122 565.742Z"/><path fill="#482709" transform="matrix(0.240809 0.000167066 -0.000166182 0.242089 -23.209 -30.0353)" d="M595.233 483.106C596.786 485.893 598.406 488.693 599.783 491.567C596.902 492.183 588.982 496.216 585.44 497.465C578.2 500.017 571.863 501.656 564.398 503.299C580.332 494.806 581.122 495.736 595.233 483.106Z"/><path fill="#543314" transform="matrix(0.240809 0.000167066 -0.000166182 0.242089 -23.209 -30.0353)" d="M463.552 442.002C466.669 441.957 470.423 442.595 470.528 446.746C470.619 450.308 468.682 451.734 466.297 453.975C458.723 453.614 458.73 445.272 463.552 442.002Z"/><path fill="#543314" transform="matrix(0.240809 0.000167066 -0.000166182 0.242089 -23.209 -30.0353)" d="M477.998 423.127C484.266 423.747 484.054 431.825 476.987 434.132C469.302 432.597 470.273 424.004 477.998 423.127Z"/><path fill="#543314" transform="matrix(0.240809 0.000167066 -0.000166182 0.242089 -23.209 -30.0353)" d="M479.37 438.75C485.963 438.885 491.109 442.326 484.833 448.405C476.933 450.905 474.559 444.554 479.37 438.75Z"/><defs><linearGradient id="gradient_0" gradientUnits="userSpaceOnUse" x1="359.10217" y1="248.04079" x2="368.60608" y2="467.02798"><stop offset="0" stop-color="#93C740"/><stop offset="1" stop-color="#B6EA57"/></linearGradient></defs><path fill="url(#gradient_0)" transform="matrix(0.240809 0.000167066 -0.000166182 0.242089 -23.209 -30.0353)" d="M224.641 312.731C255.309 268.254 306.973 243.227 361.042 249.22C373.869 250.642 385.078 253.774 397.434 257.284C438.623 271.814 478.301 308.61 496.325 348.128C498.894 353.76 501.393 359.842 504.663 365.044L501.854 367.004C476.563 352.347 452.274 358.94 436.808 383.4C420.735 391.529 406.639 400.278 393.258 412.362C391.68 413.787 389.012 416.567 387.441 417.72C376.179 420.185 356.931 428.365 344.557 432.363C341.254 422.086 336.289 408.349 333.889 398.292C328.623 413.617 327.335 426.395 323.144 440.411C320.474 441.562 317.297 442.717 314.52 443.628C289.843 451.727 265.628 461.17 241.215 470.024C237.34 471.43 232.875 473.16 229.296 475.158C235.81 402.261 276.497 352.994 347.164 334.041L352.151 305.18C343.929 312.043 330.376 325.994 322.435 333.8C315.022 332.87 303.273 329.47 295.666 327.843C273.44 323.09 246.974 315.222 224.641 312.731Z"/><path fill="#5D9A37" transform="matrix(0.240809 0.000167066 -0.000166182 0.242089 -23.209 -30.0353)" d="M510.109 288.622C512.044 278.764 516.304 269.101 520.641 260.058C533.638 232.958 553.144 207.515 578.269 190.6C611.058 168.814 651.116 160.839 689.749 168.407C700.847 170.575 715.213 174.827 724.702 181.181C705.294 198.424 686.052 215.854 666.978 233.467C661.886 238.173 656.948 243.222 651.828 247.814C638.143 243.624 624.245 240.163 610.193 237.444C617.962 245.75 626.284 255.372 633.733 264.037C622.08 275.128 599.338 294.202 590.616 305.543C577.915 317.392 565.087 329.102 552.133 340.674C548.221 344.22 534.805 356.064 531.887 359.472C524.066 365.307 518.083 368.83 511.59 376.385C508.428 372.613 505.55 370.187 501.854 367.004L504.663 365.044C506.852 357.29 509.546 341.308 509.852 333.59C510.8 323.131 510.718 307.692 510.38 297.065C510.593 294.851 510.456 290.799 510.109 288.622Z"/><path fill="#286125" transform="matrix(0.240809 0.000167066 -0.000166182 0.242089 -23.209 -30.0353)" d="M590.616 305.543C653.052 283.713 720.488 293.801 764.758 345.959C781.211 365.343 790.566 383.335 796.852 408C776.946 404.791 756.992 401.891 736.997 399.301C724.707 397.606 711.097 395.364 698.819 394.396C695.844 388.68 692.941 381.987 690.032 376.053C687.413 370.711 682.836 362.29 680.773 357.003C678.536 367.616 676.471 380.333 674.859 391.122C670.598 390.559 666.326 390.089 662.045 389.712C661.223 388.659 654.339 385.013 652.709 384.024C626.27 367.98 597.881 361.999 567.62 359.133C560.667 358.776 552.226 358.852 545.276 359.074C540.811 359.189 536.352 359.426 531.887 359.472C534.805 356.064 548.221 344.22 552.133 340.674C565.087 329.102 577.915 317.392 590.616 305.543Z"/><path fill="#78AE3A" transform="matrix(0.240809 0.000167066 -0.000166182 0.242089 -23.209 -30.0353)" d="M309.937 161.023C322.269 157.248 332.229 154.204 345.223 152.77C373.155 149.688 403.437 156.5 428.117 169.578C467.82 190.615 492.167 225.947 504.736 268.341C506.846 275.455 508.375 281.398 510.109 288.622C510.456 290.799 510.593 294.851 510.38 297.065C510.718 307.692 510.8 323.131 509.852 333.59C509.546 341.308 506.852 357.29 504.663 365.044C501.393 359.842 498.894 353.76 496.325 348.128C478.301 308.61 438.623 271.814 397.434 257.284L392.23 251.65C399.72 243.723 409.152 234.422 417.437 227.322C404.071 228.847 388.095 230.358 375.028 233.031C361.343 218.355 347.769 203.576 334.309 188.695C330.117 184.145 312.29 165.115 309.937 161.023Z"/><path fill="#88BB64" transform="matrix(0.240809 0.000167066 -0.000166182 0.242089 -23.209 -30.0353)" d="M510.38 297.065C510.718 307.692 510.8 323.131 509.852 333.59C509.126 330.087 508.938 299.707 510.38 297.065Z"/><path fill="#367D2E" transform="matrix(0.240809 0.000167066 -0.000166182 0.242089 -23.209 -30.0353)" d="M545.276 359.074C552.226 358.852 560.667 358.776 567.62 359.133C597.881 361.999 626.27 367.98 652.709 384.024C654.339 385.013 661.223 388.659 662.045 389.712L662.458 390.106C665.6 393.053 669.471 395.972 672.909 398.613C705.868 423.939 724.89 464.882 726.439 506.328C726.995 519.726 725.883 533.14 723.13 546.263C722.072 551.211 720.627 555.727 719.526 560.436C713.116 556.316 702.269 546.403 696.24 541.178L665.766 515.159C658.783 509.164 650.751 501.887 643.445 496.478C645.801 481.904 646.644 468.803 648.477 454.57C642.102 460.953 631.405 473.402 625.64 480.62C612.12 469.791 591.84 452.487 579.382 440.705C584.845 432.809 588.208 424.109 588.499 414.437C588.835 402.31 584.325 390.548 575.966 381.755C567.665 373.06 556.222 368.059 544.202 367.872C530.525 367.616 524.406 370.994 513.826 378.622C512.437 378.144 512.636 377.87 511.59 376.385C518.083 368.83 524.066 365.307 531.887 359.472C536.352 359.426 540.811 359.189 545.276 359.074Z"/><path fill="#5D9A37" transform="matrix(0.240809 0.000167066 -0.000166182 0.242089 -23.209 -30.0353)" d="M545.276 359.074C552.226 358.852 560.667 358.776 567.62 359.133C563.96 360.817 549.459 359.983 545.276 359.074Z"/><path fill="#5D9A37" transform="matrix(0.240809 0.000167066 -0.000166182 0.242089 -23.209 -30.0353)" d="M387.441 417.72C389.012 416.567 391.68 413.787 393.258 412.362C406.639 400.278 420.735 391.529 436.808 383.4C428.045 407.63 432.856 425.196 453.868 440.613C453.849 443.055 452.751 445.846 452.476 448.382C451.61 456.363 453.326 463.225 455.97 470.687C449.327 479.639 441.018 496.728 434.583 507.085C425.04 502.513 412.827 496.037 403.68 490.615C409.174 502.293 418.143 516.53 422.766 528.088C412.123 548.41 399.787 568.62 388.808 588.838C384.419 596.92 378.969 605.424 375.008 613.627C326.264 551.372 333.736 474.279 387.441 417.72Z"/></g></svg>