<?xml version="1.0" encoding="utf-8" ?><svg xmlns="http://www.w3.org/2000/svg" xmlns:xlink="http://www.w3.org/1999/xlink" width="200" height="200" viewBox="0 0 200 200"><defs><linearGradient id="gradient_0" gradientUnits="userSpaceOnUse" x1="868.21533" y1="602.78094" x2="571.51697" y2="248.57072"><stop offset="0" stop-color="#266023"/><stop offset="1" stop-color="#549937"/></linearGradient></defs><path fill="url(#gradient_0)" transform="scale(0.195312 0.195312)" d="M252.145 213.579L252.215 212.892C252.974 206.067 256.645 193.863 258.993 187.065C275.037 140.621 303.698 103.631 341.307 72.7557C393.959 29.5311 463.251 11.7829 530.612 18.9839C599.811 26.5796 663.166 61.329 706.764 115.6C725.703 139.345 740.341 166.138 749.691 195.126C752.247 203.051 753.296 209.434 755.225 217.275C761.424 218.263 769.301 220.478 775.424 222.19C825.971 236.422 870.316 267.131 901.419 309.442C935.476 356.875 949.48 415.813 940.4 473.495C930.615 533.917 894.298 587.611 844.993 623.12C823.648 638.579 799.777 650.21 774.448 657.492C761.153 661.301 747.474 663.614 733.665 664.388C730.821 664.576 722.799 664.545 721.155 666.159C703.327 666.613 672.924 665.924 655.769 659.882C643.997 655.913 636.378 652.557 625.267 647.133C605.309 678.64 575.226 702.421 539.962 714.566C512.021 724.189 482.002 726.099 453.067 720.094C410.074 711.172 372.44 685.413 348.561 648.564C343.701 650.042 337.566 650.523 333.972 651.728C316.649 654.522 300.537 654.122 283.112 653.846C281.641 653.175 256.496 651.332 250.784 650.347C205.744 642.537 164.138 621.236 131.47 589.262C98.4535 557.266 76.2197 515.784 67.8561 470.575C66.4369 462.745 64.7811 450.719 64.7079 442.821C63.7863 435.51 64.3036 422.772 64.84 415.371C67.373 375.952 80.5077 337.949 102.856 305.378C129.698 266.971 168.129 238.164 212.523 223.174C225.87 218.699 238.364 216.133 252.145 213.579Z"/><defs><linearGradient id="gradient_1" gradientUnits="userSpaceOnUse" x1="419.30243" y1="583.07953" x2="181.18605" y2="317.88742"><stop offset="0" stop-color="#499233"/><stop offset="1" stop-color="#8DC648"/></linearGradient></defs><path fill="url(#gradient_1)" transform="scale(0.195312 0.195312)" d="M252.145 213.579C260.722 211.904 291.837 209.86 299.825 211.879C328.842 212.598 358.121 223.947 384.123 235.737C388.879 238.712 393.773 241.192 398.644 244.257C439.671 270.074 473.251 311.973 483.079 360.059C483.455 361.901 483.746 364.437 484.672 365.978C482.954 372.398 481.497 378.851 480.219 385.373C479.882 387.097 479.06 393.895 478.522 395.08C419.795 397.919 367.061 431.919 340.236 484.239C313.412 536.559 316.587 599.223 348.561 648.564C343.701 650.042 337.566 650.523 333.972 651.728C316.649 654.522 300.537 654.122 283.112 653.846C281.641 653.175 256.496 651.332 250.784 650.347C205.744 642.537 164.138 621.236 131.47 589.262C98.4535 557.266 76.2197 515.784 67.8561 470.575C66.4369 462.745 64.7811 450.719 64.7079 442.821C63.7863 435.51 64.3036 422.772 64.84 415.371C67.373 375.952 80.5077 337.949 102.856 305.378C129.698 266.971 168.129 238.164 212.523 223.174C225.87 218.699 238.364 216.133 252.145 213.579Z"/><path fill="#91C849" transform="scale(0.195312 0.195312)" d="M252.145 213.579C260.722 211.904 291.837 209.86 299.825 211.879C298.876 212.02 297.926 212.155 296.975 212.285C298.107 212.149 298.267 212.266 299.262 212.81L298.14 213.033C298.342 214.364 298.139 214.573 299.689 215.019C299.358 216.751 297.76 217.712 296.95 219.19C292.6 227.128 287.273 233.324 281.491 240.144C276.906 245.551 273.406 253.033 268.053 258.103C264.579 261.818 261.666 264.834 257.351 267.722L256.603 268.214C254.644 269.548 254.169 269.703 251.757 269.637C249.514 271.315 251.316 271.932 249.334 272.688C247.632 272.333 245.825 271.957 244.479 273.5C243.363 274.778 240.349 275.444 240.068 275.678C230.524 283.618 218.306 289.832 213.374 301.878C212.429 304.186 213.198 308.654 211.838 311.082C211.518 311.801 210.904 315.818 210.754 316.754L209.809 317.203C207.946 315.862 209.726 315.307 207.864 313.572C211.051 339.904 205.12 358.883 183.181 371.848C178.564 374.576 174.954 386.155 166.358 377.675C160.388 371.951 153.683 366.747 147.279 361.363L146.533 361.628C147.972 363.361 149.067 364.425 150.689 366.007L150.54 366.49C141.064 366.442 140.958 368 133.245 371.456C121.419 376.755 112.665 384.27 103.492 393.284C102.133 394.619 99.2405 396.767 97.6564 398.313C96.5087 399.434 91.5352 404.883 90.7638 405.381C84.3997 409.486 81.2688 407.911 77.4772 415.509C73.511 417.749 75.3135 418.845 72.4029 422.703C70.5114 425.211 72.1629 426.656 71.8235 428.764C71.0037 433.857 67.3611 440.876 67.0919 445.655L66.0324 446.117L66.5642 447.014L66.8959 446.351L66.2836 446.896C65.147 445.333 65.6424 444.495 64.7079 442.821C63.7863 435.51 64.3036 422.772 64.84 415.371C67.373 375.952 80.5077 337.949 102.856 305.378C129.698 266.971 168.129 238.164 212.523 223.174C225.87 218.699 238.364 216.133 252.145 213.579Z"/><path fill="#F7D126" transform="scale(0.195312 0.195312)" d="M147.279 361.363C134.389 344.327 131.71 323.125 139.37 302.994C143.76 291.458 150.947 285.944 160.921 279.559C163.179 278.114 165.735 272.31 169.071 271.455C176.234 269.316 178.604 276.195 182.914 280.112C184.94 281.905 188.424 283.303 190.679 284.99C200.606 292.417 204.408 302.055 207.864 313.572C211.051 339.904 205.12 358.883 183.181 371.848C178.564 374.576 174.954 386.155 166.358 377.675C160.388 371.951 153.683 366.747 147.279 361.363Z"/><path fill="#F7D126" transform="scale(0.195312 0.195312)" d="M363.595 302.536C372.998 302.296 370.972 306.84 376.27 310.819C384.647 317.11 390.469 319.664 395.797 329.16C407.416 349.87 404.574 380.446 386.476 396.638C383.894 398.934 379.769 400.741 377.148 403.061C373.466 406.319 372.437 408.941 367.961 411.508C359.636 411.605 360.185 407.972 354.666 402.884C352.65 401.244 350.233 399.878 348.072 398.463C330.389 386.892 325.712 360.461 330.88 341.232C333.171 332.71 338.187 323.475 345.111 317.976C348.241 315.49 351.944 313.404 355.027 310.828C359.235 306.926 357.655 305.957 363.595 302.536Z"/><path fill="#F7D126" transform="scale(0.195312 0.195312)" d="M179.096 500.509C188.251 500.443 186.003 504.35 191.097 508.755C195.848 512.865 201.243 515.11 205.698 520.294C223.047 540.479 221.972 576.422 201.775 594.293C199.272 596.497 194.889 598.381 192.438 600.615C188.599 604.113 187.663 606.674 182.817 609.337C174.866 609.944 174.903 605.548 169.869 600.903C167.837 599.354 165.404 597.787 163.294 596.406C138.331 580.067 137.825 532.467 161.732 514.966C163.632 513.576 169.423 510.265 170.614 508.962C174.465 504.748 173.396 503.351 179.096 500.509Z"/><defs><linearGradient id="gradient_2" gradientUnits="userSpaceOnUse" x1="631.23627" y1="299.57199" x2="467.97583" y2="62.146496"><stop offset="0" stop-color="#7AB841"/><stop offset="1" stop-color="#B7DE52"/></linearGradient></defs><path fill="url(#gradient_2)" transform="scale(0.195312 0.195312)" d="M252.145 213.579L252.215 212.892C252.974 206.067 256.645 193.863 258.993 187.065C275.037 140.621 303.698 103.631 341.307 72.7557C393.959 29.5311 463.251 11.7829 530.612 18.9839C599.811 26.5796 663.166 61.329 706.764 115.6C725.703 139.345 740.341 166.138 749.691 195.126C752.247 203.051 753.296 209.434 755.225 217.275C737.489 212.144 713.963 211.116 695.658 211.201C602.073 211.636 511.403 273.845 485.011 364.771C484.894 365.172 484.781 365.575 484.672 365.978C483.746 364.437 483.455 361.901 483.079 360.059C473.251 311.973 439.671 270.074 398.644 244.257C393.773 241.192 388.879 238.712 384.123 235.737C358.121 223.947 328.842 212.598 299.825 211.879C291.837 209.86 260.722 211.904 252.145 213.579Z"/><path fill="#D3E753" transform="scale(0.195312 0.195312)" d="M252.145 213.579L252.215 212.892C252.974 206.067 256.645 193.863 258.993 187.065C275.037 140.621 303.698 103.631 341.307 72.7557C393.959 29.5311 463.251 11.7829 530.612 18.9839C530.203 20.1307 530.163 20.8062 528.961 21.4572C488.448 43.4087 453.465 79.6839 430.55 120.008C437.863 141.397 435.975 168.511 416.322 183.237C413.766 185.152 410.143 186.46 407.748 188.741C402.109 194.196 403.185 196.366 394.524 196.55C392.135 204.219 390.002 211.965 388.128 219.775C387.02 224.319 385.591 231.521 384.123 235.737C358.121 223.947 328.842 212.598 299.825 211.879C291.837 209.86 260.722 211.904 252.145 213.579Z"/><path fill="#F7D126" transform="scale(0.195312 0.195312)" d="M394.524 196.55C391.204 194.148 388.724 190.056 386.693 188.539C378.941 183.107 373.922 180.547 368.8 172.212C356.079 151.511 357.631 117.919 377.618 102.129C379.879 100.343 385.596 96.9858 387.24 95.2038C391.632 90.4465 391.999 85.9516 400.043 87.9684C403.558 88.3181 406.044 94.9707 407.774 95.9982C420.184 103.368 423.85 106.73 430.55 120.008C437.863 141.397 435.975 168.511 416.322 183.237C413.766 185.152 410.143 186.46 407.748 188.741C402.109 194.196 403.185 196.366 394.524 196.55Z"/><path fill="#F7D126" transform="scale(0.195312 0.195312)" d="M638.004 81.5359C646.909 80.7675 646.475 85.5283 652.121 90.349C656.432 94.0296 661.827 96.11 665.748 100.747C682.697 120.792 681.698 158.109 660.946 175.219C658.319 177.382 654.326 179.302 651.882 181.566C648.487 184.712 647.909 187.006 643.53 189.452C641.911 189.602 641.012 189.736 639.335 189.506C635.216 188.942 633.403 183.694 630.946 181.922C623.548 176.588 619.433 175.676 613.992 167.8C605.307 155.232 602.27 139.865 604.874 124.852C606.814 113.672 611.371 104.824 620.006 97.4033C622.919 94.8996 626.11 92.7022 629.037 90.1718C632.674 87.0273 633.986 84.3492 638.004 81.5359Z"/><defs><linearGradient id="gradient_3" gradientUnits="userSpaceOnUse" x1="602.60657" y1="672.94165" x2="369.8808" y2="444.02954"><stop offset="0" stop-color="#225720"/><stop offset="1" stop-color="#36722A"/></linearGradient></defs><path fill="url(#gradient_3)" transform="scale(0.195312 0.195312)" d="M478.522 395.08C539.785 392.119 597.598 423.525 628.458 476.531C659.319 529.537 658.088 595.318 625.267 647.133C605.309 678.64 575.226 702.421 539.962 714.566C512.021 724.189 482.002 726.099 453.067 720.094C410.074 711.172 372.44 685.413 348.561 648.564C316.587 599.223 313.412 536.559 340.236 484.239C367.061 431.919 419.795 397.919 478.522 395.08Z"/><path fill="#F7D126" transform="scale(0.195312 0.195312)" d="M396.077 519.065C405.519 518.849 403.451 523.711 408.609 527.433C416.827 533.362 423.718 537.21 428.668 546.672C439.297 566.989 436.829 597.693 418.588 612.988C415.892 615.235 411.119 617.456 408.731 619.695C404.939 623.249 404.993 625.195 399.946 627.937C391.833 628.131 392.376 624.643 387.196 619.726C385.063 618.086 382.728 616.628 380.469 615.16C362.032 603.139 357.45 575.421 363.764 555.743C368.309 541.58 375.201 535.348 386.999 527.561C390.436 525.292 390.009 522.19 396.077 519.065Z"/><path fill="#F7D126" transform="scale(0.195312 0.195312)" d="M755.687 519.059C762.727 519.908 762.666 523.3 767.125 527.769C769.326 529.614 772.054 531.27 774.394 532.885C793.929 546.365 797.389 576.868 788.56 597.443C785.912 603.612 781.68 610.108 776.257 614.076C773.422 616.15 770.153 617.934 767.372 620.109C762.452 624.541 764.044 626.119 757.365 628.807C755.396 628.577 755.063 628.505 753.227 627.771C749.997 626.481 748.378 622.304 745.942 620.389C743.332 618.313 740.329 616.732 737.618 614.802C717.879 600.744 715.001 569.039 724.891 548.407C730.171 537.394 736.106 534.202 745.578 527.598C750.345 524.275 747.663 521.79 755.687 519.059Z"/><path fill="#F7D126" transform="scale(0.195312 0.195312)" d="M847.025 295.102C854.652 295.987 853.089 298.767 857.639 303.022C859.53 304.791 864.464 307.476 866.812 309.206C886.435 323.757 889.18 354.067 879.492 375.079C874.129 386.712 868.578 389.776 858.465 396.276C854.68 398.708 855.733 401.991 848.763 404.543C847.596 404.435 844.337 403.756 843.779 403.065C838.759 396.858 833.904 393.68 827.54 389.556C820.613 385.066 815.233 373.468 813.131 365.685C809.275 351.411 810.628 334.369 818.119 321.411C823.551 311.745 828.844 309.81 837.223 303.573C841.336 300.51 839.437 297.064 847.025 295.102Z"/><path fill="#F7D126" transform="scale(0.195312 0.195312)" d="M613.118 272.029C621.607 272.594 620.016 276.992 624.79 280.382C635.387 287.906 640.862 290.735 646.438 303.257C655.482 323.571 651.794 353.824 633.047 367.697C630.53 369.56 627.35 371.231 624.931 373.268C620.823 377.418 620.958 379.13 615.355 381.533C608.219 381.045 608.433 377.695 603.925 373.418C601.463 371.389 598.443 369.69 595.847 367.86C576.819 354.309 573.232 324.871 581.679 304.415C586.756 292.121 592.962 287.764 603.433 280.72C607.438 278.026 605.89 275.047 613.118 272.029Z"/><defs><linearGradient id="gradient_4" gradientUnits="userSpaceOnUse" x1="731.38678" y1="691.60284" x2="303.1102" y2="924.63446"><stop offset="0" stop-color="#3F2E07"/><stop offset="1" stop-color="#5C330E"/></linearGradient></defs><path fill="url(#gradient_4)" transform="scale(0.195312 0.195312)" d="M333.972 651.728C368.194 687.575 405.433 720.721 440.923 755.311C444.472 758.77 448.158 762.401 451.835 765.71C451.463 752.993 452.72 733.371 453.067 720.094C482.002 726.099 512.021 724.189 539.962 714.566C540.23 729.748 539.96 752.423 542.046 767.06C547.042 763.799 554.55 756.79 559.023 752.637C568.638 743.558 578.182 734.404 587.652 725.174L655.769 659.882C672.924 665.924 703.327 666.613 721.155 666.159C668.699 717.6 613.978 767.107 561.878 818.982C554.574 826.777 548.234 833.976 549.43 845.514C553.742 887.094 553.393 933.089 571.494 971.416C576.019 980.996 586.879 990.323 595.336 995.744C611.29 1005.97 630.242 1008.58 644.241 1021.99L352.865 1021.48C374.317 1006.37 397.293 1003.87 414.943 984.087C421.134 977.176 425.917 969.124 429.024 960.381C438.83 932.935 440.282 896.791 443.737 867.828C445.043 856.883 445.746 845.117 445.732 834.119C445.726 829.021 443.899 824.686 440.964 820.615C434.137 810.877 425.777 801.946 417.716 793.224L388.597 761.968C365.931 737.59 342.89 713.565 319.48 689.9C308.219 678.477 294.881 664.333 283.112 653.846C300.537 654.122 316.649 654.522 333.972 651.728Z"/></svg>