<?xml version="1.0" encoding="utf-8" ?><svg xmlns="http://www.w3.org/2000/svg" xmlns:xlink="http://www.w3.org/1999/xlink" width="200" height="212" viewBox="0 0 200 212"><defs><linearGradient id="gradient_0" gradientUnits="userSpaceOnUse" x1="1476.2915" y1="3279.4883" x2="3112.3525" y2="671.09393"><stop offset="0" stop-color="#58463B"/><stop offset="1" stop-color="#876B54"/></linearGradient></defs><path fill="url(#gradient_0)" transform="matrix(0.0409584 0 0 0.0411092 9.87097 24.9532)" d="M2023.54 249.433C2047.61 247.176 2096.7 228.855 2121.09 223.071C2261.74 189.726 2433.24 222.882 2450.55 383.562C2460.21 473.231 2424.18 593.251 2379 671.648C2441.48 587.184 2488.33 408.726 2437.1 309.021C2433.49 301.981 2424.29 290.994 2419.45 283.258L2420.8 282.633C2424.46 286.666 2442.25 306.253 2443.98 310.28C2461.21 350.526 2469.21 396.025 2465.2 439.028C2460.66 487.614 2448.43 529.017 2432.9 574.48C2429.34 584.909 2416.75 615.318 2415.38 623.318L2425.94 605.159C2464.36 539.731 2487.38 399.039 2465.62 326.373C2464.89 323.86 2464.05 321.377 2463.1 318.929L2464.67 313.522C2468.78 311.402 2466.74 311.949 2470.68 311.517C2488.43 334.502 2509.02 354.746 2526.99 377.499C2674.95 564.828 2790.3 771.271 2928.15 964.724C2938.42 979.124 2944.41 997.785 2953.11 1013.13C2960.78 1027.51 2986.59 1045.19 2989.65 1062.35C2990.81 1067.46 2992.05 1072.55 2993.4 1077.63C3005.92 1124.22 3073.72 1191.69 3104.83 1230.27C3112.69 1240.02 3148.72 1298.88 3159.32 1295.13C3152.34 1284.97 3150.21 1257.79 3147.12 1244.52C3145.4 1237.14 3149.88 1222.81 3145.76 1214.92C3142.65 1219.27 3142.6 1220.89 3138.31 1222.95C3139.23 1219.27 3142.34 1208.13 3141.15 1204.92C3122 1153.39 3110.6 1098.76 3102.27 1044.77C3100.44 1032.92 3098.88 1021.37 3094.89 1010.04C3091.78 1010.87 3092.79 1011.07 3090 1014.68L3087.27 1013.17L3087.81 1014.69L3087.09 1015.19C3087.13 1027 3090.87 1039.8 3089.26 1049.81L3086.07 1046.38C3083.38 1048.17 3083.5 1051.18 3082.42 1055.15L3087.5 1059.29L3081.82 1061.2L3079.63 1059.46C3076.83 1051.76 3068.14 1023.3 3070.25 1017.3C3074.53 1018.81 3072.87 1018.68 3077.28 1018.49C3075.61 1011.56 3068.32 1010.82 3065.48 1002.13C3066.97 996.857 3068.15 994.265 3067.48 988.784L3065.2 989.405L3064.58 998.691C3059.64 1002.17 3057.96 1002.17 3052.05 1003.46L3050.12 1003.87C3062.1 980.606 3049.73 948.56 3045.9 923.136C3038.94 876.901 3029.03 830.67 3021.64 784.468C3018.93 767.477 3012.21 747.988 3011.93 731.122C3017.6 733.072 3021.81 734.342 3027.61 735.936C3035.21 745.243 3089.18 799.365 3098.03 805.14C3107.1 805.357 3112.79 799.852 3119.8 794.335C3126.54 795.25 3127.47 795.23 3134.09 797.515C3136.79 795.354 3137.02 795.435 3139.15 792.812C3156.99 939.179 3178.44 1085.13 3203.47 1230.55C3212.87 1283.06 3226.16 1361.25 3244.57 1410.48C3259.24 1449.68 3314.58 1513.33 3341.75 1549.63C3411.84 1644.13 3480.72 1739.43 3548.37 1835.51C3617.96 1934.9 3689.5 2016.68 3682.29 2141.74C3676.91 2234.96 3636.21 2307.85 3594.02 2390.58C3582.89 2412.85 3563.42 2441.23 3558.86 2463.53C3557.47 2465.29 3556.09 2467.05 3554.71 2468.81C3551.46 2515.42 3556.81 2562.19 3553.78 2608.94C3552.86 2592.54 3552.13 2576.13 3551.61 2559.72C3548.81 2621.97 3550.27 2673.44 3542.28 2735.87C3536.74 2805.53 3530.81 2873.48 3510.42 2940.82C3501.17 2971.38 3491.99 3007.21 3483.57 3038.13C3431.94 3227.66 3339.93 3399.67 3184.66 3532.38C3143.21 3567.81 3090.19 3607.39 3039.87 3630.36C3020.83 3639.06 3020.03 3637.28 3002.41 3649.5L3000.97 3646.99C3003.88 3644.37 3006.6 3641.79 3009.43 3639.09L3008.79 3637.09C2990.01 3638.92 2991.92 3651.4 2970.69 3652.63C2951.93 3653.72 2923.35 3670.71 2901.35 3673.86C2887.54 3675.84 2877.01 3674.51 2863.29 3674.95L2862.54 3676.41L2868.39 3679.45C2842.6 3688.43 2820.09 3681.35 2793.58 3683.14C2793.35 3683.16 2789.97 3693.98 2777 3685.97C2770.2 3681.78 2755.09 3682.63 2746.52 3683.46C2746.99 3687.02 2746.58 3685.01 2748.04 3689.45C2700.63 3673.98 2646.72 3665.21 2599.38 3645.17C2585.99 3639.51 2538.86 3609.11 2530.58 3609.69C2574.18 3651.55 2615.23 3654.63 2669.34 3677.54C2676.68 3680.65 2700.93 3688.42 2704.56 3692.78L2702.54 3695.04C2681.62 3696.64 2654.15 3693.65 2632 3694.3C2562.84 3683.92 2503.9 3653.69 2441.86 3626.83C2380.24 3600.15 2324.97 3577.26 2265.99 3544.81C2211.75 3514.97 2142.43 3466.24 2087.49 3441.28C1958.24 3383.56 1827.35 3329.22 1694.95 3278.32C1653.12 3262.19 1607.2 3249.34 1565.93 3232.93C1542.85 3223.74 1514.44 3204.43 1489.06 3193.86C1358.97 3139.67 1229.41 3079.05 1099 3026.19C929.26 2955.96 762.087 2880.29 597.777 2799.3C559.256 2780.44 433.257 2729.48 419.451 2692.18C403.126 2644.48 392.83 2595.56 382.243 2546.51C354.764 2419.22 364.792 2280.73 369.242 2151.19C370.336 2119.34 379.557 2077.39 383.698 2044.77C391.075 1986.67 398.525 1923.58 424.716 1870.27C484.652 1763 591.356 1682.71 684.21 1602.86C771.253 1528.01 796.189 1529.53 896.978 1494.16C897.662 1494.06 898.347 1493.97 899.03 1493.86C933.42 1488.47 962.818 1476.54 998.761 1477.11C1048.35 1477.88 1101.14 1483.43 1150.19 1490.62C1189.79 1496.42 1482.03 1556.06 1498.69 1567.5C1499.53 1568.08 1500.35 1568.7 1501.18 1569.3C1512.73 1568.69 1514.61 1569.79 1525.04 1564.17C1507.49 1530.51 1475.99 1493.47 1454.41 1463.04C1410.38 1400.38 1367.88 1336.76 1326.97 1272.23C1319.64 1261.83 1312.29 1250.16 1305.26 1239.47L1309.59 1237.43C1316.14 1242.47 1321.59 1246.99 1327.82 1252.39L1329.8 1250.86L1328.57 1247.54C1319.75 1236.68 1308.77 1216.64 1306.02 1203.12C1304.79 1197.07 1304.13 1197.51 1299.38 1194.74C1298.41 1189.27 1297.86 1191.73 1301.01 1187.11C1304.53 1192.12 1310.83 1197.07 1317.35 1195.07L1318.74 1189.97C1330.26 1201.63 1352.15 1225.06 1366.79 1230.43C1367.18 1230.88 1367.57 1231.34 1367.96 1231.8C1422.16 1266.17 1496.05 1263.07 1554.82 1256.63C1552.1 1254 1513.66 1256.67 1507.41 1256.85C1385.03 1260.48 1303.43 1200.85 1291.08 1082.56C1278.97 966.498 1331.66 840.949 1393.43 742.199C1427.18 688.242 1477.28 633.14 1520.83 585.942C1637.2 457.956 1786.5 356.208 1950.71 290.403C1974.1 281.032 1998.14 252.093 2023.54 249.433ZM1199.85 3010.41L1199.83 3016.08C1204.6 3016.72 1204.06 3016.6 1208.88 3016.4L1205.04 3008.66C1201.04 3008.64 1202.76 3008.01 1199.85 3010.41ZM1195.52 3009.01C1191.69 2999.71 1193.92 3000.96 1186.66 2996.31C1180.2 2995.8 1172.64 2995.74 1166.88 2993.15C1170.16 3005.75 1182.76 3012.85 1195.52 3009.01ZM508.585 2163.07C525.707 2171.28 579.506 2203.06 595.361 2199.45L596.257 2196.59C589.272 2187.74 543.636 2148.97 533.81 2143.34C520.039 2135.44 512.374 2134.35 495.632 2119.75L498.3 2120.49C470.958 2102.61 443.805 2083.74 413.091 2072.44C407.176 2070.27 412.77 2066.3 405.714 2060.87C400.718 2075.71 388.359 2152.8 395.742 2164.57C397.306 2159.84 397.059 2160.48 397.671 2155.55C417.454 2154.27 457.254 2180.81 473.164 2176.48C478.128 2162.63 428.895 2126.97 416.162 2120.41L416.82 2118.25C423.405 2119.04 500.177 2157.8 508.585 2163.07ZM1147.53 2987.04C1136.1 2977.51 1124.39 2967.48 1111.11 2960.29C1087.88 2947.72 1061.55 2941.01 1037.76 2929.7C986.932 2905.54 938.144 2877.54 887.65 2853.06C865.023 2842.08 840.842 2833.98 817.793 2823.81C797.823 2815 779.27 2803.63 759.455 2794.57C743.287 2787.19 651.854 2749.28 640.033 2749.6C638.226 2749.65 637.399 2749.77 635.713 2749.96C658.038 2769.19 689.682 2782.95 716.186 2796.38C751.269 2814.15 786.3 2832.88 822.158 2849.19C860.331 2866.56 899.788 2881.5 937.872 2898.91C955.974 2907.19 1006.62 2936.7 1022.27 2937.1C1038.7 2937.52 1093.78 2974.86 1117.58 2981.61C1124.04 2983.44 1139.09 2990.12 1145.33 2988.33C1146.15 2988.09 1146.79 2987.47 1147.53 2987.04ZM1542.13 1243.08C1862 1190.55 2112.75 1023.16 2299.52 771.089C2386.47 653.739 2534.98 387.436 2367.48 264.725C2320.6 230.378 2264.69 226.286 2206.87 224.761C2148.13 226.468 2111.97 233.41 2056.6 251.975C2021.31 263.806 2000.1 282.959 1967.08 297.998C1929.78 314.316 1891.35 329.742 1854.92 347.663C1744.92 401.938 1645.13 473.019 1559.56 558.044C1510.05 608.121 1446.62 680.367 1408.9 739.101C1352.46 834.298 1298.74 944.937 1305.38 1056.51C1308.66 1111.62 1318.63 1164.29 1362.68 1202.69C1407.38 1241.66 1484.53 1251.05 1542.13 1243.08ZM2775.37 3647.46C2790.88 3647.44 2811.72 3647.99 2826.73 3646.43C2779.21 3643.32 2754.62 3644.36 2706.29 3633.17C2692.57 3630 2642.55 3614.35 2636.74 3613.62C2655.66 3621.32 2664.44 3626.94 2684.75 3631.89C2680.2 3630.62 2678.68 3630.51 2674.09 3631.22C2657.14 3633.83 2632.05 3610.83 2616.17 3610.54C2690.11 3652.86 2766.31 3662.72 2850.97 3650.55C2834.93 3647.79 2762.33 3657.36 2739.38 3645.88C2753.91 3641.19 2762.47 3648.22 2775.37 3647.46ZM2372.61 3539.79C2376.39 3557.53 2435 3590.68 2452.98 3590.2C2452.73 3585.3 2452.37 3584.91 2450.75 3580.18C2456 3565.3 2426.49 3550.56 2414 3546.69C2399.98 3542.36 2386.97 3542.02 2372.61 3539.79Z"/><path fill="#40352E" transform="matrix(0.0409584 0 0 0.0411092 9.87097 24.9532)" d="M1326.97 1272.23C1330.89 1267.72 1330.23 1264.06 1330.6 1257.97L1330.74 1255.34C1335.71 1256.58 1354.12 1270.57 1361.09 1274.61C1403.93 1299.42 1467.47 1308.05 1516.84 1305.57C1533.31 1305.35 1558.48 1296.01 1573.9 1296C1612.86 1295.99 1636.2 1289.81 1672.91 1279.67C1718.25 1267.14 1769.14 1243.99 1814.67 1234.75C1807.95 1240.02 1806.43 1240.67 1798 1242.76L1796.34 1246C1798.48 1246.09 1803.99 1245.56 1805.12 1247.35C1815.71 1264.2 1821.57 1289.19 1834.26 1304.84C1881.62 1363.23 1920.01 1426.74 1965.6 1486.34C1978.94 1503.77 1986.39 1526.74 2000.65 1543.91C2016.19 1563.27 2031.8 1583.98 2046.47 1603.74C2059.03 1620.67 2111.93 1669.72 2116.08 1687.59C2111.7 1692.11 2106.66 1691.41 2098.95 1691.78C2109.76 1697.43 2115.12 1697.24 2125.94 1704.91C2112.09 1701.81 2111.73 1700.85 2096.63 1701.74C2059.51 1695.87 2018.72 1682.04 1981.64 1673.85C1945.3 1665.82 1909.86 1658.24 1872.98 1652.44C1861.54 1650.64 1848.66 1645.62 1837.23 1643.16C1781.57 1629.04 1724.66 1618.9 1668.56 1606.21C1632.03 1597.95 1595.1 1591 1559.27 1580.08C1546.62 1576.23 1541.83 1570.53 1532.79 1561.92C1527.04 1561.5 1529.63 1560.95 1525.04 1564.17C1507.49 1530.51 1475.99 1493.47 1454.41 1463.04C1410.38 1400.38 1367.88 1336.76 1326.97 1272.23Z"/><path fill="#7E6349" transform="matrix(0.0409584 0 0 0.0411092 9.87097 24.9532)" d="M896.978 1494.16C897.662 1494.06 898.347 1493.97 899.03 1493.86C933.42 1488.47 962.818 1476.54 998.761 1477.11C1048.35 1477.88 1101.14 1483.43 1150.19 1490.62C1189.79 1496.42 1482.03 1556.06 1498.69 1567.5C1499.53 1568.08 1500.35 1568.7 1501.18 1569.3C1511.07 1578.34 1518.92 1566.67 1531.45 1576.33C1534.28 1583.43 1535.8 1586.96 1529.55 1591.9C1501.37 1589.05 1485.9 1581.92 1459.72 1576.93C1359.03 1557.76 1259.85 1533.2 1160.28 1510.43C1149.47 1507.96 1134.71 1509.62 1124.01 1505.41C1112.63 1500.68 1103.9 1505.36 1089.67 1504.42C1048.51 1501.7 1015.29 1494.39 973.604 1498.3C960.894 1499.49 905.15 1504.04 898.705 1502.71L896.978 1494.16Z"/><path fill="#6D4F3A" transform="matrix(0.0409584 0 0 0.0411092 9.87097 24.9532)" d="M1328.57 1247.54L1330.42 1246.66C1379.11 1280.95 1421.2 1292.1 1481.34 1295.85C1485.36 1296.1 1527.3 1294.04 1529.01 1293.42C1557.56 1283.02 1592.16 1287.29 1620.83 1280.41C1659.04 1269.68 1701.03 1260.27 1737.92 1246.21C1768.24 1234.65 1785.82 1229.42 1818.47 1224.32C1834.78 1221.77 1857.56 1190.64 1879.82 1191.36C1890.09 1191.69 1905.6 1181.28 1919.46 1179.71L1920.99 1181.65C1915.88 1189.58 1913.44 1192.28 1904.1 1195.26C1891.01 1199.44 1823.79 1235.2 1814.67 1234.75C1769.14 1243.99 1718.25 1267.14 1672.91 1279.67C1636.2 1289.81 1612.86 1295.99 1573.9 1296C1558.48 1296.01 1533.31 1305.35 1516.84 1305.57C1467.47 1308.05 1403.93 1299.42 1361.09 1274.61C1354.12 1270.57 1335.71 1256.58 1330.74 1255.34L1330.6 1257.97C1330.23 1264.06 1330.89 1267.72 1326.97 1272.23C1319.64 1261.83 1312.29 1250.16 1305.26 1239.47L1309.59 1237.43C1316.14 1242.47 1321.59 1246.99 1327.82 1252.39L1329.8 1250.86L1328.57 1247.54Z"/><path fill="#40352E" transform="matrix(0.0409584 0 0 0.0411092 9.87097 24.9532)" d="M2125.94 1704.91C2134.55 1707.51 2150.57 1709.29 2158.63 1704.49C2162.96 1698.59 2162.63 1699 2162.99 1691.77C2149.05 1696.33 2155.23 1690.04 2141.96 1683.43C2140.52 1662.83 2069.56 1549.64 2054.03 1529.29C2043.23 1515.16 2022.96 1492.81 2017.88 1471.64L2019.59 1469.99C2035.38 1483.84 2071.63 1530.79 2086.56 1548.68C2096.26 1560.31 2110.75 1570.61 2119.26 1581.17C2136.92 1603.06 2154.82 1628.38 2174.49 1648.64L2176.94 1648.56C2182.06 1644.51 2184.33 1627.11 2188.85 1617.06L2190.68 1617.69C2187.14 1631.83 2185.13 1647.4 2181.41 1661.63C2164.85 1725.13 2154.6 1717.78 2096.63 1701.74C2111.73 1700.85 2112.09 1701.81 2125.94 1704.91Z"/><path fill="#C09C75" transform="matrix(0.0409584 0 0 0.0411092 9.87097 24.9532)" d="M3091.34 2031.81C3093.76 2031.72 3096.19 2031.68 3098.61 2031.68C3187.64 2032.09 3272.94 2065.59 3336.12 2124.98C3467.52 2250.95 3502.51 2470.92 3501.1 2641.22C3499.56 2826.7 3459.16 3043.35 3373.69 3211.34C3267.53 3420.02 3050.79 3634.85 2789.1 3632.3C2670.44 3623.31 2568.46 3573.05 2503.31 3478.98C2435.5 3381.06 2402.47 3279.1 2389.13 3164.05C2361.69 2927.39 2413.14 2692.76 2526.62 2481.37C2621.34 2300.51 2766.65 2128.15 2971.92 2053.5C3004.66 2041.59 3056.51 2034.97 3091.34 2031.81Z"/><path fill="#C09C75" transform="matrix(0.0409584 0 0 0.0411092 9.87097 24.9532)" d="M2206.87 224.761C2264.69 226.286 2320.6 230.378 2367.48 264.725C2534.98 387.436 2386.47 653.739 2299.52 771.089C2112.75 1023.16 1862 1190.55 1542.13 1243.08C1484.53 1251.05 1407.38 1241.66 1362.68 1202.69C1318.63 1164.29 1308.66 1111.62 1305.38 1056.51C1298.74 944.937 1352.46 834.298 1408.9 739.101C1446.62 680.367 1510.05 608.121 1559.56 558.044C1645.13 473.019 1744.92 401.938 1854.92 347.663C1891.35 329.742 1929.78 314.316 1967.08 297.998C2000.1 282.959 2021.31 263.806 2056.6 251.975C2111.97 233.41 2148.13 226.468 2206.87 224.761ZM1675.97 495.016C1668.94 502.155 1652.17 512.931 1643.15 520.477C1617.63 541.851 1490.01 675.695 1494.55 701.623C1522.42 669.914 1544.16 632.922 1573.2 601.101C1664.6 500.918 1781.21 422.351 1902.6 357.919C1916.32 350.635 1978.45 332.575 1981.97 319.81C1972.74 318.809 1954.09 333.818 1951.83 333.089C1932.45 326.826 1826.25 388.69 1820.64 385.642C1830.3 366.905 1941 324.346 1965.5 315.856C1970.56 314.102 1980.54 311.25 1980.04 307.967L1978.88 307.735C1825.16 345.181 1665.96 464.049 1557.77 571.499C1541.62 587.539 1473.08 667.782 1467.41 684.862L1468.6 686.113C1473.58 677.566 1478.63 677.827 1483.76 668.826C1494.66 649.676 1513.82 634.13 1528.08 617.134C1538.25 605.777 1552.5 585.403 1562.08 576.062C1626.26 513.455 1709.06 442.696 1789.65 399.25C1795.18 399.372 1800.41 399.1 1805.85 398.12C1799.78 403.919 1786.29 407.506 1779.85 412.772C1770.1 420.743 1678.33 494.846 1675.97 495.016Z"/><path fill="#D2C6B2" fill-opacity="0.92156863" transform="matrix(0.0409584 0 0 0.0411092 9.87097 24.9532)" d="M1978.88 307.735L1980.04 307.967C1980.54 311.25 1970.56 314.102 1965.5 315.856C1941 324.346 1830.3 366.905 1820.64 385.642C1826.25 388.69 1932.45 326.826 1951.83 333.089C1954.09 333.818 1972.74 318.809 1981.97 319.81C1978.45 332.575 1916.32 350.635 1902.6 357.919C1781.21 422.351 1664.6 500.918 1573.2 601.101C1544.16 632.922 1522.42 669.914 1494.55 701.623C1490.01 675.695 1617.63 541.851 1643.15 520.477C1652.17 512.931 1668.94 502.155 1675.97 495.016C1678.33 494.846 1770.1 420.743 1779.85 412.772C1786.29 407.506 1799.78 403.919 1805.85 398.12C1800.41 399.1 1795.18 399.372 1789.65 399.25C1709.06 442.696 1626.26 513.455 1562.08 576.062C1552.5 585.403 1538.25 605.777 1528.08 617.134C1513.82 634.13 1494.66 649.676 1483.76 668.826C1478.63 677.827 1473.58 677.566 1468.6 686.113L1467.41 684.862C1473.08 667.782 1541.62 587.539 1557.77 571.499C1665.96 464.049 1825.16 345.181 1978.88 307.735Z"/><path fill="#40352E" transform="matrix(0.0409584 0 0 0.0411092 9.87097 24.9532)" d="M392.249 2184.42C393.899 2198.59 393.386 2218.46 393.452 2233.12C402.283 2239.21 421.434 2253.48 430.907 2257.42C495.906 2284.42 580.273 2307.79 640.33 2342.55C629.098 2352.05 565.613 2317.6 555.318 2315.79C533.03 2311.87 447.705 2274.23 432.817 2275.84L430.664 2279.22C438.593 2285.13 436.955 2282.25 439.742 2290.4C445.472 2286.7 445.523 2285.81 452.046 2284.47C452.398 2294.44 454.701 2305.64 467.886 2306.48L474.22 2313.71L473.706 2316.82L462.114 2316.8C464.898 2324 467.771 2321.8 469.123 2331.07C463.518 2335.01 449.202 2319.83 438.589 2323.15C443.328 2340.21 549.107 2385.57 572.167 2396.29C614.137 2415.82 648.835 2443.57 693.215 2459.32C706.041 2463.88 774.314 2466.85 775.374 2467.47C775.936 2479.96 805.779 2490.74 816.757 2498.96C830.17 2509.01 832.643 2508.67 841.735 2523.45L843.52 2520.78L847.139 2522.71L849.059 2515.46L852.006 2514.49L853.868 2516.41L851.903 2524.92C852.722 2525.46 853.541 2526.01 854.36 2526.56C879.48 2534.34 899.91 2555.35 927.04 2560.16C939.765 2562.41 940.071 2555.58 949.746 2552.86L952.643 2558.12C967.007 2560.07 990.675 2568.59 1004.87 2573.6C1010.46 2579.53 1010.73 2581.02 1014.11 2588.52L1012.88 2590.41L1009.67 2590.01L1007.73 2585.36L1005.25 2584.39L1001.68 2586.22C1011.65 2607.38 1086.15 2635.44 1110.15 2645.56C1129.55 2653.73 1147.02 2664.16 1165.47 2673.76C1166.86 2667.61 1165.18 2668.92 1168.86 2666.6C1174.17 2685.11 1187.67 2676.19 1202.11 2688.32C1220.53 2703.79 1268.74 2707.24 1284.13 2714.4C1299.33 2721.47 1377.84 2754.69 1382.05 2763.98C1379.54 2767.45 1379.96 2766.7 1378.09 2770.69L1383.1 2774.32L1385.27 2773.9C1393.28 2772.42 1404.36 2769.62 1411.13 2773.92L1411.3 2778.36C1418.75 2783.57 1437.52 2787.68 1446.67 2791.59C1459.21 2796.96 1495.19 2813.74 1504.41 2820.99C1508.7 2838.47 1517.74 2841.31 1532.66 2851.39C1549.29 2862.63 1549.14 2857.63 1552.01 2875.79C1561.52 2883.29 1583.26 2885.32 1586.1 2895.7C1578.86 2901.53 1574.55 2897.97 1568.59 2903.28C1596.52 2922.96 1625.42 2928.53 1652.42 2948.49C1654.46 2949.99 1688.37 2966.91 1693.4 2969.35L1694.43 2967.43L1692.98 2963.56L1690.13 2964.57C1683.86 2953.56 1671.97 2956.34 1666.96 2947.53L1669.09 2943.96C1678.06 2942.8 1686.61 2948.53 1693.18 2953.7C1699.2 2953.48 1697.79 2954.45 1702.8 2956.99C1730.76 2971.21 1771.78 2964.32 1804.6 2972.47C1871.63 2988.71 1983.17 3015.79 2040.6 3045.32C2069.28 3060.07 2273.07 3171.41 2280.96 3183.73L2279.56 3186.34C2265.15 3189.15 2255.63 3179.19 2241.95 3174.03C2157.06 3142.34 2074.63 3105.04 1995.27 3062.39C1980.64 3054.49 1961.76 3040.56 1946.59 3032.03C1943.83 3032 1941.07 3031.98 1938.31 3031.95C1932.35 3028.2 1838.1 3021.69 1822.99 3013.87C1817.97 3011.27 1807.8 3009.3 1801.73 3008.02L1798.34 3010.25L1794.58 3007.45L1790.46 3009.78L1789.74 3013.5C1801.92 3035.9 1992.33 3113.93 2020.45 3139.03C2025.12 3143.2 2067.38 3166.42 2076.18 3171.01C2116.2 3199.85 2219.87 3242.89 2270.3 3256.1C2313.74 3267.48 2299.4 3287.88 2313.08 3315.91C2328.45 3347.4 2328.02 3380.5 2339.58 3409.52C2337.17 3420.05 2329.76 3422.96 2318.87 3420.2C2309.62 3417.87 2296.99 3400.33 2290.44 3397.43C2254.46 3382.01 2220.21 3361.46 2184.53 3346.2C2172.56 3341.08 2172.71 3341.3 2161.6 3335.49L2158.96 3341.49C2149.42 3345.27 2142.24 3332.23 2129.94 3333.42C2125.98 3338.59 2127.81 3337.45 2122.49 3340.53C2120.14 3332.92 2120.67 3332.63 2115.21 3329.6L2111.95 3331.2L2112.93 3334.99C2121.27 3340.21 2121.03 3341.64 2127.23 3348.58C2130.32 3352.04 2139.94 3349.54 2147.62 3350.11C2157.77 3377.9 2304.36 3434.88 2337.78 3468.15L2334.44 3471.84C2345.82 3473.22 2335.03 3468.48 2344.81 3469.61L2345.7 3474.35L2343.1 3477.27C2335.37 3479.95 2319.12 3480.87 2311.78 3478.38C2286.44 3469.79 2261.53 3457.78 2237.11 3447.37C2182.65 3424.14 2130.11 3400.05 2077.08 3374.17C2046.14 3359.08 2007.27 3347.61 1976.18 3333.5C1934.76 3314.7 1892.07 3295.93 1850.89 3276.9C1816.39 3260.96 1778.62 3236.79 1745.47 3217.88C1731.39 3209.84 1702.31 3201.26 1686.21 3193.89C1645.71 3175.34 1601.47 3155.09 1558.66 3142.06C1527.86 3132.69 1500.63 3113.27 1471.6 3099.28C1457.95 3092.71 1444.55 3088.23 1430.49 3082.41C1422.63 3079.16 1416.51 3073.95 1409.11 3070.77C1396.31 3065.27 1379.5 3063.87 1366.87 3057.71C1342.43 3045.8 1317.02 3033.95 1292.35 3022.37C1289.59 3018.4 1287.3 3015.09 1285.47 3012.45L1285.85 3009.96L1283.11 3010.11L1280.25 3013.21L1277.53 3012.86C1260.82 2991.6 1174.03 2962.23 1148.29 2940.44C1140.92 2934.19 1121.09 2927.52 1111.03 2924.7C1095.28 2920.27 1084.15 2909.14 1069.68 2902.06C1019.02 2879.88 966.665 2860.6 917.639 2835.25C913.715 2833.23 903.837 2833.17 901.912 2832.26C864.443 2814.56 827.57 2793.97 792.94 2771.61C787.504 2768.1 764.74 2761.03 760.228 2756.86C742.66 2740.62 727.453 2727.18 707.216 2713.96C692.897 2704.61 648.023 2688.07 639.232 2676.99C639.236 2676.06 639.185 2667.74 638.806 2667.48C578.153 2626.24 516.143 2587.61 450.989 2552.99C437.325 2545.73 410.109 2532.28 412.259 2514.67L415.608 2513.96C431.62 2518.82 450.905 2529.7 466.548 2537.36C512.545 2559.9 558.671 2579.93 606.534 2598.26C613.894 2601.08 604.78 2600.53 614.892 2600.68C617.496 2591.49 619.095 2591.82 616.656 2584.21C613.703 2585.71 613.744 2586.11 611.87 2588.67C603.114 2582.55 605.281 2573.26 599.187 2570.37L594.984 2571.8C592.504 2569.68 573.464 2554.42 570.487 2552.96C552.313 2544.09 541.876 2513.53 530.43 2506.87C500.644 2489.81 469.485 2473.36 438.732 2457.93C434.419 2455.76 399.261 2439.74 396.603 2439.18C389.124 2444.44 396.658 2449.1 390.975 2454C368.825 2424.4 381.54 2226.56 392.249 2184.42Z"/><path fill="#40352E" transform="matrix(0.0409584 0 0 0.0411092 9.87097 24.9532)" d="M1112.03 2450.78C1149.41 2444.34 1480.76 2609.66 1538.85 2629.73C1550 2633.58 1579.11 2655.48 1596.31 2660.75C1660.37 2680.36 1724.8 2698.15 1789.63 2715.07C1886.56 2746.78 1980.06 2789.29 2076.24 2825.14C2121.02 2841.83 2250.6 2863.48 2281.73 2884.42L2280.59 2887.53C2196.32 2892.72 2067.47 2854.2 1987.21 2825.56C1878.91 2786.91 1781.94 2735.47 1665.17 2713.61C1613.15 2703.88 1531.13 2657.61 1484.51 2631.62C1418.96 2595.05 1362.56 2553.98 1287.58 2535.14C1269.97 2530.37 1115.71 2455.09 1112.03 2450.78Z"/><defs><linearGradient id="gradient_1" gradientUnits="userSpaceOnUse" x1="2354.5508" y1="1519.5247" x2="2326.0801" y2="1598.5309"><stop offset="0" stop-color="#977B68"/><stop offset="1" stop-color="#B49E89"/></linearGradient></defs><path fill="url(#gradient_1)" transform="matrix(0.0409584 0 0 0.0411092 9.87097 24.9532)" d="M2261.7 1498.39C2290.52 1496.87 2368.3 1515.11 2393.39 1529.66C2423.7 1547.24 2485.19 1608.61 2410.98 1620.11C2345.53 1623.03 2285.61 1597.02 2232.24 1563.18L2228.79 1567.7C2226.04 1560.26 2229.41 1514.59 2237.57 1507.42C2245.96 1500.04 2250.78 1499.65 2261.7 1498.39Z"/><path fill="#40352E" transform="matrix(0.0409584 0 0 0.0411092 9.87097 24.9532)" d="M1777.32 2817.53C1828.4 2817.33 2081.18 2926.9 2140.69 2949.27C2185.84 2966.24 2249.25 2982.37 2292.59 3006.35C2293.23 3006.81 2293.88 3007.28 2294.53 3007.74L2296.87 3002.2C2301.56 3008.44 2303.36 3029.2 2298.2 3035.15L2296.47 3028.14L2294.72 3031.79C2288.56 3035.92 2289.02 3035.64 2281.42 3035.61C2272.62 3029.91 2210.94 3013.63 2191.25 3005.24L2191.95 3003.89L2190.16 3002.02C2176.1 2998.27 2157.67 2987.98 2147.7 2985.67L2148.27 2988.74L2146.98 2989.76C2143.32 2987.96 2142.28 2986.93 2139.7 2983.98C2130.75 2973.72 1989.65 2922.03 1964.69 2912.22C1935.88 2900.89 1787.54 2838.5 1775.06 2821.62L1777.32 2817.53Z"/><path fill="#40352E" transform="matrix(0.0409584 0 0 0.0411092 9.87097 24.9532)" d="M688.237 2363.32C711.653 2360.39 778.691 2389.63 803.512 2397.69C883.43 2423.65 955.305 2461.94 1031.44 2495.88C1078.52 2516.87 1116.74 2538.66 1166.68 2556.72C1207.51 2571.48 1253.13 2600.62 1295.65 2614.78C1302.39 2617.19 1307.96 2621.81 1311.89 2627.49L1309.83 2632.34C1290.76 2629.41 1263.02 2616.69 1244.2 2609.48C1175.03 2582.96 1105.65 2556.15 1038.96 2524.39C1011.01 2511.07 985.711 2493.01 955.578 2484C923.55 2471.6 895.783 2449.04 863.547 2435.16C811.059 2412.58 727.7 2404.9 688.237 2363.32Z"/><path fill="#40352E" fill-opacity="0.98431373" transform="matrix(0.0409584 0 0 0.0411092 9.87097 24.9532)" d="M635.713 2749.96C637.399 2749.77 638.226 2749.65 640.033 2749.6C651.854 2749.28 743.287 2787.19 759.455 2794.57C779.27 2803.63 797.823 2815 817.793 2823.81C840.842 2833.98 865.023 2842.08 887.65 2853.06C938.144 2877.54 986.932 2905.54 1037.76 2929.7C1061.55 2941.01 1087.88 2947.72 1111.11 2960.29C1124.39 2967.48 1136.1 2977.51 1147.53 2987.04C1146.79 2987.47 1146.15 2988.09 1145.33 2988.33C1139.09 2990.12 1124.04 2983.44 1117.58 2981.61C1093.78 2974.86 1038.7 2937.52 1022.27 2937.1C1006.62 2936.7 955.974 2907.19 937.872 2898.91C899.788 2881.5 860.331 2866.56 822.158 2849.19C786.3 2832.88 751.269 2814.15 716.186 2796.38C689.682 2782.95 658.038 2769.19 635.713 2749.96Z"/><path fill="#40352E" fill-opacity="0.98823529" transform="matrix(0.0409584 0 0 0.0411092 9.87097 24.9532)" d="M405.714 2060.87C412.77 2066.3 407.176 2070.27 413.091 2072.44C443.805 2083.74 470.958 2102.61 498.3 2120.49L495.632 2119.75C512.374 2134.35 520.039 2135.44 533.81 2143.34C543.636 2148.97 589.272 2187.74 596.257 2196.59L595.361 2199.45C579.506 2203.06 525.707 2171.28 508.585 2163.07C500.177 2157.8 423.405 2119.04 416.82 2118.25L416.162 2120.41C428.895 2126.97 478.128 2162.63 473.164 2176.48C457.254 2180.81 417.454 2154.27 397.671 2155.55C397.059 2160.48 397.306 2159.84 395.742 2164.57C388.359 2152.8 400.718 2075.71 405.714 2060.87Z"/><path fill="#40352E" transform="matrix(0.0409584 0 0 0.0411092 9.87097 24.9532)" d="M1160.59 2363.41C1179.44 2359.54 1213.04 2383.83 1229.35 2392.2C1238.2 2396.74 1247.3 2399.79 1256.81 2403.21C1325 2427.7 1391.93 2454.77 1460.29 2478.82C1489.16 2488.98 1517.82 2492.78 1547.52 2500.29C1566.77 2505.15 1585.86 2514.47 1605.14 2519.61C1616.4 2522.96 1636.01 2527.73 1644.99 2533.21L1645.7 2537.64C1632.47 2537.94 1585.8 2537.93 1573.45 2534.84C1546.14 2528.03 1511.45 2514.4 1484.71 2504.18C1466.96 2497.35 1447.88 2492.89 1430.15 2486.13C1376.25 2465.58 1322.93 2443.81 1268.88 2423.64C1256.58 2419.05 1235.17 2407.02 1223.06 2400.81C1204.96 2391.53 1167.56 2381.18 1160.59 2363.41Z"/><path fill="#40352E" transform="matrix(0.0409584 0 0 0.0411092 9.87097 24.9532)" d="M418.569 1983.14C419.024 1983.23 649.026 2094.35 656.863 2099.27C637.587 2096.21 582.219 2063.95 573.246 2063.21L572.913 2064.78C594.179 2074.74 635.905 2094.34 654.346 2106.69C663.219 2110.27 691.719 2128.4 694.37 2136.01L690.285 2138.79C684.559 2135.26 679.984 2133.78 673.276 2131.96C639.24 2122.74 605.144 2096.11 570.454 2082.66C550.123 2074.77 562.64 2078.45 538.131 2075.64C536.38 2075.43 535.698 2072.56 534.86 2070.61L537.297 2069.38L544.247 2073.92L547.4 2073.25C535.345 2061.52 486.004 2046.52 467.795 2035.92C455.551 2028.8 432.415 2023.99 417.057 2017.38C415.093 2023.44 416.65 2023.13 412.957 2025.07L411.114 2022.53C409.473 2009.96 413.499 1994.74 418.569 1983.14Z"/><path fill="#40352E" transform="matrix(0.0409584 0 0 0.0411092 9.87097 24.9532)" d="M1253.8 2673.89C1263.68 2676.18 1300.02 2691.09 1309.84 2696.44C1348.95 2717.75 1582.15 2795.93 1583.94 2834.13C1564.64 2825.15 1515.74 2806.59 1496 2801.99L1492.7 2795.19C1483.16 2788.85 1459.42 2785.48 1451.69 2779.53C1421.2 2756.11 1266.69 2696.09 1253.8 2673.89Z"/><path fill="#40352E" transform="matrix(0.0409584 0 0 0.0411092 9.87097 24.9532)" d="M2827.35 1718.58C2852.75 1724.73 2890.01 1828.97 2915.86 1837.02L2919.56 1835.15C2918.14 1830.06 2916.51 1827.49 2914.04 1822.88L2916.4 1822.19C2928.99 1832.31 2929.66 1836.36 2942.21 1846.49C2944.34 1855.53 2948.12 1858.53 2951.79 1866.86L2949.39 1870.11L2941.13 1870.35C2946.16 1873.26 2951.94 1874.22 2957.72 1874.84L2958.99 1877.05C2916.67 1885.61 2913.66 1849.85 2893.94 1828.42C2875.44 1808.31 2841.1 1737.1 2825.76 1723.78L2827.35 1718.58Z"/><path fill="#40352E" fill-opacity="0.98823529" transform="matrix(0.0409584 0 0 0.0411092 9.87097 24.9532)" d="M2372.61 3539.79C2386.97 3542.02 2399.98 3542.36 2414 3546.69C2426.49 3550.56 2456 3565.3 2450.75 3580.18C2452.37 3584.91 2452.73 3585.3 2452.98 3590.2C2435 3590.68 2376.39 3557.53 2372.61 3539.79Z"/><path fill="#40352E" fill-opacity="0.98039216" transform="matrix(0.0409584 0 0 0.0411092 9.87097 24.9532)" d="M2616.17 3610.54C2632.05 3610.83 2657.14 3633.83 2674.09 3631.22C2678.68 3630.51 2680.2 3630.62 2684.75 3631.89C2664.44 3626.94 2655.66 3621.32 2636.74 3613.62C2642.55 3614.35 2692.57 3630 2706.29 3633.17C2754.62 3644.36 2779.21 3643.32 2826.73 3646.43C2811.72 3647.99 2790.88 3647.44 2775.37 3647.46C2762.47 3648.22 2753.91 3641.19 2739.38 3645.88C2762.33 3657.36 2834.93 3647.79 2850.97 3650.55C2766.31 3662.72 2690.11 3652.86 2616.17 3610.54Z"/><path fill="#40352E" transform="matrix(0.0409584 0 0 0.0411092 9.87097 24.9532)" d="M1899.76 1854.58C1929.37 1846.97 2016.49 1878.55 2047.04 1885.22C2051.66 1886.23 2049.74 1884.83 2052.33 1887.93L2050.11 1890.94C2036.08 1889.95 1910.64 1860.65 1899.76 1854.58Z"/><path fill="#6D4F3A" transform="matrix(0.0409584 0 0 0.0411092 9.87097 24.9532)" d="M2232.03 1795.55C2250.23 1798 2254.92 1801.75 2274.53 1800.73L2276.96 1803.96L2277.63 1800.62L2282.86 1800.98C2275.57 1805.69 2267.63 1805.49 2261.76 1811.83L2265.72 1817.69C2253.78 1811.51 2223.52 1811.47 2207.48 1800.7L2208.87 1798.42C2216.63 1797.25 2224.23 1796.43 2232.03 1795.55Z"/><path fill="#40352E" transform="matrix(0.0409584 0 0 0.0411092 9.87097 24.9532)" d="M1884.01 2569.41C1901.62 2572.6 1935.12 2577.41 1942.9 2593.73C1922.84 2595.25 1910.04 2591.2 1892.46 2581.95C1884.4 2577.72 1886.22 2577.59 1884.01 2569.41Z"/><path fill="#40352E" transform="matrix(0.0409584 0 0 0.0411092 9.87097 24.9532)" d="M745.898 2274.63C764.744 2275.11 800.114 2291.89 813.087 2304.56C791.835 2304.19 758.402 2290.52 745.898 2274.63Z"/><path fill="#40352E" transform="matrix(0.0409584 0 0 0.0411092 9.87097 24.9532)" d="M557.45 2351.14C567.427 2352.75 612.651 2367.44 609.173 2379.85L604.715 2380.12L600.545 2374.77C599.303 2373.93 594.826 2371.79 593.304 2371.02C589.108 2374.27 591.434 2373.1 586.354 2374.58C575.489 2367.81 562.173 2361.69 557.45 2351.14Z"/><path fill="#40352E" transform="matrix(0.0409584 0 0 0.0411092 9.87097 24.9532)" d="M952.981 2364.24C965.928 2365.26 992.427 2378.44 994.63 2392.32C979.294 2393.95 959.17 2377.44 952.981 2364.24Z"/><path fill="#6D4F3A" transform="matrix(0.0409584 0 0 0.0411092 9.87097 24.9532)" d="M810.532 2084.58C823.81 2088.42 852.424 2103.31 864.096 2109.93C831.542 2108.97 833.895 2105.39 810.532 2084.58Z"/><path fill="#40352E" transform="matrix(0.0409584 0 0 0.0411092 9.87097 24.9532)" d="M1323.52 1733.27C1336.43 1731.06 1365.23 1741.38 1369.82 1753C1360.13 1752.18 1329.25 1739.93 1323.52 1733.27Z"/><path fill="#40352E" transform="matrix(0.0409584 0 0 0.0411092 9.87097 24.9532)" d="M2364 3474.56C2376.29 3477.91 2384.54 3490.04 2382.8 3502C2366.55 3493.79 2359.47 3492.55 2364 3474.56Z"/><path fill="#40352E" transform="matrix(0.0409584 0 0 0.0411092 9.87097 24.9532)" d="M547.685 2366.88C565.189 2370.47 577.111 2372.08 585.254 2387.57C573.147 2385.04 551.249 2378.69 547.685 2366.88Z"/><path fill="#40352E" fill-opacity="0.98431373" transform="matrix(0.0409584 0 0 0.0411092 9.87097 24.9532)" d="M1166.88 2993.15C1172.64 2995.74 1180.2 2995.8 1186.66 2996.31C1193.92 3000.96 1191.69 2999.71 1195.52 3009.01C1182.76 3012.85 1170.16 3005.75 1166.88 2993.15Z"/><path fill="#40352E" transform="matrix(0.0409584 0 0 0.0411092 9.87097 24.9532)" d="M815.072 2302.63C823.762 2304.02 831.647 2306.73 831.243 2316.32L828.999 2314.96C820.625 2313.3 817.77 2311.97 812.441 2306.1L815.072 2302.63Z"/><path fill="#40352E" fill-opacity="0.98431373" transform="matrix(0.0409584 0 0 0.0411092 9.87097 24.9532)" d="M1199.85 3010.41C1202.76 3008.01 1201.04 3008.64 1205.04 3008.66L1208.88 3016.4C1204.06 3016.6 1204.6 3016.72 1199.83 3016.08L1199.85 3010.41Z"/><path fill="#40352E" transform="matrix(0.0409584 0 0 0.0411092 9.87097 24.9532)" d="M2355.53 3473.47L2358.27 3475.99L2357.94 3479.11L2349.85 3484.97L2346.02 3480.92L2347.07 3477.59L2355.53 3473.47Z"/><path fill="#6D4F3A" fill-opacity="0.97647059" transform="matrix(0.0409584 0 0 0.0411092 9.87097 24.9532)" d="M2632 3694.3C2654.15 3693.65 2681.62 3696.64 2702.54 3695.04L2704.56 3692.78C2700.93 3688.42 2676.68 3680.65 2669.34 3677.54C2615.23 3654.63 2574.18 3651.55 2530.58 3609.69C2538.86 3609.11 2585.99 3639.51 2599.38 3645.17C2646.72 3665.21 2700.63 3673.98 2748.04 3689.45C2746.58 3685.01 2746.99 3687.02 2746.52 3683.46C2755.09 3682.63 2770.2 3681.78 2777 3685.97C2789.97 3693.98 2793.35 3683.16 2793.58 3683.14C2820.09 3681.35 2842.6 3688.43 2868.39 3679.45L2862.54 3676.41L2863.29 3674.95C2877.01 3674.51 2887.54 3675.84 2901.35 3673.86C2923.35 3670.71 2951.93 3653.72 2970.69 3652.63C2991.92 3651.4 2990.01 3638.92 3008.79 3637.09L3009.43 3639.09C3006.6 3641.79 3003.88 3644.37 3000.97 3646.99L3002.41 3649.5C3020.03 3637.28 3020.83 3639.06 3039.87 3630.36C3090.19 3607.39 3143.21 3567.81 3184.66 3532.38C3339.93 3399.67 3431.94 3227.66 3483.57 3038.13C3491.99 3007.21 3501.17 2971.38 3510.42 2940.82C3530.81 2873.48 3536.74 2805.53 3542.28 2735.87C3550.27 2673.44 3548.81 2621.97 3551.61 2559.72C3552.13 2576.13 3552.86 2592.54 3553.78 2608.94C3556.81 2562.19 3551.46 2515.42 3554.71 2468.81C3556.09 2467.05 3557.47 2465.29 3558.86 2463.53C3559.23 2508.04 3562.85 2552.26 3563.8 2596.67C3568.51 2818.1 3518.71 3030.53 3429.55 3234.62C3381.77 3343.99 3310.18 3436.43 3222.09 3519.24C3134.55 3601.51 3039.15 3663.18 2918.34 3692.04C2894.77 3697.9 2864.64 3702.26 2840.14 3706.58C2784.45 3713.42 2721.27 3713.55 2666.45 3701.72L2632 3694.3Z"/><path fill="#7E6349" fill-opacity="0.98039216" transform="matrix(0.0409584 0 0 0.0411092 9.87097 24.9532)" d="M1527.04 530.705C1549.91 493.006 1603.57 456.998 1639.46 429.67C1687.68 392.95 1742.04 357.132 1795.56 327.508C1907.55 265.518 2131.38 167.93 2262.13 182.157C2352.57 191.997 2416.3 247.264 2470.68 311.517C2466.74 311.949 2468.78 311.402 2464.67 313.522L2463.1 318.929C2464.05 321.377 2464.89 323.86 2465.62 326.373C2487.38 399.039 2464.36 539.731 2425.94 605.159L2415.38 623.318C2416.75 615.318 2429.34 584.909 2432.9 574.48C2448.43 529.017 2460.66 487.614 2465.2 439.028C2469.21 396.025 2461.21 350.526 2443.98 310.28C2442.25 306.253 2424.46 286.666 2420.8 282.633L2419.45 283.258C2424.29 290.994 2433.49 301.981 2437.1 309.021C2488.33 408.726 2441.48 587.184 2379 671.648C2424.18 593.251 2460.21 473.231 2450.55 383.562C2433.24 222.882 2261.74 189.726 2121.09 223.071C2096.7 228.855 2047.61 247.176 2023.54 249.433C2050.52 232.865 2088.98 230.799 2117.28 217.62C2106.57 217.792 2026.81 243.039 2014.39 248.553C1992.15 258.422 1956.7 274.51 1933.42 285.607C1885.92 308.249 1826.27 331.745 1780.56 355.551C1748.14 372.71 1716.75 391.539 1686.52 411.952C1632.59 448.319 1585.44 490.666 1536.47 532.424C1533.9 534.617 1530.34 532.324 1527.04 530.705Z"/><path fill="#6D4F3A" fill-opacity="0.98039216" transform="matrix(0.0409584 0 0 0.0411092 9.87097 24.9532)" d="M1527.04 530.705C1530.34 532.324 1533.9 534.617 1536.47 532.424C1585.44 490.666 1632.59 448.319 1686.52 411.952C1716.75 391.539 1748.14 372.71 1780.56 355.551C1826.27 331.745 1885.92 308.249 1933.42 285.607C1956.7 274.51 1992.15 258.422 2014.39 248.553C2026.81 243.039 2106.57 217.792 2117.28 217.62C2088.98 230.799 2050.52 232.865 2023.54 249.433C1998.14 252.093 1974.1 281.032 1950.71 290.403C1786.5 356.208 1637.2 457.956 1520.83 585.942C1477.28 633.14 1427.18 688.242 1393.43 742.199C1331.66 840.949 1278.97 966.498 1291.08 1082.56C1303.43 1200.85 1385.03 1260.48 1507.41 1256.85C1513.66 1256.67 1552.1 1254 1554.82 1256.63C1496.05 1263.07 1422.16 1266.17 1367.96 1231.8C1367.57 1231.34 1367.18 1230.88 1366.79 1230.43C1362.14 1224.41 1351.53 1216.33 1345.31 1210.98C1325.44 1193.85 1317.84 1182.22 1305.82 1160.1C1298.66 1135.04 1289.78 1119.2 1284.85 1090.01C1268.92 995.807 1304.46 922.926 1331.69 837.954L1330.73 839.054C1345.17 780.384 1407.77 699.824 1443.71 649.081C1453.4 635.402 1468.75 622.22 1478.41 606.759L1476.82 605.93C1463.19 620.605 1442.09 648.134 1421.62 648.627C1451.19 607.389 1491.57 567.397 1527.04 530.705Z"/><path fill="#6D4F3A" fill-opacity="0.98823529" transform="matrix(0.0409584 0 0 0.0411092 9.87097 24.9532)" d="M3050.12 1003.87L3052.05 1003.46C3057.96 1002.17 3059.64 1002.17 3064.58 998.691L3065.2 989.405L3067.48 988.784C3068.15 994.265 3066.97 996.857 3065.48 1002.13C3068.32 1010.82 3075.61 1011.56 3077.28 1018.49C3072.87 1018.68 3074.53 1018.81 3070.25 1017.3C3068.14 1023.3 3076.83 1051.76 3079.63 1059.46L3081.82 1061.2L3087.5 1059.29L3082.42 1055.15C3083.5 1051.18 3083.38 1048.17 3086.07 1046.38L3089.26 1049.81C3090.87 1039.8 3087.13 1027 3087.09 1015.19L3087.81 1014.69L3087.27 1013.17L3090 1014.68C3092.79 1011.07 3091.78 1010.87 3094.89 1010.04C3098.88 1021.37 3100.44 1032.92 3102.27 1044.77C3110.6 1098.76 3122 1153.39 3141.15 1204.92C3142.34 1208.13 3139.23 1219.27 3138.31 1222.95C3142.6 1220.89 3142.65 1219.27 3145.76 1214.92C3149.88 1222.81 3145.4 1237.14 3147.12 1244.52C3150.21 1257.79 3152.34 1284.97 3159.32 1295.13C3148.72 1298.88 3112.69 1240.02 3104.83 1230.27C3073.72 1191.69 3005.92 1124.22 2993.4 1077.63C2992.05 1072.55 2990.81 1067.46 2989.65 1062.35L3000.22 1069.56C3005.02 1069.26 3002.89 1068.72 3006.69 1070.87C3006.74 1099.11 3052.84 1151.32 3073.29 1171.98L3071.27 1168.53C3081.98 1176.5 3083.29 1184.65 3088.65 1194.75C3094.52 1197.87 3100.09 1199.72 3105.64 1195.58C3106.67 1188.81 3104.76 1181.57 3101.72 1175.41C3089.77 1151.1 3063.23 1026.26 3058.19 1019.89C3040.42 1021.94 3034.64 1059.38 3008.55 1061.6C3019.77 1044.77 3036.17 1017.96 3050.12 1003.87Z"/><path fill="#5D3C22" fill-opacity="0.97647059" transform="matrix(0.0409584 0 0 0.0411092 9.87097 24.9532)" d="M1421.62 648.627C1442.09 648.134 1463.19 620.605 1476.82 605.93L1478.41 606.759C1468.75 622.22 1453.4 635.402 1443.71 649.081C1407.77 699.824 1345.17 780.384 1330.73 839.054L1331.69 837.954C1304.46 922.926 1268.92 995.807 1284.85 1090.01C1289.78 1119.2 1298.66 1135.04 1305.82 1160.1C1293.04 1150.05 1287.07 1114.94 1275.36 1095.42C1273.78 1120.67 1279.81 1133.57 1274.04 1160.14C1230.63 1015.71 1295.04 837.13 1376.7 715.081C1392.02 692.197 1402.47 669.465 1421.62 648.627Z"/><path fill="#40352E" transform="matrix(0.0409584 0 0 0.0411092 9.87097 24.9532)" d="M3008.55 1061.6C3034.64 1059.38 3040.42 1021.94 3058.19 1019.89C3063.23 1026.26 3089.77 1151.1 3101.72 1175.41C3104.76 1181.57 3106.67 1188.81 3105.64 1195.58C3100.09 1199.72 3094.52 1197.87 3088.65 1194.75C3083.29 1184.65 3081.98 1176.5 3071.27 1168.53L3073.29 1171.98C3052.84 1151.32 3006.74 1099.11 3006.69 1070.87C3002.89 1068.72 3005.02 1069.26 3000.22 1069.56L3008.55 1061.6Z"/><defs><linearGradient id="gradient_2" gradientUnits="userSpaceOnUse" x1="1283.0074" y1="1153.311" x2="1313.3231" y2="1151.9207"><stop offset="0" stop-color="#51321B" stop-opacity="0.96862745"/><stop offset="1" stop-color="#583920"/></linearGradient></defs><path fill="url(#gradient_2)" transform="matrix(0.0409584 0 0 0.0411092 9.87097 24.9532)" d="M1275.36 1095.42C1287.07 1114.94 1293.04 1150.05 1305.82 1160.1C1317.84 1182.22 1325.44 1193.85 1345.31 1210.98C1351.53 1216.33 1362.14 1224.41 1366.79 1230.43C1352.15 1225.06 1330.26 1201.63 1318.74 1189.97L1317.35 1195.07C1310.83 1197.07 1304.53 1192.12 1301.01 1187.11C1297.86 1191.73 1298.41 1189.27 1299.38 1194.74C1304.13 1197.51 1304.79 1197.07 1306.02 1203.12C1308.77 1216.64 1319.75 1236.68 1328.57 1247.54L1329.8 1250.86L1327.82 1252.39C1321.59 1246.99 1316.14 1242.47 1309.59 1237.43L1305.26 1239.47C1289.98 1217.31 1278.04 1186.24 1274.04 1160.14C1279.81 1133.57 1273.78 1120.67 1275.36 1095.42Z"/><path fill="#A68062" fill-opacity="0.94509804" transform="matrix(0.0409584 0 0 0.0411092 9.87097 24.9532)" d="M3027.61 735.936C3048.71 745.695 3079.24 777.927 3095.55 793.948C3098.57 796.916 3102.65 796.229 3106.31 795.293L3107.81 791.294C3105.84 785.06 3064.51 740.05 3056.21 729.544L3058.42 728.295C3067.21 734.537 3078.07 735.234 3088.51 732.765C3108.29 750.7 3130.36 767.814 3139.15 792.812C3137.02 795.435 3136.79 795.354 3134.09 797.515C3127.47 795.23 3126.54 795.25 3119.8 794.335C3112.79 799.852 3107.1 805.357 3098.03 805.14C3089.18 799.365 3035.21 745.243 3027.61 735.936Z"/><path fill="#C09C75" fill-opacity="0.90980393" transform="matrix(0.0409584 0 0 0.0411092 9.87097 24.9532)" d="M3041.47 711.549C3063.41 715.328 3071.6 716.859 3088.51 732.765C3078.07 735.234 3067.21 734.537 3058.42 728.295L3056.21 729.544C3064.51 740.05 3105.84 785.06 3107.81 791.294L3106.31 795.293C3102.65 796.229 3098.57 796.916 3095.55 793.948C3079.24 777.927 3048.71 745.695 3027.61 735.936C3021.81 734.342 3017.6 733.072 3011.93 731.122C3019.31 717.619 3026.17 717.029 3041.47 711.549Z"/><path fill="#EEEFEF" fill-opacity="0.015686275" transform="matrix(0.0409584 0 0 0.0411092 9.87097 24.9532)" d="M2666.45 3701.72C2721.27 3713.55 2784.45 3713.42 2840.14 3706.58C2821.79 3728.38 2763.24 3723.39 2735.77 3723.69C2711.32 3723.96 2681.57 3722.05 2666.45 3701.72Z"/></svg>