<?xml version="1.0" encoding="utf-8" ?><svg xmlns="http://www.w3.org/2000/svg" xmlns:xlink="http://www.w3.org/1999/xlink" width="100" height="103" viewBox="0 0 100 103"><clipPath id="cl_c"><rect x="1.9073486e-06" y="-8.9645386e-05" width="100" height="103"/></clipPath><g clip-path="url(#cl_c)"><path fill="#E2AB6C" transform="matrix(0.147059 0 0 0.147143 -23.2353 -23.9844)" d="M487.59 384.395C488.26 386.579 488.736 387.274 489.881 389.3L535.027 462.312C553.597 492.533 569.858 519.285 590.364 548.539C612.833 580.377 637.192 610.837 663.312 639.755C685.991 664.181 709.574 687.752 734.011 710.42C745.456 721.091 757.124 731.597 768.265 742.589C774.542 748.782 783.055 756.536 788.251 763.581C791.894 768.803 794.525 773.263 795.929 779.566C798.705 804.433 770.794 830.099 746.788 830.382C737.038 830.497 725.943 819.595 719.319 813.113C627.765 723.535 561.091 612.56 488.475 508.01L448.035 449.512L437.431 434.301C435.589 431.613 432.731 426.904 430.586 424.644L430.688 423.798C441.787 411.622 464.609 396.414 479.294 388.321C481.35 387.189 485.464 384.806 487.59 384.395Z"/><path fill="#D59756" transform="matrix(0.147059 0 0 0.147143 -23.2353 -23.9844)" d="M487.59 384.395C488.26 386.579 488.736 387.274 489.881 389.3C480.773 396.787 474.3 402.379 465.937 410.756C468.573 417.183 473.099 424.624 476.636 430.752L497.325 465.915C516.312 498.658 536.834 534.365 557.492 566.033C580.718 601.079 605.782 634.871 632.58 667.268C659.229 699.838 723.319 775.207 760.191 793.033C771.136 787.842 783.356 774.182 788.251 763.581C791.894 768.803 794.525 773.263 795.929 779.566C798.705 804.433 770.794 830.099 746.788 830.382C737.038 830.497 725.943 819.595 719.319 813.113C627.765 723.535 561.091 612.56 488.475 508.01L448.035 449.512L437.431 434.301C435.589 431.613 432.731 426.904 430.586 424.644L430.688 423.798C441.787 411.622 464.609 396.414 479.294 388.321C481.35 387.189 485.464 384.806 487.59 384.395Z"/><path fill="#A96733" transform="matrix(0.147059 0 0 0.147143 -23.2353 -23.9844)" d="M487.59 384.395C488.26 386.579 488.736 387.274 489.881 389.3C480.773 396.787 474.3 402.379 465.937 410.756C460.501 416.143 456.623 420.326 452.445 426.779C461.137 443.07 476.207 464.722 486.306 480.848C511.204 520.76 536.988 560.112 563.639 598.876C607.385 662.807 654.22 725.811 709.996 779.853C717.922 787.532 734.469 802.639 743.833 808.025C759.687 807.737 776.187 802.063 787.315 790.498C789.186 788.553 795.259 781.932 795.929 779.566C798.705 804.433 770.794 830.099 746.788 830.382C737.038 830.497 725.943 819.595 719.319 813.113C627.765 723.535 561.091 612.56 488.475 508.01L448.035 449.512L437.431 434.301C435.589 431.613 432.731 426.904 430.586 424.644L430.688 423.798C441.787 411.622 464.609 396.414 479.294 388.321C481.35 387.189 485.464 384.806 487.59 384.395Z"/><path fill="#F5CE92" transform="matrix(0.147059 0 0 0.147143 -23.2353 -23.9844)" d="M487.453 410.614C489.389 410.528 491.044 410.503 492.708 411.65C498.806 415.853 524.354 461.087 530.528 471.037C541.823 489.641 553.495 508.015 565.537 526.145C604.496 584.303 649.163 638.425 698.874 687.709C709.466 698.27 721.268 709.65 732.266 719.898C745.495 731.961 759.26 743.653 771.647 756.585C777.562 762.761 777.004 767.248 772.253 773.739C771.817 773.402 771.387 773.057 770.963 772.704C766.513 769.018 762.21 764.124 758.028 759.999L729.17 731.476C695.582 698.787 663.533 664.553 633.127 628.884C589.229 576.497 548.649 517.693 511.486 460.356C507.496 454.201 484.311 417.833 483.825 412.497C484.841 411.118 485.448 411.314 487.453 410.614Z"/><path fill="#5A5554" transform="matrix(0.147059 0 0 0.147143 -23.2353 -23.9844)" d="M413.856 250.737L418.948 251.318C414.997 254.693 410.829 257.866 406.726 261.06C410.496 273.798 416.312 281.144 422.951 292.554C428.668 302.392 434.295 312.283 439.829 322.225C441.305 324.859 446.267 333.332 447.254 335.865C449.136 340.563 450.097 346.981 443.013 347.506L441.721 346.259C443.289 349.56 447.184 359.538 450.474 360.398L458.916 355.923C464.092 353.427 479.487 346.788 484.724 345.726C483.904 349.81 482.632 351.394 480.28 354.851L481.935 357.454C482.449 358.121 483.869 359.854 484.167 360.505C487.477 364.839 490.464 368.725 491.957 374.077C491.707 379.102 491.194 380.888 487.59 384.395C485.464 384.806 481.35 387.189 479.294 388.321C464.609 396.414 441.787 411.622 430.688 423.798L430.586 424.644C417.332 431.815 411.716 418.306 405.739 408.897C392.318 413.818 386.525 405.688 378.871 396.559C364.817 405.53 348.997 417.883 336.214 428.564C308.523 451.343 283.194 476.849 260.608 504.697C250.219 517.459 240.71 531.038 230.78 544.14C223.344 553.952 216.868 564.696 208.489 573.63C207.6 574.578 206.253 574.811 205.066 574.858C201.799 569.271 209.607 542.121 211.899 535.174C216.277 520.497 222.637 500.627 229.191 486.864C229.45 483.936 237.662 467.51 239.213 464.31C255.371 431.251 276.072 400.614 300.715 373.288C306.333 367.151 312.072 361.127 317.929 355.219C322.026 351.156 328.654 345.04 332.141 340.853L332.572 340.33C330.086 333.459 324.097 327.3 324.479 319.452C324.894 310.925 330.149 305.012 335.845 299.495C338.262 298.587 340.781 295.648 344.293 293.981C352.022 285.81 371.279 273.626 381.573 267.301C387.162 263.776 396.353 258.641 401.331 254.88C405.437 253.648 409.774 251.537 413.856 250.737Z"/><defs><linearGradient id="gradient_0" gradientUnits="userSpaceOnUse" x1="305.53098" y1="527.26001" x2="243.96019" y2="388.04239"><stop offset="0" stop-color="#797979"/><stop offset="1" stop-color="#A09F9F"/></linearGradient></defs><path fill="url(#gradient_0)" transform="matrix(0.147059 0 0 0.147143 -23.2353 -23.9844)" d="M334.694 346.91C344.529 355.065 352.658 364.7 359.394 375.61C361.985 380.217 364.265 384.706 359.866 388.974C354.455 394.222 347.836 398.449 341.85 402.869C283.585 445.899 246.13 508.593 209.059 569.333C208.01 571.051 205.782 573.141 205.066 574.858C201.799 569.271 209.607 542.121 211.899 535.174C216.277 520.497 222.637 500.627 229.191 486.864C229.484 492.38 223.234 499.261 223.895 505.202C225.148 502.561 226.334 499.565 227.46 496.852C238.021 471.42 250.881 446.956 267.035 424.609C270.762 419.455 274.647 412.716 279.215 408.282C281.018 407.65 280.921 407.337 282.441 407.754L283.079 408.658L282.972 409.239L283.272 409.56C286.228 406.148 291.152 398.92 293.962 395.305C296.662 391.831 311.491 374.878 311.819 372.364L310.848 371.529C315.565 365.653 329.098 351.95 334.694 346.91Z"/><path fill="#B0AEAE" transform="matrix(0.147059 0 0 0.147143 -23.2353 -23.9844)" d="M279.215 408.282C281.018 407.65 280.921 407.337 282.441 407.754L283.079 408.658L282.972 409.239L283.272 409.56C273.891 423.131 264.037 437.147 255.75 451.572C239.795 479.342 226.595 509.655 214.397 539.258C214.055 540.09 214.064 540.232 213.458 541.008C212.854 538.543 215.208 532.491 215.655 528.398C214.463 531.34 214.142 533.072 211.899 535.174C216.277 520.497 222.637 500.627 229.191 486.864C229.484 492.38 223.234 499.261 223.895 505.202C225.148 502.561 226.334 499.565 227.46 496.852C238.021 471.42 250.881 446.956 267.035 424.609C270.762 419.455 274.647 412.716 279.215 408.282Z"/><path fill="#555" transform="matrix(0.147059 0 0 0.147143 -23.2353 -23.9844)" d="M211.899 535.174C216.277 520.497 222.637 500.627 229.191 486.864C229.484 492.38 223.234 499.261 223.895 505.202C222.239 511.029 217.954 522.538 215.655 528.398C214.463 531.34 214.142 533.072 211.899 535.174Z"/><defs><linearGradient id="gradient_1" gradientUnits="userSpaceOnUse" x1="394.42914" y1="337.77777" x2="423.56119" y2="304.53342"><stop offset="0" stop-color="#989696"/><stop offset="1" stop-color="#BEBEBD"/></linearGradient></defs><path fill="url(#gradient_1)" transform="matrix(0.147059 0 0 0.147143 -23.2353 -23.9844)" d="M413.856 250.737L418.948 251.318C414.997 254.693 410.829 257.866 406.726 261.06C410.496 273.798 416.312 281.144 422.951 292.554C428.668 302.392 434.295 312.283 439.829 322.225C441.305 324.859 446.267 333.332 447.254 335.865C449.136 340.563 450.097 346.981 443.013 347.506L441.721 346.259C443.289 349.56 447.184 359.538 450.474 360.398C444.955 363.643 440.482 366.527 435.105 369.947C434.924 369.959 434.743 369.973 434.561 369.982C433.408 370.039 432.267 370.101 431.185 369.632C417.571 363.717 379.352 318.724 369.395 306.045C366.39 302.219 363.101 294.743 359.95 291.918L358.43 292.252L358.436 291.85C364.483 284.203 370.996 279.261 378.607 273.43C379.31 270.007 379.348 270.232 381.573 267.301C387.162 263.776 396.353 258.641 401.331 254.88C405.437 253.648 409.774 251.537 413.856 250.737Z"/><defs><linearGradient id="gradient_2" gradientUnits="userSpaceOnUse" x1="405.96341" y1="349.12173" x2="401.76947" y2="252.05002"><stop offset="0" stop-color="#C5C4C2"/><stop offset="1" stop-color="#F0F0EF"/></linearGradient></defs><path fill="url(#gradient_2)" transform="matrix(0.147059 0 0 0.147143 -23.2353 -23.9844)" d="M413.856 250.737L418.948 251.318C414.997 254.693 410.829 257.866 406.726 261.06C410.496 273.798 416.312 281.144 422.951 292.554C428.668 302.392 434.295 312.283 439.829 322.225C441.305 324.859 446.267 333.332 447.254 335.865C449.136 340.563 450.097 346.981 443.013 347.506L441.721 346.259C438.16 339.753 427.766 324.546 423.496 318.731C417.1 310.019 398.229 278.911 389.959 274.471C383.307 274.566 371.858 284.62 365.693 287.996C364.177 288.826 361.182 290.757 359.95 291.918L358.43 292.252L358.436 291.85C364.483 284.203 370.996 279.261 378.607 273.43C379.31 270.007 379.348 270.232 381.573 267.301C387.162 263.776 396.353 258.641 401.331 254.88C405.437 253.648 409.774 251.537 413.856 250.737Z"/><path fill="#B0AEAE" transform="matrix(0.147059 0 0 0.147143 -23.2353 -23.9844)" d="M401.331 254.88C405.437 253.648 409.774 251.537 413.856 250.737C407.974 254.672 401.358 258.063 395.326 261.869C389.532 265.524 384.199 269.5 378.607 273.43C379.31 270.007 379.348 270.232 381.573 267.301C387.162 263.776 396.353 258.641 401.331 254.88Z"/><defs><linearGradient id="gradient_3" gradientUnits="userSpaceOnUse" x1="372.7594" y1="352.14383" x2="414.5426" y2="299.50827"><stop offset="0" stop-color="#7B7B7A"/><stop offset="1" stop-color="#A19E9B"/></linearGradient></defs><path fill="url(#gradient_3)" transform="matrix(0.147059 0 0 0.147143 -23.2353 -23.9844)" d="M381.573 267.301C379.348 270.232 379.31 270.007 378.607 273.43C370.996 279.261 364.483 284.203 358.436 291.85L358.43 292.252L359.95 291.918C363.101 294.743 366.39 302.219 369.395 306.045C379.352 318.724 417.571 363.717 431.185 369.632C432.267 370.101 433.408 370.039 434.561 369.982C434.743 369.973 434.924 369.959 435.105 369.947C428.98 374.872 420.431 381.078 413.971 386.034C404.366 379.437 346.67 318.116 342.385 308.153C340.346 303.413 342.625 298.446 344.293 293.981C352.022 285.81 371.279 273.626 381.573 267.301Z"/><path fill="#21201F" transform="matrix(0.147059 0 0 0.147143 -23.2353 -23.9844)" d="M480.28 354.851L481.935 357.454C482.449 358.121 483.869 359.854 484.167 360.505C487.477 364.839 490.464 368.725 491.957 374.077C491.707 379.102 491.194 380.888 487.59 384.395C485.464 384.806 481.35 387.189 479.294 388.321C464.609 396.414 441.787 411.622 430.688 423.798L430.586 424.644C417.332 431.815 411.716 418.306 405.739 408.897C418.148 392.077 440.956 376.635 458.894 365.832C465.559 361.818 472.896 357.206 480.28 354.851Z"/><defs><linearGradient id="gradient_4" gradientUnits="userSpaceOnUse" x1="429.34903" y1="387.52698" x2="468.43649" y2="396.13733"><stop offset="0" stop-color="#383838"/><stop offset="1" stop-color="#636262"/></linearGradient></defs><path fill="url(#gradient_4)" transform="matrix(0.147059 0 0 0.147143 -23.2353 -23.9844)" d="M464.133 367.843C465.928 367.896 468.897 367.873 470.541 368.278L471.863 367.733C476.213 370.451 476.207 374.468 479.896 378.675L480.445 381.181C460.471 391.066 448.2 400.879 430.915 414.003C428.673 412.008 423.852 409.649 424.942 405.888C425.939 402.446 429.008 398.673 431.544 396.099C440.284 387.227 450.079 377.166 460.59 370.486L464.133 367.843Z"/><path fill="#B0AEAE" transform="matrix(0.147059 0 0 0.147143 -23.2353 -23.9844)" d="M464.133 367.843C465.928 367.896 468.897 367.873 470.541 368.278L471.863 367.733C476.213 370.451 476.207 374.468 479.896 378.675C477.47 380.774 474.786 382.554 471.909 383.973C469.018 379.44 467.718 376.947 464.296 372.488C463.747 372.891 463.215 373.132 462.609 373.456C462.846 372.605 463.032 371.847 463.238 370.991L462.382 370.279L460.59 370.486L464.133 367.843Z"/><path fill="#555" transform="matrix(0.147059 0 0 0.147143 -23.2353 -23.9844)" d="M464.133 367.843C465.928 367.896 468.897 367.873 470.541 368.278C469.081 369.211 465.368 371.434 464.296 372.488C463.747 372.891 463.215 373.132 462.609 373.456C462.846 372.605 463.032 371.847 463.238 370.991L462.382 370.279L460.59 370.486L464.133 367.843Z"/><path fill="#555" transform="matrix(0.147059 0 0 0.147143 -23.2353 -23.9844)" d="M471.863 367.733C472.766 366.626 481.204 362.715 484.167 360.505C487.477 364.839 490.464 368.725 491.957 374.077C490.517 375.935 482.999 379.784 480.445 381.181L479.896 378.675C476.207 374.468 476.213 370.451 471.863 367.733Z"/><path fill="#5A5554" transform="matrix(0.147059 0 0 0.147143 -23.2353 -23.9844)" d="M481.935 357.454C482.449 358.121 483.869 359.854 484.167 360.505C481.204 362.715 472.766 366.626 471.863 367.733L470.541 368.278C468.897 367.873 465.928 367.896 464.133 367.843C468.94 364.814 478.083 360.21 481.935 357.454Z"/><path fill="#B0AEAE" transform="matrix(0.147059 0 0 0.147143 -23.2353 -23.9844)" d="M310.848 371.529L311.819 372.364C311.491 374.878 296.662 391.831 293.962 395.305C291.152 398.92 286.228 406.148 283.272 409.56L282.972 409.239L283.079 408.658L282.441 407.754C280.921 407.337 281.018 407.65 279.215 408.282C286.655 397.299 301.561 380.831 310.848 371.529Z"/><defs><linearGradient id="gradient_5" gradientUnits="userSpaceOnUse" x1="580.59045" y1="296.0957" x2="530.81311" y2="196.25409"><stop offset="0" stop-color="#979695"/><stop offset="1" stop-color="#C6C5C5"/></linearGradient></defs><path fill="url(#gradient_5)" transform="matrix(0.147059 0 0 0.147143 -23.2353 -23.9844)" d="M418.948 251.318C427.823 249.763 434.87 266.244 440.367 268.249C442.986 269.204 459.306 259.551 462.545 257.839C522.324 226.26 587.112 207.132 655.022 206.118C666.825 205.942 686.791 206.176 698.037 209.717L698.43 210.731C696.16 214.587 674.464 221.509 669.284 223.547C651.064 230.716 632.105 237.422 614.168 245.139C572.378 262.871 532.869 285.559 496.49 312.715C491.68 316.315 477.11 324.737 479.658 329.736C479.489 329.405 480.164 331.241 480.065 330.968C482.475 335.916 484.376 340.104 484.724 345.726C479.487 346.788 464.092 353.427 458.916 355.923L450.474 360.398C447.184 359.538 443.289 349.56 441.721 346.259L443.013 347.506C450.097 346.981 449.136 340.563 447.254 335.865C446.267 333.332 441.305 324.859 439.829 322.225C434.295 312.283 428.668 302.392 422.951 292.554C416.312 281.144 410.496 273.798 406.726 261.06C410.829 257.866 414.997 254.693 418.948 251.318Z"/><path fill="#5A5554" transform="matrix(0.147059 0 0 0.147143 -23.2353 -23.9844)" d="M698.037 209.717L698.43 210.731C696.16 214.587 674.464 221.509 669.284 223.547C651.064 230.716 632.105 237.422 614.168 245.139C572.378 262.871 532.869 285.559 496.49 312.715C491.68 316.315 477.11 324.737 479.658 329.736C479.489 329.405 480.164 331.241 480.065 330.968C479.87 330.924 479.672 330.894 479.48 330.836C476.782 330.031 461.184 302.481 458.472 297.867C467.018 302.968 468.631 305.369 478.864 305.732C487.811 299.209 494.979 292.787 504.674 286.261C542.694 260.669 588.203 239.773 632.16 226.966C645.45 223.208 658.799 219.66 672.202 216.324C679.68 214.497 690.262 212.515 697.311 209.982L698.037 209.717Z"/><path fill="#B0AEAE" transform="matrix(0.147059 0 0 0.147143 -23.2353 -23.9844)" d="M447.254 335.865C451.898 341.719 453.415 349.164 458.916 355.923L450.474 360.398C447.184 359.538 443.289 349.56 441.721 346.259L443.013 347.506C450.097 346.981 449.136 340.563 447.254 335.865Z"/><path fill="#E9E9E7" transform="matrix(0.147059 0 0 0.147143 -23.2353 -23.9844)" d="M653.408 207.716C659.692 207.208 675.322 207.438 681.408 208.2C678.21 209.351 675.216 209.546 671.878 209.861C638.439 213.021 606.237 218.968 573.762 227.557C541.478 236.096 510.993 248.002 479.864 260.017C472.386 262.794 465.243 266.01 457.604 268.371C467.486 261.562 483.178 253.594 493.948 248.06C544.338 222.167 597.078 210.825 653.408 207.716Z"/><defs><linearGradient id="gradient_6" gradientUnits="userSpaceOnUse" x1="360.086" y1="283.06714" x2="366.93024" y2="229.80646"><stop offset="0" stop-color="#D3904E"/><stop offset="1" stop-color="#E5B274"/></linearGradient></defs><path fill="url(#gradient_6)" transform="matrix(0.147059 0 0 0.147143 -23.2353 -23.9844)" d="M374.834 232.794C377.196 232.126 383.197 230.102 384.904 231.578C389.005 235.123 395.5 245.74 398.201 250.249L401.331 254.88C396.353 258.641 387.162 263.776 381.573 267.301C371.279 273.626 352.022 285.81 344.293 293.981C340.781 295.648 338.262 298.587 335.845 299.495C325.124 284.55 314.96 281.151 328.66 264.193C339.186 251.296 351.541 243.567 366.287 236.566C368.976 235.242 372.052 233.992 374.834 232.794Z"/><path fill="#A96733" transform="matrix(0.147059 0 0 0.147143 -23.2353 -23.9844)" d="M398.201 250.249L401.331 254.88C396.353 258.641 387.162 263.776 381.573 267.301C371.279 273.626 352.022 285.81 344.293 293.981C340.781 295.648 338.262 298.587 335.845 299.495C325.124 284.55 314.96 281.151 328.66 264.193C333.269 268.955 339.288 276.907 344.076 282.361C358.333 276.865 385.812 259.818 398.201 250.249Z"/><path fill="#F5CE92" transform="matrix(0.147059 0 0 0.147143 -23.2353 -23.9844)" d="M366.287 236.566C368.976 235.242 372.052 233.992 374.834 232.794C379.574 240.207 383.163 245.854 386.806 253.959C385.16 254.553 383.333 255.459 381.711 255.117C379.548 253.385 367.561 238.955 366.287 236.566Z"/></g></svg>