<?xml version="1.0" encoding="utf-8" ?><svg xmlns="http://www.w3.org/2000/svg" xmlns:xlink="http://www.w3.org/1999/xlink" width="100" height="116" viewBox="0 0 100 116"><clipPath id="cl_3"><rect x="1.5258789e-05" y="-0.00024414062" width="100" height="116"/></clipPath><g clip-path="url(#cl_3)"><path fill="#DF945B" transform="matrix(0.413223 0 0 0.414286 -219.835 -0.000244141)" d="M654.338 160.541C661.533 160.603 668.725 160.884 675.903 161.382C680.414 161.296 688.018 162.371 692.655 162.961C697.523 163.601 703.368 164.171 708.065 165.419C712.481 166.553 718.393 167.741 720.883 171.918C721.106 172.288 721.294 172.676 721.447 173.079C721.083 184.367 720.051 195.646 718.908 206.876C718.313 212.721 713.948 216.535 708.762 218.675C708.207 220.043 708.192 220.884 708.064 222.328C707.236 228.294 705.805 231.699 704.755 236.864C703.044 245.281 701.77 253.99 693.776 259.592C678.739 270.129 652.643 271.334 635.118 268.952C622.889 267.289 608.861 263.398 601.695 253.165C596.988 246.441 596.556 235.924 594.852 227.734C594.474 226.451 593.905 220.982 593.706 219.366C590.048 217.449 586.396 215.566 584.25 211.87C581.802 207.652 579.46 177.359 580.828 172.458C581.478 170.131 584.25 168.944 586.174 167.842C591.854 165.844 595.701 165.079 601.603 164.02C604.266 163.387 613.941 162.42 616.976 162.037C620.138 161.663 622.247 161.473 625.46 161.392C630.932 160.9 639.415 160.687 644.837 160.703L645.05 162.936C645.251 165.508 645.468 166.492 646.125 168.997C653.042 169.126 654.81 170.315 654.924 162.653L654.338 160.541Z"/><defs><linearGradient id="gradient_0" gradientUnits="userSpaceOnUse" x1="680.07196" y1="197.12094" x2="618.9978" y2="268.08505"><stop offset="0" stop-color="#95643C"/><stop offset="1" stop-color="#FFB56E"/></linearGradient></defs><path fill="url(#gradient_0)" transform="matrix(0.413223 0 0 0.414286 -219.835 -0.000244141)" d="M686.455 223.291C691.069 223.908 703.901 217.845 708.762 218.675C708.207 220.043 708.192 220.884 708.064 222.328C707.236 228.294 705.805 231.699 704.755 236.864C703.044 245.281 701.77 253.99 693.776 259.592C678.739 270.129 652.643 271.334 635.118 268.952C622.889 267.289 608.861 263.398 601.695 253.165C596.988 246.441 596.556 235.924 594.852 227.734C595.107 226.262 594.818 221.476 594.818 219.57L595.162 219.416C601.921 220.673 608.376 223.135 615.518 224.109C618.758 224.551 627.901 224.79 630.091 225.754C630.727 226.128 630.85 226.168 631.567 226.344L631.694 227.009C631.453 227.154 630.801 227.24 630.467 227.303C635.29 228.021 642.79 228.394 647.643 228.043C651.418 227.655 653.93 228.053 658.244 227.226L658.255 226.969L655.514 226.765C658.073 226.393 662.405 226.271 665.179 226.021C672.307 225.417 679.406 224.506 686.455 223.291Z"/><defs><linearGradient id="gradient_1" gradientUnits="userSpaceOnUse" x1="679.14703" y1="217.44725" x2="685.42236" y2="232.28404"><stop offset="0" stop-color="#784525"/><stop offset="1" stop-color="#94683E"/></linearGradient></defs><path fill="url(#gradient_1)" transform="matrix(0.413223 0 0 0.414286 -219.835 -0.000244141)" d="M686.455 223.291C691.069 223.908 703.901 217.845 708.762 218.675C708.207 220.043 708.192 220.884 708.064 222.328L707.594 220.833C704.984 221.873 703.44 223.975 701.202 225.55C690.322 233.209 679.364 229.367 667.318 228.558C661.102 228.14 653.628 228.862 647.643 228.043C651.418 227.655 653.93 228.053 658.244 227.226L658.255 226.969L655.514 226.765C658.073 226.393 662.405 226.271 665.179 226.021C672.307 225.417 679.406 224.506 686.455 223.291Z"/><path fill="#684F3F" transform="matrix(0.413223 0 0 0.414286 -219.835 -0.000244141)" d="M654.338 160.541C661.533 160.603 668.725 160.884 675.903 161.382C680.414 161.296 688.018 162.371 692.655 162.961C695.499 165.798 698.313 164.499 699.399 166.476L698.615 167.348L698.692 168.433C701.697 170.235 703.164 171.65 706.53 172.739L706.641 173.416C703.052 175.978 693.863 177.561 689.251 178.176C661.81 181.836 632.737 181.592 605.361 177.148C602.112 176.621 597.282 175.833 594.97 173.43L594.646 172.494C593.136 169.635 589.258 168.007 586.174 167.842C591.854 165.844 595.701 165.079 601.603 164.02C604.266 163.387 613.941 162.42 616.976 162.037C620.138 161.663 622.247 161.473 625.46 161.392C630.932 160.9 639.415 160.687 644.837 160.703L645.05 162.936C645.251 165.508 645.468 166.492 646.125 168.997C653.042 169.126 654.81 170.315 654.924 162.653L654.338 160.541Z"/><path fill="#9A6455" transform="matrix(0.413223 0 0 0.414286 -219.835 -0.000244141)" d="M675.903 161.382C680.414 161.296 688.018 162.371 692.655 162.961C695.499 165.798 698.313 164.499 699.399 166.476L698.615 167.348L698.692 168.433C697.761 168.208 695.392 166.941 693.8 166.554C684.553 164.304 678.996 162.959 669.482 163.256C671.24 162.779 675.304 162.755 677.301 162.682L677.513 161.94L677.902 162.481L677.805 162.142L678.052 162.26L675.903 161.382Z"/><path fill="#B1754B" transform="matrix(0.413223 0 0 0.414286 -219.835 -0.000244141)" d="M654.338 160.541C661.533 160.603 668.725 160.884 675.903 161.382L678.052 162.26L677.805 162.142L677.902 162.481L677.513 161.94L677.301 162.682C675.304 162.755 671.24 162.779 669.482 163.256C665.238 163.587 658.948 163.639 654.924 162.653L654.338 160.541Z"/><path fill="#B1754B" transform="matrix(0.413223 0 0 0.414286 -219.835 -0.000244141)" d="M625.46 161.392C630.932 160.9 639.415 160.687 644.837 160.703L645.05 162.936C640.971 162.992 635.942 162.945 631.974 163.341C630.957 163.333 629.94 163.318 628.923 163.295C627.14 163.252 626.53 163.381 625.366 162.157L625.46 161.392Z"/><path fill="#A0756D" transform="matrix(0.413223 0 0 0.414286 -219.835 -0.000244141)" d="M586.174 167.842C591.854 165.844 595.701 165.079 601.603 164.02L603.893 164.327C602.153 164.741 596.696 165.606 595.705 166.549L595.462 167.285C596.309 167.967 596.926 167.863 598.138 167.734C598.664 167.676 599.189 167.611 599.713 167.539C596.28 169.11 593.631 167.909 594.646 172.494C593.136 169.635 589.258 168.007 586.174 167.842Z"/><path fill="#9A6455" transform="matrix(0.413223 0 0 0.414286 -219.835 -0.000244141)" d="M616.976 162.037C620.138 161.663 622.247 161.473 625.46 161.392L625.366 162.157C626.53 163.381 627.14 163.252 628.923 163.295C629.94 163.318 630.957 163.333 631.974 163.341C629.024 164.185 622.059 164.18 619.033 163.27C618.696 162.814 617.542 162.323 616.976 162.037Z"/><path fill="#B1754B" transform="matrix(0.413223 0 0 0.414286 -219.835 -0.000244141)" d="M721.447 173.079C721.083 184.367 720.051 195.646 718.908 206.876C718.313 212.721 713.948 216.535 708.762 218.675C703.901 217.845 691.069 223.908 686.455 223.291C688.025 221.459 703.944 219.869 708.156 216.266C708.8 215.196 708.936 214.301 708.822 213.058C708.407 208.542 704.822 201.925 701.6 198.78C700.454 197.661 698.755 197.05 697.688 195.881C695.683 193.683 694.535 190.973 692.172 188.972C691.653 188.533 691.232 185.441 690.756 184.578C689.537 182.371 677.465 186.081 674.799 185.272C677.601 184.202 683.319 184.146 686.409 183.576C693.084 182.344 718.678 179.737 721.447 173.079Z"/><path fill="#684F3F" transform="matrix(0.413223 0 0 0.414286 -219.835 -0.000244141)" d="M630.091 225.754C637.491 226.397 644.718 226.876 652.144 226.756C653.177 226.739 654.493 226.7 655.514 226.765L658.255 226.969L658.244 227.226C653.93 228.053 651.418 227.655 647.643 228.043C642.79 228.394 635.29 228.021 630.467 227.303C630.801 227.24 631.453 227.154 631.694 227.009L631.567 226.344C630.85 226.168 630.727 226.128 630.091 225.754Z"/><path fill="#A0756D" transform="matrix(0.413223 0 0 0.414286 -219.835 -0.000244141)" d="M692.655 162.961C697.523 163.601 703.368 164.171 708.065 165.419C704.891 166.549 702.47 165.76 699.399 166.476C698.313 164.499 695.499 165.798 692.655 162.961Z"/><path fill="#7EA243" transform="matrix(0.413223 0 0 0.414286 -219.835 -0.000244141)" d="M656.749 16.855C659.642 16.4045 662.928 15.8127 665.805 15.4943C665.202 16.8404 663.607 20.313 663.4 21.6622C661.737 32.5142 665.459 40.5133 663.389 52.1584C661.46 63.0104 656.97 68.6614 654.02 78.3811C657.691 87.3228 660.904 96.9712 661.627 106.71C663.074 105.71 664.764 104.691 665.876 103.31C673.905 93.3382 670.361 73.3591 683.185 58.8391C687.895 53.5058 694.439 47.4695 700.698 44.0838C704.689 41.9243 708.961 40.3137 712.937 38.1234C715.915 36.4832 718.535 34.4026 721.435 32.6818C723.242 50.8381 722.895 72.0182 710.681 86.9288C705.625 93.1006 689.668 102.741 681.633 103.528C674.598 104.217 668.696 102.319 663.546 108.519C662.534 109.737 661.721 111.132 661.085 112.579C659.357 116.508 651.329 139.7 651.516 142.948C651.518 142.988 651.524 143.028 651.527 143.067L651.791 143.959L651.923 143.966C653.113 144.036 654.741 144.083 655.693 144.743L655.372 144.973L655.988 145.352C654.601 145.69 652.869 146.164 651.489 146.392C652.512 149.907 654.567 157.123 654.338 160.541L654.924 162.653C654.81 170.315 653.042 169.126 646.125 168.997C645.468 166.492 645.251 165.508 645.05 162.936L644.837 160.703C644.355 157.787 644.281 149.363 644.207 146.237C641.2 143.317 638.198 140.707 633.855 140.548L634.217 139.685L635.735 139.089C635.979 137.814 632.876 137.308 632.407 134.26C637.16 138.885 640.362 139.18 644.416 142.651C645.293 136.988 647.937 128.747 650.701 123.832C653.449 118.947 655.733 115.827 657.952 110.49C654.704 108.409 648.351 106.415 645.704 104.361C645.072 102.736 644.935 102.353 644.835 100.619C649.253 105.34 651.995 105.497 658.339 107.31C657.965 98.04 656.529 84.5574 648.903 78.5616C640.815 72.2026 632.747 67.6084 628.703 57.3431C626.974 52.9551 625.873 47.1206 627.139 42.4076C629.588 28.1191 643.201 19.0015 656.749 16.855Z"/><path fill="#A6CF68" transform="matrix(0.413223 0 0 0.414286 -219.835 -0.000244141)" d="M627.139 42.4076C629.588 28.1191 643.201 19.0015 656.749 16.855L658.41 17.2752C654.336 17.9552 643.064 20.3206 641.416 23.859C638.469 30.1857 634.105 30.3163 630.078 35.3856C628.173 37.7832 628.892 41.0466 627.61 43.0779L627.139 42.4076Z"/><defs><linearGradient id="gradient_2" gradientUnits="userSpaceOnUse" x1="602.15985" y1="153.54611" x2="584.21375" y2="104.47626"><stop offset="0" stop-color="#516926"/><stop offset="1" stop-color="#7FA746"/></linearGradient></defs><path fill="url(#gradient_2)" transform="matrix(0.413223 0 0 0.414286 -219.835 -0.000244141)" d="M538.292 106.83C549.222 107.779 553.724 108.34 564.903 108.252C586.663 108.263 610.859 112.688 627.43 128.364C628.209 129.1 632.014 133.431 632.407 134.26C632.876 137.308 635.979 137.814 635.735 139.089L634.217 139.685L633.855 140.548C633.132 141.297 622.573 146.201 620.688 147.106C610.333 152.081 597.384 158.565 585.748 154.465C576.643 151.258 567.935 144.952 561.279 138.022C559.449 136.11 556.601 133.581 555.401 131.213C549.168 125.012 543.556 114.314 538.292 106.83Z"/><path fill="#7EA243" transform="matrix(0.413223 0 0 0.414286 -219.835 -0.000244141)" d="M538.292 106.83C549.222 107.779 553.724 108.34 564.903 108.252C568.048 111.263 576.485 104.186 568.792 117.957C568.338 118.769 566.661 119.329 565.868 119.09C562.049 117.939 559.576 116.07 555.5 115.293L555.357 115.267C557.88 117.941 561.266 119.841 564.078 122.414C562.363 124.042 555.645 127.576 554.029 127.909C554.819 130.077 555.319 128.521 555.401 131.213C549.168 125.012 543.556 114.314 538.292 106.83Z"/><path fill="#7EA243" transform="matrix(0.413223 0 0 0.414286 -219.835 -0.000244141)" d="M664.196 141.216C668.63 136.741 671.547 131.021 675.321 126.073C681.849 117.515 691.784 109.755 702.532 107.296C715.1 104.42 730.06 104.037 742.539 107.715C746.157 108.781 749.602 110.549 753.215 111.633C756.172 112.571 761.471 113.434 763.928 114.852L763.949 115.352C759.772 118.268 752.503 118.47 747.324 123.025C742.87 126.942 737.658 130.712 733.43 135.105C718.52 149.15 705.548 154.52 684.834 151.038C671.547 148.805 669.894 143.512 655.988 145.352L655.372 144.973L655.693 144.743C654.741 144.083 653.113 144.036 651.923 143.966L651.791 143.959L651.527 143.067C655.482 142.464 660.368 141.912 664.196 141.216Z"/><defs><linearGradient id="gradient_3" gradientUnits="userSpaceOnUse" x1="615.01886" y1="113.98985" x2="593.80139" y2="56.197063"><stop offset="0" stop-color="#5A7725"/><stop offset="1" stop-color="#95BE55"/></linearGradient></defs><path fill="url(#gradient_3)" transform="matrix(0.413223 0 0 0.414286 -219.835 -0.000244141)" d="M562.614 67.0546C592.913 56.5262 619.173 56.1638 636.167 86.5301C638.481 90.6647 641.993 96.9686 644.835 100.619C644.935 102.353 645.072 102.736 645.704 104.361C643.225 103.835 633.572 106.43 630.036 106.711C624.856 107.122 621.918 107.073 616.753 106.559C596.867 104.577 582.321 90.2168 570.358 75.4916C568.085 72.6948 565.065 70.0692 562.614 67.0546Z"/></g></svg>