<?xml version="1.0" encoding="utf-8" ?><svg xmlns="http://www.w3.org/2000/svg" xmlns:xlink="http://www.w3.org/1999/xlink" width="100" height="106" viewBox="0 0 100 106"><clipPath id="cl_e"><rect x="-3.8146973e-06" y="0.00010681152" width="100" height="105.99998"/></clipPath><g clip-path="url(#cl_e)"><path fill="#F3C959" transform="matrix(0.359712 0 0 0.360544 -20.5036 -137.728)" d="M97.98 559.785C100.564 552.97 102.679 541.38 105.381 533.8C111.585 517.122 117.833 501.807 121.98 484.389C125.437 469.875 126.937 451.678 130.173 437.923C132.315 428.817 148.658 407.235 157.07 402.937C164.212 399.288 189.655 411.386 197.948 413.039C200.634 413.56 208.744 417.891 209.632 421.153C210.464 424.209 210.174 425.098 208.896 427.899C208.409 428.812 205.414 433.963 205.453 434.402C210.638 438.697 213.942 443.378 211.582 450.228C208.436 454.939 205.625 456.321 201.926 460.014C193.28 468.647 189.055 474.662 177.475 479.74C173.493 481.729 170.19 483.066 166.068 484.717C165.513 487.767 164.982 490.481 164.683 493.58C163.921 514.127 163.629 534.626 162.832 555.157C162.361 567.288 160.369 580.029 159.842 592.022C164.672 585.369 165.31 579.042 170.227 572.412C179.097 555.115 199.059 537.466 218.018 532.003C238.669 526.052 259.015 529.391 277.939 539.056C287.291 543.833 312.309 563.347 315.847 572.617C334.12 599.452 314.514 622.687 289.321 631.513C286.649 632.449 283.021 634.785 280.398 635.503C263.962 646.086 207.945 651.86 187.325 650.159C174.238 649.08 158.868 647.047 145.06 646.016C134.329 645.215 112.958 648.295 104.892 646.535C103.312 646.18 101.744 645.772 100.191 645.311C94.8062 642.3 91.7168 640.439 91.7898 633.655C91.8947 623.908 93.5796 614.291 94.42 604.558C95.6892 589.86 94.4751 574.126 97.98 559.785Z"/><defs><linearGradient id="gradient_0" gradientUnits="userSpaceOnUse" x1="210.13008" y1="648.60199" x2="201.04698" y2="550.51013"><stop offset="0" stop-color="#D19536"/><stop offset="1" stop-color="#FBCE53"/></linearGradient></defs><path fill="url(#gradient_0)" transform="matrix(0.359712 0 0 0.360544 -20.5036 -137.728)" d="M97.98 559.785C99.9548 560.686 101.635 561.081 102.307 563.47C106.127 577.058 110.022 591.097 113.182 604.824C114.831 611.989 114.54 620.089 115.128 627.299C131.272 627.345 151.744 628.371 167.518 626.289C186.086 623.837 205.138 619.43 223.918 617.214C243.314 613.965 260.763 609.3 280.27 604.576C295.676 600.846 315.101 600.201 317.798 579.324C317.973 577.968 315.906 575.213 315.847 572.617C334.12 599.452 314.514 622.687 289.321 631.513C286.649 632.449 283.021 634.785 280.398 635.503C263.962 646.086 207.945 651.86 187.325 650.159C174.238 649.08 158.868 647.047 145.06 646.016C134.329 645.215 112.958 648.295 104.892 646.535C103.312 646.18 101.744 645.772 100.191 645.311C94.8062 642.3 91.7168 640.439 91.7898 633.655C91.8947 623.908 93.5796 614.291 94.42 604.558C95.6892 589.86 94.4751 574.126 97.98 559.785Z"/><path fill="#B67A2B" transform="matrix(0.359712 0 0 0.360544 -20.5036 -137.728)" d="M100.191 645.311C111.336 639.044 144.63 637.547 156.898 640.093C183.373 645.585 207.337 644.53 233.9 641.046C236.967 640.644 243.447 639.915 246.328 640.428C243.353 641.666 238.544 642.04 235.367 642.866C216.191 647.825 195.831 647.982 176.203 646.529C172.349 646.244 160.781 644.304 158.534 645.849C162.251 646.005 164.836 646.593 168.419 647.043C203.966 651.513 243.726 648.212 277.443 635.59C279.068 634.981 278.583 635.254 280.398 635.503C263.962 646.086 207.945 651.86 187.325 650.159C174.238 649.08 158.868 647.047 145.06 646.016C134.329 645.215 112.958 648.295 104.892 646.535C103.312 646.18 101.744 645.772 100.191 645.311Z"/><path fill="#B67A2B" transform="matrix(0.359712 0 0 0.360544 -20.5036 -137.728)" d="M158.724 593.256C156.402 595.209 152.206 599.223 149.687 599.788C150.638 598.374 150.24 599.11 150.894 597.589C148.772 594.939 151.843 598.19 152.229 592.038C150.742 591.889 149.361 591.86 147.871 591.804C147.977 591.537 148.044 591.251 148.189 591.003C152.812 583.052 156.055 554.057 156.859 543.937C157.354 537.719 157.048 530.681 158.337 524.651C158.63 523.282 159.147 522.373 160.145 521.416C161.594 522.92 161.26 523.578 161.729 526.058C162.308 515.289 163.595 511.487 162.507 500.499C161.803 501.673 161.328 502.77 160.744 504.004L160.829 503.606C159.952 505.068 159.549 505.921 158.367 507.148L157.56 505.222L157.07 505.557C156.998 506.264 156.687 509.316 156.39 509.795L155.872 509.289C157.977 497.751 153.62 496.514 146.137 493.344C144.238 492.54 139.325 482.538 140.831 481.175C145.71 476.756 178.68 467.416 182.79 464.949C194.878 457.692 198.539 452.384 211.582 450.228C208.436 454.939 205.625 456.321 201.926 460.014C193.28 468.647 189.055 474.662 177.475 479.74C173.493 481.729 170.19 483.066 166.068 484.717C165.513 487.767 164.982 490.481 164.683 493.58C163.921 514.127 163.629 534.626 162.832 555.157C162.361 567.288 160.369 580.029 159.842 592.022C164.672 585.369 165.31 579.042 170.227 572.412C170.516 574.949 167.845 579.336 166.752 582.296C163.895 590.032 161.707 597.696 159.439 605.596C158.934 601.704 158.882 597.219 158.724 593.256Z"/><path fill="#91541C" transform="matrix(0.359712 0 0 0.360544 -20.5036 -137.728)" d="M164.683 493.58C162.918 489.513 150.641 484.669 153.229 479.933C158.344 478.31 172.628 477.02 177.475 479.74C173.493 481.729 170.19 483.066 166.068 484.717C165.513 487.767 164.982 490.481 164.683 493.58Z"/><path fill="#91541C" transform="matrix(0.359712 0 0 0.360544 -20.5036 -137.728)" d="M162.579 418.58C177.896 432.395 176.87 425.39 194.295 425.202C192.764 425.87 191.06 426.566 189.588 427.404C183.677 430.765 183.721 429.75 181.285 435.826C179.597 434.187 178.282 432.792 176.7 431.05C173.617 431.857 174.183 431.201 172.666 433.254C172.035 436.634 174.213 439.371 176.053 442.212C185.826 442.93 188.172 440.517 196.556 436.498C202.129 433.826 204.65 430.322 208.896 427.899C208.409 428.812 205.414 433.963 205.453 434.402C202.963 436.637 186.396 443.196 182.334 443.726C180.262 443.997 174.584 443.984 172.237 444.01C168.563 443.971 162.144 444.051 160.145 440.548C161.547 440.562 164.984 440.778 165.908 440.003C172.121 434.794 165.073 422.81 162.579 418.58Z"/><path fill="#E6A548" transform="matrix(0.359712 0 0 0.360544 -20.5036 -137.728)" d="M176.053 442.212C174.246 441.928 173.263 441.608 171.517 441.101C168.65 437.743 168.731 434.901 171.172 431.442C173.742 430.043 173.101 430.535 176.7 431.05C173.617 431.857 174.183 431.201 172.666 433.254C172.035 436.634 174.213 439.371 176.053 442.212Z"/><path fill="#EFC055" transform="matrix(0.359712 0 0 0.360544 -20.5036 -137.728)" d="M154.581 445.713C156.32 442.487 156.422 441.008 160.145 440.548C162.144 444.051 168.563 443.971 172.237 444.01C165.775 446.493 161.265 446.108 154.581 445.713Z"/><path fill="#756E6F" transform="matrix(0.359712 0 0 0.360544 -20.5036 -137.728)" d="M339.557 641.22C331.238 629.141 338.309 616.371 352.106 613.114C356.767 615.531 364.836 624.574 367.148 628.893L369.596 628.399C368.137 635.018 367.289 639.464 361.057 643.705C357.454 646.208 352.971 647.096 348.686 646.156C345.117 645.396 342.167 643.734 339.557 641.22Z"/></g></svg>