<?xml version="1.0" encoding="utf-8" ?><svg xmlns="http://www.w3.org/2000/svg" xmlns:xlink="http://www.w3.org/1999/xlink" width="100" height="94" viewBox="0 0 100 94"><clipPath id="cl_7"><rect x="1.335144e-05" y="3.8146973e-06" width="100" height="94"/></clipPath><g clip-path="url(#cl_7)"><path fill="#B8B8B3" transform="matrix(0.377358 0 0 0.379032 -24.5283 -23.879)" d="M343.607 81.1437C344.708 75.5202 345.97 71.4374 351.397 68.1997C361.839 61.9702 375.589 59.917 387.344 62.4541C406.152 66.5136 412.362 77.8084 424.506 90.8184C428.77 95.386 435.461 101.577 440.128 106.089C479.919 99.9548 526.559 93.8152 562.561 118.401C569.808 123.35 573.329 130.118 576.258 138.119C576.971 140.992 577.837 143.928 577.923 146.875C578.699 154.712 580.141 165.132 571.3 168.625C571.335 177.711 570.8 204.496 568.914 212.421C567.449 219.36 562.623 226.876 563.466 232.019C559.675 233.429 551.472 237.631 547.807 239.839C545.594 239.831 543.243 239.473 541.623 240.712L541.287 241.851C538.462 239.197 531.398 238.526 527.092 237.698L524.821 239.287C517.658 237.731 508.344 234.938 503.676 229.009C502.978 229.403 502.753 229.548 502.144 230.103C489.212 241.902 449.984 237.768 438.236 229.745C434.365 227.599 431.868 226.377 427.436 226.474L427.092 228.827C424.987 238.081 418.444 240.091 417.582 246.503L415.464 246.369L413.988 245.257C410.137 244.705 403.558 244.59 399.853 245.8C395.257 242.3 389.143 233.726 388.027 228.043C382.554 216.606 381.824 211.891 378.269 199.89C376.408 195.6 371.892 189.949 369.836 185.333C361.043 165.593 360.908 151.155 360.765 130.465L356.428 132.275C349.174 135.497 344.993 137.711 337.189 135.022C332.027 132.004 331.942 129.982 331.744 124.242C331.217 113.588 331.764 109.983 338.325 101.066C340.783 96.853 344.549 93.8768 347.306 89.264L346.72 87.1842C345.02 84.8477 344.682 83.8416 343.607 81.1437Z"/><path fill="#A59174" transform="matrix(0.377358 0 0 0.379032 -24.5283 -23.879)" d="M346.72 87.1842C351.376 87.6756 353.248 87.7281 357.921 87.4707C374.969 87.4861 375.977 98.1715 364.537 108.657L364.29 108.882L363.845 109.857L361.999 109.998C359.55 115.362 361.926 125.389 360.765 130.465L356.428 132.275C349.174 135.497 344.993 137.711 337.189 135.022C332.027 132.004 331.942 129.982 331.744 124.242C331.217 113.588 331.764 109.983 338.325 101.066C340.783 96.853 344.549 93.8768 347.306 89.264L346.72 87.1842Z"/><path fill="#B8B8B3" transform="matrix(0.377358 0 0 0.379032 -24.5283 -23.879)" d="M331.744 124.242L334.432 118.241L334.886 118.137L332.788 127.33C334.379 126.724 336.811 125.766 338.506 125.496C340.609 125.16 344.101 126.913 345.879 126.133C344.501 124.615 343.155 123.55 342.937 121.615L343.518 121.176L350.135 126.755C351.803 125.863 351.972 125.502 353.23 124.025L353.973 124.79L353.94 125.298C353.734 128.794 354.001 129.839 356.428 132.275C349.174 135.497 344.993 137.711 337.189 135.022C332.027 132.004 331.942 129.982 331.744 124.242Z"/><defs><linearGradient id="gradient_0" gradientUnits="userSpaceOnUse" x1="239.02242" y1="238.99211" x2="228.55292" y2="125.10734"><stop offset="0" stop-color="#AEACAA"/><stop offset="1" stop-color="#E8E8E8"/></linearGradient></defs><path fill="url(#gradient_0)" transform="matrix(0.377358 0 0 0.379032 -24.5283 -23.879)" d="M117.346 76.2051C125.536 75.4303 125.82 80.7636 129.961 86.4382C131.811 87.2669 133.446 88.6062 135.425 87.6515C140.389 85.2568 149.531 82.1514 153.862 86.6284C156.356 95.6095 143.131 101.283 143.417 104.524C147.388 108.431 157.101 118.454 162.234 119.83C175.346 123.345 192.669 122.945 206.532 125.658C215.058 127.327 226.978 125.419 235.802 126.128C250.163 126.567 263.762 124.421 277.681 123.916C289.303 123.819 298.924 126.048 309.455 131.013C324.379 160.993 314.676 182.419 315.757 215.435C315.973 218.48 316.317 224.009 317.113 226.791C321.763 243.045 328.364 250.328 318.876 266.75C318.046 257.976 316.986 253.543 311.651 245.983L311.248 248.813C311.843 255.095 312.905 263.641 312.623 269.759C309.309 274.104 308.272 274.983 308.077 280.474C307.809 281.131 307.178 282.27 306.828 282.946C302.823 285.261 294.137 284.121 289.307 283.784C290.409 280.867 291.727 277.794 292.91 274.886C297.209 268.913 296.771 267.186 298.253 259.796L298.235 259.412C297.821 251.859 297.291 249.508 294.086 242.554L293.222 241.345L292.068 239.966C289.976 242.676 287.602 250.28 286.371 253.874C284.747 252.801 283.023 251.892 281.317 250.956C279.588 249.941 277.302 247.482 275.786 245.979C275.756 245.509 275.482 244.635 275.348 244.14C273.681 243.496 272.976 243.874 271.228 244.323C270.309 246.292 269.902 247.838 269.297 249.912C267.476 251.632 268.414 251.235 265.721 251.28L264.646 250.22C264.091 247.616 264.286 245.747 264.397 243.102L263.651 242.345C256.387 240.481 259.227 245.248 253.946 246.114C251.189 245.588 251.687 246.128 250.3 244.32C250.334 241.945 252.155 239.594 253.464 237.514C246.661 233.11 245.602 230.624 240.889 223.893C239.687 222.265 239.063 220.966 238.147 219.194C231.15 219.011 223.084 218.853 216.141 217.921C211.355 217.279 203.249 213.112 198.533 213.256L196.361 214.854C192.559 215.151 189.41 215.474 185.621 216.01C185.121 217.889 184.217 221.702 183.58 223.363L183.728 234.328C183.784 234.905 184.058 237.355 184.022 237.765C181.11 251.039 182.338 256.549 180.84 268.426C172.319 270.017 170.514 272.269 165.761 263.972C169.754 255.387 169.702 253.147 168.298 244.148C165.135 233.228 168.387 229.604 163.414 216.689C161.217 214.279 156.679 210.91 153.985 208.78C138.64 194.605 131.59 174.194 124.074 155.205C111.66 124.684 86.6699 144.072 77.8157 131.372C75.5023 124.987 73.3587 120.047 75.1227 113.366C79.755 107.611 96.2796 101.942 103.628 97.4226C104.148 96.7649 107.029 94.6149 107.864 93.9652C116.067 88.3898 109.599 89.5363 113.461 81.1617L117.346 76.2051Z"/><defs><linearGradient id="gradient_1" gradientUnits="userSpaceOnUse" x1="186.01198" y1="94.22361" x2="179.41815" y2="180.76114"><stop offset="0" stop-color="#3B3838"/><stop offset="1" stop-color="#535151"/></linearGradient></defs><path fill="url(#gradient_1)" transform="matrix(0.377358 0 0 0.379032 -24.5283 -23.879)" d="M117.346 76.2051C125.536 75.4303 125.82 80.7636 129.961 86.4382C131.811 87.2669 133.446 88.6062 135.425 87.6515C140.389 85.2568 149.531 82.1514 153.862 86.6284C156.356 95.6095 143.131 101.283 143.417 104.524C147.388 108.431 157.101 118.454 162.234 119.83C175.346 123.345 192.669 122.945 206.532 125.658C215.058 127.327 226.978 125.419 235.802 126.128C250.163 126.567 263.762 124.421 277.681 123.916C272.677 135.496 267.885 131.304 259.847 138.737L259.524 139.031C257.307 141.084 255.028 146.524 253.667 149.431C252.583 150.114 249.631 151.866 248.763 152.548C234.9 158.396 225.242 159.669 215.532 172.791C213.007 174.355 211.047 180.515 208.843 182.041C190.746 194.569 189.724 162.981 187.504 154.64C185.915 153.118 183.649 151.592 181.824 150.279L181.566 149.756C179.314 145.134 179.101 145.701 178.232 140.231C178.569 137.267 179.271 132.355 179.374 129.531C176.087 129.141 171.95 128.519 168.709 128.54C165.915 130.947 148.4 146.8 146.759 147.536C145.551 152.208 151.34 153.708 152.061 158.462C154.643 175.493 158.093 191.261 164.962 207.155C165.955 209.453 164.819 214.397 163.414 216.689C161.217 214.279 156.679 210.91 153.985 208.78C138.64 194.605 131.59 174.194 124.074 155.205C111.66 124.684 86.6699 144.072 77.8157 131.372C75.5023 124.987 73.3587 120.047 75.1227 113.366C79.755 107.611 96.2796 101.942 103.628 97.4226C104.148 96.7649 107.029 94.6149 107.864 93.9652C116.067 88.3898 109.599 89.5363 113.461 81.1617L117.346 76.2051Z"/><defs><linearGradient id="gradient_2" gradientUnits="userSpaceOnUse" x1="110.08379" y1="169.18951" x2="137.99149" y2="146.70174"><stop offset="0" stop-color="#705655"/><stop offset="1" stop-color="#8D9291"/></linearGradient></defs><path fill="url(#gradient_2)" transform="matrix(0.377358 0 0 0.379032 -24.5283 -23.879)" d="M77.8157 131.372C78.4147 130.975 79.1553 130.483 80.0375 129.898C86.1697 129.99 96.737 129.412 102.318 130.616C111.207 132.533 113.81 134.106 122.664 133.597L123.614 132.307L124.047 132.719C132.476 140.897 131.978 149.703 146.759 147.536C145.551 152.208 151.34 153.708 152.061 158.462C154.643 175.493 158.093 191.261 164.962 207.155C165.955 209.453 164.819 214.397 163.414 216.689C161.217 214.279 156.679 210.91 153.985 208.78C138.64 194.605 131.59 174.194 124.074 155.205C111.66 124.684 86.6699 144.072 77.8157 131.372Z"/><path fill="#2D2A2A" transform="matrix(0.377358 0 0 0.379032 -24.5283 -23.879)" d="M124.074 155.205C129.193 156.752 139.298 164.315 142.416 168.625C144.447 171.432 143.066 179.94 144.03 183.623C146.147 191.714 155.115 200.31 153.985 208.78C138.64 194.605 131.59 174.194 124.074 155.205Z"/><path fill="#9A9592" transform="matrix(0.377358 0 0 0.379032 -24.5283 -23.879)" d="M82.8874 114.875C84.2 114.96 85.5136 115.028 86.828 115.079C89.977 115.188 90.761 115.151 92.933 113.117C93.2433 115.689 93.5736 119.634 94.3663 121.982C96.7638 124.417 97.4271 125.079 100.304 126.864C105.222 126.15 109.495 125.513 114.344 124.449C117.693 126.748 120.798 129.38 123.614 132.307L122.664 133.597C113.81 134.106 111.207 132.533 102.318 130.616C96.737 129.412 86.1697 129.99 80.0375 129.898C79.1553 130.483 78.4147 130.975 77.8157 131.372C75.5023 124.987 73.3587 120.047 75.1227 113.366C78.3959 114.378 79.5032 114.807 82.8874 114.875Z"/><path fill="#D9B29F" transform="matrix(0.377358 0 0 0.379032 -24.5283 -23.879)" d="M82.8874 114.875C84.2 114.96 85.5136 115.028 86.828 115.079C89.977 115.188 90.761 115.151 92.933 113.117C93.2433 115.689 93.5736 119.634 94.3663 121.982C92.768 126.066 83.5816 126.494 80.3613 122.428C80.4241 118.893 84.6337 120.915 82.8874 114.875Z"/><defs><linearGradient id="gradient_3" gradientUnits="userSpaceOnUse" x1="149.98604" y1="96.437347" x2="129.12885" y2="90.336327"><stop offset="0" stop-color="#523128"/><stop offset="1" stop-color="#302D2E"/></linearGradient></defs><path fill="url(#gradient_3)" transform="matrix(0.377358 0 0 0.379032 -24.5283 -23.879)" d="M129.961 86.4382C131.811 87.2669 133.446 88.6062 135.425 87.6515C140.389 85.2568 149.531 82.1514 153.862 86.6284C156.356 95.6095 143.131 101.283 143.417 104.524C142.329 104.732 141.194 105.076 140.117 105.373C136.605 104.621 139.048 103.836 134.034 103.97C132.581 106.157 135.735 106.244 135.36 109.664L134.374 109.594C127.443 95.8246 131.139 100.117 128.877 87.1152L129.961 86.4382Z"/><path fill="#B8B8B3" transform="matrix(0.377358 0 0 0.379032 -24.5283 -23.879)" d="M103.628 97.4226C103.6 100.052 103.472 100.365 102.299 102.697C99.4872 105.814 94.0683 110.065 92.933 113.117C90.761 115.151 89.977 115.188 86.828 115.079C85.5136 115.028 84.2 114.96 82.8874 114.875C79.5032 114.807 78.3959 114.378 75.1227 113.366C79.755 107.611 96.2796 101.942 103.628 97.4226Z"/><path fill="#A59174" transform="matrix(0.377358 0 0 0.379032 -24.5283 -23.879)" d="M117.346 76.2051C125.536 75.4303 125.82 80.7636 129.961 86.4382L128.877 87.1152C127.732 92.0568 127.331 93.1508 122.143 94.0396C119.217 91.2723 119.615 90.9068 120.462 87.0817L117.376 87.5427C114.916 86.2553 114.61 84.0864 113.461 81.1617L117.346 76.2051Z"/><path fill="#E3E3DE" transform="matrix(0.377358 0 0 0.379032 -24.5283 -23.879)" d="M117.346 76.2051C119.87 78.9562 120.858 80.0537 122.822 83.1882L120.462 87.0817L117.376 87.5427C114.916 86.2553 114.61 84.0864 113.461 81.1617L117.346 76.2051Z"/><path fill="#484644" transform="matrix(0.377358 0 0 0.379032 -24.5283 -23.879)" d="M107.864 93.9652C112.269 94.2101 121.326 96.2152 121.956 101.609C119.848 104.024 116.558 103.221 116.406 103.853C115.405 108.021 117.328 109.026 112.153 110.773L111.093 110.403L111.07 110.275C113.59 109.716 114.165 108.859 115.351 107.099C115.234 104.102 115.391 105.098 113.656 102.418C108.173 103.129 107.93 103.981 102.299 102.697C103.472 100.365 103.6 100.052 103.628 97.4226C104.148 96.7649 107.029 94.6149 107.864 93.9652Z"/><path fill="#6C665A" transform="matrix(0.377358 0 0 0.379032 -24.5283 -23.879)" d="M108.702 97.6052C112.114 97.1811 116.787 96.8967 119.358 99.6471C119.876 101.778 119.968 100.94 119.113 102.829C115.952 101.728 109.057 101.507 107.626 99.5944L108.702 97.6052Z"/><path fill="#2D2A2A" transform="matrix(0.377358 0 0 0.379032 -24.5283 -23.879)" d="M113.656 102.418C115.391 105.098 115.234 104.102 115.351 107.099C114.165 108.859 113.59 109.716 111.07 110.275C109.89 108.852 109.803 108.409 109.095 106.666C110.388 103.829 111.018 107.593 113.656 102.418Z"/><path fill="#9A9592" transform="matrix(0.377358 0 0 0.379032 -24.5283 -23.879)" d="M192.614 203.892C193.581 203.279 196.674 201.331 197.57 201.039C202.36 199.482 217.165 198.039 221.152 200.678C220.199 201.334 219.843 201.541 218.812 202.069C220.6 202.973 225.015 201.783 225.892 202.31C239.256 210.343 248.42 191.952 261.502 191.951C263.993 189.226 262.454 187.11 264.448 186.406C266.261 192.391 267.583 199.399 270.432 204.834C271.791 207.428 276.94 209.776 277.733 212.708L277.206 213.338L270.136 208.207L269.998 208.535C275.731 214.518 295.708 232.048 293.222 241.345L292.068 239.966C289.976 242.676 287.602 250.28 286.371 253.874C284.747 252.801 283.023 251.892 281.317 250.956C279.588 249.941 277.302 247.482 275.786 245.979C275.756 245.509 275.482 244.635 275.348 244.14C273.681 243.496 272.976 243.874 271.228 244.323C270.309 246.292 269.902 247.838 269.297 249.912C267.476 251.632 268.414 251.235 265.721 251.28L264.646 250.22C264.091 247.616 264.286 245.747 264.397 243.102L263.651 242.345C256.387 240.481 259.227 245.248 253.946 246.114C251.189 245.588 251.687 246.128 250.3 244.32C250.334 241.945 252.155 239.594 253.464 237.514C246.661 233.11 245.602 230.624 240.889 223.893C239.687 222.265 239.063 220.966 238.147 219.194C231.15 219.011 223.084 218.853 216.141 217.921C211.355 217.279 203.249 213.112 198.533 213.256L196.361 214.854C192.559 215.151 189.41 215.474 185.621 216.01C185.121 217.889 184.217 221.702 183.58 223.363C182.991 215.167 186.983 209.315 192.614 203.892Z"/><defs><linearGradient id="gradient_4" gradientUnits="userSpaceOnUse" x1="274.60602" y1="251.17026" x2="256.82712" y2="212.45219"><stop offset="0" stop-color="#8D5E55"/><stop offset="1" stop-color="#AD8981"/></linearGradient></defs><path fill="url(#gradient_4)" transform="matrix(0.377358 0 0 0.379032 -24.5283 -23.879)" d="M267.919 210.73C272.104 214.937 273.963 217.301 277.52 222.092C279.576 224.291 289.704 235.529 290.223 238.178L292.068 239.966C289.976 242.676 287.602 250.28 286.371 253.874C284.747 252.801 283.023 251.892 281.317 250.956C279.588 249.941 277.302 247.482 275.786 245.979C275.756 245.509 275.482 244.635 275.348 244.14C273.681 243.496 272.976 243.874 271.228 244.323C270.309 246.292 269.902 247.838 269.297 249.912C267.476 251.632 268.414 251.235 265.721 251.28L264.646 250.22C264.091 247.616 264.286 245.747 264.397 243.102L263.651 242.345C256.387 240.481 259.227 245.248 253.946 246.114C251.189 245.588 251.687 246.128 250.3 244.32C250.334 241.945 252.155 239.594 253.464 237.514C246.661 233.11 245.602 230.624 240.889 223.893C242.492 221.906 243.021 220.62 244.119 218.336C249.171 216.549 261.004 213.842 266.611 212.41L267.115 212.474L267.919 210.73Z"/><path fill="#71706B" transform="matrix(0.377358 0 0 0.379032 -24.5283 -23.879)" d="M281.317 250.956C284.98 246.527 282.876 246.646 284.542 241.028C286.08 239.202 287.925 238.889 290.223 238.178L292.068 239.966C289.976 242.676 287.602 250.28 286.371 253.874C284.747 252.801 283.023 251.892 281.317 250.956Z"/><path fill="#7C5840" transform="matrix(0.377358 0 0 0.379032 -24.5283 -23.879)" d="M267.919 210.73C272.104 214.937 273.963 217.301 277.52 222.092C276.843 222.699 276.754 222.64 275.866 222.903C273.068 219.078 270.747 215.528 267.115 212.474L267.919 210.73Z"/><path fill="#857F76" transform="matrix(0.377358 0 0 0.379032 -24.5283 -23.879)" d="M192.614 203.892C206.028 206.186 220.239 211.026 234.254 207.074C236.441 206.457 246.681 203.608 248.587 204.206C253.397 207.12 253.659 204.422 257.755 209.572C260.264 210.215 264.568 211.091 266.611 212.41C261.004 213.842 249.171 216.549 244.119 218.336C243.021 220.62 242.492 221.906 240.889 223.893C239.687 222.265 239.063 220.966 238.147 219.194C231.15 219.011 223.084 218.853 216.141 217.921C211.355 217.279 203.249 213.112 198.533 213.256L196.361 214.854C192.559 215.151 189.41 215.474 185.621 216.01C185.121 217.889 184.217 221.702 183.58 223.363C182.991 215.167 186.983 209.315 192.614 203.892Z"/><path fill="#6C665A" transform="matrix(0.377358 0 0 0.379032 -24.5283 -23.879)" d="M248.587 204.206L257.547 201.852C262.378 204.671 264.076 206.711 267.919 210.73L267.115 212.474L266.611 212.41C264.568 211.091 260.264 210.215 257.755 209.572C253.659 204.422 253.397 207.12 248.587 204.206Z"/><path fill="#E3E3DE" transform="matrix(0.377358 0 0 0.379032 -24.5283 -23.879)" d="M171.419 225.332C178.799 225.167 181.765 226.989 183.728 234.328C183.784 234.905 184.058 237.355 184.022 237.765C181.11 251.039 182.338 256.549 180.84 268.426C172.319 270.017 170.514 272.269 165.761 263.972C169.754 255.387 169.702 253.147 168.298 244.148C167.846 240.32 170.468 229.654 171.419 225.332Z"/><path fill="#B8B8B3" transform="matrix(0.377358 0 0 0.379032 -24.5283 -23.879)" d="M298.253 259.796C298.515 258.07 298.477 257.347 299.522 255.922L298.973 257.805C300.751 253.424 303.646 250.693 308.437 250.21L309.019 250.156C309.742 249.343 310.255 249.228 311.248 248.813C311.843 255.095 312.905 263.641 312.623 269.759C309.309 274.104 308.272 274.983 308.077 280.474C307.809 281.131 307.178 282.27 306.828 282.946C302.823 285.261 294.137 284.121 289.307 283.784C290.409 280.867 291.727 277.794 292.91 274.886C297.209 268.913 296.771 267.186 298.253 259.796Z"/><path fill="#71706B" transform="matrix(0.377358 0 0 0.379032 -24.5283 -23.879)" d="M289.307 283.784C290.409 280.867 291.727 277.794 292.91 274.886C301.243 279.644 301.013 277.964 308.077 280.474C307.809 281.131 307.178 282.27 306.828 282.946C302.823 285.261 294.137 284.121 289.307 283.784Z"/><path fill="#484644" transform="matrix(0.377358 0 0 0.379032 -24.5283 -23.879)" d="M312.149 213.561C312.993 214.008 314.978 215.131 315.757 215.435C315.973 218.48 316.317 224.009 317.113 226.791C321.763 243.045 328.364 250.328 318.876 266.75C318.046 257.976 316.986 253.543 311.651 245.983C311.373 239.468 310.592 231.875 308.525 225.71L308.433 223.448C309.141 220.399 310.914 216.528 312.149 213.561Z"/><defs><linearGradient id="gradient_5" gradientUnits="userSpaceOnUse" x1="295.85046" y1="255.96385" x2="306.64456" y2="236.88855"><stop offset="0" stop-color="#9E9B9B"/><stop offset="1" stop-color="#BBB9B7"/></linearGradient></defs><path fill="url(#gradient_5)" transform="matrix(0.377358 0 0 0.379032 -24.5283 -23.879)" d="M294.086 242.554L294.792 240.886C295.668 241.049 295.651 241.127 296.439 240.748C294.717 236.119 292.582 224.195 296.668 220.584C302.126 223.207 296.35 232.594 305.05 234.158C310.803 232.126 307.827 227.598 306.236 223.305C307.496 223.66 307.624 224.389 308.525 225.71C310.592 231.875 311.373 239.468 311.651 245.983L311.248 248.813C310.255 249.228 309.742 249.343 309.019 250.156L308.437 250.21C303.646 250.693 300.751 253.424 298.973 257.805L299.522 255.922C298.477 257.347 298.515 258.07 298.253 259.796L298.235 259.412C297.821 251.859 297.291 249.508 294.086 242.554Z"/><path fill="#E3E3DE" transform="matrix(0.377358 0 0 0.379032 -24.5283 -23.879)" d="M215.532 172.791C225.242 159.669 234.9 158.396 248.763 152.548L248.889 153.461C244.048 155.883 242.801 162.583 236.288 165.385C229.913 168.127 229.234 165.933 223.262 166.446C221.984 166.761 218.687 172.071 215.532 172.791Z"/><path fill="#E3E3DE" transform="matrix(0.377358 0 0 0.379032 -24.5283 -23.879)" d="M311.083 188.707C312.096 196.139 312.268 206.008 312.149 213.561C310.914 216.528 309.141 220.399 308.433 223.448C303.043 213.92 307.785 198.211 311.083 188.707Z"/><path fill="#E3E3DE" transform="matrix(0.377358 0 0 0.379032 -24.5283 -23.879)" d="M181.824 150.279L181.266 150.734C179.163 148.56 172.804 153.915 170.73 145.842C171.22 143.065 175.503 136.44 177.876 136.322L178.232 140.231C179.101 145.701 179.314 145.134 181.566 149.756L181.824 150.279Z"/><defs><linearGradient id="gradient_6" gradientUnits="userSpaceOnUse" x1="306.87125" y1="151.83232" x2="274.17078" y2="158.69402"><stop offset="0" stop-color="#363333"/><stop offset="1" stop-color="#5A5959"/></linearGradient></defs><path fill="url(#gradient_6)" transform="matrix(0.377358 0 0 0.379032 -24.5283 -23.879)" d="M277.029 138.186C292.619 136.878 324.852 155.041 301.566 172.04C291.2 178.463 288.108 173.15 282.381 164.378C275.878 154.416 263.877 148.22 277.029 138.186Z"/><path fill="#2D2A2A" transform="matrix(0.377358 0 0 0.379032 -24.5283 -23.879)" d="M167.889 163.839C181.236 168.145 184.702 190.389 173.24 198.663C169.689 197.424 170.933 197.832 168.497 195.39C159.643 186.517 157.229 172.616 167.889 163.839Z"/><defs><linearGradient id="gradient_7" gradientUnits="userSpaceOnUse" x1="182.66118" y1="224.30605" x2="212.19824" y2="268.66599"><stop offset="0" stop-color="#6B6A6B"/><stop offset="1" stop-color="#A6A5A3"/></linearGradient></defs><path fill="url(#gradient_7)" transform="matrix(0.377358 0 0 0.379032 -24.5283 -23.879)" d="M196.361 214.854L198.533 213.256C199.466 221.53 203.468 235.343 205.85 243.657C207.756 250.308 211.629 257.08 212.48 264.422L207.446 269.504L205.279 277.835C200.663 282.056 189.28 280.902 183.544 280.103C184.908 276.869 187.081 273.556 188.928 270.53C189.713 268.263 191.247 266.574 192.73 264.676C193.325 260.783 193.667 255.95 194.042 251.952C191.544 247.066 187.766 243.775 185.472 238.474C185.275 238.259 184.356 237.91 184.022 237.765C184.058 237.355 183.784 234.905 183.728 234.328L183.58 223.363C184.217 221.702 185.121 217.889 185.621 216.01C189.41 215.474 192.559 215.151 196.361 214.854Z"/><path fill="#71706B" transform="matrix(0.377358 0 0 0.379032 -24.5283 -23.879)" d="M185.621 216.01C189.41 215.474 192.559 215.151 196.361 214.854C194.77 225.219 200.919 227.578 191.774 234.079C190.268 235.15 186.182 237.312 185.472 238.474C185.275 238.259 184.356 237.91 184.022 237.765C184.058 237.355 183.784 234.905 183.728 234.328L183.58 223.363C184.217 221.702 185.121 217.889 185.621 216.01Z"/><path fill="#484644" transform="matrix(0.377358 0 0 0.379032 -24.5283 -23.879)" d="M188.928 270.53C194.566 274.676 199.697 273.108 205.279 277.835C200.663 282.056 189.28 280.902 183.544 280.103C184.908 276.869 187.081 273.556 188.928 270.53Z"/><path fill="#9A9592" transform="matrix(0.377358 0 0 0.379032 -24.5283 -23.879)" d="M275.786 245.979C277.302 247.482 279.588 249.941 281.317 250.956C283.023 251.892 284.747 252.801 286.371 253.874C284.694 259.966 284.855 263.651 283.695 269.221C277.481 274.366 279.806 275.218 276.597 279.835C272.019 280.325 263.966 282.177 261.204 278.318C260.873 275.725 262.755 272.386 263.877 269.87C265.061 267.716 266.879 265.997 268.292 263.93C272.673 257.522 274.267 253.424 275.786 245.979Z"/><path fill="#484644" transform="matrix(0.377358 0 0 0.379032 -24.5283 -23.879)" d="M276.597 279.835C272.019 280.325 263.966 282.177 261.204 278.318C260.873 275.725 262.755 272.386 263.877 269.87C268.571 274.389 273.857 275.458 276.597 279.835Z"/><path fill="#B8B8B3" transform="matrix(0.377358 0 0 0.379032 -24.5283 -23.879)" d="M159.097 272.887C160.157 270.899 163.778 267.193 165.761 263.972C170.514 272.269 172.319 270.017 180.84 268.426C179.156 273.125 175.352 273.13 172.626 279.395C168.323 285.475 161.161 283.679 154.319 283.367C155.854 279.847 157.447 276.353 159.097 272.887Z"/><path fill="#484644" transform="matrix(0.377358 0 0 0.379032 -24.5283 -23.879)" d="M159.097 272.887C163.253 276.172 167.674 277.449 172.626 279.395C168.323 285.475 161.161 283.679 154.319 283.367C155.854 279.847 157.447 276.353 159.097 272.887Z"/></g></svg>