<?xml version="1.0" encoding="utf-8" ?><svg xmlns="http://www.w3.org/2000/svg" xmlns:xlink="http://www.w3.org/1999/xlink" width="100" height="120" viewBox="0 0 100 120"><clipPath id="cl_9"><rect x="3.0517578e-05" width="100" height="120"/></clipPath><g clip-path="url(#cl_9)"><defs><linearGradient id="gradient_0" gradientUnits="userSpaceOnUse" x1="895.534" y1="182.20166" x2="944.96155" y2="228.78838"><stop offset="0" stop-color="#ED7E36"/><stop offset="1" stop-color="#C5613A"/></linearGradient></defs><path fill="url(#gradient_0)" transform="matrix(0.387597 0 0 0.38835 -324.419 0)" d="M878.885 280.575C875.683 283.375 861.831 289.069 857.682 288.666C844.775 286.871 853.884 272.8 856.319 266.325C867.384 236.647 889.155 212.14 904.986 185.083C910.613 175.465 917.091 169.65 923.219 161.032C931.988 148.701 936.991 131.022 951.721 123.736C962.931 118.191 973.514 119.096 984.922 122.813L989.391 125.988L992.979 129.157C993.478 129.705 994.942 131.399 995.438 131.742L996.747 133.585C1006.5 144.116 1013.62 158.417 1002.55 171.172C999.811 174.275 997.389 177.1 994.358 179.93C976.334 197.896 959.957 217.126 939.973 233.787C938.053 235.945 937.353 236.542 935.055 238.306C924.603 248.255 913.696 259.534 900.885 267.108C896.182 271.28 884.879 277.984 878.885 280.575Z"/><defs><linearGradient id="gradient_1" gradientUnits="userSpaceOnUse" x1="974.97876" y1="186.88084" x2="940.08258" y2="158.88344"><stop offset="0" stop-color="#D1572B"/><stop offset="1" stop-color="#F5A456"/></linearGradient></defs><path fill="url(#gradient_1)" transform="matrix(0.387597 0 0 0.38835 -324.419 0)" d="M968.966 129.858C973.113 130.263 979.749 130.086 983.023 131.434C988.845 137.526 979.481 144.831 980.927 149.447C984.773 153.704 991.407 156.773 996.703 158.756L993.872 158.89C993.079 161.567 996.722 162.534 993.602 164.497C985.18 169.798 989.773 173.303 979.141 175.122C979.75 176.642 979.923 177.053 979.841 178.687C970.924 186.631 970.139 186.334 962.057 195.837C959.044 196.735 956.363 197.537 953.287 198.257C951.18 196.328 950.179 194.762 947.703 194.245L947.367 194.95L945.992 194.947L943.816 194.422C939.953 200.836 940.325 207.253 931.221 208.804C930.39 209.849 930.633 209.392 930.345 210.186L929.062 208.829C925.236 204.75 922.34 203.682 917.355 201.381C916.489 199.633 915.653 197.87 914.847 196.094C919.227 188.573 920.543 188.032 927.271 182.018C928.726 177.039 925.497 181.245 929.614 176.517C939.358 165.331 950.944 149.855 958.27 137.099C961.392 135.678 966.115 132.01 968.966 129.858Z"/><path fill="#E68E57" transform="matrix(0.387597 0 0 0.38835 -324.419 0)" d="M943.816 194.422C941.719 194.721 942.612 194.269 941.14 195.987C940.985 197.178 940.827 198.284 940.373 199.4C938.509 197.818 937.649 196.258 937.12 193.972C937.7 191.415 937.083 192.482 939.125 190.71C942.234 190.134 940.773 190.006 943.685 190.993C945.224 192.649 945.567 192.715 945.992 194.947L943.816 194.422Z"/><path fill="#AE4628" transform="matrix(0.387597 0 0 0.38835 -324.419 0)" d="M962.057 195.837C970.139 186.334 970.924 186.631 979.841 178.687C979.923 177.053 979.75 176.642 979.141 175.122C989.773 173.303 985.18 169.798 993.602 164.497C996.722 162.534 993.079 161.567 993.872 158.89L996.703 158.756C1006.49 164.892 1000.34 163.049 1002.55 171.172C999.811 174.275 997.389 177.1 994.358 179.93C976.334 197.896 959.957 217.126 939.973 233.787C938.053 235.945 937.353 236.542 935.055 238.306C924.603 248.255 913.696 259.534 900.885 267.108C896.182 271.28 884.879 277.984 878.885 280.575L878.283 279.418C882.068 276.509 898.193 268.81 898.269 265.392C888.558 260.305 885.301 273.256 875.207 275.475L874.435 275.301L874.437 274.429C878.971 270.036 882.731 266.033 886.856 261.289C890.179 257.468 896.873 246.956 901.439 245.929L900.289 245.414C899.247 244.048 899.498 244.835 899.293 243.126C901.926 240.461 902.439 240.051 903.627 236.539C904.097 236.413 904.564 236.277 905.028 236.131C910.65 234.312 908.817 231.561 912.499 227.834C914.183 228.597 913.829 228.633 915.571 228.839L915.514 227.247C924.83 221.616 925.716 213.663 932.795 211.728C931.252 210.103 931.778 211.031 931.221 208.804C940.325 207.253 939.953 200.836 943.816 194.422L945.992 194.947L947.367 194.95L947.703 194.245C950.179 194.762 951.18 196.328 953.287 198.257C956.363 197.537 959.044 196.735 962.057 195.837Z"/><defs><linearGradient id="gradient_2" gradientUnits="userSpaceOnUse" x1="945.94629" y1="209.59125" x2="938.66675" y2="199.67229"><stop offset="0" stop-color="#CB562C"/><stop offset="1" stop-color="#E77037"/></linearGradient></defs><path fill="url(#gradient_2)" transform="matrix(0.387597 0 0 0.38835 -324.419 0)" d="M945.992 194.947L947.367 194.95L947.703 194.245C950.179 194.762 951.18 196.328 953.287 198.257C954.78 200.597 956.204 202.895 957.834 205.144C955.487 206.848 941.373 215.958 940.98 216.975L942.308 219.419C941.739 220.986 942.194 220.361 941.028 221.352C940.019 217.236 936.907 213.061 932.795 211.728C931.252 210.103 931.778 211.031 931.221 208.804C940.325 207.253 939.953 200.836 943.816 194.422L945.992 194.947Z"/><path fill="#B3754E" transform="matrix(0.387597 0 0 0.38835 -324.419 0)" d="M985.794 181.91C988.943 180.902 991.039 180.01 994.358 179.93C976.334 197.896 959.957 217.126 939.973 233.787C941.135 225.706 956.748 212.303 963.048 206.243C971.002 198.487 978.592 190.368 985.794 181.91Z"/><defs><linearGradient id="gradient_3" gradientUnits="userSpaceOnUse" x1="933.73468" y1="224.63777" x2="926.86401" y2="218.23196"><stop offset="0" stop-color="#C44F2A"/><stop offset="1" stop-color="#E06834"/></linearGradient></defs><path fill="url(#gradient_3)" transform="matrix(0.387597 0 0 0.38835 -324.419 0)" d="M932.795 211.728C936.907 213.061 940.019 217.236 941.028 221.352C936.88 224.56 932.24 228.239 927.923 231.254C927.065 231.853 924.829 232.276 922.963 233.357L920.307 231.96C919.221 230.936 917.736 229.789 916.558 228.82L915.571 228.839L915.514 227.247C924.83 221.616 925.716 213.663 932.795 211.728Z"/><path fill="#D67245" transform="matrix(0.387597 0 0 0.38835 -324.419 0)" d="M916.558 228.82L921.736 227.894L922.018 228.719C921.437 229.735 920.69 230.887 920.307 231.96C919.221 230.936 917.736 229.789 916.558 228.82Z"/><defs><linearGradient id="gradient_4" gradientUnits="userSpaceOnUse" x1="913.34326" y1="242.25522" x2="907.77838" y2="232.64143"><stop offset="0" stop-color="#CB532C"/><stop offset="1" stop-color="#E87538"/></linearGradient></defs><path fill="url(#gradient_4)" transform="matrix(0.387597 0 0 0.38835 -324.419 0)" d="M903.627 236.539C904.097 236.413 904.564 236.277 905.028 236.131C910.65 234.312 908.817 231.561 912.499 227.834C914.183 228.597 913.829 228.633 915.571 228.839L916.558 228.82C917.736 229.789 919.221 230.936 920.307 231.96L922.963 233.357L926.002 236.182C923.565 237.646 921.152 238.975 919.899 241.677C913.209 243.157 910.563 245.159 906.445 250.954C904.664 248.698 903.805 246.825 901.439 245.929L900.289 245.414C899.247 244.048 899.498 244.835 899.293 243.126C901.926 240.461 902.439 240.051 903.627 236.539Z"/><path fill="#D67245" transform="matrix(0.387597 0 0 0.38835 -324.419 0)" d="M901.439 245.929C903.805 246.825 904.664 248.698 906.445 250.954C904.679 256.07 895.107 256.227 892.378 259.381L893.445 261.427C892.29 263.02 879.416 270.348 875.207 275.475L874.435 275.301L874.437 274.429C878.971 270.036 882.731 266.033 886.856 261.289C890.179 257.468 896.873 246.956 901.439 245.929Z"/><path fill="#D18C51" transform="matrix(0.387597 0 0 0.38835 -324.419 0)" d="M903.997 219.529C902.421 218.614 901.222 217.621 899.77 216.524L899.678 215.271C905.683 209.908 906.417 206.069 911.404 201.121C914.524 200.033 913.563 200.38 917.355 201.381C922.34 203.682 925.236 204.75 929.062 208.829L930.345 210.186C930.633 209.392 930.39 209.849 931.221 208.804C931.778 211.031 931.252 210.103 932.795 211.728C925.716 213.663 924.83 221.616 915.514 227.247L915.571 228.839C913.829 228.633 914.183 228.597 912.499 227.834C910.526 223.62 905.339 220.969 900.809 221.933L899.105 220.714L898.436 219.422L898.863 218.798C900.914 219.497 901.932 220.105 903.997 219.529Z"/><path fill="#E68E57" transform="matrix(0.387597 0 0 0.38835 -324.419 0)" d="M929.062 208.829L930.345 210.186C930.633 209.392 930.39 209.849 931.221 208.804C931.778 211.031 931.252 210.103 932.795 211.728C925.716 213.663 924.83 221.616 915.514 227.247L915.571 228.839C913.829 228.633 914.183 228.597 912.499 227.834C910.526 223.62 905.339 220.969 900.809 221.933L899.105 220.714L898.436 219.422L898.863 218.798C900.914 219.497 901.932 220.105 903.997 219.529C907.641 220.895 907.753 223.275 913.464 222.523C914.345 221.074 913.908 221.75 914.773 220.485C917.533 221.109 914.403 221.989 916.118 224.455C917.319 223.681 916.775 224.089 917.483 222.412C920.064 221.285 920.503 221.216 922.518 219.351C921.154 219.084 919.795 218.794 918.44 218.479L918.166 217.554C921.763 211.472 924.285 212.465 929.062 208.829Z"/><path fill="#D18C51" transform="matrix(0.387597 0 0 0.38835 -324.419 0)" d="M899.105 220.714L900.809 221.933C905.339 220.969 910.526 223.62 912.499 227.834C908.817 231.561 910.65 234.312 905.028 236.131C904.564 236.277 904.097 236.413 903.627 236.539C900.119 237.335 900.793 239.704 896.797 240.816C892.546 237.552 890.661 237.483 885.468 232.839C888.471 229.856 889.758 226.602 893.994 224.307C895.415 223.537 897.754 221.736 899.105 220.714Z"/><path fill="#E68E57" transform="matrix(0.387597 0 0 0.38835 -324.419 0)" d="M877.296 260.999C874.788 258.024 874.833 253.36 877.637 250.744C879.491 250.547 880.346 251.293 882.041 252.21L882.759 252.604C885.164 247.78 880.088 239.891 884.746 236.666C889.273 236.686 893.061 239.363 896.627 241.914L897.568 243.825C895.79 245.297 890.317 248.137 889.551 249.039C884.023 255.548 887.51 258.433 877.296 260.999Z"/><path fill="#D67245" transform="matrix(0.387597 0 0 0.38835 -324.419 0)" d="M896.797 240.816C900.793 239.704 900.119 237.335 903.627 236.539C902.439 240.051 901.926 240.461 899.293 243.126C899.498 244.835 899.247 244.048 900.289 245.414C889.555 248.528 892.09 260.171 877.219 262.852C877.047 261.488 876.976 262.102 877.296 260.999C887.51 258.433 884.023 255.548 889.551 249.039C890.317 248.137 895.79 245.297 897.568 243.825L896.627 241.914L896.797 240.816Z"/><defs><linearGradient id="gradient_5" gradientUnits="userSpaceOnUse" x1="1003.2313" y1="102.52304" x2="1063.067" y2="35.594643"><stop offset="0" stop-color="#3E8332"/><stop offset="1" stop-color="#82B83C"/></linearGradient></defs><path fill="url(#gradient_5)" transform="matrix(0.387597 0 0 0.38835 -324.419 0)" d="M985.09 63.938C983.659 59.53 979.215 52.7807 980.158 48.6606C981.642 42.1737 989.974 37.0214 996.501 39.2693C1004.5 42.0225 1000.95 51.3614 1003.19 56.1226L1005.32 56.0809C1007.93 55.9062 1008.24 56.0261 1010.85 56.5898L1013.83 58.1073C1016.35 57.1313 1025.56 34.4453 1032.62 50.2084C1035 48.7376 1040.37 45.0162 1042.71 44.7463L1043.79 46.4948C1048.89 45.0226 1047.56 41.5403 1051.6 41.6407C1053.9 43.5013 1054.05 45.8246 1054.59 48.704C1056.99 47.2471 1064.48 42.4059 1066.72 41.9027L1067.28 42.6078L1066.35 45.6225C1069.67 47.7211 1080.09 37.9794 1079.9 57.579C1079.6 58.4296 1078.72 61.1437 1078.39 61.8031C1076.21 66.1101 1074.47 68.1278 1069.63 69.6678C1068.01 70.1719 1066.37 70.6273 1064.72 71.0335L1062.15 72.1916C1067.29 73.5409 1076.46 76.1636 1075.5 82.7688C1073.63 85.0421 1072.12 85.8241 1069.12 86.4013L1067.8 89.3052C1071.8 88.9868 1078.52 87.9336 1079.22 93.1374C1078.08 95.8413 1077.45 96.9727 1075.94 99.5154C1077.47 102.844 1078.14 98.5059 1078.28 102.532C1074.69 105.649 1070.09 104.997 1068.23 107.387C1069.5 110.144 1069.39 108.755 1068.54 111.702C1066.94 113.248 1065.99 114.013 1064.22 115.371C1059.96 120.11 1056.96 119.719 1051.68 122.109C1048.05 122.714 1045.15 120.993 1042.55 121.269C1031.48 122.444 1023.81 119.853 1013.19 118.045C1012 119.639 998.224 132.944 996.747 133.585L995.438 131.742C998.873 126.114 1002.09 125.843 1006.23 116.836C1001.49 121.595 998.144 124.798 992.979 129.157L989.391 125.988L984.922 122.813L988.488 117.587C997.28 99.3536 982.45 99.4675 979.13 84.6351C978.802 83.1694 979.593 82.759 980.377 82.0098C983.511 81.842 984.443 83.1 987.384 84.5382C987.527 78.507 972.039 71.6886 974.408 63.5871L976.191 64.5026L976.861 64.0657C976.105 61.7485 975.612 60.7358 975.647 58.2646L976.722 57.8469C979.609 58.9763 982.614 61.8677 985.09 63.938ZM994.888 107.665C993.981 111.589 992.727 115.008 991.41 118.805C993.978 116.362 1001.73 106.64 1001.49 103.167C998.308 104.87 997.58 105.293 994.888 107.665ZM1020.43 92.576C1027 93.9826 1028.11 91.3305 1032.08 86.7123C1028.53 86.779 1027 87.6634 1023.79 89.3582C1023.04 90.0582 1020.97 91.877 1020.43 92.576ZM1006.06 110.039C1003.84 110.262 1001.98 113.701 1000.85 115.604C1003.48 114.159 1005.42 113.159 1006.06 110.039Z"/><path fill="#B9C7B2" fill-opacity="0.078431375" transform="matrix(0.387597 0 0 0.38835 -324.419 0)" d="M1000.85 115.604C1001.98 113.701 1003.84 110.262 1006.06 110.039C1005.42 113.159 1003.48 114.159 1000.85 115.604Z"/><path fill="#335126" transform="matrix(0.387597 0 0 0.38835 -324.419 0)" d="M1043.92 82.4391C1049.28 81.0577 1053.46 80.6284 1057.32 76.8017C1057.87 74.2149 1057.22 73.8297 1056.29 70.8768C1059.96 70.4605 1058.93 71.8358 1062.15 72.1916C1067.29 73.5409 1076.46 76.1636 1075.5 82.7688C1073.63 85.0421 1072.12 85.8241 1069.12 86.4013L1067.8 89.3052C1071.8 88.9868 1078.52 87.9336 1079.22 93.1374C1078.08 95.8413 1077.45 96.9727 1075.94 99.5154C1077.47 102.844 1078.14 98.5059 1078.28 102.532C1074.69 105.649 1070.09 104.997 1068.23 107.387C1069.5 110.144 1069.39 108.755 1068.54 111.702C1066.94 113.248 1065.99 114.013 1064.22 115.371C1059.96 120.11 1056.96 119.719 1051.68 122.109C1048.05 122.714 1045.15 120.993 1042.55 121.269C1031.48 122.444 1023.81 119.853 1013.19 118.045C1012 119.639 998.224 132.944 996.747 133.585L995.438 131.742C998.873 126.114 1002.09 125.843 1006.23 116.836C1001.49 121.595 998.144 124.798 992.979 129.157L989.391 125.988C993.742 122.758 994.415 119.381 1000.37 117.102L1000.85 115.604C1003.48 114.159 1005.42 113.159 1006.06 110.039C1007.79 106.691 1012.16 99.313 1015.8 98.6364C1017.2 96.6328 1018.92 94.5287 1020.43 92.576C1027 93.9826 1028.11 91.3305 1032.08 86.7123C1032.65 86.7027 1042.08 83.0374 1043.92 82.4391Z"/><path fill="#6F993B" transform="matrix(0.387597 0 0 0.38835 -324.419 0)" d="M1040.7 99.2694C1046.39 99.3246 1060.22 94.3059 1065 90.6218C1066.41 89.5334 1066.04 89.7245 1067.8 89.3052C1071.8 88.9868 1078.52 87.9336 1079.22 93.1374C1078.08 95.8413 1077.45 96.9727 1075.94 99.5154C1077.47 102.844 1078.14 98.5059 1078.28 102.532C1074.69 105.649 1070.09 104.997 1068.23 107.387C1069.5 110.144 1069.39 108.755 1068.54 111.702C1066.94 113.248 1065.99 114.013 1064.22 115.371C1059.96 120.11 1056.96 119.719 1051.68 122.109C1048.05 122.714 1045.15 120.993 1042.55 121.269C1031.48 122.444 1023.81 119.853 1013.19 118.045C1014.74 114.696 1024.56 110.564 1028.52 108.435L1028.14 107.535L1024.32 106.659C1026.41 104.156 1037.38 99.7825 1040.7 99.2694Z"/><path fill="#53712E" transform="matrix(0.387597 0 0 0.38835 -324.419 0)" d="M1051.68 122.109C1052.34 115.235 1058.39 115.639 1064.22 115.371C1059.96 120.11 1056.96 119.719 1051.68 122.109Z"/><path fill="#5C7F32" transform="matrix(0.387597 0 0 0.38835 -324.419 0)" d="M1043.6 100.406C1045.67 100.054 1047.31 100.146 1049.39 100.162L1050.03 100.851C1046.22 102.374 1046.68 102.292 1043.6 100.406Z"/><path fill="#5C7F32" transform="matrix(0.387597 0 0 0.38835 -324.419 0)" d="M1040.7 99.2694C1041.6 98.7013 1041.6 98.7734 1042.22 98.1754C1051.33 89.412 1057.08 87.5024 1069.12 86.4013L1067.8 89.3052C1066.04 89.7245 1066.41 89.5334 1065 90.6218C1060.22 94.3059 1046.39 99.3246 1040.7 99.2694Z"/><path fill="#6F993B" transform="matrix(0.387597 0 0 0.38835 -324.419 0)" d="M1006.06 110.039C1007.79 106.691 1012.16 99.313 1015.8 98.6364C1020.92 107.587 1012.7 108.545 1006.06 110.039Z"/><defs><linearGradient id="gradient_6" gradientUnits="userSpaceOnUse" x1="1008.7825" y1="90.415047" x2="969.91364" y2="64.105057"><stop offset="0" stop-color="#314D2A"/><stop offset="1" stop-color="#549A3A"/></linearGradient></defs><path fill="url(#gradient_6)" transform="matrix(0.387597 0 0 0.38835 -324.419 0)" d="M985.09 63.938C983.659 59.53 979.215 52.7807 980.158 48.6606C981.642 42.1737 989.974 37.0214 996.501 39.2693C1004.5 42.0225 1000.95 51.3614 1003.19 56.1226L1005.32 56.0809C1007.93 55.9062 1008.24 56.0261 1010.85 56.5898C1006.84 63.0882 1006.05 68.3945 1006.03 76.0304L1005.81 77.8505C1004.65 78.014 1004.46 78.0176 1003.4 78.5906C1003.31 83.7475 1003.18 88.5882 1002.82 93.7324C1002.6 96.9669 1001.12 100.51 1001.49 103.167C998.308 104.87 997.58 105.293 994.888 107.665C993.981 111.589 992.727 115.008 991.41 118.805C991.177 119.536 991.388 119.128 990.534 119.867L988.488 117.587C997.28 99.3536 982.45 99.4675 979.13 84.6351C978.802 83.1694 979.593 82.759 980.377 82.0098C983.511 81.842 984.443 83.1 987.384 84.5382C987.527 78.507 972.039 71.6886 974.408 63.5871L976.191 64.5026L976.861 64.0657C976.105 61.7485 975.612 60.7358 975.647 58.2646L976.722 57.8469C979.609 58.9763 982.614 61.8677 985.09 63.938Z"/><path fill="#335126" transform="matrix(0.387597 0 0 0.38835 -324.419 0)" d="M994.888 107.665C994.654 103.891 1001.97 100.815 1001.14 95.9474C996.544 93.9823 1000.26 96.3692 996.696 95.6697C996.338 86.0832 993.204 77.7135 993.869 67.8399C994.129 63.9749 993.38 57.5192 993.093 53.527C995.122 57.5781 994.55 60.6929 997.626 62.831L997.818 61.9019C997.138 60.3241 997.244 60.2916 997.187 58.5425C999.806 56.9527 998.326 59.712 1003.01 59.4201C1004.5 57.9278 1004.41 57.9986 1005.32 56.0809C1007.93 55.9062 1008.24 56.0261 1010.85 56.5898C1006.84 63.0882 1006.05 68.3945 1006.03 76.0304L1005.81 77.8505C1004.65 78.014 1004.46 78.0176 1003.4 78.5906C1003.31 83.7475 1003.18 88.5882 1002.82 93.7324C1002.6 96.9669 1001.12 100.51 1001.49 103.167C998.308 104.87 997.58 105.293 994.888 107.665Z"/><path fill="#5C7F32" transform="matrix(0.387597 0 0 0.38835 -324.419 0)" d="M1006.03 76.0304C1006.23 75.5479 1008.07 70.9417 1008.05 70.9517C1013.84 68.3142 1020.78 65.0245 1026.59 62.5336C1029.17 61.4243 1033.4 60.2684 1035.69 61.3782C1036.64 61.8384 1036.4 62.0017 1036.77 63.1098C1032.81 70.8483 1004.12 95.0145 1004.25 103.661C1008.73 99.9739 1025.7 77.2988 1029.6 77.0489C1026.04 82.5722 1023.8 82.6428 1023.79 89.3582C1023.04 90.0582 1020.97 91.877 1020.43 92.576C1018.92 94.5287 1017.2 96.6328 1015.8 98.6364C1012.16 99.313 1007.79 106.691 1006.06 110.039C1003.84 110.262 1001.98 113.701 1000.85 115.604L1000.37 117.102C994.415 119.381 993.742 122.758 989.391 125.988L984.922 122.813L988.488 117.587L990.534 119.867C991.388 119.128 991.177 119.536 991.41 118.805C993.978 116.362 1001.73 106.64 1001.49 103.167C1001.12 100.51 1002.6 96.9669 1002.82 93.7324C1003.18 88.5882 1003.31 83.7475 1003.4 78.5906C1004.46 78.0176 1004.65 78.014 1005.81 77.8505L1006.03 76.0304Z"/><path fill="#5C7F32" transform="matrix(0.387597 0 0 0.38835 -324.419 0)" d="M1043.92 82.4391C1050.69 72.5529 1067.07 57.5842 1079.9 57.579C1079.6 58.4296 1078.72 61.1437 1078.39 61.8031C1076.21 66.1101 1074.47 68.1278 1069.63 69.6678C1068.01 70.1719 1066.37 70.6273 1064.72 71.0335L1062.15 72.1916C1058.93 71.8358 1059.96 70.4605 1056.29 70.8768C1057.22 73.8297 1057.87 74.2149 1057.32 76.8017C1053.46 80.6284 1049.28 81.0577 1043.92 82.4391Z"/><path fill="#53712E" transform="matrix(0.387597 0 0 0.38835 -324.419 0)" d="M1064.72 71.0335L1064.25 70.4352C1066.76 66.5962 1073.74 62.339 1078.39 61.8031C1076.21 66.1101 1074.47 68.1278 1069.63 69.6678C1068.01 70.1719 1066.37 70.6273 1064.72 71.0335Z"/></g></svg>