<?xml version="1.0" encoding="utf-8" ?><svg xmlns="http://www.w3.org/2000/svg" xmlns:xlink="http://www.w3.org/1999/xlink" width="100" height="113" viewBox="0 0 100 113"><clipPath id="cl_d"><path d="M0.148834 -3.43323e-05L100 0.131741L99.8512 113L-1.52588e-05 112.868L0.148834 -3.43323e-05Z"/></clipPath><g clip-path="url(#cl_d)"><path fill="#EFDBB7" transform="matrix(0.393115 0.000518803 -0.000518599 0.393269 -130.342 -17.8694)" d="M457.105 66.4778C462.924 69.2389 477.047 76.0646 480.847 80.8406C481.17 82.6908 481.082 82.7162 480.82 84.6073C483.972 89.7583 498.575 92.6309 502.54 98.0832C502.84 98.4951 502.131 101.287 501.992 101.798C505.548 107.034 519.876 109.359 524.242 114.675C524.885 115.459 524.614 118.532 524.559 119.785C526.67 123.955 540.751 129.241 544.628 132.832C548.111 136.058 542.728 136.958 546.954 139.921C553.494 144.507 562.193 147.015 568.643 151.498C566.766 154.036 565.095 156.158 563.549 158.926C564.452 163.14 558.545 167.449 555.428 170.568C551.294 171.42 548.95 171.598 544.764 171.916C544.732 175.334 544.852 184.289 544.377 187.254L549.886 188.079C551.224 195.692 550.687 234.667 550.013 243.381C547.481 243.868 546.802 243.854 544.191 243.849C545.141 248.369 544.98 261.731 544.599 266.709L543.302 269.372C543.443 272.814 543.877 282.936 543.337 286.182L543.748 289.706L543.98 293.183L543.887 306.334C525.547 307.478 505.501 306.329 486.997 306.647C480.655 306.756 469.763 306.27 463.586 306.924L460.162 306.819L459.296 308.613C453.46 310.589 383.51 309.734 372.792 309.281C371.033 306.987 370.557 305.842 367.969 304.962L367.549 300.439L367.477 297.286L367.594 280.774C367.646 279.146 367.674 277.517 367.678 275.888C367.653 272.471 367.852 271.71 365.943 269.821L365.987 269.466L367.035 268.591C368.2 265.041 367.646 248.233 367.571 243.458C364.914 243.538 364.726 243.608 362.187 243.062C360.372 239.194 361.996 198.751 361.94 191.234C361.92 188.604 362.522 188.166 364.069 186.817C365.249 186.338 365.611 186.056 366.706 185.397C367.887 182.172 367.786 176.617 368.089 172.73L367.621 170.697C363.696 170.615 361.739 170.717 358.249 168.908C355.536 165.299 353.475 164.637 351.249 159.959C349.922 157.557 347.232 153.771 345.638 151.367C352.378 146.141 360.691 143.776 367.474 138.559C368.293 137.929 368.947 135.112 369.332 133.953C369.932 132.151 372.676 131.132 374.49 130.269L374.541 124.05L374.476 114.737L374.476 105.239C374.391 96.6786 374.252 86.2305 374.796 77.8067C374.584 76.1769 374.786 74.146 374.863 72.4537L375.092 70.9386C379.511 68.878 413.414 69.4901 418.484 70.3639L419.173 71.2559C421.228 76.4781 420.662 85.8085 420.586 91.5217L424.826 89.5091C434.935 83.79 429.856 85.4872 434.794 79.3869C437.557 75.9735 452.595 68.5378 457.105 66.4778Z"/><path fill="#9F8569" transform="matrix(0.393115 0.000518803 -0.000518599 0.393269 -130.342 -17.8694)" d="M544.064 171.181L544.764 171.916C544.732 175.334 544.852 184.289 544.377 187.254L549.886 188.079C551.224 195.692 550.687 234.667 550.013 243.381C547.481 243.868 546.802 243.854 544.191 243.849C545.141 248.369 544.98 261.731 544.599 266.709L543.302 269.372C543.443 272.814 543.877 282.936 543.337 286.182L543.748 289.706L543.98 293.183L543.887 306.334C525.547 307.478 505.501 306.329 486.997 306.647C480.655 306.756 469.763 306.27 463.586 306.924C460.866 303.818 460.865 299.824 457.085 298.384C454.442 297.521 455.628 298.231 453.675 295.783C450.608 289.484 451.54 280.438 451.616 273.154C451.682 268.532 450.989 262.633 451.795 258.397C451.349 251.756 449.696 236.519 453.271 231.43C457.684 231.084 460.383 230.998 464.805 231.115L464.904 230.159C465.779 225.834 465.493 198.428 465.191 192.972C465.188 191.045 464.906 188.884 464.714 186.948C478.913 186.721 514.94 188.678 526.932 186.111C528.462 187.597 528.436 188.32 528.921 190.389L529.53 191.198L531.563 191.259C533.896 194.564 532.719 212.175 532.723 217.484L543.167 217.68C543.193 209.739 542.321 176.701 544.064 171.181Z"/><path fill="#E0CFB0" transform="matrix(0.393115 0.000518803 -0.000518599 0.393269 -130.342 -17.8694)" d="M451.616 273.154C457.273 271.816 474.899 272.492 481.587 272.496C501.903 272.508 522.35 273.12 542.692 272.861C542.619 276.225 542.3 282.718 542.762 285.802L543.337 286.182L543.748 289.706L543.98 293.183L543.887 306.334C525.547 307.478 505.501 306.329 486.997 306.647C480.655 306.756 469.763 306.27 463.586 306.924C460.866 303.818 460.865 299.824 457.085 298.384C454.442 297.521 455.628 298.231 453.675 295.783C450.608 289.484 451.54 280.438 451.616 273.154Z"/><path fill="#E0CFB0" transform="matrix(0.393115 0.000518803 -0.000518599 0.393269 -130.342 -17.8694)" d="M544.064 171.181L544.764 171.916C544.732 175.334 544.852 184.289 544.377 187.254L549.886 188.079C551.224 195.692 550.687 234.667 550.013 243.381C547.481 243.868 546.802 243.854 544.191 243.849C545.141 248.369 544.98 261.731 544.599 266.709L543.302 269.372C543.443 272.814 543.877 282.936 543.337 286.182L542.762 285.802C542.3 282.718 542.619 276.225 542.692 272.861C522.35 273.12 501.903 272.508 481.587 272.496C474.899 272.492 457.273 271.816 451.616 273.154C451.682 268.532 450.989 262.633 451.795 258.397C451.349 251.756 449.696 236.519 453.271 231.43C457.684 231.084 460.383 230.998 464.805 231.115C464.927 236.888 465.18 242.13 464.328 247.881C465.493 249.478 465.924 249.931 468.25 249.854L469.64 251.995C474.139 253.828 524.037 253.741 530.918 252.566C532 251.177 531.734 249.681 531.929 247.556L532.067 244.405L532.245 235.696C532.285 229.623 532.445 223.551 532.723 217.484L543.167 217.68C543.193 209.739 542.321 176.701 544.064 171.181Z"/><path fill="#615D5A" transform="matrix(0.393115 0.000518803 -0.000518599 0.393269 -130.342 -17.8694)" d="M544.377 187.254L549.886 188.079C551.224 195.692 550.687 234.667 550.013 243.381C547.481 243.868 546.802 243.854 544.191 243.849C543.193 239.235 543.591 192.421 544.377 187.254Z"/><path fill="#EFDBB7" transform="matrix(0.393115 0.000518803 -0.000518599 0.393269 -130.342 -17.8694)" d="M451.795 258.397L453.326 258.256C451.746 260.248 451.817 267.656 451.891 270.256C474.142 270.271 496.393 270.154 518.643 269.906C522.729 269.876 539.19 270.328 542.158 269.626L542.85 268.144L543.302 269.372C543.443 272.814 543.877 282.936 543.337 286.182L542.762 285.802C542.3 282.718 542.619 276.225 542.692 272.861C522.35 273.12 501.903 272.508 481.587 272.496C474.899 272.492 457.273 271.816 451.616 273.154C451.682 268.532 450.989 262.633 451.795 258.397Z"/><path fill="#BBB09D" transform="matrix(0.393115 0.000518803 -0.000518599 0.393269 -130.342 -17.8694)" d="M544.064 171.181L544.764 171.916C544.732 175.334 544.852 184.289 544.377 187.254C543.591 192.421 543.193 239.235 544.191 243.849C545.141 248.369 544.98 261.731 544.599 266.709L543.302 269.372L542.85 268.144C542.509 265.231 542.411 261.573 542.247 258.589C520.513 258.828 498.776 258.828 477.042 258.591C480.478 258.638 483.32 258.404 486.72 258.215C505.108 257.194 523.855 257.908 542.231 257.781C542.821 243.736 543.175 232.624 543.145 218.541L533.26 218.693L533.088 231.42L541.242 231.897C537.246 232.444 534.308 232.006 532.245 235.696C532.285 229.623 532.445 223.551 532.723 217.484L543.167 217.68C543.193 209.739 542.321 176.701 544.064 171.181Z"/><path fill="#EFDBB7" transform="matrix(0.393115 0.000518803 -0.000518599 0.393269 -130.342 -17.8694)" d="M532.067 244.405C535.381 244.734 537.618 244.975 540.914 245.634L539.878 245.742C537.556 246 533.759 246.319 531.929 247.556L532.067 244.405Z"/><path fill="#896C5A" transform="matrix(0.393115 0.000518803 -0.000518599 0.393269 -130.342 -17.8694)" d="M526.173 246.978C525.857 233.891 525.326 200.706 526.347 188.276L527.024 188.136L528.921 190.389L529.53 191.198L531.563 191.259C533.896 194.564 532.719 212.175 532.723 217.484C532.445 223.551 532.285 229.623 532.245 235.696L532.067 244.405L531.929 247.556C531.734 249.681 532 251.177 530.918 252.566C524.037 253.741 474.139 253.828 469.64 251.995L468.25 249.854C465.924 249.931 465.493 249.478 464.328 247.881C468.453 246.588 475.542 247.38 480.015 247.167C492.501 246.575 514.486 248.566 526.173 246.978Z"/><path fill="#615D5A" transform="matrix(0.393115 0.000518803 -0.000518599 0.393269 -130.342 -17.8694)" d="M527.097 245.361L528.668 245.784C527.966 247.135 527.227 249.561 525.463 249.693C507.095 251.073 486.402 248.379 468.25 249.854C465.924 249.931 465.493 249.478 464.328 247.881C468.453 246.588 475.542 247.38 480.015 247.167C492.501 246.575 514.486 248.566 526.173 246.978L527.097 245.361Z"/><path fill="#615D5A" transform="matrix(0.393115 0.000518803 -0.000518599 0.393269 -130.342 -17.8694)" d="M527.097 245.361C526.719 242.262 526.354 223.63 527.44 222.099L527.507 221.061C528.872 228.579 527.965 238.069 528.668 245.784L527.097 245.361Z"/><defs><linearGradient id="gradient_0" gradientUnits="userSpaceOnUse" x1="500.51859" y1="241.60489" x2="492.88837" y2="192.6235"><stop offset="0" stop-color="#618DBC"/><stop offset="1" stop-color="#96C4E2"/></linearGradient></defs><path fill="url(#gradient_0)" transform="matrix(0.393115 0.000518803 -0.000518599 0.393269 -130.342 -17.8694)" d="M471.089 192.61C485.256 192.639 499.436 192.86 513.585 192.424C516.041 192.348 517.909 192.202 519.508 193.735C517.55 194.542 508.776 194.111 505.373 194.372L504.704 194.429C509.979 194.496 515.423 194.64 520.683 194.609C520.282 210.164 520.089 225.723 520.104 241.283C512.823 241.384 478.614 242.301 473.356 241.086C473.164 240.978 472.964 240.883 472.78 240.762C468.896 238.209 472.708 199.94 471.089 192.61Z"/><path fill="#3D3D3E" transform="matrix(0.393115 0.000518803 -0.000518599 0.393269 -130.342 -17.8694)" d="M471.089 192.61C485.256 192.639 499.436 192.86 513.585 192.424C516.041 192.348 517.909 192.202 519.508 193.735C517.55 194.542 508.776 194.111 505.373 194.372L504.704 194.429L473.509 194.379C473.497 201.32 474.56 237.037 473.356 241.086C473.164 240.978 472.964 240.883 472.78 240.762C468.896 238.209 472.708 199.94 471.089 192.61Z"/><path fill="#9F8569" transform="matrix(0.393115 0.000518803 -0.000518599 0.393269 -130.342 -17.8694)" d="M386.76 187.03C393.303 187.029 446.236 186.637 447.513 187.254L447.962 188.495L448.115 188.93C453.009 189.58 449.305 189.867 451.403 190.606C453.925 191.495 459.913 192.2 462.524 192.209C459.088 193.316 456.207 193.027 452.581 192.998C452.504 197.554 451.667 202.122 454.306 205.538C456.985 205.795 460.758 205.727 463.536 205.765C463.828 200.145 463.419 191.767 464.714 186.948C464.906 188.884 465.188 191.045 465.191 192.972C465.493 198.428 465.779 225.834 464.904 230.159L464.805 231.115C460.383 230.998 457.684 231.084 453.271 231.43C449.696 236.519 451.349 251.756 451.795 258.397C450.989 262.633 451.682 268.532 451.616 273.154C451.54 280.438 450.608 289.484 453.675 295.783C455.628 298.231 454.442 297.521 457.085 298.384C460.865 299.824 460.866 303.818 463.586 306.924L460.162 306.819L459.296 308.613C453.46 310.589 383.51 309.734 372.792 309.281C371.033 306.987 370.557 305.842 367.969 304.962L367.549 300.439L367.477 297.286L367.594 280.774C367.646 279.146 367.674 277.517 367.678 275.888C367.653 272.471 367.852 271.71 365.943 269.821L365.987 269.466L367.035 268.591C368.2 265.041 367.646 248.233 367.571 243.458C367.02 235.406 367.268 225.162 367.284 216.924L369.59 218.024C372.864 217.382 382.65 217.418 386.442 217.342C386.408 209.15 385.926 194.58 386.76 187.03Z"/><defs><linearGradient id="gradient_1" gradientUnits="userSpaceOnUse" x1="428.43463" y1="322.52557" x2="383.67078" y2="259.95218"><stop offset="0" stop-color="#BDB09F"/><stop offset="1" stop-color="#EFDFBB"/></linearGradient></defs><path fill="url(#gradient_1)" transform="matrix(0.393115 0.000518803 -0.000518599 0.393269 -130.342 -17.8694)" d="M367.594 280.774C368.465 278.735 367.401 273.959 368.355 272.894C372.057 268.763 380.803 271.147 386.294 269.25C386.286 271.713 385.888 280.786 387.051 282.231L387.293 293.055C384.664 293.117 381.942 292.822 379.83 294.222C378.624 296.409 378.72 296.454 378.352 298.817C378.603 298.326 379.845 295.888 380.519 295.886C404.746 295.844 429.502 296.839 453.675 295.783C455.628 298.231 454.442 297.521 457.085 298.384C460.865 299.824 460.866 303.818 463.586 306.924L460.162 306.819L459.296 308.613C453.46 310.589 383.51 309.734 372.792 309.281C371.033 306.987 370.557 305.842 367.969 304.962L367.549 300.439L367.477 297.286L367.594 280.774Z"/><path fill="#707171" transform="matrix(0.393115 0.000518803 -0.000518599 0.393269 -130.342 -17.8694)" d="M372.792 309.281C372.72 306.837 372.562 306.133 373.367 303.772C375.975 303.003 388.997 303.7 392.607 303.598C414.494 302.981 438.248 305.268 459.776 302.724C460.823 304.038 460.332 304.546 460.162 306.819L459.296 308.613C453.46 310.589 383.51 309.734 372.792 309.281Z"/><path fill="#707171" transform="matrix(0.393115 0.000518803 -0.000518599 0.393269 -130.342 -17.8694)" d="M453.675 295.783C455.628 298.231 454.442 297.521 457.085 298.384L457.307 299.839C452.723 301.627 378.158 301.83 376.117 298.88L378.352 298.817C378.603 298.326 379.845 295.888 380.519 295.886C404.746 295.844 429.502 296.839 453.675 295.783Z"/><path fill="#EFDBB7" transform="matrix(0.393115 0.000518803 -0.000518599 0.393269 -130.342 -17.8694)" d="M386.442 217.342C386.408 209.15 385.926 194.58 386.76 187.03C387.729 194.663 387.23 211.695 387.205 220.118L387.051 282.231C385.888 280.786 386.286 271.713 386.294 269.25C380.803 271.147 372.057 268.763 368.355 272.894C367.401 273.959 368.465 278.735 367.594 280.774C367.646 279.146 367.674 277.517 367.678 275.888C367.653 272.471 367.852 271.71 365.943 269.821L365.987 269.466L367.035 268.591C368.2 265.041 367.646 248.233 367.571 243.458C367.02 235.406 367.268 225.162 367.284 216.924L369.59 218.024C372.864 217.382 382.65 217.418 386.442 217.342Z"/><path fill="#E0CFB0" transform="matrix(0.393115 0.000518803 -0.000518599 0.393269 -130.342 -17.8694)" d="M386.442 217.342C386.408 209.15 385.926 194.58 386.76 187.03C387.729 194.663 387.23 211.695 387.205 220.118L387.051 282.231C385.888 280.786 386.286 271.713 386.294 269.25L386.302 259.321C379.944 259.158 374.944 258.986 368.571 258.276C375.342 257.402 379.503 257.262 386.301 257.143L386.323 246.772C380.185 246.533 376.434 246.376 370.433 245.368C375.544 244.998 381.137 244.933 386.299 244.777L386.381 219.084C383.039 219.043 371.563 219.399 369.59 218.024C372.864 217.382 382.65 217.418 386.442 217.342Z"/><path fill="#BBB09D" transform="matrix(0.393115 0.000518803 -0.000518599 0.393269 -130.342 -17.8694)" d="M463.536 205.765C463.828 200.145 463.419 191.767 464.714 186.948C464.906 188.884 465.188 191.045 465.191 192.972C465.493 198.428 465.779 225.834 464.904 230.159L464.805 231.115C460.383 230.998 457.684 231.084 453.271 231.43C449.696 236.519 451.349 251.756 451.795 258.397C450.989 262.633 451.682 268.532 451.616 273.154C451.54 280.438 450.608 289.484 453.675 295.783C429.502 296.839 404.746 295.844 380.519 295.886C379.845 295.888 378.603 298.326 378.352 298.817C378.72 296.454 378.624 296.409 379.83 294.222C381.942 292.822 384.664 293.117 387.293 293.055C393.719 293.652 444.371 294.438 448.14 293.04C449.301 260.758 448.74 221.568 448.115 188.93C453.009 189.58 449.305 189.867 451.403 190.606C453.925 191.495 459.913 192.2 462.524 192.209C459.088 193.316 456.207 193.027 452.581 192.998C452.504 197.554 451.667 202.122 454.306 205.538C456.985 205.795 460.758 205.727 463.536 205.765Z"/><path fill="#E0CFB0" transform="matrix(0.393115 0.000518803 -0.000518599 0.393269 -130.342 -17.8694)" d="M463.536 205.765C463.828 200.145 463.419 191.767 464.714 186.948C464.906 188.884 465.188 191.045 465.191 192.972C464.398 199.418 464.663 210.994 464.62 217.842C460.397 217.802 455.846 217.846 451.656 217.694C451.536 214.095 451.12 210.095 452.02 206.694C453.303 205.809 452.832 206.007 454.306 205.538C456.985 205.795 460.758 205.727 463.536 205.765Z"/><path fill="#E0CFB0" transform="matrix(0.393115 0.000518803 -0.000518599 0.393269 -130.342 -17.8694)" d="M452.584 218.546L464.633 218.546C464.591 222.577 464.726 226.141 464.904 230.159L464.805 231.115C460.383 230.998 457.684 231.084 453.271 231.43C452.125 229.54 452.556 221.341 452.584 218.546Z"/><path fill="#615D5A" transform="matrix(0.393115 0.000518803 -0.000518599 0.393269 -130.342 -17.8694)" d="M448.14 293.04L445.719 292.465C445.12 289.998 445.652 282.697 445.582 279.619C445.032 255.223 446.298 230.846 445.813 206.436C445.699 200.713 445.044 193.322 445.494 187.793L446.251 187.336L447.962 188.495L448.115 188.93C448.74 221.568 449.301 260.758 448.14 293.04Z"/><defs><linearGradient id="gradient_2" gradientUnits="userSpaceOnUse" x1="418.83368" y1="292.58838" x2="412.62143" y2="194.92888"><stop offset="0" stop-color="#5A3425"/><stop offset="1" stop-color="#884A2F"/></linearGradient></defs><path fill="url(#gradient_2)" transform="matrix(0.393115 0.000518803 -0.000518599 0.393269 -130.342 -17.8694)" d="M391.684 194.66C392.37 193.398 391.886 193.989 393.268 193.005C397.472 192.594 435.676 192.411 439.377 193.277L439.793 194.744C440.67 226.059 440.039 261.293 440.027 292.858L392.211 292.83C391.836 270.778 391.728 248.723 391.887 226.669C391.901 217.986 392.382 202.958 391.684 194.66Z"/><path fill="#270909" transform="matrix(0.393115 0.000518803 -0.000518599 0.393269 -130.342 -17.8694)" d="M391.684 194.66C392.37 193.398 391.886 193.989 393.268 193.005C397.472 192.594 435.676 192.411 439.377 193.277L439.793 194.744C434.628 195.339 396.282 195.517 391.684 194.66Z"/><path fill="#86B8DB" transform="matrix(0.393115 0.000518803 -0.000518599 0.393269 -130.342 -17.8694)" d="M401.964 200.59L433.554 200.39C433.586 205.52 434.251 231.444 432.697 233.98L400.442 234.027C400.365 227.295 399.79 207.219 400.66 201.364L401.964 200.59Z"/><path fill="#E5A04A" transform="matrix(0.393115 0.000518803 -0.000518599 0.393269 -130.342 -17.8694)" d="M432.289 262.434C430.008 263.124 427.56 262.082 426.477 259.959C425.393 257.836 425.985 255.242 427.882 253.8C429.78 252.357 432.437 252.48 434.193 254.092C435.949 255.704 436.298 258.342 435.023 260.355C434.391 261.354 433.42 262.092 432.289 262.434Z"/><path fill="#512F17" transform="matrix(0.393115 0.000518803 -0.000518599 0.393269 -130.342 -17.8694)" d="M435.023 260.355C436.867 261.714 436.096 260.863 437.081 263.261C436.737 265.991 437.242 264.784 435.377 266.955C432.715 267.862 434.006 267.839 431.369 267.138C429.663 265.512 429.773 265.642 429.058 263.387C430.248 263.003 431.071 262.736 432.289 262.434C433.42 262.092 434.391 261.354 435.023 260.355Z"/><defs><linearGradient id="gradient_3" gradientUnits="userSpaceOnUse" x1="459.10818" y1="176.91867" x2="448.99405" y2="77.323639"><stop offset="0" stop-color="#9D3332"/><stop offset="1" stop-color="#D45C4C"/></linearGradient></defs><path fill="url(#gradient_3)" transform="matrix(0.393115 0.000518803 -0.000518599 0.393269 -130.342 -17.8694)" d="M457.105 66.4778C462.924 69.2389 477.047 76.0646 480.847 80.8406C481.17 82.6908 481.082 82.7162 480.82 84.6073C483.972 89.7583 498.575 92.6309 502.54 98.0832C502.84 98.4951 502.131 101.287 501.992 101.798C505.548 107.034 519.876 109.359 524.242 114.675C524.885 115.459 524.614 118.532 524.559 119.785C526.67 123.955 540.751 129.241 544.628 132.832C548.111 136.058 542.728 136.958 546.954 139.921C553.494 144.507 562.193 147.015 568.643 151.498C566.766 154.036 565.095 156.158 563.549 158.926C564.452 163.14 558.545 167.449 555.428 170.568C551.294 171.42 548.95 171.598 544.764 171.916L544.064 171.181L543.986 167.304L544.241 163.365C540.307 159.44 530.31 151.866 525.574 148.101C515.722 139.754 505.175 131.968 494.896 124.121C484.255 115.536 475.814 105.886 463.668 98.3539C452.23 101.577 440.91 114.653 431.64 122.275C426 126.912 419.908 131.805 414.406 136.564C412.744 137.879 411.181 139.101 409.591 140.513C404.408 143.968 399.497 147.428 394.912 151.677L393.158 152.891C390.132 155.398 370.943 172.122 368.724 172.87L368.089 172.73L367.621 170.697C363.696 170.615 361.739 170.717 358.249 168.908C355.536 165.299 353.475 164.637 351.249 159.959C349.922 157.557 347.232 153.771 345.638 151.367C352.378 146.141 360.691 143.776 367.474 138.559C368.293 137.929 368.947 135.112 369.332 133.953C369.932 132.151 372.676 131.132 374.49 130.269L374.541 124.05L374.476 114.737L374.476 105.239C374.391 96.6786 374.252 86.2305 374.796 77.8067C374.584 76.1769 374.786 74.146 374.863 72.4537L375.092 70.9386C379.511 68.878 413.414 69.4901 418.484 70.3639L419.173 71.2559C421.228 76.4781 420.662 85.8085 420.586 91.5217L424.826 89.5091C434.935 83.79 429.856 85.4872 434.794 79.3869C437.557 75.9735 452.595 68.5378 457.105 66.4778Z"/><path fill="#2D2D2D" transform="matrix(0.393115 0.000518803 -0.000518599 0.393269 -130.342 -17.8694)" d="M457.105 66.4778C462.924 69.2389 477.047 76.0646 480.847 80.8406C481.17 82.6908 481.082 82.7162 480.82 84.6073C483.972 89.7583 498.575 92.6309 502.54 98.0832C502.84 98.4951 502.131 101.287 501.992 101.798C505.548 107.034 519.876 109.359 524.242 114.675C524.885 115.459 524.614 118.532 524.559 119.785C526.67 123.955 540.751 129.241 544.628 132.832C548.111 136.058 542.728 136.958 546.954 139.921C553.494 144.507 562.193 147.015 568.643 151.498C566.766 154.036 565.095 156.158 563.549 158.926C558.179 157.227 546.795 146.992 541.657 142.772L486.272 97.0915C479.314 91.3761 464.289 78.3697 457.475 74.6795C450.307 78.4347 437.007 89.9217 430.037 95.6152C412.945 109.545 395.936 123.576 379.012 137.71C371.093 144.238 359.173 154.671 351.249 159.959C349.922 157.557 347.232 153.771 345.638 151.367C352.378 146.141 360.691 143.776 367.474 138.559C368.293 137.929 368.947 135.112 369.332 133.953C369.932 132.151 372.676 131.132 374.49 130.269L374.541 124.05L374.476 114.737L374.476 105.239C374.391 96.6786 374.252 86.2305 374.796 77.8067C374.584 76.1769 374.786 74.146 374.863 72.4537L375.092 70.9386C379.511 68.878 413.414 69.4901 418.484 70.3639L419.173 71.2559C421.228 76.4781 420.662 85.8085 420.586 91.5217L424.826 89.5091C434.935 83.79 429.856 85.4872 434.794 79.3869C437.557 75.9735 452.595 68.5378 457.105 66.4778Z"/><defs><linearGradient id="gradient_4" gradientUnits="userSpaceOnUse" x1="388.40509" y1="67.171295" x2="397.99017" y2="91.568115"><stop offset="0" stop-color="#BA5043"/><stop offset="1" stop-color="#933D31"/></linearGradient></defs><path fill="url(#gradient_4)" transform="matrix(0.393115 0.000518803 -0.000518599 0.393269 -130.342 -17.8694)" d="M374.863 72.4537L375.092 70.9386C379.511 68.878 413.414 69.4901 418.484 70.3639L419.173 71.2559C421.228 76.4781 420.662 85.8085 420.586 91.5217C418.132 93.4353 414.012 95.7255 412.582 97.7225L412.417 99.4398L412.239 101.661C409.773 104.337 409.034 104.688 405.722 106.288C389.813 111.497 389.83 123.457 374.49 130.269L374.541 124.05L374.476 114.737L374.476 105.239C374.391 96.6786 374.252 86.2305 374.796 77.8067C374.584 76.1769 374.786 74.146 374.863 72.4537Z"/><defs><linearGradient id="gradient_5" gradientUnits="userSpaceOnUse" x1="392.66525" y1="106.63591" x2="379.60071" y2="92.096764"><stop offset="0" stop-color="#753127"/><stop offset="1" stop-color="#9D4536"/></linearGradient></defs><path fill="url(#gradient_5)" transform="matrix(0.393115 0.000518803 -0.000518599 0.393269 -130.342 -17.8694)" d="M374.796 77.8067C375.56 81.0196 374.915 80.4444 376.971 82.2786C378.343 85.9043 377.258 84.0064 376.943 87.7057L376.996 87.7701C378.559 87.6849 377.871 87.456 379.067 88.4393L379.875 88.4489C378.444 90.3205 378.777 89.2844 378.895 91.6785C383.098 92.8363 387.708 92.8992 392.103 93.1866L394.2 94.8258C394.272 96.9136 394.121 97.23 393.7 99.2289C394.326 99.3654 395.668 99.7376 396.217 99.6815L401.217 99.1574C404.973 100.171 408.93 100.401 412.239 101.661C409.773 104.337 409.034 104.688 405.722 106.288C389.813 111.497 389.83 123.457 374.49 130.269L374.541 124.05L374.476 114.737L374.476 105.239C374.391 96.6786 374.252 86.2305 374.796 77.8067Z"/><path fill="#50201C" transform="matrix(0.393115 0.000518803 -0.000518599 0.393269 -130.342 -17.8694)" d="M403.901 104.266C404.347 104.728 405.488 105.793 405.722 106.288C389.813 111.497 389.83 123.457 374.49 130.269L374.541 124.05C376.143 123.606 379.015 118.111 380.194 116.214C378.852 114.452 379.019 114.492 378.82 112.241C381.321 109.969 400.777 109.979 403.901 104.266Z"/><path fill="#7A2520" transform="matrix(0.393115 0.000518803 -0.000518599 0.393269 -130.342 -17.8694)" d="M401.217 99.1574C404.973 100.171 408.93 100.401 412.239 101.661C409.773 104.337 409.034 104.688 405.722 106.288C405.488 105.793 404.347 104.728 403.901 104.266C400.777 109.979 381.321 109.969 378.82 112.241C379.019 114.492 378.852 114.452 380.194 116.214C379.015 118.111 376.143 123.606 374.541 124.05L374.476 114.737L374.6 115.508L375.562 116.103C376.114 113.646 376.085 113.205 377.684 111.171C380.426 109.618 382.832 109.777 386.029 109.55C383.066 109.357 379.698 109.79 378.686 106.717C382.605 103.975 382.798 107.713 386.685 103.577L387.542 102.656C391.804 104.802 391.197 104.595 396.015 103.775L397.122 103.582C398.604 102.688 399.569 102.5 400.111 101.227L396.217 99.6815L401.217 99.1574Z"/><path fill="#5F110D" transform="matrix(0.393115 0.000518803 -0.000518599 0.393269 -130.342 -17.8694)" d="M401.217 99.1574C404.973 100.171 408.93 100.401 412.239 101.661C409.773 104.337 409.034 104.688 405.722 106.288C405.488 105.793 404.347 104.728 403.901 104.266L402.866 103.232C401.28 104.97 396.452 106.424 394.412 105.423L397.122 103.582C398.604 102.688 399.569 102.5 400.111 101.227L396.217 99.6815L401.217 99.1574Z"/><path fill="#AE6C6A" transform="matrix(0.393115 0.000518803 -0.000518599 0.393269 -130.342 -17.8694)" d="M374.796 77.8067C375.56 81.0196 374.915 80.4444 376.971 82.2786C378.343 85.9043 377.258 84.0064 376.943 87.7057L376.996 87.7701L376.956 88.4019C376.609 94.6022 377.4 102.04 376.176 108.14L375.328 108.799C374.791 108.011 374.658 106.308 374.476 105.239C374.391 96.6786 374.252 86.2305 374.796 77.8067Z"/><path fill="#50201C" transform="matrix(0.393115 0.000518803 -0.000518599 0.393269 -130.342 -17.8694)" d="M419.173 71.2559C421.228 76.4781 420.662 85.8085 420.586 91.5217C418.132 93.4353 414.012 95.7255 412.582 97.7225L412.417 99.4398L412.239 101.661C408.93 100.401 404.973 100.171 401.217 99.1574L396.217 99.6815C395.668 99.7376 394.326 99.3654 393.7 99.2289C394.121 97.23 394.272 96.9136 394.2 94.8258L392.103 93.1866C396.3 93.2424 397.715 93.1618 401.88 92.6375C401.452 90.7265 401.031 89.6982 400.346 87.9019L400.988 87.0165L403.913 86.9811C405.682 87.1128 408.1 87.3612 409.815 87.3954C413.032 87.3206 413.647 87.6602 415.748 85.9607C417.46 82.8134 416.862 77.6975 416.699 73.9814L417.043 72.9115L419.173 71.2559Z"/><path fill="#7A2520" transform="matrix(0.393115 0.000518803 -0.000518599 0.393269 -130.342 -17.8694)" d="M401.88 92.6375L402.664 93.0969L401.602 93.7635C404.56 94.95 406.258 93.6921 409.467 95.303L409.826 96.6288C407.869 99.4242 404.472 98.9368 401.217 99.1574L396.217 99.6815C395.668 99.7376 394.326 99.3654 393.7 99.2289C394.121 97.23 394.272 96.9136 394.2 94.8258L392.103 93.1866C396.3 93.2424 397.715 93.1618 401.88 92.6375Z"/><path fill="#92291F" transform="matrix(0.393115 0.000518803 -0.000518599 0.393269 -130.342 -17.8694)" d="M401.88 92.6375C401.452 90.7265 401.031 89.6982 400.346 87.9019L400.988 87.0165L403.913 86.9811C407.976 88.0633 412.735 87.7222 414.895 89.5594C411.445 93.1515 410.081 93.0707 405.027 93.7439L402.664 93.0969L401.88 92.6375Z"/><path fill="#7A2520" transform="matrix(0.393115 0.000518803 -0.000518599 0.393269 -130.342 -17.8694)" d="M405.027 93.7439C408.065 90.5672 410.448 89.3858 414.895 89.5594C411.445 93.1515 410.081 93.0707 405.027 93.7439Z"/><path fill="#92291F" transform="matrix(0.393115 0.000518803 -0.000518599 0.393269 -130.342 -17.8694)" d="M412.518 80.018C415.067 79.8042 414.082 80.3045 415.803 78.9919C415.912 76.8119 416.015 76.0431 416.699 73.9814C416.862 77.6975 417.46 82.8134 415.748 85.9607C413.647 87.6602 413.032 87.3206 409.815 87.3954C410.578 82.8451 409.041 82.44 409.198 80.6494L412.518 80.018Z"/><path fill="#AA281E" transform="matrix(0.393115 0.000518803 -0.000518599 0.393269 -130.342 -17.8694)" d="M414.968 73.2288L417.043 72.9115L416.699 73.9814C416.015 76.0431 415.912 76.8119 415.803 78.9919C414.082 80.3045 415.067 79.8042 412.518 80.018C412.653 78.4798 412.59 78.3129 412.368 76.7675C410.199 74.9621 406.181 74.9468 403.069 74.4923L414.968 73.2288Z"/><path fill="#AA281E" transform="matrix(0.393115 0.000518803 -0.000518599 0.393269 -130.342 -17.8694)" d="M418.484 70.3639L419.173 71.2559L417.043 72.9115L414.968 73.2288C412.771 73.2807 412.456 73.3729 410.257 72.8812L410.203 72.1202C413.658 70.4302 414.59 70.5305 418.484 70.3639Z"/><path fill="#C43E38" transform="matrix(0.393115 0.000518803 -0.000518599 0.393269 -130.342 -17.8694)" d="M374.863 72.4537C377.473 75.7505 377.939 78.0983 376.971 82.2786C374.915 80.4444 375.56 81.0196 374.796 77.8067C374.584 76.1769 374.786 74.146 374.863 72.4537Z"/><path fill="#3D3D3E" transform="matrix(0.393115 0.000518803 -0.000518599 0.393269 -130.342 -17.8694)" d="M424.826 89.5091C423.039 92.8398 416.096 98.5996 412.417 99.4398L412.582 97.7225C414.012 95.7255 418.132 93.4353 420.586 91.5217L424.826 89.5091Z"/><path fill="#896C5A" transform="matrix(0.393115 0.000518803 -0.000518599 0.393269 -130.342 -17.8694)" d="M368.007 163.134C381.601 149.96 399.315 138.783 413.765 126.765C427.776 115.111 440.021 103.921 454.748 92.8439C458.118 94.6772 460.67 95.9093 463.668 98.3539C452.23 101.577 440.91 114.653 431.64 122.275C426 126.912 419.908 131.805 414.406 136.564C412.744 137.879 411.181 139.101 409.591 140.513C404.408 143.968 399.497 147.428 394.912 151.677L393.158 152.891C390.132 155.398 370.943 172.122 368.724 172.87L368.089 172.73L367.621 170.697L368.007 163.134Z"/><path fill="#50201C" transform="matrix(0.393115 0.000518803 -0.000518599 0.393269 -130.342 -17.8694)" d="M456.286 90.6291C469.126 96.9931 483.976 113.582 495.927 122.431C512.888 134.989 528.996 148.777 545.709 161.594L544.241 163.365C540.307 159.44 530.31 151.866 525.574 148.101C515.722 139.754 505.175 131.968 494.896 124.121C484.255 115.536 475.814 105.886 463.668 98.3539C460.67 95.9093 458.118 94.6772 454.748 92.8439C440.021 103.921 427.776 115.111 413.765 126.765C399.315 138.783 381.601 149.96 368.007 163.134L367.972 162.18C381.937 149.418 400.855 136.066 415.689 124.066C426.425 115.381 445.052 97.2679 456.286 90.6291Z"/><path fill="#50201C" transform="matrix(0.393115 0.000518803 -0.000518599 0.393269 -130.342 -17.8694)" d="M545.709 161.594C549.017 164.256 553.059 167.129 555.428 170.568C551.294 171.42 548.95 171.598 544.764 171.916L544.064 171.181L543.986 167.304L544.241 163.365L545.709 161.594Z"/><path fill="#50201C" transform="matrix(0.393115 0.000518803 -0.000518599 0.393269 -130.342 -17.8694)" d="M367.972 162.18L368.007 163.134L367.621 170.697C363.696 170.615 361.739 170.717 358.249 168.908C361.071 167.624 365.358 164.17 367.972 162.18Z"/><path fill="#EFDBB7" transform="matrix(0.393115 0.000518803 -0.000518599 0.393269 -130.342 -17.8694)" d="M463.668 98.3539C475.814 105.886 484.255 115.536 494.896 124.121L492.582 125.087C492.745 125.492 492.909 125.898 493.072 126.304C497.635 129.473 502.747 130.441 504.006 134.706C503.518 135.677 502.993 137.227 501.823 137.243C488.225 137.425 424.977 139.804 416.009 138.194C415.633 137.827 414.673 136.945 414.406 136.564C419.908 131.805 426 126.912 431.64 122.275C440.91 114.653 452.23 101.577 463.668 98.3539Z"/><path fill="#EFDBB7" transform="matrix(0.393115 0.000518803 -0.000518599 0.393269 -130.342 -17.8694)" d="M494.896 124.121C505.175 131.968 515.722 139.754 525.574 148.101L525.368 150.009L528.064 151.764L528.166 152.465C524.363 152.791 524.616 151.315 523.689 151.171C517.668 150.24 501.312 151.658 496.447 151.58C485.657 151.408 398.612 153.292 394.912 151.677C399.497 147.428 404.408 143.968 409.591 140.513C411.181 139.101 412.744 137.879 414.406 136.564C414.673 136.945 415.633 137.827 416.009 138.194C424.977 139.804 488.225 137.425 501.823 137.243C502.993 137.227 503.518 135.677 504.006 134.706C502.747 130.441 497.635 129.473 493.072 126.304C492.909 125.898 492.745 125.492 492.582 125.087L494.896 124.121Z"/><defs><linearGradient id="gradient_6" gradientUnits="userSpaceOnUse" x1="463.09952" y1="130.09285" x2="461.82889" y2="144.01132"><stop offset="0" stop-color="#F6CBA3"/><stop offset="1" stop-color="#E2D6B6"/></linearGradient></defs><path fill="url(#gradient_6)" transform="matrix(0.393115 0.000518803 -0.000518599 0.393269 -130.342 -17.8694)" d="M494.896 124.121C505.175 131.968 515.722 139.754 525.574 148.101L525.368 150.009C522.084 147.714 517.295 142.347 512.508 141.811C504.608 140.926 494.74 140.937 486.818 140.816C461.077 140.519 435.334 140.418 409.591 140.513C411.181 139.101 412.744 137.879 414.406 136.564C414.673 136.945 415.633 137.827 416.009 138.194C424.977 139.804 488.225 137.425 501.823 137.243C502.993 137.227 503.518 135.677 504.006 134.706C502.747 130.441 497.635 129.473 493.072 126.304C492.909 125.898 492.745 125.492 492.582 125.087L494.896 124.121Z"/><path fill="#E0CFB0" transform="matrix(0.393115 0.000518803 -0.000518599 0.393269 -130.342 -17.8694)" d="M542.68 180.217C542.405 178.45 542.756 169.045 542.225 168.442C539.593 165.457 525.56 167.963 523.552 165.94C526.143 165.313 537.833 165.806 540.8 166.079C542.267 166.856 542.377 167.033 543.986 167.304L544.064 171.181C542.321 176.701 543.193 209.739 543.167 217.68L532.723 217.484C532.719 212.175 533.896 194.564 531.563 191.259L529.53 191.198L528.921 190.389C528.436 188.32 528.462 187.597 526.932 186.111L527.264 185.065C532.272 184.075 532.789 190.279 538.945 193.947C543.919 193.468 542.501 185.737 542.333 181.949C534.166 182.095 525.787 180.681 517.482 180.471C505.312 180.163 493.284 180.25 481.118 179.755C498.711 178.353 524.392 180.228 542.68 180.217Z"/><path fill="#D09C78" transform="matrix(0.393115 0.000518803 -0.000518599 0.393269 -130.342 -17.8694)" d="M367.571 243.458C364.914 243.538 364.726 243.608 362.187 243.062C360.372 239.194 361.996 198.751 361.94 191.234C361.92 188.604 362.522 188.166 364.069 186.817C365.347 187.324 366.728 187.516 366.898 188.437C368.371 196.416 367.168 208.82 367.284 216.924C367.268 225.162 367.02 235.406 367.571 243.458Z"/><path fill="#E0CFB0" transform="matrix(0.393115 0.000518803 -0.000518599 0.393269 -130.342 -17.8694)" d="M525.574 148.101C530.31 151.866 540.307 159.44 544.241 163.365L543.986 167.304C542.377 167.033 542.267 166.856 540.8 166.079L542.242 165.59C542.264 163.036 532.476 155.144 531.896 155.087C486.323 150.566 438.67 155.568 393.158 152.891L394.912 151.677C398.612 153.292 485.657 151.408 496.447 151.58C501.312 151.658 517.668 150.24 523.689 151.171C524.616 151.315 524.363 152.791 528.166 152.465L528.064 151.764L525.368 150.009L525.574 148.101Z"/><path fill="#2D2D2D" transform="matrix(0.393115 0.000518803 -0.000518599 0.393269 -130.342 -17.8694)" d="M700.761 95.9041C701.77 93.5372 702.835 92.8161 705.286 92.0593C716.55 88.5816 779.776 78.5219 782.177 92.4849L780.865 93.8692L779.559 94.7578C783 102.63 784.936 143.135 787.163 155.574C798.009 158.739 825.359 163.571 828.44 176.837C828.719 180.567 829.531 182.516 830.71 186C832.719 190.738 834.792 196.776 835.814 201.813C836.591 204.515 837.109 205.416 836.577 208.063L835.642 208.651L831.291 207.566C832.078 209.108 832.566 210.149 833.592 211.575C835.752 216.333 837.699 223.548 838.987 228.718L832.929 230.602C835.589 237.044 838.45 245.859 838.734 252.852C837.26 258.416 835.459 263.505 833.588 268.926C831.763 268.407 828.788 267.169 827.4 267.748C824.59 272.64 825.489 273.728 824.172 278.992C821.669 288.997 812.235 294.257 804.338 299.719C803.24 298.074 801.548 295.308 800.256 293.953C795.438 298.172 790.589 301.853 785.03 305.071C780.797 307.599 766.857 308.93 763.395 306.308C763.239 304.17 763.181 302.499 763.169 300.356C755.775 300.621 748.693 300.952 741.424 299.439C736.488 296.491 731.187 294.107 728.1 289.494C727.786 286.844 728.056 287.5 730.009 284.587C722.887 279.171 719.046 276.217 713.199 269.487C712.425 268.733 710.146 265.38 709.386 264.307L673.359 264.356C670.618 284.451 660.685 300.179 639.674 304.868C628.239 307.311 616.302 305.067 606.533 298.639C597.56 292.657 591.344 283.342 589.264 272.76C586.504 258.826 590.373 248.385 598.023 237.064C597.089 232.238 596.845 225.438 596.706 220.537C596.135 213.488 595.697 208.425 595.93 201.307L595.786 200.006C595.852 193.247 595.956 188.961 596.778 182.186C595.622 169.606 623.614 163.936 633.328 162.019C638.263 159.26 667.895 155.347 675.026 154.51C677.079 154.551 679.461 154.302 681.544 154.147C684.946 153.768 688.383 153.537 691.798 153.274C693.783 147.386 695.529 135.563 697.714 128.059C699.754 121.054 704.254 111.464 705.483 106.762L704.347 105.702C702.664 105.621 703.225 105.802 701.782 104.842C700.272 101.891 700.702 99.3016 700.761 95.9041Z"/><defs><linearGradient id="gradient_7" gradientUnits="userSpaceOnUse" x1="561.60712" y1="269.68713" x2="551.01776" y2="284.20422"><stop offset="0" stop-color="#95B760"/><stop offset="1" stop-color="#7C9B4E"/></linearGradient></defs><path fill="url(#gradient_7)" transform="matrix(0.393115 0.000518803 -0.000518599 0.393269 -130.342 -17.8694)" d="M547.828 266.25C555.156 265.249 557.758 266.347 564.48 269.775C566.719 273.047 569 276.575 571.516 279.611C575.084 284.539 576.453 288.937 573.059 294.496C564.818 308.279 562.217 306.018 546.501 305.545L543.887 306.334L543.98 293.183L543.748 289.706L543.337 286.182C543.877 282.936 543.443 272.814 543.302 269.372L544.599 266.709L547.828 266.25Z"/><defs><linearGradient id="gradient_8" gradientUnits="userSpaceOnUse" x1="555.7608" y1="304.95032" x2="564.22076" y2="289.7775"><stop offset="0" stop-color="#30401B"/><stop offset="1" stop-color="#485B30"/></linearGradient></defs><path fill="url(#gradient_8)" transform="matrix(0.393115 0.000518803 -0.000518599 0.393269 -130.342 -17.8694)" d="M571.516 279.611C575.084 284.539 576.453 288.937 573.059 294.496C564.818 308.279 562.217 306.018 546.501 305.545L543.887 306.334L543.98 293.183L543.748 289.706L544.864 289.976C550.229 291.304 549.637 292.912 555.266 290.815C557.992 288.192 557.766 288.115 561.105 287.689C565.021 284.692 567.199 282.4 571.516 279.611Z"/><path fill="#657F3E" transform="matrix(0.393115 0.000518803 -0.000518599 0.393269 -130.342 -17.8694)" d="M571.516 279.611C575.084 284.539 576.453 288.937 573.059 294.496C567.263 292.033 566.098 288.116 561.105 287.689C565.021 284.692 567.199 282.4 571.516 279.611Z"/><path fill="#030202" transform="matrix(0.393115 0.000518803 -0.000518599 0.393269 -130.342 -17.8694)" d="M543.98 293.183C549.168 294.479 558.012 304.51 546.501 305.545L543.887 306.334L543.98 293.183Z"/><defs><linearGradient id="gradient_9" gradientUnits="userSpaceOnUse" x1="542.50116" y1="278.54227" x2="548.68066" y2="277.06293"><stop offset="0" stop-color="#5C753A"/><stop offset="1" stop-color="#708F45"/></linearGradient></defs><path fill="url(#gradient_9)" transform="matrix(0.393115 0.000518803 -0.000518599 0.393269 -130.342 -17.8694)" d="M544.599 266.709L547.828 266.25C550.054 267.75 551.474 268.292 552.238 270.808C552.247 277.546 548.449 278.413 550.732 286.184C554.611 287.989 553.946 286.881 555.266 290.815C549.637 292.912 550.229 291.304 544.864 289.976L543.748 289.706L543.337 286.182C543.877 282.936 543.443 272.814 543.302 269.372L544.599 266.709Z"/><path fill="#98A858" transform="matrix(0.393115 0.000518803 -0.000518599 0.393269 -130.342 -17.8694)" d="M337.036 294.165C336.293 286.667 339.562 276.567 345.805 271.983C352.138 267.333 358.78 268.463 365.987 269.466L365.943 269.821C367.852 271.71 367.653 272.471 367.678 275.888C367.674 277.517 367.646 279.146 367.594 280.774L367.477 297.286L367.549 300.439L367.969 304.962C361.882 305.359 354.241 306.002 348.323 305.113L347.185 304.822L346.552 304.525C340.988 301.86 339.051 299.931 337.036 294.165Z"/><defs><linearGradient id="gradient_10" gradientUnits="userSpaceOnUse" x1="370.13733" y1="293.27927" x2="358.89142" y2="277.17505"><stop offset="0" stop-color="#43572A"/><stop offset="1" stop-color="#73924A"/></linearGradient></defs><path fill="url(#gradient_10)" transform="matrix(0.393115 0.000518803 -0.000518599 0.393269 -130.342 -17.8694)" d="M365.943 269.821C367.852 271.71 367.653 272.471 367.678 275.888C367.674 277.517 367.646 279.146 367.594 280.774L367.477 297.286C364.736 297.177 359.277 296.245 355.726 295.998C354.168 293.541 351.01 294.011 347.992 293.437C345.707 291.501 346.517 292.655 345.485 289.828C347.547 290.851 351.678 290.78 353.657 290.059C360.281 287.647 359.011 277.413 361.725 272.325C362.824 270.265 364.081 270.269 365.943 269.821Z"/><path fill="#42451A" transform="matrix(0.393115 0.000518803 -0.000518599 0.393269 -130.342 -17.8694)" d="M355.726 295.998C359.277 296.245 364.736 297.177 367.477 297.286L367.549 300.439L367.969 304.962C361.882 305.359 354.241 306.002 348.323 305.113L347.185 304.822C344.923 296.897 349.495 296.195 355.726 295.998Z"/><path fill="#425728" transform="matrix(0.393115 0.000518803 -0.000518599 0.393269 -130.342 -17.8694)" d="M355.726 295.998C359.277 296.245 364.736 297.177 367.477 297.286L367.549 300.439C359.632 298.979 351.261 295.344 348.323 305.113L347.185 304.822C344.923 296.897 349.495 296.195 355.726 295.998Z"/><defs><linearGradient id="gradient_11" gradientUnits="userSpaceOnUse" x1="342.14496" y1="302.00034" x2="343.6796" y2="288.68585"><stop offset="0" stop-color="#495C30"/><stop offset="1" stop-color="#5E773C"/></linearGradient></defs><path fill="url(#gradient_11)" transform="matrix(0.393115 0.000518803 -0.000518599 0.393269 -130.342 -17.8694)" d="M337.036 294.165C341.181 290.691 340.785 288.846 344.164 285.851L345.016 286.313L345.485 289.828C346.517 292.655 345.707 291.501 347.992 293.437C351.01 294.011 354.168 293.541 355.726 295.998C349.495 296.195 344.923 296.897 347.185 304.822L346.552 304.525C340.988 301.86 339.051 299.931 337.036 294.165Z"/></g></svg>