<?xml version="1.0" encoding="utf-8" ?><svg xmlns="http://www.w3.org/2000/svg" xmlns:xlink="http://www.w3.org/1999/xlink" width="100" height="100" viewBox="0 0 100 100"><clipPath id="cl_4"><rect x="1.1444092e-05" y="-3.2067299e-05" width="100" height="100"/></clipPath><g clip-path="url(#cl_4)"><path fill="#514432" transform="matrix(0.3861 0 0 0.3861 -3.86099 -1.54443)" d="M140.49 29.7821C144.577 32.1987 149.8 36.4471 153.597 39.4246L171.955 53.7898C177.724 58.2774 183.852 61.5946 189.388 66.4326C190.976 67.8204 193.691 69.0125 195.365 70.4799C197.678 72.5071 199.793 74.7277 202.023 76.8415L219.147 93.3227C221.247 95.3566 223.873 96.3737 225.619 98.2607C227.539 100.336 229.415 104.244 231.139 106.581C234.094 110.587 237.379 114.473 240.482 118.363C242.356 120.712 246.141 123.632 247.74 125.655C253.354 132.757 260.286 139.985 262.429 148.937C263.597 153.816 263.637 159.213 260.997 163.464C260.89 163.638 260.774 163.807 260.65 163.969C259.205 166.769 257.05 170.216 254.372 171.998C253.035 173.124 251.905 174.05 250.185 175.114C248.22 176.329 245.148 177.641 243.152 178.938C243.141 178.945 242.992 179.891 242.979 179.988C242.959 180.143 242.966 180.395 242.972 180.574C242.548 192.554 241.848 203.721 239.584 215.525C238.327 222.079 238.388 230.175 232.792 234.902C223.193 243.01 209.462 246.712 197.342 249.2C191.833 250.299 182.056 250.829 177.36 252.212C173.225 253.315 165.252 256.817 163.749 251.45C163.687 251.017 163.514 250.748 163.318 250.36C161.909 249.948 160.229 250.286 158.743 250.466C152.583 251.077 147.984 251.1 141.856 250.789L139.513 250.714C135.846 250.658 132.181 250.508 128.521 250.265C124.791 250.241 120.112 250.318 116.473 250.033C116.386 251.322 116.449 252.432 115.608 253.408C112.401 255.396 103.791 252.643 100.097 251.634C93.7816 250.522 86.6001 249.961 80.4358 248.754C69.792 246.669 54.0426 241.552 46.4455 233.696C40.6453 227.465 41.6946 216.66 39.8673 209.15C37.1907 198.15 36.2542 190.203 36.7234 179.007C26.5803 173.451 16.8258 166.859 17.281 153.837C17.4468 144.341 22.9094 138.085 28.3555 131.034C31.6954 125.701 36.2148 122.077 40.31 117.6C43.6288 113.972 45.5549 110.975 49.4244 107.384C51.3201 102.177 53.0715 98.6386 57.8119 95.7708L58.0356 95.5994C62.3338 92.2731 62.9403 90.7672 66.6173 87.6197C70.9082 83.6243 74.8936 79.232 79.6477 75.7631C80.5378 75.1136 81.3195 74.2879 82.067 73.4837C83.1069 71.9052 84.2487 70.7862 85.7334 69.643C86.6473 67.8381 91.5809 66.9026 93.4634 65.0748L95.0089 63.0558C99.0823 59.1072 100.843 59.6597 104.327 56.937C106.273 55.1714 107.106 54.5129 109.315 53.0978C112.046 51.1989 115.184 47.8114 117.231 46.5245C124.382 42.0278 133.242 33.2936 140.49 29.7821Z"/><defs><linearGradient id="gradient_0" gradientUnits="userSpaceOnUse" x1="61.895664" y1="94.108368" x2="266.56573" y2="117.88995"><stop offset="0" stop-color="#665B4E"/><stop offset="1" stop-color="#998D7A"/></linearGradient></defs><path fill="url(#gradient_0)" transform="matrix(0.3861 0 0 0.3861 -3.86099 -1.54443)" d="M140.49 29.7821C144.577 32.1987 149.8 36.4471 153.597 39.4246L171.955 53.7898C177.724 58.2774 183.852 61.5946 189.388 66.4326C190.976 67.8204 193.691 69.0125 195.365 70.4799C197.678 72.5071 199.793 74.7277 202.023 76.8415L219.147 93.3227C221.247 95.3566 223.873 96.3737 225.619 98.2607C227.539 100.336 229.415 104.244 231.139 106.581C234.094 110.587 237.379 114.473 240.482 118.363C242.356 120.712 246.141 123.632 247.74 125.655C253.354 132.757 260.286 139.985 262.429 148.937C263.597 153.816 263.637 159.213 260.997 163.464C260.89 163.638 260.774 163.807 260.65 163.969C259.205 166.769 257.05 170.216 254.372 171.998C254.506 170.851 254.718 170.602 255.513 169.793L255.198 169.397C250.518 170.458 245.83 171.712 241.37 173.505C238.97 174.471 235.64 176.176 233.362 177.019C232.138 177.472 226.465 176.983 224.824 177.248C222.461 177.629 220.604 178.923 218.435 179.819C217.673 180.134 216.386 180.277 215.736 180.521C211.139 181.059 207.067 182.781 202.677 180.615L202.043 180.305C200.594 179.755 199.163 180.08 197.51 179.977L197.306 179.963C196.46 178.905 196.365 178.685 195.857 177.422C192.661 177.867 191.212 177.554 188.138 176.64C186.156 178.096 188.375 178.468 186.012 179.237L185.625 178.856C184.146 178.648 184.269 178.408 183.295 179.044L182.872 180.282C179.472 181.919 176.821 177.589 174.602 181.392L173.81 181.29C173.228 180.473 172.764 179.853 172.12 179.086C170.357 179.014 169.516 180.394 168.821 179.902C166.185 178.034 167.153 177.761 164.227 179.917C161.91 179.061 160.849 179.756 159.358 179.18L159.003 178.126L158.508 177.57C157.054 178.413 151.054 179.23 149.976 178.85C148.866 177.997 148.54 179.131 146.294 177.384C143.277 176.155 145.364 174.359 140.193 173.451C138.404 175.724 139.987 175.172 138.919 176.795C138.247 176.229 137.695 175.821 136.986 175.311L136.032 175.502L135.745 176.204C134.905 175.453 134.746 174.189 133.639 173.482C133.058 173.112 132.325 172.35 131.824 171.851L130.308 171.942L129.678 173.331C126.9 174.022 124.682 170.821 121.162 172.958C121.203 172.756 121.607 171.871 121.714 171.625C121.264 169.727 121.654 169.733 122.856 168.557L121.676 168.165C120.473 169.132 120.252 169.22 118.718 169.471C117.694 169.021 115.397 168.138 114.706 167.419L115.056 167.151L116.379 167.404C117.178 167.062 117.24 166.967 117.696 166.221C117.528 165.432 117.669 165.561 117.202 165.017C117.38 164.274 117.257 164.544 117.824 163.973L117.471 163.455C116.992 161.604 117.147 160.211 117.362 158.377C115.212 158.964 114.363 158.934 113.117 157.243C113.396 155.19 112.524 153.924 113.156 152.409L113.686 152.503C114.555 153.482 114.456 153.083 114.498 154.228L114.865 153.481L114.809 153.243C115.403 152.695 115.653 152.2 116.075 151.519C115.582 152.998 115.212 153.289 115.576 154.64C116.23 155.074 116.615 155.36 117.351 155.67C117.244 155.748 117.205 155.973 117.145 156.145L117.887 156.322C119.988 155.782 121.23 154.2 120.961 152.012C120.253 150.458 118.668 149.615 117.219 148.56C117.637 145.757 119.581 146.778 121.404 144.466C121.622 142.963 119.601 144.164 118.353 142.013C118.527 141.088 118.522 140.759 119.253 140.122C120.023 140.207 120.485 140.357 121.131 139.968C121.148 139.518 121.227 139.07 121.292 138.624L121.664 138.667C121.763 139.055 121.886 139.623 122.045 139.966L122.783 139.84C123.263 139.377 123.096 139.66 123.195 138.915C122.331 138.545 122.181 138.442 121.443 137.857C121.606 136.339 123.219 135.36 124.515 134.247L124.469 133.65C122.233 133.939 119.193 139.35 116.584 140C109.873 133.153 113.774 137.868 115.791 133.546L115.34 132.573C113.138 130.536 113.375 131.544 111.397 130.558L111.366 130.073L110.415 128.225L111.454 126.469C111.243 125.347 111.092 124.214 111.003 123.075C111.37 123.15 111.71 123.237 112.06 123.375L112.294 122.645L112.298 122.721L112.617 122.699L113.271 123.471L112.407 124.517L112.625 125.411L113.361 125.692C114.674 125.45 115.314 125.268 115.537 123.852C115.033 123.032 114.633 122.475 114.058 121.706L114.178 121.003C115.215 120.104 114.764 120.275 116.083 120.022L116.595 120.414L116.018 120.028L116.156 119.899C115.181 117.871 115.465 118.536 112.981 118.055C112.32 117.493 111.775 117.029 111.346 116.663L111.014 117.079C109.71 115.911 110.742 114.839 108.154 115.104C106.249 114.425 105.898 114.067 104.463 112.714L103.769 112.452C102.917 113.335 103.162 113.237 102.906 114.663L102.757 114.389C102.564 114.042 101.857 112.661 101.718 112.466C99.8671 109.866 88.6786 111.703 85.6424 111.01C84.6456 109.494 84.838 108.836 83.3461 106.805C81.9388 106.44 82.9129 107.481 81.177 107.569C79.8483 106.019 78.4796 104.504 77.0723 103.025C75.9779 103.699 74.5308 103.468 73.2623 103.381C72.9017 102.59 72.9047 101.856 72.8434 100.996L72.4189 102.869L72.15 102.921L72.0504 101.446L71.2094 102.311C70.656 100.212 64.5562 99.7953 62.42 99.4894C61.6998 98.5293 60.2278 96.8371 60.0906 95.7544L59.4838 95.5466L58.4122 96.269L57.8119 95.7708L58.0356 95.5994C62.3338 92.2731 62.9403 90.7672 66.6173 87.6197C70.9082 83.6243 74.8936 79.232 79.6477 75.7631C80.5378 75.1136 81.3195 74.2879 82.067 73.4837C83.1069 71.9052 84.2487 70.7862 85.7334 69.643C86.6473 67.8381 91.5809 66.9026 93.4634 65.0748L95.0089 63.0558C99.0823 59.1072 100.843 59.6597 104.327 56.937C106.273 55.1714 107.106 54.5129 109.315 53.0978C112.046 51.1989 115.184 47.8114 117.231 46.5245C124.382 42.0278 133.242 33.2936 140.49 29.7821Z"/><path fill="#544A40" transform="matrix(0.3861 0 0 0.3861 -3.86099 -1.54443)" d="M60.0906 95.7544C64.688 91.7055 67.6308 92.7701 73.1582 93.6297L73.8452 94.6849C75.7723 93.8985 74.5811 92.8763 76.4113 92.3663C77.7569 93.0079 78.1683 93.1737 78.5246 94.7736C79.9436 101.146 82.6953 96.7031 85.5748 97.2101C88.1567 99.8705 86.0649 98.8167 89.9741 99.4853C94.9653 100.339 97.389 98.4649 96.5702 104.167L96.807 104.025C98.2135 103.188 98.49 103.482 99.7229 102.693C100.548 103.221 100.934 103.386 101.383 104.286L101.283 105.198L101.453 104.649C100.518 107.014 97.4467 105.513 95.6352 104.826C91.367 103.208 86.6656 104.65 82.3857 103.887C79.8546 101.39 83.8794 100.901 76.5702 100.954L72.8434 100.996L72.4189 102.869L72.15 102.921L72.0504 101.446L71.2094 102.311C70.656 100.212 64.5562 99.7953 62.42 99.4894C61.6998 98.5293 60.2278 96.8371 60.0906 95.7544Z"/><path fill="#544A40" transform="matrix(0.3861 0 0 0.3861 -3.86099 -1.54443)" d="M220.017 176.864C223.694 174.139 227.731 174.841 230.933 172.594C230.279 172.226 229.12 172.612 227.853 172.327C230.416 171.939 233.001 171.523 235.576 171.246L232.64 172.26L232.298 173.017L231.344 173.18L231.522 173.524C231.754 173.572 231.989 173.607 232.225 173.629C235.312 173.94 243.726 172.353 246.474 170.978C248.402 170.014 250.302 166.492 253.664 166.882C255.495 170.223 258.451 165.614 260.65 163.969C259.205 166.769 257.05 170.216 254.372 171.998C254.506 170.851 254.718 170.602 255.513 169.793L255.198 169.397C250.518 170.458 245.83 171.712 241.37 173.505C238.97 174.471 235.64 176.176 233.362 177.019C232.138 177.472 226.465 176.983 224.824 177.248C222.461 177.629 220.604 178.923 218.435 179.819C217.673 180.134 216.386 180.277 215.736 180.521C211.139 181.059 207.067 182.781 202.677 180.615L202.043 180.305C206.795 179.299 206.314 179.623 211.165 177.826C212.98 176.75 213.528 177.42 215.375 176.503C218.424 175.674 217.389 176.589 220.017 176.864Z"/><defs><linearGradient id="gradient_1" gradientUnits="userSpaceOnUse" x1="152.27141" y1="180.77672" x2="142.1606" y2="165.90788"><stop offset="0" stop-color="#60574B"/><stop offset="1" stop-color="#796C5C"/></linearGradient></defs><path fill="url(#gradient_1)" transform="matrix(0.3861 0 0 0.3861 -3.86099 -1.54443)" d="M140.089 173.062C141.749 172.979 143.066 173.522 144.092 173.077L143.894 172.777L143.397 173.209L143.58 172.567C141.686 171.806 140.044 171.179 138.107 170.54L138.079 169.59C139.581 168.442 139.707 169.148 140.176 167.522C140.338 166.964 143.714 165.722 144.555 165.686C147.379 165.563 148.975 173.431 150.636 173.771C152.038 174.057 155.95 173.102 157.75 174.147C158.242 176.152 156.479 176.334 156.654 177.858L156.857 177.673C157.586 177.02 157.751 176.855 158.736 176.741C159.454 177.454 159.293 177.131 159.548 177.998L159.003 178.126L158.508 177.57C157.054 178.413 151.054 179.23 149.976 178.85C148.866 177.997 148.54 179.131 146.294 177.384C143.277 176.155 145.364 174.359 140.193 173.451L140.089 173.062Z"/><defs><linearGradient id="gradient_2" gradientUnits="userSpaceOnUse" x1="92.743401" y1="79.308899" x2="94.030586" y2="73.049744"><stop offset="0" stop-color="#3E3831"/><stop offset="1" stop-color="#5C5147"/></linearGradient></defs><path fill="url(#gradient_2)" transform="matrix(0.3861 0 0 0.3861 -3.86099 -1.54443)" d="M85.7334 69.643C85.5936 70.5183 85.5424 70.8308 84.9258 71.5179C87.7367 72.878 89.6457 72.601 92.6865 72.7173C94.3049 72.7792 96.7273 75.7493 98.0818 75.3328C99.2971 74.959 98.7851 74.4483 100.345 74.7114C101.479 76.2166 99.8545 76.1121 101.448 76.9476L102.163 76.9321L102.028 76.7133C101.503 75.8415 101.436 75.6693 101.523 74.6312C102.398 73.868 101.949 74.0471 103.286 74.0733C104.279 74.5922 104.352 74.7441 104.899 75.6906L104.917 75.8936C104.924 76.8187 105.095 78.6311 104.692 79.2799C98.7775 78.1162 85.7729 79.9485 82.2279 77.0573C81.5563 75.4833 81.8527 75.3216 82.067 73.4837C83.1069 71.9052 84.2487 70.7862 85.7334 69.643Z"/><path fill="#736758" transform="matrix(0.3861 0 0 0.3861 -3.86099 -1.54443)" d="M131.824 171.851C131.434 170.074 128.691 166.384 128.634 165.06C128.585 163.897 131.67 160.393 129.621 158.141C127.81 158.929 128.804 159.751 126.808 160.713L126.175 160.393C125.287 159.133 124.105 154.924 126.23 154.607C126.558 155.417 126.908 155.963 127.352 156.702C129.189 156.955 128.746 154.898 131.142 154.527L131.925 155.201C133.063 156.883 134.672 158.132 135.275 159.429C136.183 160.424 136.004 159.972 136.211 161.269L135.864 161.926C134.212 161.367 133.276 159.573 132.053 159.235L131.611 159.596C131.473 163.534 139.033 166.031 133.942 168.49L134.106 168.647C137.01 171.466 135.316 171.05 139.499 173.263L140.089 173.062L140.193 173.451C138.404 175.724 139.987 175.172 138.919 176.795C138.247 176.229 137.695 175.821 136.986 175.311L136.032 175.502L135.745 176.204C134.905 175.453 134.746 174.189 133.639 173.482C133.058 173.112 132.325 172.35 131.824 171.851Z"/><path fill="#544A40" transform="matrix(0.3861 0 0 0.3861 -3.86099 -1.54443)" d="M93.4634 65.0748L95.0089 63.0558C97.1377 65.686 98.8787 64.0925 101.839 64.4581C105.387 64.8962 108.966 65.888 112.438 66.7429C114.758 67.2661 119.336 69.9042 120.54 70.0332C119.933 70.6023 119.03 70.31 117.989 70.9401L117.365 71.5406C115.717 71.9658 114.503 70.6004 112.27 70.5245C109.767 69.2043 108.619 69.7782 106.995 68.9628C103.182 67.8706 101.964 68.0914 98.1721 68.9064C96.4252 68.3355 95.9924 68.1234 94.4337 67.1465C93.7046 66.4653 93.8068 66.1726 93.4634 65.0748Z"/><path fill="#453B31" transform="matrix(0.3861 0 0 0.3861 -3.86099 -1.54443)" d="M94.4337 67.1465C95.1878 66.414 95.8503 65.841 97.0436 66.0162C100.094 66.4641 106.448 64.9468 108.399 67.8907L108.166 68.5095L106.995 68.9628C103.182 67.8706 101.964 68.0914 98.1721 68.9064C96.4252 68.3355 95.9924 68.1234 94.4337 67.1465Z"/><path fill="#655042" transform="matrix(0.3861 0 0 0.3861 -3.86099 -1.54443)" d="M169.586 174.205C172.089 173.485 172.098 173.353 174.131 175.189C174.416 175.716 174.708 176.238 174.965 176.778C175.599 176.992 178.827 177.926 178.944 178.073C182.025 181.967 181.114 177.885 184.469 177.803C185.174 178.176 185.284 178.178 185.625 178.856C184.146 178.648 184.269 178.408 183.295 179.044L182.872 180.282C179.472 181.919 176.821 177.589 174.602 181.392L173.81 181.29C173.228 180.473 172.764 179.853 172.12 179.086C170.357 179.014 169.516 180.394 168.821 179.902C166.185 178.034 167.153 177.761 164.227 179.917C161.91 179.061 160.849 179.756 159.358 179.18L159.003 178.126L159.548 177.998C159.695 178.071 160.034 178.056 160.229 178.065C161.394 176.653 162.597 176.143 163.119 175.149C161.925 174.405 161.319 174.747 159.691 174.894L159.582 174.528C162.704 174.613 163.547 174.497 166.449 175.444C168.12 175.511 168.469 175.408 169.586 174.205Z"/><path fill="#736758" transform="matrix(0.3861 0 0 0.3861 -3.86099 -1.54443)" d="M169.586 174.205C172.089 173.485 172.098 173.353 174.131 175.189C174.416 175.716 174.708 176.238 174.965 176.778C174.357 176.989 173.915 177.069 173.494 177.531L173.069 178.069L172.364 178.15C171.851 177.886 166.37 175.372 166.449 175.444C168.12 175.511 168.469 175.408 169.586 174.205Z"/><path fill="#675D4E" transform="matrix(0.3861 0 0 0.3861 -3.86099 -1.54443)" d="M169.586 174.205C172.089 173.485 172.098 173.353 174.131 175.189C174.416 175.716 174.708 176.238 174.965 176.778C174.357 176.989 173.915 177.069 173.494 177.531C172.263 176.326 170.926 175.287 169.586 174.205Z"/><path fill="#655042" transform="matrix(0.3861 0 0 0.3861 -3.86099 -1.54443)" d="M82.067 73.4837C81.8527 75.3216 81.5563 75.4833 82.2279 77.0573C85.7729 79.9485 98.7775 78.1162 104.692 79.2799C105.095 78.6311 104.924 76.8187 104.917 75.8936C106.244 78.2836 109.031 78.8897 111.39 80.3032C111.508 80.3741 112.007 80.4072 112.146 80.4166L112.341 79.9444C111.876 79.2184 111.807 79.1436 111.015 78.8084C112.061 78.7216 111.634 78.6388 112.658 79.3004L112.822 80.0824C111.22 82.1862 104.607 82.2912 101.925 82.2241C100.873 81.1987 100.245 80.5837 99.0623 79.7242C97.5129 79.9374 98.9291 80.4094 96.1693 81.1149C96.2979 80.6608 96.4213 80.2871 96.5773 79.842C94.1044 79.8154 91.9372 79.0696 89.3277 79.514C86.5403 79.9887 84.0729 78.9574 81.4082 78.048L80.3041 76.6383C75.2691 77.8464 72.0298 86.9011 66.6173 87.6197C70.9082 83.6243 74.8936 79.232 79.6477 75.7631C80.5378 75.1136 81.3195 74.2879 82.067 73.4837Z"/><path fill="#766B53" transform="matrix(0.3861 0 0 0.3861 -3.86099 -1.54443)" d="M182.622 174.026C187.001 176.619 187.163 172.836 189.681 172.459C192.956 171.969 194.406 171.438 197.71 170.106L198.171 170.404C198.107 171.881 198.087 172.508 198.283 173.963L198.812 174.314L199.303 173.969L199.706 171.52C200.329 173.647 199.914 174.493 199.015 176.54C197.639 177.281 197.407 177.365 195.857 177.422C192.661 177.867 191.212 177.554 188.138 176.64C185.245 175.164 184.777 176.398 182.622 174.026Z"/><path fill="#544A40" transform="matrix(0.3861 0 0 0.3861 -3.86099 -1.54443)" d="M109.315 53.0978C108.521 55.0883 107.404 55.035 106.771 56.1312C109.63 56.6303 114.925 51.5744 116.932 59.8174C114.738 61.1836 109.98 60.6766 107.2 60.6121C105.977 59.5053 104.666 58.5729 104.327 56.937C106.273 55.1714 107.106 54.5129 109.315 53.0978Z"/><defs><linearGradient id="gradient_3" gradientUnits="userSpaceOnUse" x1="202.9973" y1="179.56436" x2="203.54631" y2="172.18164"><stop offset="0" stop-color="#5A5246"/><stop offset="1" stop-color="#766B59"/></linearGradient></defs><path fill="url(#gradient_3)" transform="matrix(0.3861 0 0 0.3861 -3.86099 -1.54443)" d="M205.696 175.403C205.417 173.349 205.584 172.543 203.186 172.314C202.864 172.786 202.967 173.137 203.011 173.718L202.577 173.948C202.084 172.962 202.271 173.103 202.445 171.807L202.96 171.385C208.076 173.805 205.212 169.284 209.581 176.217C209.893 177.052 210.423 177.302 211.165 177.826C206.314 179.623 206.795 179.299 202.043 180.305C200.594 179.755 199.163 180.08 197.51 179.977L197.306 179.963C196.46 178.905 196.365 178.685 195.857 177.422C197.407 177.365 197.639 177.281 199.015 176.54C201.509 177.626 203.708 177.564 205.696 175.403Z"/><path fill="#675D4E" transform="matrix(0.3861 0 0 0.3861 -3.86099 -1.54443)" d="M117.989 70.9401C118.054 71.3957 118.122 71.5708 118.251 72.0027C120.181 72.5292 123.762 72.1444 125.794 71.6551C126.433 71.5014 126.547 70.5516 126.805 69.7751C128.37 68.9334 129.624 70.162 131.357 69.405C131.057 67.7735 130.556 66.6717 131.753 65.495C133.447 65.6281 133.786 67.9256 134.89 67.9975C137.685 68.1793 141.533 67.3027 143.588 70.1354L143.403 70.6916C141.537 71.2994 130.175 68.6702 127.341 70.428C126.942 70.6759 127.305 71.7439 126.067 72.6768C119.844 73.5306 118.072 73.0594 112.535 71.1572L112.27 70.5245C114.503 70.6004 115.717 71.9658 117.365 71.5406L117.989 70.9401Z"/><path fill="#736758" transform="matrix(0.3861 0 0 0.3861 -3.86099 -1.54443)" d="M174.131 175.189L174.509 175.212C175.413 176.008 178.012 177.416 179.199 177.164C179.739 175.478 177.337 175.071 177.448 172.71C179.06 171.574 179.521 173.57 182.149 173.54L182.622 174.026C184.777 176.398 185.245 175.164 188.138 176.64C186.156 178.096 188.375 178.468 186.012 179.237L185.625 178.856C185.284 178.178 185.174 178.176 184.469 177.803C181.114 177.885 182.025 181.967 178.944 178.073C178.827 177.926 175.599 176.992 174.965 176.778C174.708 176.238 174.416 175.716 174.131 175.189Z"/><path fill="#675D4E" transform="matrix(0.3861 0 0 0.3861 -3.86099 -1.54443)" d="M209.581 176.217C216.021 166.302 215.296 179.543 222.753 173.494C222.732 173.84 220.487 176.271 220.017 176.864C217.389 176.589 218.424 175.674 215.375 176.503C213.528 177.42 212.98 176.75 211.165 177.826C210.423 177.302 209.893 177.052 209.581 176.217Z"/><path fill="#736758" transform="matrix(0.3861 0 0 0.3861 -3.86099 -1.54443)" d="M214.144 175.853L214.931 175.557L215.375 176.503L214.059 176.631L213.886 176.224L214.144 175.853Z"/><path fill="#675D4E" transform="matrix(0.3861 0 0 0.3861 -3.86099 -1.54443)" d="M121.676 168.165C122.867 167.589 122.37 167.628 123.548 167.931C123.82 168.312 124.209 168.788 124.332 169.217L126.957 168.262C128.42 169.146 127.647 169.953 128.841 170.851C129.322 171.213 129.824 171.582 130.308 171.942L129.678 173.331C126.9 174.022 124.682 170.821 121.162 172.958C121.203 172.756 121.607 171.871 121.714 171.625C121.264 169.727 121.654 169.733 122.856 168.557L121.676 168.165Z"/><path fill="#736758" transform="matrix(0.3861 0 0 0.3861 -3.86099 -1.54443)" d="M121.676 168.165C122.867 167.589 122.37 167.628 123.548 167.931C123.82 168.312 124.209 168.788 124.332 169.217L124.469 170.08C125.424 170.73 125.7 170.885 126.449 171.787C125.534 172.273 122.765 171.865 121.714 171.625C121.264 169.727 121.654 169.733 122.856 168.557L121.676 168.165Z"/><path fill="#736758" transform="matrix(0.3861 0 0 0.3861 -3.86099 -1.54443)" d="M199.706 171.52L199.876 170.69L200.437 170.44C202.076 171.808 200.497 173.035 201.766 174.901C203.247 175.175 204.193 175.295 205.696 175.403C203.708 177.564 201.509 177.626 199.015 176.54C199.914 174.493 200.329 173.647 199.706 171.52Z"/><path fill="#877D62" transform="matrix(0.3861 0 0 0.3861 -3.86099 -1.54443)" d="M131.925 155.201C134.005 154.883 135.848 154.849 136.386 157.445C136.212 158.267 136.014 158.918 135.275 159.429C134.672 158.132 133.063 156.883 131.925 155.201Z"/><path fill="#655042" transform="matrix(0.3861 0 0 0.3861 -3.86099 -1.54443)" d="M117.362 158.377C120.162 158.788 119.903 162.79 117.471 163.455C116.992 161.604 117.147 160.211 117.362 158.377Z"/><path fill="#675D4E" transform="matrix(0.3861 0 0 0.3861 -3.86099 -1.54443)" d="M111.454 126.469C112.778 127.294 112.894 127.655 113.561 129.1L113.464 129.982C112.338 130.434 112.686 130.31 111.366 130.073L110.415 128.225L111.454 126.469Z"/><path fill="#544A40" transform="matrix(0.3861 0 0 0.3861 -3.86099 -1.54443)" d="M74.6051 83.7972C77.1365 85.1177 83.5393 84.9249 86.2889 86.5291C86.4111 87.0983 86.3168 87.7029 86.2677 88.2894C87.6304 88.4048 90.6176 86.6339 92.6681 86.628C95.3174 86.6204 104.46 90.1619 105.557 92.426L105.032 93.3059L105.669 92.894C104.905 93.425 104.788 93.4259 103.854 93.3701C99.7346 92.4925 98.0328 92.0915 95.0858 89.4027C93.7457 89.8053 95.5392 90.1553 94.4589 91.785C89.7937 92.2702 74.9493 90.8696 71.8938 87.2538C71.5167 86.0106 71.4995 86.5139 71.8991 85.3442C72.9085 84.288 73.1845 84.2181 74.6051 83.7972Z"/><path fill="#675D4E" transform="matrix(0.3861 0 0 0.3861 -3.86099 -1.54443)" d="M136.49 116.146C138.66 114.633 141.342 111.815 143.79 111.583C145.53 112.36 144.933 113.589 144.352 115.076L144.742 116.347C149.104 115.79 147.71 114.034 150.942 116.097L151.393 117.199C150.961 117.443 150.738 117.601 150.247 117.72C146.958 118.089 145.774 119.791 143.032 117.883L142.415 118.062L141.656 119.772L140.941 119.997C137.565 117.921 132.03 117.973 131.047 114.334C131.41 112.233 132.398 111.834 134.372 112.198C135.66 113.092 135.815 114.52 136.49 116.146Z"/><path fill="#766B53" transform="matrix(0.3861 0 0 0.3861 -3.86099 -1.54443)" d="M136.49 116.146C138.66 114.633 141.342 111.815 143.79 111.583C145.53 112.36 144.933 113.589 144.352 115.076L144.742 116.347C143.929 116.023 137.703 116.101 136.49 116.146Z"/><path fill="#766B53" transform="matrix(0.3861 0 0 0.3861 -3.86099 -1.54443)" d="M149.255 78.8641C150.027 79.1432 158.252 80.9459 158.761 80.8343C159.699 80.6285 160.321 79.0072 161.861 78.8873C163.403 78.7672 164.972 80.0915 166.033 81.0495C166.239 81.2359 166.175 81.6172 166.19 81.8926L165.805 82.2855C162.192 82.1741 163.723 81.8687 160.728 83.9107C160.408 84.1288 158.166 82.9296 157.621 82.5967C155.632 81.3832 150.288 83.162 148.475 82.2209C149.102 82.0833 149.248 82.1062 149.672 81.6649C149.844 79.7955 150.033 80.359 149.255 78.8641Z"/><path fill="#766B53" transform="matrix(0.3861 0 0 0.3861 -3.86099 -1.54443)" d="M211.585 113.664C214.654 112.614 215.228 113.184 217.286 115.587C217.373 116.563 217.602 117.659 217.117 118.473C216.294 118.777 213.409 117.792 211.48 117.634C210.571 117.629 209.67 117.709 208.872 117.285C208.066 115.308 209.887 114.275 211.585 113.664Z"/><path fill="#736758" transform="matrix(0.3861 0 0 0.3861 -3.86099 -1.54443)" d="M211.585 113.664C214.654 112.614 215.228 113.184 217.286 115.587L216.595 116.369C215.29 116.381 214.038 116.472 212.799 116.055C211.704 115.013 212.022 115.297 211.585 113.664Z"/><path fill="#877D62" transform="matrix(0.3861 0 0 0.3861 -3.86099 -1.54443)" d="M217.286 115.587C217.373 116.563 217.602 117.659 217.117 118.473C216.294 118.777 213.409 117.792 211.48 117.634C213.856 117.389 214.407 117.318 216.595 116.369L217.286 115.587Z"/><path fill="#736758" transform="matrix(0.3861 0 0 0.3861 -3.86099 -1.54443)" d="M138.005 152.456L138.668 152.767C139.335 153.525 139.433 155.59 139.573 156.692C140.965 156.894 143.98 157.24 144.92 158.098C145.168 160.897 145.71 160.376 147.549 162.103C147.403 162.981 147.372 162.767 146.483 163.415C145.442 162.976 144.179 162.53 143.351 161.796C143.332 161.54 143.305 161.286 143.269 161.033C142.777 157.637 139.444 157.641 138.096 156.626C137.493 155.299 137.822 153.914 138.005 152.456Z"/><path fill="#736758" transform="matrix(0.3861 0 0 0.3861 -3.86099 -1.54443)" d="M150.942 116.097C152.375 114.924 156.692 114.103 158.038 115.704C157.929 117.189 158.182 116.885 157.307 117.746L155.204 117.856C154.914 118.35 154.663 118.732 154.337 119.202L153.642 119.38C151.889 117.746 152.444 117.963 150.247 117.72C150.738 117.601 150.961 117.443 151.393 117.199L150.942 116.097Z"/><path fill="#736758" transform="matrix(0.3861 0 0 0.3861 -3.86099 -1.54443)" d="M123.823 109.837C126.115 110.746 124.753 112.162 126.031 112.168C127.786 112.176 128.331 111.458 130.189 112.395C130.795 114.169 130.287 115.327 128.462 115.918C126.631 114.788 128.922 114.017 128.369 112.204C123.553 113.577 126.957 114.105 125.061 116.183C124.054 116.487 124.422 116.451 123.274 115.881C123.527 114.356 124.132 115.028 123.745 113.3C122.857 113.147 122.482 112.585 121.834 111.911L122.07 111.713L123.401 112.704C123.912 112.07 123.783 110.799 123.823 109.837Z"/><path fill="#877D62" transform="matrix(0.3861 0 0 0.3861 -3.86099 -1.54443)" d="M222.459 142.309C223.435 142.354 224.291 142.787 225.379 142.969C228.516 143.494 230.399 142.592 231.418 145.927C229.502 146.696 226.701 146.329 224.873 145.339C223.009 144.331 223.062 144.174 222.459 142.309Z"/><path fill="#736758" transform="matrix(0.3861 0 0 0.3861 -3.86099 -1.54443)" d="M146.478 142.888C148.368 142.863 150.395 143.853 151.674 143.834C153.812 143.802 155.202 142.471 157.737 143.436L157.851 144.024L157.34 144.416C154.765 146.852 153.839 145.79 150.428 145.028C147.903 144.464 146.818 145.428 146.478 142.888Z"/><path fill="#877D62" transform="matrix(0.3861 0 0 0.3861 -3.86099 -1.54443)" d="M153.602 154.818C153.909 154.832 154.153 154.862 154.45 154.95C155.316 155.207 155.272 155.36 155.685 156.147C155.679 158.368 155.047 159.656 152.801 160.036C151.337 159.461 151.596 159.216 150.789 157.507C149.546 157.391 149.089 157.785 147.324 157.56C150.209 157.586 152.373 157.445 153.602 154.818Z"/><path fill="#877D62" transform="matrix(0.3861 0 0 0.3861 -3.86099 -1.54443)" d="M181.108 89.5976C182.93 89.5665 184.793 89.3055 185.743 91.0844C185.268 92.4905 185.305 92.1201 183.798 93.1218C183.043 93.7017 182.927 93.8187 181.99 93.9172C180.026 92.9281 180.364 91.4305 181.108 89.5976Z"/><path fill="#736758" transform="matrix(0.3861 0 0 0.3861 -3.86099 -1.54443)" d="M107.799 104.15C109.41 104.043 114.914 105.371 115.743 106.371L115.203 107.216C111.937 106.662 107.635 109.233 107.799 104.15Z"/><path fill="#877D62" transform="matrix(0.3861 0 0 0.3861 -3.86099 -1.54443)" d="M141.538 104.063C143.131 103.923 144.677 103.737 145.708 105.197C145.828 106.703 145.955 106.135 145.165 107.454C144.522 107.885 144.056 108.094 143.368 108.419C141.445 107.782 140.815 105.869 141.538 104.063Z"/><path fill="#544A40" transform="matrix(0.3861 0 0 0.3861 -3.86099 -1.54443)" d="M91.9515 81.5527C92.5504 82.2062 92.6635 82.303 92.8546 83.1613C91.6569 85.3168 90.5921 83.4437 87.2292 84.8117L87.092 84.8685C86.4146 83.5307 86.3694 83.9033 86.48 82.571C88.5777 81.2997 88.73 83.3709 91.9515 81.5527Z"/><path fill="#675D4E" transform="matrix(0.3861 0 0 0.3861 -3.86099 -1.54443)" d="M117.685 103.02L118.482 102.895C120.139 104.463 121.134 103.367 122.306 104.721L121.932 106.26C120.127 107.214 117.535 106.407 116.908 104.458L117.685 103.02Z"/><path fill="#877D62" transform="matrix(0.3861 0 0 0.3861 -3.86099 -1.54443)" d="M169.507 152.138C170.712 153.399 171.057 155.452 170.101 156.962C168.716 157.884 169.034 157.599 167.081 157.668C166.477 156.616 166.289 156.264 166.668 155.166C167.543 155.028 168.911 154.795 169.544 154.168L169.507 152.138Z"/><path fill="#736758" transform="matrix(0.3861 0 0 0.3861 -3.86099 -1.54443)" d="M230.218 162.792C230.349 162.93 230.471 163.071 230.566 163.237C231.224 164.381 231.613 168.71 231.151 170.028C230.895 170.757 229.841 170.91 229.17 171.164C228.717 170.66 228.318 170.097 227.905 169.559C227.932 168.107 229.648 167.445 230.512 166.224C230.674 165.012 230.466 163.98 230.218 162.792Z"/><path fill="#877D62" transform="matrix(0.3861 0 0 0.3861 -3.86099 -1.54443)" d="M133.462 130.227C134.654 130.398 135.314 131.164 136.015 132.038C136.382 133.689 136.459 133.05 135.548 134.611C134.405 134.366 133.254 134.198 132.544 133.295C132.42 131.732 132.697 131.774 133.462 130.227Z"/><path fill="#655042" transform="matrix(0.3861 0 0 0.3861 -3.86099 -1.54443)" d="M103.865 100.385C104.919 101.036 106.503 104.303 106.406 105.678C105.473 105.647 105.035 105.565 104.145 105.395C102.399 103.777 102.345 102.312 103.865 100.385Z"/><path fill="#544A40" transform="matrix(0.3861 0 0 0.3861 -3.86099 -1.54443)" d="M115.973 77.4197C117.439 77.8429 119.491 79.1948 118.962 80.9417C117.222 81.1938 116.419 81.476 115.279 80.0727C115.235 78.7883 115.391 78.5729 115.973 77.4197Z"/><path fill="#766B53" transform="matrix(0.3861 0 0 0.3861 -3.86099 -1.54443)" d="M198.239 164.824C199.326 165.158 200.414 165.413 201.296 166.165C201.695 167.245 201.501 167.635 201.263 168.74C201.157 168.755 201.051 168.77 200.945 168.777C199.882 168.852 199.239 168.45 198.483 167.783C197.936 166.696 198.02 166 198.239 164.824Z"/><path fill="#736758" transform="matrix(0.3861 0 0 0.3861 -3.86099 -1.54443)" d="M195.354 111.9C196.821 111.897 197.565 111.803 198.843 112.58C199.769 113.915 199.537 113.337 199.709 114.996C198.307 115.03 197.998 115.043 196.665 114.649C195.665 113.911 195.629 113.128 195.354 111.9Z"/><path fill="#736758" transform="matrix(0.3861 0 0 0.3861 -3.86099 -1.54443)" d="M176.421 103.093C178.73 103.322 180.791 103.09 181.593 105.37C180.103 105.538 179.15 105.737 177.691 105.312C176.55 104.279 176.891 104.71 176.421 103.093Z"/><path fill="#877D62" transform="matrix(0.3861 0 0 0.3861 -3.86099 -1.54443)" d="M181.363 148.458C184.172 148.925 184.458 152.439 183.951 154.688C183.677 154.319 183.294 153.318 183.007 152.785C181.843 150.623 181.144 150.816 181.363 148.458Z"/><path fill="#877D62" transform="matrix(0.3861 0 0 0.3861 -3.86099 -1.54443)" d="M184.787 159.924C184.381 159.722 184.138 159.293 184.174 158.84C184.209 158.387 184.517 158.002 184.95 157.866C185.384 157.731 185.856 157.873 186.143 158.224C186.43 158.576 186.475 159.067 186.256 159.465C187.006 160.606 187.122 160.768 187.103 162.121L186.809 162.484C186.045 161.665 185.972 161.543 185.575 160.494L184.787 159.924Z"/><path fill="#766B53" transform="matrix(0.3861 0 0 0.3861 -3.86099 -1.54443)" d="M184.787 159.924C184.381 159.722 184.138 159.293 184.174 158.84C184.209 158.387 184.517 158.002 184.95 157.866C185.384 157.731 185.856 157.873 186.143 158.224C186.43 158.576 186.475 159.067 186.256 159.465C185.968 159.987 185.321 160.189 184.787 159.924Z"/><path fill="#736758" transform="matrix(0.3861 0 0 0.3861 -3.86099 -1.54443)" d="M170.862 165.514C171.747 165.479 172.495 166.164 172.536 167.049C172.578 167.934 171.898 168.687 171.014 168.734C170.121 168.783 169.359 168.094 169.317 167.201C169.275 166.307 169.969 165.55 170.862 165.514Z"/><path fill="#736758" transform="matrix(0.3861 0 0 0.3861 -3.86099 -1.54443)" d="M127.903 128.304C129.167 128.38 129.655 128.373 130.385 129.141C130.234 130.457 130.046 130.336 129.17 131.563C127.911 131.225 127.316 130.756 127.059 129.565L127.903 128.304Z"/><path fill="#877D62" transform="matrix(0.3861 0 0 0.3861 -3.86099 -1.54443)" d="M241.47 148.692C243.013 148.915 242.514 148.673 243.696 149.558C244.278 150.736 244.331 150.892 244.248 152.199C242.614 152.077 242.984 152.331 241.8 151.453C241.277 150.464 241.408 149.811 241.47 148.692Z"/><path fill="#736758" transform="matrix(0.3861 0 0 0.3861 -3.86099 -1.54443)" d="M147.814 104.114C149.189 104.303 149.248 104.159 150.039 105.224C150.218 106.469 149.982 107.134 149.69 108.364L148.599 107.871C147.875 106.848 147.912 105.394 147.814 104.114Z"/><path fill="#736758" transform="matrix(0.3861 0 0 0.3861 -3.86099 -1.54443)" d="M176.368 118.002C175.576 118.336 175.286 118.228 174.437 118.123C173.461 117.197 173.676 117.657 173.554 116.42L174.056 115.842C175.558 115.717 175.194 115.818 176.73 116.708L176.368 118.002Z"/><path fill="#736758" transform="matrix(0.3861 0 0 0.3861 -3.86099 -1.54443)" d="M158.332 160.562L158.525 160.643C159.089 161.604 159.221 161.872 159.137 162.983L158.266 163.502C157.192 163.1 156.775 163.055 156.072 162.121C156.663 161.033 157.21 161.022 158.332 160.562Z"/><path fill="#766B53" transform="matrix(0.3861 0 0 0.3861 -3.86099 -1.54443)" d="M176.73 116.708L177.373 116.797C177.917 116.137 178.276 115.572 179.084 115.271C179.949 115.696 179.68 115.502 180.075 116.653C179.499 118.235 177.911 117.945 176.368 118.002L176.73 116.708Z"/><path fill="#655042" transform="matrix(0.3861 0 0 0.3861 -3.86099 -1.54443)" d="M104.178 108.299C105.109 108.304 105.233 108.346 106.103 108.684C106.727 110.026 106.454 110.188 106.29 111.819C104.781 111.458 104.092 109.731 104.178 108.299Z"/><path fill="#766B53" transform="matrix(0.3861 0 0 0.3861 -3.86099 -1.54443)" d="M173.452 103.696C173.804 103.785 174.342 104.001 174.702 104.134C175.507 105.085 175.373 106.006 175.39 107.269C174.705 107.09 174.297 106.849 173.674 106.531C173.043 105.276 173.296 105.333 173.452 103.696Z"/><path fill="#675D4E" transform="matrix(0.3861 0 0 0.3861 -3.86099 -1.54443)" d="M129.486 75.8252C130.46 75.8916 130.689 75.8828 131.613 76.3174C132.074 77.4615 131.826 77.4441 131.502 78.8945C130.996 78.7401 130.756 78.5623 130.297 78.3031C129.553 77.311 129.575 77.0694 129.486 75.8252Z"/><path fill="#675D4E" transform="matrix(0.3861 0 0 0.3861 -3.86099 -1.54443)" d="M158.794 104.137C160.786 103.777 161.833 103.177 162.812 105.176C160.7 105.529 159.974 106.079 158.794 104.137Z"/><path fill="#766B53" transform="matrix(0.3861 0 0 0.3861 -3.86099 -1.54443)" d="M158.458 128.431C159.755 129.308 159.554 131.32 158.825 132.536L157.897 131.755C157.488 130.638 158.044 129.566 158.458 128.431Z"/><path fill="#877D62" transform="matrix(0.3861 0 0 0.3861 -3.86099 -1.54443)" d="M153.082 122.7C153.56 122.271 154.289 122.29 154.744 122.743C155.199 123.196 155.22 123.926 154.793 124.405C154.494 124.74 154.036 124.882 153.601 124.774C153.166 124.667 152.826 124.328 152.717 123.893C152.608 123.459 152.749 122.999 153.082 122.7Z"/><path fill="#675D4E" transform="matrix(0.3861 0 0 0.3861 -3.86099 -1.54443)" d="M130.397 150.629C130.972 150.801 131.692 151.118 132.262 151.349L132.519 152.094L131.969 153.196C130.859 152.815 130.103 152.676 129.699 151.635L130.397 150.629Z"/><path fill="#736758" transform="matrix(0.3861 0 0 0.3861 -3.86099 -1.54443)" d="M151.481 103.319C152.061 103.46 152.332 103.673 152.846 103.985C153.227 105.317 153.011 105.169 152.564 106.723L151.821 106.369C151.174 105.307 151.366 104.566 151.481 103.319Z"/><path fill="#766B53" transform="matrix(0.3861 0 0 0.3861 -3.86099 -1.54443)" d="M115.609 108.275C116.018 108.367 116.573 108.643 116.967 108.82L117.119 109.579L116.502 110.491L114.838 109.655L114.655 109.055L115.609 108.275Z"/><path fill="#766B53" transform="matrix(0.3861 0 0 0.3861 -3.86099 -1.54443)" d="M136.59 149.521C136.834 149.291 137.185 149.212 137.505 149.317C137.824 149.422 138.06 149.693 138.121 150.024C138.181 150.355 138.055 150.692 137.793 150.903C137.41 151.211 136.851 151.162 136.528 150.791C136.205 150.42 136.232 149.859 136.59 149.521Z"/><path fill="#877D62" transform="matrix(0.3861 0 0 0.3861 -3.86099 -1.54443)" d="M212.154 159.747C212.399 159.328 212.937 159.184 213.358 159.425C213.78 159.667 213.929 160.203 213.692 160.627C213.452 161.058 212.906 161.209 212.479 160.965C212.051 160.72 211.905 160.173 212.154 159.747Z"/><path fill="#766B53" transform="matrix(0.3861 0 0 0.3861 -3.86099 -1.54443)" d="M191.32 113.562L191.74 113.486C192.199 114.211 191.947 114.358 191.715 115.445C191.122 114.981 191.03 114.919 190.76 114.22L191.32 113.562Z"/><path fill="#736758" transform="matrix(0.3861 0 0 0.3861 -3.86099 -1.54443)" d="M136.821 89.3066C137.329 89.043 137.047 89.1096 137.71 89.2449L137.438 89.9037C136.71 90.1424 137.065 90.1519 136.341 89.8509L136.821 89.3066Z"/><defs><linearGradient id="gradient_4" gradientUnits="userSpaceOnUse" x1="227.29591" y1="238.02473" x2="186.96323" y2="188.48799"><stop offset="0" stop-color="#8D7042"/><stop offset="1" stop-color="#B49964"/></linearGradient></defs><path fill="url(#gradient_4)" transform="matrix(0.3861 0 0 0.3861 -3.86099 -1.54443)" d="M187.562 193.042C200.922 192.28 224.053 189.885 236.56 185.608C238.665 184.888 241.263 182.032 242.972 180.574C242.548 192.554 241.848 203.721 239.584 215.525C238.327 222.079 238.388 230.175 232.792 234.902C223.193 243.01 209.462 246.712 197.342 249.2C191.833 250.299 182.056 250.829 177.36 252.212C173.225 253.315 165.252 256.817 163.749 251.45C166.199 247.122 166.051 207.006 165.883 199.414C166.008 197.037 165.915 193.837 165.918 191.397C169.185 191.763 175.878 191.105 177.958 193.209C178.674 194.423 178.469 195.869 178.424 197.301C179.528 195.695 179.39 195.137 179.464 193.242C182.157 193.27 184.869 193.143 187.562 193.042Z"/><defs><linearGradient id="gradient_5" gradientUnits="userSpaceOnUse" x1="174.99327" y1="252.3801" x2="167.4269" y2="192.70847"><stop offset="0" stop-color="#8F836D"/><stop offset="1" stop-color="#B7AA8D"/></linearGradient></defs><path fill="url(#gradient_5)" transform="matrix(0.3861 0 0 0.3861 -3.86099 -1.54443)" d="M165.918 191.397C169.185 191.763 175.878 191.105 177.958 193.209C178.674 194.423 178.469 195.869 178.424 197.301C178.094 199.104 178.18 200.943 178.152 202.768C178.016 211.647 178.083 220.531 177.896 229.409C177.764 235.703 176.83 241.953 176.581 248.239C176.516 249.78 176.644 250.842 177.36 252.212C173.225 253.315 165.252 256.817 163.749 251.45C166.199 247.122 166.051 207.006 165.883 199.414C166.008 197.037 165.915 193.837 165.918 191.397Z"/><defs><linearGradient id="gradient_6" gradientUnits="userSpaceOnUse" x1="106.84292" y1="212.89076" x2="136.55052" y2="223.35844"><stop offset="0" stop-color="#24150C"/><stop offset="1" stop-color="#6D4932"/></linearGradient></defs><path fill="url(#gradient_6)" transform="matrix(0.3861 0 0 0.3861 -3.86099 -1.54443)" d="M114.647 187.157C118.539 184.823 132.415 188.124 132.845 186.225C132.918 185.904 132.95 185.566 132.991 185.24L133.553 185.117L134.015 186.528C135.438 187.089 137.772 185.209 138.3 186.731C139.051 188.896 139.488 199.992 139.063 201.704C139.68 217.948 138.86 234.744 139.513 250.714C135.846 250.658 132.181 250.508 128.521 250.265C124.791 250.241 120.112 250.318 116.473 250.033C115.987 245.552 116.087 239.132 115.831 234.449C115.133 221.654 114.988 209.008 114.979 196.194C114.914 193.163 114.871 190.183 114.647 187.157Z"/><defs><linearGradient id="gradient_7" gradientUnits="userSpaceOnUse" x1="116.55576" y1="208.44951" x2="150.94411" y2="229.45277"><stop offset="0" stop-color="#573A2C"/><stop offset="1" stop-color="#AE7B51"/></linearGradient></defs><path fill="url(#gradient_7)" transform="matrix(0.3861 0 0 0.3861 -3.86099 -1.54443)" d="M128.521 250.265C128.584 243.315 128.154 190.161 129.11 188.677C130.224 188 135.081 187.928 136.769 187.787C137.959 189.24 137.699 195.574 137.996 197.627C138.171 198.837 138.709 200.508 139.063 201.704C139.68 217.948 138.86 234.744 139.513 250.714C135.846 250.658 132.181 250.508 128.521 250.265Z"/><defs><linearGradient id="gradient_8" gradientUnits="userSpaceOnUse" x1="160.21693" y1="222.82898" x2="138.05977" y2="227.1353"><stop offset="0" stop-color="#80573A"/><stop offset="1" stop-color="#A77855"/></linearGradient></defs><path fill="url(#gradient_8)" transform="matrix(0.3861 0 0 0.3861 -3.86099 -1.54443)" d="M142.162 199.014C142.353 195.555 140.656 189.453 142.077 187.059C143.898 186.667 144.046 187.588 146.705 187.446C150.494 187.244 162.015 185.082 165.29 186.694L165.14 187.068C165.346 189.914 165.443 197.278 165.883 199.414C166.051 207.006 166.199 247.122 163.749 251.45C163.687 251.017 163.514 250.748 163.318 250.36C161.909 249.948 160.229 250.286 158.743 250.466C152.583 251.077 147.984 251.1 141.856 250.789C142.269 235.193 142.079 219.056 142.068 203.429L142.162 199.014Z"/><defs><linearGradient id="gradient_9" gradientUnits="userSpaceOnUse" x1="166.31874" y1="217.74132" x2="156.15688" y2="218.32558"><stop offset="0" stop-color="#1F130D"/><stop offset="1" stop-color="#452C1B"/></linearGradient></defs><path fill="url(#gradient_9)" transform="matrix(0.3861 0 0 0.3861 -3.86099 -1.54443)" d="M160.18 186.881C161.196 186.904 164.312 186.922 165.14 187.068C165.346 189.914 165.443 197.278 165.883 199.414C166.051 207.006 166.199 247.122 163.749 251.45C163.687 251.017 163.514 250.748 163.318 250.36C161.909 249.948 160.229 250.286 158.743 250.466C155.189 245.062 157.321 202.084 155.845 199.611C154.88 200.459 154.755 203.571 154.635 204.936C154.196 200.646 155.396 192.358 155.265 186.969L160.18 186.881Z"/><defs><linearGradient id="gradient_10" gradientUnits="userSpaceOnUse" x1="151.87589" y1="187.90312" x2="143.09573" y2="198.24312"><stop offset="0" stop-color="#412A1E"/><stop offset="1" stop-color="#674730"/></linearGradient></defs><path fill="url(#gradient_10)" transform="matrix(0.3861 0 0 0.3861 -3.86099 -1.54443)" d="M142.162 199.014C142.353 195.555 140.656 189.453 142.077 187.059C143.898 186.667 144.046 187.588 146.705 187.446C150.494 187.244 162.015 185.082 165.29 186.694L165.14 187.068C164.312 186.922 161.196 186.904 160.18 186.881C157.72 186.755 155.618 186.729 153.153 186.756C152.714 192.143 153.782 203.817 153.351 206.347C153.088 204.14 152.945 201.736 152.771 199.506C151.672 199.358 150.165 198.962 149.171 199.297L148.829 200.069L147.844 199.116C146.02 198.614 144.067 198.885 142.162 199.014Z"/><path fill="#453B31" transform="matrix(0.3861 0 0 0.3861 -3.86099 -1.54443)" d="M153.153 186.756C155.618 186.729 157.72 186.755 160.18 186.881L155.265 186.969C155.396 192.358 154.196 200.646 154.635 204.936C154.715 214.013 154.607 222.22 153.882 231.255C152.995 229.66 153.329 209.35 153.351 206.347C153.782 203.817 152.714 192.143 153.153 186.756Z"/><path fill="#966150" transform="matrix(0.3861 0 0 0.3861 -3.86099 -1.54443)" d="M142.162 199.014C144.067 198.885 146.02 198.614 147.844 199.116L148.829 200.069C149.098 201.079 148.507 203.753 148.352 205.15L147.781 201.453C146.081 201.48 144.071 201.236 142.771 202.099L142.068 203.429L142.162 199.014Z"/><defs><linearGradient id="gradient_11" gradientUnits="userSpaceOnUse" x1="98.801399" y1="227.4688" x2="120.001" y2="222.58763"><stop offset="0" stop-color="#5D5144"/><stop offset="1" stop-color="#827860"/></linearGradient></defs><path fill="url(#gradient_11)" transform="matrix(0.3861 0 0 0.3861 -3.86099 -1.54443)" d="M102.983 197.679C104.68 197.166 112.99 194.904 114.209 194.988L114.979 196.194C114.988 209.008 115.133 221.654 115.831 234.449C116.087 239.132 115.987 245.552 116.473 250.033C116.386 251.322 116.449 252.432 115.608 253.408C112.401 255.396 103.791 252.643 100.097 251.634C101.84 250.899 101.666 251.897 103.189 250.8C104.922 245.885 102.456 225.608 102.282 219.369C102.148 214.533 102.127 208.878 102.162 203.878C103.259 201.771 102.996 200.074 102.983 197.679Z"/><defs><linearGradient id="gradient_12" gradientUnits="userSpaceOnUse" x1="65.275612" y1="116.50976" x2="69.598969" y2="97.423393"><stop offset="0" stop-color="#3A342D"/><stop offset="1" stop-color="#726457"/></linearGradient></defs><path fill="url(#gradient_12)" transform="matrix(0.3861 0 0 0.3861 -3.86099 -1.54443)" d="M57.8119 95.7708L58.4122 96.269L59.4838 95.5466L60.0906 95.7544C60.2278 96.8371 61.6998 98.5293 62.42 99.4894C64.5562 99.7953 70.656 100.212 71.2094 102.311L72.0504 101.446L72.15 102.921L72.4189 102.869L72.8434 100.996C72.9047 101.856 72.9017 102.59 73.2623 103.381C74.5308 103.468 75.9779 103.699 77.0723 103.025C78.4796 104.504 79.8483 106.019 81.177 107.569C82.9129 107.481 81.9388 106.44 83.3461 106.805C84.838 108.836 84.6456 109.494 85.6424 111.01L85.8453 111.481C84.7225 112.516 84.4673 113.051 82.7475 112.752C80.1914 110.964 77.5549 112.29 75.7554 114.384L75.8898 115.269L75.3366 115.77L73.32 115.404C69.893 114.86 65.8823 115.862 63.8607 114.012C61.4124 114.151 58.3119 114.093 55.7885 114.135C55.4522 114.334 54.6708 114.424 54.2457 114.501C52.2503 114.076 50.5626 111.851 49.6138 110.153C48.9965 109.048 49.2753 108.592 49.4244 107.384C51.3201 102.177 53.0715 98.6386 57.8119 95.7708Z"/><path fill="#453B31" transform="matrix(0.3861 0 0 0.3861 -3.86099 -1.54443)" d="M55.7885 114.135C59.1116 112.981 60.7241 111.978 63.8607 114.012C61.4124 114.151 58.3119 114.093 55.7885 114.135Z"/><path fill="#453B31" transform="matrix(0.3861 0 0 0.3861 -3.86099 -1.54443)" d="M186.012 179.237C188.375 178.468 186.156 178.096 188.138 176.64C191.212 177.554 192.661 177.867 195.857 177.422C196.365 178.685 196.46 178.905 197.306 179.963L197.51 179.977C199.163 180.08 200.594 179.755 202.043 180.305L202.677 180.615C207.067 182.781 211.139 181.059 215.736 180.521L215.634 180.933C212.486 182.559 206.154 183.244 203.11 181.753C197.843 179.173 194.987 183.634 191.445 183.463C181.906 183.001 172.212 182.181 162.627 181.942C160.33 181.885 159.396 183.316 157.149 183.332C151.52 183.683 146.071 182.557 140.508 182.695C140.037 182.708 139.52 184.029 139.244 184.565L138.83 184.381L138.741 182.812C135.3 182.804 132.231 182.591 128.808 182.354C127.517 182.978 127.915 182.723 127.2 184.241L126.662 184.396C126.391 183.826 126.245 183.278 126.06 182.676C125.344 182.778 125.049 182.964 124.402 183.272C123.131 182.719 122.679 181.277 121.799 179.823C120.63 179.742 119.45 181.379 117.505 182.223C116.208 182.126 116.393 182.337 115.533 181.633L115.853 180.216C116.465 181.282 116.141 181.082 117.139 181.431C118.865 180.742 121.404 178.993 122.203 177.221L122.821 179.187L123.199 179.303C123.521 179.086 123.846 178.875 124.175 178.669C127.162 176.808 129.464 178.861 132.45 178.52C136.479 178.059 142.282 176.466 146.294 177.384C148.54 179.131 148.866 177.997 149.976 178.85C151.054 179.23 157.054 178.413 158.508 177.57L159.003 178.126L159.358 179.18C160.849 179.756 161.91 179.061 164.227 179.917C167.153 177.761 166.185 178.034 168.821 179.902C169.516 180.394 170.357 179.014 172.12 179.086C172.764 179.853 173.228 180.473 173.81 181.29L174.602 181.392C176.821 177.589 179.472 181.919 182.872 180.282L183.295 179.044C184.269 178.408 184.146 178.648 185.625 178.856L186.012 179.237Z"/><path fill="#655042" transform="matrix(0.3861 0 0 0.3861 -3.86099 -1.54443)" d="M186.012 179.237C188.375 178.468 186.156 178.096 188.138 176.64C191.212 177.554 192.661 177.867 195.857 177.422C196.365 178.685 196.46 178.905 197.306 179.963C192.094 177.822 188.901 182.009 186.012 179.237Z"/><path fill="#544A40" transform="matrix(0.3861 0 0 0.3861 -3.86099 -1.54443)" d="M149.976 178.85C151.054 179.23 157.054 178.413 158.508 177.57L159.003 178.126L159.358 179.18C160.849 179.756 161.91 179.061 164.227 179.917C160.064 179.825 155.886 179.75 151.722 179.565C150.404 179.507 151.008 179.769 149.976 178.85Z"/><path fill="#655042" transform="matrix(0.3861 0 0 0.3861 -3.86099 -1.54443)" d="M112.999 172.429C111.874 170.881 112.615 168.575 113.316 167.036C113.245 169.118 112.678 169.892 113.395 171.65C114.287 171.66 119.004 171.695 119.475 171.948C119.943 173.476 121.824 175.072 123.47 174.943L123.552 174.487C122.357 174.12 122.054 173.831 121.162 172.958C124.682 170.821 126.9 174.022 129.678 173.331L130.308 171.942L131.824 171.851C132.325 172.35 133.058 173.112 133.639 173.482C134.746 174.189 134.905 175.453 135.745 176.204L136.032 175.502L136.986 175.311C137.695 175.821 138.247 176.229 138.919 176.795C139.987 175.172 138.404 175.724 140.193 173.451C145.364 174.359 143.277 176.155 146.294 177.384C142.282 176.466 136.479 178.059 132.45 178.52C129.464 178.861 127.162 176.808 124.175 178.669C123.846 178.875 123.521 179.086 123.199 179.303L122.821 179.187L122.203 177.221C119.354 175.588 112.977 181.44 110.379 173.875C111.04 174.457 111.391 174.856 112.258 175.09C112.945 174.314 112.828 173.627 112.999 172.429Z"/><defs><linearGradient id="gradient_13" gradientUnits="userSpaceOnUse" x1="106.58424" y1="187.62939" x2="109.52346" y2="195.30365"><stop offset="0" stop-color="#43392E"/><stop offset="1" stop-color="#5B5343"/></linearGradient></defs><path fill="url(#gradient_13)" transform="matrix(0.3861 0 0 0.3861 -3.86099 -1.54443)" d="M100.343 188.832C92.9108 189.006 81.2573 188.292 73.6501 188.006C80.7734 187.569 110.347 188.744 114.647 187.157C114.871 190.183 114.914 193.163 114.979 196.194L114.209 194.988C112.99 194.904 104.68 197.166 102.983 197.679C102.996 200.074 103.259 201.771 102.162 203.878C102.277 198.45 102.356 194.265 102.184 188.815L101.991 188.656C101.735 189.812 101.222 192.656 100.673 193.54C100.214 192.519 100.347 190.065 100.343 188.832Z"/><path fill="#655042" transform="matrix(0.3861 0 0 0.3861 -3.86099 -1.54443)" d="M85.6424 111.01C88.6786 111.703 99.8671 109.866 101.718 112.466C101.857 112.661 102.564 114.042 102.757 114.389L102.906 114.663C103.162 113.237 102.917 113.335 103.769 112.452L104.463 112.714C105.898 114.067 106.249 114.425 108.154 115.104C110.742 114.839 109.71 115.911 111.014 117.079C111.443 118.37 111.993 119.574 111.695 120.891C109.93 122.186 106.864 118.969 104.698 118.488C102.088 117.91 102.134 120.203 99.9592 120.25C98.7765 119.689 99.112 119.786 98.4424 118.287C96.3903 117.136 94.0807 119.296 92.125 119.493C90.4049 119.667 90.596 117.753 87.7748 118.326C87.7113 119.067 87.7057 119.18 87.4687 119.88C85.3022 120.015 85.1099 119.88 84.3911 118.003C85.188 118.165 85.407 118.595 86.0886 119.236C86.7462 118.363 87.1822 117.819 87.9286 117.023C89.3867 116.834 89.6719 116.811 91.1083 117.071C91.2945 117.587 91.4242 117.868 91.6674 118.359C93.3862 117.859 96.9164 116.576 98.4782 117.097C98.8042 117.205 99.5268 118.602 99.7196 118.973C101.009 118.966 101.017 118.536 102.206 117.418C103.014 117.366 103.158 117.375 103.848 116.963C103.777 116.335 103.748 116.473 103.325 115.887C102.091 115.479 100.854 116.218 99.257 116.361C96.8106 115.26 96.8256 115.163 96.7227 112.67L96.2256 112.483C95.5045 113.313 95.8842 114.438 95.8324 115.964L95.1065 116.008L94.6359 115.543C94.4796 114.045 94.4955 114.52 95.3258 113.027L95.0731 112.436L93.5444 112.088L92.7217 112.202C91.2007 111.42 90.0649 111.298 88.4303 111.818L87.8347 112.411L87.3762 112.548C86.8584 112.203 86.348 111.847 85.8453 111.481L85.6424 111.01Z"/><path fill="#453B31" transform="matrix(0.3861 0 0 0.3861 -3.86099 -1.54443)" d="M104.463 112.714C105.898 114.067 106.249 114.425 108.154 115.104C107.282 116.306 106.425 117.519 105.583 118.742C103.834 116.138 102.917 115.599 104.463 112.714Z"/><path fill="#453B31" transform="matrix(0.3861 0 0 0.3861 -3.86099 -1.54443)" d="M96.9467 111.955C98.5804 112.039 99.2845 111.994 100.704 112.777C101.679 114.099 101.462 113.516 101.434 115.253C98.6759 115.78 97.8551 114.715 96.9467 111.955Z"/><path fill="#453B31" transform="matrix(0.3861 0 0 0.3861 -3.86099 -1.54443)" d="M165.29 186.694L165.766 187.441C169.475 187.69 178.754 185.713 178.521 191.595C179.34 190.241 179.533 189.957 179.8 188.416C180.953 187.284 186.021 187.201 187.123 187.394C190.535 187.991 208.476 185.736 209.982 186.116L209.746 186.619C200.106 188.278 191.188 188.32 181.515 188.857C180.449 188.917 179.755 190.386 179.778 191.451C181.567 193.454 186.243 191.737 187.848 192.748L187.562 193.042C184.869 193.143 182.157 193.27 179.464 193.242C179.39 195.137 179.528 195.695 178.424 197.301C178.469 195.869 178.674 194.423 177.958 193.209C175.878 191.105 169.185 191.763 165.918 191.397C165.915 193.837 166.008 197.037 165.883 199.414C165.443 197.278 165.346 189.914 165.14 187.068L165.29 186.694Z"/><path fill="#544A40" transform="matrix(0.3861 0 0 0.3861 -3.86099 -1.54443)" d="M85.8453 111.481C86.348 111.847 86.8584 112.203 87.3762 112.548L87.8347 112.411L88.4303 111.818C90.0649 111.298 91.2007 111.42 92.7217 112.202L93.5444 112.088C92.0807 114.074 94.0301 115.363 90.3796 116.461C88.0615 117.158 85.7194 115.75 83.9183 115.948C81.9817 116.161 80.6551 117.353 77.9981 116.587C76.9245 116.277 73.8162 116.701 72.8028 115.764L73.32 115.404L75.3366 115.77L75.8898 115.269L75.7554 114.384C77.5549 112.29 80.1914 110.964 82.7475 112.752C84.4673 113.051 84.7225 112.516 85.8453 111.481Z"/><path fill="#453B31" transform="matrix(0.3861 0 0 0.3861 -3.86099 -1.54443)" d="M75.3366 115.77L75.8898 115.269L75.7554 114.384C77.5549 112.29 80.1914 110.964 82.7475 112.752C83.6109 114.03 83.5394 113.515 83.308 114.853C80.8585 116.97 78.7362 115.264 75.8746 115.815C75.615 115.865 75.5759 115.857 75.3366 115.77Z"/><path fill="#453B31" transform="matrix(0.3861 0 0 0.3861 -3.86099 -1.54443)" d="M87.8347 112.411L88.4303 111.818C90.0649 111.298 91.2007 111.42 92.7217 112.202C92.2382 114.806 90.89 117.035 88.2896 114.53C88.1113 113.794 87.9651 113.164 87.8347 112.411Z"/><path fill="#675D4E" transform="matrix(0.3861 0 0 0.3861 -3.86099 -1.54443)" d="M112.166 162.738C111.521 161.777 111.058 162.339 109.962 160.975C109.681 159.69 109.643 160.203 110.042 159.009C111.26 158.049 111.646 157.662 113.117 157.243C113.385 159.359 115.109 163.219 114.103 164.522C112.762 164.052 113.127 164.124 112.166 162.738Z"/><path fill="#736758" transform="matrix(0.3861 0 0 0.3861 -3.86099 -1.54443)" d="M115.34 132.573C114.519 133.648 114.781 133.65 113.695 134.007C110.825 133.269 107.661 130.336 109.856 127.462L110.018 128.552L110.415 128.225L111.366 130.073L111.397 130.558C113.375 131.544 113.138 130.536 115.34 132.573Z"/><path fill="#736758" transform="matrix(0.3861 0 0 0.3861 -3.86099 -1.54443)" d="M113.316 167.036L112.606 166.524C111.56 166.882 111.48 167.599 110.835 168.8L110.959 168.564C110.545 167.675 110.845 166.169 110.953 165.162L111.444 164.787C114.2 165.897 114.548 167.736 114.558 170.445C114.084 171.063 114.014 171.194 113.395 171.65C112.678 169.892 113.245 169.118 113.316 167.036Z"/><path fill="#675D4E" transform="matrix(0.3861 0 0 0.3861 -3.86099 -1.54443)" d="M110.379 173.875C109.941 173.759 109.837 173.598 109.464 173.3L109.568 172.689L110.575 171.983C112.167 171.828 111.564 171.718 112.999 172.429C112.828 173.627 112.945 174.314 112.258 175.09C111.391 174.856 111.04 174.457 110.379 173.875Z"/><path fill="#655042" transform="matrix(0.3861 0 0 0.3861 -3.86099 -1.54443)" d="M116.075 151.519C117.313 151.782 116.866 151.536 117.755 152.468C118.082 153.559 118.083 154.739 117.351 155.67C116.615 155.36 116.23 155.074 115.576 154.64C115.212 153.289 115.582 152.998 116.075 151.519Z"/><path fill="#655042" transform="matrix(0.3861 0 0 0.3861 -3.86099 -1.54443)" d="M84.7071 157.987C85.3096 157.607 85.5253 157.402 86.213 157.295C86.5753 156.404 86.3761 156.49 85.9791 155.315C85.2005 156.208 84.2724 157.509 83.1925 157.833C81.9065 157.539 82.3386 157.733 81.3938 156.629C81.3866 154.299 83.9076 154.869 82.8386 152.364C83.5476 152.371 83.3037 152.343 83.9813 152.948C84.0127 154.439 83.362 154.956 82.3758 156.32C83.3622 156.837 82.9338 156.786 83.9814 156.537C86.1828 150.928 83.2843 152.219 83.5466 150.196C85.3378 150.199 85.762 152.944 85.9574 154.422C86.1791 153.517 86.5525 151.682 86.9725 150.944L87.9033 150.666C88.912 152.144 87.684 153.082 89.0274 154.482C91.0402 154.588 91.7708 154.35 93.3366 155.37C94.8932 157.812 93.9159 161.068 95.5889 162.599L95.0771 163.118C94.25 163.01 94.3407 163.154 93.8343 162.693C91.7828 164.344 93.1112 166.546 91.0943 166.529L90.8819 167.501C89.7343 168.21 88.709 167.758 87.3935 167.998C84.9989 164.573 85.218 166.884 82.3022 165.75C83.4557 165.138 85.5619 166.341 87.2928 165.502C87.4731 164.112 87.4857 164.6 86.83 163.24L85.1242 163.265L84.8643 162.848C86.3503 161.984 86.5207 161.678 87.1526 160.069L87.2117 159.916C86.8058 157.956 86.4236 158.247 84.7071 157.987Z"/><path fill="#736758" transform="matrix(0.3861 0 0 0.3861 -3.86099 -1.54443)" d="M86.83 163.24C87.1022 161.386 87.0295 159.478 88.0551 158.257C89.3273 157.922 90.6649 158.065 91.9845 158.126C91.3935 161.238 90.8819 163.311 91.0943 166.529L90.8819 167.501C89.7343 168.21 88.709 167.758 87.3935 167.998C84.9989 164.573 85.218 166.884 82.3022 165.75C83.4557 165.138 85.5619 166.341 87.2928 165.502C87.4731 164.112 87.4857 164.6 86.83 163.24Z"/><path fill="#736758" transform="matrix(0.3861 0 0 0.3861 -3.86099 -1.54443)" d="M108.19 134.518C109.472 134.584 109.849 134.66 111.097 134.979C111.203 135.328 111.456 135.994 111.517 136.32C111.966 138.714 115.11 139.104 114.929 141.744C113.904 143.321 111.358 145.398 109.388 145.103C108.27 142.983 106.461 143.708 107.423 141.026C109.053 140.739 110.36 140.809 111.997 140.835L111.912 140.632C109.545 140.206 110.292 137.351 108.316 137.48C108.161 138.661 108.074 139.235 107.74 140.373L107.085 140.529C106.325 139.968 105.976 139.807 105.735 138.869C106.751 137.132 109.245 137.309 109.216 135.382L108.19 134.518Z"/><path fill="#544A40" transform="matrix(0.3861 0 0 0.3861 -3.86099 -1.54443)" d="M75.4242 125.519L75.7544 125.681C79.3625 127.437 80.9165 126.56 82.2544 127.081C82.8054 128.974 82.0102 131.676 80.3342 132.786C78.4704 132.748 78.9612 131.996 76.8769 130.891L76.138 132.21L76.3928 130.995L75.707 129.823L74.5852 129.895C73.1515 127.623 72.6819 127.258 70.1132 127.159L69.9266 126.736L72.0224 126.506C72.7272 126.956 72.8464 126.992 73.6614 127.187C73.0757 126.431 71.834 126.362 70.734 126.098C72.1753 124.445 73.0746 126.758 75.0318 126.477L75.4242 125.519Z"/><path fill="#544A40" transform="matrix(0.3861 0 0 0.3861 -3.86099 -1.54443)" d="M90.7031 126.561C92.128 126.285 91.7117 126.16 92.9086 126.681L93.8677 128.494L94.6668 128.739C95.7246 128.134 96.0273 127.806 96.9039 126.955C98.0951 129.165 97.905 129.102 100.428 130.057L99.5196 130.967C97.8619 130.625 98.9099 129.611 97.8486 130.04L97.9921 131.293L98.195 131.394C98.8611 131.73 99.0703 131.815 99.6182 132.358C98.2697 133.63 94.3384 131.558 92.6413 131.724L91.6314 130.957C89.8962 126.356 88.0813 131.339 86.5782 126.815C88.2981 125.54 89.1698 127.151 90.7031 126.561Z"/><path fill="#544A40" transform="matrix(0.3861 0 0 0.3861 -3.86099 -1.54443)" d="M93.3077 146.244L92.0435 145.388C90.9143 145.902 91.2453 145.754 90.5119 146.978L90.1499 146.703C90.341 145.553 90.5721 145.314 91.2279 144.365C90.2005 142.792 87.1 143.816 87.5267 141.825C87.7437 140.813 88.2252 141.008 88.2443 139.512L88.6732 139.159C90.1186 140.329 92.5039 140.767 94.1789 141.527C94.2249 141.548 95.5522 145.608 96.2562 145.832C97.6147 146.244 98.9135 145.072 99.495 146.509C98.1413 147.309 97.4476 145.866 96.6841 146.864C97.0915 147.487 97.4795 147.554 98.1759 147.837C95.1944 147.355 95.9141 149.061 93.3077 146.244Z"/><path fill="#736758" transform="matrix(0.3861 0 0 0.3861 -3.86099 -1.54443)" d="M107.654 144.883C108.8 145.68 108.32 145.583 109.009 147.203C110.416 145.684 113.729 145.255 115.663 145.795C116.491 146.51 116.281 146.124 116.419 147.26C115.824 148.615 116.184 148.34 115.042 148.898C114.591 148.713 114.166 148.483 113.67 148.583L113.513 150.148C112.8 151.317 110.838 152.919 109.756 153.791L109.287 153.618C109.619 151.541 110.022 150.421 109.552 148.326C107.248 147.591 107.724 147.021 107.654 144.883Z"/><path fill="#544A40" transform="matrix(0.3861 0 0 0.3861 -3.86099 -1.54443)" d="M63.4862 164.434C62.0139 165.572 63.7493 166.121 63.0765 168.208C61.4917 168.299 59.9238 166.722 59.8055 165.132C59.6441 162.962 60.9665 161.48 62.3036 159.947L62.3647 160.302L62.8267 160.011C64.9433 160.323 66.5163 162.326 66.4515 164.507C65.8152 165.346 66.1735 165.09 64.9083 165.347L63.4862 164.434Z"/><defs><linearGradient id="gradient_14" gradientUnits="userSpaceOnUse" x1="63.489742" y1="162.97153" x2="65.012344" y2="161.40013"><stop offset="0" stop-color="#4D413B"/><stop offset="1" stop-color="#484435"/></linearGradient></defs><path fill="url(#gradient_14)" transform="matrix(0.3861 0 0 0.3861 -3.86099 -1.54443)" d="M62.8267 160.011C64.9433 160.323 66.5163 162.326 66.4515 164.507C65.8152 165.346 66.1735 165.09 64.9083 165.347L63.4862 164.434C64.5534 163.504 62.9277 162.23 62.8267 160.011Z"/><path fill="#675D4E" transform="matrix(0.3861 0 0 0.3861 -3.86099 -1.54443)" d="M93.8343 162.693C94.9723 166.393 93.4642 169.576 94.5991 171.681L95.0514 171.409C95.1049 170.644 95.1654 169.879 95.2328 169.114C97.085 168.392 98.7799 169.236 99.6839 170.952L99.6196 171.793C98.3729 172.718 97.8152 172.61 96.6254 171.57C96.6166 170.677 96.7793 170.138 96.3428 169.527L95.7261 169.9C95.8288 171.455 96.0865 171.441 95.414 172.534L94.8179 172.825C93.5764 172.069 93.6004 169.733 93.3292 169.592C92.1391 168.972 88.8793 168.524 87.3935 167.998C88.709 167.758 89.7343 168.21 90.8819 167.501L91.0943 166.529C93.1112 166.546 91.7828 164.344 93.8343 162.693Z"/><path fill="#675D4E" transform="matrix(0.3861 0 0 0.3861 -3.86099 -1.54443)" d="M75.7381 166.38C76.3839 164.297 75.4151 162.814 76.1633 159.671C77.3446 161.51 77.1291 162.461 79.1595 163.721C79.3619 164.315 79.5494 164.465 79.3506 164.871C80.844 166.123 80.4578 165.512 81.017 167.29C80.6427 168.417 80.4991 168.71 79.1562 168.74L79.0282 169.08C78.1455 169.027 77.1715 168.886 76.3516 169.139C76.003 167.999 75.8875 167.559 75.7381 166.38Z"/><path fill="#544A40" transform="matrix(0.3861 0 0 0.3861 -3.86099 -1.54443)" d="M79.3506 164.871C80.844 166.123 80.4578 165.512 81.017 167.29C80.6427 168.417 80.4991 168.71 79.1562 168.74C78.7574 167.047 78.7935 166.492 79.3506 164.871Z"/><path fill="#675D4E" transform="matrix(0.3861 0 0 0.3861 -3.86099 -1.54443)" d="M80.5612 146.85C79.7574 145.983 79.8371 145.738 78.9242 145.697C78.9276 147.243 79.1252 149.077 77.2969 149.174C74.5814 147.887 73.8896 146.897 73.1299 144.031C74.9077 141.264 76.9203 147.276 81.3233 143.947C82.1102 145.038 82.9371 144.272 83.9685 145.697C82.3948 146.188 82.2684 144.868 80.6403 145.282C80.5961 145.941 80.5438 146.067 80.7907 146.658L80.5612 146.85Z"/><path fill="#655042" transform="matrix(0.3861 0 0 0.3861 -3.86099 -1.54443)" d="M97.2667 162.779L98.5141 162.917C98.9247 163.35 99.2464 163.784 99.6085 164.253C99.3585 166.234 97.4813 164.613 97.4779 167.268C98.3384 168.193 100.222 168.393 101.535 168.671L101.664 168.866C104.022 172.388 104.483 172.828 107.937 175.674L108.135 175.177L107.01 173.273L107.194 172.696C108.156 173.203 108.451 173.922 109 174.868C108.921 176.012 109.113 175.795 108.463 176.494C107.159 176.274 105.82 174.358 105.128 174.234C102.768 173.813 101.813 170.191 100.587 169.525C98.4145 168.346 96.1918 169.053 95.8829 165.702L96.8442 165.763C97.2125 164.813 96.9019 165.082 96.5399 163.779L97.2667 162.779Z"/><path fill="#544A40" transform="matrix(0.3861 0 0 0.3861 -3.86099 -1.54443)" d="M49.7502 126.545C61.025 127.349 60.7999 126.808 71.2391 131.729L71.098 132.245L69.7616 132.211C67.838 131.583 65.9227 129.734 63.7842 129.304L63.1486 130.573C61.7203 130.689 58.7444 128.527 56.615 127.983C54.6744 127.488 49.9719 127.705 48.92 127.084L49.7502 126.545Z"/><path fill="#655042" transform="matrix(0.3861 0 0 0.3861 -3.86099 -1.54443)" d="M90.7031 126.561L90.4339 125.132C89.4744 124.572 89.6243 124.753 88.3643 124.747L88.0563 124.972L88.1494 124.693C89.1812 124.593 89.7011 124.331 90.6045 123.864C90.3131 121.406 90.0003 121.706 87.9398 120.683L87.6193 120.526C91.4354 117.483 91.2126 122.934 91.6649 125.434L93.0241 123.814L93.6656 123.856C95.4916 126.259 94.2651 125.989 96.9039 126.955C96.0273 127.806 95.7246 128.134 94.6668 128.739L93.8677 128.494L92.9086 126.681C91.7117 126.16 92.128 126.285 90.7031 126.561Z"/><path fill="#655042" transform="matrix(0.3861 0 0 0.3861 -3.86099 -1.54443)" d="M99.6732 126.851C103.925 125.41 106.706 129.749 105.763 133.099C103.901 131.815 103.068 132.656 101.786 131.713C101.949 130.507 102.442 129.834 103.329 128.862L103.423 128.293C101.862 128.466 102.266 129.314 100.593 129.729L100.428 130.057C99.6673 128.673 99.4654 128.384 99.6732 126.851Z"/><path fill="#736758" transform="matrix(0.3861 0 0 0.3861 -3.86099 -1.54443)" d="M99.6732 126.851C100.95 127.106 102.751 127.345 103.803 128.02L103.917 128.534L103.329 128.862L103.423 128.293C101.862 128.466 102.266 129.314 100.593 129.729L100.428 130.057C99.6673 128.673 99.4654 128.384 99.6732 126.851Z"/><path fill="#655042" transform="matrix(0.3861 0 0 0.3861 -3.86099 -1.54443)" d="M91.6314 130.957C87.8645 127.815 87.2027 131.905 83.7583 131.305C83.0009 130.401 82.9801 128.533 83.5955 127.548C85.1411 127.323 84.9734 128.457 86.2212 128.395C86.0075 127.264 85.7193 126.636 85.2886 125.578L85.3539 125.452L86.5782 126.815C88.0813 131.339 89.8962 126.356 91.6314 130.957Z"/><path fill="#544A40" transform="matrix(0.3861 0 0 0.3861 -3.86099 -1.54443)" d="M87.2117 159.916C85.3482 159.717 84.817 159.72 83.2021 160.667C82.5 163.002 85.0041 162.804 82.8984 164.89C81.4452 165.277 80.8059 165.006 79.8348 163.93C80.2632 163.363 80.6733 162.782 81.0646 162.189C81.7199 161.175 82.1443 160.259 81.8815 159.07C80.9315 158.184 80.7182 158.419 79.3082 158.066C79.6647 157.698 80.0615 157.72 80.6431 157.594C81.6232 157.908 82.113 158.802 82.7429 159.654C83.7127 159.485 83.9088 158.9 84.7071 157.987C86.4236 158.247 86.8058 157.956 87.2117 159.916Z"/><path fill="#453B31" transform="matrix(0.3861 0 0 0.3861 -3.86099 -1.54443)" d="M196.37 182.976C198.374 182.959 202.164 182.445 203.972 183.291C204.234 183.414 204.22 183.615 204.314 183.873L202.705 185.044C202.55 185.121 202.535 185.137 202.34 185.182C200.65 185.567 197.138 185.635 195.641 184.711C195.354 184.534 195.369 184.195 195.295 183.878L196.37 182.976Z"/><path fill="#736758" transform="matrix(0.3861 0 0 0.3861 -3.86099 -1.54443)" d="M101.659 155.545C102.714 156.128 103.317 157.975 103.69 159.04L104.241 159.26C104.94 158.548 104.133 157.104 105.395 155.996C106.927 156.377 106.129 157.303 107.609 157.921C107.755 156.746 107.71 155.118 109.029 154.867L109.62 155.393L109.569 156.014C109.305 156.889 109.475 157.19 109.803 158.015L109.91 158.282L109.462 158.837C108.33 159.091 108.049 158.987 106.927 158.759C106.313 158.302 105.999 158.055 105.642 157.37C105.602 158.362 105.683 159.318 105.13 160.114C103.894 160.336 104.4 160.388 103.215 159.881C102.662 158.164 101.738 156.929 101.659 155.545Z"/><path fill="#655042" transform="matrix(0.3861 0 0 0.3861 -3.86099 -1.54443)" d="M102.284 140.136C105.653 141.388 106.696 143.718 104.953 146.949C104.248 146.83 104.024 146.639 103.395 146.273C102.401 144.441 101.075 142.004 102.284 140.136Z"/><path fill="#544A40" transform="matrix(0.3861 0 0 0.3861 -3.86099 -1.54443)" d="M78.9892 155.38C79.6034 154.707 80.1414 154.125 80.6977 153.399L81.1325 153.26L80.675 153.673L81.3373 153.342C80.3471 155.764 77.708 157.825 76.1633 159.671L76.2293 158.463C75.3105 157.72 73.4649 156.401 73.212 155.317C73.9846 154.545 75.3716 154.476 76.3283 154.976C76.6363 155.683 76.776 156.226 77.3833 156.673C78.2469 156.216 78.3428 156.116 78.9892 155.38Z"/><path fill="#736758" transform="matrix(0.3861 0 0 0.3861 -3.86099 -1.54443)" d="M93.3077 146.244C95.9141 149.061 95.1944 147.355 98.1759 147.837L98.7715 148.035C96.959 148.169 97.0692 148.127 95.8249 149.448C96.2627 149.759 96.8879 149.847 97.4283 149.969L97.8162 150.693C97.7426 151.65 97.7703 151.957 97.2107 152.779L96.5992 151.832C95.442 152.256 96.6781 152.49 95.6554 153.382C93.8582 152.059 93.6261 148.2 93.3077 146.244Z"/><path fill="#736758" transform="matrix(0.3861 0 0 0.3861 -3.86099 -1.54443)" d="M97.2667 162.779L95.515 160.839C95.7685 159.564 95.5297 159.939 96.3672 159.006C97.7389 159.513 99.2549 160.551 100.324 160.342L100.531 160.639C100.113 161.134 98.9392 162.587 98.5141 162.917L97.2667 162.779Z"/><path fill="#655042" transform="matrix(0.3861 0 0 0.3861 -3.86099 -1.54443)" d="M76.3516 169.139C74.0447 168.652 71.6904 167.278 72.3494 164.566L72.8019 164.314C74.2853 164.657 74.3548 165.511 75.7381 166.38C75.8875 167.559 76.003 167.999 76.3516 169.139Z"/><path fill="#736758" transform="matrix(0.3861 0 0 0.3861 -3.86099 -1.54443)" d="M100.713 144.168C101.68 144.51 101.871 144.554 102.544 145.394C102.554 147.343 101.114 148.08 101.236 148.602C101.538 149.898 102.203 151.408 101.803 153.071C99.9113 150.158 98.901 149.311 101.405 146.53C101.471 145.164 101.42 145.522 100.713 144.168Z"/><path fill="#766B53" transform="matrix(0.3861 0 0 0.3861 -3.86099 -1.54443)" d="M116.322 141.156C118.612 142.129 119.229 143.644 118.041 145.806C116.391 145.451 116.155 145.413 115.319 143.959C115.339 142.644 115.632 142.295 116.322 141.156Z"/><path fill="#736758" transform="matrix(0.3861 0 0 0.3861 -3.86099 -1.54443)" d="M103.992 149.174L104.761 149.3C105.575 150.242 105.333 153.711 105 154.743C104.296 152.916 104.323 153.383 102.605 152.067C102.625 150.791 103.202 150.363 103.992 149.174Z"/><path fill="#544A40" transform="matrix(0.3861 0 0 0.3861 -3.86099 -1.54443)" d="M80.7907 146.658C82.8011 147.145 83.5017 149.539 82.0445 151.09L81.2187 151.009C80.1828 150.002 80.3631 150.448 80.0984 149.13C80.4444 148.283 80.6845 147.8 80.5612 146.85L80.7907 146.658Z"/><path fill="#453B31" transform="matrix(0.3861 0 0 0.3861 -3.86099 -1.54443)" d="M64.7359 141.453C65.7542 141.792 65.8542 141.917 66.5211 142.705C66.8731 143.814 66.5567 144.355 66.1495 145.453L65.1951 145.494L64.5637 144.861C64.1938 143.417 64.387 142.928 64.7359 141.453Z"/><path fill="#655042" transform="matrix(0.3861 0 0 0.3861 -3.86099 -1.54443)" d="M68.515 159.777C69.0048 160.239 69.4254 160.903 69.8457 161.436C70.0447 162.749 69.782 162.858 69.0803 163.935C68.4705 163.623 68.0123 163.202 67.5045 162.751C67.3788 161.594 68.0003 160.796 68.515 159.777Z"/><path fill="#675D4E" transform="matrix(0.3861 0 0 0.3861 -3.86099 -1.54443)" d="M63.6724 155.673C64.3923 156.24 65.3285 156.69 65.4561 157.611L64.0977 159.208L63.9674 159.471L63.492 159.571C63.3391 159.325 63.2 159.07 63.1202 158.79C62.8157 157.719 63.1442 156.602 63.6724 155.673Z"/><path fill="#655042" transform="matrix(0.3861 0 0 0.3861 -3.86099 -1.54443)" d="M98.7496 135.811L100.133 136.53C100.888 137.588 100.542 139.318 100.437 140.686C100.006 140.392 99.4986 139.949 99.0844 139.61C98.3807 138.425 98.6348 137.19 98.7496 135.811Z"/><path fill="#655042" transform="matrix(0.3861 0 0 0.3861 -3.86099 -1.54443)" d="M81.6338 132.856C82.2471 133.367 82.2509 133.642 82.4795 134.427C81.9405 135.716 82.1609 135.314 80.8875 136.172C80.5233 135.736 80.341 135.26 80.1037 134.745C80.4251 133.475 80.3763 133.827 81.6338 132.856Z"/><path fill="#675D4E" transform="matrix(0.3861 0 0 0.3861 -3.86099 -1.54443)" d="M49.4859 162.401C49.9394 162.051 50.5786 162.076 51.0035 162.461C51.4284 162.845 51.5169 163.479 51.2136 163.965C50.9631 164.367 50.4973 164.581 50.0294 164.509C49.5616 164.437 49.1816 164.093 49.0633 163.634C48.945 163.176 49.1113 162.691 49.4859 162.401Z"/><path fill="#736758" transform="matrix(0.3861 0 0 0.3861 -3.86099 -1.54443)" d="M107.045 150.619L108.236 151.414C108.777 152.732 108.591 152.411 108.245 154.036C106.556 152.432 106.571 152.733 107.045 150.619Z"/><defs><linearGradient id="gradient_15" gradientUnits="userSpaceOnUse" x1="397.8053" y1="255.32968" x2="397.72049" y2="247.95784"><stop offset="0" stop-color="#91866D"/><stop offset="1" stop-color="#C1BCA2"/></linearGradient></defs><path fill="url(#gradient_15)" transform="matrix(0.3861 0 0 0.3861 -3.86099 -1.54443)" d="M323.686 218.014C325.435 221.07 323.772 222.255 326.489 224.616C327.198 225.232 326.219 228.32 326.879 229.711C327.469 228.972 327.607 228.549 327.963 227.701C328.403 228.463 328.163 229.638 327.989 230.548L329.576 230.499L332.015 230.255C334.417 230.257 336.382 230.147 338.78 229.971C341.843 229.886 349.075 229.594 351.925 230.091C357.59 231.944 372.891 231.165 379.571 230.86C379.637 230.825 379.702 230.79 379.767 230.755C381.473 230.719 382.45 230.74 384.142 230.34C385.937 230.276 387.374 230.189 389.163 229.997C392.104 229.915 398.641 229.616 401.346 230.094C405.084 231.493 427.449 231.258 432.24 230.343C434.621 230.28 436.53 230.24 438.887 229.921C443.524 229.915 448.925 229.772 453.502 229.948C455.03 230.241 456.119 230.379 457.657 230.537C460.645 231.202 479.153 231.4 481.838 230.384C484.12 230.279 487.899 229.998 489.999 230.486C491.251 231.491 494.785 230.699 497.588 232.526C499.907 235.153 499.556 237.88 500.054 241.481C503.372 242.256 506.137 243.083 508.596 245.649C510.363 248.129 510.643 251.738 510.742 254.741C514.757 255.599 517.412 256.298 520.1 259.638C521.503 260.591 521.532 263.784 521.613 265.378C521.997 266.674 522.124 267.71 522.314 269.034L339.125 269.548L294.469 269.62C290.92 269.625 276.533 269.813 273.87 269.246C272.87 269.227 271.479 269.007 270.452 268.875C269.798 267.216 270.142 262.557 270.762 260.85C272.056 257.289 277.232 256.714 280.717 255.317C280.298 253.348 280.579 251.42 280.968 249.489C282.434 244.027 285.006 243.837 290.101 242.801C289.853 240.005 290.425 236.421 291.017 233.684C294.214 231.127 296.993 231.077 300.918 230.729C300.612 228.271 299.69 225.629 302.385 224.474C303.529 223.431 304.137 222.201 304.907 220.867C305.176 221.585 305.275 221.9 305.428 222.652C306.611 223.388 310.489 222.787 312.414 222.732C315.485 222.643 322.221 224.588 324.147 224.287C323.276 223.712 323.864 223.756 322.516 223.22C323.325 223.388 323.226 223.506 323.824 223.228C324.255 222.226 323.765 219.35 323.686 218.014Z"/><defs><linearGradient id="gradient_16" gradientUnits="userSpaceOnUse" x1="398.80313" y1="270.94318" x2="398.56369" y2="261.41766"><stop offset="0" stop-color="#90876C"/><stop offset="1" stop-color="#A8A28B"/></linearGradient></defs><path fill="url(#gradient_16)" transform="matrix(0.3861 0 0 0.3861 -3.86099 -1.54443)" d="M285.678 255.179C302.666 255.6 320.696 255.295 337.796 255.299L434.722 255.223L484.13 255.173C491.026 255.166 504.48 255.511 510.742 254.741C514.757 255.599 517.412 256.298 520.1 259.638C521.503 260.591 521.532 263.784 521.613 265.378C521.997 266.674 522.124 267.71 522.314 269.034L339.125 269.548L294.469 269.62C290.92 269.625 276.533 269.813 273.87 269.246C272.87 269.227 271.479 269.007 270.452 268.875C269.798 267.216 270.142 262.557 270.762 260.85C272.056 257.289 277.232 256.714 280.717 255.317L283.277 255.217L285.678 255.179Z"/><path fill="#ECE9CF" transform="matrix(0.3861 0 0 0.3861 -3.86099 -1.54443)" d="M285.678 255.179C302.666 255.6 320.696 255.295 337.796 255.299L434.722 255.223L484.13 255.173C491.026 255.166 504.48 255.511 510.742 254.741C514.757 255.599 517.412 256.298 520.1 259.638C510.846 260.825 497.844 260.587 488.404 260.525L460.44 260.594L326.039 260.993C310.792 261.17 295.398 260.742 280.143 260.966C271.966 261.086 274.558 266.991 272.761 268.699L270.452 268.875C269.798 267.216 270.142 262.557 270.762 260.85C272.056 257.289 277.232 256.714 280.717 255.317L283.277 255.217L285.678 255.179Z"/><path fill="#A69F83" transform="matrix(0.3861 0 0 0.3861 -3.86099 -1.54443)" d="M520.1 259.638C521.503 260.591 521.532 263.784 521.613 265.378C520.154 264.79 520.486 264.4 520.794 262.879C520.263 262.494 519.961 262.145 519.204 262.332C518.426 262.524 516.164 264.108 515.444 264.084C510.935 263.93 506.229 263.901 501.743 263.921L461.775 263.915L348.619 264.543C331.305 264.576 313.927 264.473 296.618 265.1C293.222 265.223 290.134 264.875 286.89 264.812C286.189 264.798 280.947 265.769 279.909 265.949L280.215 265.779C278.982 266.076 277.753 266.239 276.867 267.132L276.833 267.86C277.727 268.626 279.114 268.716 280.308 268.913C278.246 269.276 275.98 269.223 273.87 269.246C272.87 269.227 271.479 269.007 270.452 268.875L272.761 268.699C274.558 266.991 271.966 261.086 280.143 260.966C295.398 260.742 310.792 261.17 326.039 260.993L460.44 260.594L488.404 260.525C497.844 260.587 510.846 260.825 520.1 259.638Z"/></g></svg>