<?xml version="1.0" encoding="utf-8" ?><svg xmlns="http://www.w3.org/2000/svg" xmlns:xlink="http://www.w3.org/1999/xlink" width="100" height="113" viewBox="0 0 100 113"><clipPath id="cl_b"><rect x="-1.5258789e-05" width="100" height="113"/></clipPath><g clip-path="url(#cl_b)"><defs><linearGradient id="gradient_0" gradientUnits="userSpaceOnUse" x1="760.7796" y1="639.99823" x2="671.58167" y2="412.66046"><stop offset="0" stop-color="#ACA9AF"/><stop offset="1" stop-color="#CDD8E0"/></linearGradient></defs><path fill="url(#gradient_0)" transform="matrix(0.377358 0 0 0.379195 -121.132 -144.473)" d="M695.107 402.21C699.956 401.121 704.885 400.427 709.845 400.136C711.892 402.353 713.782 404.438 715.27 407.094C720.755 416.885 716.564 425.824 729.95 427.847C731.224 427.035 731.359 426.655 732.138 425.341C739.314 413.242 742.79 411.282 756.203 408.512C760.293 408.189 769.667 411.17 771.658 415.128C774.83 421.434 771.428 431.744 769.37 437.997C768.972 439.204 768.561 440.407 768.137 441.605C771.662 444.573 777.286 450.321 781.517 450.253C787.126 448.876 791.223 448.096 796.941 447.201C800.842 446.219 803.277 445.752 807.242 445.164C811.478 449.249 814.405 452.914 818.258 457.21C816.439 460.315 814.533 463.629 812.467 466.428C808.078 472.375 800.766 476.136 803.54 484.532C805.147 489.394 807.688 494.693 809.925 499.274C819.128 499.261 826.878 499.512 835.735 502.446C836.596 507.996 837.079 512.09 837.479 517.684C833.873 520.212 832.176 521.417 828.144 523.208C821.352 526.225 813.031 524.818 811.836 533.719C811.07 539.417 811.145 545.212 811.06 550.891C821.196 555.689 824.455 557.757 831.835 566.155C830.393 570.103 828.33 576.308 826.671 579.973C821.44 580.155 817.287 580.162 812.061 579.971C807.45 579.328 803.688 579.666 798.831 578.704C795.687 582.396 790.019 590.818 787.669 595.023C790.124 600.053 792.76 605.077 795.125 610.145C799.407 619.319 793.871 623.163 787.341 628.223C778.267 628.836 763.502 622.229 756.071 616.197C752.199 617.944 749.082 619.236 745.52 621.577C745.592 632.684 745.349 638.434 742.469 649.46C738.379 650.097 732.475 651.207 728.501 651.589C709.876 647.505 707.083 641.547 704.716 623.358L695.446 623.504C690.274 632.27 685.857 649.895 673.252 643.86C665.808 641.846 660.267 639.99 653.379 636.545C653.045 626.005 653.21 620.803 656.765 610.971C654.782 606.539 650.327 604.148 646.282 601.357C641.088 606.007 633.848 609.024 627.013 610.178C616.329 607.907 613.702 605.735 606.824 596.831L606.402 595.918C607.256 591.413 615.925 579.868 620.082 576.603L623.258 572.432C620.578 566.506 618.708 560.536 615.725 554.476C606.719 554.614 596.032 553.684 587.922 549.532C586.986 544.428 586.443 540.259 585.873 535.091C606.963 518 610.56 536.537 614.288 503.636C612.628 500.699 606.864 498.744 603.705 496.652C598.426 493.156 596.146 491.109 592.46 485.961C595.654 474.872 594.67 471.477 606.414 469.72C613.348 468.501 621.556 468.365 628.116 471.217C631.119 467.468 637.806 460.682 636.839 455.903L633.068 450.151C629.921 444 628.978 440.061 627.822 433.302C635.967 425.572 636.931 424.16 647.653 420.925C655.302 418.921 667.128 432.258 671.968 437.466C673.717 436.08 677.815 433.588 680.258 431.758L679.8 422.968C680.144 417.081 681.424 412.37 682.864 406.689C686.271 404.974 691.368 403.452 695.107 402.21Z"/><path fill="#5C5958" transform="matrix(0.377358 0 0 0.379195 -121.132 -144.473)" d="M614.288 503.636C617.811 504.415 621.363 503.986 624.856 503.331C622.113 509.721 623.25 515.8 621.025 522.163C620.89 522.551 618.174 524.233 617.663 524.339C606.609 528.734 603.854 527.036 594.751 535.446C595.47 540.08 596.166 545.399 597.044 549.946C606.602 553.383 607.742 552.313 616.708 553.656L615.725 554.476C606.719 554.614 596.032 553.684 587.922 549.532C586.986 544.428 586.443 540.259 585.873 535.091C606.963 518 610.56 536.537 614.288 503.636Z"/><path fill="#F3C957" transform="matrix(0.377358 0 0 0.379195 -121.132 -144.473)" d="M96.6781 567.694C96.8379 562.766 98.7037 557.274 99.8675 552.413C105.159 531.341 114.141 512.751 120.089 491.73C125.182 473.731 126.404 453.186 130.993 435.52C132.786 428.617 144.507 414.913 149.109 409.144C159.906 395.799 172.629 404.393 185.165 409.289C194.642 412.99 210.747 412.527 209.851 425.892C208.402 430.83 207.061 431.139 205.502 434.553C210.061 438.463 216.616 447.312 209.836 452.417C207.257 456.013 203.992 457.755 200.68 460.865C196.014 465.246 192.661 470.373 187.777 474.263C179.313 479.705 175.348 481.216 165.984 484.798C163.812 495.391 164.375 513.615 163.635 525.066C163.704 536.124 163.461 547.181 162.907 558.225C162.601 563.877 159.528 586.519 160.533 590.056C163.401 586.847 166.312 577.445 170.208 572.409C173.748 562.999 190.956 546.131 199.697 540.614C216.434 529.868 236.818 526.38 256.176 530.949C274.722 535.224 287.839 543.612 301.478 556.402C308.128 562.638 309.883 562.797 315.089 571.081C326.194 586.801 325.428 609.878 308.374 621.144C300.273 626.495 291.656 630.476 282.863 634.516C260.677 646.793 211.407 651.593 185.532 649.949C173.088 649.158 158.991 647.007 145.745 646.134C134.416 645.388 115.994 647.968 107.23 646.98C103.119 646.777 93.6369 643.079 92.8028 639.686C90.4334 630.049 93.5436 612.218 94.4732 602.462C95.3904 592.836 94.45 575.373 96.6781 567.694Z"/><defs><linearGradient id="gradient_1" gradientUnits="userSpaceOnUse" x1="209.93237" y1="648.55121" x2="201.24736" y2="552.81812"><stop offset="0" stop-color="#D19436"/><stop offset="1" stop-color="#FBCD52"/></linearGradient></defs><path fill="url(#gradient_1)" transform="matrix(0.377358 0 0 0.379195 -121.132 -144.473)" d="M96.6781 567.694C100.156 564.487 96.8896 565.431 100.006 562.545L101.289 562.955C107.453 579.392 115.925 611.896 114.754 628.531C125.463 626.42 133.174 627.093 143.957 627.484C163.048 628.177 180.831 623.849 199.508 621.293C229.667 617.165 259.301 610.643 288.78 603.09C303.676 599.346 310.981 599.697 317.094 583.289C318.523 583.164 318.47 583.419 319.413 582.79C318.149 577.866 315.416 575.078 315.089 571.081C326.194 586.801 325.428 609.878 308.374 621.144C300.273 626.495 291.656 630.476 282.863 634.516C260.677 646.793 211.407 651.593 185.532 649.949C173.088 649.158 158.991 647.007 145.745 646.134C134.416 645.388 115.994 647.968 107.23 646.98C103.119 646.777 93.6369 643.079 92.8028 639.686C90.4334 630.049 93.5436 612.218 94.4732 602.462C95.3904 592.836 94.45 575.373 96.6781 567.694Z"/><defs><linearGradient id="gradient_2" gradientUnits="userSpaceOnUse" x1="503.73795" y1="502.13434" x2="489.93527" y2="487.56476"><stop offset="0" stop-color="#6F6162"/><stop offset="1" stop-color="#877979"/></linearGradient></defs><path fill="url(#gradient_2)" transform="matrix(0.377358 0 0 0.379195 -121.132 -144.473)" d="M568.742 408.458C570.583 408.315 573.538 407.83 575.034 408.454L574.89 409.267C573.608 416.739 572.396 428.497 571.945 436.078C568.115 440.695 551.689 455.969 546.365 460.429C541.84 465.662 535.67 471.195 530.731 476.193C525.824 481.158 520.906 486.807 515.519 491.115C511.968 495.138 507.154 498.833 503.081 502.618C494.767 510.375 486.519 518.203 478.338 526.1L487.416 536.563C494.592 544.36 502.78 553.654 510.265 560.959C507.597 564.546 504.096 569.532 501.203 572.746C497.414 575.624 493.396 578.55 488.874 580.19C483.38 573.608 465.787 557.643 458.397 550.524C455.809 548.912 456.507 548.806 453.945 548.867C450.263 554.088 427.869 574.38 422.048 580.084C418.422 579.23 416.212 578.253 412.957 576.514L409.138 573.129L407.27 570.711C403.878 567.117 402.029 564.777 400.542 560.003C403.903 556.764 407.293 553.554 410.71 550.373C411.259 549.435 417.514 542.944 418.577 541.851C423.939 536.338 428.147 531.772 432.714 525.598C435.667 522.48 441.307 517.303 442.348 513.464C448.059 509.987 450.841 505.696 455.482 502.906C459.666 500.848 486.597 470.031 492.127 464.98C508.616 449.918 524.833 431.275 541.178 415.86L545.416 411.083C553.165 409.813 560.926 409.192 568.742 408.458Z"/><defs><linearGradient id="gradient_3" gradientUnits="userSpaceOnUse" x1="459.53436" y1="480.06201" x2="493.44446" y2="503.53436"><stop offset="0" stop-color="#E7F8FF"/><stop offset="1" stop-color="#BECEDB"/></linearGradient></defs><path fill="url(#gradient_3)" transform="matrix(0.377358 0 0 0.379195 -121.132 -144.473)" d="M541.178 415.86L542.35 417.832C544.675 416.703 543.457 414.225 545.188 414.253C544.022 429.432 539.112 440.213 528.463 451.12C524.227 455.459 520.283 459.372 517.254 464.676C513.068 469.711 508.975 472.118 505.587 476.021C493.489 489.954 480.437 502.55 467.358 515.534C458.087 524.738 446.105 535.345 437.704 545.354C427.674 553.583 418.553 565.042 409.138 573.129L407.27 570.711C403.878 567.117 402.029 564.777 400.542 560.003C403.903 556.764 407.293 553.554 410.71 550.373C411.259 549.435 417.514 542.944 418.577 541.851C423.939 536.338 428.147 531.772 432.714 525.598C435.667 522.48 441.307 517.303 442.348 513.464C448.059 509.987 450.841 505.696 455.482 502.906C459.666 500.848 486.597 470.031 492.127 464.98C508.616 449.918 524.833 431.275 541.178 415.86Z"/><path fill="#BECFE0" transform="matrix(0.377358 0 0 0.379195 -121.132 -144.473)" d="M400.542 560.003C403.903 556.764 407.293 553.554 410.71 550.373C407.99 557.659 407.876 563.006 407.27 570.711C403.878 567.117 402.029 564.777 400.542 560.003Z"/><defs><linearGradient id="gradient_4" gradientUnits="userSpaceOnUse" x1="501.87958" y1="549.91089" x2="483.08887" y2="559.66302"><stop offset="0" stop-color="#D0E0E6"/><stop offset="1" stop-color="#B5BFCF"/></linearGradient></defs><path fill="url(#gradient_4)" transform="matrix(0.377358 0 0 0.379195 -121.132 -144.473)" d="M471.408 543.077C470.065 541.669 469.894 541.722 469.317 539.914C471.364 537.634 482.79 537.289 487.416 536.563C494.592 544.36 502.78 553.654 510.265 560.959C507.597 564.546 504.096 569.532 501.203 572.746C497.414 575.624 493.396 578.55 488.874 580.19C483.38 573.608 465.787 557.643 458.397 550.524C462.326 547.85 461.179 546.472 463.965 544.442C466.012 545.188 468.768 548.44 470.436 550.153C470.629 547.063 470.386 547.117 469.57 544.086L471.408 543.077Z"/><defs><linearGradient id="gradient_5" gradientUnits="userSpaceOnUse" x1="474.84131" y1="565.16388" x2="483.46347" y2="556.84235"><stop offset="0" stop-color="#555053"/><stop offset="1" stop-color="#806C6B"/></linearGradient></defs><path fill="url(#gradient_5)" transform="matrix(0.377358 0 0 0.379195 -121.132 -144.473)" d="M471.408 543.077C480.88 551.693 492.01 563.496 501.203 572.746C497.414 575.624 493.396 578.55 488.874 580.19C483.38 573.608 465.787 557.643 458.397 550.524C462.326 547.85 461.179 546.472 463.965 544.442C466.012 545.188 468.768 548.44 470.436 550.153C470.629 547.063 470.386 547.117 469.57 544.086L471.408 543.077Z"/><path fill="#6F5D5E" transform="matrix(0.377358 0 0 0.379195 -121.132 -144.473)" d="M471.466 551.549C474.614 554.125 476.881 556.599 479.014 560.078C474.765 559.005 472.841 555.346 471.466 551.549Z"/><path fill="#BECFE0" transform="matrix(0.377358 0 0 0.379195 -121.132 -144.473)" d="M545.416 411.083C553.165 409.813 560.926 409.192 568.742 408.458C570.226 408.628 571.518 408.483 572.435 409.273C567.802 414.805 562.052 418.81 557.676 423.854C548.006 435.002 535.463 445.483 525.95 456.476C523.021 459.355 520.357 461.976 517.254 464.676C520.283 459.372 524.227 455.459 528.463 451.12C539.112 440.213 544.022 429.432 545.188 414.253C543.457 414.225 544.675 416.703 542.35 417.832L541.178 415.86L545.416 411.083Z"/><path fill="#84888D" transform="matrix(0.377358 0 0 0.379195 -121.132 -144.473)" d="M525.95 456.476C522.903 463.035 519.41 463.666 516.844 471.43C512.343 475.437 507.419 477.524 503.174 481.507C498.522 485.873 494.183 490.829 489.727 495.422L465.767 519.781C462.727 522.921 454.698 528.364 453.903 530.456L454.059 530.742C449.59 535.511 443.284 542.151 437.704 545.354C446.105 535.345 458.087 524.738 467.358 515.534C480.437 502.55 493.489 489.954 505.587 476.021C508.975 472.118 513.068 469.711 517.254 464.676C520.357 461.976 523.021 459.355 525.95 456.476Z"/><path fill="#5C5958" transform="matrix(0.377358 0 0 0.379195 -121.132 -144.473)" d="M478.338 526.1L487.416 536.563C482.79 537.289 471.364 537.634 469.317 539.914C469.894 541.722 470.065 541.669 471.408 543.077L469.57 544.086C470.386 547.117 470.629 547.063 470.436 550.153C468.768 548.44 466.012 545.188 463.965 544.442C461.179 546.472 462.326 547.85 458.397 550.524C455.809 548.912 456.507 548.806 453.945 548.867C453.948 546.843 467.94 537.937 471.285 534.873C474.055 532.312 476.432 529.356 478.338 526.1Z"/><path fill="#747274" transform="matrix(0.377358 0 0 0.379195 -121.132 -144.473)" d="M454.059 530.742L455.535 530.776C455.935 531.698 456.358 532.109 455.828 532.766C445.245 545.891 420.334 561.428 412.957 576.514L409.138 573.129C418.553 565.042 427.674 553.583 437.704 545.354C443.284 542.151 449.59 535.511 454.059 530.742Z"/><path fill="#84888D" transform="matrix(0.377358 0 0 0.379195 -121.132 -144.473)" d="M515.519 491.115L514.895 490.352C516.29 487.565 521.893 484.388 522.4 482.925C525.316 474.505 523.437 470.022 534.259 468.851C537.639 468.486 541.694 462.542 545.316 459.75L546.365 460.429C541.84 465.662 535.67 471.195 530.731 476.193C525.824 481.158 520.906 486.807 515.519 491.115Z"/><defs><linearGradient id="gradient_6" gradientUnits="userSpaceOnUse" x1="408.61337" y1="434.17874" x2="383.74365" y2="480.30182"><stop offset="0" stop-color="#DBF0F8"/><stop offset="1" stop-color="#C5D1E2"/></linearGradient></defs><path fill="url(#gradient_6)" transform="matrix(0.377358 0 0 0.379195 -121.132 -144.473)" d="M338.847 407.899C348.622 408.1 357.62 408.416 367.315 410.14C377.605 418.531 384.388 429.497 393.524 438.156C414.612 458.144 434.291 483.626 455.482 502.906C450.841 505.696 448.059 509.987 442.348 513.464C441.307 517.303 435.667 522.48 432.714 525.598C414.484 506.695 398.012 492.826 379.911 473.078C377.624 471.491 365.636 459.289 362.772 456.579C355.835 450.013 348.189 443.458 341.46 436.792C340.358 428.975 339.449 415.847 338.847 407.899Z"/><defs><linearGradient id="gradient_7" gradientUnits="userSpaceOnUse" x1="354.93924" y1="457.62729" x2="371.51706" y2="429.43875"><stop offset="0" stop-color="#745E5F"/><stop offset="1" stop-color="#979698"/></linearGradient></defs><path fill="url(#gradient_7)" transform="matrix(0.377358 0 0 0.379195 -121.132 -144.473)" d="M338.847 407.899C357.658 429.515 382.184 452.36 402.105 473.267C402.625 476.876 406.551 485.736 405.047 488.445C400.272 487.86 393.245 476.095 386.059 471.8L384.936 472.154L386.569 474.798L386.06 475.283C383.884 474.572 382.044 473.904 379.911 473.078C377.624 471.491 365.636 459.289 362.772 456.579C355.835 450.013 348.189 443.458 341.46 436.792C340.358 428.975 339.449 415.847 338.847 407.899Z"/><path fill="#5C5958" transform="matrix(0.377358 0 0 0.379195 -121.132 -144.473)" d="M379.911 473.078C382.044 473.904 383.884 474.572 386.06 475.283L386.569 474.798L384.936 472.154L386.059 471.8C393.245 476.095 400.272 487.86 405.047 488.445C406.551 485.736 402.625 476.876 402.105 473.267C408.903 479.277 437.348 511.289 442.348 513.464C441.307 517.303 435.667 522.48 432.714 525.598C414.484 506.695 398.012 492.826 379.911 473.078Z"/><path fill="#262627" transform="matrix(0.377358 0 0 0.379195 -121.132 -144.473)" d="M519.589 536.481C527.061 535.924 531.228 536.123 538.71 536.764C535.565 551.883 533.12 559.88 524.349 572.479C530.405 579.459 542.326 592.818 547.64 600.078L557.21 611.711C568.242 614.604 577.328 621.188 573.421 634.141C572.224 638.212 569.405 641.612 565.625 643.54C554.856 648.92 540.839 639.192 541.901 627.658C540.229 625.659 531.62 618.591 529.171 616.483C520.457 608.957 511.795 601.371 503.184 593.728C489.144 602.499 481.948 604.844 465.478 607.596C465.249 601.097 465.226 594.593 465.409 588.092C475.948 585.971 479.009 584.74 488.874 580.19C493.396 578.55 497.414 575.624 501.203 572.746C504.096 569.532 507.597 564.546 510.265 560.959C514.83 553.037 517.572 545.42 519.589 536.481Z"/><path fill="#4C4948" transform="matrix(0.377358 0 0 0.379195 -121.132 -144.473)" d="M520.232 587.389L520.247 578.52L521.312 577.681C523.099 578.357 522.271 577.855 523.498 579.76L522.999 580.109L521.745 579.072L521.301 579.44C527.868 591.193 542.663 601.362 550.643 612.513C551.701 613.991 553.1 613.977 554.646 613.934C557.008 610.475 547.601 605.923 547.64 600.078L557.21 611.711C568.242 614.604 577.328 621.188 573.421 634.141C572.224 638.212 569.405 641.612 565.625 643.54C554.856 648.92 540.839 639.192 541.901 627.658C544.575 626.353 547.622 621.839 548.154 618.834C546.135 613.772 524.998 590.486 520.232 587.389Z"/><defs><linearGradient id="gradient_8" gradientUnits="userSpaceOnUse" x1="397.17169" y1="630.11438" x2="407.01691" y2="538.95331"><stop offset="0" stop-color="#232426"/><stop offset="1" stop-color="#4C4B4A"/></linearGradient></defs><path fill="url(#gradient_8)" transform="matrix(0.377358 0 0 0.379195 -121.132 -144.473)" d="M373.065 536.661C380.669 535.914 385.42 536.067 393.092 536.425C395.314 545.749 396.733 551.277 400.542 560.003C402.029 564.777 403.878 567.117 407.27 570.711L409.138 573.129L412.957 576.514C416.212 578.253 418.422 579.23 422.048 580.084C429.304 586.202 436.629 588.674 445.981 590.144C445.983 597.365 445.797 602.776 445.311 609.982C433.045 607.951 418.215 603.447 408.302 595.665C406.206 597.952 402.969 600.179 400.492 602.35C393.442 608.646 386.274 614.811 378.994 620.84C376.668 622.791 371.049 627.266 369.28 629.412L366.862 628.138L365.691 626.028C359.886 621.206 359.791 617.471 351.566 613.402C358.567 610.592 379.143 582.47 387.303 574.265C378.492 560.486 376.186 552.587 373.065 536.661Z"/><path fill="#0A0909" transform="matrix(0.377358 0 0 0.379195 -121.132 -144.473)" d="M365.691 626.028L365.961 624.76C366.826 626.158 366.774 626.111 368.028 627.168C370.253 625.969 371.704 622.441 373.99 620.305L375.086 621.731C375.786 621.104 378.773 618.85 379.426 618.497C385.351 615.288 402.326 595.505 408.302 595.665C406.206 597.952 402.969 600.179 400.492 602.35C393.442 608.646 386.274 614.811 378.994 620.84C376.668 622.791 371.049 627.266 369.28 629.412L366.862 628.138L365.691 626.028Z"/><path fill="#747274" transform="matrix(0.377358 0 0 0.379195 -121.132 -144.473)" d="M339.806 640.982C330.695 632.219 338.104 615.78 351.566 613.402C359.791 617.471 359.886 621.206 365.691 626.028L366.862 628.138L369.28 629.412C368.09 636.08 366.926 639.951 360.923 643.932C353.777 648.671 345.222 647.42 339.806 640.982Z"/><path fill="#4C4948" transform="matrix(0.377358 0 0 0.379195 -121.132 -144.473)" d="M366.862 628.138L369.28 629.412C368.09 636.08 366.926 639.951 360.923 643.932C353.777 648.671 345.222 647.42 339.806 640.982C354.886 643.77 362.375 643.916 366.862 628.138Z"/></g></svg>