<?xml version="1.0" encoding="utf-8" ?><svg xmlns="http://www.w3.org/2000/svg" xmlns:xlink="http://www.w3.org/1999/xlink" width="100" height="106" viewBox="0 0 100 106"><clipPath id="cl_8"><rect x="1.1444092e-05" y="0.00012207031" width="100" height="106"/></clipPath><g clip-path="url(#cl_8)"><path fill="#B89667" transform="matrix(0.363636 0 0 0.365517 -15.6364 0.00012207)" d="M112.009 20.0101C119.179 14.0011 139.537 13.9977 147.907 18.0951C157.409 21.4481 163.109 25.6524 170.702 31.9449C186.532 30.1708 199.353 34.3343 200.865 52.5328C201.559 61.6209 199.263 70.6868 194.328 78.3488C195.923 86.392 196.529 90.8881 195.786 99.0374C195.057 102.62 193.613 106.272 194.626 109.267C196.213 110.343 196.765 110.58 198.533 111.362C208.927 115.195 230.158 135.416 237.005 144.347C251.725 163.547 260.072 192.106 251.289 215.506C248.218 223.688 240.933 234.965 247.282 242.611C240.721 246.881 241.714 238.235 231.006 250.117L231.056 251.122C229.915 251.366 229.704 251.157 229.304 251.757L231.038 251.206C231.972 251.976 232.032 251.712 232.139 252.723C232.676 257.763 236.81 259.847 240.822 263.046C236.481 264.517 234.813 261.64 230.729 264.897C222.287 265.644 205.642 266.63 197.486 266.188L197.205 265.012C196.028 261.38 195.768 260.638 193.748 257.388L188.655 258.085C182.973 258.831 178.185 259.892 173.461 256.256C171.392 253.721 170.231 251.607 167.233 250.891L165.139 251.859L165.479 250.765C164.504 247.717 143.452 232.227 138.434 226.632C119.655 212.697 111.011 192.396 117.416 169.433L117.565 169.102C116.986 168.394 117.228 168.751 116.82 168.045C117.895 165.638 118.871 165.372 121.162 164.028C122.2 163.518 123.306 162.429 124.231 161.638L125.122 161.159C126.759 157.843 130.012 153.688 127.416 150.801L123.246 150.646C127.997 149.899 140.149 150.03 145.529 149.981L149.59 150.063C149.562 146.985 149.153 143.941 148.813 140.88C138.107 145.268 129.512 138.769 117.138 137.467C95.972 136.807 83.2084 127.068 77.7592 105.531C76.8086 101.774 77.6962 97.0735 76.6389 93.0792C70.1858 87.8765 64.8684 77.7294 63.3946 69.6137C61.1855 57.4493 69.0846 44.2425 81.7558 42.4218C83.8726 42.1176 86.0191 41.7266 88.1408 41.4187C94.0527 32.7349 102.264 24.233 112.009 20.0101Z"/><defs><linearGradient id="gradient_0" gradientUnits="userSpaceOnUse" x1="131.93137" y1="59.74707" x2="141.07118" y2="128.3963"><stop offset="0" stop-color="#CAB69A"/><stop offset="1" stop-color="#EDDAB6"/></linearGradient></defs><path fill="url(#gradient_0)" transform="matrix(0.363636 0 0 0.365517 -15.6364 0.00012207)" d="M112.009 20.0101C119.179 14.0011 139.537 13.9977 147.907 18.0951C157.409 21.4481 163.109 25.6524 170.702 31.9449C186.532 30.1708 199.353 34.3343 200.865 52.5328C201.559 61.6209 199.263 70.6868 194.328 78.3488C195.923 86.392 196.529 90.8881 195.786 99.0374C193.689 102.757 194.062 108.046 190.58 109.209C184.637 111.196 169.813 107.036 164.692 110.722C162.305 116.177 164.568 118.636 155.39 120.407C146.902 133.516 134.248 130.619 122.182 125.464C118.221 127.269 116.72 127.494 113.668 124.102C113.7 131.008 117.023 135.369 117.138 137.467C95.972 136.807 83.2084 127.068 77.7592 105.531C76.8086 101.774 77.6962 97.0735 76.6389 93.0792C70.1858 87.8765 64.8684 77.7294 63.3946 69.6137C61.1855 57.4493 69.0846 44.2425 81.7558 42.4218C83.8726 42.1176 86.0191 41.7266 88.1408 41.4187C94.0527 32.7349 102.264 24.233 112.009 20.0101Z"/><path fill="#C2A279" transform="matrix(0.363636 0 0 0.365517 -15.6364 0.00012207)" d="M112.009 20.0101C119.179 14.0011 139.537 13.9977 147.907 18.0951C155.286 24.7319 168.086 26.6958 170.302 38.4525C170.88 41.5182 172.94 55.4041 172.186 57.7488C169.889 58.0102 165.603 55.6809 163.099 55.389C160.65 55.1034 158.326 55.0806 155.873 55.0721L155.509 55.7693L155.696 56.1523C143.615 61.6028 143.41 60.7384 133.701 70.6882C120.792 62.5223 109.743 58.7758 95.6465 66.6467C92.4325 69.732 89.2005 73.0667 88.3424 77.6698C86.557 84.1574 85.9659 91.2723 89.1555 97.4504C94.1039 107.035 108.182 108.643 112.757 111.986C113.305 115.617 113.866 120.441 113.668 124.102C113.7 131.008 117.023 135.369 117.138 137.467C95.972 136.807 83.2084 127.068 77.7592 105.531C76.8086 101.774 77.6962 97.0735 76.6389 93.0792C70.1858 87.8765 64.8684 77.7294 63.3946 69.6137C61.1855 57.4493 69.0846 44.2425 81.7558 42.4218C83.8726 42.1176 86.0191 41.7266 88.1408 41.4187C94.0527 32.7349 102.264 24.233 112.009 20.0101Z"/><path fill="#AA8247" transform="matrix(0.363636 0 0 0.365517 -15.6364 0.00012207)" d="M88.1408 41.4187C94.0527 32.7349 102.264 24.233 112.009 20.0101C107.169 25.9456 94.9855 31.1768 92.1159 38.9909C89.1006 47.2016 90.7197 60.4667 91.1609 69.49C93.9142 67.6418 93.316 66.3005 95.3207 66.3119L95.6465 66.6467C92.4325 69.732 89.2005 73.0667 88.3424 77.6698C86.557 84.1574 85.9659 91.2723 89.1555 97.4504C94.1039 107.035 108.182 108.643 112.757 111.986C113.305 115.617 113.866 120.441 113.668 124.102C113.7 131.008 117.023 135.369 117.138 137.467C95.972 136.807 83.2084 127.068 77.7592 105.531C76.8086 101.774 77.6962 97.0735 76.6389 93.0792C70.1858 87.8765 64.8684 77.7294 63.3946 69.6137C61.1855 57.4493 69.0846 44.2425 81.7558 42.4218C83.8726 42.1176 86.0191 41.7266 88.1408 41.4187Z"/><path fill="#E4B5AF" transform="matrix(0.363636 0 0 0.365517 -15.6364 0.00012207)" d="M68.8327 60.3C69.0039 59.7408 69.1862 59.1851 69.3795 58.6332C71.0594 53.7742 79.0662 46.7086 84.1495 48.6585C83.6924 50.536 83.555 50.0718 81.3681 51.5269C83.6922 54.3416 80.0028 80.3774 78.0369 84.7815L78.5282 85.3006C78.2462 86.509 78.0583 87.2845 77.8928 88.5256L77.4142 88.7455C77.0822 82.4122 67.8523 80.4445 68.8327 60.3Z"/><path fill="#4D3728" transform="matrix(0.363636 0 0 0.365517 -15.6364 0.00012207)" d="M68.8327 60.3C69.0039 59.7408 69.1862 59.1851 69.3795 58.6332C71.0594 53.7742 79.0662 46.7086 84.1495 48.6585C83.6924 50.536 83.555 50.0718 81.3681 51.5269C65.2263 59.8583 69.7378 72.5975 78.0369 84.7815L78.5282 85.3006C78.2462 86.509 78.0583 87.2845 77.8928 88.5256L77.4142 88.7455C77.0822 82.4122 67.8523 80.4445 68.8327 60.3Z"/><path fill="#C2A279" transform="matrix(0.363636 0 0 0.365517 -15.6364 0.00012207)" d="M76.6389 93.0792C70.1858 87.8765 64.8684 77.7294 63.3946 69.6137C61.1855 57.4493 69.0846 44.2425 81.7558 42.4218C83.8726 42.1176 86.0191 41.7266 88.1408 41.4187C82.4908 51.3439 67.2439 44.7819 68.8327 60.3C67.8523 80.4445 77.0822 82.4122 77.4142 88.7455L76.6389 93.0792Z"/><path fill="#B89667" transform="matrix(0.363636 0 0 0.365517 -15.6364 0.00012207)" d="M139.924 52.4027C142.248 52.8384 141.39 52.3817 143.046 54.3704L145.409 53.9737L145.922 54.752C136.178 64.2205 132.983 64.7359 121.291 60.1334C120.098 59.5363 119.623 59.2018 118.537 58.4689C117.942 56.0731 117.846 57.1874 118.653 54.9998C123.335 53.297 126.745 57.3235 131.274 58.098C133.552 58.4876 138.094 54.0105 139.924 52.4027Z"/><defs><linearGradient id="gradient_1" gradientUnits="userSpaceOnUse" x1="190.22726" y1="67.945892" x2="156.05983" y2="76.374474"><stop offset="0" stop-color="#987845"/><stop offset="1" stop-color="#C3A271"/></linearGradient></defs><path fill="url(#gradient_1)" transform="matrix(0.363636 0 0 0.365517 -15.6364 0.00012207)" d="M147.907 18.0951C157.409 21.4481 163.109 25.6524 170.702 31.9449C186.532 30.1708 199.353 34.3343 200.865 52.5328C201.559 61.6209 199.263 70.6868 194.328 78.3488C195.923 86.392 196.529 90.8881 195.786 99.0374C193.689 102.757 194.062 108.046 190.58 109.209C184.637 111.196 169.813 107.036 164.692 110.722C162.305 116.177 164.568 118.636 155.39 120.407C159.975 111.756 163.452 116.503 162.671 105.799C170.288 98.0221 185.533 93.7273 183.86 79.4715C183.2 73.8525 181.694 67.8417 177.195 64.0594C176.66 63.5007 176.112 62.9548 175.551 62.422C169.48 56.684 163.648 55.9076 155.696 56.1523L155.509 55.7693L155.873 55.0721C158.326 55.0806 160.65 55.1034 163.099 55.389C165.603 55.6809 169.889 58.0102 172.186 57.7488C172.94 55.4041 170.88 41.5182 170.302 38.4525C168.086 26.6958 155.286 24.7319 147.907 18.0951Z"/><path fill="#C2A279" transform="matrix(0.363636 0 0 0.365517 -15.6364 0.00012207)" d="M170.702 31.9449C186.532 30.1708 199.353 34.3343 200.865 52.5328C201.559 61.6209 199.263 70.6868 194.328 78.3488C192.852 75.4081 192.3 74.5629 192.937 71.3766L191.642 70.9652C190.381 69.354 189.326 67.8544 188.155 66.1766C183.644 58.511 183.899 54.1607 181.41 45.864C180.974 44.1562 179.757 41.6242 179.085 39.6073L180.005 38.5426C177.509 37.9606 176.991 38.2711 175.382 36.6334C177.218 35.3795 179.242 35.5155 181.547 35.3361C178.022 33.5616 175.843 36.3943 170.702 31.9449Z"/><path fill="#E4B5AF" transform="matrix(0.363636 0 0 0.365517 -15.6364 0.00012207)" d="M180.005 38.5426C195.616 42.7118 195.579 57.9461 191.642 70.9652C190.381 69.354 189.326 67.8544 188.155 66.1766C183.644 58.511 183.899 54.1607 181.41 45.864C180.974 44.1562 179.757 41.6242 179.085 39.6073L180.005 38.5426Z"/><path fill="#4D3728" transform="matrix(0.363636 0 0 0.365517 -15.6364 0.00012207)" d="M181.547 35.3361C198.12 40.4751 196.705 57.7066 192.937 71.3766L191.642 70.9652C195.579 57.9461 195.616 42.7118 180.005 38.5426C177.509 37.9606 176.991 38.2711 175.382 36.6334C177.218 35.3795 179.242 35.5155 181.547 35.3361Z"/><path fill="#815E35" transform="matrix(0.363636 0 0 0.365517 -15.6364 0.00012207)" d="M181.41 45.864C183.899 54.1607 183.644 58.511 188.155 66.1766L186.436 66.528C181.659 63.1963 178.531 50.7195 181.41 45.864Z"/><path fill="#E9D0AB" transform="matrix(0.363636 0 0 0.365517 -15.6364 0.00012207)" d="M177.195 64.0594C181.694 67.8417 183.2 73.8525 183.86 79.4715C185.533 93.7273 170.288 98.0221 162.671 105.799C157.44 103.243 155.208 100.239 155.525 94.1578L154.799 93.731L155.439 92.9059L156.055 92.8957C167.318 97.6478 165.427 80.814 164.12 74.9532L164.322 74.0106L165.446 75.656C169.758 76.3477 179.773 78.8033 182.911 78.5021C181.222 72.4761 181.382 70.8454 177.258 65.6342L176.715 64.9547L177.195 64.0594Z"/><path fill="#E9D0AB" transform="matrix(0.363636 0 0 0.365517 -15.6364 0.00012207)" d="M88.3424 77.6698C88.9325 81.3164 87.8843 87.2408 88.037 91.8999C93.4078 86.6151 95.7584 86.7664 102.59 83.9411C103.235 83.6744 103.659 81.6111 103.795 80.7784L104.186 80.4953L104.382 82.7065C104.601 87.9612 104.642 93.153 108.535 97.2844C111.196 99.3358 110.33 99.2509 113.267 99.6719C115.312 98.8507 115.523 98.7443 117.289 97.448L117.515 98.6493L116.142 100.383C116.423 102.602 116.525 103.25 117.254 105.357C116.84 108.133 114.763 109.972 112.757 111.986C108.182 108.643 94.1039 107.035 89.1555 97.4504C85.9659 91.2723 86.557 84.1574 88.3424 77.6698Z"/><path fill="#060505" transform="matrix(0.363636 0 0 0.365517 -15.6364 0.00012207)" d="M104.938 82.5518C105.97 78.1228 107.091 75.5535 111.841 75.5301C119.987 79.083 120.764 90.2873 117.289 97.448C115.523 98.7443 115.312 98.8507 113.267 99.6719C110.33 99.2509 111.196 99.3358 108.535 97.2844C104.642 93.153 104.601 87.9612 104.382 82.7065L104.938 82.5518Z"/><path fill="#201D1D" transform="matrix(0.363636 0 0 0.365517 -15.6364 0.00012207)" d="M104.382 82.7065L104.938 82.5518L106.418 91.5677L107.166 91.6595C107.873 87.5238 106.086 87.9626 107.775 85.0951C114.62 82.5384 119.193 87.3743 116.379 94.0821C114.845 97.7406 111.184 96.0001 108.535 97.2844C104.642 93.153 104.601 87.9612 104.382 82.7065Z"/><path fill="#C8BFBD" transform="matrix(0.363636 0 0 0.365517 -15.6364 0.00012207)" d="M109.801 77.4636C112.059 77.7864 113.433 78.3227 114.052 80.5662L112.684 81.5405C110.763 81.6584 110.424 81.7083 108.554 81.3678L108.188 80.3002L109.801 77.4636Z"/><path fill="#060505" transform="matrix(0.363636 0 0 0.365517 -15.6364 0.00012207)" d="M150.599 79.8967C151.111 69.2318 156.908 66.7885 164.12 74.9532C165.427 80.814 167.318 97.6478 156.055 92.8957L155.439 92.9059C151.43 88.2468 151.023 85.627 150.599 79.8967Z"/><path fill="#201D1D" transform="matrix(0.363636 0 0 0.365517 -15.6364 0.00012207)" d="M150.599 79.8967C151.53 81.8839 152.149 83.294 152.885 85.3591C153.381 83.3663 153.757 80.5859 155.821 79.4447C159.172 77.5916 162.273 79.9248 163.067 83.5556C163.49 85.5837 163.065 87.6968 161.89 89.403C160.333 91.6177 157.523 91.1674 156.055 92.8957L155.439 92.9059C151.43 88.2468 151.023 85.627 150.599 79.8967Z"/><path fill="#C8BFBD" transform="matrix(0.363636 0 0 0.365517 -15.6364 0.00012207)" d="M155.279 71.9826C157.657 72.2151 159.527 72.4499 160.442 74.7734L159.602 75.6666C157.437 75.9823 156.888 76.1031 154.735 75.9461L154.229 74.9147L155.279 71.9826Z"/><path fill="#633A33" transform="matrix(0.363636 0 0 0.365517 -15.6364 0.00012207)" d="M127.349 122.895C125.161 121.462 123.516 120.703 122.224 118.47L122.616 117.338C126.244 116.459 132.499 116.141 136.445 115.708C143.196 114.916 149.932 113.999 156.649 112.955C155.361 115.308 153.903 117.507 152.456 119.766C144.401 127.506 136.987 128.566 127.349 122.895Z"/><path fill="#060505" transform="matrix(0.363636 0 0 0.365517 -15.6364 0.00012207)" d="M127.349 122.895C125.161 121.462 123.516 120.703 122.224 118.47L122.616 117.338C126.244 116.459 132.499 116.141 136.445 115.708C143.196 114.916 149.932 113.999 156.649 112.955C155.361 115.308 153.903 117.507 152.456 119.766C146.947 116.978 131.731 118.202 127.349 122.895Z"/><path fill="#E9D0AB" transform="matrix(0.363636 0 0 0.365517 -15.6364 0.00012207)" d="M141.363 94.765C137.595 96.3044 133.591 97.0186 130.32 94.0281C129.481 90.4305 127.717 84.8782 128.781 81.3912L128.404 81.8006C130.785 78.1077 136.969 78.1917 140.999 78.6611C142.417 78.8263 142.702 80.0673 143.288 81.2316L142.453 81.7416L141.13 80.6828C140.272 84.5941 144.894 81.7555 141.861 93.4859L143.369 92.8956L143.85 93.8432L141.363 94.765Z"/><path fill="#C2A279" transform="matrix(0.363636 0 0 0.365517 -15.6364 0.00012207)" d="M122.93 106.84C119.172 93.7559 131.741 92.3554 135.268 99.635C135.66 103.355 136.018 102.282 134.757 105.147C132.562 105.902 131.605 104.952 130.165 103.178L129.735 102.954C125.177 105.569 127.923 107.976 125.013 108.697C124.474 108.222 123.375 107.314 122.93 106.84Z"/><path fill="#614630" transform="matrix(0.363636 0 0 0.365517 -15.6364 0.00012207)" d="M130.165 103.178C130.463 101.04 130.443 101.07 131.335 99.1122C133.3 98.4395 132.769 98.705 135.268 99.635C135.66 103.355 136.018 102.282 134.757 105.147C132.562 105.902 131.605 104.952 130.165 103.178Z"/><path fill="#E9D0AB" transform="matrix(0.363636 0 0 0.365517 -15.6364 0.00012207)" d="M122.93 106.84C124.132 103.837 124.216 102.928 126.77 101.394C129.083 101.853 128.144 101.321 129.735 102.954C125.177 105.569 127.923 107.976 125.013 108.697C124.474 108.222 123.375 107.314 122.93 106.84Z"/><path fill="#C2A279" transform="matrix(0.363636 0 0 0.365517 -15.6364 0.00012207)" d="M143.85 93.8432C145.415 93.6391 147.691 92.9552 148.75 94.0712C152.48 98.0027 154.014 100.289 150.809 104.579L150.024 104.62C149.398 101.72 149.576 99.2773 147.878 97.6531C146.319 98.2228 146.407 98.1422 145.395 99.4525C144.683 102.075 144.023 104.568 140.997 104.101C139.26 101.754 139.758 101.612 139.513 98.4092C139.726 96.9003 140.475 96.1517 141.363 94.765L143.85 93.8432Z"/><path fill="#673317" transform="matrix(0.363636 0 0 0.365517 -15.6364 0.00012207)" d="M139.513 98.4092C142.698 97.6056 142.725 97.1467 145.395 99.4525C144.683 102.075 144.023 104.568 140.997 104.101C139.26 101.754 139.758 101.612 139.513 98.4092Z"/><defs><linearGradient id="gradient_2" gradientUnits="userSpaceOnUse" x1="260.8815" y1="216.00891" x2="182.55923" y2="183.37215"><stop offset="0" stop-color="#785D36"/><stop offset="1" stop-color="#AE8C5C"/></linearGradient></defs><path fill="url(#gradient_2)" transform="matrix(0.363636 0 0 0.365517 -15.6364 0.00012207)" d="M198.533 111.362C208.927 115.195 230.158 135.416 237.005 144.347C251.725 163.547 260.072 192.106 251.289 215.506C248.218 223.688 240.933 234.965 247.282 242.611C240.721 246.881 241.714 238.235 231.006 250.117L231.056 251.122C229.915 251.366 229.704 251.157 229.304 251.757L231.038 251.206C231.972 251.976 232.032 251.712 232.139 252.723C232.676 257.763 236.81 259.847 240.822 263.046C236.481 264.517 234.813 261.64 230.729 264.897C222.287 265.644 205.642 266.63 197.486 266.188L197.205 265.012C196.028 261.38 195.768 260.638 193.748 257.388L191.335 254.162L189.552 251.174C184.959 244.563 180.813 237.684 176.51 230.881L177.855 229.536C178.059 227.325 177.796 227.741 176.513 225.376C174.322 223.862 171.342 218.092 170.068 215.645C168.28 212.76 163.484 207.045 161.203 204.165C164.583 205.52 165.167 207.726 167.522 209.27C180.524 217.799 180.869 219.618 188.225 232.852L189.78 232.747C194.242 229.948 198.744 225.266 202.82 221.697C212.883 212.925 224.972 205.147 232.907 194.316C234.174 192.057 235.66 189.376 236.337 186.889C242.815 163.072 227.531 142.264 211.728 126.229C210.159 124.637 209.987 119.901 208.042 118.465C204.634 115.948 200.437 113.483 196.749 111.436L198.533 111.362Z"/><path fill="#815E35" transform="matrix(0.363636 0 0 0.365517 -15.6364 0.00012207)" d="M170.068 215.645C171.447 215.22 172.853 214.392 174.075 215.326C183.648 222.648 189.524 237.076 190.696 248.489L189.552 251.174C184.959 244.563 180.813 237.684 176.51 230.881L177.855 229.536C178.059 227.325 177.796 227.741 176.513 225.376C174.322 223.862 171.342 218.092 170.068 215.645Z"/><path fill="#4D3728" transform="matrix(0.363636 0 0 0.365517 -15.6364 0.00012207)" d="M176.513 225.376C184.64 231.824 183.813 240.932 190.696 248.489L189.552 251.174C184.959 244.563 180.813 237.684 176.51 230.881L177.855 229.536C178.059 227.325 177.796 227.741 176.513 225.376Z"/><defs><linearGradient id="gradient_3" gradientUnits="userSpaceOnUse" x1="139.94234" y1="150.20226" x2="197.38803" y2="144.51575"><stop offset="0" stop-color="#A98554"/><stop offset="1" stop-color="#DCBC8A"/></linearGradient></defs><path fill="url(#gradient_3)" transform="matrix(0.363636 0 0 0.365517 -15.6364 0.00012207)" d="M155.39 120.407C164.568 118.636 162.305 116.177 164.692 110.722C169.813 107.036 184.637 111.196 190.58 109.209C194.062 108.046 193.689 102.757 195.786 99.0374C195.057 102.62 193.613 106.272 194.626 109.267C196.213 110.343 196.765 110.58 198.533 111.362L196.749 111.436C193.974 111.143 194.987 110.859 192.8 112.22C191.689 118.426 197.056 120.445 196.756 122.953C201.011 129.612 201.723 131.528 202.972 139.335L201.992 139.501C200.659 137.75 199.314 136.008 197.958 134.274C198.49 137.613 199.762 145.924 199.397 149.1C198.786 155.623 198.662 162.183 199.028 168.724C184.719 165.051 175.582 162.669 160.809 163.295C158.479 163.394 147.462 158.462 140.679 158.348C133.228 158.309 131.663 158.082 125.122 161.159C126.759 157.843 130.012 153.688 127.416 150.801L123.246 150.646C127.997 149.899 140.149 150.03 145.529 149.981L149.59 150.063C149.562 146.985 149.153 143.941 148.813 140.88C138.107 145.268 129.512 138.769 117.138 137.467C117.023 135.369 113.7 131.008 113.668 124.102C116.72 127.494 118.221 127.269 122.182 125.464C134.248 130.619 146.902 133.516 155.39 120.407Z"/><path fill="#A9815B" transform="matrix(0.363636 0 0 0.365517 -15.6364 0.00012207)" d="M155.39 120.407C164.568 118.636 162.305 116.177 164.692 110.722C169.813 107.036 184.637 111.196 190.58 109.209C194.062 108.046 193.689 102.757 195.786 99.0374C195.057 102.62 193.613 106.272 194.626 109.267C196.213 110.343 196.765 110.58 198.533 111.362L196.749 111.436C193.974 111.143 194.987 110.859 192.8 112.22C191.689 118.426 197.056 120.445 196.756 122.953C201.011 129.612 201.723 131.528 202.972 139.335L201.992 139.501C200.659 137.75 199.314 136.008 197.958 134.274C196.76 131.859 195.349 129.397 194.046 127.025C187.969 124.586 179.817 120.165 173.353 123.285C160.319 129.575 173.612 137.447 174.05 141.468C171.71 141.894 172.439 141.464 170.692 142.887L170.026 140.996L169.492 141.622L169.706 140.951L170.059 141.028C169.627 141.862 169.266 142.525 168.783 143.33C168.341 143.09 167.899 142.849 167.456 142.609C167.693 144.469 167.84 146.47 168.471 148.216C173.244 148.08 173.804 145.5 177.529 146.47C175.029 148.544 166.149 149.833 162.649 149.66C159.097 149.835 153.027 150.265 149.59 150.063C149.562 146.985 149.153 143.941 148.813 140.88C138.107 145.268 129.512 138.769 117.138 137.467C117.023 135.369 113.7 131.008 113.668 124.102C116.72 127.494 118.221 127.269 122.182 125.464C134.248 130.619 146.902 133.516 155.39 120.407Z"/><path fill="#815E35" transform="matrix(0.363636 0 0 0.365517 -15.6364 0.00012207)" d="M154.333 133.966C154.268 131.279 154.761 129.472 156.745 127.591L157.664 127.947C158.788 136.082 160.187 141.739 162.649 149.66C159.097 149.835 153.027 150.265 149.59 150.063C149.562 146.985 149.153 143.941 148.813 140.88L150.184 138.578C152.205 136.905 152.747 136.084 154.333 133.966Z"/><path fill="#614630" transform="matrix(0.363636 0 0 0.365517 -15.6364 0.00012207)" d="M154.333 133.966C156.592 135.86 159.088 145.738 160.294 149.228C158.02 146.33 153.647 141.509 151.806 138.706L150.184 138.578C152.205 136.905 152.747 136.084 154.333 133.966Z"/><path fill="#4D3728" transform="matrix(0.363636 0 0 0.365517 -15.6364 0.00012207)" d="M194.046 127.025C190.75 120.591 188.419 120.618 185.09 115.454C189.355 115.008 188.649 112.738 191.458 110.681C192.258 112.004 191.407 114.162 191.033 116.101C191.832 118.44 194.793 121.503 196.756 122.953C201.011 129.612 201.723 131.528 202.972 139.335L201.992 139.501C200.659 137.75 199.314 136.008 197.958 134.274C196.76 131.859 195.349 129.397 194.046 127.025Z"/><path fill="#A9815B" transform="matrix(0.363636 0 0 0.365517 -15.6364 0.00012207)" d="M123.246 150.646C127.997 149.899 140.149 150.03 145.529 149.981C145.081 150.939 144.668 151.654 144.42 152.677C143 153.694 137.845 156.761 137.395 157.451L140.679 158.348C133.228 158.309 131.663 158.082 125.122 161.159C126.759 157.843 130.012 153.688 127.416 150.801L123.246 150.646Z"/><defs><linearGradient id="gradient_4" gradientUnits="userSpaceOnUse" x1="151.27478" y1="185.10632" x2="168.89555" y2="152.95593"><stop offset="0" stop-color="#785A3B"/><stop offset="1" stop-color="#B18F5B"/></linearGradient></defs><path fill="url(#gradient_4)" transform="matrix(0.363636 0 0 0.365517 -15.6364 0.00012207)" d="M199.397 149.1C200.457 152.924 203.996 170.361 203.471 173.462C197.403 180.385 171.792 171.208 171.046 171.614L166.437 169.052C154.402 162.533 143.516 158.36 129.297 161.854C128.067 162.421 124.542 164.161 123.457 164.524C121.621 166.3 121.332 166.631 119.162 167.899C119.282 166.073 119.916 165.82 121.162 164.028C122.2 163.518 123.306 162.429 124.231 161.638L125.122 161.159C131.663 158.082 133.228 158.309 140.679 158.348C147.462 158.462 158.479 163.394 160.809 163.295C175.582 162.669 184.719 165.051 199.028 168.724C198.662 162.183 198.786 155.623 199.397 149.1Z"/><path fill="#614630" transform="matrix(0.363636 0 0 0.365517 -15.6364 0.00012207)" d="M197.958 134.274C199.314 136.008 200.659 137.75 201.992 139.501L202.972 139.335C204.847 145.876 208.002 171.995 206.142 177.578C194.929 187.551 195.212 181.041 184.562 181.974C179.654 177.34 176.622 175.404 171.046 171.614C171.792 171.208 197.403 180.385 203.471 173.462C203.996 170.361 200.457 152.924 199.397 149.1C199.762 145.924 198.49 137.613 197.958 134.274Z"/><path fill="#815E35" transform="matrix(0.363636 0 0 0.365517 -15.6364 0.00012207)" d="M117.416 169.433L117.565 169.102C116.986 168.394 117.228 168.751 116.82 168.045C117.895 165.638 118.871 165.372 121.162 164.028C119.916 165.82 119.282 166.073 119.162 167.899C121.332 166.631 121.621 166.3 123.457 164.524C119.65 188.258 117.652 191.415 131.552 212.956C132.389 214.252 134.69 217.155 134.777 218.429C132.113 217.181 130.79 213.642 127.389 211.197L126.74 212.597C129.859 217.329 137.339 222.625 138.434 226.632C119.655 212.697 111.011 192.396 117.416 169.433Z"/><path fill="#E5B967" transform="matrix(0.363636 0 0 0.365517 -15.6364 0.00012207)" d="M129.297 161.854C143.516 158.36 154.402 162.533 166.437 169.052L164.261 168.938C165.03 171.279 176.036 177.993 179.347 182.249L178.694 182.712C172.905 180.443 165.535 171.99 159.2 169.32C154.097 167.17 136.039 158.215 132.497 164.928C134.998 171.827 153.096 174.491 158.096 175.778C160.687 176.445 171.428 189.477 174.001 192.598L173.515 192.981C171.486 191.797 170.593 190.111 169.11 188.188C159.703 175.987 139.47 177.131 129.365 166.341C128.645 165.573 129.114 162.977 129.297 161.854Z"/><path fill="#815E35" transform="matrix(0.363636 0 0 0.365517 -15.6364 0.00012207)" d="M184.562 181.974C195.212 181.041 194.929 187.551 206.142 177.578L206.908 188.675C205.372 190.494 203.616 192.714 201.93 194.344C193.887 190.977 190.601 188.356 184.562 181.974Z"/><path fill="#060505" transform="matrix(0.363636 0 0 0.365517 -15.6364 0.00012207)" d="M143.516 196.345C152.348 198.394 153.628 199.056 161.203 204.165C163.484 207.045 168.28 212.76 170.068 215.645C171.342 218.092 174.322 223.862 176.513 225.376C177.796 227.741 178.059 227.325 177.855 229.536L176.51 230.881C165.017 214.673 162.613 206.678 143.516 196.345Z"/><path fill="#E5B967" transform="matrix(0.363636 0 0 0.365517 -15.6364 0.00012207)" d="M167.233 250.891C170.708 250.034 187.579 252.81 191.335 254.162L193.748 257.388L188.655 258.085C182.973 258.831 178.185 259.892 173.461 256.256C171.392 253.721 170.231 251.607 167.233 250.891Z"/><defs><linearGradient id="gradient_5" gradientUnits="userSpaceOnUse" x1="312.63052" y1="157.73981" x2="233.79027" y2="177.43636"><stop offset="0" stop-color="#B3905E"/><stop offset="1" stop-color="#E2C191"/></linearGradient></defs><path fill="url(#gradient_5)" transform="matrix(0.363636 0 0 0.365517 -15.6364 0.00012207)" d="M251.915 102.313C266.001 82.3658 301.985 92.8581 302.642 112.738C297.027 119.934 295.423 118.016 287.845 114.106C272.975 106.432 254.74 103.214 262.437 127.196C267.9 136.118 289.964 174.185 292.041 182.09C298.691 199.034 300.005 218.045 293.093 235.202C287.424 249.274 268.778 261.006 253.968 261.969C247.635 263.703 237.442 265.046 230.729 264.897C234.813 261.64 236.481 264.517 240.822 263.046C236.81 259.847 232.676 257.763 232.139 252.723C232.032 251.712 231.972 251.976 231.038 251.206L229.304 251.757C229.704 251.157 229.915 251.366 231.056 251.122L231.006 250.117C241.714 238.235 240.721 246.881 247.282 242.611C251.626 242.56 253.341 242.486 257.58 241.706C260 240.893 262.52 239.69 264.872 238.647C275.251 232.071 280.098 221.914 280.432 209.761C281.241 180.96 259.594 158.988 249.387 133.686C244.628 121.889 244.747 112.814 251.915 102.313Z"/><path fill="#815E35" transform="matrix(0.363636 0 0 0.365517 -15.6364 0.00012207)" d="M264.872 238.647C275.251 232.071 280.098 221.914 280.432 209.761C281.241 180.96 259.594 158.988 249.387 133.686C244.628 121.889 244.747 112.814 251.915 102.313C252.119 105.351 252.397 115.061 253.177 117.559C255.443 124.817 260.491 132.621 263.896 139.392C270.149 151.83 278.281 166.071 283.709 178.659C290.66 194.779 291.503 219.043 278.345 232.252C273.52 237.296 272.312 238.889 264.872 238.647Z"/><path fill="#AA8247" transform="matrix(0.363636 0 0 0.365517 -15.6364 0.00012207)" d="M292.041 182.09C298.691 199.034 300.005 218.045 293.093 235.202C287.424 249.274 268.778 261.006 253.968 261.969C247.635 263.703 237.442 265.046 230.729 264.897C234.813 261.64 236.481 264.517 240.822 263.046C236.81 259.847 232.676 257.763 232.139 252.723C232.032 251.712 231.972 251.976 231.038 251.206L229.304 251.757C229.704 251.157 229.915 251.366 231.056 251.122L231.006 250.117C241.714 238.235 240.721 246.881 247.282 242.611C251.626 242.56 253.341 242.486 257.58 241.706C254.167 244.211 253.805 244.118 249.768 245.167C248.869 247.418 248.972 246.293 249.434 248.662C254.717 254.994 267.065 247.531 272.523 245.961C292.546 240.201 294.634 217.397 295.182 199.741C295.364 193.873 292.881 188.499 292.041 182.09Z"/><path fill="#A9815B" transform="matrix(0.363636 0 0 0.365517 -15.6364 0.00012207)" d="M292.041 182.09C298.691 199.034 300.005 218.045 293.093 235.202C287.424 249.274 268.778 261.006 253.968 261.969C254.509 259.187 267.119 258.44 271.926 254.472C269.674 253.97 262.472 257.852 258.799 257.646C266.902 253.159 277.79 250.612 284.574 242.986C286.792 240.493 293.796 232.609 292.39 229.227C287.837 238.255 283.28 245.023 273.6 248.876C265.602 252.059 250.816 261.438 245.871 249.015C246.833 246.645 247.421 246.808 249.768 245.167C248.869 247.418 248.972 246.293 249.434 248.662C254.717 254.994 267.065 247.531 272.523 245.961C292.546 240.201 294.634 217.397 295.182 199.741C295.364 193.873 292.881 188.499 292.041 182.09Z"/><path fill="#815E35" transform="matrix(0.363636 0 0 0.365517 -15.6364 0.00012207)" d="M262.437 127.196C257.968 121.937 255.049 109.317 259.975 103.646C273.78 87.7545 289.344 97.7522 298.385 112.378C299.081 113.503 301.569 112.871 302.642 112.738C297.027 119.934 295.423 118.016 287.845 114.106C272.975 106.432 254.74 103.214 262.437 127.196Z"/><path fill="#C2A279" transform="matrix(0.363636 0 0 0.365517 -15.6364 0.00012207)" d="M167.233 250.891C170.231 251.607 171.392 253.721 173.461 256.256C178.185 259.892 182.973 258.831 188.655 258.085L193.748 257.388C195.768 260.638 196.028 261.38 197.205 265.012L197.486 266.188C187.812 268.103 175.411 266.484 165.33 266.171C156.491 265.896 143.106 268.007 135.106 266.041C135.268 263.551 135.149 263.216 136.472 261.226C139.495 258.198 140.745 258.409 144.932 258.211C153.598 257.801 157.917 256.263 165.139 251.859L167.233 250.891Z"/><path fill="#E9D0AB" transform="matrix(0.363636 0 0 0.365517 -15.6364 0.00012207)" d="M167.233 250.891C170.231 251.607 171.392 253.721 173.461 256.256L174.025 258.417C169.964 260.318 139.275 264.712 136.472 261.226C139.495 258.198 140.745 258.409 144.932 258.211C153.598 257.801 157.917 256.263 165.139 251.859L167.233 250.891Z"/><path fill="#A9815B" transform="matrix(0.363636 0 0 0.365517 -15.6364 0.00012207)" d="M135.106 266.041C144.654 266.2 160.007 261.176 171.021 262.363C177.035 263.011 193.168 267.331 197.205 265.012L197.486 266.188C187.812 268.103 175.411 266.484 165.33 266.171C156.491 265.896 143.106 268.007 135.106 266.041Z"/><path fill="#C2A279" transform="matrix(0.363636 0 0 0.365517 -15.6364 0.00012207)" d="M123.246 150.646L127.416 150.801C130.012 153.688 126.759 157.843 125.122 161.159L124.231 161.638C123.306 162.429 122.2 163.518 121.162 164.028C118.871 165.372 117.895 165.638 116.82 168.045C117.228 168.751 116.986 168.394 117.565 169.102L117.416 169.433C109.902 174.83 115.199 183.791 105.185 183.664C98.6829 179.458 100.029 169.779 101.967 163.38C105.112 154.377 115.049 152.781 123.246 150.646Z"/><path fill="#8B633A" transform="matrix(0.363636 0 0 0.365517 -15.6364 0.00012207)" d="M103.993 172.753C109.942 161.176 111.911 162.65 124.231 161.638C123.306 162.429 122.2 163.518 121.162 164.028C118.871 165.372 117.895 165.638 116.82 168.045C117.228 168.751 116.986 168.394 117.565 169.102L117.416 169.433C109.902 174.83 115.199 183.791 105.185 183.664C105.993 179.508 104.931 176.789 103.993 172.753Z"/><path fill="#E9D0AB" transform="matrix(0.363636 0 0 0.365517 -15.6364 0.00012207)" d="M101.967 163.38C105.112 154.377 115.049 152.781 123.246 150.646C125.391 152.284 124.953 151.506 125.875 153.787C122.396 159.458 110.847 156.723 106.156 161.207C105.173 162.147 103.701 163.23 102.618 164.185L101.967 163.38Z"/></g></svg>