<?xml version="1.0" encoding="utf-8" ?><svg xmlns="http://www.w3.org/2000/svg" xmlns:xlink="http://www.w3.org/1999/xlink" width="200" height="202" viewBox="0 0 200 202"><clipPath id="cl_11"><rect x="3.0517578e-05" y="0.00012207031" width="200" height="202"/></clipPath><g clip-path="url(#cl_11)"><path fill="#BD9F78" transform="matrix(0.790514 0 0 0.792157 -233.202 -539.459)" d="M122.343 696.275C150.129 687.943 167.227 683.502 196.99 691.035C203.048 692.568 208.113 694.741 213.531 696.313C220.576 694.349 224.562 695.066 230.975 697.806C240.821 691.891 246.047 691.577 255.881 697.679C270.126 696.715 280.589 702.052 279.572 717.977C293.926 722.848 294.371 733.351 287.674 745.273C294.918 753.296 290.901 761.937 284.382 768.693C285.293 774.678 285.57 776.184 283.652 782.142C283.028 784.685 283.639 787.068 284.022 789.715C294.725 874.629 208.851 944.481 128.245 912.484C122.036 910.019 116.396 908.549 110.801 904.556C99.691 900.246 82.2622 883.486 75.285 873.783C54.0373 844.236 48.1142 818.869 53.2985 783.301C49.4854 775.973 52.3918 775.382 51.1831 768.94C50.7362 766.558 44.2696 759.797 44.4248 755.455C44.5893 750.854 45.6443 748.28 48.7047 745.014C47.9216 743.514 46.422 741.717 45.9009 740.335C41.8079 729.479 45.4206 722.425 55.1923 718.359C59.2848 716.161 54.0484 703.485 66.0693 699.673C70.918 697.231 74.9315 696.96 80.1419 697.865C89.8779 691.786 95.4456 691.383 105.159 698.075C111.978 694.715 115.032 694.792 122.343 696.275Z"/><defs><linearGradient id="gradient_0" gradientUnits="userSpaceOnUse" x1="256.61374" y1="741.48474" x2="285.30743" y2="721.44904"><stop offset="0" stop-color="#C42C19"/><stop offset="1" stop-color="#D15848"/></linearGradient></defs><path fill="url(#gradient_0)" transform="matrix(0.790514 0 0 0.792157 -233.202 -539.459)" d="M230.975 697.806C240.821 691.891 246.047 691.577 255.881 697.679C270.126 696.715 280.589 702.052 279.572 717.977C293.926 722.848 294.371 733.351 287.674 745.273C294.918 753.296 290.901 761.937 284.382 768.693C285.293 774.678 285.57 776.184 283.652 782.142C280.925 778.992 278.969 766.602 276.887 761.951C265.675 736.914 251.454 721.349 230.318 705.125C228.783 705.006 214.972 697.695 213.531 696.313C220.576 694.349 224.562 695.066 230.975 697.806Z"/><path fill="#A39166" transform="matrix(0.790514 0 0 0.792157 -233.202 -539.459)" d="M110.801 904.556C112.713 904.7 113.787 905.567 115.676 905.128L114.724 905.014L115.197 903.375C119.727 902.172 126.439 906.275 130.482 907.522C161.916 917.214 190.619 917.353 220.189 901.968C238.56 892.409 250.306 883.523 261.441 865.541C273.895 845.429 283.655 827.967 282.028 803.601C281.839 800.809 281.944 792.135 282.908 789.668L283.371 793.503L283.346 791.048L283.996 791.077L284.022 789.715C294.725 874.629 208.851 944.481 128.245 912.484C122.036 910.019 116.396 908.549 110.801 904.556Z"/><defs><linearGradient id="gradient_1" gradientUnits="userSpaceOnUse" x1="421.52933" y1="903.80359" x2="427.63275" y2="692.51935"><stop offset="0" stop-color="#8F9798"/><stop offset="1" stop-color="#BBC9CB"/></linearGradient></defs><path fill="url(#gradient_1)" transform="matrix(0.790514 0 0 0.792157 -233.202 -539.459)" d="M324.651 839.339C314.769 828.047 311.097 803.59 311.957 788.871C313.639 760.1 329.328 737.983 350.031 718.874C385.987 685.685 447.612 683.122 487.819 709.495C518.155 729.394 540.477 764.091 537.802 801.177C534.757 843.38 493.656 884.942 460.295 906.715C457.461 909.413 447.938 914.981 444.429 916.881C425.173 927.306 409.278 920.192 392.629 909.036C366.195 891.322 339.384 867.831 324.651 839.339Z"/><path fill="#1B2426" transform="matrix(0.790514 0 0 0.792157 -233.202 -539.459)" d="M351.437 768.648C378.965 761.038 401.502 778.209 408.321 804.3C415.886 833.244 406.233 853.299 373.873 850.278C362.628 847.142 352.83 840.181 346.166 830.595C338.001 819.006 334.345 803.343 336.831 789.321C338.634 779.151 343.46 774.132 351.437 768.648Z"/><path fill="#BABEBC" transform="matrix(0.790514 0 0 0.792157 -233.202 -539.459)" d="M357.985 775.945C367.279 775.42 374.574 776.618 381.079 784.129C386.855 790.799 384.928 798.648 378.085 803.78C361.787 805.51 343.172 785.146 357.985 775.945Z"/><path fill="#D0D0D0" transform="matrix(0.790514 0 0 0.792157 -233.202 -539.459)" d="M364.029 782.512L364.789 782.8C368.558 781.988 372.255 782.717 374.3 786.291C374.636 789.509 374.918 788.217 373.397 791.078L372.767 791.515C366.424 792.464 360.276 788.665 364.029 782.512Z"/><path fill="#838A8B" transform="matrix(0.790514 0 0 0.792157 -233.202 -539.459)" d="M342.334 826.83C335.336 816.858 333.51 797.745 336.319 786.034C337.97 779.149 343.559 768.93 351.437 768.648C343.46 774.132 338.634 779.151 336.831 789.321C334.345 803.343 338.001 819.006 346.166 830.595C352.83 840.181 362.628 847.142 373.873 850.278C367.673 851.165 360.89 846.255 355.546 843.03C363.97 854.204 369.971 861.818 384.565 863.09C388.036 863.393 396.826 864.724 399.95 865.85C407.424 868.544 413.263 873.169 421.473 874.632C426.852 875.59 439.202 871.104 442.334 871.516C447.012 870.448 450.934 868.353 455.422 866.837C447.676 885.113 435.959 893.974 415.144 889.915L413.891 890.113L409.554 888.496C411.046 889.656 411.528 889.943 412.442 891.671C415.291 893.172 414.207 892.432 416.775 893.012C425.975 895.225 431.8 899.881 441.999 898.281C447.723 897.897 452.912 894.173 458.498 893.734C460.223 893.599 462.404 899.179 461.444 901.307C460.435 903.545 459.714 904.494 460.295 906.715C457.461 909.413 447.938 914.981 444.429 916.881C425.173 927.306 409.278 920.192 392.629 909.036C366.195 891.322 339.384 867.831 324.651 839.339C325.836 839.869 341.691 862.278 344.448 865.44C340.604 856.283 336.448 845.097 338.164 834.991C338.46 833.247 341.324 828.553 342.334 826.83Z"/><path fill="#1B2426" transform="matrix(0.790514 0 0 0.792157 -233.202 -539.459)" d="M442.334 871.516C447.012 870.448 450.934 868.353 455.422 866.837C447.676 885.113 435.959 893.974 415.144 889.915C414.487 889.28 410.645 887.106 409.512 886.295C400.803 880.066 398.22 877.21 394.844 867.267C410.927 872.981 425.626 880.775 442.334 871.516Z"/><path fill="#1B2426" transform="matrix(0.790514 0 0 0.792157 -233.202 -539.459)" d="M481.38 766.58C529.308 760.28 521.97 843.726 471.784 850.602C419.99 855.457 433.78 773.048 481.38 766.58Z"/><path fill="#D0D0D0" transform="matrix(0.790514 0 0 0.792157 -233.202 -539.459)" d="M483.042 775.941C507.694 775.007 494.381 796.677 480.174 803.111C467.662 804.145 466.466 798.808 465.948 787.836C471.704 779.44 473.617 778.223 483.042 775.941Z"/><path fill="#EEF4F4" transform="matrix(0.790514 0 0 0.792157 -233.202 -539.459)" d="M423.049 763.384C426.601 763.169 430.147 763.881 433.341 765.45C439.621 768.592 442.406 775.487 438.543 781.814C435.172 787.334 430.415 788.418 424.565 789.871C404.913 785.349 403.51 766.393 423.049 763.384Z"/></g></svg>