<?xml version="1.0" encoding="utf-8" ?><svg xmlns="http://www.w3.org/2000/svg" xmlns:xlink="http://www.w3.org/1999/xlink" width="200" height="202" viewBox="0 0 200 202"><clipPath id="cl_4"><rect x="-4.196167e-05" y="9.059906e-06" width="200" height="202"/></clipPath><g clip-path="url(#cl_4)"><path fill="white" fill-opacity="0.0078431377" transform="matrix(0.285307 0 0 0.286525 -41.9401 -6.87659)" d="M0 0L4096 0L4096 3794L0 3794L0 0ZM155.619 2331.22C146.558 2352.96 150.273 2369.13 132.743 2387.19C125.493 2394.65 126.462 2407.37 126.12 2417.61L126.53 2415.66C128.122 2453.79 129.892 2501.99 179.903 2512.02C154.523 2449.36 149.658 2397.42 155.619 2331.22Z"/><defs><linearGradient id="gradient_0" gradientUnits="userSpaceOnUse" x1="473.06372" y1="598.09448" x2="514.47723" y2="108.56059"><stop offset="0" stop-color="#F3C04B"/><stop offset="1" stop-color="#FFDF63"/></linearGradient></defs><path fill="url(#gradient_0)" transform="matrix(0.285307 0 0 0.286525 -41.9401 -6.87659)" d="M211.338 183.332C253.345 122.638 319.852 66.3455 395.051 45.7112C453.245 29.743 509.075 26.4524 568.425 38.8782C582.456 41.8157 598.451 44.4495 611.225 50.6726C688.912 71.7806 747.837 132.955 789.124 194.56C914.135 400.587 803.146 674.445 543.888 715.146C462.121 727.982 372.551 703.497 305.488 660.57C149.102 560.468 101.558 326.127 211.338 183.332Z"/><defs><linearGradient id="gradient_1" gradientUnits="userSpaceOnUse" x1="498.30264" y1="352.22791" x2="497.56253" y2="68.477791"><stop offset="0" stop-color="#FEE03F"/><stop offset="1" stop-color="#FFFFE1"/></linearGradient></defs><path fill="url(#gradient_1)" transform="matrix(0.285307 0 0 0.286525 -41.9401 -6.87659)" d="M395.846 81.8656C471.831 57.2409 531.034 57.6233 606.729 83.588C619.287 88.4174 626.301 91.3344 638.192 97.4459C649.111 105.033 653.767 108.21 665.893 114.282C699.219 137.504 734.782 169.415 754.892 203.627C756.785 215.818 762.009 224.085 768.438 234.813C749.456 257.433 720.298 290.749 686.473 291.025L674.259 298.754C667.297 297.308 666.124 296.682 659.756 294.116C654.091 294.412 654.425 294.705 649.726 297.848C648.03 295.966 646.357 294.068 644.706 292.153C636.958 300.343 641.16 327.657 625.616 337.503L622.979 336.669C603.431 349.876 599.889 350.498 576.823 343.701L576.287 346.423C582.955 350.833 588.197 351.923 596.058 354.425C601.708 352.295 606.934 349.177 611.91 349.949L613.705 348.518L615.657 348.751L610.643 349.901L612.733 350.462C568.683 362.941 578.039 345.903 550.105 328.068C528.594 332.474 524.211 344.119 502.188 341.177C493.434 340.008 472.619 338.584 464.202 337.998C449.813 336.997 440.772 319.794 433.406 330.484C421.693 347.482 414.269 350.885 391.953 355.094C382.968 356.79 380.887 353.805 373.45 348.778L374.496 347.461L377.333 348.488C388.155 352.338 393.417 355.176 404.515 351.001C407.175 348.466 407.048 349.404 407.849 346.485C389 348.929 387.072 348.745 370.099 340.826L368.326 340.857C347.156 331.034 355.111 305.706 347.206 288.23L344.145 293.628C336.694 297.576 311.408 300.53 304.904 297.51C279.395 284.936 250.829 264.97 232.938 243.551C225.182 234.266 241.747 212.762 245.185 199.746C264.426 169.726 297.88 135.897 329.486 116.873C338.427 109.311 364.608 95.156 375.717 89.5489L395.846 81.8656Z"/><path fill="#593113" transform="matrix(0.285307 0 0 0.286525 -41.9401 -6.87659)" d="M370.099 340.826C368.124 338.217 366.221 335.563 364.391 332.865C331.744 284.014 386.133 216.957 424.586 271.766C434.45 285.825 432.685 309.082 427.141 325.351L423.037 330.415C417.386 337.665 414.766 340.182 407.849 346.485C389 348.929 387.072 348.745 370.099 340.826Z"/><path fill="#975C23" transform="matrix(0.285307 0 0 0.286525 -41.9401 -6.87659)" d="M423.037 330.415C411.984 331.117 411.351 345.944 397.255 345.01C355.295 342.228 360.23 272.191 399.882 279.582C420.082 283.347 414.206 312.285 418.647 325.276C420.679 321.374 419.141 322.422 422.363 321.237L427.141 325.351L423.037 330.415Z"/><path fill="#6C3E16" transform="matrix(0.285307 0 0 0.286525 -41.9401 -6.87659)" d="M576.823 343.701C559.827 323.552 550.493 294.634 564.592 272.867C602.744 213.965 657.785 282.123 622.979 336.669C603.431 349.876 599.889 350.498 576.823 343.701Z"/><path fill="#975C23" transform="matrix(0.285307 0 0 0.286525 -41.9401 -6.87659)" d="M589.275 280.448C592.559 280.432 596.828 280.146 599.98 280.954C606.523 282.63 613.392 288.876 616.656 294.326C621.646 302.659 622.144 313.345 619.031 322.33C616.039 330.965 610.564 336.942 602.096 341.281C594.366 341.872 588.322 341.983 581.831 337.206C574.957 332.149 572.47 323.629 572.466 315.828C572.457 299.983 577.159 291.16 589.275 280.448Z"/><path fill="#FAF8D0" transform="matrix(0.285307 0 0 0.286525 -41.9401 -6.87659)" d="M395.846 81.8656L403.335 87.2925L409.869 86.1193L409.3 87.3243C394.856 91.3766 382.026 94.9008 368.434 101.299C360.4 105.082 331.313 130.074 325.148 128.058C326.596 123.327 325.415 125.49 328.716 121.579L329.486 116.873C338.427 109.311 364.608 95.156 375.717 89.5489L395.846 81.8656Z"/><path fill="#D79438" transform="matrix(0.285307 0 0 0.286525 -41.9401 -6.87659)" d="M211.338 183.332C212.589 206.768 195.387 211.205 201.331 222.802C201.569 222.633 209.714 209.414 212.415 206.284C214.46 211.595 203.385 228.032 205.202 237.587C201.433 261.462 194.229 289.404 193.06 313.044C190.436 366.14 208.637 425.363 230.455 473.995C239.046 493.145 280.718 547.372 298.665 556.674C316.601 592.265 373.782 623.911 412.484 637.266C468.079 656.451 535.406 656.115 589.706 633.065C595.045 630.799 626.666 615.785 628.209 612.953C660.164 599.682 697.547 559.399 721.824 535.06C769.407 487.355 793.823 412.646 800.411 349.014C800.87 344.577 799.9 346.887 801.723 341.62C805.844 331.953 797.408 254.552 793.022 246.6L795.82 247.56C798.989 252.501 800.474 256.297 805.971 258.608C806.774 250.087 774.871 199.129 773.132 189.601C779.192 191.232 778.003 201.552 786.646 203.631L789.124 194.56C914.135 400.587 803.146 674.445 543.888 715.146C462.121 727.982 372.551 703.497 305.488 660.57C149.102 560.468 101.558 326.127 211.338 183.332Z"/><defs><linearGradient id="gradient_2" gradientUnits="userSpaceOnUse" x1="492.47189" y1="431.86301" x2="498.0647" y2="635.51361"><stop offset="0" stop-color="#81521D"/><stop offset="1" stop-color="#A06E2A"/></linearGradient></defs><path fill="url(#gradient_2)" transform="matrix(0.285307 0 0 0.286525 -41.9401 -6.87659)" d="M265.696 468.829C264.114 457.999 257.183 426.661 272.017 423.187C293.206 428.975 315.37 435.431 336.922 439.833C434.905 459.847 545.756 461.093 643.941 441.283C669.864 436.052 694.635 428.127 720.413 423.349C721.781 424.518 723.148 425.686 724.516 426.855C730.719 442.874 723.585 472.19 717.17 487.567C712.617 510.129 690.474 540.303 675.435 558.238L675.599 562.265C678.094 563.647 678.883 563.818 680.568 566.062C667.049 587.532 636.599 600.161 628.209 612.953C626.666 615.785 595.045 630.799 589.706 633.065C535.406 656.115 468.079 656.451 412.484 637.266C373.782 623.911 316.601 592.265 298.665 556.674C315.018 563.081 310.413 579.498 327.875 575.768C296.355 538.799 276.47 514.851 265.696 468.829Z"/><path fill="#593113" transform="matrix(0.285307 0 0 0.286525 -41.9401 -6.87659)" d="M265.696 468.829C264.114 457.999 257.183 426.661 272.017 423.187C293.206 428.975 315.37 435.431 336.922 439.833C434.905 459.847 545.756 461.093 643.941 441.283C669.864 436.052 694.635 428.127 720.413 423.349C721.781 424.518 723.148 425.686 724.516 426.855C730.719 442.874 723.585 472.19 717.17 487.567C713.063 478.224 724.976 454.307 716.934 442.211L714.211 442.079C713.652 467.372 706.976 508.539 677.265 515.751C573.414 540.963 456.611 544.045 351.84 523.381C342.712 521.581 314.084 517.043 309.141 514.223C320.72 513.325 337.428 520.526 342.361 520.174L341.485 518.146C330.661 516.773 300.267 510.406 293.704 503.504C281.787 490.974 270.455 455.246 268.382 439.268L266.983 438.677C264.859 450.179 271.142 460.539 269.389 471.215L265.696 468.829Z"/><path fill="#EDEBE9" transform="matrix(0.285307 0 0 0.286525 -41.9401 -6.87659)" d="M657.368 511.435C538.071 531.028 420.3 543.605 302.724 502.785C289.267 498.113 272.657 459.375 280.891 447.853C292.16 447.909 323.724 456.553 336.599 459.3C429.708 479.164 519.183 479.805 613.465 467.104C629.761 463.546 696.542 447.477 707.932 450.74C717.334 460.24 698.853 492.351 692.409 503.152C680.241 506.446 669.888 509.43 657.368 511.435Z"/><path fill="#C6CAC8" transform="matrix(0.285307 0 0 0.286525 -41.9401 -6.87659)" d="M613.465 467.104C629.761 463.546 696.542 447.477 707.932 450.74C717.334 460.24 698.853 492.351 692.409 503.152C680.241 506.446 669.888 509.43 657.368 511.435L661.358 507.849C663.608 507.48 669.225 506.641 669.254 505.109C669.647 484.74 673.667 473.845 689.008 458.119C663.565 466.862 640.522 468.656 613.465 467.104Z"/><path fill="#C6CAC8" transform="matrix(0.285307 0 0 0.286525 -41.9401 -6.87659)" d="M290.845 467.969C293.401 469.125 295.521 470.291 297.456 472.268C303.196 478.135 310.382 487.942 310.295 495.799C306.189 495.644 303.328 495.234 299.879 492.9C292.445 487.87 291.156 475.789 290.845 467.969Z"/><path fill="#ECB94E" transform="matrix(0.285307 0 0 0.286525 -41.9401 -6.87659)" d="M298.665 556.674C315.018 563.081 310.413 579.498 327.875 575.768C386.831 626.265 455.165 647.998 534.561 636.875C585.878 629.685 644.986 596.516 675.435 558.238L675.599 562.265C678.094 563.647 678.883 563.818 680.568 566.062C667.049 587.532 636.599 600.161 628.209 612.953C626.666 615.785 595.045 630.799 589.706 633.065C535.406 656.115 468.079 656.451 412.484 637.266C373.782 623.911 316.601 592.265 298.665 556.674Z"/><path fill="#F5B84A" transform="matrix(0.285307 0 0 0.286525 -41.9401 -6.87659)" d="M211.338 183.332C253.345 122.638 319.852 66.3455 395.051 45.7112C453.245 29.743 509.075 26.4524 568.425 38.8782C582.456 41.8157 598.451 44.4495 611.225 50.6726C688.912 71.7806 747.837 132.955 789.124 194.56L786.646 203.631C778.003 201.552 779.192 191.232 773.132 189.601C774.871 199.129 806.774 250.087 805.971 258.608C800.474 256.297 798.989 252.501 795.82 247.56L793.022 246.6C797.408 254.552 805.844 331.953 801.723 341.62C785.429 298.104 791.669 250.193 754.892 203.627C734.782 169.415 699.219 137.504 665.893 114.282C653.767 108.21 649.111 105.033 638.192 97.4459C626.301 91.3344 619.287 88.4174 606.729 83.588C531.034 57.6233 471.831 57.2409 395.846 81.8656L375.717 89.5489C364.608 95.156 338.427 109.311 329.486 116.873C297.88 135.897 264.426 169.726 245.185 199.746C226.834 222.415 218.224 250.792 207.133 276.824C204.799 282.302 204.312 295.716 200.545 298.319C197.089 280.682 227.414 216.857 238.762 201.428C260.18 172.307 279.72 148.928 308.649 125.635C322.064 114.833 342.13 107.754 346.506 97.231C325.391 95.6816 262.428 160.264 248.686 176.169C240.039 186.178 226.101 215.926 217.129 218.762C213.154 226.619 213.068 232.57 208.93 238.56L205.202 237.587C203.385 228.032 214.46 211.595 212.415 206.284C209.714 209.414 201.569 222.633 201.331 222.802C195.387 211.205 212.589 206.768 211.338 183.332Z"/><path fill="#F3A842" transform="matrix(0.285307 0 0 0.286525 -41.9401 -6.87659)" d="M611.225 50.6726C688.912 71.7806 747.837 132.955 789.124 194.56L786.646 203.631C778.003 201.552 779.192 191.232 773.132 189.601C774.871 199.129 806.774 250.087 805.971 258.608C800.474 256.297 798.989 252.501 795.82 247.56L793.022 246.6L792.802 242.796L790.239 241.147C757.888 175.333 736.352 142.517 676.617 91.7421C656.67 74.7868 619.832 66.7954 611.225 50.6726Z"/><path fill="#FCD75D" transform="matrix(0.285307 0 0 0.286525 -41.9401 -6.87659)" d="M375.717 89.5489C370.879 87.5275 370.901 87.6778 366.965 84.4511L368.659 81.7625C378.356 80.207 395.151 72.8657 404 68.3833C465.559 37.204 554.02 42.6755 612.407 78.0866L606.729 83.588C531.034 57.6233 471.831 57.2409 395.846 81.8656L375.717 89.5489Z"/><path fill="#F4CA54" transform="matrix(0.285307 0 0 0.286525 -41.9401 -6.87659)" d="M638.192 97.4459L632.437 87.1601L633.468 84.6013C647.634 84.6 659.81 104.594 665.893 114.282C653.767 108.21 649.111 105.033 638.192 97.4459Z"/></g></svg>