<?xml version="1.0" encoding="utf-8" ?><svg xmlns="http://www.w3.org/2000/svg" xmlns:xlink="http://www.w3.org/1999/xlink" width="200" height="219" viewBox="0 0 200 219"><clipPath id="cl_1c"><rect y="7.6293945e-05" width="200" height="219.00002"/></clipPath><g clip-path="url(#cl_1c)"><path fill="#B5B0B1" transform="matrix(0.775194 0 0 0.776596 -427.907 -252.394)" d="M712.908 390.066C715.896 374.306 721.769 359.53 734.113 348.805C740.012 343.68 745.458 348.621 748.164 354.115C761.03 380.232 758.381 415.28 749.595 442.002C748.49 445.331 747.338 448.644 746.139 451.941C748.005 458.12 750.741 468.994 754.274 474.267C755.23 475.695 759.9 479.169 761.554 481.276C777.3 493.652 784.318 513.052 781.27 532.797C778.856 546.937 771.943 561.361 760.587 570.413C758.795 571.766 756.651 573.079 755.509 574.865L754.151 575.456C752.561 576.173 751.14 576.813 749.586 577.629L749.34 578.48L750.468 579.83L750.024 580.561L747.628 578.754C745.406 579.52 737.182 582.327 735.236 582.54C718.118 584.405 711.508 582.162 695.485 589.19C689.72 592.479 672.35 592.602 666.491 589.292C653.768 581.888 642.5 584.366 628.499 582.634C622.527 581.895 619.23 580.696 613.597 578.566L610.058 581.999L608.938 581.145C610.489 579.774 611.533 579.414 611.77 577.85L609.563 576.065C613.307 573.167 613.633 571.374 618.673 569.835C620.04 572.242 624.651 571.823 627.022 571.291C628.342 570.874 629.743 570.347 631.058 569.883L629.921 569.382L631.271 568.703C631.469 567.92 631.746 567.029 631.972 566.245C633.627 565.774 634.372 565.694 635.652 564.467L640.047 562.742L639.855 562.364C636.082 562.493 630.359 563.745 626.484 564.472C623.138 566.308 619.793 567.144 616.356 568.71C614.112 570.085 608.324 574.554 606.975 574.812C594.789 565.319 581.106 549.915 580.745 533.529C577.384 518.896 583.221 495.62 595.225 485.702C596.756 483.969 601.567 479.788 603.56 478.021C611.421 471.051 612.456 462.306 615.052 452.281C606.048 423.181 599.421 391.887 609.798 361.991C621.572 328.07 639.568 361.652 645.403 378.066C650.799 394.248 651.429 404.311 651.455 421.109C668.003 416.109 693.463 415.664 709.898 421.144C710.1 415.584 710.594 394.577 712.908 390.066Z"/><path fill="#ECEAEB" transform="matrix(0.775194 0 0 0.776596 -427.907 -252.394)" d="M670.356 507.668C671.704 501.76 671.165 492.257 671.468 485.892C671.857 477.706 670.688 452.572 685.982 462.479C687.242 463.296 688.436 464.845 688.846 466.276C691.479 478.469 689.022 492.738 691.165 504.843C692.214 516.017 693.14 528.002 702.257 535.888C714.951 546.869 734.831 547.153 747.285 552.218C752.61 553.056 754.257 555.803 758.595 557.078L759.089 556.803C761.266 557.325 763.775 560.151 766.325 561.783C773.861 559.567 777.854 535.129 781.27 532.797C778.856 546.937 771.943 561.361 760.587 570.413C758.795 571.766 756.651 573.079 755.509 574.865L754.151 575.456C752.561 576.173 751.14 576.813 749.586 577.629L749.34 578.48L750.468 579.83L750.024 580.561L747.628 578.754C745.406 579.52 737.182 582.327 735.236 582.54C718.118 584.405 711.508 582.162 695.485 589.19C689.72 592.479 672.35 592.602 666.491 589.292C653.768 581.888 642.5 584.366 628.499 582.634C622.527 581.895 619.23 580.696 613.597 578.566L610.058 581.999L608.938 581.145C610.489 579.774 611.533 579.414 611.77 577.85L609.563 576.065C613.307 573.167 613.633 571.374 618.673 569.835C620.04 572.242 624.651 571.823 627.022 571.291C628.342 570.874 629.743 570.347 631.058 569.883L629.921 569.382L631.271 568.703C631.469 567.92 631.746 567.029 631.972 566.245C633.627 565.774 634.372 565.694 635.652 564.467L640.047 562.742L639.855 562.364C636.082 562.493 630.359 563.745 626.484 564.472C623.138 566.308 619.793 567.144 616.356 568.71C613.312 568.539 611.692 568.321 609.685 565.842C607.325 567.255 607.292 567.792 604.942 567.849C605.575 565.983 606.472 565.886 608.433 564.444C605.451 562.838 601.894 560.676 603.31 557.015C607.715 555.821 610.308 552.801 615.875 551.595C629.163 548.263 646.265 545.338 657.43 537.401C667.21 530.448 668.798 518.629 670.356 507.668Z"/><defs><linearGradient id="gradient_0" gradientUnits="userSpaceOnUse" x1="652.86383" y1="576.08844" x2="655.27887" y2="562.92584"><stop offset="0" stop-color="#C3BBBE"/><stop offset="1" stop-color="#FFF9F8"/></linearGradient></defs><path fill="url(#gradient_0)" transform="matrix(0.775194 0 0 0.776596 -427.907 -252.394)" d="M631.271 568.703C647.914 563.971 656.08 567.129 672.307 565.922L675.283 568.626L678.397 570.065C680.362 570.083 681.754 570.253 683.646 569.82C686.4 572.555 691.339 574.851 694.884 576.802C697.264 577.869 704.997 580.436 705.959 581.39C702.28 582.316 698.84 580.761 695.299 579.528C695.251 582.324 695.022 586.562 695.485 589.19C689.72 592.479 672.35 592.602 666.491 589.292C653.768 581.888 642.5 584.366 628.499 582.634C622.527 581.895 619.23 580.696 613.597 578.566L610.058 581.999L608.938 581.145C610.489 579.774 611.533 579.414 611.77 577.85L609.563 576.065C613.307 573.167 613.633 571.374 618.673 569.835C620.04 572.242 624.651 571.823 627.022 571.291C628.342 570.874 629.743 570.347 631.058 569.883L629.921 569.382L631.271 568.703Z"/><path fill="#ECEAEB" transform="matrix(0.775194 0 0 0.776596 -427.907 -252.394)" d="M678.397 570.065C680.362 570.083 681.754 570.253 683.646 569.82C686.4 572.555 691.339 574.851 694.884 576.802C697.264 577.869 704.997 580.436 705.959 581.39C702.28 582.316 698.84 580.761 695.299 579.528C695.251 582.324 695.022 586.562 695.485 589.19C689.72 592.479 672.35 592.602 666.491 589.292C666.667 586.138 666.561 582.282 666.562 579.068C662.749 580.619 658.371 583.293 654.703 580.623C665.206 578.028 669.412 576.107 678.397 570.065Z"/><path fill="#959294" transform="matrix(0.775194 0 0 0.776596 -427.907 -252.394)" d="M678.397 570.065C680.362 570.083 681.754 570.253 683.646 569.82C686.4 572.555 691.339 574.851 694.884 576.802C697.264 577.869 704.997 580.436 705.959 581.39C702.28 582.316 698.84 580.761 695.299 579.528C690.436 576.707 686.391 574.245 681.719 571.131C681.654 573.916 681.571 575.975 681.258 578.738L680.513 578.708C679.947 576.142 679.841 574.905 679.628 572.265L678.91 571.99C674.596 574.646 671.043 576.72 666.562 579.068C662.749 580.619 658.371 583.293 654.703 580.623C665.206 578.028 669.412 576.107 678.397 570.065Z"/><path fill="#AEA4AE" transform="matrix(0.775194 0 0 0.776596 -427.907 -252.394)" d="M609.563 576.065C613.307 573.167 613.633 571.374 618.673 569.835C620.04 572.242 624.651 571.823 627.022 571.291C628.482 572.5 629.46 573.387 631.125 574.345C643.312 572.387 643.642 582.049 653.258 580.531C653.938 580.423 654.041 580.497 654.703 580.623C658.371 583.293 662.749 580.619 666.562 579.068C666.561 582.282 666.667 586.138 666.491 589.292C653.768 581.888 642.5 584.366 628.499 582.634C622.527 581.895 619.23 580.696 613.597 578.566L610.058 581.999L608.938 581.145C610.489 579.774 611.533 579.414 611.77 577.85L609.563 576.065Z"/><path fill="#959294" transform="matrix(0.775194 0 0 0.776596 -427.907 -252.394)" d="M624.633 572.202C624.961 572.288 624.712 572.186 625.56 572.807C623.595 574.986 622.269 575.349 619.546 576.651L619.222 576.724L618.786 576.261C620.366 574.407 622.502 573.417 624.633 572.202Z"/><path fill="#ABA7A5" transform="matrix(0.775194 0 0 0.776596 -427.907 -252.394)" d="M631.058 569.883C633.083 569.609 633.964 569.09 635.394 569.867C633.316 571.674 632.509 571.933 631.125 574.345C629.46 573.387 628.482 572.5 627.022 571.291C628.342 570.874 629.743 570.347 631.058 569.883Z"/><path fill="#AEA4AE" transform="matrix(0.775194 0 0 0.776596 -427.907 -252.394)" d="M758.595 557.078L759.089 556.803C761.266 557.325 763.775 560.151 766.325 561.783C773.861 559.567 777.854 535.129 781.27 532.797C778.856 546.937 771.943 561.361 760.587 570.413C758.795 571.766 756.651 573.079 755.509 574.865L754.151 575.456C752.561 576.173 751.14 576.813 749.586 577.629L749.34 578.48L750.468 579.83L750.024 580.561L747.628 578.754C745.406 579.52 737.182 582.327 735.236 582.54C718.118 584.405 711.508 582.162 695.485 589.19C695.022 586.562 695.251 582.324 695.299 579.528C698.84 580.761 702.28 582.316 705.959 581.39C704.997 580.436 697.264 577.869 694.884 576.802C691.339 574.851 686.4 572.555 683.646 569.82L686.351 568.885C694.593 564.709 721.03 564.64 729.478 568.85L729.083 569.942L737.41 572.203C740.069 571.737 740.262 571.74 742.712 570.708L742.927 569.7C744.243 570 748.563 572.331 750.72 573.055C748.598 571.632 749.28 570.955 746.355 569.388C749.094 568.114 749.706 567.794 752.069 565.931C753.753 566.99 755.295 568.32 757.161 568.258C756.398 566.345 755.65 566.294 753.733 564.819C756.585 562.154 758.637 561.059 758.595 557.078Z"/><defs><linearGradient id="gradient_1" gradientUnits="userSpaceOnUse" x1="713.71198" y1="579.05737" x2="706.21204" y2="560.07349"><stop offset="0" stop-color="#C2B6B8"/><stop offset="1" stop-color="#FFFAFB"/></linearGradient></defs><path fill="url(#gradient_1)" transform="matrix(0.775194 0 0 0.776596 -427.907 -252.394)" d="M686.351 568.885C694.593 564.709 721.03 564.64 729.478 568.85L729.083 569.942L728.191 570.719C729.727 571.357 731.271 571.974 732.824 572.57C729.803 574.529 728.075 574.533 725.371 575.665C713.171 580.771 705.903 577.198 694.884 576.802C691.339 574.851 686.4 572.555 683.646 569.82L686.351 568.885Z"/><path fill="#959294" transform="matrix(0.775194 0 0 0.776596 -427.907 -252.394)" d="M729.083 569.942L737.41 572.203L740.186 573.765L739.955 573.558C740.947 574.865 740.7 575.029 741.857 575.497L741.57 574.749L742.634 575.666L742.226 575.928C739.059 574.905 735.923 573.785 732.824 572.57C731.271 571.974 729.727 571.357 728.191 570.719L729.083 569.942Z"/><path fill="#C29BA1" transform="matrix(0.775194 0 0 0.776596 -427.907 -252.394)" d="M667.05 558.448C665.354 556.621 663.935 553.969 664.376 551.429C668.567 544.106 693.009 544.424 697.059 551.538C697.122 553.922 697.38 552.807 696.101 554.963C693.073 561.311 691.182 563.707 686.351 568.885L683.646 569.82C681.754 570.253 680.362 570.083 678.397 570.065L675.283 568.626L672.307 565.922C670.239 563.245 668.872 561.298 667.05 558.448Z"/><path fill="#191310" transform="matrix(0.775194 0 0 0.776596 -427.907 -252.394)" d="M676.675 567.682C684.333 569.396 684.133 566.418 688.554 560.92C691.03 557.84 692.766 556.997 696.101 554.963C693.073 561.311 691.182 563.707 686.351 568.885L683.646 569.82C681.754 570.253 680.362 570.083 678.397 570.065L675.283 568.626L676.675 567.682Z"/><path fill="#0A0805" transform="matrix(0.775194 0 0 0.776596 -427.907 -252.394)" d="M667.05 558.448C672.957 557.592 675.941 562.166 676.675 567.682L675.283 568.626L672.307 565.922C670.239 563.245 668.872 561.298 667.05 558.448Z"/><path fill="#CBC6CB" transform="matrix(0.775194 0 0 0.776596 -427.907 -252.394)" d="M603.31 557.015C607.715 555.821 610.308 552.801 615.875 551.595C613.759 554.33 611.994 554.387 608.424 555.904C610.385 558.639 609.978 558.971 612.599 560.189C614.7 559.348 616.468 557.76 618.515 558.64C616.12 560.639 611.341 562.913 608.433 564.444C605.451 562.838 601.894 560.676 603.31 557.015Z"/><path fill="#CBC6CB" transform="matrix(0.775194 0 0 0.776596 -427.907 -252.394)" d="M747.285 552.218C752.61 553.056 754.257 555.803 758.595 557.078C758.637 561.059 756.585 562.154 753.733 564.819L741.537 557.815C745.201 558.409 746.195 559.183 749.413 560.932C750.492 559.466 752.174 557.523 753.364 556.068C750.93 554.928 748.879 554.3 747.285 552.218Z"/><path fill="#CBC6CB" transform="matrix(0.775194 0 0 0.776596 -427.907 -252.394)" d="M609.685 565.842C614.579 562.729 619.281 559.962 624.831 558.168C623.157 559.644 622.681 560.111 620.687 561.264L620.417 562.724C621.956 564.544 621.037 564.015 623.075 564.649L625.48 563.686C626.457 564.377 626.235 564.145 626.484 564.472C623.138 566.308 619.793 567.144 616.356 568.71C613.312 568.539 611.692 568.321 609.685 565.842Z"/><path fill="#CBC6CB" transform="matrix(0.775194 0 0 0.776596 -427.907 -252.394)" d="M737.15 558.272C742.25 560.224 747.288 563.219 752.069 565.931C749.706 567.794 749.094 568.114 746.355 569.388C743.946 567.986 737.808 565.815 734.829 564.514L735.314 563.904C737.578 564.114 740.526 564.41 742.329 562.759L741.721 561.6C739.501 560.449 738.8 560.124 737.15 558.272Z"/><path fill="#959294" transform="matrix(0.775194 0 0 0.776596 -427.907 -252.394)" d="M737.15 558.272C728.82 556.212 725.116 555.815 716.505 555.072C719.648 553.184 734.272 555.926 738.142 556.88C739.281 557.162 740.414 557.474 741.537 557.815L753.733 564.819C755.65 566.294 756.398 566.345 757.161 568.258C755.295 568.32 753.753 566.99 752.069 565.931C747.288 563.219 742.25 560.224 737.15 558.272Z"/><path fill="#CBC6CB" transform="matrix(0.775194 0 0 0.776596 -427.907 -252.394)" d="M726.689 564.431C730.202 564.133 739.735 567.907 742.927 569.7L742.712 570.708C740.262 571.74 740.069 571.737 737.41 572.203L729.083 569.942L729.478 568.85C730.225 568.458 730.855 567.825 731.531 567.255L731.36 566.6L727.352 565.387L726.689 564.431Z"/><path fill="#959294" transform="matrix(0.775194 0 0 0.776596 -427.907 -252.394)" d="M618.515 558.64C628.564 555.339 629.735 555.21 640.472 554.43L640.815 555.098C637.243 555.733 627.655 556.975 624.831 558.168C619.281 559.962 614.579 562.729 609.685 565.842C607.325 567.255 607.292 567.792 604.942 567.849C605.575 565.983 606.472 565.886 608.433 564.444C611.341 562.913 616.12 560.639 618.515 558.64Z"/><path fill="#959294" transform="matrix(0.775194 0 0 0.776596 -427.907 -252.394)" d="M726.689 564.431C724.219 563.683 721.757 562.906 719.304 562.101L719.899 561.836L719.201 561.818L720.437 562.571L720.811 561.965L734.829 564.514C737.808 565.815 743.946 567.986 746.355 569.388C749.28 570.955 748.598 571.632 750.72 573.055C748.563 572.331 744.243 570 742.927 569.7C739.735 567.907 730.202 564.133 726.689 564.431Z"/><path fill="#6C696A" transform="matrix(0.775194 0 0 0.776596 -427.907 -252.394)" d="M712.908 390.066C715.896 374.306 721.769 359.53 734.113 348.805C740.012 343.68 745.458 348.621 748.164 354.115C761.03 380.232 758.381 415.28 749.595 442.002C748.49 445.331 747.338 448.644 746.139 451.941C748.005 458.12 750.741 468.994 754.274 474.267C755.23 475.695 759.9 479.169 761.554 481.276L760.772 481.892C747.157 476.725 747.763 448.467 740.37 443.441C728.776 433.915 721.987 427.613 707.371 421.799C703.354 420.345 697.644 417.842 693.507 419.899C692.115 420.591 691.345 420.77 689.835 420.86C686.158 420.163 683.315 419.787 679.618 419.363L678.956 418.434C656.91 417.833 641.288 425.289 624.714 440.007C623.46 441.121 622.509 442.245 621.486 443.568C612.351 450.505 616.017 473.872 601.604 482.204C599.809 483.242 597.956 485.728 595.225 485.702C596.756 483.969 601.567 479.788 603.56 478.021C611.421 471.051 612.456 462.306 615.052 452.281C606.048 423.181 599.421 391.887 609.798 361.991C621.572 328.07 639.568 361.652 645.403 378.066C650.799 394.248 651.429 404.311 651.455 421.109C668.003 416.109 693.463 415.664 709.898 421.144C710.1 415.584 710.594 394.577 712.908 390.066Z"/><defs><linearGradient id="gradient_2" gradientUnits="userSpaceOnUse" x1="726.90997" y1="444.48367" x2="743.13074" y2="347.44046"><stop offset="0" stop-color="#A89A9A"/><stop offset="1" stop-color="#DFDCDC"/></linearGradient></defs><path fill="url(#gradient_2)" transform="matrix(0.775194 0 0 0.776596 -427.907 -252.394)" d="M712.908 390.066C715.896 374.306 721.769 359.53 734.113 348.805C740.012 343.68 745.458 348.621 748.164 354.115C761.03 380.232 758.381 415.28 749.595 442.002C748.49 445.331 747.338 448.644 746.139 451.941C748.005 458.12 750.741 468.994 754.274 474.267C755.23 475.695 759.9 479.169 761.554 481.276L760.772 481.892C747.157 476.725 747.763 448.467 740.37 443.441C742.375 435.92 743.754 426.668 745.095 418.904L744.632 416.689L743.518 416.082C743.419 414.386 743.841 408.257 743.89 406.059C744.122 395.703 744.579 386.43 743.252 376.097C742.185 371.688 741.235 370.032 738.974 366.093C730.631 372.896 728.755 375.694 726.375 386.416L725.414 383.961C722.368 396.521 720.866 407.525 720.504 420.399C720.46 421.958 719.582 423.785 718.594 425.016C715.874 425.894 713.398 422.294 713.44 420.806C713.679 412.286 714.908 403.647 713.74 395.128L713.25 399.88C712.683 395.7 712.585 395.067 713.356 390.876L712.908 390.066Z"/><path fill="#959294" transform="matrix(0.775194 0 0 0.776596 -427.907 -252.394)" d="M744.877 375.594C748.407 384.939 746.555 408.701 745.095 418.904L744.632 416.689L743.518 416.082C743.419 414.386 743.841 408.257 743.89 406.059C744.122 395.703 744.579 386.43 743.252 376.097L744.877 375.594Z"/><path fill="#2C2B2A" transform="matrix(0.775194 0 0 0.776596 -427.907 -252.394)" d="M725.414 383.961C728.793 372.298 730.325 370.632 739.613 363.37C742.351 367.819 743.27 370.744 744.877 375.594L743.252 376.097C742.185 371.688 741.235 370.032 738.974 366.093C730.631 372.896 728.755 375.694 726.375 386.416L725.414 383.961Z"/><defs><linearGradient id="gradient_3" gradientUnits="userSpaceOnUse" x1="636.80121" y1="441.92703" x2="612.76691" y2="349.95108"><stop offset="0" stop-color="#A99C9D"/><stop offset="1" stop-color="#DCD9D9"/></linearGradient></defs><path fill="url(#gradient_3)" transform="matrix(0.775194 0 0 0.776596 -427.907 -252.394)" d="M615.052 452.281C606.048 423.181 599.421 391.887 609.798 361.991C621.572 328.07 639.568 361.652 645.403 378.066C645.57 382.475 649.177 391.402 647.441 393.792C646.192 391.974 646.884 391.732 645.744 389.596C645.343 399.859 644.947 410.995 647.427 420.92C647.022 422.938 645.568 423.893 643.884 424.997C642.977 425.582 642.06 426.151 641.133 426.704C640.798 409.924 640.186 380.319 627.797 368.045C626.544 366.803 623.654 364.359 622.205 363.133C611.912 379.856 614.654 400.379 616.506 419.163C616.991 424.08 619.393 439.6 621.486 443.568C612.351 450.505 616.017 473.872 601.604 482.204C599.809 483.242 597.956 485.728 595.225 485.702C596.756 483.969 601.567 479.788 603.56 478.021C611.421 471.051 612.456 462.306 615.052 452.281Z"/><defs><linearGradient id="gradient_4" gradientUnits="userSpaceOnUse" x1="740.47412" y1="434.47284" x2="726.12073" y2="371.07767"><stop offset="0" stop-color="#B99DA0"/><stop offset="1" stop-color="#E3D3D2"/></linearGradient></defs><path fill="url(#gradient_4)" transform="matrix(0.775194 0 0 0.776596 -427.907 -252.394)" d="M726.375 386.416C728.755 375.694 730.631 372.896 738.974 366.093C741.235 370.032 742.185 371.688 743.252 376.097C744.579 386.43 744.122 395.703 743.89 406.059C743.841 408.257 743.419 414.386 743.518 416.082L742.045 426.09L741.736 426.713C739.18 431.968 740.71 435.56 733.701 436.164C729.751 433.145 726.685 430.574 722.952 427.279C722.646 410.202 723.465 403.129 726.375 386.416Z"/><path fill="#C29BA1" transform="matrix(0.775194 0 0 0.776596 -427.907 -252.394)" d="M742.045 426.09C741.516 429.552 741.001 436.765 739.092 438.975C735.972 438.964 736.64 437.845 733.701 436.164C740.71 435.56 739.18 431.968 741.736 426.713L742.045 426.09Z"/><defs><linearGradient id="gradient_5" gradientUnits="userSpaceOnUse" x1="631.85565" y1="433.36801" x2="620.91864" y2="369.46243"><stop offset="0" stop-color="#BA9EA0"/><stop offset="1" stop-color="#E5D5D5"/></linearGradient></defs><path fill="url(#gradient_5)" transform="matrix(0.775194 0 0 0.776596 -427.907 -252.394)" d="M622.705 366.621C624.357 368.013 629.258 371.972 630.144 373.611C636.388 385.152 637.749 399.643 639.058 412.547C640.699 428.721 638.947 426.64 628.125 434.909C626.634 436.945 625.777 438.396 623.154 438.518C620.177 435.864 619.877 428.265 619.292 423.937C616.989 405 613.29 383.696 622.705 366.621Z"/><path fill="#C29BA1" transform="matrix(0.775194 0 0 0.776596 -427.907 -252.394)" d="M619.292 423.937C622.506 430.689 620.784 431.724 628.125 434.909C626.634 436.945 625.777 438.396 623.154 438.518C620.177 435.864 619.877 428.265 619.292 423.937Z"/><path fill="#E2E1E1" transform="matrix(0.775194 0 0 0.776596 -427.907 -252.394)" d="M641.831 477.891C637.92 473.795 637.084 471.842 636.897 466.192C635.883 428.991 676.062 427.066 702.509 435.057C722.536 441.108 724.175 449.413 723.71 468.87C724.053 477.311 716.994 478.747 710.542 481.567C703.538 484.628 692.535 491.608 691.949 500.027C691.781 502.429 691.897 502.4 691.165 504.843C689.022 492.738 691.479 478.469 688.846 466.276C688.436 464.845 687.242 463.296 685.982 462.479C670.688 452.572 671.857 477.706 671.468 485.892C671.165 492.257 671.704 501.76 670.356 507.668C669.598 502.082 670.815 501.135 667.698 495.726C660.59 483.39 654.079 481.333 641.831 477.891Z"/><path fill="#AEA4AE" transform="matrix(0.775194 0 0 0.776596 -427.907 -252.394)" d="M580.745 533.529C582.736 534.814 585.991 555.181 595.568 562.094C597.935 559.806 599.753 558.252 602.27 556.18L603.215 556.368L603.31 557.015C601.894 560.676 605.451 562.838 608.433 564.444C606.472 565.886 605.575 565.983 604.942 567.849C607.292 567.792 607.325 567.255 609.685 565.842C611.692 568.321 613.312 568.539 616.356 568.71C614.112 570.085 608.324 574.554 606.975 574.812C594.789 565.319 581.106 549.915 580.745 533.529Z"/><defs><linearGradient id="gradient_6" gradientUnits="userSpaceOnUse" x1="637.17944" y1="490.60977" x2="642.74359" y2="516.26801"><stop offset="0" stop-color="black"/><stop offset="1" stop-color="#282728"/></linearGradient></defs><path fill="url(#gradient_6)" transform="matrix(0.775194 0 0 0.776596 -427.907 -252.394)" d="M631.786 519.25C625.981 514.979 632.749 490.213 637.513 485.455C643.217 479.758 648.759 482.715 654.064 487.314C658.101 490.813 663.194 508.31 661.039 511.825L660.135 511.145L661.145 511.628L660.316 511.772C660.397 513.648 659.956 514.155 659.093 515.746C658.945 514.472 658.828 513.196 658.74 511.917C657.022 513.48 653.845 524.064 651.658 528.214C647.552 531.155 641.337 535.413 636.05 533.86C634.955 531.771 636.11 530.783 637.574 529.089C634.24 525.695 633.441 523.51 631.786 519.25Z"/><path fill="#959294" transform="matrix(0.775194 0 0 0.776596 -427.907 -252.394)" d="M631.786 519.25C625.981 514.979 632.749 490.213 637.513 485.455C643.217 479.758 648.759 482.715 654.064 487.314C658.101 490.813 663.194 508.31 661.039 511.825L660.135 511.145L661.145 511.628L660.316 511.772C660.397 513.648 659.956 514.155 659.093 515.746C658.945 514.472 658.828 513.196 658.74 511.917C657.022 513.48 653.845 524.064 651.658 528.214C647.552 531.155 641.337 535.413 636.05 533.86C634.955 531.771 636.11 530.783 637.574 529.089C651.04 534.048 653.777 510.916 651.501 502.206C650.815 477.512 625.761 490.183 631.935 518.167L631.786 519.25Z"/><path fill="#191310" transform="matrix(0.775194 0 0 0.776596 -427.907 -252.394)" d="M651.501 502.206C653.777 510.916 651.04 534.048 637.574 529.089C634.24 525.695 633.441 523.51 631.786 519.25L631.935 518.167L631.989 513.376L634.942 520.89L635.372 520.078C634.566 516.278 634.149 514.673 635.856 511.225C637.314 510.277 637.262 510.018 638.969 510.19C649.082 511.205 645.121 516.475 647.978 519.424L647.298 518.709C648.651 517.395 648.238 511.182 648.76 507.865L649.286 508C649.6 510.42 649.696 512.292 649.809 514.736C651.033 510.677 650.444 506.617 651.501 502.206Z"/><path fill="#464544" transform="matrix(0.775194 0 0 0.776596 -427.907 -252.394)" d="M639.842 513.946C646.643 515.2 646.433 520.921 642.287 525.149C635.789 522.631 635.619 518.922 639.842 513.946Z"/><path fill="#CBC6CB" transform="matrix(0.775194 0 0 0.776596 -427.907 -252.394)" d="M641.507 492.132C644.478 493.199 645.896 493.981 646.573 497.238C645.232 499.053 646.132 498.301 643.235 498.866C640.343 499.172 638.532 500.014 637.463 497.077C638.352 494.52 639.372 493.997 641.507 492.132Z"/><path fill="#959294" transform="matrix(0.775194 0 0 0.776596 -427.907 -252.394)" d="M729.939 501.646C734.643 508.161 729.08 533.924 722.125 533.903C703.077 533.845 697.695 502.271 708.594 489.272C713.168 483.817 717.789 479.754 723.934 486.141C724.566 489.326 724.734 490.055 726.13 492.994L726.448 493.648C727.405 495.99 728.714 499.572 729.939 501.646Z"/><path fill="#191310" transform="matrix(0.775194 0 0 0.776596 -427.907 -252.394)" d="M709.827 514.164L711.356 513.465C713.606 502.172 714.601 501.868 727.48 504.176C727.747 504.224 728.739 504.589 728.938 504.654C728.902 508.98 728.531 512.369 729.816 516.46C729.929 519.145 728.186 524.565 726.428 526.633C725.07 528.26 723.107 529.262 720.993 529.406C713.187 529.934 710.116 520.364 709.827 514.164Z"/><path fill="#464544" transform="matrix(0.775194 0 0 0.776596 -427.907 -252.394)" d="M717.284 512.228C725.965 513.102 726.274 518.395 722.556 524.904C720.616 525.354 720.56 525.252 718.539 525.077C713.248 522.177 715.003 516.526 717.284 512.228Z"/><path fill="#0A0805" transform="matrix(0.775194 0 0 0.776596 -427.907 -252.394)" d="M709.827 514.164C708.517 503.709 711.488 478.195 726.448 493.648C727.405 495.99 728.714 499.572 729.939 501.646C730.237 507.461 730.478 510.746 729.816 516.46C728.531 512.369 728.902 508.98 728.938 504.654C728.739 504.589 727.747 504.224 727.48 504.176C714.601 501.868 713.606 502.172 711.356 513.465L709.827 514.164Z"/><path fill="#959294" fill-opacity="0.98823529" transform="matrix(0.775194 0 0 0.776596 -427.907 -252.394)" d="M626.484 564.472C630.359 563.745 636.082 562.493 639.855 562.364L640.047 562.742L635.652 564.467C631.977 563.627 622.002 567.947 618.673 569.835C613.633 571.374 613.307 573.167 609.563 576.065C606.057 575.692 603.155 578.762 599.885 581.246L598.851 580.582C601.566 578.231 603.641 576.027 606.975 574.812C608.324 574.554 614.112 570.085 616.356 568.71C619.793 567.144 623.138 566.308 626.484 564.472Z"/><path fill="#CBC6CB" transform="matrix(0.775194 0 0 0.776596 -427.907 -252.394)" d="M618.673 569.835C622.002 567.947 631.977 563.627 635.652 564.467C634.372 565.694 633.627 565.774 631.972 566.245C631.746 567.029 631.469 567.92 631.271 568.703L629.921 569.382L631.058 569.883C629.743 570.347 628.342 570.874 627.022 571.291C624.651 571.823 620.04 572.242 618.673 569.835Z"/><path fill="#B5B0B1" fill-opacity="0.92156863" transform="matrix(0.775194 0 0 0.776596 -427.907 -252.394)" d="M750.468 579.83C757.462 584.343 762.039 589.093 767.027 595.621L767.127 596.19C760.961 591.586 755.893 585.315 750.024 580.561L750.468 579.83Z"/><path fill="#B5B0B1" fill-opacity="0.90588236" transform="matrix(0.775194 0 0 0.776596 -427.907 -252.394)" d="M755.509 574.865C760.916 578.069 767.085 584.051 771.536 588.457L771.341 588.883L771.955 589.39C766.31 585.751 759.532 579.812 754.151 575.456L755.509 574.865Z"/><path fill="#B5B0B1" fill-opacity="0.86274511" transform="matrix(0.775194 0 0 0.776596 -427.907 -252.394)" d="M608.938 581.145L610.058 581.999C606.145 585.012 600.114 591.261 596.415 593.436C600.532 588.345 603.856 585.185 608.938 581.145Z"/><path fill="#CBC6CB" fill-opacity="0.72941178" transform="matrix(0.775194 0 0 0.776596 -427.907 -252.394)" d="M598.851 580.582L599.885 581.246C596.69 583.985 593.343 587.143 589.679 589.138C593.205 585.387 594.802 583.704 598.851 580.582Z"/><path fill="#CBC6CB" fill-opacity="0.7647059" transform="matrix(0.775194 0 0 0.776596 -427.907 -252.394)" d="M600.464 570.368L600.341 571.497C598.212 573.983 596.284 575.264 593.699 577.231L593.546 576.294C595.957 573.306 597.361 572.55 600.464 570.368Z"/><path fill="#B5B0B1" fill-opacity="0.9137255" transform="matrix(0.775194 0 0 0.776596 -427.907 -252.394)" d="M760.587 570.413C764.272 572.018 765.793 573.427 767.899 576.865C765.002 575.202 762.211 573.469 760.587 570.413Z"/></g></svg>