<?xml version="1.0" encoding="utf-8" ?><svg xmlns="http://www.w3.org/2000/svg" xmlns:xlink="http://www.w3.org/1999/xlink" width="200" height="198" viewBox="0 0 200 198"><clipPath id="cl_e"><rect x="-3.0517578e-05" width="200.00003" height="198.00002"/></clipPath><g clip-path="url(#cl_e)"><defs><linearGradient id="gradient_0" gradientUnits="userSpaceOnUse" x1="933.39545" y1="242.75597" x2="939.19525" y2="16.717596"><stop offset="0" stop-color="#CF8C34"/><stop offset="1" stop-color="#F9AD42"/></linearGradient></defs><path fill="url(#gradient_0)" transform="matrix(0.790514 0 0 0.795181 -437.945 0)" d="M903.102 15.9167C930.585 8.15828 948.047 9.63177 975.012 17.1904C979.449 18.9295 984.974 21.2053 989.329 23.2015C1012.73 33.9253 1037.03 62.2195 1046.2 85.7993C1056.16 111.435 1056.38 148.859 1043.91 173.854C1028.46 204.836 1009.75 224.737 976.43 236.66C942.397 248.838 916.747 245.818 884.039 231.25C858.547 219.006 836.42 193.243 826.811 166.636C807.384 112.843 830.648 55.1814 878.77 26.1093C886.378 21.5133 894.796 18.6951 903.102 15.9167Z"/><defs><linearGradient id="gradient_1" gradientUnits="userSpaceOnUse" x1="793.44574" y1="140.30737" x2="619.60345" y2="76.486313"><stop offset="0" stop-color="#E7A23F"/><stop offset="1" stop-color="#FFFE69"/></linearGradient></defs><path fill="url(#gradient_1)" transform="matrix(0.790514 0 0 0.795181 -437.945 0)" d="M603.743 38.7083C633.39 12.9575 674.015 3.87603 711.805 14.5517C751.597 25.793 782.449 57.2854 792.871 97.301C804.62 142.411 788.349 190.183 751.508 218.742C741.366 226.605 729.994 232.738 717.852 236.893C693.393 245.263 666.844 245.259 642.387 236.882C629.767 232.56 617.983 226.102 607.55 217.791C580.48 196.227 564.399 163.744 563.663 129.142C562.927 94.5405 577.614 61.403 603.743 38.7083Z"/><defs><linearGradient id="gradient_2" gradientUnits="userSpaceOnUse" x1="561.51288" y1="138.71762" x2="673.96313" y2="98.270653"><stop offset="0" stop-color="#D88A33"/><stop offset="1" stop-color="#FFFF70"/></linearGradient></defs><path fill="url(#gradient_2)" transform="matrix(0.790514 0 0 0.795181 -437.945 0)" d="M603.743 38.7083C607.543 38.0824 617.969 27.6662 623.198 25.1768C630.524 21.689 637.49 18.854 645.113 16.1815L645.415 17.0892C643.065 19.1233 640.167 18.3544 635.53 21.1754C629.414 24.8955 621.131 27.0991 615.2 32.1228C609.045 37.3363 608.035 42.8756 600.831 46.5163L600.599 47.5526L602.123 48.2856C606.627 46.4961 614.174 40.0503 614.851 40.1266C615.006 47.1581 599.902 53.6108 600.37 59.9625C596.683 65.0315 593.281 69.5351 590.582 75.2612C592.173 77.5514 596.885 82.9754 599.355 83.8384C608.25 88.8681 604.594 82.1903 615.557 79.2829C621.719 76.3488 626.289 73.7958 633.23 75.9673C636.112 77.3352 635.94 76.7388 637.538 79.0029C636.944 85.0705 623.174 89.2965 618.283 94.239C617.079 98.3933 616.167 96.009 615.448 98.5234C617.22 98.1846 619.28 97.8705 620.77 97.1113C626.267 94.3092 645.792 96.5289 650.911 98.4586L650.175 101.562C656.027 103.374 668.803 110.012 668.806 117.051C665.136 122.201 649.323 116.59 642.719 115.908C642.719 135.842 642.437 156.56 642.875 176.431C642.876 185.088 643.443 210.496 642.471 218.08C642.507 224.202 642.672 230.805 642.387 236.882C629.767 232.56 617.983 226.102 607.55 217.791C580.48 196.227 564.399 163.744 563.663 129.142C562.927 94.5405 577.614 61.403 603.743 38.7083Z"/><defs><linearGradient id="gradient_3" gradientUnits="userSpaceOnUse" x1="610.00177" y1="183.82707" x2="649.89838" y2="128.77592"><stop offset="0" stop-color="#68A9E4"/><stop offset="1" stop-color="#97CBEC"/></linearGradient></defs><path fill="url(#gradient_3)" transform="matrix(0.790514 0 0 0.795181 -437.945 0)" d="M607.829 120.101C615.501 117.052 635.508 110.345 642.719 115.908C642.719 135.842 642.437 156.56 642.875 176.431C642.876 185.088 643.443 210.496 642.471 218.08C642.507 224.202 642.672 230.805 642.387 236.882C629.767 232.56 617.983 226.102 607.55 217.791L608.357 208.581C607.575 197.925 607.85 185.406 607.831 174.554L607.829 120.101Z"/><defs><linearGradient id="gradient_4" gradientUnits="userSpaceOnUse" x1="617.32434" y1="223.95103" x2="633.03461" y2="194.56616"><stop offset="0" stop-color="#2C62C1"/><stop offset="1" stop-color="#5EAAE6"/></linearGradient></defs><path fill="url(#gradient_4)" transform="matrix(0.790514 0 0 0.795181 -437.945 0)" d="M609.801 177.429C611.627 181.363 611.82 182.789 615.323 185.551C620.796 189.866 631.251 201.248 638.308 202.56C639.884 200.809 637.881 197.636 640.199 193.818C643.523 200.963 640.167 215.74 642.471 218.08C642.507 224.202 642.672 230.805 642.387 236.882C629.767 232.56 617.983 226.102 607.55 217.791L608.357 208.581C609.555 205.336 609.222 183.9 609.801 177.429Z"/><path fill="#3C73CA" transform="matrix(0.790514 0 0 0.795181 -437.945 0)" d="M607.829 120.101C615.501 117.052 635.508 110.345 642.719 115.908C642.719 135.842 642.437 156.56 642.875 176.431C642.876 185.088 643.443 210.496 642.471 218.08C640.167 215.74 643.523 200.963 640.199 193.818C639.716 177.879 640.178 161.676 639.994 145.72C639.897 137.273 640.339 126.622 639.125 118.406C629.151 118.433 620.53 119.477 611.009 122.33C609.599 139.879 610.673 159.395 609.801 177.429C609.222 183.9 609.555 205.336 608.357 208.581C607.575 197.925 607.85 185.406 607.831 174.554L607.829 120.101Z"/><defs><linearGradient id="gradient_5" gradientUnits="userSpaceOnUse" x1="637.11896" y1="101.26715" x2="636.89081" y2="117.98154"><stop offset="0" stop-color="#68390F"/><stop offset="1" stop-color="#905F24"/></linearGradient></defs><path fill="url(#gradient_5)" transform="matrix(0.790514 0 0 0.795181 -437.945 0)" d="M638.881 99.9242C642.377 100.326 646.854 100.673 650.175 101.562C656.027 103.374 668.803 110.012 668.806 117.051C665.136 122.201 649.323 116.59 642.719 115.908C635.508 110.345 615.501 117.052 607.829 120.101C601.373 104.345 629.022 100.499 638.881 99.9242Z"/><path fill="#815320" transform="matrix(0.790514 0 0 0.795181 -437.945 0)" d="M633.23 75.9673C636.112 77.3352 635.94 76.7388 637.538 79.0029C636.944 85.0705 623.174 89.2965 618.283 94.239C614.404 97.2181 607.47 102.918 604.998 107.109C602.298 109.106 599.668 115.659 595.956 113.556C591.948 103.495 608.319 85.1487 617.138 80.7676C623.352 77.6807 626.299 76.978 633.23 75.9673Z"/><path fill="#F9DE5F" transform="matrix(0.790514 0 0 0.795181 -437.945 0)" d="M618.283 94.239C617.079 98.3933 616.167 96.009 615.448 98.5234C617.22 98.1846 619.28 97.8705 620.77 97.1113C626.267 94.3092 645.792 96.5289 650.911 98.4586L650.175 101.562C646.854 100.673 642.377 100.326 638.881 99.9242C631.431 94.8829 617.08 101.845 609.958 105.484C610.952 104.198 611.563 103.59 612.668 102.43C608.926 102.827 609.032 106.176 604.998 107.109C607.47 102.918 614.404 97.2181 618.283 94.239Z"/><path fill="#F9DE5F" transform="matrix(0.790514 0 0 0.795181 -437.945 0)" d="M599.355 83.8384C608.25 88.8681 604.594 82.1903 615.557 79.2829C607.938 84.7675 602.88 89.0596 598.282 97.3962C598.927 89.9455 607.642 89.4453 600.74 86.0283L599.355 83.8384Z"/><path fill="#D08D36" transform="matrix(0.790514 0 0 0.795181 -437.945 0)" d="M569.059 101.029C570.143 101.739 571.801 103.25 571.631 104.634C570.306 115.432 569.997 125.482 570.015 136.342C561.823 124.536 569.052 112.884 569.059 101.029Z"/><defs><linearGradient id="gradient_6" gradientUnits="userSpaceOnUse" x1="679.97662" y1="100.12653" x2="679.54987" y2="22.926615"><stop offset="0" stop-color="#FEEF5A"/><stop offset="1" stop-color="#FFFFE9"/></linearGradient></defs><path fill="url(#gradient_6)" transform="matrix(0.790514 0 0 0.795181 -437.945 0)" d="M658.797 23.9121C689.73 18.7606 715.496 23.1094 741.263 41.7689C749.468 47.7106 770.033 67.8236 771.6 77.9357C770.558 76.9094 770.418 76.5583 769.575 75.3431C769.047 75.8363 768.385 76.7261 768.261 77.2939C766.976 83.1874 753.758 84.4668 755.162 87.3636C757.014 91.1833 760.714 92.9021 762.922 97.9847L762.104 98.077C763.934 101.817 767.954 110.452 765.942 114.351C761.792 114.73 759.154 109.125 756.085 106.421C751.849 105.603 745.051 95.5534 742.949 95.0999C728.097 91.8966 709.748 101.769 694.988 100.714C686.129 100.081 656.76 102.413 650.911 98.4586C645.792 96.5289 626.267 94.3092 620.77 97.1113C619.28 97.8705 617.22 98.1846 615.448 98.5234C616.167 96.009 617.079 98.3933 618.283 94.239C623.174 89.2965 636.944 85.0705 637.538 79.0029C635.94 76.7388 636.112 77.3352 633.23 75.9673C626.289 73.7958 621.719 76.3488 615.557 79.2829C604.594 82.1903 608.25 88.8681 599.355 83.8384C596.885 82.9754 592.173 77.5514 590.582 75.2612C593.281 69.5351 596.683 65.0315 600.37 59.9625C616.986 40.7004 634.286 30.023 658.797 23.9121Z"/><path fill="#815320" transform="matrix(0.790514 0 0 0.795181 -437.945 0)" d="M756.085 106.421C750.326 97.7617 738.601 90.9045 729.927 85.571C727.337 83.9781 723.608 81.6326 723.344 78.4636C725.416 76.0325 731.03 76.7183 734.012 76.9877C747.139 78.1729 754.579 88.6045 762.104 98.077C763.934 101.817 767.954 110.452 765.942 114.351C761.792 114.73 759.154 109.125 756.085 106.421Z"/><defs><linearGradient id="gradient_7" gradientUnits="userSpaceOnUse" x1="749.22595" y1="183.97656" x2="708.43201" y2="129.59705"><stop offset="0" stop-color="#65ABE4"/><stop offset="1" stop-color="#9BC8ED"/></linearGradient></defs><path fill="url(#gradient_7)" transform="matrix(0.790514 0 0 0.795181 -437.945 0)" d="M717.328 120.853C717.418 118.58 717.476 118.354 717.973 116.255C723.027 110.284 741.613 116.221 747.852 118.485C750.759 119.746 750.775 119.233 752.436 121.41C751.417 136.826 752.1 158.97 752.144 174.951C751.966 178.566 751.913 183.954 751.575 187.378C751.85 194.933 752.239 211.579 751.508 218.742C741.366 226.605 729.994 232.738 717.852 236.893L717.281 225.451C716.916 215.547 717.249 204.957 716.989 194.876C718.177 173.565 717.305 142.899 717.328 120.853Z"/><defs><linearGradient id="gradient_8" gradientUnits="userSpaceOnUse" x1="743.80133" y1="222.58041" x2="726.80524" y2="195.13344"><stop offset="0" stop-color="#2A61C1"/><stop offset="1" stop-color="#5FAAE6"/></linearGradient></defs><path fill="url(#gradient_8)" transform="matrix(0.790514 0 0 0.795181 -437.945 0)" d="M719.728 197.056C721.282 201.166 719.588 201.065 721.005 203.744C727.944 202.429 749.39 184.186 750.543 176.132C750.728 180.387 750.982 183.16 751.575 187.378C751.85 194.933 752.239 211.579 751.508 218.742C741.366 226.605 729.994 232.738 717.852 236.893L717.281 225.451C718.452 221.022 719.215 202.988 719.728 197.056Z"/><path fill="#3C73CA" transform="matrix(0.790514 0 0 0.795181 -437.945 0)" d="M717.328 120.853C717.418 118.58 717.476 118.354 717.973 116.255C723.027 110.284 741.613 116.221 747.852 118.485L745.273 121.139C736.958 119.362 729.015 118.239 720.48 118.334C719.581 134.401 719.7 151.658 719.717 167.847C719.726 175.985 719.223 189.413 719.728 197.056C719.215 202.988 718.452 221.022 717.281 225.451C716.916 215.547 717.249 204.957 716.989 194.876C718.177 173.565 717.305 142.899 717.328 120.853Z"/><path fill="#3C73CA" transform="matrix(0.790514 0 0 0.795181 -437.945 0)" d="M747.852 118.485C750.759 119.746 750.775 119.233 752.436 121.41C751.417 136.826 752.1 158.97 752.144 174.951C751.966 178.566 751.913 183.954 751.575 187.378C750.982 183.16 750.728 180.387 750.543 176.132C750.81 164.269 749.096 136.987 748.814 123.776C748.785 122.408 746.58 121.716 745.273 121.139L747.852 118.485Z"/><defs><linearGradient id="gradient_9" gradientUnits="userSpaceOnUse" x1="680.08148" y1="242.00871" x2="679.00989" y2="174.22891"><stop offset="0" stop-color="#C97D2C"/><stop offset="1" stop-color="#FFD85B"/></linearGradient></defs><path fill="url(#gradient_9)" transform="matrix(0.790514 0 0 0.795181 -437.945 0)" d="M642.875 176.431L643.248 173.892L643.867 173.595L643.307 173.18L643.93 171.341C644.202 174.176 643.746 178.502 644.556 180.468C646.862 178.016 649.837 179.868 652.714 180.654C652.638 179.36 652.758 178.138 652.927 176.855L653.819 176.47C654.218 188.408 652.913 198.278 662.399 207.505C667.414 212.382 674.103 214.561 681.06 214.156C688.138 213.797 694.738 210.477 699.245 205.008C704.203 199.028 704.896 194.361 705.546 187.138C709.201 180.904 700.914 182.179 712.884 175.062L714.369 175.179C717.39 179.195 714.702 188.411 716.989 194.876C717.249 204.957 716.916 215.547 717.281 225.451L717.852 236.893C693.393 245.263 666.844 245.259 642.387 236.882C642.672 230.805 642.507 224.202 642.471 218.08C643.443 210.496 642.876 185.088 642.875 176.431Z"/><defs><linearGradient id="gradient_10" gradientUnits="userSpaceOnUse" x1="679.02295" y1="158.93446" x2="679.3858" y2="212.23769"><stop offset="0" stop-color="#714012"/><stop offset="1" stop-color="#AA772D"/></linearGradient></defs><path fill="url(#gradient_10)" transform="matrix(0.790514 0 0 0.795181 -437.945 0)" d="M668.236 157.347C677.563 153.025 688.151 153.02 695.552 160.99L697.79 158.261C707.886 170.428 704.314 174.103 705.546 187.138C704.896 194.361 704.203 199.028 699.245 205.008C694.738 210.477 688.138 213.797 681.06 214.156C674.103 214.561 667.414 212.382 662.399 207.505C652.913 198.278 654.218 188.408 653.819 176.47C654.836 168.326 655.776 165.58 660.64 159.356L662.385 162.757C664.497 160.245 665.719 159.376 668.236 157.347Z"/><path fill="#F7FAFA" transform="matrix(0.790514 0 0 0.795181 -437.945 0)" d="M668.236 157.347C677.563 153.025 688.151 153.02 695.552 160.99C697.978 164.762 699.938 166.918 699.416 171.386C695.85 178.077 679.782 175.304 672.678 175.749L669.611 174.824C667.544 172.386 668.287 161.265 668.236 157.347Z"/><path fill="#BFC2C1" transform="matrix(0.790514 0 0 0.795181 -437.945 0)" d="M662.385 162.757C664.497 160.245 665.719 159.376 668.236 157.347C668.287 161.265 667.544 172.386 669.611 174.824L672.678 175.749C668.026 175.59 662.406 176.314 659.689 172.089C658.936 168.096 660.378 166.293 662.385 162.757Z"/><path fill="#F8D255" transform="matrix(0.790514 0 0 0.795181 -437.945 0)" d="M603.743 38.7083C633.39 12.9575 674.015 3.87603 711.805 14.5517C707.95 15.849 696.615 11.8357 692.098 11.7137C680.84 11.4096 656.128 10.8996 647.034 17.0443C668.25 11.1968 692.083 10.3567 713.015 17.5243C716.427 18.8858 720.798 19.8295 723.987 21.6202C727.006 23.3152 729.269 26.1834 732.835 27.0641C734.277 27.4204 736.239 29.3365 736.685 30.7931C732.832 33.589 710.762 22.4705 704.747 20.9973C687.871 16.8638 672.776 18.7302 655.999 22.0117C651.694 22.8481 647.587 25.6374 643.051 25.6568C641.061 25.6653 639.696 27.0776 638.832 28.693L639.555 29.2911C641.715 28.7066 641.827 28.6112 643.673 27.3066C646.832 25.0751 652.876 24.0307 656.865 23.1126L658.797 23.9121C634.286 30.023 616.986 40.7004 600.37 59.9625C599.902 53.6108 615.006 47.1581 614.851 40.1266C614.174 40.0503 606.627 46.4961 602.123 48.2856L600.599 47.5526L600.831 46.5163C608.035 42.8756 609.045 37.3363 615.2 32.1228C621.131 27.0991 629.414 24.8955 635.53 21.1754C640.167 18.3544 643.065 19.1233 645.415 17.0892L645.113 16.1815C637.49 18.854 630.524 21.689 623.198 25.1768C617.969 27.6662 607.543 38.0824 603.743 38.7083Z"/><defs><linearGradient id="gradient_11" gradientUnits="userSpaceOnUse" x1="723.10944" y1="102.49392" x2="722.21436" y2="120.95148"><stop offset="0" stop-color="#66360C"/><stop offset="1" stop-color="#916026"/></linearGradient></defs><path fill="url(#gradient_11)" transform="matrix(0.790514 0 0 0.795181 -437.945 0)" d="M717.328 120.853L717.144 118.635C711.876 115.189 699.108 123.221 693.15 120.395C690.045 115.332 696.316 109.394 700.394 107.092C711.054 101.075 724.432 100.106 736.112 103.489C743.708 105.688 756.53 111.518 752.436 121.41C750.775 119.233 750.759 119.746 747.852 118.485C741.613 116.221 723.027 110.284 717.973 116.255C717.476 118.354 717.418 118.58 717.328 120.853Z"/><path fill="#815320" transform="matrix(0.790514 0 0 0.795181 -437.945 0)" d="M716.728 106.899C725.227 106.443 734.24 106.604 741.657 111.487L741.039 112.26C737.603 113.407 734.815 111.55 731.124 111.707C726.813 110.326 710.862 110.473 705.954 111.048L705.099 111.153L704.715 110.813C709.289 108.825 711.865 108.173 716.728 106.899Z"/><path fill="#D48C35" transform="matrix(0.790514 0 0 0.795181 -437.945 0)" d="M792.871 97.301C804.62 142.411 788.349 190.183 751.508 218.742C752.239 211.579 751.85 194.933 751.575 187.378C751.913 183.954 751.966 178.566 752.144 174.951C752.87 178.552 753.349 200.111 753.516 204.698L754.453 205.214C766.508 200.873 785.468 162.596 790.452 149.865C792.847 143.746 794.947 126.126 795.449 118.806C795.812 113.516 792.649 103.82 792.871 97.301Z"/><path fill="#531210" transform="matrix(0.790514 0 0 0.795181 -437.945 0)" d="M660.64 159.356C671.771 148.324 685.995 148.459 697.79 158.261L695.552 160.99C688.151 153.02 677.563 153.025 668.236 157.347C665.719 159.376 664.497 160.245 662.385 162.757L660.64 159.356Z"/></g></svg>