<?xml version="1.0" encoding="utf-8" ?><svg xmlns="http://www.w3.org/2000/svg" xmlns:xlink="http://www.w3.org/1999/xlink" width="200" height="196" viewBox="0 0 200 196"><clipPath id="cl_b"><rect x="-7.6293945e-06" y="-6.1035156e-05" width="200" height="196"/></clipPath><g clip-path="url(#cl_b)"><defs><linearGradient id="gradient_0" gradientUnits="userSpaceOnUse" x1="168.10634" y1="782.38312" x2="170.2684" y2="907.16351"><stop offset="0" stop-color="#F6B993"/><stop offset="1" stop-color="#E3E6B7"/></linearGradient></defs><path fill="url(#gradient_0)" transform="matrix(0.738007 0 0 0.739623 -21.4022 -493.328)" d="M122.79 696.321C148.135 687.51 167.091 684.02 194.101 690.388C201.042 692.024 206.91 694.456 213.203 696.081C220.97 694.958 223.744 694.938 231.321 697.888C240.567 691.57 246.253 691.854 255.395 697.73C271.655 696.58 278.154 701.675 279.719 717.717C287.84 721.45 295.537 728.377 290.961 738.168C289.999 740.486 288.993 742.785 287.944 745.065C293.863 753.719 291.436 762.076 284.015 768.738C285.308 774.796 285.457 775.968 283.594 782.146C282.923 784.782 283.73 788.142 284.149 790.956C287.785 826.081 279.036 849.848 257.889 878.173C255.969 880.745 247.836 889.314 245.169 890.869C230.643 905.16 205.25 915.364 185.249 919.328C164.72 923.396 130.183 916.943 112.101 905.321C111.399 905.082 109.502 904.143 108.849 903.763C81.428 887.83 64.0002 862.305 54.9816 832.829C54.636 830.095 53.5158 825.666 53.052 822.509C50.9475 808.181 50.9033 797.415 53.3409 783.319C50.9986 777.949 49.8643 774.56 52.494 769.11C45.5053 762.819 42.2036 756.338 46.7111 747.269L48.7557 745.061C41.4369 734.915 42.9755 719.946 56.6346 718.45L56.8535 717.499C56.672 714.836 56.8929 712.16 57.5087 709.562C59.8323 699.843 70.8851 695.731 79.7834 698.032C90.0335 692.017 94.8428 691.266 105.015 698.209C105.274 699.95 105.559 699.522 104.955 700.627C105.144 702.272 105.218 703.704 105.662 705.293C108.677 703.438 111.17 701.858 114.389 700.324C116.923 698.628 118.88 699.234 122.79 696.321Z"/><defs><linearGradient id="gradient_1" gradientUnits="userSpaceOnUse" x1="167.48343" y1="802.11353" x2="167.92581" y2="696.68713"><stop offset="0" stop-color="#FAEFC4"/><stop offset="1" stop-color="#FEFEFE"/></linearGradient></defs><path fill="url(#gradient_1)" transform="matrix(0.738007 0 0 0.739623 -21.4022 -493.328)" d="M122.79 696.321C148.135 687.51 167.091 684.02 194.101 690.388C201.042 692.024 206.91 694.456 213.203 696.081C216.934 699.757 228.284 703.325 234.93 708.855L236.658 710.386C236.084 711.013 234.201 713.159 233.674 713.59L237.43 716.261C249.942 725.937 263.296 742.964 269.784 757.378L269.893 758.603C270.797 768.249 277.442 782.261 271.04 790.519C266.678 796.146 254.831 791.637 249.379 790.292C246.662 789.664 240.122 790.384 237.329 790.705L236.924 790.22C234.284 800.075 230.491 813.727 220.906 819.07C211.491 824.318 201.422 823.599 193.45 815.76C191.334 813.126 188.174 807.901 186.302 804.921L184.058 805.824C180.607 801.413 177.27 799.125 171.686 797.865C166.764 796.745 161.599 797.611 157.311 800.273C154.23 802.083 153.815 802.709 151.509 805.491C149.848 809.275 149.111 810.861 148.715 815.173C147.991 818.449 147.375 824.224 146.717 826.629C142.985 820.696 144.592 819.148 142.472 815.865C139.482 818.768 135.799 820.858 131.774 821.934C112.842 826.823 103.385 807.426 99.7486 792.542C94.5549 788.001 82.1292 791.032 75.3308 791.788C59.8655 793.508 61.423 781.139 60.9322 769.863C65.4378 753.347 89.268 723.312 103.182 714.132C103.364 713.926 103.545 713.719 103.727 713.513C109.118 709.218 108.139 705.976 114.389 700.324C116.923 698.628 118.88 699.234 122.79 696.321Z"/><path fill="#3C75C6" transform="matrix(0.738007 0 0 0.739623 -21.4022 -493.328)" d="M99.7486 792.542C96.675 777.958 98.2795 760.309 106.267 747.338C113.074 736.284 127.953 730.886 139.201 738.893C148.308 745.375 152.341 757.054 153.977 767.739C155.985 780.293 154.476 793.158 149.619 804.906L151.509 805.491C149.848 809.275 149.111 810.861 148.715 815.173C147.991 818.449 147.375 824.224 146.717 826.629C142.985 820.696 144.592 819.148 142.472 815.865C139.482 818.768 135.799 820.858 131.774 821.934C112.842 826.823 103.385 807.426 99.7486 792.542Z"/><path fill="#D8C5A4" transform="matrix(0.738007 0 0 0.739623 -21.4022 -493.328)" d="M149.619 804.906L151.509 805.491C149.848 809.275 149.111 810.861 148.715 815.173C147.991 818.449 147.375 824.224 146.717 826.629C142.985 820.696 144.592 819.148 142.472 815.865C144.88 812.816 147.512 808.3 149.619 804.906Z"/><path fill="#ECF2F2" transform="matrix(0.738007 0 0 0.739623 -21.4022 -493.328)" d="M126.555 742.874C155.542 746.353 151.727 812.988 126.682 814.731C125.753 814.64 124.535 814.554 123.674 814.123C105.679 805.141 103.878 780.487 108.127 763.193C110.788 752.366 115.465 745.766 126.555 742.874Z"/><path fill="#454545" transform="matrix(0.738007 0 0 0.739623 -21.4022 -493.328)" d="M121.28 764.577C122.369 760.672 122.676 758.914 125.953 756.666C131.495 755.901 132.251 759.914 133.729 764.247C135.921 772.761 138.861 797.168 127.97 800.38C115.864 799.49 118.183 772.431 121.28 764.577Z"/><path fill="#1D1D1D" transform="matrix(0.738007 0 0 0.739623 -21.4022 -493.328)" d="M121.28 764.577C122.369 760.672 122.676 758.914 125.953 756.666C131.495 755.901 132.251 759.914 133.729 764.247C126.362 766.754 125.014 763.152 121.28 764.577Z"/><path fill="#3C75C6" transform="matrix(0.738007 0 0 0.739623 -21.4022 -493.328)" d="M186.302 804.921C179.014 784.866 177.551 756.608 194.954 740.612C204.431 731.901 220.227 734.502 227.891 744.595C237.627 757.418 238.436 774.74 236.924 790.22C234.284 800.075 230.491 813.727 220.906 819.07C211.491 824.318 201.422 823.599 193.45 815.76C191.334 813.126 188.174 807.901 186.302 804.921Z"/><path fill="#ECF2F2" transform="matrix(0.738007 0 0 0.739623 -21.4022 -493.328)" d="M208.459 742.866C229.019 744.701 232.003 775.392 228.527 790.917C225.962 802.373 221.377 808.219 211.713 814.539C183.709 814.776 180.334 749.253 208.459 742.866Z"/><path fill="#454545" transform="matrix(0.738007 0 0 0.739623 -21.4022 -493.328)" d="M203.519 760.904C204.749 758.298 204.749 758.014 207.029 756.438C211.289 755.87 212.618 758.336 214.143 761.908C214.508 763.252 214.859 764.69 215.302 766.001C217.187 775.319 218.935 793.023 210.059 800.107C207.349 802.271 203.908 799.629 202.832 796.718C199.694 788.226 198.828 775.092 201.749 766.525C202.169 764.818 202.956 762.625 203.519 760.904Z"/><path fill="#1D1D1D" transform="matrix(0.738007 0 0 0.739623 -21.4022 -493.328)" d="M203.519 760.904C204.749 758.298 204.749 758.014 207.029 756.438C211.289 755.87 212.618 758.336 214.143 761.908C211.178 762.308 206.17 763.736 204.079 763.598L203.519 760.904Z"/><path fill="#1B2426" transform="matrix(0.738007 0 0 0.739623 -21.4022 -493.328)" d="M214.143 761.908C214.508 763.252 214.859 764.69 215.302 766.001C211.023 766.165 207.746 765.533 203.629 765.576L202.556 767.067L201.749 766.525C202.169 764.818 202.956 762.625 203.519 760.904L204.079 763.598C206.17 763.736 211.178 762.308 214.143 761.908Z"/><path fill="#D8C5A4" transform="matrix(0.738007 0 0 0.739623 -21.4022 -493.328)" d="M122.79 696.321C148.135 687.51 167.091 684.02 194.101 690.388C201.042 692.024 206.91 694.456 213.203 696.081C216.934 699.757 228.284 703.325 234.93 708.855L236.658 710.386C236.084 711.013 234.201 713.159 233.674 713.59C198.032 688.422 147.266 689.376 110.799 710.58C108.53 711.9 105.659 713.268 103.182 714.132C103.364 713.926 103.545 713.719 103.727 713.513C109.118 709.218 108.139 705.976 114.389 700.324C116.923 698.628 118.88 699.234 122.79 696.321Z"/><path fill="#040303" transform="matrix(0.738007 0 0 0.739623 -21.4022 -493.328)" d="M207.637 713.903C215.85 714.269 224.231 718.28 227.007 726.638C227.526 728.201 228.074 729.922 227.28 731.316C222.014 729.235 219.977 722.791 210.457 719.45C193.083 720.03 194.378 731.122 189.822 732.252L189.312 731.174C189.794 720.947 198.073 714.985 207.637 713.903Z"/><path fill="#040303" transform="matrix(0.738007 0 0 0.739623 -21.4022 -493.328)" d="M126.759 713.88C132.407 714.351 135.238 715.259 139.627 718.916C143.104 721.812 148.934 727.719 144.869 732.411C140.767 730.403 142.386 721.648 127.378 719.383C116.065 721.02 115.039 723.958 109.13 732.328L108.039 732.343L107.438 731.207C107.96 719.612 116.467 715.207 126.759 713.88Z"/><path fill="#CC997C" transform="matrix(0.738007 0 0 0.739623 -21.4022 -493.328)" d="M231.321 697.888C240.567 691.57 246.253 691.854 255.395 697.73C271.655 696.58 278.154 701.675 279.719 717.717C287.84 721.45 295.537 728.377 290.961 738.168C289.999 740.486 288.993 742.785 287.944 745.065C293.863 753.719 291.436 762.076 284.015 768.738C285.308 774.796 285.457 775.968 283.594 782.146C282.923 784.782 283.73 788.142 284.149 790.956C287.785 826.081 279.036 849.848 257.889 878.173C255.969 880.745 247.836 889.314 245.169 890.869C230.643 905.16 205.25 915.364 185.249 919.328C164.72 923.396 130.183 916.943 112.101 905.321C111.399 905.082 109.502 904.143 108.849 903.763C81.428 887.83 64.0002 862.305 54.9816 832.829C54.636 830.095 53.5158 825.666 53.052 822.509C50.9475 808.181 50.9033 797.415 53.3409 783.319C50.9986 777.949 49.8643 774.56 52.494 769.11C45.5053 762.819 42.2036 756.338 46.7111 747.269L48.7557 745.061C41.4369 734.915 42.9755 719.946 56.6346 718.45L56.8535 717.499C56.672 714.836 56.8929 712.16 57.5087 709.562C59.8323 699.843 70.8851 695.731 79.7834 698.032C90.0335 692.017 94.8428 691.266 105.015 698.209C105.274 699.95 105.559 699.522 104.955 700.627C105.144 702.272 105.218 703.704 105.662 705.293C108.677 703.438 111.17 701.858 114.389 700.324C108.139 705.976 109.118 709.218 103.727 713.513C103.545 713.719 103.364 713.926 103.182 714.132C89.268 723.312 65.4378 753.347 60.9322 769.863C55.2493 781.782 58.8429 800.266 61.2488 812.449C62.9614 821.121 62.1832 832.293 66.7749 840.17L67.3329 839.413L68.5477 839.445C68.4784 838.349 68.3252 838.784 68.7691 838.081C73.0298 842.86 75.4604 848.048 78.8147 853.485C89.126 870.2 99.6994 881.302 116.701 891.381C118.161 892.246 118.409 892.42 119.306 893.837L118.336 895.531C121.035 897.028 124.741 899.266 127.548 900.288L127.297 898.93L127.595 898.517C146.667 906.996 164.498 907.375 185.011 906.995C193.419 906.839 200.078 903.395 207.909 900.678C211.317 899.495 217.956 897.494 219.104 893.725C219.869 891.179 221.347 890.3 223.66 889.377C225.568 889.872 226.706 890.384 228.597 889.872C229.693 888.136 229.25 887.539 229.228 885.072C248.063 871.264 251.34 863.478 263.506 843.72C264.949 841.376 269.058 832.969 270.636 831.532L271.241 834.155L271.682 834.241L273.634 831.888L272.277 830.484C279.017 811.44 281.412 774.624 269.784 757.378C263.296 742.964 249.942 725.937 237.43 716.261L233.674 713.59C234.201 713.159 236.084 711.013 236.658 710.386L234.93 708.855C228.284 703.325 216.934 699.757 213.203 696.081C220.97 694.958 223.744 694.938 231.321 697.888Z"/><defs><linearGradient id="gradient_2" gradientUnits="userSpaceOnUse" x1="256.9632" y1="741.13824" x2="285.31073" y2="721.43652"><stop offset="0" stop-color="#C42D19"/><stop offset="1" stop-color="#D15747"/></linearGradient></defs><path fill="url(#gradient_2)" transform="matrix(0.738007 0 0 0.739623 -21.4022 -493.328)" d="M231.321 697.888C240.567 691.57 246.253 691.854 255.395 697.73C271.655 696.58 278.154 701.675 279.719 717.717C287.84 721.45 295.537 728.377 290.961 738.168C289.999 740.486 288.993 742.785 287.944 745.065C293.863 753.719 291.436 762.076 284.015 768.738C285.308 774.796 285.457 775.968 283.594 782.146C281.107 778.635 278.873 767.464 277.058 762.696C271.164 747.211 257.63 728.294 245.42 717.763C243.788 718.091 242.403 716.211 237.43 716.261L233.674 713.59C234.201 713.159 236.084 711.013 236.658 710.386L234.93 708.855C228.284 703.325 216.934 699.757 213.203 696.081C220.97 694.958 223.744 694.938 231.321 697.888Z"/><path fill="#DA6C5F" transform="matrix(0.738007 0 0 0.739623 -21.4022 -493.328)" d="M231.321 697.888C240.567 691.57 246.253 691.854 255.395 697.73C271.655 696.58 278.154 701.675 279.719 717.717C276.204 717.949 274.124 717.125 270.79 716.155C269.079 714.428 265.418 710.256 263.408 709.643C261.558 712.556 263.685 713.381 261.95 715.861C255.352 710.484 240.602 701.818 231.949 704.136L232.119 705.496C233.558 706.555 233.957 707.384 234.93 708.855C228.284 703.325 216.934 699.757 213.203 696.081C220.97 694.958 223.744 694.938 231.321 697.888Z"/><path fill="#E7AFB0" transform="matrix(0.738007 0 0 0.739623 -21.4022 -493.328)" d="M259.445 700.985C266.162 701.014 275.284 703.691 275.435 711.728C270.201 711.453 262.837 704.835 259.445 700.985Z"/><path fill="#E94333" transform="matrix(0.738007 0 0 0.739623 -21.4022 -493.328)" d="M278.25 751.636C280.348 747.88 283.65 742.265 284.951 738.053C285.471 736.37 284.396 735.144 285.2 732.771C288.065 734.712 287.633 736.298 287.285 739.172L287.985 739.364C289.214 738.254 289.277 738.411 290.961 738.168C289.999 740.486 288.993 742.785 287.944 745.065C285.003 747.856 281.736 749.574 278.25 751.636Z"/><path fill="#E7AFB0" transform="matrix(0.738007 0 0 0.739623 -21.4022 -493.328)" d="M233.674 713.59C234.201 713.159 236.084 711.013 236.658 710.386C238.653 712.002 243.961 716.106 245.42 717.763C243.788 718.091 242.403 716.211 237.43 716.261L233.674 713.59Z"/><path fill="#DA6C5F" transform="matrix(0.738007 0 0 0.739623 -21.4022 -493.328)" d="M269.439 720.547C274.815 720.198 290.293 721.71 285.124 730.315L285.165 730.935L283.672 730.777C275.608 728.217 269.634 727.041 261.279 723.918C264.519 722.333 265.931 721.685 269.439 720.547Z"/><path fill="#C93927" transform="matrix(0.738007 0 0 0.739623 -21.4022 -493.328)" d="M79.7834 698.032C90.0335 692.017 94.8428 691.266 105.015 698.209C105.274 699.95 105.559 699.522 104.955 700.627C105.144 702.272 105.218 703.704 105.662 705.293C87.4377 718.709 71.7558 735.832 61.7673 756.469C58.8494 762.498 55.1928 776.369 53.3409 783.319C50.9986 777.949 49.8643 774.56 52.494 769.11C45.5053 762.819 42.2036 756.338 46.7111 747.269L48.7557 745.061C41.4369 734.915 42.9755 719.946 56.6346 718.45L56.8535 717.499C56.672 714.836 56.8929 712.16 57.5087 709.562C59.8323 699.843 70.8851 695.731 79.7834 698.032Z"/><path fill="#DA6C5F" transform="matrix(0.738007 0 0 0.739623 -21.4022 -493.328)" d="M79.7834 698.032C90.0335 692.017 94.8428 691.266 105.015 698.209C105.274 699.95 105.559 699.522 104.955 700.627C100.708 700.661 89.1738 705.281 85.2305 707.856C82.8695 709.397 75.142 715.942 73.3531 716.283C73.1345 713.429 73.6581 712.97 72.1019 711.585C67.1195 713.824 65.2491 719.241 56.8535 717.499C56.672 714.836 56.8929 712.16 57.5087 709.562C59.8323 699.843 70.8851 695.731 79.7834 698.032Z"/><path fill="#DA6C5F" transform="matrix(0.738007 0 0 0.739623 -21.4022 -493.328)" d="M48.7557 745.061C41.4369 734.915 42.9755 719.946 56.6346 718.45C55.6528 719.475 54.777 720.35 53.7471 721.326C63.5463 719.095 67.5706 719.633 76.3511 724.988C70.3424 726.466 51.0977 731.361 50.4687 738.339L51.5101 741.555C52.6216 744.948 53.1019 745.759 54.9247 748.824C52.4604 747.491 51.0315 746.681 48.7557 745.061Z"/><path fill="#E94333" transform="matrix(0.738007 0 0 0.739623 -21.4022 -493.328)" d="M52.494 769.11C45.5053 762.819 42.2036 756.338 46.7111 747.269C47.1193 752.462 48.4848 754.311 46.075 757.165L46.6103 758.047C48.1342 757.519 48.435 757.31 49.8447 756.493C52.6487 758.751 52.6057 765.646 52.494 769.11Z"/><path fill="#AA926B" transform="matrix(0.738007 0 0 0.739623 -21.4022 -493.328)" d="M284.149 790.956C287.785 826.081 279.036 849.848 257.889 878.173C255.969 880.745 247.836 889.314 245.169 890.869C230.643 905.16 205.25 915.364 185.249 919.328C164.72 923.396 130.183 916.943 112.101 905.321C111.399 905.082 109.502 904.143 108.849 903.763C81.428 887.83 64.0002 862.305 54.9816 832.829L56.9066 831.149L57.7126 831.521C60.3125 846.541 65.0212 846.615 71.7979 858.531C80.6652 874.124 91.7789 890.17 108.094 898.974C114.523 902.443 125.179 904.541 131.931 908.148C165.083 917.619 194.797 916.329 225.191 899.366C246.303 887.584 257.888 873.539 268.493 852.244C273.769 842.25 279.095 837.056 280.357 824.537C282.531 814.151 281.139 799.768 283.824 791.894L284.149 790.956Z"/><path fill="#8F8660" transform="matrix(0.738007 0 0 0.739623 -21.4022 -493.328)" d="M112.101 905.321C118.456 904.821 127.853 909.313 134.505 911.07C153.048 916.005 172.515 919.526 191.573 915.357C200.046 913.503 208.566 908.371 217.2 908.013C216.824 908.028 228.824 901.358 230.961 900.481C234.493 899.032 239.165 892.263 245.169 890.869C230.643 905.16 205.25 915.364 185.249 919.328C164.72 923.396 130.183 916.943 112.101 905.321Z"/><path fill="#C93927" transform="matrix(0.738007 0 0 0.739623 -21.4022 -493.328)" d="M157.311 800.273C161.599 797.611 166.764 796.745 171.686 797.865C177.27 799.125 180.607 801.413 184.058 805.824L186.302 804.921C188.174 807.901 191.334 813.126 193.45 815.76C190.574 819.803 192.51 823.265 188.013 826.962C186.413 829.857 184.179 832.352 181.478 834.26C169.876 842.425 154.509 838.027 146.717 826.629C147.375 824.224 147.991 818.449 148.715 815.173C149.111 810.861 149.848 809.275 151.509 805.491C153.815 802.709 154.23 802.083 157.311 800.273Z"/><path fill="#E94333" transform="matrix(0.738007 0 0 0.739623 -21.4022 -493.328)" d="M156.47 806.274C164.278 805.809 171.22 805.429 179.067 806.421C182.756 810.115 183.546 814.354 183.513 819.467C181.618 820.578 178.541 824.646 177.769 826.667L180.108 826.624C176.996 830.663 165.228 833.383 161.275 830.287L162.578 829.329C158.576 825.001 154.797 823.068 152.664 816.804C152.551 812.206 152.836 809.299 156.47 806.274Z"/><path fill="#AA926B" transform="matrix(0.738007 0 0 0.739623 -21.4022 -493.328)" d="M186.302 804.921C188.174 807.901 191.334 813.126 193.45 815.76C190.574 819.803 192.51 823.265 188.013 826.962C186.413 829.857 184.179 832.352 181.478 834.26C169.876 842.425 154.509 838.027 146.717 826.629C147.375 824.224 147.991 818.449 148.715 815.173C149.438 819.507 149.585 821.176 151.838 825.116C157.747 834.884 175.313 835.855 182 826.934C185.841 822.663 186.21 818.144 186.597 812.79C185.968 810.586 184.89 808.007 184.058 805.824L186.302 804.921Z"/><path fill="#D8C5A4" transform="matrix(0.738007 0 0 0.739623 -21.4022 -493.328)" d="M186.302 804.921C188.174 807.901 191.334 813.126 193.45 815.76C190.574 819.803 192.51 823.265 188.013 826.962C188.564 822.354 188.278 817.154 186.597 812.79C185.968 810.586 184.89 808.007 184.058 805.824L186.302 804.921Z"/><path fill="#AC341C" transform="matrix(0.738007 0 0 0.739623 -21.4022 -493.328)" d="M151.509 805.491C153.815 802.709 154.23 802.083 157.311 800.273L158.91 801.613C158.541 803.078 158.253 803.447 157.535 804.793L156.47 806.274C152.836 809.299 152.551 812.206 152.664 816.804C152.563 819.752 153.009 822.926 151.838 825.116C149.585 821.176 149.438 819.507 148.715 815.173C149.111 810.861 149.848 809.275 151.509 805.491Z"/><path fill="#FEDFDE" transform="matrix(0.738007 0 0 0.739623 -21.4022 -493.328)" d="M157.535 804.793C166.062 799.214 171.435 799.494 179.067 806.421C171.22 805.429 164.278 805.809 156.47 806.274L157.535 804.793Z"/><path fill="#E94333" transform="matrix(0.738007 0 0 0.739623 -21.4022 -493.328)" d="M90.165 839.006C91.6217 834.307 93.2328 831.458 97.5237 828.587C98.9151 827.361 104.622 826.456 106.154 827.52C119.657 837.029 130.719 845.613 147.457 849.24C177.677 855.788 204.747 848.179 228.023 828.368C229.63 826.999 234.729 826.747 236.678 827.568C245.963 831.48 246.564 840.493 243.537 848.951C239.204 865.356 228.388 876.923 214.066 885.21C192.609 897.425 167.19 900.652 143.361 894.188C121.432 888.288 98.9128 873.405 92.853 850.2C91.4183 847.196 90.7624 842.389 90.165 839.006Z"/><path fill="#941D17" transform="matrix(0.738007 0 0 0.739623 -21.4022 -493.328)" d="M92.853 850.2L94.0136 849.957C96.3085 853.449 109.157 871.055 112.144 873.478C127.854 886.221 148.949 892.625 169.168 892.662C191.331 892.701 216.521 883.379 231.501 866.911C235.596 862.41 236.899 854.6 242.644 848.765L243.537 848.951C239.204 865.356 228.388 876.923 214.066 885.21C192.609 897.425 167.19 900.652 143.361 894.188C121.432 888.288 98.9128 873.405 92.853 850.2Z"/><path fill="#ECF2F2" transform="matrix(0.738007 0 0 0.739623 -21.4022 -493.328)" d="M108.4 847.606L108.771 846.391C109.328 846.291 109.884 846.191 110.441 846.091C119.386 850.456 126.761 856.13 136.215 859.735C143.056 862.391 150.31 863.828 157.647 863.979C164.379 863.977 171.441 864.086 178.143 863.817C188.28 864.073 199.364 860.378 208.009 855.116C211.933 852.728 221.493 845.063 225.681 846.473L226.165 847.847C225.709 849.745 225.03 851.528 223.994 853.223C204.707 884.804 158.904 890.433 128.736 872.125C120.206 866.948 110.786 857.95 108.4 847.606Z"/><path fill="#511407" transform="matrix(0.738007 0 0 0.739623 -21.4022 -493.328)" d="M108.4 847.606L108.771 846.391C109.328 846.291 109.884 846.191 110.441 846.091C119.386 850.456 126.761 856.13 136.215 859.735C143.056 862.391 150.31 863.828 157.647 863.979C164.379 863.977 171.441 864.086 178.143 863.817C188.28 864.073 199.364 860.378 208.009 855.116C211.933 852.728 221.493 845.063 225.681 846.473L226.165 847.847C221.902 847.481 207.576 857.593 202.356 860.088C177.015 872.203 152.801 871.113 127.967 858.251C124.051 856.223 111.829 847.75 108.4 847.606Z"/><path fill="#941D17" transform="matrix(0.738007 0 0 0.739623 -21.4022 -493.328)" d="M157.647 863.979C164.379 863.977 171.441 864.086 178.143 863.817C175.612 864.399 176.151 863.74 175.125 865.196L176.369 866.288L175.933 867.003C171.125 868.477 164.19 868.085 159.746 865.925C159.167 864.567 158.917 864.618 157.647 863.979Z"/><path fill="#CC997C" transform="matrix(0.738007 0 0 0.739623 -21.4022 -493.328)" d="M88.1302 815.168C89.7304 814.61 91.5075 814.971 92.7636 816.109C94.0197 817.246 94.5543 818.979 94.1575 820.626C93.7608 822.274 92.496 823.573 90.8598 824.014C88.4526 824.663 85.9638 823.29 85.2287 820.908C84.4936 818.525 85.7761 815.989 88.1302 815.168Z"/><path fill="#CC997C" transform="matrix(0.738007 0 0 0.739623 -21.4022 -493.328)" d="M242.96 815.396C244.564 814.998 246.258 815.497 247.39 816.7C248.523 817.904 248.919 819.625 248.425 821.202C247.931 822.779 246.624 823.968 245.008 824.31C242.566 824.827 240.161 823.292 239.602 820.859C239.044 818.427 240.537 815.996 242.96 815.396Z"/><path fill="#E94333" transform="matrix(0.738007 0 0 0.739623 -21.4022 -493.328)" d="M105.015 698.209C111.966 694.461 115.291 695.04 122.79 696.321C118.88 699.234 116.923 698.628 114.389 700.324C111.17 701.858 108.677 703.438 105.662 705.293C105.218 703.704 105.144 702.272 104.955 700.627C105.559 699.522 105.274 699.95 105.015 698.209Z"/></g></svg>