<?xml version="1.0" encoding="utf-8" ?><svg xmlns="http://www.w3.org/2000/svg" xmlns:xlink="http://www.w3.org/1999/xlink" width="200" height="196" viewBox="0 0 200 196"><clipPath id="cl_20"><rect width="199.99994" height="196"/></clipPath><g clip-path="url(#cl_20)"><path fill="#D9762D" transform="matrix(0.727273 0 0 0.728625 -771.636 0)" d="M1092.01 15.1293C1111.04 19.3371 1123.09 22.991 1140.72 31.876C1156.33 38.9553 1154.03 41.4604 1165.26 49.9953C1186.16 44.0001 1199.14 44.0051 1220.23 49.9334C1227.56 43.5792 1232.54 38.0898 1241.09 33.4784C1259.11 25.0971 1273.5 18.7971 1293.48 15.3445C1293.54 28.9686 1291.27 47.6895 1289.63 61.3759C1287.86 75.3659 1286.35 90.3532 1281.29 103.462C1280.67 105.071 1279.46 109.083 1279.79 110.735C1282.34 123.411 1285.44 139.79 1291.82 150.878C1295.75 157.706 1312.36 179.443 1312.96 186.096C1311.07 186.68 1310.51 185.99 1308.17 185.185C1304.71 184.14 1302.39 183.31 1298.74 183.417C1304.29 188.593 1308.29 190.922 1314.92 194.69C1316.25 196.888 1316.08 195.75 1315.54 198.208L1313.13 200.741C1310.59 202.632 1301.43 208.19 1300.84 208.751L1304.62 209.281L1305.12 210.095C1295.62 222.869 1249.06 227.873 1232.15 231.865C1225.75 236.387 1220.55 237.121 1216.11 240.466C1202.35 250.426 1184.05 250.125 1170.18 240.579C1168.2 239.28 1166.44 238.365 1164.35 237.248C1161.01 237.026 1157.56 234.286 1154.89 232.361C1149.88 230.843 1140.51 229.381 1135.07 228.362C1120 225.542 1107.48 223.201 1093.03 217.938L1087.41 215.501C1085.46 214.518 1081.65 212.329 1080.84 210.285L1081.37 209.408L1084.7 208.92L1084.11 207.892C1080.5 205.91 1068.92 199.925 1069.86 195.429L1071.61 194.405C1077.59 190.818 1081.74 188.129 1086.89 183.445C1083.57 183.058 1080.61 184.26 1077.34 185.216C1074.33 186.252 1074.94 186.536 1072.24 185.999L1072.13 184.73L1073.65 183.106C1076.9 175.121 1085.83 162.565 1091 155.148C1100.38 141.662 1103.65 123.896 1106.12 107.948C1100.44 93.9925 1098.34 81.1552 1096.52 66.2864C1094.25 48.6553 1092.47 32.8851 1092.01 15.1293Z"/><defs><linearGradient id="gradient_0" gradientUnits="userSpaceOnUse" x1="1136.5216" y1="226.17589" x2="1151.1204" y2="184.44852"><stop offset="0" stop-color="#AA957A"/><stop offset="1" stop-color="#F1D9BB"/></linearGradient></defs><path fill="url(#gradient_0)" transform="matrix(0.727273 0 0 0.728625 -771.636 0)" d="M1109.45 196.289C1132.77 192.738 1152.28 180.486 1173.95 192.544C1176.74 195.553 1179.48 198.613 1182.16 201.723C1189.37 201.143 1196.61 201.109 1203.82 201.621C1210.7 203.724 1216.15 206.673 1211.05 214.955C1207.6 220.546 1200.42 227.725 1194.59 230.686L1194.23 231.156C1192.84 231.262 1166.01 236.651 1164.35 237.248C1161.01 237.026 1157.56 234.286 1154.89 232.361C1149.88 230.843 1140.51 229.381 1135.07 228.362C1120 225.542 1107.48 223.201 1093.03 217.938L1087.41 215.501C1085.46 214.518 1081.65 212.329 1080.84 210.285L1081.37 209.408L1084.7 208.92L1084.11 207.892C1080.5 205.91 1068.92 199.925 1069.86 195.429L1071.61 194.405C1077.19 196.736 1102.94 196.998 1109.45 196.289Z"/><path fill="#806C55" transform="matrix(0.727273 0 0 0.728625 -771.636 0)" d="M1071.61 194.405C1077.19 196.736 1102.94 196.998 1109.45 196.289C1109.2 196.36 1108.19 196.544 1107.65 196.993C1104.59 199.528 1092.61 197.403 1091.66 199.243C1096.74 203.583 1102.9 202.646 1103.07 209.199L1104.29 210.096C1110.61 205.534 1118.93 211.334 1127.04 208.954C1132.91 207.235 1145.19 214.239 1151.46 212.049C1152.47 211.697 1156.28 204.311 1158.58 202.514L1159.07 202.443C1159.3 205.82 1146.89 212.418 1154.89 232.361C1149.88 230.843 1140.51 229.381 1135.07 228.362C1120 225.542 1107.48 223.201 1093.03 217.938L1087.41 215.501C1085.46 214.518 1081.65 212.329 1080.84 210.285L1081.37 209.408L1084.7 208.92L1084.11 207.892C1080.5 205.91 1068.92 199.925 1069.86 195.429L1071.61 194.405Z"/><path fill="#AD9677" transform="matrix(0.727273 0 0 0.728625 -771.636 0)" d="M1084.7 208.92C1088.67 209.554 1089.02 209.576 1093.06 210.927L1093.09 212.446C1091.27 214.241 1089.85 214.544 1087.41 215.501C1085.46 214.518 1081.65 212.329 1080.84 210.285L1081.37 209.408L1084.7 208.92Z"/><path fill="#998162" transform="matrix(0.727273 0 0 0.728625 -771.636 0)" d="M1093.06 210.927L1095.18 211.333C1097.09 214.184 1095.43 215.857 1093.03 217.938L1087.41 215.501C1089.85 214.544 1091.27 214.241 1093.09 212.446L1093.06 210.927Z"/><path fill="#2B2A29" transform="matrix(0.727273 0 0 0.728625 -771.636 0)" d="M1182.16 201.723C1189.37 201.143 1196.61 201.109 1203.82 201.621C1210.7 203.724 1216.15 206.673 1211.05 214.955C1207.6 220.546 1200.42 227.725 1194.59 230.686L1193.41 230.543C1185.58 229.623 1175.69 218.554 1173.2 211.326C1170.98 204.855 1177.4 202.869 1182.16 201.723Z"/><path fill="#949294" transform="matrix(0.727273 0 0 0.728625 -771.636 0)" d="M1181.13 207.025C1186.11 206.501 1197.74 206.278 1202.6 206.932L1203 207.638C1196.01 209.094 1187.82 209.904 1181.13 207.025Z"/><defs><linearGradient id="gradient_1" gradientUnits="userSpaceOnUse" x1="1247.106" y1="221.89349" x2="1233.561" y2="184.40172"><stop offset="0" stop-color="#B39F83"/><stop offset="1" stop-color="#EFD7B9"/></linearGradient></defs><path fill="url(#gradient_1)" transform="matrix(0.727273 0 0 0.728625 -771.636 0)" d="M1213.42 191.555C1233.86 181.41 1255 192.753 1277.25 196.597C1283.21 196.66 1289.42 196.87 1295.33 196.328C1301.59 195.363 1308.23 195.907 1314.92 194.69C1316.25 196.888 1316.08 195.75 1315.54 198.208L1313.13 200.741C1310.59 202.632 1301.43 208.19 1300.84 208.751L1304.62 209.281L1305.12 210.095C1295.62 222.869 1249.06 227.873 1232.15 231.865C1225.75 236.387 1220.55 237.121 1216.11 240.466C1202.35 250.426 1184.05 250.125 1170.18 240.579C1168.2 239.28 1166.44 238.365 1164.35 237.248C1166.01 236.651 1192.84 231.262 1194.23 231.156L1194.59 230.686C1200.42 227.725 1207.6 220.546 1211.05 214.955C1216.15 206.673 1210.7 203.724 1203.82 201.621C1207.38 197.256 1208.81 194.851 1213.42 191.555Z"/><defs><linearGradient id="gradient_2" gradientUnits="userSpaceOnUse" x1="1267.5671" y1="228.56975" x2="1266.9973" y2="208.44348"><stop offset="0" stop-color="#5A4738"/><stop offset="1" stop-color="#A69273"/></linearGradient></defs><path fill="url(#gradient_2)" transform="matrix(0.727273 0 0 0.728625 -771.636 0)" d="M1295.33 196.328C1301.59 195.363 1308.23 195.907 1314.92 194.69C1316.25 196.888 1316.08 195.75 1315.54 198.208L1313.13 200.741C1310.59 202.632 1301.43 208.19 1300.84 208.751L1304.62 209.281L1305.12 210.095C1295.62 222.869 1249.06 227.873 1232.15 231.865C1231.79 221.191 1244.17 220.361 1251.24 213.996C1253.4 212.784 1277.09 207.71 1281.24 206.666C1284.57 203.054 1284.52 202.525 1288.63 202.09C1290.28 201.319 1291.6 200.878 1292.85 199.566C1289.83 197.872 1282.79 199.154 1277.25 196.597C1283.21 196.66 1289.42 196.87 1295.33 196.328Z"/><path fill="#AD9677" transform="matrix(0.727273 0 0 0.728625 -771.636 0)" d="M1295.33 196.328C1301.59 195.363 1308.23 195.907 1314.92 194.69C1316.25 196.888 1316.08 195.75 1315.54 198.208L1313.13 200.741C1310.59 202.632 1301.43 208.19 1300.84 208.751L1300.7 208.333C1297.68 207.21 1292.25 214.569 1287.66 209.045C1286.28 208.495 1286.09 208.449 1284.87 207.625C1285.03 205.14 1286.58 204.318 1288.63 202.09C1290.28 201.319 1291.6 200.878 1292.85 199.566C1289.83 197.872 1282.79 199.154 1277.25 196.597C1283.21 196.66 1289.42 196.87 1295.33 196.328Z"/><path fill="#806C55" transform="matrix(0.727273 0 0 0.728625 -771.636 0)" d="M1287.66 209.045C1289.76 206.335 1291.08 204.472 1294.21 202.869C1298.55 200.64 1308.95 197.977 1313.13 200.741C1310.59 202.632 1301.43 208.19 1300.84 208.751L1300.7 208.333C1297.68 207.21 1292.25 214.569 1287.66 209.045Z"/><path fill="#806C55" transform="matrix(0.727273 0 0 0.728625 -771.636 0)" d="M1194.23 231.156C1205.72 235.253 1217.8 235.613 1228.34 228.078C1238.27 220.979 1232.14 208.986 1225.47 202.16C1223.72 200.371 1223.81 196.318 1224.12 193.895L1224.79 193.784C1223.91 199.486 1229.11 202.804 1229.94 205.209C1237.08 225.782 1241.86 203.312 1251.24 213.996C1244.17 220.361 1231.79 221.191 1232.15 231.865C1225.75 236.387 1220.55 237.121 1216.11 240.466C1202.35 250.426 1184.05 250.125 1170.18 240.579C1168.2 239.28 1166.44 238.365 1164.35 237.248C1166.01 236.651 1192.84 231.262 1194.23 231.156Z"/><defs><linearGradient id="gradient_3" gradientUnits="userSpaceOnUse" x1="1192.6262" y1="245.73306" x2="1192.4194" y2="235.46909"><stop offset="0" stop-color="#86755E"/><stop offset="1" stop-color="#9C8B6F"/></linearGradient></defs><path fill="url(#gradient_3)" transform="matrix(0.727273 0 0 0.728625 -771.636 0)" d="M1170.18 240.579C1192.37 231.712 1195.59 235.107 1216.11 240.466C1202.35 250.426 1184.05 250.125 1170.18 240.579Z"/><defs><linearGradient id="gradient_4" gradientUnits="userSpaceOnUse" x1="1194.3745" y1="200.60655" x2="1189.8444" y2="145.07663"><stop offset="0" stop-color="#E49D35"/><stop offset="1" stop-color="#FABE52"/></linearGradient></defs><path fill="url(#gradient_4)" transform="matrix(0.727273 0 0 0.728625 -771.636 0)" d="M1173.95 192.544C1174.26 184.549 1180.07 172.921 1178.86 163.199C1178.68 161.773 1178.25 154.713 1178.84 153.976C1180.53 156.819 1178.6 161.641 1180.23 164.645C1184.97 156.776 1189.1 131.68 1201.25 152.752C1202.85 155.528 1204.58 158.305 1206.28 161.025C1206.27 158.462 1206.08 151.095 1206.6 149.047C1207.85 156.162 1207.17 162.956 1207.91 170.161C1208.73 178.02 1211.38 184.105 1213.42 191.555C1208.81 194.851 1207.38 197.256 1203.82 201.621C1196.61 201.109 1189.37 201.143 1182.16 201.723C1179.48 198.613 1176.74 195.553 1173.95 192.544Z"/><path fill="#BD6224" transform="matrix(0.727273 0 0 0.728625 -771.636 0)" d="M1285.68 61.7494L1289.63 61.3759C1287.86 75.3659 1286.35 90.3532 1281.29 103.462C1280.67 105.071 1279.46 109.083 1279.79 110.735C1282.34 123.411 1285.44 139.79 1291.82 150.878C1295.75 157.706 1312.36 179.443 1312.96 186.096C1311.07 186.68 1310.51 185.99 1308.17 185.185C1304.71 184.14 1302.39 183.31 1298.74 183.417C1304.29 188.593 1308.29 190.922 1314.92 194.69C1308.23 195.907 1301.59 195.363 1295.33 196.328C1293.03 196.327 1292.48 196.284 1290.2 195.931C1291.55 194.531 1307.23 194.713 1310.73 194.123C1304.43 190.066 1295.75 183.068 1289.58 178.36C1288.19 174.919 1287.82 175.537 1288.39 172.48L1289.38 172.082C1290.5 174.149 1290.6 174.309 1292.12 176.092L1291.64 173.633C1297 174.879 1304.11 180.614 1308.96 180.731L1309.02 179.7C1304.13 174.246 1305.5 172.92 1301.99 167.835C1298.72 163.086 1295.18 159.166 1291.92 153.838C1285.1 142.68 1282.58 129.805 1279.48 117.294C1277.94 111.069 1280.7 106.425 1275.91 100.497C1275.76 100.091 1275.13 98.3763 1275.25 97.9906C1277.9 89.6359 1279.53 81.0761 1281.48 72.5371C1282.57 68.501 1283.2 66.3335 1284.78 62.4199L1285.68 61.7494Z"/><path fill="#672613" transform="matrix(0.727273 0 0 0.728625 -771.636 0)" d="M1298.74 183.417C1297.14 180.952 1293.22 180.838 1291.43 178.153L1291.98 176.939C1296.09 175.488 1307.32 181.325 1308.17 185.185C1304.71 184.14 1302.39 183.31 1298.74 183.417Z"/><path fill="#2B2A29" transform="matrix(0.727273 0 0 0.728625 -771.636 0)" d="M1092.01 15.1293C1111.04 19.3371 1123.09 22.991 1140.72 31.876C1138.54 34.0446 1137.29 33.7668 1135.05 35.4584C1128.37 34.2838 1106.84 21.1146 1099.27 23.4844L1099.54 24.529L1098.18 25.4102C1097.06 32.022 1103.24 60.79 1105.2 68.1012C1101.64 68.0789 1102.26 64.8966 1098.99 63.9101C1096.94 64.7427 1097.83 64.0902 1096.52 66.2864C1094.25 48.6553 1092.47 32.8851 1092.01 15.1293Z"/><defs><linearGradient id="gradient_5" gradientUnits="userSpaceOnUse" x1="1294.8641" y1="39.870617" x2="1250.9883" y2="23.287546"><stop offset="0" stop-color="#1E1D1B"/><stop offset="1" stop-color="#3B3A37"/></linearGradient></defs><path fill="url(#gradient_5)" transform="matrix(0.727273 0 0 0.728625 -771.636 0)" d="M1241.09 33.4784C1259.11 25.0971 1273.5 18.7971 1293.48 15.3445C1293.54 28.9686 1291.27 47.6895 1289.63 61.3759L1285.68 61.7494C1285.58 55.4917 1289.46 26.3788 1287.42 23.474C1279.29 21.8226 1255.48 32.8014 1247.86 37.229L1246.83 37.1714C1244.91 35.9508 1243 34.7198 1241.09 33.4784Z"/><path fill="#BD6224" transform="matrix(0.727273 0 0 0.728625 -771.636 0)" d="M1096.52 66.2864C1097.83 64.0902 1096.94 64.7427 1098.99 63.9101C1102.26 64.8966 1101.64 68.0789 1105.2 68.1012C1106.32 70.3648 1107.77 75.5381 1107.02 77.863L1106.4 77.5691L1105.69 72.9485L1104.97 72.9384C1103.21 76.7184 1108.5 94.8017 1110.72 98.9325C1105.46 106.744 1107.78 106.849 1106.35 115.691C1102.91 136.906 1095.25 153.616 1082.14 170.361C1079.36 173.91 1077.45 180.613 1073.65 183.106C1076.9 175.121 1085.83 162.565 1091 155.148C1100.38 141.662 1103.65 123.896 1106.12 107.948C1100.44 93.9925 1098.34 81.1552 1096.52 66.2864Z"/><path fill="#1D170C" transform="matrix(0.727273 0 0 0.728625 -771.636 0)" d="M1247.86 37.229C1255.48 32.8014 1279.29 21.8226 1287.42 23.474C1289.46 26.3788 1285.58 55.4917 1285.68 61.7494L1284.78 62.4199L1282.35 61.568C1284.22 55.9695 1286.83 31.1396 1287.53 24.4922C1278.82 26.4669 1256.32 34.2017 1249.81 39.1829L1247.86 37.229Z"/><path fill="#0A0A0A" transform="matrix(0.727273 0 0 0.728625 -771.636 0)" d="M1099.54 24.529L1099.27 23.4844C1106.84 21.1146 1128.37 34.2838 1135.05 35.4584L1139.14 37.8908L1136.41 39.4051C1126.74 33.265 1110.59 28.1329 1099.54 24.529Z"/><path fill="#672613" transform="matrix(0.727273 0 0 0.728625 -771.636 0)" d="M1246.83 37.1714L1247.86 37.229L1249.81 39.1829C1243.31 44.2603 1234.71 49.0196 1229.58 53.6525C1231.09 54.306 1234.78 55.8887 1235.17 57.5142C1232.29 56.2027 1229.37 54.4001 1228.12 51.3777C1229.43 48.4045 1242.83 40.2709 1246.83 37.1714Z"/><path fill="#672613" transform="matrix(0.727273 0 0 0.728625 -771.636 0)" d="M1077.34 185.216C1079.51 181.459 1089.19 175.741 1093.55 175.21L1094.79 176.843C1093.85 181.3 1088.98 180.158 1086.89 183.445C1083.57 183.058 1080.61 184.26 1077.34 185.216Z"/><path fill="#3D0C06" transform="matrix(0.727273 0 0 0.728625 -771.636 0)" d="M1139.14 37.8908C1142.34 40.0541 1155.79 48.5944 1157.06 51.8036C1153.53 50.4186 1138.98 41.9325 1136.41 39.4051L1139.14 37.8908Z"/><path fill="#672613" transform="matrix(0.727273 0 0 0.728625 -771.636 0)" d="M1282.35 61.568L1284.78 62.4199C1283.2 66.3335 1282.57 68.501 1281.48 72.5371L1280 74.3604C1278.88 72.0728 1281.54 64.4117 1282.35 61.568Z"/><defs><linearGradient id="gradient_6" gradientUnits="userSpaceOnUse" x1="1151.3822" y1="133.60487" x2="1155.7247" y2="166.82024"><stop offset="0" stop-color="black"/><stop offset="1" stop-color="#272627"/></linearGradient></defs><path fill="url(#gradient_6)" transform="matrix(0.727273 0 0 0.728625 -771.636 0)" d="M1147.71 169.678C1143.82 164.4 1143.06 160.362 1142.69 153.058C1142.14 142.009 1149.57 124.012 1161.95 137.256C1166.23 141.837 1166.07 152.671 1165.09 159.203C1163.38 168.413 1157.21 177.452 1147.71 169.678Z"/><path fill="#2B2A29" transform="matrix(0.727273 0 0 0.728625 -771.636 0)" d="M1147.71 169.678L1151.71 168.683C1147.21 165.741 1142.83 156.004 1148.28 152.23C1158.53 145.138 1162.44 154.473 1160.85 163.867L1161.79 163.768C1162.22 162.754 1162.47 162.09 1162.83 161.029L1163.15 160.075L1165.09 159.203C1163.38 168.413 1157.21 177.452 1147.71 169.678Z"/><path fill="#D0CECA" transform="matrix(0.727273 0 0 0.728625 -771.636 0)" d="M1153.41 136.074C1156.28 136.861 1158.63 137.792 1159.51 140.908L1158.65 142.137L1156.13 142.479L1155.31 142.503L1154.11 142.522C1151.51 142.584 1149.68 143.114 1149.08 140.137C1150.23 137.931 1151.35 137.46 1153.41 136.074Z"/><defs><linearGradient id="gradient_7" gradientUnits="userSpaceOnUse" x1="1227.4288" y1="133.99934" x2="1233.3734" y2="163.67848"><stop offset="0" stop-color="black"/><stop offset="1" stop-color="#2A292A"/></linearGradient></defs><path fill="url(#gradient_7)" transform="matrix(0.727273 0 0 0.728625 -771.636 0)" d="M1221.94 163.613C1218.73 155.666 1218.99 139.138 1226.44 134.378C1241.1 125.005 1244.32 150.963 1242.14 159.656C1239.48 173.919 1227.18 178.017 1221.94 163.613Z"/><path fill="#2B2A29" transform="matrix(0.727273 0 0 0.728625 -771.636 0)" d="M1221.94 163.613L1223.31 163.314C1225.32 166.377 1227.86 169.9 1232.01 169.728C1233.81 169.671 1235.51 168.924 1236.77 167.642C1238.24 166.145 1239.21 163.079 1239.25 160.887C1236.21 157.011 1228.92 163.048 1225.84 161.93C1223.47 156.313 1226.77 148.485 1232.66 151.174L1232.12 152.272C1230.24 152.926 1230.68 152.541 1229.27 153.735C1231.96 153.971 1232.34 154.096 1234.78 155.272C1235.76 154.061 1235.34 154.411 1236.8 153.666C1239.97 156.401 1238.86 159.591 1240.11 162.861L1241.02 159.605L1242.14 159.656C1239.48 173.919 1227.18 178.017 1221.94 163.613Z"/><path fill="#F0A148" transform="matrix(0.727273 0 0 0.728625 -771.636 0)" d="M1189.68 83.6543C1209.26 81.1411 1213.65 103.03 1193.55 112.209C1182.72 110.828 1179.68 105.87 1176.97 96.2781C1179.38 89.7749 1182.37 84.9407 1189.68 83.6543Z"/><path fill="#E4E4E6" transform="matrix(0.727273 0 0 0.728625 -771.636 0)" d="M917.347 45.5313C929.525 42.4554 944.118 42.6591 956.112 46.3171C958.324 46.9915 966.831 49.5159 968.462 49.5727C996.519 35.3508 1040.09 90.4283 1049.51 111.983C1055.44 125.554 1063.14 143.034 1057.57 158.36C1053.54 169.57 1045.32 171.12 1034.7 170.326C1035.48 187.651 1032.09 207.124 1017.07 218.076C1007.65 227.865 990.631 233.694 977.163 232.831C967.983 234.17 963.312 235.162 954.551 238.1C954.589 241.02 954.743 242.953 954.128 245.859C952.737 260.743 929.477 261.451 920.643 253.258C916.277 249.209 916.025 245.584 915.833 239.926L915.835 238.715C909.744 235.42 903.088 234.163 896.342 233.088C876.707 231.72 864.473 229.701 849.739 214.758C837.131 201.969 835.453 187.505 835.772 170.329C832.397 170.493 828.049 170.831 824.892 169.852C806.887 163.929 810.035 141.471 814.511 127.396C824.133 97.1378 865.829 37.474 903.028 49.5909L917.347 45.5313Z"/><defs><linearGradient id="gradient_8" gradientUnits="userSpaceOnUse" x1="993.34497" y1="124.00995" x2="1032.6328" y2="86.409172"><stop offset="0" stop-color="#805019"/><stop offset="1" stop-color="#AE762D"/></linearGradient></defs><path fill="url(#gradient_8)" transform="matrix(0.727273 0 0 0.728625 -771.636 0)" d="M968.462 49.5727C996.519 35.3508 1040.09 90.4283 1049.51 111.983C1055.44 125.554 1063.14 143.034 1057.57 158.36C1053.54 169.57 1045.32 171.12 1034.7 170.326C1033.37 161.732 1032.04 156.259 1027.66 148.824C1020.25 136.805 1020.84 137.712 1010.62 127.004C1003.92 118.195 1015.29 93.6394 991.23 66.0302C982.22 57.7993 979.072 55.5204 968.462 49.5727Z"/></g></svg>