<?xml version="1.0" encoding="utf-8" ?><svg xmlns="http://www.w3.org/2000/svg" xmlns:xlink="http://www.w3.org/1999/xlink" width="200" height="206" viewBox="0 0 200 206"><clipPath id="cl_1b"><rect x="4.5776367e-05" y="-4.5776367e-05" width="199.99998" height="206.00002"/></clipPath><g clip-path="url(#cl_1b)"><defs><linearGradient id="gradient_0" gradientUnits="userSpaceOnUse" x1="397.60382" y1="369.72565" x2="429.45206" y2="522.62439"><stop offset="0" stop-color="#689059"/><stop offset="1" stop-color="#79B75B"/></linearGradient></defs><path fill="url(#gradient_0)" transform="matrix(0.746269 0 0 0.749091 -217.164 -243.455)" d="M323.601 451.384C321.103 444.1 320.153 436.731 321.455 429.097C326.332 400.523 345.111 367.99 378.971 377.399C386.548 379.505 391.414 384.667 397.379 389.42C401.569 390.934 405.843 392.432 410.004 394.002C419.749 395.856 428.144 397.011 437.825 393.889L450.816 389.526C460.455 381.321 469.217 374.899 482.726 375.93C493.405 376.745 503.138 382.144 510.043 390.242C520.118 402.058 526.694 420.715 525.866 436.236C525.603 441.158 524.163 447.997 525.858 452.708C532.168 470.244 551.658 466.581 549.77 501.202C547.355 521.298 539.114 532.339 523.202 544.846C519.405 547.83 512.554 552.661 508.158 554.695C501.661 558.392 494.778 562.366 487.687 564.803C451.959 577.084 405.92 577.884 369.498 567.822C359.926 565.178 348.871 560.902 340.852 555.188C337.971 554.426 323.599 544.472 320.92 542.17C307.066 530.268 300.706 519.314 298.903 501.495C295.502 484.249 305.736 470.894 317.306 459.84C319.283 457.952 321.571 453.819 323.601 451.384Z"/><defs><linearGradient id="gradient_1" gradientUnits="userSpaceOnUse" x1="422.57928" y1="492.05588" x2="429.71899" y2="561.49188"><stop offset="0" stop-color="#89B05E"/><stop offset="1" stop-color="#C5DF81"/></linearGradient></defs><path fill="url(#gradient_1)" transform="matrix(0.746269 0 0 0.749091 -217.164 -243.455)" d="M298.903 501.495L299.639 499.076C300.318 500.205 300.212 500.595 300.49 501.995C304.931 505.815 318.723 506.002 324.893 504.341C341.748 515.988 351.029 519.712 370.395 526.014C376.015 527.192 381.128 528.19 386.794 529.097C411.67 532.824 436.964 532.805 461.834 529.04C466.2 528.347 470.542 527.511 474.853 526.534C489.776 522.82 508.922 515.456 520.811 505.701C524.563 503.506 526.466 502.509 530.475 500.792C536.726 501.693 542.733 500.452 549.77 501.202C547.355 521.298 539.114 532.339 523.202 544.846C519.405 547.83 512.554 552.661 508.158 554.695C501.661 558.392 494.778 562.366 487.687 564.803C451.959 577.084 405.92 577.884 369.498 567.822C359.926 565.178 348.871 560.902 340.852 555.188C337.971 554.426 323.599 544.472 320.92 542.17C307.066 530.268 300.706 519.314 298.903 501.495Z"/><path fill="#F0EF94" transform="matrix(0.746269 0 0 0.749091 -217.164 -243.455)" d="M425.648 554.324C432.92 556.29 452.62 551.619 457.85 553.481L455.231 554.608C458.824 557.13 486.049 555.498 490.522 553.948C497.958 553.75 500.931 552.452 508.158 554.695C501.661 558.392 494.778 562.366 487.687 564.803C451.959 577.084 405.92 577.884 369.498 567.822C359.926 565.178 348.871 560.902 340.852 555.188C345.31 554.668 348.176 558.287 351.75 557.94C362.417 556.906 372.287 556.544 382.997 556.662C382.329 555.636 382.525 556.087 380.681 555.633C385.009 554.323 419.361 554.342 425.648 554.324Z"/><path fill="#A6DA6E" transform="matrix(0.746269 0 0 0.749091 -217.164 -243.455)" d="M425.648 554.324C441.913 551.14 460.132 552.537 476.603 551.771C482.256 551.507 487.349 551.268 493.037 551.436L494.003 552.12L493.635 552.716L490.822 553.174L490.522 553.948C486.049 555.498 458.824 557.13 455.231 554.608L457.85 553.481C452.62 551.619 432.92 556.29 425.648 554.324Z"/><path fill="#662613" transform="matrix(0.746269 0 0 0.749091 -217.164 -243.455)" d="M394.007 510.852C404.807 511.172 415.645 511.686 426.441 511.737C435.585 511.78 444.884 510.987 453.985 510.834L453.503 511.83C460.294 514.416 467.015 516.883 472.132 522.529C472.828 523.298 473.689 525.117 474.853 526.534C470.542 527.511 466.2 528.347 461.834 529.04C436.964 532.805 411.67 532.824 386.794 529.097C381.128 528.19 376.015 527.192 370.395 526.014C375.005 518.17 386.223 514.145 394.417 511.657L394.007 510.852Z"/><path fill="#B9493B" transform="matrix(0.746269 0 0 0.749091 -217.164 -243.455)" d="M386.794 529.097C394.397 521.102 407.849 520.103 418.325 520.005C430.934 519.888 452.738 518.922 461.834 529.04C436.964 532.805 411.67 532.824 386.794 529.097Z"/><defs><linearGradient id="gradient_2" gradientUnits="userSpaceOnUse" x1="485.63669" y1="503.36429" x2="490.48416" y2="520.66547"><stop offset="0" stop-color="#1F0000"/><stop offset="1" stop-color="#420905"/></linearGradient></defs><path fill="url(#gradient_2)" transform="matrix(0.746269 0 0 0.749091 -217.164 -243.455)" d="M453.985 510.834C472.108 510.322 505.186 504.895 523.129 500.22C522.701 503.122 522.537 503.227 520.811 505.701C508.922 515.456 489.776 522.82 474.853 526.534C473.689 525.117 472.828 523.298 472.132 522.529C467.015 516.883 460.294 514.416 453.503 511.83L453.985 510.834Z"/><defs><linearGradient id="gradient_3" gradientUnits="userSpaceOnUse" x1="352.7428" y1="504.07288" x2="349.41763" y2="519.64301"><stop offset="0" stop-color="#240401"/><stop offset="1" stop-color="#450B05"/></linearGradient></defs><path fill="url(#gradient_3)" transform="matrix(0.746269 0 0 0.749091 -217.164 -243.455)" d="M311.471 496.488C314.988 497.565 317.623 498.417 321.282 499.061C334.747 503.338 376.543 511.028 390.217 510.616L394.007 510.852L394.417 511.657C386.223 514.145 375.005 518.17 370.395 526.014C351.029 519.712 341.748 515.988 324.893 504.341C319.881 501.8 316.242 499.511 311.471 496.488Z"/><path fill="#5B8B2D" transform="matrix(0.746269 0 0 0.749091 -217.164 -243.455)" d="M321.282 499.061C325.756 497.585 340.913 503.336 346.409 503.624C346.611 503.635 347.844 501.719 348.076 501.325C353.802 499.469 371.201 506.653 377.963 506.246C378.745 506.199 382.767 506.614 383.479 506.922L378.694 507.675L378.33 508.223C381.146 509.667 385.491 509.047 390.217 510.616C376.543 511.028 334.747 503.338 321.282 499.061Z"/><path fill="#96B48B" transform="matrix(0.746269 0 0 0.749091 -217.164 -243.455)" d="M450.816 389.526C450.207 392.282 445.244 398.656 443.259 401.312L442.236 401.476C440.189 396.43 441.454 396.819 437.825 393.889L450.816 389.526Z"/><path fill="#96B48B" transform="matrix(0.746269 0 0 0.749091 -217.164 -243.455)" d="M397.379 389.42C401.569 390.934 405.843 392.432 410.004 394.002L407.398 394.52C406.786 396.975 406.4 399.108 405.238 401.363L404.171 400.849C402.371 397.899 397.792 392.018 397.379 389.42Z"/><path fill="#030303" transform="matrix(0.746269 0 0 0.749091 -217.164 -243.455)" d="M523.129 500.22C525.663 499.487 531.737 497.41 533.93 497.803C533.121 499.384 532.001 499.839 530.475 500.792C526.466 502.509 524.563 503.506 520.811 505.701C522.537 503.227 522.701 503.122 523.129 500.22Z"/><path fill="#A6DA6E" transform="matrix(0.746269 0 0 0.749091 -217.164 -243.455)" d="M396.223 461.863L393.12 461.235C393.619 458.077 400.362 446.375 401.959 442.819C403.514 439.358 405.179 432.824 408.447 431.382C408.271 433.869 407.696 433.859 406.038 436.288L406.261 437.117C420.188 433.04 430.302 433.269 442.129 443.292C444.669 445.445 453.873 458.264 453.98 460.912C457.472 464.098 458.155 464.491 460.676 468.617C460.667 471.659 460.304 472.056 459.021 474.931C461.008 479.48 456.149 486.845 453.191 489.929C440.053 503.632 415.321 507.107 401.7 492.097C398.975 489.095 390.062 478.781 390.084 475.08L389.316 474.958C390.395 474.726 390.835 474.602 391.919 474.246L392.895 473.918C385.674 467.658 387.581 463.681 396.223 461.863Z"/><path fill="#2D2D2C" transform="matrix(0.746269 0 0 0.749091 -217.164 -243.455)" d="M453.98 460.912C457.472 464.098 458.155 464.491 460.676 468.617C460.667 471.659 460.304 472.056 459.021 474.931C456.162 475.089 456.292 475.174 453.9 473.669C453.218 472.784 452.559 471.882 451.922 470.964C448.864 466.469 449.301 463.702 453.98 460.912Z"/><path fill="#5B8B2D" transform="matrix(0.746269 0 0 0.749091 -217.164 -243.455)" d="M453.9 473.669C456.956 470.401 455.513 468.975 460.676 468.617C460.667 471.659 460.304 472.056 459.021 474.931C456.162 475.089 456.292 475.174 453.9 473.669Z"/><path fill="#2D2D2C" transform="matrix(0.746269 0 0 0.749091 -217.164 -243.455)" d="M396.223 461.863C399.083 466.934 396.74 470.149 392.895 473.918C385.674 467.658 387.581 463.681 396.223 461.863Z"/><path fill="#2D2D2C" transform="matrix(0.746269 0 0 0.749091 -217.164 -243.455)" d="M471.082 423.332C467.803 415.648 476.787 399.721 484.622 396.352C488.83 394.523 493.603 394.496 497.832 396.276C508.658 400.86 513.556 414.601 514.342 425.648C514.493 427.772 513.208 431.801 511.114 432.582C510.658 431.045 510.585 430.81 510.432 429.222C510.34 432.295 510.637 437.012 509.103 439.394C507.981 439.63 508.415 439.753 507.749 439.419C502.353 451.418 505.869 458.889 489.688 463.996C470.247 458.208 469.762 440.068 471.082 423.332Z"/><path fill="#31452D" transform="matrix(0.746269 0 0 0.749091 -217.164 -243.455)" d="M471.082 423.332C467.803 415.648 476.787 399.721 484.622 396.352C488.83 394.523 493.603 394.496 497.832 396.276C508.658 400.86 513.556 414.601 514.342 425.648C514.493 427.772 513.208 431.801 511.114 432.582C510.658 431.045 510.585 430.81 510.432 429.222C510.34 432.295 510.637 437.012 509.103 439.394C507.981 439.63 508.415 439.753 507.749 439.419C508.799 427.869 506.65 420.133 500.007 410.722L498.462 411.892L495.559 408.786C484.407 402.384 480.901 412.501 476.423 421.211L476.083 421.877L475.47 420.87C474.479 424.322 474.515 424.809 472.263 427.448C471.279 425.581 474.288 422.469 472.737 418.156L471.082 423.332Z"/><path fill="#B08138" transform="matrix(0.746269 0 0 0.749091 -217.164 -243.455)" d="M472.737 418.156C476.059 408.493 486.668 402.786 496.494 407.357L495.559 408.786C484.407 402.384 480.901 412.501 476.423 421.211L476.083 421.877L475.47 420.87C474.479 424.322 474.515 424.809 472.263 427.448C471.279 425.581 474.288 422.469 472.737 418.156Z"/><path fill="#B08138" transform="matrix(0.746269 0 0 0.749091 -217.164 -243.455)" d="M496.494 407.357L500.007 410.722L498.462 411.892L495.559 408.786L496.494 407.357Z"/><defs><linearGradient id="gradient_4" gradientUnits="userSpaceOnUse" x1="486.29736" y1="412.72989" x2="491.95584" y2="462.15738"><stop offset="0" stop-color="#AD8F25"/><stop offset="1" stop-color="#E7C138"/></linearGradient></defs><path fill="url(#gradient_4)" transform="matrix(0.746269 0 0 0.749091 -217.164 -243.455)" d="M498.462 411.892L500.007 410.722C506.65 420.133 508.799 427.869 507.749 439.419C502.353 451.418 505.869 458.889 489.688 463.996C470.247 458.208 469.762 440.068 471.082 423.332L472.737 418.156C474.288 422.469 471.279 425.581 472.263 427.448C474.515 424.809 474.479 424.322 475.47 420.87L476.083 421.877C472.848 434.414 474.188 441.366 480.478 452.564C485.05 450.947 489.245 455.273 495.652 452.929C496.536 452.606 497.828 452.752 498.776 452.858C500.029 450.516 501.074 448.069 501.898 445.544C505.609 434.034 503.886 422.491 498.462 411.892Z"/><path fill="#656161" transform="matrix(0.746269 0 0 0.749091 -217.164 -243.455)" d="M480.478 452.564C485.05 450.947 489.245 455.273 495.652 452.929C496.536 452.606 497.828 452.752 498.776 452.858C493.239 463.807 486.128 462.479 480.478 452.564Z"/><path fill="#F4F2F2" transform="matrix(0.746269 0 0 0.749091 -217.164 -243.455)" d="M489.313 417.104C490.641 416.607 492.131 417.158 492.816 418.399C493.501 419.64 493.173 421.195 492.046 422.054C491.154 422.734 489.947 422.829 488.96 422.297C487.973 421.765 487.387 420.705 487.464 419.586C487.54 418.467 488.263 417.496 489.313 417.104Z"/><path fill="#2D2D2C" transform="matrix(0.746269 0 0 0.749091 -217.164 -243.455)" d="M339.99 434.598L338.874 434.141C338.496 432.081 338.604 432.517 339.136 430.788C341.513 423.057 337.79 415.877 339.747 407.826C342.31 397.035 348.953 392.457 359.863 395.99C367.93 398.603 372.505 407.493 376.14 414.534C378.247 418.615 381.369 434.635 379.279 438.456L378.646 434.742C378.204 437.15 378.268 441.295 377.123 442.129L377.003 441.987C371.444 452.043 372.761 459.805 358.862 464.033C343.755 459.827 342.195 448.191 339.99 434.598Z"/><path fill="#31452D" transform="matrix(0.746269 0 0 0.749091 -217.164 -243.455)" d="M339.99 434.598L338.874 434.141C338.496 432.081 338.604 432.517 339.136 430.788C341.513 423.057 337.79 415.877 339.747 407.826C342.31 397.035 348.953 392.457 359.863 395.99C367.93 398.603 372.505 407.493 376.14 414.534C378.247 418.615 381.369 434.635 379.279 438.456L378.646 434.742C378.204 437.15 378.268 441.295 377.123 442.129L377.003 441.987C377.666 434.639 377.604 428.387 375.565 421.259C374.651 417.416 369.737 409.622 366.292 407.581C352.088 399.165 341.277 417.111 340.421 429.105L339.99 434.598Z"/><path fill="#D3A73B" transform="matrix(0.746269 0 0 0.749091 -217.164 -243.455)" d="M372.327 440.881C377.283 433.402 371.423 425.707 375.565 421.259C377.604 428.387 377.666 434.639 377.003 441.987C371.444 452.043 372.761 459.805 358.862 464.033C343.755 459.827 342.195 448.191 339.99 434.598L340.421 429.105L342.748 427.268L343.679 427.617C344.87 431.676 343.287 433.736 344.686 439.105C345.864 444.575 346.508 447.726 349.29 452.763C356.003 451.767 353.962 455.03 359.142 455.229C361.748 455.329 363.544 452.806 368.346 452.621C370.581 447.481 371.026 446.309 372.327 440.881Z"/><path fill="#656161" transform="matrix(0.746269 0 0 0.749091 -217.164 -243.455)" d="M349.29 452.763C356.003 451.767 353.962 455.03 359.142 455.229C361.748 455.329 363.544 452.806 368.346 452.621C362.428 463.218 355.452 462.958 349.29 452.763Z"/><path fill="#B08138" transform="matrix(0.746269 0 0 0.749091 -217.164 -243.455)" d="M340.421 429.105C341.277 417.111 352.088 399.165 366.292 407.581C369.737 409.622 374.651 417.416 375.565 421.259C371.423 425.707 377.283 433.402 372.327 440.881C372.682 431.128 372.82 418.991 366.407 411.229C357.415 400.345 348.439 411.38 346.334 421.198C344.819 428.263 344.757 432.001 344.686 439.105C343.287 433.736 344.87 431.676 343.679 427.617L342.748 427.268L340.421 429.105Z"/><path fill="#454443" transform="matrix(0.746269 0 0 0.749091 -217.164 -243.455)" d="M354.699 419.78C356.532 417.389 355.935 417.456 358.346 416.406C361.387 417.288 361.39 418.81 361.332 421.878C363.578 423.95 364.049 430.672 362.35 433.356C361.427 434.818 359.875 435.766 358.154 435.919C356.461 436.066 354.784 435.49 353.54 434.333C352.21 433.102 351.428 431.39 351.367 429.579C351.246 426.338 352.514 422.318 354.699 419.78Z"/><path fill="#F4F2F2" transform="matrix(0.746269 0 0 0.749091 -217.164 -243.455)" d="M354.699 419.78C356.532 417.389 355.935 417.456 358.346 416.406C361.387 417.288 361.39 418.81 361.332 421.878L358.848 422.716C356.243 422.184 356.929 422.161 354.699 419.78Z"/><path fill="#A6DA6E" transform="matrix(0.746269 0 0 0.749091 -217.164 -243.455)" d="M366.486 384.878C370.708 386.487 372.064 389.938 375.069 390.3C375.491 388.662 375.5 388.546 376.278 387.059L377.625 386.908C387.104 390.243 396.302 409.792 389.849 415.087C388.761 414.683 388.328 414.518 387.195 414.219L387.718 416.715C387.634 420.48 388.739 422.908 388.169 426.395C387.08 424.982 382.338 408.701 379.658 403.782C375.098 395.413 371.691 392.357 366.486 384.878Z"/><path fill="#A6DA6E" transform="matrix(0.746269 0 0 0.749091 -217.164 -243.455)" d="M464.648 383.119C467.21 383.337 469.276 383.529 471.812 383.929C469.716 385.518 469.859 384.913 469.132 386.996L471.633 391.312C473.398 390.907 473.51 390.873 475.311 390.87L475.384 390.986C474.667 393.622 470.673 396.585 468.654 399.654C466.221 403.354 464.621 406.332 462.538 410.245L461.796 412.243L460.854 412.452L460.64 413.291L461.247 412.969L460.602 413.622L460.283 413.233C460.615 411.173 460.997 409.122 461.428 407.08C458.839 405.949 458.724 405.838 456.6 403.92C460.086 397.594 458.416 394.905 461.938 390.265C462.954 388.926 462.538 390.346 463.294 387.97C461.509 388.297 461.838 388.232 460.01 388.188L459.991 387.508C462.167 386.524 463.181 386.017 465.214 384.777L464.008 384.205L464.648 383.119Z"/></g></svg>