<?xml version="1.0" encoding="utf-8" ?><svg xmlns="http://www.w3.org/2000/svg" xmlns:xlink="http://www.w3.org/1999/xlink" width="200" height="212" viewBox="0 0 200 212"><clipPath id="cl_c"><rect x="-5.3405762e-05" y="-6.1035156e-05" width="200" height="212"/></clipPath><g clip-path="url(#cl_c)"><defs><linearGradient id="gradient_0" gradientUnits="userSpaceOnUse" x1="168.70026" y1="509.21542" x2="166.67061" y2="369.76379"><stop offset="0" stop-color="#F2C51E"/><stop offset="1" stop-color="#FFFFC3"/></linearGradient></defs><path fill="url(#gradient_0)" transform="matrix(0.803213 0 0 0.806084 -34.5382 -270.038)" d="M109.498 365.243C135.648 349.296 173.842 345.547 202.755 354.89C213.44 358.343 227.63 364.338 236.413 371.472C256.269 383.431 275.658 415.308 281.197 437.888C288.421 467.013 283.752 497.817 268.221 523.493C252.618 549.036 231.234 567.884 202.031 576.151C194.265 578.759 185.698 579.975 177.535 580.807C152.446 590.875 130.667 593.269 113.513 568.315L106.724 564.032C104.663 563.007 101.67 560.917 99.6581 559.603C57.3769 526.884 39.8106 472.208 60.1637 421.807C61.379 418.798 62.7523 415.672 64.5337 412.957C74.2349 394.005 90.8262 375.434 109.498 365.243Z"/><defs><linearGradient id="gradient_1" gradientUnits="userSpaceOnUse" x1="184.63" y1="559.83594" x2="159.86423" y2="468.63101"><stop offset="0" stop-color="#F4C050"/><stop offset="1" stop-color="#FAE869"/></linearGradient></defs><path fill="url(#gradient_1)" transform="matrix(0.803213 0 0 0.806084 -34.5382 -270.038)" d="M206.29 358.407L206.181 357.82C217.274 360.047 231.369 371.138 236.413 371.472C256.269 383.431 275.658 415.308 281.197 437.888C288.421 467.013 283.752 497.817 268.221 523.493C252.618 549.036 231.234 567.884 202.031 576.151C194.265 578.759 185.698 579.975 177.535 580.807C152.446 590.875 130.667 593.269 113.513 568.315L106.724 564.032C104.663 563.007 101.67 560.917 99.6581 559.603C101.968 555.867 105.298 553.424 107.483 549.366C110.249 544.23 110.864 539.12 111.946 533.441C113.527 525.824 116.039 520 120.074 513.465C116.081 510.673 107.633 501.127 109.082 496.035L110.583 495.464C113.346 495.814 118.277 501.421 122.336 503.763L123.527 503.049C124.088 496.983 123.937 482.47 125.748 478.188C126.96 476.758 128.088 474.825 129.118 473.206C135 471.781 136.767 475.581 139.961 479.832C142.592 489.012 142.936 502.745 140.826 511.956C143.668 512.437 143.758 512.407 146.515 511.371C147.314 510.187 160.905 498.292 163.19 496.16C167.584 492.062 173.936 487.493 178.701 482.947C186.03 477.606 196.882 463.369 203.586 477.182C203.643 479.141 203.519 480.267 204.321 482.07C208.368 480.346 206.806 472.563 210.438 468.931C210.887 468.483 214.275 463.827 214.926 462.964C214.445 461.475 214.216 460.827 213.988 459.269L213.837 458.183C215.45 460.743 216.9 464.164 219.37 465.209L220.793 463.547C223.615 459.224 222.361 452.768 221.834 447.569L223.101 448.125C223.335 449.804 223.533 451.157 223.893 452.832C228.283 451.125 232.505 449.456 237.19 447.887C246.497 444.749 257.347 443.984 263.988 435.831C266.391 433.246 264.938 430.143 263.775 427.242C262.144 423.176 260.003 419.826 259.428 415.324C257.64 413.348 250.942 401.983 248.83 398.837C248.478 391.311 245.631 387.515 240.503 382.428C239.087 378.164 224.972 366.914 221.076 366.579C217.968 363.76 210.304 360.306 206.29 358.407Z"/><defs><linearGradient id="gradient_2" gradientUnits="userSpaceOnUse" x1="270.57291" y1="523.21344" x2="154.62535" y2="409.15952"><stop offset="0" stop-color="#D88532"/><stop offset="1" stop-color="#FFCF59"/></linearGradient></defs><path fill="url(#gradient_2)" transform="matrix(0.803213 0 0 0.806084 -34.5382 -270.038)" d="M206.29 358.407L206.181 357.82C217.274 360.047 231.369 371.138 236.413 371.472C256.269 383.431 275.658 415.308 281.197 437.888C288.421 467.013 283.752 497.817 268.221 523.493C252.618 549.036 231.234 567.884 202.031 576.151C201.998 576.014 201.45 567.851 201.346 566.764C208.289 560.246 218.676 553.863 225.871 547.303C227.966 545.393 227.702 543.788 227.704 541.431L228.264 541.374L229.084 540.325C228.798 536.512 227.351 533.743 223.329 532.915C220.942 533.586 221.863 532.936 220.414 534.849C214.439 539.046 203.35 545.218 196.495 547.113C194.547 547.912 193.742 548.346 192.176 546.983C192.907 543.471 199.793 538.689 202.705 536.371C205.426 532.669 209.189 529.75 212.279 526.52C216.093 522.532 233.519 514.023 230.51 508.359C218.613 503.008 191.99 536.072 183.958 530.102L183.845 528.514C186.585 524.217 195.065 517.584 199.356 513.968C202.063 506.62 221.053 494.367 224.198 486.118C224.927 484.207 224.249 483.981 223.195 482.35L223.753 482.251L223.724 481.519C220.667 480.627 220.103 480.809 216.832 480.999L216.019 480.626L214.607 481.707C214.234 473.975 218.264 471.395 219.37 465.209L220.793 463.547C223.615 459.224 222.361 452.768 221.834 447.569L223.101 448.125C223.335 449.804 223.533 451.157 223.893 452.832C228.283 451.125 232.505 449.456 237.19 447.887C246.497 444.749 257.347 443.984 263.988 435.831C266.391 433.246 264.938 430.143 263.775 427.242C262.144 423.176 260.003 419.826 259.428 415.324C257.64 413.348 250.942 401.983 248.83 398.837C248.478 391.311 245.631 387.515 240.503 382.428C239.087 378.164 224.972 366.914 221.076 366.579C217.968 363.76 210.304 360.306 206.29 358.407Z"/><path fill="#F2C351" transform="matrix(0.803213 0 0 0.806084 -34.5382 -270.038)" d="M259.428 415.324C263.429 420.743 268.914 436.399 269.072 443.133L268.543 444.244L267.339 439.039C260.974 458.159 233.59 448.297 222.563 463.152C222.237 463.388 221.91 463.624 221.583 463.859L220.793 463.547C223.615 459.224 222.361 452.768 221.834 447.569L223.101 448.125C223.335 449.804 223.533 451.157 223.893 452.832C228.283 451.125 232.505 449.456 237.19 447.887C246.497 444.749 257.347 443.984 263.988 435.831C266.391 433.246 264.938 430.143 263.775 427.242C262.144 423.176 260.003 419.826 259.428 415.324Z"/><path fill="#C68030" transform="matrix(0.803213 0 0 0.806084 -34.5382 -270.038)" d="M202.65 518.758C209.156 514.427 215.593 510.292 221.701 505.407C226.972 506.73 234.839 505.024 232.945 514.531C231.634 514.994 206.699 533.781 202.705 536.371C205.426 532.669 209.189 529.75 212.279 526.52C216.093 522.532 233.519 514.023 230.51 508.359C218.613 503.008 191.99 536.072 183.958 530.102L183.845 528.514C184.125 528.874 184.783 529.323 185.179 529.631C190.032 528.775 198.758 521.997 202.65 518.758Z"/><path fill="#501D12" transform="matrix(0.803213 0 0 0.806084 -34.5382 -270.038)" d="M199.356 513.968C203.197 511.15 209.412 505.84 212.697 502.597L215.309 503.755C214.605 508.294 205.87 512.669 202.65 518.758C198.758 521.997 190.032 528.775 185.179 529.631C184.783 529.323 184.125 528.874 183.845 528.514C186.585 524.217 195.065 517.584 199.356 513.968Z"/><path fill="#622609" transform="matrix(0.803213 0 0 0.806084 -34.5382 -270.038)" d="M202.705 536.371C206.699 533.781 231.634 514.994 232.945 514.531C229.469 526.19 206.792 534.797 196.747 546.816L196.495 547.113C194.547 547.912 193.742 548.346 192.176 546.983C192.907 543.471 199.793 538.689 202.705 536.371Z"/><path fill="#622609" transform="matrix(0.803213 0 0 0.806084 -34.5382 -270.038)" d="M212.697 502.597C218.465 496.769 223.743 493.852 228.39 487.495C226.527 494.086 225.362 499.488 221.701 505.407C215.593 510.292 209.156 514.427 202.65 518.758C205.87 512.669 214.605 508.294 215.309 503.755L212.697 502.597Z"/><defs><linearGradient id="gradient_3" gradientUnits="userSpaceOnUse" x1="142.98019" y1="586.24762" x2="150.00856" y2="548.64966"><stop offset="0" stop-color="#CD6828"/><stop offset="1" stop-color="#FFC351"/></linearGradient></defs><path fill="url(#gradient_3)" transform="matrix(0.803213 0 0 0.806084 -34.5382 -270.038)" d="M120.406 542.332C123.026 544.295 132.986 556.114 133.246 558.483C135.13 568.957 156.135 566.635 159.422 568.293L158.766 569.15C156.347 569.089 148.393 568.548 146.844 569.369C150.34 571.248 154.749 568.837 157.314 570.909C156.315 571.48 155.974 571.633 155.176 572.475L151.796 573.514L151.702 574.352C153.525 575.288 156.534 574.745 158.189 574.035C170.817 568.618 173.611 570.017 186.931 573.46C184.384 575.428 179.773 578.77 177.535 580.807C152.446 590.875 130.667 593.269 113.513 568.315L113.596 566.745C114.465 565.932 115.034 565.663 116.072 565.09C117.315 563.156 116.758 559.824 116.63 557.347C118.126 559.547 116.935 560.918 119.126 563.794C121.632 565.129 120.345 564.885 123.112 564.632L123.606 563.823C120.346 555.039 121.419 550.946 120.406 542.332Z"/><path fill="#C68030" transform="matrix(0.803213 0 0 0.806084 -34.5382 -270.038)" d="M129.118 473.206C135 471.781 136.767 475.581 139.961 479.832C142.592 489.012 142.936 502.745 140.826 511.956L139.267 512.553C137.364 501.441 144.332 485.456 134.41 476.662L132.766 476.366C126.427 481.489 131.759 505.563 129.439 514.093C127.983 519.445 123.641 520.268 121.789 524.411C119.66 529.176 121.289 537.17 120.406 542.332C121.419 550.946 120.346 555.039 123.606 563.823L123.112 564.632C120.345 564.885 121.632 565.129 119.126 563.794C116.935 560.918 118.126 559.547 116.63 557.347C116.758 559.824 117.315 563.156 116.072 565.09C115.034 565.663 114.465 565.932 113.596 566.745L113.513 568.315L106.724 564.032C104.663 563.007 101.67 560.917 99.6581 559.603C101.968 555.867 105.298 553.424 107.483 549.366C110.249 544.23 110.864 539.12 111.946 533.441C113.527 525.824 116.039 520 120.074 513.465C116.081 510.673 107.633 501.127 109.082 496.035L110.583 495.464C113.346 495.814 118.277 501.421 122.336 503.763L123.527 503.049C124.088 496.983 123.937 482.47 125.748 478.188C126.96 476.758 128.088 474.825 129.118 473.206Z"/><path fill="#68350C" transform="matrix(0.803213 0 0 0.806084 -34.5382 -270.038)" d="M125.748 478.188C130.293 497.634 121.157 514.031 114.486 531.269C111.793 538.225 111.447 549.579 111.466 556.932C111.877 559.073 112.871 565.017 113.596 566.745L113.513 568.315L106.724 564.032C104.663 563.007 101.67 560.917 99.6581 559.603C101.968 555.867 105.298 553.424 107.483 549.366C110.249 544.23 110.864 539.12 111.946 533.441C113.527 525.824 116.039 520 120.074 513.465C116.081 510.673 107.633 501.127 109.082 496.035L110.583 495.464C113.346 495.814 118.277 501.421 122.336 503.763L123.527 503.049C124.088 496.983 123.937 482.47 125.748 478.188Z"/><path fill="#D99437" transform="matrix(0.803213 0 0 0.806084 -34.5382 -270.038)" d="M220.414 534.849C221.863 532.936 220.942 533.586 223.329 532.915C227.351 533.743 228.798 536.512 229.084 540.325L228.264 541.374L227.704 541.431C227.702 543.788 227.966 545.393 225.871 547.303C218.676 553.863 208.289 560.246 201.346 566.764C201.45 567.851 201.998 576.014 202.031 576.151C194.265 578.759 185.698 579.975 177.535 580.807C179.773 578.77 184.384 575.428 186.931 573.46C173.611 570.017 170.817 568.618 158.189 574.035C156.534 574.745 153.525 575.288 151.702 574.352L151.796 573.514L155.176 572.475C155.974 571.633 156.315 571.48 157.314 570.909C154.749 568.837 150.34 571.248 146.844 569.369C148.393 568.548 156.347 569.089 158.766 569.15L159.422 568.293C156.135 566.635 135.13 568.957 133.246 558.483C141.297 565.723 152.667 567.423 163.018 566.514L161.231 565.49C167.338 562.497 175.68 563.391 181.875 561.749C190.269 559.525 227.029 545.917 225.242 536.031C223.198 534.534 223.446 535.029 220.414 534.849Z"/><path fill="#622609" transform="matrix(0.803213 0 0 0.806084 -34.5382 -270.038)" d="M227.704 541.431C227.702 543.788 227.966 545.393 225.871 547.303C218.676 553.863 208.289 560.246 201.346 566.764C201.45 567.851 201.998 576.014 202.031 576.151C194.265 578.759 185.698 579.975 177.535 580.807C179.773 578.77 184.384 575.428 186.931 573.46C194.952 567.281 202.969 560.312 211.1 554.05C215.324 550.798 224.989 544.536 227.704 541.431Z"/><path fill="#F2C351" transform="matrix(0.803213 0 0 0.806084 -34.5382 -270.038)" d="M213.837 458.183C215.45 460.743 216.9 464.164 219.37 465.209C218.264 471.395 214.234 473.975 214.607 481.707L216.019 480.626L216.832 480.999C210.416 487.738 197.939 494.356 191.021 501.227C187.978 504.249 180.909 510.673 177.007 511.778L176.017 511.436C174.656 512.742 172.787 515.029 171.306 515.809C171.159 509.213 182.054 500.112 186.627 495.313C193.153 489.697 197.437 485.332 202.879 478.669L203.586 477.182C203.643 479.141 203.519 480.267 204.321 482.07C208.368 480.346 206.806 472.563 210.438 468.931C210.887 468.483 214.275 463.827 214.926 462.964C214.445 461.475 214.216 460.827 213.988 459.269L213.837 458.183Z"/><path fill="#622609" transform="matrix(0.803213 0 0 0.806084 -34.5382 -270.038)" d="M202.879 478.669C202.549 481.867 201.843 484.219 199.571 486.561C191.912 494.455 183.933 503.933 176.017 511.436C174.656 512.742 172.787 515.029 171.306 515.809C171.159 509.213 182.054 500.112 186.627 495.313C193.153 489.697 197.437 485.332 202.879 478.669Z"/><path fill="#C68030" transform="matrix(0.803213 0 0 0.806084 -34.5382 -270.038)" d="M178.701 482.947C186.03 477.606 196.882 463.369 203.586 477.182L202.879 478.669C197.437 485.332 193.153 489.697 186.627 495.313C186.783 491.549 190.289 488.444 192.855 485.476C193.208 482.365 194.494 480.109 193.914 477.42C192.007 475.891 192.762 476.34 189.596 476.544C181.709 483.109 173.508 489.844 165.829 496.623C159.322 502.366 154.373 509.013 146.726 513.759C146.947 512.297 146.932 512.866 146.515 511.371C147.314 510.187 160.905 498.292 163.19 496.16C167.584 492.062 173.936 487.493 178.701 482.947Z"/><path fill="#ECB646" transform="matrix(0.803213 0 0 0.806084 -34.5382 -270.038)" d="M189.596 476.544C192.974 474.082 194.903 472.5 199.107 472.544C203.074 475.72 197.425 481.1 194.964 483.473C194.265 484.145 193.562 484.813 192.855 485.476C193.208 482.365 194.494 480.109 193.914 477.42C192.007 475.891 192.762 476.34 189.596 476.544Z"/><path fill="#C68030" transform="matrix(0.803213 0 0 0.806084 -34.5382 -270.038)" d="M216.832 480.999C220.103 480.809 220.667 480.627 223.724 481.519L223.753 482.251L223.195 482.35C205.887 483.621 184.555 518.397 171.306 515.809C172.787 515.029 174.656 512.742 176.017 511.436L177.007 511.778C180.909 510.673 187.978 504.249 191.021 501.227C197.939 494.356 210.416 487.738 216.832 480.999Z"/><path fill="#68350C" transform="matrix(0.803213 0 0 0.806084 -34.5382 -270.038)" d="M139.267 512.553L140.826 511.956C143.668 512.437 143.758 512.407 146.515 511.371C146.932 512.866 146.947 512.297 146.726 513.759C145.326 514.298 143.918 514.814 142.501 515.307C140.13 514.582 140.958 515.011 139.267 512.553Z"/><defs><linearGradient id="gradient_4" gradientUnits="userSpaceOnUse" x1="63.241966" y1="465.5181" x2="150.11557" y2="435.96387"><stop offset="0" stop-color="#ED993E"/><stop offset="1" stop-color="#F5C654"/></linearGradient></defs><path fill="url(#gradient_4)" transform="matrix(0.803213 0 0 0.806084 -34.5382 -270.038)" d="M109.498 365.243C115.18 365.084 117.347 360.821 123.622 361.14C116.98 362.803 107.951 369.489 101.65 373.308C104.46 374.332 107.149 371.847 108.788 372.707C105.668 375.832 90.3976 393.063 88.3617 396.429L88.3696 398.103C76.4485 417.378 76.6623 414.114 70.6319 435.514C75.8108 441.951 80.8938 443.923 89.1897 445.248C95.7496 446.295 105.895 451.176 111.71 451.711C113.088 450.314 112.989 450.37 113.777 448.55C113.568 452.202 111.981 465.249 117.415 464.619C118.611 463.472 119.018 463.229 119.847 461.819C124.201 465.659 124.835 470.418 127.734 473.372L129.118 473.206C128.088 474.825 126.96 476.758 125.748 478.188C123.937 482.47 124.088 496.983 123.527 503.049L122.336 503.763C118.277 501.421 113.346 495.814 110.583 495.464L109.082 496.035C107.633 501.127 116.081 510.673 120.074 513.465C116.039 520 113.527 525.824 111.946 533.441C110.864 539.12 110.249 544.23 107.483 549.366C105.298 553.424 101.968 555.867 99.6581 559.603C57.3769 526.884 39.8106 472.208 60.1637 421.807C61.379 418.798 62.7523 415.672 64.5337 412.957C74.2349 394.005 90.8262 375.434 109.498 365.243Z"/><defs><linearGradient id="gradient_5" gradientUnits="userSpaceOnUse" x1="54.998703" y1="499.97815" x2="104.56646" y2="470.40506"><stop offset="0" stop-color="#CF7C30"/><stop offset="1" stop-color="#F9AC41"/></linearGradient></defs><path fill="url(#gradient_5)" transform="matrix(0.803213 0 0 0.806084 -34.5382 -270.038)" d="M64.5337 412.957C66.3475 412.224 66.768 411.864 68.1886 410.625C67.868 411.434 68.1122 411.15 67.5766 411.567C67.6265 414.256 62.787 423.665 62.2013 427.273C60.4635 437.98 59.743 461.244 64.9959 470.659C77.645 493.33 75.4029 520.578 99.1661 535.561C104.851 535.702 108.067 536.747 111.946 533.441C110.864 539.12 110.249 544.23 107.483 549.366C105.298 553.424 101.968 555.867 99.6581 559.603C57.3769 526.884 39.8106 472.208 60.1637 421.807C61.379 418.798 62.7523 415.672 64.5337 412.957Z"/><path fill="#F2C351" transform="matrix(0.803213 0 0 0.806084 -34.5382 -270.038)" d="M109.498 365.243C135.648 349.296 173.842 345.547 202.755 354.89C213.44 358.343 227.63 364.338 236.413 371.472C231.369 371.138 217.274 360.047 206.181 357.82L206.29 358.407C210.304 360.306 217.968 363.76 221.076 366.579C224.972 366.914 239.087 378.164 240.503 382.428C245.631 387.515 248.478 391.311 248.83 398.837C237.714 383.608 224.293 375.789 207.426 368.267C180.28 358.688 160.726 358.212 133.364 367.009L128.234 368.972C112.161 375.289 100.404 383.855 89.3419 397.222C88.6775 398.025 89.0811 397.744 88.3696 398.103L88.3617 396.429C90.3976 393.063 105.668 375.832 108.788 372.707C107.149 371.847 104.46 374.332 101.65 373.308C107.951 369.489 116.98 362.803 123.622 361.14C117.347 360.821 115.18 365.084 109.498 365.243Z"/><defs><linearGradient id="gradient_6" gradientUnits="userSpaceOnUse" x1="192.18874" y1="399.79031" x2="188.6774" y2="355.69006"><stop offset="0" stop-color="#F6B345"/><stop offset="1" stop-color="#FAE466"/></linearGradient></defs><path fill="url(#gradient_6)" transform="matrix(0.803213 0 0 0.806084 -34.5382 -270.038)" d="M133.364 367.009L132.958 365.248C135.082 361.958 149.543 358.31 153.58 357.437C174.778 352.854 195.514 357.858 214.496 367.583C218.635 369.703 223.649 371.66 227.641 374.146C231.78 376.723 235.892 380.871 240.503 382.428C245.631 387.515 248.478 391.311 248.83 398.837C237.714 383.608 224.293 375.789 207.426 368.267C180.28 358.688 160.726 358.212 133.364 367.009Z"/><path fill="#ECB646" transform="matrix(0.803213 0 0 0.806084 -34.5382 -270.038)" d="M206.29 358.407C210.304 360.306 217.968 363.76 221.076 366.579C215.87 366.113 208.643 363.491 206.29 358.407Z"/><defs><linearGradient id="gradient_7" gradientUnits="userSpaceOnUse" x1="168.03813" y1="379.84814" x2="167.84636" y2="362.1185"><stop offset="0" stop-color="#FFFED4"/><stop offset="1" stop-color="#FFFFF0"/></linearGradient></defs><path fill="url(#gradient_7)" transform="matrix(0.803213 0 0 0.806084 -34.5382 -270.038)" d="M133.364 367.009C160.726 358.212 180.28 358.688 207.426 368.267C207.223 370.398 207.551 371.79 205.733 372.877C202.261 374.863 198.026 375.635 194.219 376.601C178.173 380.674 161.74 382.143 145.554 377.768C140.457 376.391 130.856 373.903 128.234 368.972L133.364 367.009Z"/><defs><linearGradient id="gradient_8" gradientUnits="userSpaceOnUse" x1="132.75995" y1="424.40381" x2="132.80022" y2="462.94366"><stop offset="0" stop-color="#6A3D10"/><stop offset="1" stop-color="#8B5821"/></linearGradient></defs><path fill="url(#gradient_8)" transform="matrix(0.803213 0 0 0.806084 -34.5382 -270.038)" d="M113.777 448.55C117.426 430.602 133.89 410.246 147.229 433.177C151.186 439.979 155.747 458.26 151.044 464.665C147.958 464.956 144.859 457.494 143.681 454.804C135.15 445.538 130.683 445.93 122.725 456.254L119.847 461.819C119.018 463.229 118.611 463.472 117.415 464.619C111.981 465.249 113.568 452.202 113.777 448.55Z"/><path fill="#9B6725" transform="matrix(0.803213 0 0 0.806084 -34.5382 -270.038)" d="M122.725 456.254C122.617 451.536 123.509 446.984 123.154 441.845L121.388 444.871L120.982 444.709C121.331 443.36 121.722 442.022 122.154 440.696C124.309 434.265 128.985 429.625 136.154 432.497C142.764 435.146 144.567 439.732 147.405 445.724C145.409 443.936 143.531 440.507 141.985 439.723C144.134 448.239 141.465 449.721 143.681 454.804C135.15 445.538 130.683 445.93 122.725 456.254Z"/><defs><linearGradient id="gradient_9" gradientUnits="userSpaceOnUse" x1="184.48088" y1="446.90652" x2="210.87523" y2="447.88284"><stop offset="0" stop-color="#7E501C"/><stop offset="1" stop-color="#A36E29"/></linearGradient></defs><path fill="url(#gradient_9)" transform="matrix(0.803213 0 0 0.806084 -34.5382 -270.038)" d="M189.283 432.159L191.732 431.879L192.262 432.808C191.101 435.237 190.79 435.439 188.894 437.436L188.925 438.901C194.209 437.806 192.502 432.407 198.864 431.318C210.31 429.358 214.315 442.845 209.871 452.04C196.862 440.872 192.727 457.502 185.725 464.296L184.66 464.259C180.575 456.867 184.351 439.049 189.283 432.159Z"/><defs><linearGradient id="gradient_10" gradientUnits="userSpaceOnUse" x1="201.39725" y1="424.18484" x2="214.16321" y2="464.23706"><stop offset="0" stop-color="#663A0F"/><stop offset="1" stop-color="#965D24"/></linearGradient></defs><path fill="url(#gradient_10)" transform="matrix(0.803213 0 0 0.806084 -34.5382 -270.038)" d="M189.283 432.159C204.625 410.718 216.801 431.987 221.834 447.569C222.361 452.768 223.615 459.224 220.793 463.547L219.37 465.209C216.9 464.164 215.45 460.743 213.837 458.183C212.943 455.71 211.482 454.136 209.871 452.04C214.315 442.845 210.31 429.358 198.864 431.318C192.502 432.407 194.209 437.806 188.925 438.901L188.894 437.436C190.79 435.439 191.101 435.237 192.262 432.808L191.732 431.879L189.283 432.159Z"/><path fill="#F2C351" transform="matrix(0.803213 0 0 0.806084 -34.5382 -270.038)" d="M139.961 479.832C146.513 484.362 140.271 504.906 143.965 509.783C147.903 510.877 151.302 505.837 153.512 503.428C160.561 495.742 170.432 489.079 177.884 481.91L178.532 482.065L178.701 482.947C173.936 487.493 167.584 492.062 163.19 496.16C160.905 498.292 147.314 510.187 146.515 511.371C143.758 512.407 143.668 512.437 140.826 511.956C142.936 502.745 142.592 489.012 139.961 479.832Z"/></g></svg>