<?xml version="1.0" encoding="utf-8" ?><svg xmlns="http://www.w3.org/2000/svg" xmlns:xlink="http://www.w3.org/1999/xlink" width="200" height="208" viewBox="0 0 200 208"><clipPath id="cl_d"><rect x="0.00012207031" y="0.00024414062" width="200" height="208"/></clipPath><g clip-path="url(#cl_d)"><defs><linearGradient id="gradient_0" gradientUnits="userSpaceOnUse" x1="936.28577" y1="196.37825" x2="936.74207" y2="110.11014"><stop offset="0" stop-color="#F6BB52"/><stop offset="1" stop-color="#F6D654"/></linearGradient></defs><path fill="url(#gradient_0)" transform="matrix(0.78125 0 0 0.784906 -632.031 0.000244141)" d="M900.869 16.5826C920.254 10.2894 940.949 9.18884 960.892 13.3906C966.931 14.6631 972.859 16.4131 978.621 18.6243C1031.62 38.9611 1062.26 94.5164 1051.18 150.19C1040.11 205.864 990.544 245.466 933.801 243.976C877.059 242.486 829.64 200.337 821.504 144.159C813.368 87.9809 846.881 34.1102 900.869 16.5826Z"/><defs><linearGradient id="gradient_1" gradientUnits="userSpaceOnUse" x1="936.81696" y1="119.63297" x2="936.34576" y2="23.611435"><stop offset="0" stop-color="#FCE338"/><stop offset="1" stop-color="#FFFFE8"/></linearGradient></defs><path fill="url(#gradient_1)" transform="matrix(0.78125 0 0 0.784906 -632.031 0.000244141)" d="M900.869 16.5826C920.254 10.2894 940.949 9.18884 960.892 13.3906C966.931 14.6631 972.859 16.4131 978.621 18.6243L975.604 18.9718C976.54 20.1723 993.697 27.2592 996.378 29.7011C1002.26 35.0558 1011.51 41.595 1015.99 48.001L1015.42 50.2662C1017.03 52.0384 1021.63 57.731 1023.36 58.0088C1029.1 61.9543 1039.27 101.759 1038.42 109.805L1038.19 108.291L1035.63 110.635C1030.25 110.829 1029.54 108.019 1029.06 103.142C1028.61 108.575 1028.52 110.329 1026.76 115.608C1027.19 128.065 1020.12 132.547 1012.08 140.542C1010 142.612 1007.61 143.977 1006.01 146.412C999.311 150.98 993.115 153.932 985.788 157.499C975.42 162.7 966.201 166.913 962.76 151.794C959.985 139.606 953.624 128.121 952.612 115.456C950.783 108.016 950.13 103.178 950.085 95.5668C949.041 100.347 947.342 101.903 946.045 105.709C941.708 118.444 945.647 121.076 930.217 120.131C925.268 111.824 929.449 109.506 923.714 99.8977C923.098 88.8023 920.795 77.0669 908.698 73.0288C903.702 71.352 898.231 71.8525 893.622 74.408C885.925 78.6239 883.068 84.9449 880.662 92.6842C871.622 87.4092 866.985 83.2759 856.166 87.358C853.265 88.232 852.793 89.538 849.59 89.4486C847.257 88.5222 845.842 85.8338 844.328 83.6731C845.965 80.4854 847.27 78.381 847.867 74.8001C851.785 65.2107 864.238 52.7139 871.963 45.9294L873.366 42.6759L872.869 42.0756C868.699 44.335 863.082 49.5571 858.609 49.5358C868.451 37.2952 890.529 21.1402 905.864 17.4752L905.542 16.9427L900.869 16.5826Z"/><path fill="#E94333" transform="matrix(0.78125 0 0 0.784906 -632.031 0.000244141)" d="M950.085 95.5668C951.618 86.1578 953.516 77.8329 963.448 73.6848C968.21 71.6641 973.6 71.7258 978.314 73.8549C986.594 77.6494 990.154 84.8962 993.105 92.8428C1003.12 86.9342 1009.04 82.1274 1019.81 89.4482C1021.88 91.3459 1023.95 92.9662 1025.4 95.3357C1026.95 98.2494 1027.87 99.9958 1029.06 103.142C1028.61 108.575 1028.52 110.329 1026.76 115.608C1027.19 128.065 1020.12 132.547 1012.08 140.542C1010 142.612 1007.61 143.977 1006.01 146.412C999.311 150.98 993.115 153.932 985.788 157.499C975.42 162.7 966.201 166.913 962.76 151.794C959.985 139.606 953.624 128.121 952.612 115.456C950.783 108.016 950.13 103.178 950.085 95.5668Z"/><path fill="#C68130" transform="matrix(0.78125 0 0 0.784906 -632.031 0.000244141)" d="M1026.76 115.608C1027.19 128.065 1020.12 132.547 1012.08 140.542C1010 142.612 1007.61 143.977 1006.01 146.412C999.311 150.98 993.115 153.932 985.788 157.499C975.42 162.7 966.201 166.913 962.76 151.794C959.985 139.606 953.624 128.121 952.612 115.456L954.891 121.401C956.029 122.274 955.916 122.197 957.121 122.859L957.855 121.745C962.802 128.759 963.053 146.553 972.448 149.474C977.06 150.909 986.123 144.655 990.088 146.383C1000.21 142.173 1005.88 137.332 1014.65 130.926C1020.93 125.707 1022.89 122.659 1026.76 115.608Z"/><path fill="#932F15" transform="matrix(0.78125 0 0 0.784906 -632.031 0.000244141)" d="M957.855 121.745C962.802 128.759 963.053 146.553 972.448 149.474C977.06 150.909 986.123 144.655 990.088 146.383C983.355 149.869 976.512 153.14 969.57 156.19C964.483 147.022 958.963 131.604 954.891 121.401C956.029 122.274 955.916 122.197 957.121 122.859L957.855 121.745Z"/><defs><linearGradient id="gradient_2" gradientUnits="userSpaceOnUse" x1="963.09418" y1="126.98656" x2="997.82562" y2="75.893562"><stop offset="0" stop-color="#9F1D17"/><stop offset="1" stop-color="#E14432"/></linearGradient></defs><path fill="url(#gradient_2)" transform="matrix(0.78125 0 0 0.784906 -632.031 0.000244141)" d="M950.085 95.5668C951.618 86.1578 953.516 77.8329 963.448 73.6848C968.21 71.6641 973.6 71.7258 978.314 73.8549C986.594 77.6494 990.154 84.8962 993.105 92.8428C1003.12 86.9342 1009.04 82.1274 1019.81 89.4482C1021.88 91.3459 1023.95 92.9662 1025.4 95.3357C1023.83 97.1708 1023.95 97.8003 1023.66 100.183L1023.34 99.5716C1016 85.9913 1004.78 90.1672 994.219 96.587C993.183 97.0937 992.785 97.2234 991.705 97.6104C990.386 96.3467 990.097 95.7542 989.099 94.2397C988.159 92.4854 987.15 89.4746 986.415 87.5167C980.155 91.274 967.753 88.1111 961.478 85.025C959.794 84.1965 960.019 82.972 959.708 81.273C956.669 85.0005 955.437 88.0441 954.779 92.8651C953.247 97.3999 954.609 103.321 955.427 107.977C955.153 113.684 955.86 116.311 957.855 121.745L957.121 122.859C955.916 122.197 956.029 122.274 954.891 121.401L952.612 115.456C950.783 108.016 950.13 103.178 950.085 95.5668Z"/><path fill="#FEDEDC" transform="matrix(0.78125 0 0 0.784906 -632.031 0.000244141)" d="M959.708 81.273C970.402 72.0366 980.294 75.5641 986.415 87.5167C980.155 91.274 967.753 88.1111 961.478 85.025C959.794 84.1965 960.019 82.972 959.708 81.273Z"/><path fill="#B9281E" transform="matrix(0.78125 0 0 0.784906 -632.031 0.000244141)" d="M955.427 107.977C957.42 112.96 961.731 119.55 963.483 123.743C975.266 151.944 979.509 145.566 1003.14 134.07C1006.44 132.466 1009.3 131.484 1012.97 128.692L1014.65 130.926C1005.88 137.332 1000.21 142.173 990.088 146.383C986.123 144.655 977.06 150.909 972.448 149.474C963.053 146.553 962.802 128.759 957.855 121.745C955.86 116.311 955.153 113.684 955.427 107.977Z"/><path fill="#FEDEDC" transform="matrix(0.78125 0 0 0.784906 -632.031 0.000244141)" d="M994.219 96.587C1004.78 90.1672 1016 85.9913 1023.34 99.5716L1023.66 100.183C1024.6 104.239 1024.51 108.033 1023.43 112.055C1022.01 112.023 1014.55 106.933 1012.24 105.547C1006.68 102.202 998.029 101.277 994.219 96.587Z"/><path fill="#D96C5E" transform="matrix(0.78125 0 0 0.784906 -632.031 0.000244141)" d="M954.779 92.8651C955.437 88.0441 956.669 85.0005 959.708 81.273C960.019 82.972 959.794 84.1965 961.478 85.025C967.753 88.1111 980.155 91.274 986.415 87.5167C987.15 89.4746 988.159 92.4854 989.099 94.2397C988.074 95.0609 987.022 96.2086 985.601 95.9139C976.195 93.9627 968.567 93.0391 958.997 92.8286C958.584 91.1607 958.652 91.133 957.75 89.7006L956.788 89.676C956.197 90.8203 955.59 91.8631 954.779 92.8651Z"/><path fill="#C93A27" transform="matrix(0.78125 0 0 0.784906 -632.031 0.000244141)" d="M1023.66 100.183C1023.95 97.8003 1023.83 97.1708 1025.4 95.3357C1026.95 98.2494 1027.87 99.9958 1029.06 103.142C1028.61 108.575 1028.52 110.329 1026.76 115.608C1022.89 122.659 1020.93 125.707 1014.65 130.926L1012.97 128.692C1015.27 124.862 1023.63 118.653 1023.43 112.055C1024.51 108.033 1024.6 104.239 1023.66 100.183Z"/><path fill="#EEBD51" transform="matrix(0.78125 0 0 0.784906 -632.031 0.000244141)" d="M900.869 16.5826C920.254 10.2894 940.949 9.18884 960.892 13.3906C966.931 14.6631 972.859 16.4131 978.621 18.6243L975.604 18.9718C976.54 20.1723 993.697 27.2592 996.378 29.7011C1002.26 35.0558 1011.51 41.595 1015.99 48.001L1015.42 50.2662C1013.96 48.8248 1012.94 47.8952 1011.38 46.5668C1009.3 45.7925 1007.66 44.1145 1005.73 42.7441C998.098 37.3365 988.82 28.8673 979.21 27.7368C977.287 28.9644 977.385 29.0224 974.99 29.223L974.731 29.1955C944.103 19.7393 923.486 19.6061 893.181 32.0297C885.924 36.8661 878.734 40.5667 871.963 45.9294L873.366 42.6759L872.869 42.0756C868.699 44.335 863.082 49.5571 858.609 49.5358C868.451 37.2952 890.529 21.1402 905.864 17.4752L905.542 16.9427L900.869 16.5826Z"/><path fill="#F8DA5B" transform="matrix(0.78125 0 0 0.784906 -632.031 0.000244141)" d="M893.181 32.0297C895.071 28.9856 902.765 25.2333 906.348 23.7333C930.333 13.6901 949.698 16.0877 972.852 25.223L974.731 29.1955C944.103 19.7393 923.486 19.6061 893.181 32.0297Z"/><path fill="#E7AF46" transform="matrix(0.78125 0 0 0.784906 -632.031 0.000244141)" d="M960.892 13.3906C966.931 14.6631 972.859 16.4131 978.621 18.6243L975.604 18.9718C976.54 20.1723 993.697 27.2592 996.378 29.7011C1002.26 35.0558 1011.51 41.595 1015.99 48.001L1015.42 50.2662C1013.96 48.8248 1012.94 47.8952 1011.38 46.5668C998.784 31.4472 984.699 24.3911 966.705 17.5771C963.316 16.2935 963.125 16.4506 960.892 13.3906Z"/><path fill="#F8DA5B" transform="matrix(0.78125 0 0 0.784906 -632.031 0.000244141)" d="M972.852 25.223C975.443 26.0933 976.786 26.5283 979.21 27.7368C977.287 28.9644 977.385 29.0224 974.99 29.223L974.731 29.1955L972.852 25.223Z"/><defs><linearGradient id="gradient_3" gradientUnits="userSpaceOnUse" x1="1021.017" y1="50.036144" x2="991.31067" y2="61.676083"><stop offset="0" stop-color="#F3B441"/><stop offset="1" stop-color="#FDD351"/></linearGradient></defs><path fill="url(#gradient_3)" transform="matrix(0.78125 0 0 0.784906 -632.031 0.000244141)" d="M979.21 27.7368C988.82 28.8673 998.098 37.3365 1005.73 42.7441C1007.66 44.1145 1009.3 45.7925 1011.38 46.5668C1012.94 47.8952 1013.96 48.8248 1015.42 50.2662C1017.03 52.0384 1021.63 57.731 1023.36 58.0088C1029.1 61.9543 1039.27 101.759 1038.42 109.805L1038.19 108.291L1035.63 110.635C1030.25 110.829 1029.54 108.019 1029.06 103.142C1027.87 99.9958 1026.95 98.2494 1025.4 95.3357C1023.95 92.9662 1021.88 91.3459 1019.81 89.4482C1023.13 90.5524 1026.98 89.7294 1028.19 86.0635C1029.82 81.14 1026.98 76.7799 1025.41 72.196C1013.23 52.4529 995.989 38.7712 974.99 29.223C977.385 29.0224 977.287 28.9644 979.21 27.7368Z"/><path fill="#EEBD51" transform="matrix(0.78125 0 0 0.784906 -632.031 0.000244141)" d="M1025.41 72.196C1031.85 80.7072 1034.08 88.5099 1036 98.9168C1036.48 101.517 1036.96 106.291 1038.19 108.291L1035.63 110.635C1030.25 110.829 1029.54 108.019 1029.06 103.142C1027.87 99.9958 1026.95 98.2494 1025.4 95.3357C1023.95 92.9662 1021.88 91.3459 1019.81 89.4482C1023.13 90.5524 1026.98 89.7294 1028.19 86.0635C1029.82 81.14 1026.98 76.7799 1025.41 72.196Z"/><defs><linearGradient id="gradient_4" gradientUnits="userSpaceOnUse" x1="934.32629" y1="242.73827" x2="938.25128" y2="17.476761"><stop offset="0" stop-color="#CF8B34"/><stop offset="1" stop-color="#F8AC41"/></linearGradient></defs><path fill="url(#gradient_4)" transform="matrix(0.78125 0 0 0.784906 -632.031 0.000244141)" d="M900.869 16.5826L905.542 16.9427L905.864 17.4752C890.529 21.1402 868.451 37.2952 858.609 49.5358C863.082 49.5571 868.699 44.335 872.869 42.0756L873.366 42.6759L871.963 45.9294C864.238 52.7139 851.785 65.2107 847.867 74.8001C847.27 78.381 845.965 80.4854 844.328 83.6731C845.842 85.8338 847.257 88.5222 849.59 89.4486C852.793 89.538 853.265 88.232 856.166 87.358C849.354 93.1647 846.307 95.7237 844.589 104.767L843.68 106.761C844.471 113.458 840.974 113.075 843.357 120.248C845.698 127.294 848.576 129.174 852.715 134.462C850.101 133.118 842.966 127.32 841.281 126.999C840.409 128.603 840.124 130.74 840.911 132.44C843.627 138.307 843.993 146.168 846.264 151.866C852.972 168.695 866.928 183.165 880.915 194.266C884.234 196.901 889.479 206.021 893.928 205.863C922.375 226.056 948.777 227.169 977.742 207.041L978.487 207.591C980.204 206.336 983.471 204.082 984.427 202.27C986.181 198.946 988.184 199.206 990.275 197.367C1001.82 187.212 1014.92 175.256 1022.86 162.056C1025.94 156.594 1028.21 150.375 1030.14 144.418C1031.4 140.504 1035.11 133.057 1032.16 129.666C1029.06 130.48 1017.94 142.239 1006.78 146.151L1006.01 146.412C1007.61 143.977 1010 142.612 1012.08 140.542C1020.12 132.547 1027.19 128.065 1026.76 115.608C1028.52 110.329 1028.61 108.575 1029.06 103.142C1029.54 108.019 1030.25 110.829 1035.63 110.635L1038.19 108.291L1038.42 109.805C1039.27 101.759 1029.1 61.9543 1023.36 58.0088C1021.63 57.731 1017.03 52.0384 1015.42 50.2662L1015.99 48.001C1011.51 41.595 1002.26 35.0558 996.378 29.7011C993.697 27.2592 976.54 20.1723 975.604 18.9718L978.621 18.6243C1031.62 38.9611 1062.26 94.5164 1051.18 150.19C1040.11 205.864 990.544 245.466 933.801 243.976C877.059 242.486 829.64 200.337 821.504 144.159C813.368 87.9809 846.881 34.1102 900.869 16.5826Z"/><defs><linearGradient id="gradient_5" gradientUnits="userSpaceOnUse" x1="846.92389" y1="63.172634" x2="859.27863" y2="68.688995"><stop offset="0" stop-color="#F5B041"/><stop offset="1" stop-color="#FDCA49"/></linearGradient></defs><path fill="url(#gradient_5)" transform="matrix(0.78125 0 0 0.784906 -632.031 0.000244141)" d="M858.609 49.5358C863.082 49.5571 868.699 44.335 872.869 42.0756L873.366 42.6759L871.963 45.9294C864.238 52.7139 851.785 65.2107 847.867 74.8001C842.451 79.8246 841.114 90.8664 838.218 94.672L837.772 94.0457C841.894 76.9288 842.993 61.2447 858.609 49.5358Z"/><path fill="#EEBD51" transform="matrix(0.78125 0 0 0.784906 -632.031 0.000244141)" d="M838.218 94.672C841.114 90.8664 842.451 79.8246 847.867 74.8001C847.27 78.381 845.965 80.4854 844.328 83.6731C845.842 85.8338 847.257 88.5222 849.59 89.4486C852.793 89.538 853.265 88.232 856.166 87.358C849.354 93.1647 846.307 95.7237 844.589 104.767L843.68 106.761C841.743 111.013 840.755 112.538 838.149 116.433C834.967 107.322 835.231 103.477 838.218 94.672Z"/><path fill="#EBA540" transform="matrix(0.78125 0 0 0.784906 -632.031 0.000244141)" d="M1015.99 48.001C1018.09 50.3979 1022.31 55.0805 1023.36 58.0088C1021.63 57.731 1017.03 52.0384 1015.42 50.2662L1015.99 48.001Z"/><defs><linearGradient id="gradient_6" gradientUnits="userSpaceOnUse" x1="886.36688" y1="154.18028" x2="882.5976" y2="73.809624"><stop offset="0" stop-color="#A01E16"/><stop offset="1" stop-color="#DB3E2D"/></linearGradient></defs><path fill="url(#gradient_6)" transform="matrix(0.78125 0 0 0.784906 -632.031 0.000244141)" d="M880.662 92.6842C883.068 84.9449 885.925 78.6239 893.622 74.408C898.231 71.8525 903.702 71.352 908.698 73.0288C920.795 77.0669 923.098 88.8023 923.714 99.8977C923.077 104.567 922.541 108.569 921.531 113.166C920.767 115.569 919.724 119.268 918.849 121.514L918.818 122.462C920.137 123.443 922.021 124.464 921.93 126.385C921.511 135.225 910.859 158.055 903.41 161.924C896.105 162.379 881.849 153.715 874.67 149.77C870.149 148.602 864.587 144.849 860.292 142.794C854.6 140.07 856.798 138.512 852.715 134.462C848.576 129.174 845.698 127.294 843.357 120.248C840.974 113.075 844.471 113.458 843.68 106.761L844.589 104.767C846.307 95.7237 849.354 93.1647 856.166 87.358C866.985 83.2759 871.622 87.4092 880.662 92.6842Z"/><path fill="#E94333" transform="matrix(0.78125 0 0 0.784906 -632.031 0.000244141)" d="M912.944 80.1611C922.049 86.3932 920.729 103.941 918.537 113.26L917.113 116.784C906.68 134.748 907.557 153.45 882.547 137.438C876.571 133.612 867.658 131.001 861.483 126.647C858.269 124.411 855.454 121.65 853.157 118.479C849.965 114.038 848.104 108.798 848.992 103.291C853.708 104.757 871.211 96.6021 873.906 92.8779C875.6 93.0435 880.54 97.0556 882.105 98.2445C883.373 95.2414 884.72 92.7048 886.22 89.8306C889.89 90.3902 910.397 83.3169 912.944 80.1611Z"/><defs><linearGradient id="gradient_7" gradientUnits="userSpaceOnUse" x1="870.23834" y1="145.76343" x2="878.65424" y2="132.81647"><stop offset="0" stop-color="#D18332"/><stop offset="1" stop-color="#E09C3D"/></linearGradient></defs><path fill="url(#gradient_7)" transform="matrix(0.78125 0 0 0.784906 -632.031 0.000244141)" d="M844.589 104.767C844.82 107.954 844.85 109.723 845.68 112.849C855.588 135.622 882.596 146.137 903.987 156.105C908.574 147.298 915.321 128.229 918.818 122.462C920.137 123.443 922.021 124.464 921.93 126.385C921.511 135.225 910.859 158.055 903.41 161.924C896.105 162.379 881.849 153.715 874.67 149.77C870.149 148.602 864.587 144.849 860.292 142.794C854.6 140.07 856.798 138.512 852.715 134.462C848.576 129.174 845.698 127.294 843.357 120.248C840.974 113.075 844.471 113.458 843.68 106.761L844.589 104.767Z"/><path fill="#EBA540" transform="matrix(0.78125 0 0 0.784906 -632.031 0.000244141)" d="M844.589 104.767C844.82 107.954 844.85 109.723 845.68 112.849C843.637 126.323 857.561 137.932 867.358 144.761C869.481 146.241 873.026 147.974 874.67 149.77C870.149 148.602 864.587 144.849 860.292 142.794C854.6 140.07 856.798 138.512 852.715 134.462C848.576 129.174 845.698 127.294 843.357 120.248C840.974 113.075 844.471 113.458 843.68 106.761L844.589 104.767Z"/><path fill="#FEDEDC" transform="matrix(0.78125 0 0 0.784906 -632.031 0.000244141)" d="M886.22 89.8306L887.179 87.8113C892.903 75.5802 901.736 72.1329 912.944 80.1611C910.397 83.3169 889.89 90.3902 886.22 89.8306Z"/><path fill="#FEDEDC" transform="matrix(0.78125 0 0 0.784906 -632.031 0.000244141)" d="M848.992 103.291C852.458 90.2709 862.544 88.2123 873.906 92.8779C871.211 96.6021 853.708 104.757 848.992 103.291Z"/><path fill="#B9281E" transform="matrix(0.78125 0 0 0.784906 -632.031 0.000244141)" d="M918.537 113.26L921.531 113.166C920.767 115.569 919.724 119.268 918.849 121.514C917.623 121.373 918.205 121.6 917.148 120.723L917.113 116.784L918.537 113.26Z"/><path fill="#9B6725" transform="matrix(0.78125 0 0 0.784906 -632.031 0.000244141)" d="M877.88 185.978C883.688 181.195 893.897 185.172 902.533 186.525C923.547 189.816 944.505 188.711 965.638 187.25C972.232 186.795 985.985 182.8 991.16 183.291C992.799 183.458 994.434 183.658 996.064 183.89C991.087 194.83 986.821 198.909 977.742 207.041C948.777 227.169 922.375 226.056 893.928 205.863C885.769 198.47 882.438 195.871 877.88 185.978Z"/><path fill="#693C16" transform="matrix(0.78125 0 0 0.784906 -632.031 0.000244141)" d="M917.782 183.188C935.343 183.103 950.662 184.333 968.518 181.694C974.718 180.778 993.407 174.773 996.66 176.446C997.843 178.836 997.477 179.68 996.528 182.545C996.378 182.995 996.224 183.443 996.064 183.89C994.434 183.658 992.799 183.458 991.16 183.291C985.985 182.8 972.232 186.795 965.638 187.25C944.505 188.711 923.547 189.816 902.533 186.525C893.897 185.172 883.688 181.195 877.88 185.978C877.014 183.533 876.047 181.34 875.024 178.972C884.583 177.638 906.966 188.405 917.782 183.188Z"/><path fill="#5E270A" transform="matrix(0.78125 0 0 0.784906 -632.031 0.000244141)" d="M875.024 178.972C876.189 176.431 875.588 176.632 877.512 175.83C888.304 178.022 898.79 181.04 909.762 182.269C912.328 182.556 915.283 182.786 917.782 183.188C906.966 188.405 884.583 177.638 875.024 178.972Z"/><defs><linearGradient id="gradient_8" gradientUnits="userSpaceOnUse" x1="681.06732" y1="151.51456" x2="679.2699" y2="23.452394"><stop offset="0" stop-color="#FAD830"/><stop offset="1" stop-color="#FFFFD2"/></linearGradient></defs><path fill="url(#gradient_8)" transform="matrix(0.78125 0 0 0.784906 -632.031 0.000244141)" d="M588.817 54.3882C622.089 12.3575 679.752 -1.53315 728.512 20.7367C748.608 29.9151 765.679 44.6204 777.733 63.1362C810.796 113.927 799.383 181.587 751.488 218.721C741.352 226.58 729.986 232.711 717.851 236.866C693.399 245.237 666.858 245.236 642.406 236.865C629.787 232.544 618.004 226.088 607.571 217.778C557.366 177.788 548.978 104.714 588.817 54.3882Z"/><defs><linearGradient id="gradient_9" gradientUnits="userSpaceOnUse" x1="795.68945" y1="147.9229" x2="736.0296" y2="123.7155"><stop offset="0" stop-color="#CC802E"/><stop offset="1" stop-color="#FFC54E"/></linearGradient></defs><path fill="url(#gradient_9)" transform="matrix(0.78125 0 0 0.784906 -632.031 0.000244141)" d="M777.898 90.2083C779.853 79.5928 771.729 62.0837 767.071 52.3635L767.489 52.171C770.921 56.0151 773.325 59.0473 776.436 63.1731L777.733 63.1362C810.796 113.927 799.383 181.587 751.488 218.721C752.089 212.964 752.051 200.255 751.883 194.368C752.151 185.933 752.028 177.13 752.249 168.563C753.298 173.139 753.097 179.796 753.156 184.647C754.301 181.504 757.361 178.107 759.306 175.425C771.436 158.695 779.137 140.312 780.746 119.615C781.019 116.106 783.382 113.866 782.769 109.828C781.725 102.957 779.84 96.8499 777.898 90.2083Z"/></g></svg>