<?xml version="1.0" encoding="utf-8" ?><svg xmlns="http://www.w3.org/2000/svg" xmlns:xlink="http://www.w3.org/1999/xlink" width="200" height="215" viewBox="0 0 200 215"><clipPath id="cl_9"><rect x="0.00028038025" width="200" height="215"/></clipPath><g clip-path="url(#cl_9)"><defs><linearGradient id="gradient_0" gradientUnits="userSpaceOnUse" x1="168.80865" y1="1248.2229" x2="168.54118" y2="1079.7872"><stop offset="0" stop-color="#F0A735"/><stop offset="1" stop-color="#F4E474"/></linearGradient></defs><path fill="url(#gradient_0)" transform="matrix(0.740741 0 0 0.743945 -21.4812 -738.737)" d="M50.7357 1062.4C49.0272 1058.76 47.974 1055.31 49.3762 1051.36C51.7304 1044.72 59.1711 1040.68 65.2948 1038.06C115.439 1016.58 220.796 1017.12 271.22 1037.61C277.574 1040.19 284.995 1044.16 287.813 1050.77C289.271 1054.19 289.001 1057.52 287.554 1060.89C287.081 1061.99 286.475 1062.95 285.817 1063.95C282.896 1067.09 276.428 1072.65 272.414 1073.97C269.675 1075.61 268.8 1075.79 265.688 1076.65L262.524 1078.34C271.633 1091.79 279.472 1103.89 282.63 1120.34C288.414 1150.47 285.971 1178.52 269.654 1204.72C249.985 1236.3 231.565 1251.25 194.899 1260.38C164.416 1267.41 132.054 1261.59 105.562 1245.23C88.7525 1234.64 74.0042 1216.49 64.4496 1199.05C49.534 1171.83 48.6719 1134.51 59.545 1105.77C63.351 1095.71 69.5486 1087.06 75.2795 1078.24L72.9154 1076.74C66.9284 1077.61 54.1191 1067.16 50.7357 1062.4Z"/><defs><linearGradient id="gradient_1" gradientUnits="userSpaceOnUse" x1="173.75569" y1="1025.6813" x2="179.51559" y2="1081.7422"><stop offset="0" stop-color="#4971F0"/><stop offset="1" stop-color="#73B0FF"/></linearGradient></defs><path fill="url(#gradient_1)" transform="matrix(0.740741 0 0 0.743945 -21.4812 -738.737)" d="M50.7357 1062.4C49.0272 1058.76 47.974 1055.31 49.3762 1051.36C51.7304 1044.72 59.1711 1040.68 65.2948 1038.06C115.439 1016.58 220.796 1017.12 271.22 1037.61C277.574 1040.19 284.995 1044.16 287.813 1050.77C289.271 1054.19 289.001 1057.52 287.554 1060.89C287.081 1061.99 286.475 1062.95 285.817 1063.95C282.896 1067.09 276.428 1072.65 272.414 1073.97C269.675 1075.61 268.8 1075.79 265.688 1076.65L262.524 1078.34C258.377 1079.42 255.877 1080.32 251.865 1081.84L251.131 1081.98C195.53 1093.51 143.367 1094.27 87.6308 1082.09L86.3704 1081.91C82.864 1080.62 78.8639 1079.41 75.2795 1078.24L72.9154 1076.74C66.9284 1077.61 54.1191 1067.16 50.7357 1062.4Z"/><defs><linearGradient id="gradient_2" gradientUnits="userSpaceOnUse" x1="179.00659" y1="1065.8751" x2="178.49976" y2="1086.5007"><stop offset="0" stop-color="#73B4F9"/><stop offset="1" stop-color="#AEEEFF"/></linearGradient></defs><path fill="url(#gradient_2)" transform="matrix(0.740741 0 0 0.743945 -21.4812 -738.737)" d="M232.15 1069.19C235.067 1068.68 253.401 1064.4 254.099 1064.46L254.027 1065.27C252.693 1066.01 251.456 1066.66 250.17 1067.49C253.75 1067.55 258.169 1067.35 260.918 1069.98C262.214 1074.76 257.441 1074.89 255.221 1077.32L261.017 1075.59L260.855 1076.84C262.467 1076.58 262.834 1076.45 264.387 1075.92L265.688 1076.65L262.524 1078.34C258.377 1079.42 255.877 1080.32 251.865 1081.84L251.131 1081.98C195.53 1093.51 143.367 1094.27 87.6308 1082.09L86.3704 1081.91C82.864 1080.62 78.8639 1079.41 75.2795 1078.24L72.9154 1076.74L75.5327 1075.79C78.3618 1076.91 85.222 1078.8 88.1739 1079.05C91.651 1078.18 92.6764 1079.55 93.7689 1079.43C101.163 1078.61 104.473 1077.38 112.359 1077.34C116.156 1076.96 124.12 1077.16 128.22 1077.11C145.309 1076.92 162.545 1077.28 179.629 1076.77C182.659 1076.68 182.401 1076.79 183.812 1075.17C193.723 1073.78 226.261 1073.87 232.15 1069.19Z"/><path fill="#356EC8" transform="matrix(0.740741 0 0 0.743945 -21.4812 -738.737)" d="M261.017 1075.59L260.855 1076.84C262.467 1076.58 262.834 1076.45 264.387 1075.92L265.688 1076.65L262.524 1078.34C258.377 1079.42 255.877 1080.32 251.865 1081.84L251.131 1081.98C195.53 1093.51 143.367 1094.27 87.6308 1082.09L86.3704 1081.91C82.864 1080.62 78.8639 1079.41 75.2795 1078.24L72.9154 1076.74L75.5327 1075.79C78.3618 1076.91 85.222 1078.8 88.1739 1079.05C133.173 1091.48 210.201 1089.79 255.221 1077.32L261.017 1075.59Z"/><path fill="#2439C4" transform="matrix(0.740741 0 0 0.743945 -21.4812 -738.737)" d="M50.7357 1062.4C49.0272 1058.76 47.974 1055.31 49.3762 1051.36C51.7304 1044.72 59.1711 1040.68 65.2948 1038.06C115.439 1016.58 220.796 1017.12 271.22 1037.61C277.574 1040.19 284.995 1044.16 287.813 1050.77C289.271 1054.19 289.001 1057.52 287.554 1060.89C287.081 1061.99 286.475 1062.95 285.817 1063.95C283.17 1059.02 283.656 1052.71 278.795 1048.58C269.353 1040.55 257.715 1040.05 246.358 1040.63C242.034 1038.71 233.773 1034.34 229.501 1033.44C185.217 1024.15 132.639 1022.65 90.1167 1039.93C88.7622 1040.48 81.1666 1039.23 79.3967 1039.78C67.9987 1040.57 52.7848 1050.23 50.7357 1062.4Z"/><path fill="#7AB6FA" transform="matrix(0.740741 0 0 0.743945 -21.4812 -738.737)" d="M57.6608 1066.2L59.8121 1064.11L61.1474 1065.68C63.9644 1063.29 61.8095 1060.41 62.3916 1055.6C64.6328 1052.04 74.4607 1047.19 78.4809 1048.24L78.7961 1049.18L76.3215 1049.65C77.144 1053.67 78.6789 1056.95 81.8219 1059.68C96.1366 1072.11 159.883 1073.63 179.827 1073.06C197.258 1072.56 214.749 1070.43 232.15 1069.19C226.261 1073.87 193.723 1073.78 183.812 1075.17C182.401 1076.79 182.659 1076.68 179.629 1076.77C162.545 1077.28 145.309 1076.92 128.22 1077.11C124.12 1077.16 116.156 1076.96 112.359 1077.34C104.473 1077.38 101.163 1078.61 93.7689 1079.43C92.6764 1079.55 91.651 1078.18 88.1739 1079.05C85.222 1078.8 78.3618 1076.91 75.5327 1075.79C66.7653 1071.81 65.4774 1076.19 57.6608 1066.2Z"/><path fill="#8DCEFB" transform="matrix(0.740741 0 0 0.743945 -21.4812 -738.737)" d="M112.359 1077.34C109.525 1077.38 108.875 1077.32 106.107 1076.72C106.715 1076.12 106.773 1076.31 107.85 1076.04L103.631 1074.54C104.856 1073.93 108.442 1073.11 109.854 1073.24C134.477 1075.54 159.173 1074.51 183.812 1075.17C182.401 1076.79 182.659 1076.68 179.629 1076.77C162.545 1077.28 145.309 1076.92 128.22 1077.11C124.12 1077.16 116.156 1076.96 112.359 1077.34Z"/><path fill="#4E7CCA" transform="matrix(0.740741 0 0 0.743945 -21.4812 -738.737)" d="M246.358 1040.63C257.715 1040.05 269.353 1040.55 278.795 1048.58C283.656 1052.71 283.17 1059.02 285.817 1063.95C282.896 1067.09 276.428 1072.65 272.414 1073.97C269.675 1075.61 268.8 1075.79 265.688 1076.65L264.387 1075.92C262.834 1076.45 262.467 1076.58 260.855 1076.84L261.017 1075.59C263.455 1074.69 266.362 1073.28 268.774 1072.19C272.326 1068.88 274.197 1068.86 276.343 1063.63C281.87 1050.17 266.992 1047.65 257.784 1044.85C254.223 1043.77 250.059 1041.85 246.358 1040.63Z"/><path fill="#356EC8" transform="matrix(0.740741 0 0 0.743945 -21.4812 -738.737)" d="M268.774 1072.19C270.451 1071.95 271.82 1071.76 273.521 1071.62L273.966 1071.58L272.158 1073.16L272.414 1073.97C269.675 1075.61 268.8 1075.79 265.688 1076.65L264.387 1075.92C262.834 1076.45 262.467 1076.58 260.855 1076.84L261.017 1075.59C263.455 1074.69 266.362 1073.28 268.774 1072.19Z"/><path fill="#F0F3DF" transform="matrix(0.740741 0 0 0.743945 -21.4812 -738.737)" d="M146.379 1032.81C158.932 1031.61 177.303 1031.32 189.856 1032.64C201.318 1032.5 217.547 1035.19 228.844 1037.79C233.484 1036.66 243.409 1041.42 247.519 1043.99C250.315 1045.75 251.079 1050.82 253.926 1052.51L255.539 1052.28C256.025 1053.64 255.867 1054.32 255.186 1055.57C252.125 1061.18 246.524 1062.7 240.73 1064.04C215.653 1069.83 106.957 1071.51 88.8756 1059.75C87.4739 1058.84 86.4543 1057.87 85.9985 1056.18C85.6509 1054.89 85.941 1054.04 86.1682 1052.8C86.1827 1052.72 86.1688 1052.63 86.1692 1052.55C87.9841 1037.86 134.099 1032.42 146.379 1032.81Z"/><path fill="#F3BE4C" transform="matrix(0.740741 0 0 0.743945 -21.4812 -738.737)" d="M146.379 1032.81C158.932 1031.61 177.303 1031.32 189.856 1032.64C201.318 1032.5 217.547 1035.19 228.844 1037.79C237.147 1040.41 263.153 1048.35 244.271 1058.24C241.42 1059.09 239.308 1059.73 236.347 1060.28L229.352 1061.31C219.37 1051.92 198.736 1046.79 185.956 1043.44C164.36 1040.91 144.566 1042.74 124.765 1052.22C118.59 1055.17 113.679 1057.23 108.538 1061.87C103.549 1061.03 98.6751 1059.62 94.0146 1057.65C90.1252 1055.75 89.4759 1055.43 86.1692 1052.55C87.9841 1037.86 134.099 1032.42 146.379 1032.81Z"/><path fill="#F6CC55" transform="matrix(0.740741 0 0 0.743945 -21.4812 -738.737)" d="M185.956 1043.44C179.675 1038.21 150.531 1043.22 142.271 1044.31C151.703 1039.59 155.582 1040.76 165.85 1040.26C170.152 1040.05 181.269 1040.81 184.686 1039.72C188.589 1041.81 207.084 1046.04 210.775 1044.32C204.34 1040.42 199.352 1037.85 191.855 1036.48L190.998 1035.25C197.319 1033.32 221.834 1045.04 228.09 1047.95C229.146 1048.44 231.631 1050.63 232.527 1051.59C234.738 1053.98 237.71 1053.77 239.956 1055.5C240.645 1059.25 238.76 1057.91 236.347 1060.28L229.352 1061.31C219.37 1051.92 198.736 1046.79 185.956 1043.44Z"/><path fill="#ECF2F2" transform="matrix(0.740741 0 0 0.743945 -21.4812 -738.737)" d="M189.856 1032.64C201.318 1032.5 217.547 1035.19 228.844 1037.79C237.147 1040.41 263.153 1048.35 244.271 1058.24C228.49 1044.47 209.862 1037.55 189.856 1032.64Z"/><path fill="#ECF2F2" transform="matrix(0.740741 0 0 0.743945 -21.4812 -738.737)" d="M86.1692 1052.55C87.9841 1037.86 134.099 1032.42 146.379 1032.81C124.447 1038.55 111.987 1043.8 94.0146 1057.65C90.1252 1055.75 89.4759 1055.43 86.1692 1052.55Z"/><path fill="#356EC8" transform="matrix(0.740741 0 0 0.743945 -21.4812 -738.737)" d="M228.844 1037.79C233.484 1036.66 243.409 1041.42 247.519 1043.99C250.315 1045.75 251.079 1050.82 253.926 1052.51L255.539 1052.28C256.025 1053.64 255.867 1054.32 255.186 1055.57C252.125 1061.18 246.524 1062.7 240.73 1064.04C215.653 1069.83 106.957 1071.51 88.8756 1059.75C87.4739 1058.84 86.4543 1057.87 85.9985 1056.18C85.6509 1054.89 85.941 1054.04 86.1682 1052.8C86.1827 1052.72 86.1688 1052.63 86.1692 1052.55C89.4759 1055.43 90.1252 1055.75 94.0146 1057.65C98.6751 1059.62 103.549 1061.03 108.538 1061.87C143.997 1067.57 193.6 1065.02 229.352 1061.31L236.347 1060.28C239.308 1059.73 241.42 1059.09 244.271 1058.24C263.153 1048.35 237.147 1040.41 228.844 1037.79Z"/><path fill="#CF8631" transform="matrix(0.740741 0 0 0.743945 -21.4812 -738.737)" d="M251.865 1081.84C255.877 1080.32 258.377 1079.42 262.524 1078.34C271.633 1091.79 279.472 1103.89 282.63 1120.34C288.414 1150.47 285.971 1178.52 269.654 1204.72C249.985 1236.3 231.565 1251.25 194.899 1260.38C164.416 1267.41 132.054 1261.59 105.562 1245.23C88.7525 1234.64 74.0042 1216.49 64.4496 1199.05C49.534 1171.83 48.6719 1134.51 59.545 1105.77C63.351 1095.71 69.5486 1087.06 75.2795 1078.24C78.8639 1079.41 82.864 1080.62 86.3704 1081.91C83.6244 1082.57 83.1928 1082.87 80.5035 1081.97L76.5915 1080.71C69.6754 1085.35 63.0393 1102.63 61.76 1110.73C52.2462 1170.99 88.7222 1234.92 150.912 1246.92C177.333 1251.8 204.609 1245.97 226.724 1230.71C251.852 1213.59 269.85 1184.43 275.215 1154.6C277.781 1140.33 277.966 1121.63 276.884 1107.16C276.597 1103.32 264.916 1082.15 261.337 1080.79C258.384 1081.38 254.635 1082.5 251.865 1081.84Z"/><path fill="#ECF0B2" transform="matrix(0.740741 0 0 0.743945 -21.4812 -738.737)" d="M87.6308 1082.09C143.367 1094.27 195.53 1093.51 251.131 1081.98C252.316 1085.33 254.488 1085.51 254.497 1089.34C253.229 1088.05 251.183 1084.36 250.207 1084.04C246.839 1083.82 240.394 1085.53 237.106 1086.21C218.259 1090.14 199.019 1089.72 180.456 1095.12C179.119 1095.51 169.73 1094.82 168.527 1094.21C170.021 1093.08 173.643 1092.68 175.728 1092.11C144.043 1092.45 119.344 1090.25 88.4299 1083.72C87.3906 1084.89 86.2267 1085.98 85.1096 1087.08C85.2588 1085.67 86.8092 1083.47 87.6308 1082.09Z"/><defs><linearGradient id="gradient_3" gradientUnits="userSpaceOnUse" x1="167.55923" y1="1178.7131" x2="168.26866" y2="1211.1588"><stop offset="0" stop-color="#5A2D0B"/><stop offset="1" stop-color="#926224"/></linearGradient></defs><path fill="url(#gradient_3)" transform="matrix(0.740741 0 0 0.743945 -21.4812 -738.737)" d="M109.194 1178.29C114.011 1178.56 121.31 1185.04 126.046 1187.62C142.204 1196.39 160.801 1199.38 178.892 1197.33C188.534 1196.22 197.903 1193.41 206.569 1189.04C211.41 1186.61 221.961 1178.68 225.183 1178.32L226.047 1179.15C226.203 1183.24 224.536 1185.08 222.158 1188.36C219.187 1191.45 216.057 1194.76 212.767 1197.46C185.67 1219.64 141.455 1217.19 116.816 1192.25C112.392 1187.77 110.123 1184.53 109.194 1178.29Z"/><path fill="#895A22" transform="matrix(0.740741 0 0 0.743945 -21.4812 -738.737)" d="M130.377 1104.92L131.083 1104.88C153.572 1103.8 156.672 1140.76 151.814 1145.86C148.151 1145.57 144.037 1135.14 137.234 1131.2C123.097 1130.34 123.032 1142.45 116.828 1145.96C114.646 1145.8 115.62 1146.18 113.898 1144.56C112.412 1140.58 113.055 1137.49 113.45 1133.4C114.558 1121.97 119.593 1110.2 130.377 1104.92Z"/><path fill="#895A22" transform="matrix(0.740741 0 0 0.743945 -21.4812 -738.737)" d="M186.264 1122.29C189.092 1108.17 205.975 1096.34 216.039 1112.51C221.358 1118.93 228.694 1140.46 221.749 1146.13C215.49 1144.89 210.909 1125.12 199.074 1132.12C193.676 1135.31 190.512 1143.74 186.649 1145.71C181.972 1143.54 184.63 1126.4 186.264 1122.29Z"/><path fill="#693B13" transform="matrix(0.740741 0 0 0.743945 -21.4812 -738.737)" d="M186.264 1122.29C189.092 1108.17 205.975 1096.34 216.039 1112.51L215.216 1112.92C213.976 1111.1 213.304 1110.96 211.371 1110.17C212.385 1112.04 213.634 1114.18 214.384 1116.12C209.66 1111.08 202.264 1108.12 196.305 1113.69C194.066 1115.79 192.679 1118.2 190.226 1120.4C189.586 1117.91 196.739 1110.36 198.726 1108.52C192.733 1112 190.761 1113.4 187.991 1120.23C187.007 1122.66 187.627 1122.38 186.264 1122.29Z"/><path fill="#ECF0B2" transform="matrix(0.740741 0 0 0.743945 -21.4812 -738.737)" d="M149.804 1092.17C152.785 1091.64 164.948 1092.38 167.251 1094.02L166.853 1095.18C161.085 1095.48 154.436 1095.86 149.804 1092.17Z"/></g></svg>