<?xml version="1.0" encoding="utf-8" ?><svg xmlns="http://www.w3.org/2000/svg" xmlns:xlink="http://www.w3.org/1999/xlink" width="200" height="190" viewBox="0 0 200 190"><clipPath id="cl_21"><rect x="-7.6293945e-05" width="199.99998" height="190"/></clipPath><g clip-path="url(#cl_21)"><path fill="#E4E3E5" transform="matrix(0.706714 0 0 0.708955 -201.414 0)" d="M75.8514 38.6891C89.833 23.2516 117.475 28.2977 132.511 38.6095C135.537 40.6849 140.112 43.8604 143.229 45.4571C152.892 44.8529 160.324 43.3169 170.203 43.5098C178.319 43.6683 186.937 45.5413 194.398 45.6698C197.873 43.3975 201.226 40.9101 204.731 38.6151C221.35 27.7307 250.4 22.8448 263.928 41.489C282.767 67.5813 277.789 82.4267 262.341 109.164C266.968 116.325 278.351 130.569 280.34 137.34C290.963 160.578 289.911 194.179 272.839 214.369C257.091 232.994 239.679 236.841 216.308 235.828C211.174 235.605 203.852 236.033 198.65 236.658C188.006 239.293 182.836 246.895 170.438 247.467C160.158 249.785 148.083 237.658 140.226 236.839C114.066 234.112 93.4684 241.254 71.8388 221.18C58.2278 208.548 51.3654 194.298 50.2869 174.878C49.3594 158.179 55.3256 134.115 66.8727 121.531C68.7709 117.901 72.9396 114.428 75.505 108.944C59.5823 86.0961 53.978 60.1865 75.8514 38.6891Z"/><path fill="#B0ACAF" transform="matrix(0.706714 0 0 0.708955 -201.414 0)" d="M66.8727 121.531C65.9922 124.694 63.8434 128.511 62.1263 131.483C41.1332 167.827 51.3468 216.698 92.9174 232.148C105.764 236.923 120.577 233.366 133.75 234.886C136.343 235.139 137.873 235.782 140.41 235.068L140.66 234.385C135.85 233.582 136.923 236.003 133.016 232.255C130.643 229.979 127.89 227.474 125.484 225.163C123.089 218.29 123.997 210.905 127.162 204.43C127.661 203.408 128.182 202.396 128.725 201.397L128.389 200.321C134.334 196.616 145.08 188.633 150.229 184.093C146.49 192.859 131.706 196.798 131.333 201.218L131.866 202.386C128.318 207.937 123.695 216.475 127.854 223.005L129.052 225.082C132.485 225.939 135.871 227.894 139.012 229.43C149.415 234.514 158.755 232.289 169.702 231.892C174.84 231.706 181.844 232.539 187.113 233.251C194.582 233.061 204.849 228.003 210.333 222.43C210.709 217.832 211.697 209.736 208.842 206.478C207.735 205.215 207.827 205.057 207.724 203.667C208.904 203.436 208.863 203.334 210.097 203.491C215.4 211.808 214.813 221.848 208.307 229.08C201.841 236.267 197.654 232.964 191.852 235.792C182.873 240.169 182.58 244.226 171.08 245.09L170.467 245.131L170.199 245.798C176.701 247.698 191.722 236.456 198.606 235.028C202.656 234.189 206.641 234.617 210.498 234.582C230.685 234.399 249.887 235.422 265.309 219.905C283.404 204.585 289.671 177.749 284.156 155.222C283.223 151.411 279.942 140.568 280.34 137.34C290.963 160.578 289.911 194.179 272.839 214.369C257.091 232.994 239.679 236.841 216.308 235.828C211.174 235.605 203.852 236.033 198.65 236.658C188.006 239.293 182.836 246.895 170.438 247.467C160.158 249.785 148.083 237.658 140.226 236.839C114.066 234.112 93.4684 241.254 71.8388 221.18C58.2278 208.548 51.3654 194.298 50.2869 174.878C49.3594 158.179 55.3256 134.115 66.8727 121.531Z"/><path fill="#F0D169" transform="matrix(0.706714 0 0 0.708955 -201.414 0)" d="M437.384 56.6924C454.24 42.4767 471.092 32.4346 492.115 25.5578C505.95 21.0323 506.168 17.2823 509.633 34.3282C513.269 52.2203 512.524 69.5803 509.199 87.4843C508.374 92.0476 505.04 104.503 505.502 108.071C506.583 116.418 511.178 126.359 513.3 135.12C524.369 167.688 530.918 193.153 505.499 220.206L504.42 220.543L504.452 221.294L503.757 221.303L499.401 224.781L498.638 225.535L497.956 225.685C496.544 226.437 493.608 227.697 492.933 228.813L493.438 229.328L493.107 231.014L490.76 229.971L489.39 230.071C477.137 233.944 469.739 232.558 457.738 234.798C451.509 235.961 442.208 241.939 435.786 244.613C415.435 253.088 405.948 238.356 389.758 234.53C380.013 232.227 370.114 234.853 358.28 229.884L358.557 229.484L356.328 228.838L355.809 228.887C354.41 228.32 351.71 226.799 350.262 226.034L350.385 225.715L348.522 224.805L348.406 224.427L343.939 221.081C341.849 222.491 338.18 224.715 335.875 225.506L336.533 224.67L335.832 225.471C337.514 223.152 340.317 221.641 342.78 220.021C325.896 204.366 320.584 181.719 327.71 159.834C329.168 150.132 334.944 133.75 338.192 124.415C344.229 107.069 343.087 108.57 339.433 91.2031C334.426 67.403 334.646 44.5759 341.833 21.0786C366.881 27.1008 390.105 39.0781 409.536 55.994C412.901 58.0208 434.186 58.2401 437.384 56.6924Z"/><defs><linearGradient id="gradient_0" gradientUnits="userSpaceOnUse" x1="375.18088" y1="83.865723" x2="350.42389" y2="34.111916"><stop offset="0" stop-color="#9E7425"/><stop offset="1" stop-color="#DDB23E"/></linearGradient></defs><path fill="url(#gradient_0)" transform="matrix(0.706714 0 0 0.708955 -201.414 0)" d="M341.833 21.0786C366.881 27.1008 390.105 39.0781 409.536 55.994C401.109 62.1255 399.206 54.3126 391.073 51.9209C394.067 54.5994 397.758 57.6871 400.276 60.6935C388.703 65.5798 365.619 75.7745 358.21 86.141C356.542 91.6786 347.222 99.3105 346.334 102.379C341.277 119.857 333.485 140.418 329.427 157.816L328.536 160.626L327.71 159.834C329.168 150.132 334.944 133.75 338.192 124.415C344.229 107.069 343.087 108.57 339.433 91.2031C334.426 67.403 334.646 44.5759 341.833 21.0786Z"/><defs><linearGradient id="gradient_1" gradientUnits="userSpaceOnUse" x1="326.50522" y1="71.538132" x2="395.26022" y2="33.843887"><stop offset="0" stop-color="#E8BD45"/><stop offset="1" stop-color="#FBE386"/></linearGradient></defs><path fill="url(#gradient_1)" transform="matrix(0.706714 0 0 0.708955 -201.414 0)" d="M341.833 21.0786C366.881 27.1008 390.105 39.0781 409.536 55.994C401.109 62.1255 399.206 54.3126 391.073 51.9209C385.958 48.7826 351.31 25.9215 347.189 34.0756C341.753 48.0588 341.818 64.2942 344.318 78.9099C345.073 85.5704 346.993 93.5918 347.346 99.8048C350.49 95.0698 353.74 89.5769 358.21 86.141C356.542 91.6786 347.222 99.3105 346.334 102.379C341.277 119.857 333.485 140.418 329.427 157.816L328.536 160.626L327.71 159.834C329.168 150.132 334.944 133.75 338.192 124.415C344.229 107.069 343.087 108.57 339.433 91.2031C334.426 67.403 334.646 44.5759 341.833 21.0786Z"/><path fill="#8F6021" transform="matrix(0.706714 0 0 0.708955 -201.414 0)" d="M347.189 34.0756C347.655 38.1826 346.078 47.7167 345.903 52.6106C345.597 61.1919 345.64 69.2645 345.873 77.8627C344.854 78.9423 345.388 78.8109 344.318 78.9099C341.818 64.2942 341.753 48.0588 347.189 34.0756Z"/><defs><linearGradient id="gradient_2" gradientUnits="userSpaceOnUse" x1="472.12375" y1="89.463631" x2="486.29254" y2="30.462589"><stop offset="0" stop-color="#A47A27"/><stop offset="1" stop-color="#DFB33E"/></linearGradient></defs><path fill="url(#gradient_2)" transform="matrix(0.706714 0 0 0.708955 -201.414 0)" d="M437.384 56.6924C454.24 42.4767 471.092 32.4346 492.115 25.5578C505.95 21.0323 506.168 17.2823 509.633 34.3282C513.269 52.2203 512.524 69.5803 509.199 87.4843C508.374 92.0476 505.04 104.503 505.502 108.071C506.583 116.418 511.178 126.359 513.3 135.12L512.383 135.088C508.512 124.78 506.279 113.814 502.057 103.498C498.291 94.2935 488.146 88.8209 483.735 80.86C473.495 70.9306 460.341 66.7795 448.684 60.6902L447.911 60.2799L454.25 53.789C450.734 55.1725 449.694 56.3085 446.937 58.9108C444.625 58.4392 439.293 57.5303 437.384 56.6924Z"/><defs><linearGradient id="gradient_3" gradientUnits="userSpaceOnUse" x1="521.66925" y1="72.622055" x2="453.27808" y2="32.667503"><stop offset="0" stop-color="#E7BE46"/><stop offset="1" stop-color="#FBE489"/></linearGradient></defs><path fill="url(#gradient_3)" transform="matrix(0.706714 0 0 0.708955 -201.414 0)" d="M437.384 56.6924C454.24 42.4767 471.092 32.4346 492.115 25.5578C505.95 21.0323 506.168 17.2823 509.633 34.3282C513.269 52.2203 512.524 69.5803 509.199 87.4843C508.374 92.0476 505.04 104.503 505.502 108.071C506.583 116.418 511.178 126.359 513.3 135.12L512.383 135.088C508.512 124.78 506.279 113.814 502.057 103.498C498.291 94.2935 488.146 88.8209 483.735 80.86C491.86 86.984 495.04 91.5539 500.56 99.9159C501.301 91.803 503.462 83.6239 504.451 75.2692C505.78 62.6745 505.899 47.7324 501.52 35.744C500.601 33.4246 501.32 34.3087 499.424 32.8919C487.013 30.7123 463.947 49.0641 454.25 53.789C450.734 55.1725 449.694 56.3085 446.937 58.9108C444.625 58.4392 439.293 57.5303 437.384 56.6924Z"/><path fill="#AD7931" transform="matrix(0.706714 0 0 0.708955 -201.414 0)" d="M501.52 35.744C505.899 47.7324 505.78 62.6745 504.451 75.2692C503.897 75.8038 504.29 75.4589 503.163 76.1671C502.539 71.7287 500.628 37.75 501.52 35.744Z"/><path fill="#8F6021" transform="matrix(0.706714 0 0 0.708955 -201.414 0)" d="M385.881 222.875L386.844 223.889L386.732 225.782C390.768 228.833 403.056 227.22 408.003 226.532C410.727 226.15 413.448 225.747 416.166 225.324C410.701 228.664 404.161 228.636 401.464 230.414C402.65 231.647 402.121 231.315 403.723 231.934C413.497 229.349 415.554 227.428 424.073 223.868C431.53 227.358 436.657 230.381 444.877 231.718C455.491 229.509 458.427 234.332 467.248 224.496C473.466 225.492 484.386 226.855 489.39 230.071C477.137 233.944 469.739 232.558 457.738 234.798C451.509 235.961 442.208 241.939 435.786 244.613C415.435 253.088 405.948 238.356 389.758 234.53C380.013 232.227 370.114 234.853 358.28 229.884L358.557 229.484C361.928 228.345 364.186 227.662 367.663 226.8C372.381 225.655 377.287 224.308 382.106 225.199L385.881 222.875Z"/><path fill="#F1C54E" transform="matrix(0.706714 0 0 0.708955 -201.414 0)" d="M424.073 223.868C431.53 227.358 436.657 230.381 444.877 231.718C440.701 236.534 431.206 239.024 424.973 239.329C419.411 239.601 406.01 237.126 403.723 231.934C413.497 229.349 415.554 227.428 424.073 223.868Z"/><path fill="#AD7931" transform="matrix(0.706714 0 0 0.708955 -201.414 0)" d="M367.663 226.8C372.381 225.655 377.287 224.308 382.106 225.199C383.82 227.732 384.176 228.234 386.47 230.234C381.94 229.997 371.651 229.904 368.126 227.861L367.663 226.8Z"/><path fill="#53350E" transform="matrix(0.706714 0 0 0.708955 -201.414 0)" d="M415.209 217.146C389.433 193.436 461.714 195.555 430.842 218.566C438.009 224.366 454.004 221.91 461.821 217.888L463.501 218.137C465.96 219.66 471.074 219.876 474.157 220.206C482.668 221.118 489.855 223.013 497.956 225.685C496.544 226.437 493.608 227.697 492.933 228.813L493.438 229.328L493.107 231.014L490.76 229.971L489.39 230.071C484.386 226.855 473.466 225.492 467.248 224.496C458.427 234.332 455.491 229.509 444.877 231.718C436.657 230.381 431.53 227.358 424.073 223.868C415.554 227.428 413.497 229.349 403.723 231.934C402.121 231.315 402.65 231.647 401.464 230.414C404.161 228.636 410.701 228.664 416.166 225.324C417.454 224.985 420.538 223.674 421.925 223.124C419.47 220.527 418.298 219.008 415.209 217.146Z"/><path fill="#BF8E35" transform="matrix(0.706714 0 0 0.708955 -201.414 0)" d="M461.821 217.888L463.501 218.137C465.96 219.66 471.074 219.876 474.157 220.206C482.668 221.118 489.855 223.013 497.956 225.685C496.544 226.437 493.608 227.697 492.933 228.813L493.438 229.328L493.107 231.014L490.76 229.971C490.569 229.362 490.167 228.674 489.865 228.081C483.731 224.675 469.417 222.244 462.498 222.999C462.869 224.062 463.196 224.222 463.951 225.05C458.736 234.162 433.764 226.467 426.191 223.169C427.905 221.198 428.877 220.314 430.842 218.566C438.009 224.366 454.004 221.91 461.821 217.888Z"/><path fill="#BDBBB9" transform="matrix(0.706714 0 0 0.708955 -201.414 0)" d="M419.413 203.736C423.998 203.596 429.232 202.917 433.284 204.717C434.81 206.79 434.463 205.647 434.264 208.292C433.047 209.96 433.1 209.816 431.132 210.526C427.154 210.242 416.482 211.852 415.388 207.52C416.258 205.377 417.424 204.974 419.413 203.736Z"/><path fill="#BF8E35" transform="matrix(0.706714 0 0 0.708955 -201.414 0)" d="M513.3 135.12C524.369 167.688 530.918 193.153 505.499 220.206L504.42 220.543C502.746 218.59 499.491 217.634 497.034 216.666C490.434 214.12 485.012 214.496 480.368 212.863C483.808 209.039 487.996 216.976 494.405 210.276C500.404 204.005 500.512 201.958 504.336 194.842C504.729 195.792 504.822 199.646 504.894 200.926C510.382 194.661 515.674 185.192 516.586 176.738C516.925 173.595 516.589 171.167 518.228 168.385C517.423 166.011 517.47 165.397 517.871 162.882C519.189 154.598 514.392 144.025 512.383 135.088L513.3 135.12Z"/><defs><linearGradient id="gradient_4" gradientUnits="userSpaceOnUse" x1="518.22791" y1="214.33905" x2="504.55145" y2="164.209"><stop offset="0" stop-color="#926A21"/><stop offset="1" stop-color="#CC9C35"/></linearGradient></defs><path fill="url(#gradient_4)" transform="matrix(0.706714 0 0 0.708955 -201.414 0)" d="M513.3 135.12C524.369 167.688 530.918 193.153 505.499 220.206L504.42 220.543C502.746 218.59 499.491 217.634 497.034 216.666C501.476 215.445 512.153 207.28 514.096 202.89C517.721 194.699 520.62 177.007 518.228 168.385C517.423 166.011 517.47 165.397 517.871 162.882C519.189 154.598 514.392 144.025 512.383 135.088L513.3 135.12Z"/><path fill="#BF8E35" transform="matrix(0.706714 0 0 0.708955 -201.414 0)" d="M415.209 217.146C418.298 219.008 419.47 220.527 421.925 223.124C420.538 223.674 417.454 224.985 416.166 225.324C413.448 225.747 410.727 226.15 408.003 226.532C403.056 227.22 390.768 228.833 386.732 225.782L386.844 223.889L385.881 222.875L382.106 225.199C377.287 224.308 372.381 225.655 367.663 226.8C364.186 227.662 361.928 228.345 358.557 229.484L356.328 228.838L355.809 228.887C354.41 228.32 351.71 226.799 350.262 226.034L350.385 225.715C354.947 224.038 360.291 221.901 365.074 221.505C371.032 219.904 381.567 220.284 385.451 218.186L386.277 217.714C393.501 220.93 409.798 224.585 415.209 217.146Z"/><path fill="#8F6021" transform="matrix(0.706714 0 0 0.708955 -201.414 0)" d="M350.385 225.715C354.947 224.038 360.291 221.901 365.074 221.505L363.221 223.513C364.506 224.678 365.686 224.582 367.664 225.027C364.816 225.869 358.674 227.496 356.328 228.838L355.809 228.887C354.41 228.32 351.71 226.799 350.262 226.034L350.385 225.715Z"/><path fill="#53350E" transform="matrix(0.706714 0 0 0.708955 -201.414 0)" d="M367.664 225.027C374.209 223.466 379.138 222.638 385.881 222.875L382.106 225.199C377.287 224.308 372.381 225.655 367.663 226.8C364.186 227.662 361.928 228.345 358.557 229.484L356.328 228.838C358.674 227.496 364.816 225.869 367.664 225.027Z"/><path fill="#AD7931" transform="matrix(0.706714 0 0 0.708955 -201.414 0)" d="M329.427 157.816C331.007 162.438 330.186 164.201 330.7 168.553C322.945 175.716 331.639 189.911 335.268 197.689C337.415 202.291 348.414 215.276 353.396 215.835C349.916 217.195 346.21 218.58 342.78 220.021C325.896 204.366 320.584 181.719 327.71 159.834L328.536 160.626L329.427 157.816Z"/><defs><linearGradient id="gradient_5" gradientUnits="userSpaceOnUse" x1="350.07077" y1="222.50577" x2="366.17981" y2="214.46227"><stop offset="0" stop-color="#9D6E21"/><stop offset="1" stop-color="#D2A02C"/></linearGradient></defs><path fill="url(#gradient_5)" transform="matrix(0.706714 0 0 0.708955 -201.414 0)" d="M373.709 212.736C378.918 212.798 380.902 212.76 386.049 213.962C383.16 216.135 372.611 216.28 368.075 217.111C371.64 217.035 384.142 216.11 386.277 217.714L385.451 218.186C381.567 220.284 371.032 219.904 365.074 221.505C360.291 221.901 354.947 224.038 350.385 225.715L348.522 224.805L348.406 224.427L343.939 221.081C341.849 222.491 338.18 224.715 335.875 225.506L336.533 224.67L335.832 225.471C337.514 223.152 340.317 221.641 342.78 220.021C346.21 218.58 349.916 217.195 353.396 215.835C359.645 213.908 367.14 213.386 373.709 212.736Z"/><path fill="#53350E" transform="matrix(0.706714 0 0 0.708955 -201.414 0)" d="M373.709 212.736C378.918 212.798 380.902 212.76 386.049 213.962C368.347 214.986 360.456 214.395 343.939 221.081C341.849 222.491 338.18 224.715 335.875 225.506L336.533 224.67L335.832 225.471C337.514 223.152 340.317 221.641 342.78 220.021C346.21 218.58 349.916 217.195 353.396 215.835C359.645 213.908 367.14 213.386 373.709 212.736Z"/><path fill="#53350E" transform="matrix(0.706714 0 0 0.708955 -201.414 0)" d="M348.522 224.805C360.206 219.337 372.696 217.668 385.451 218.186C381.567 220.284 371.032 219.904 365.074 221.505C360.291 221.901 354.947 224.038 350.385 225.715L348.522 224.805Z"/><path fill="#BF8E35" transform="matrix(0.706714 0 0 0.708955 -201.414 0)" d="M330.7 168.553C333.02 185.016 338.958 197.822 352.127 209.17C354.165 210.926 354.1 210.957 355.105 213.357C361.15 213.964 364.412 210.485 373.709 212.736C367.14 213.386 359.645 213.908 353.396 215.835C348.414 215.276 337.415 202.291 335.268 197.689C331.639 189.911 322.945 175.716 330.7 168.553Z"/><defs><linearGradient id="gradient_6" gradientUnits="userSpaceOnUse" x1="492.31039" y1="218.77827" x2="480.27432" y2="216.54878"><stop offset="0" stop-color="#B18125"/><stop offset="1" stop-color="#D19E2B"/></linearGradient></defs><path fill="url(#gradient_6)" transform="matrix(0.706714 0 0 0.708955 -201.414 0)" d="M462.16 213.654C469.299 212.73 473.153 212.721 480.368 212.863C485.012 214.496 490.434 214.12 497.034 216.666C499.491 217.634 502.746 218.59 504.42 220.543L504.452 221.294L503.757 221.303L499.401 224.781L498.638 225.535L497.956 225.685C489.855 223.013 482.668 221.118 474.157 220.206C471.074 219.876 465.96 219.66 463.501 218.137L461.821 217.888C464.142 215.409 474.794 217.479 479.492 216.918C475.711 216.362 464.645 215.594 462.461 214.912L462.16 213.654Z"/><path fill="#53350E" transform="matrix(0.706714 0 0 0.708955 -201.414 0)" d="M494.662 217.596C497.439 218.616 501.284 219.853 503.757 221.303L499.401 224.781L498.638 225.535L497.956 225.685C489.855 223.013 482.668 221.118 474.157 220.206C471.074 219.876 465.96 219.66 463.501 218.137C472.435 217.884 480.845 218.458 489.442 221.207L492.619 220.357C493.894 219.206 493.829 219.133 494.662 217.596Z"/><path fill="#AD7931" transform="matrix(0.706714 0 0 0.708955 -201.414 0)" d="M494.662 217.596C497.439 218.616 501.284 219.853 503.757 221.303L499.401 224.781L498.638 225.535C496.617 223.091 492.572 222.232 489.442 221.207L492.619 220.357C493.894 219.206 493.829 219.133 494.662 217.596Z"/><path fill="#53350E" transform="matrix(0.706714 0 0 0.708955 -201.414 0)" d="M462.16 213.654C469.299 212.73 473.153 212.721 480.368 212.863C485.012 214.496 490.434 214.12 497.034 216.666C499.491 217.634 502.746 218.59 504.42 220.543L504.452 221.294L503.757 221.303C501.284 219.853 497.439 218.616 494.662 217.596C482.034 214.371 474.277 215.587 462.16 213.654Z"/><path fill="#FCECA7" transform="matrix(0.706714 0 0 0.708955 -201.414 0)" d="M425.086 97.8799C447.426 94.4969 440.129 136.725 423.198 136.088C413.961 134.426 412.557 124.417 409.406 117.193C412.014 104.314 412.842 102.344 425.086 97.8799Z"/><defs><linearGradient id="gradient_7" gradientUnits="userSpaceOnUse" x1="465.74814" y1="146.48413" x2="457.94617" y2="183.77014"><stop offset="0" stop-color="#040404"/><stop offset="1" stop-color="#2E2D2E"/></linearGradient></defs><path fill="url(#gradient_7)" transform="matrix(0.706714 0 0 0.708955 -201.414 0)" d="M461.299 144.231C473.326 148.096 473.971 165.704 471.343 176.045C469.969 181.453 468.002 183.929 463.246 186.594C452.031 184.245 450.672 169.023 452.088 159.636C453.239 152.01 455.296 148.682 461.299 144.231Z"/><path fill="#3B3B3A" transform="matrix(0.706714 0 0 0.708955 -201.414 0)" d="M457.435 166.993L458.258 167.521C460.577 166.751 466.421 166.648 468.14 168.785C468.962 172.798 468.24 174.952 467.049 178.901C458.407 186.256 451.184 174.73 457.435 166.993Z"/><path fill="#CCC7C9" transform="matrix(0.706714 0 0 0.708955 -201.414 0)" d="M459.61 149.437C463.022 149.308 467.076 150.189 466.771 154.447L465.464 155.547C464.418 155.623 463.371 155.684 462.323 155.731C459.783 155.82 459.012 155.872 457.396 154.386C457.41 152.052 458.235 151.348 459.61 149.437Z"/><defs><linearGradient id="gradient_8" gradientUnits="userSpaceOnUse" x1="386.37299" y1="145.63158" x2="385.61841" y2="168.15109"><stop offset="0" stop-color="black"/><stop offset="1" stop-color="#262626"/></linearGradient></defs><path fill="url(#gradient_8)" transform="matrix(0.706714 0 0 0.708955 -201.414 0)" d="M375.922 160.107C380.477 138.057 394.305 142.24 396.136 161.594C397.759 192.717 373.639 195.757 375.922 160.107Z"/><path fill="#282625" transform="matrix(0.706714 0 0 0.708955 -201.414 0)" d="M375.922 160.107C376.504 162.185 376.363 162.153 377.803 163.71L379.205 162.946L379.58 163.229C379.101 165.856 378.109 169.542 378.778 171.965L379.491 171.917C380.676 166.66 386.556 164.224 391.008 168.887L392.002 172.399L392.789 171.944C392.983 169.464 393.011 169.229 392.698 166.785C393.152 167.045 394.032 167.614 394.478 167.719L395.333 166.412L394.238 167.289L395.326 166.524L396.136 161.594C397.759 192.717 373.639 195.757 375.922 160.107Z"/><path fill="#3B3B3A" transform="matrix(0.706714 0 0 0.708955 -201.414 0)" d="M383.974 169.274C390.371 171.767 391.255 174.888 387.691 180.682C386.074 181.035 385.315 180.464 383.735 179.811C380.716 176.426 381.763 172.746 383.974 169.274Z"/><path fill="#917C65" fill-opacity="0.9137255" transform="matrix(0.706714 0 0 0.708955 -201.414 0)" d="M355.809 228.887L356.328 228.838L358.557 229.484L358.28 229.884C350.3 232.805 343.331 237.246 336.857 242.739C335.053 244.269 332.551 247.441 330.81 248.238C332.025 242.579 350.905 231.552 355.809 228.887Z"/><path fill="#917C65" fill-opacity="0.87058824" transform="matrix(0.706714 0 0 0.708955 -201.414 0)" d="M348.406 224.427L348.522 224.805L350.385 225.715L350.262 226.034C344.91 228.401 331.574 236.921 328.611 237.81C335.675 231.672 342.323 229.434 348.406 224.427Z"/><path fill="#917C65" fill-opacity="0.89019608" transform="matrix(0.706714 0 0 0.708955 -201.414 0)" d="M493.438 229.328C500.303 233.388 507.781 237.496 513.575 242.954L512.98 244.337C506.237 238.94 500.67 235.158 493.107 231.014L493.438 229.328Z"/><path fill="#AA9375" fill-opacity="0.94509804" transform="matrix(0.706714 0 0 0.708955 -201.414 0)" d="M499.401 224.781C504.988 227.711 510.831 230.569 515.8 234.456L513.805 234.965C510.144 232.5 500.928 227.978 498.638 225.535L499.401 224.781Z"/><path fill="#AA9375" fill-opacity="0.94509804" transform="matrix(0.706714 0 0 0.708955 -201.414 0)" d="M504.42 220.543L505.499 220.206C510.466 222.834 512.408 224.714 516.558 228.59C511.868 226.175 508.877 224.229 504.452 221.294L504.42 220.543Z"/><path fill="#BEAD94" fill-opacity="0.81176472" transform="matrix(0.706714 0 0 0.708955 -201.414 0)" d="M512.98 244.337L513.575 242.954C515.458 244.929 517.423 246.588 518.371 249.076C516.438 248.457 514.466 245.92 512.98 244.337Z"/><path fill="#BEAD94" fill-opacity="0.83529413" transform="matrix(0.706714 0 0 0.708955 -201.414 0)" d="M515.8 234.456C518.512 236.997 519.921 238.471 522.384 241.267C519.329 239.151 516.691 237.344 513.805 234.965L515.8 234.456Z"/></g></svg>