<?xml version="1.0" encoding="utf-8" ?><svg xmlns="http://www.w3.org/2000/svg" xmlns:xlink="http://www.w3.org/1999/xlink" width="200" height="198" viewBox="0 0 200 198"><clipPath id="cl_22"><rect x="6.1035156e-05" y="6.1035156e-05" width="200" height="197.99994"/></clipPath><g clip-path="url(#cl_22)"><defs><linearGradient id="gradient_0" gradientUnits="userSpaceOnUse" x1="945.62811" y1="1256.6495" x2="926.13879" y2="1029.6693"><stop offset="0" stop-color="#DD9D3D"/><stop offset="1" stop-color="#FDC94F"/></linearGradient></defs><path fill="url(#gradient_0)" transform="matrix(0.706714 0 0 0.707143 -744.876 -713.507)" d="M820.899 1159.9C818.787 1144.25 818.997 1129.27 822.812 1113.87C829.826 1085.55 850.89 1057.41 875.979 1042.57C903.133 1026.77 935.423 1022.32 965.838 1030.19C987.259 1035.78 1016.3 1051.7 1027.66 1071.04C1046.14 1092.4 1054.4 1123.28 1052.47 1151.08C1050.22 1183.5 1033.69 1210.98 1010.16 1232.73C990.285 1250.71 953.227 1261.02 926.832 1258.18C894.281 1254.66 867.692 1242.65 847.146 1216.8C831.182 1196.72 825.342 1185.08 820.899 1159.9Z"/><defs><linearGradient id="gradient_1" gradientUnits="userSpaceOnUse" x1="1193.2911" y1="1237.2616" x2="1188.1504" y2="1033.8572"><stop offset="0" stop-color="#9C7E51"/><stop offset="1" stop-color="#C2A26E"/></linearGradient></defs><path fill="url(#gradient_1)" transform="matrix(0.706714 0 0 0.707143 -744.876 -713.507)" d="M1116.47 1071.73C1157.94 1026.83 1207.13 1018.14 1254.86 1059.11C1259.47 1063.07 1263.4 1067.96 1267.84 1072.1C1271.09 1071.63 1275.31 1071.41 1278.58 1071.9C1326.47 1079.17 1322.68 1127.55 1299.9 1158.79L1299.08 1159.84C1299.03 1166.92 1300.25 1176.28 1299.61 1183.05C1298.01 1199.91 1288.37 1219.53 1276.36 1231.36C1263.35 1244.18 1249.42 1246.33 1232.41 1249.06C1229.48 1249.69 1225.03 1250.5 1222.52 1251.59C1209.77 1257.16 1196.21 1266.37 1181.52 1260.8C1169.13 1256.1 1166.43 1251.94 1152.36 1249.14C1147.65 1248.42 1142.99 1247.54 1138.31 1246.79C1107.45 1241.86 1088.75 1213 1084.61 1183.85C1083.94 1175.11 1085.43 1166.94 1084.9 1159.89C1068.27 1134.15 1055.76 1098.79 1086.57 1077.93C1097.9 1072.59 1104.24 1071.69 1116.47 1071.73Z"/><path fill="#DAC4A5" transform="matrix(0.706714 0 0 0.707143 -744.876 -713.507)" d="M1105.13 1162.95C1103.87 1158.74 1105.27 1148.5 1106.29 1144.19C1108.98 1133.8 1115.25 1123.26 1124.44 1117.3C1139.58 1107.5 1160.22 1110.46 1175.24 1118.89C1180.57 1121.89 1185.55 1130.13 1192.17 1131.64C1197.9 1128.31 1202.24 1123.83 1207.49 1120.28C1227.44 1106.82 1256.96 1106.74 1270.78 1128.88C1277.37 1139.44 1281.28 1151.5 1278.69 1163.86C1269.33 1197.49 1242.52 1190.09 1236.61 1203.46C1237.48 1215.93 1238.12 1223.84 1237.8 1236.36L1237.57 1239.34C1237.07 1244.37 1234.84 1245.17 1232.41 1249.06C1229.48 1249.69 1225.03 1250.5 1222.52 1251.59C1209.77 1257.16 1196.21 1266.37 1181.52 1260.8C1169.13 1256.1 1166.43 1251.94 1152.36 1249.14L1151.75 1248.54C1147.49 1244.27 1145.98 1242.13 1146 1236.06C1147.22 1228.45 1145.01 1218.97 1147.54 1207.52C1146.95 1195.08 1134.98 1196.31 1125.61 1190.21C1113.42 1182.25 1108.72 1177.33 1105.13 1162.95Z"/><path fill="#020202" transform="matrix(0.706714 0 0 0.707143 -744.876 -713.507)" d="M1137.92 1146.58C1155.88 1117.8 1174.44 1156.57 1156.18 1178.96L1155.75 1179.48C1135.84 1184.65 1135.59 1159.45 1137.92 1146.58Z"/><defs><linearGradient id="gradient_2" gradientUnits="userSpaceOnUse" x1="1152.3933" y1="1153.5114" x2="1150.7024" y2="1163.5992"><stop offset="0" stop-color="#191819"/><stop offset="1" stop-color="#3E3E3E"/></linearGradient></defs><path fill="url(#gradient_2)" transform="matrix(0.706714 0 0 0.707143 -744.876 -713.507)" d="M1142.55 1164.9C1142.03 1159.97 1142.12 1161 1143.88 1156.94C1147.52 1148.55 1158.84 1148.71 1159.32 1158.85C1159.44 1161.39 1158.37 1165.28 1157.73 1167.92C1154.64 1179.94 1143.77 1178.3 1142.55 1164.9Z"/><path fill="#494949" transform="matrix(0.706714 0 0 0.707143 -744.876 -713.507)" d="M1142.55 1164.9C1146.2 1166.78 1146.16 1166.63 1149.63 1164.44C1151.3 1164.42 1155.48 1166.92 1157.73 1167.92C1154.64 1179.94 1143.77 1178.3 1142.55 1164.9Z"/><path fill="#1C1C1D" transform="matrix(0.706714 0 0 0.707143 -744.876 -713.507)" d="M1149.44 1152.95L1150.71 1152.84C1154.03 1152.6 1154.14 1152.94 1156.31 1154.79C1155.16 1154.35 1150.93 1153.36 1149.44 1152.95Z"/><path fill="#BFBFBE" transform="matrix(0.706714 0 0 0.707143 -744.876 -713.507)" d="M1148.15 1140.62C1151.63 1140.56 1158.24 1142.71 1155.89 1146.94L1153.73 1147.21C1150.66 1147.36 1146.13 1148.31 1144.46 1145.45C1145.11 1143.01 1146.18 1142.42 1148.15 1140.62Z"/><defs><linearGradient id="gradient_3" gradientUnits="userSpaceOnUse" x1="1232.0275" y1="1137.9276" x2="1235.6089" y2="1178.5176"><stop offset="0" stop-color="#010101"/><stop offset="1" stop-color="#313133"/></linearGradient></defs><path fill="url(#gradient_3)" transform="matrix(0.706714 0 0 0.707143 -744.876 -713.507)" d="M1227.78 1178.23C1221.65 1174.34 1220.08 1162.42 1220.45 1155.57C1220.85 1147.93 1224.56 1135.28 1234.39 1136.62C1239.71 1137.35 1242.32 1141.91 1245.13 1145.94C1248.51 1154.65 1249.03 1167.84 1241.91 1174.87C1237.8 1180.74 1235.43 1181.09 1228.59 1179.76L1227.78 1178.23Z"/><path fill="#1C1C1D" transform="matrix(0.706714 0 0 0.707143 -744.876 -713.507)" d="M1227.78 1178.23C1229.48 1178.26 1231.62 1178.83 1234.31 1178.88L1234.42 1178.38L1231.18 1176.63C1235.06 1177.31 1237.36 1175.5 1241.91 1174.87C1237.8 1180.74 1235.43 1181.09 1228.59 1179.76L1227.78 1178.23Z"/><path fill="#BFBFBE" transform="matrix(0.706714 0 0 0.707143 -744.876 -713.507)" d="M1231.29 1140.56C1234.81 1140.56 1240.96 1142.74 1238.8 1146.99L1236.85 1147.24L1233.82 1147.32C1231.1 1147.39 1228.51 1148.01 1227.44 1145.14C1228.17 1142.89 1229.48 1142.12 1231.29 1140.56Z"/><path fill="#F6E5C3" transform="matrix(0.706714 0 0 0.707143 -744.876 -713.507)" d="M1245.13 1145.94L1245.94 1145.38C1248.93 1149.5 1246.99 1155.36 1250.16 1159.4C1254.19 1164.52 1260.18 1160.26 1263.09 1168.15C1264.84 1172.88 1262.69 1180.43 1264.69 1184.19C1271.31 1182.94 1277.76 1165.93 1278.02 1159.4L1278.51 1159.44L1278.69 1163.86C1269.33 1197.49 1242.52 1190.09 1236.61 1203.46L1236.13 1202.7C1236.76 1199.22 1237.27 1199.73 1239.61 1196.69C1238.73 1193.2 1234.99 1185.41 1233.37 1181.79C1231.22 1181.37 1229.85 1180.89 1227.76 1180.2L1228.59 1179.76C1235.43 1181.09 1237.8 1180.74 1241.91 1174.87C1249.03 1167.84 1248.51 1154.65 1245.13 1145.94Z"/><path fill="#F6E5C3" transform="matrix(0.706714 0 0 0.707143 -744.876 -713.507)" d="M1122.12 1165.7C1142.55 1156.13 1130.53 1170.7 1136.89 1146.85L1137.92 1146.58C1135.59 1159.45 1135.84 1184.65 1155.75 1179.48L1156.2 1180.01C1153.85 1181.17 1153.9 1181.1 1151.27 1181.44C1146.97 1185.18 1148.68 1191.15 1142.52 1194.68C1141.91 1195.03 1141.92 1195.37 1141.59 1196.16C1146.7 1197.05 1150.09 1203.85 1147.54 1207.52C1146.95 1195.08 1134.98 1196.31 1125.61 1190.21C1113.42 1182.25 1108.72 1177.33 1105.13 1162.95C1105.31 1162.08 1105.16 1162.63 1105.77 1161.37C1106.28 1166.49 1111.78 1178.24 1116.03 1181.39C1118.67 1180.09 1119.18 1171.97 1121.66 1166.66L1122.12 1165.7Z"/><path fill="#957B6A" transform="matrix(0.706714 0 0 0.707143 -744.876 -713.507)" d="M1146 1236.06C1147.08 1238.45 1146.97 1239.5 1149.48 1240.24C1154.74 1241.77 1158.06 1241.13 1162.6 1244.56C1163.35 1246.42 1163.14 1245.65 1162.83 1247.87C1159.32 1248.84 1160.19 1246.28 1158.95 1248.37C1164.84 1252.44 1184.2 1261.43 1191.94 1260.8C1189.45 1258.98 1187.62 1260.07 1184.63 1258.67C1186.23 1257.88 1188.14 1257.12 1189.32 1255.86C1188.26 1254.54 1187.97 1254.85 1185.94 1254.3C1189.63 1253.96 1196.64 1252.83 1199.76 1254.57C1200.12 1257.11 1196.96 1259.13 1195.09 1260.74L1195.11 1260.81C1199.37 1261.12 1221.78 1251.22 1224.42 1248.37C1222.96 1248.16 1222.89 1248.21 1221.42 1248.37C1220.89 1247.1 1220.86 1246.86 1220.59 1245.49C1223.3 1244.83 1224.38 1244.55 1226.36 1242.34C1228.84 1239.55 1234.08 1240.13 1237.57 1239.34C1237.07 1244.37 1234.84 1245.17 1232.41 1249.06C1229.48 1249.69 1225.03 1250.5 1222.52 1251.59C1209.77 1257.16 1196.21 1266.37 1181.52 1260.8C1169.13 1256.1 1166.43 1251.94 1152.36 1249.14L1151.75 1248.54C1147.49 1244.27 1145.98 1242.13 1146 1236.06Z"/><path fill="#5C2D19" transform="matrix(0.706714 0 0 0.707143 -744.876 -713.507)" d="M1169.45 1224.16C1166.95 1221.57 1161.09 1216.6 1162.73 1213.06C1164.73 1212.09 1174.17 1212.92 1177.07 1213.16C1191.44 1214.31 1205.59 1212.7 1219.92 1212.88C1221.11 1212.9 1220.75 1213 1221.55 1213.92C1221.54 1217.69 1217.49 1221.11 1214.87 1223.88C1200.74 1237.56 1183.54 1238.22 1169.45 1224.16Z"/><path fill="#020202" transform="matrix(0.706714 0 0 0.707143 -744.876 -713.507)" d="M1169.45 1224.16C1166.95 1221.57 1161.09 1216.6 1162.73 1213.06C1164.73 1212.09 1174.17 1212.92 1177.07 1213.16C1191.44 1214.31 1205.59 1212.7 1219.92 1212.88C1221.11 1212.9 1220.75 1213 1221.55 1213.92C1221.54 1217.69 1217.49 1221.11 1214.87 1223.88C1211.54 1220.37 1209.21 1219.23 1204 1219.49C1194.1 1219.98 1183.45 1219.28 1173.82 1219.52C1172.39 1221.03 1170.82 1222.61 1169.45 1224.16Z"/><path fill="#F6E5C3" transform="matrix(0.706714 0 0 0.707143 -744.876 -713.507)" d="M1183.27 1148.52C1187.55 1148.21 1198.9 1147.64 1202.5 1149.14C1198.71 1150.49 1197.44 1147.78 1194.24 1149.12C1198.82 1155.87 1203.03 1164.22 1198.52 1172.2C1193.86 1174.01 1195.43 1175.32 1191.87 1176.63C1186.69 1175.6 1184.82 1170.62 1184.16 1165.85C1183.19 1158.88 1184.76 1154.97 1188.5 1149.62C1186.1 1149.64 1184.91 1149.59 1182.54 1149.33L1183.27 1148.52Z"/><path fill="#6C3D13" transform="matrix(0.706714 0 0 0.707143 -744.876 -713.507)" d="M1181.76 1182.95C1183.09 1183.4 1184.13 1183.85 1185.24 1184.73C1186.66 1185.87 1188.01 1187.55 1188.05 1189.47C1188.11 1192.24 1186.94 1193.51 1185.08 1195.28C1183.99 1194.93 1182.92 1194.61 1181.95 1194.01C1180.27 1192.97 1178.85 1191.4 1178.63 1189.35C1178.33 1186.55 1180 1184.81 1181.76 1182.95Z"/><path fill="#926226" transform="matrix(0.706714 0 0 0.707143 -744.876 -713.507)" d="M1196.26 1188.17C1197.77 1185.28 1198.48 1184.14 1201.84 1183.73C1204.62 1185.16 1203.69 1184.55 1205.61 1187.36C1205.35 1192.85 1200.65 1197.64 1196.35 1192.45C1196.06 1190.58 1195.8 1190 1196.26 1188.17Z"/><path fill="#5C2D19" transform="matrix(0.706714 0 0 0.707143 -744.876 -713.507)" d="M1196.26 1188.17C1197.77 1185.28 1198.48 1184.14 1201.84 1183.73C1204.62 1185.16 1203.69 1184.55 1205.61 1187.36C1202.88 1188.62 1200.43 1188.41 1197.36 1188.92L1196.26 1188.17Z"/><path fill="#BDA077" transform="matrix(0.706714 0 0 0.707143 -744.876 -713.507)" d="M1173.19 1173.65C1173.67 1173.92 1174.2 1174.48 1174.62 1174.84C1174.48 1175.74 1174.31 1176.43 1173.72 1177.15C1172.77 1178.32 1171.72 1179.41 1170.79 1180.6C1167.57 1184.73 1169.27 1193.6 1169.85 1198.56C1167.85 1196.68 1166.42 1194.49 1165.97 1191.75C1164.83 1185 1169.6 1178.86 1173.19 1173.65Z"/><path fill="#BDA077" transform="matrix(0.706714 0 0 0.707143 -744.876 -713.507)" d="M1212.75 1177.1C1215.58 1179.45 1217.4 1183.17 1217.87 1186.8C1218.46 1191.43 1217.37 1194.64 1214.5 1198.2L1214.05 1197.26C1217.59 1186.55 1211.61 1183.17 1212.75 1177.1Z"/><path fill="#926226" transform="matrix(0.706714 0 0 0.707143 -744.876 -713.507)" d="M1086.57 1077.93C1097.9 1072.59 1104.24 1071.69 1116.47 1071.73L1117.11 1072.84L1116.69 1073.55C1113.86 1078.28 1106.13 1088.83 1105.53 1094.25L1107.56 1091.16C1107.97 1095.28 1104.75 1103.04 1104.45 1107.57C1104.13 1112.36 1106.58 1119.84 1105.22 1124.1C1102.99 1131.11 1097.69 1136.8 1094.66 1143.86C1092.86 1148.05 1092.91 1154.05 1091.63 1156.6C1091.23 1154.79 1091.28 1153.35 1091.24 1151.51C1083.83 1153.8 1084.84 1175.73 1085.82 1182.11L1084.61 1183.85C1083.94 1175.11 1085.43 1166.94 1084.9 1159.89C1068.27 1134.15 1055.76 1098.79 1086.57 1077.93Z"/><path fill="#BDA077" transform="matrix(0.706714 0 0 0.707143 -744.876 -713.507)" d="M1086.57 1077.93C1097.9 1072.59 1104.24 1071.69 1116.47 1071.73L1117.11 1072.84L1116.23 1073.56C1113.88 1075.52 1111.09 1079.75 1106.94 1079.28C1104.92 1079.06 1099.97 1079.53 1098.58 1079.27C1095.6 1080.36 1090.57 1082.04 1088.11 1083.89C1068.66 1098.51 1078.95 1133.14 1087.61 1151.03C1086.76 1153.58 1085.36 1157.35 1084.9 1159.89C1068.27 1134.15 1055.76 1098.79 1086.57 1077.93Z"/><path fill="#E9AFB2" transform="matrix(0.706714 0 0 0.707143 -744.876 -713.507)" d="M1081.71 1108.65L1080.46 1108.57L1079.67 1107.35C1080 1103.75 1080.83 1100.36 1082.42 1097.08C1085.61 1090.47 1091.41 1085.49 1098.43 1083.32C1101.18 1082.48 1106.01 1081.72 1108.63 1083.09C1107.04 1085.07 1107.16 1084.53 1104.32 1085.53L1106.25 1086.01C1106.72 1088.79 1101.35 1098.65 1101.28 1104.15C1101.13 1115.11 1096.73 1136.23 1090.44 1145.49L1089.02 1146.16C1083.03 1142.62 1081.25 1115.63 1081.71 1108.65Z"/><path fill="#5C2D19" transform="matrix(0.706714 0 0 0.707143 -744.876 -713.507)" d="M1081.71 1108.65L1080.46 1108.57L1079.67 1107.35C1080 1103.75 1080.83 1100.36 1082.42 1097.08C1085.61 1090.47 1091.41 1085.49 1098.43 1083.32C1101.18 1082.48 1106.01 1081.72 1108.63 1083.09C1107.04 1085.07 1107.16 1084.53 1104.32 1085.53C1090.77 1089.24 1084.5 1094.29 1081.71 1108.65Z"/><path fill="#E9AFB2" transform="matrix(0.706714 0 0 0.707143 -744.876 -713.507)" d="M1267.84 1072.1C1271.09 1071.63 1275.31 1071.41 1278.58 1071.9C1326.47 1079.17 1322.68 1127.55 1299.9 1158.79C1298.4 1156.24 1297.03 1153.43 1295.67 1150.79C1295.07 1149.55 1294.81 1148.15 1294.45 1146.78L1291.63 1141.34L1291.17 1141.59C1289.28 1139.98 1289.02 1136.99 1287.28 1134.48C1285.8 1134.72 1286.55 1134.63 1285.01 1134.74C1281.52 1131.73 1282.87 1131.03 1281.01 1128.08C1273.01 1115.46 1285.71 1100.66 1276.32 1087.56C1273.23 1083.24 1271.84 1078.52 1267.66 1074.89L1267.59 1073.77L1267.84 1072.1Z"/><path fill="#BDA077" transform="matrix(0.706714 0 0 0.707143 -744.876 -713.507)" d="M1267.84 1072.1C1271.09 1071.63 1275.31 1071.41 1278.58 1071.9C1326.47 1079.17 1322.68 1127.55 1299.9 1158.79C1298.4 1156.24 1297.03 1153.43 1295.67 1150.79C1301.38 1141.88 1304.56 1130.99 1305.63 1120.52C1311.91 1097.76 1299.95 1075.88 1273.6 1079.56C1271.61 1077.61 1269.61 1075.68 1267.59 1073.77L1267.84 1072.1Z"/><path fill="#926226" transform="matrix(0.706714 0 0 0.707143 -744.876 -713.507)" d="M1267.59 1073.77C1269.61 1075.68 1271.61 1077.61 1273.6 1079.56C1299.95 1075.88 1311.91 1097.76 1305.63 1120.52C1305.61 1111.23 1305.47 1104.34 1301.3 1095.86L1298.95 1097.87C1292.58 1090.41 1289.19 1088.23 1280.12 1085.47L1277.92 1085.76C1277.09 1087.74 1280.75 1095.19 1281.3 1097.78C1284.68 1113.57 1283.18 1120.86 1289.64 1136.56L1291.63 1141.34L1291.17 1141.59C1289.28 1139.98 1289.02 1136.99 1287.28 1134.48C1285.8 1134.72 1286.55 1134.63 1285.01 1134.74C1281.52 1131.73 1282.87 1131.03 1281.01 1128.08C1273.01 1115.46 1285.71 1100.66 1276.32 1087.56C1273.23 1083.24 1271.84 1078.52 1267.66 1074.89L1267.59 1073.77Z"/><path fill="#5C2D19" transform="matrix(0.706714 0 0 0.707143 -744.876 -713.507)" d="M1280.12 1085.47C1277.27 1084.8 1277.32 1085.28 1275.55 1083.54C1276.42 1082.39 1276.4 1082.44 1278.05 1082.38C1287.58 1082.06 1296.54 1087.94 1301.3 1095.86L1298.95 1097.87C1292.58 1090.41 1289.19 1088.23 1280.12 1085.47Z"/><path fill="#6C3D13" transform="matrix(0.706714 0 0 0.707143 -744.876 -713.507)" d="M1301.3 1095.86C1305.47 1104.34 1305.61 1111.23 1305.63 1120.52C1304.56 1130.99 1301.38 1141.88 1295.67 1150.79C1295.07 1149.55 1294.81 1148.15 1294.45 1146.78C1303 1130.29 1305.85 1115.61 1298.95 1097.87L1301.3 1095.86Z"/><path fill="#926226" transform="matrix(0.706714 0 0 0.707143 -744.876 -713.507)" d="M1237.8 1236.36C1253.02 1237.35 1270.38 1225.47 1280.6 1215.11C1300.63 1194.82 1298.61 1188.05 1297.93 1160.83L1299.08 1159.84C1299.03 1166.92 1300.25 1176.28 1299.61 1183.05C1298.01 1199.91 1288.37 1219.53 1276.36 1231.36C1263.35 1244.18 1249.42 1246.33 1232.41 1249.06C1234.84 1245.17 1237.07 1244.37 1237.57 1239.34L1237.8 1236.36Z"/><defs><linearGradient id="gradient_4" gradientUnits="userSpaceOnUse" x1="1112.8615" y1="1238.7039" x2="1122.7703" y2="1201.5767"><stop offset="0" stop-color="#765934"/><stop offset="1" stop-color="#997B4B"/></linearGradient></defs><path fill="url(#gradient_4)" transform="matrix(0.706714 0 0 0.707143 -744.876 -713.507)" d="M1085.82 1182.11C1087.68 1191 1086.2 1190.09 1091.04 1199.49C1100.18 1217.24 1114.88 1229.7 1134.53 1234.2C1137.47 1234.86 1143.24 1236.99 1146 1236.06C1145.98 1242.13 1147.49 1244.27 1151.75 1248.54L1152.36 1249.14C1147.65 1248.42 1142.99 1247.54 1138.31 1246.79C1107.45 1241.86 1088.75 1213 1084.61 1183.85L1085.82 1182.11Z"/></g></svg>