<?xml version="1.0" encoding="utf-8" ?><svg xmlns="http://www.w3.org/2000/svg" xmlns:xlink="http://www.w3.org/1999/xlink" width="200" height="216" viewBox="0 0 200 216"><clipPath id="cl_1a"><rect x="-5.7220459e-06" y="6.1035156e-05" width="199.99998" height="216"/></clipPath><g clip-path="url(#cl_1a)"><defs><linearGradient id="gradient_0" gradientUnits="userSpaceOnUse" x1="402.88849" y1="370.33444" x2="427.53647" y2="518.02814"><stop offset="0" stop-color="#6C955C"/><stop offset="1" stop-color="#7BB95C"/></linearGradient></defs><path fill="url(#gradient_0)" transform="matrix(0.738007 0 0 0.739726 -22.8782 -240.411)" d="M323.132 450.862C313.159 422.049 338.973 367.478 375.319 376.547C386.257 379.276 389.065 382.862 397.336 389.53C400.325 390.54 404.239 391.736 407.078 392.93C418.047 396.383 427.785 397.234 439.013 393.665L450.848 389.386C461.202 380.794 468.965 374.607 483.74 376.018C511.375 378.659 525.245 410.299 526.048 434.789C526.191 439.146 525.571 444.037 525.085 448.413L524.744 451.401C534.488 471.709 550.871 466.8 549.591 501.596C547.316 518.62 541.241 530.201 527.527 541.2C526.945 541.667 525.369 542.886 524.715 543.215C508.642 560.23 471.494 571.709 448.705 573.617C403.333 577.414 358.015 572.406 321.719 542.416C308.916 534.707 301.575 517.894 298.894 503.838C297.976 495.506 297.784 492.362 299.848 484.322C304.895 468.576 314.276 466.116 323.132 450.862Z"/><defs><linearGradient id="gradient_1" gradientUnits="userSpaceOnUse" x1="421.2547" y1="486.87119" x2="431.30267" y2="555.27338"><stop offset="0" stop-color="#8BB261"/><stop offset="1" stop-color="#BAD778"/></linearGradient></defs><path fill="url(#gradient_1)" transform="matrix(0.738007 0 0 0.739726 -22.8782 -240.411)" d="M529.327 501.248C535.919 501.237 543.185 500.785 549.591 501.596C547.316 518.62 541.241 530.201 527.527 541.2C526.945 541.667 525.369 542.886 524.715 543.215C508.642 560.23 471.494 571.709 448.705 573.617C403.333 577.414 358.015 572.406 321.719 542.416C308.916 534.707 301.575 517.894 298.894 503.838C307.084 505.015 318.118 508.257 324.777 504.361C342.168 515.895 350.487 519.64 370.393 526.017C375.992 527.179 381.153 528.198 386.796 529.095C411.671 532.82 436.964 532.801 461.833 529.039C466.199 528.345 470.542 527.51 474.854 526.535C489.89 522.777 508.75 515.538 520.806 505.721C523.375 504.114 526.585 502.623 529.327 501.248Z"/><path fill="#8EAD7C" transform="matrix(0.738007 0 0 0.739726 -22.8782 -240.411)" d="M299.848 484.322L299.917 485.05C300.324 489.867 298.614 496.211 300.905 498.849L302.121 499.273C307.047 501.01 307.187 501.021 311.346 504.265C315.439 504.233 320.108 504.307 324.146 504.126L324.777 504.361C318.118 508.257 307.084 505.015 298.894 503.838C297.976 495.506 297.784 492.362 299.848 484.322Z"/><path fill="#CDC8CD" transform="matrix(0.738007 0 0 0.739726 -22.8782 -240.411)" d="M181.218 387.605C183.976 380.218 189.632 372.676 195.508 367.469C206.471 357.838 220.822 352.977 235.381 353.965C250.371 354.866 261.698 361.142 271.587 372.189C288.964 385.269 290.945 422.655 276.529 438.475C267.361 448.537 260.43 456.223 247.514 461.297C249.178 465.168 256.337 470.123 259.017 473.755C266.903 484.444 268.447 499.959 265.603 512.671C261.665 530.561 249.7 535.971 235.23 544.166L232.664 545.5C231.421 546.087 227.62 547.773 226.669 548.482L225.963 548.986L222.113 550.198L216.307 553.241C202.996 561.82 192.358 576.479 176.681 581.511C150.948 589.771 135.976 561.985 116.67 552.388C113.955 551.035 111.215 549.731 108.453 548.476C105.952 546.706 103.418 545.87 100.573 544.716L96.9551 545.857L95.8439 545.055L97.6954 544.247C97.5669 540.648 58.3055 531.046 70.3093 485.187C73.3511 474.611 80.3092 469.142 87.9157 461.451C81.4803 457.987 76.6472 455.471 71.3066 450.481C70.6916 450.034 70.0815 449.58 69.4764 449.12C59.0451 441.177 52.1666 429.44 50.334 416.456C48.5044 402.84 51.5586 387.402 59.9754 376.344C63.6357 370.455 71.9034 363.778 77.9868 360.615C98.7704 349.807 122.165 351.832 140.384 365.966C151.424 377.002 153.933 382.083 158.957 396.972C164.452 396.04 171.62 396.104 177.111 397.029C178.844 395.888 180.187 390.285 181.218 387.605Z"/><defs><linearGradient id="gradient_2" gradientUnits="userSpaceOnUse" x1="197.62593" y1="388.60944" x2="282.91528" y2="422.94464"><stop offset="0" stop-color="#968D8E"/><stop offset="1" stop-color="#C1BFC7"/></linearGradient></defs><path fill="url(#gradient_2)" transform="matrix(0.738007 0 0 0.739726 -22.8782 -240.411)" d="M181.218 387.605C183.976 380.218 189.632 372.676 195.508 367.469C206.471 357.838 220.822 352.977 235.381 353.965C250.371 354.866 261.698 361.142 271.587 372.189C288.964 385.269 290.945 422.655 276.529 438.475C267.361 448.537 260.43 456.223 247.514 461.297L245.268 461.971L243.149 460.145L243.438 462.207L242.8 462.196L240.448 459.415C239.973 460.792 240.056 460.266 240.176 461.714C242.052 463.971 242.849 464.207 242.774 466.543C240.98 466.977 240.229 467.721 238.735 467.032C234.796 460.857 233.902 448.171 232.532 440.287L232.833 440.672C229.833 431.024 221.295 421.839 213.536 415.633C211.728 411.382 198.527 403.835 193.917 400.518L192.793 399.403C181.878 396.707 184.797 397.026 181.218 387.605Z"/><path fill="#CDC8CD" transform="matrix(0.738007 0 0 0.739726 -22.8782 -240.411)" d="M181.218 387.605C183.976 380.218 189.632 372.676 195.508 367.469C206.471 357.838 220.822 352.977 235.381 353.965C250.371 354.866 261.698 361.142 271.587 372.189C267.401 371.422 260.324 363.358 255.406 360.667C251.071 358.295 232.051 360.226 230.409 363.855C236.821 364.984 249.388 361.22 253.974 365.762L253.759 366.753C245.906 367.451 238.644 363.172 226.452 365.55C205.563 370.599 199.334 380.106 192.793 399.403C181.878 396.707 184.797 397.026 181.218 387.605Z"/><path fill="#7E7777" transform="matrix(0.738007 0 0 0.739726 -22.8782 -240.411)" d="M192.793 399.403C199.334 380.106 205.563 370.599 226.452 365.55L231.22 366.002C220.368 368.995 217.149 367.531 207.326 375.91C206.622 377.825 205.656 380.548 204.66 382.29C201.939 387.05 193.38 394.179 194.546 400.177L193.917 400.518L192.793 399.403Z"/><defs><linearGradient id="gradient_3" gradientUnits="userSpaceOnUse" x1="127.14491" y1="373.71698" x2="55.139767" y2="431.66043"><stop offset="0" stop-color="#958D8D"/><stop offset="1" stop-color="#C3C1C9"/></linearGradient></defs><path fill="url(#gradient_3)" transform="matrix(0.738007 0 0 0.739726 -22.8782 -240.411)" d="M59.9754 376.344C63.6357 370.455 71.9034 363.778 77.9868 360.615C98.7704 349.807 122.165 351.832 140.384 365.966C151.424 377.002 153.933 382.083 158.957 396.972C153.445 399.006 146.181 401.12 141.258 402.932C138.007 404.128 131.899 409.818 126.711 411.886L124.167 413.668C118.003 412.081 107.83 426.85 104.034 431.104C97.5671 438.35 93.3929 454.851 83.8778 457.628C82.7147 457.967 74.8817 450.677 71.3066 450.481C70.6916 450.034 70.0815 449.58 69.4764 449.12C59.0451 441.177 52.1666 429.44 50.334 416.456C48.5044 402.84 51.5586 387.402 59.9754 376.344Z"/><path fill="#CDC8CD" transform="matrix(0.738007 0 0 0.739726 -22.8782 -240.411)" d="M59.9754 376.344C63.6357 370.455 71.9034 363.778 77.9868 360.615C98.7704 349.807 122.165 351.832 140.384 365.966C151.424 377.002 153.933 382.083 158.957 396.972C153.445 399.006 146.181 401.12 141.258 402.932C138.007 404.128 131.899 409.818 126.711 411.886C130.526 407.228 139.258 404.085 142.699 399.528L142.13 396.802C139.849 388.292 134.768 379.39 127.832 373.815C119.584 367.187 107.022 363.316 96.5312 365.357C91.6627 366.304 86.1164 368.507 81.3268 368.935L81.8019 368.315C83.9001 367.825 88.0958 367.102 89.1329 365.507C79.7708 365.084 69.417 370.478 62.0973 375.979L61.3079 376.58L59.9754 376.344Z"/><path fill="#BEBCBC" transform="matrix(0.738007 0 0 0.739726 -22.8782 -240.411)" d="M140.384 365.966C151.424 377.002 153.933 382.083 158.957 396.972C153.445 399.006 146.181 401.12 141.258 402.932C138.007 404.128 131.899 409.818 126.711 411.886C130.526 407.228 139.258 404.085 142.699 399.528L142.13 396.802C143.869 398.372 146.914 399.172 148.418 397.326C156.573 387.316 144.288 373.238 137.949 366.646L138.314 365.872L140.384 365.966Z"/><path fill="#7E7777" transform="matrix(0.738007 0 0 0.739726 -22.8782 -240.411)" d="M150.432 550.272C158.458 545.212 178.109 544.685 185.822 550.177C193.317 551.805 204.061 552.296 212.38 553.641L212.806 552.45C215.252 552.037 214.113 551.833 216.307 553.241C202.996 561.82 192.358 576.479 176.681 581.511C150.948 589.771 135.976 561.985 116.67 552.388C118.87 551.909 118.871 551.778 121.131 552.382C125.099 554.878 144.775 551.597 150.047 550.621L150.432 550.272Z"/><path fill="#F5C0A7" transform="matrix(0.738007 0 0 0.739726 -22.8782 -240.411)" d="M150.432 550.272C158.458 545.212 178.109 544.685 185.822 550.177C186.263 566.443 160.922 563.671 151.622 558.575L150.619 555.781L150.859 555.068L150.818 551.826L150.432 550.272Z"/><path fill="#D28B70" transform="matrix(0.738007 0 0 0.739726 -22.8782 -240.411)" d="M150.432 550.272C158.458 545.212 178.109 544.685 185.822 550.177C186.263 566.443 160.922 563.671 151.622 558.575L150.619 555.781L150.859 555.068C156.338 556.818 181.887 558.33 184.258 552.758C181.403 546.936 166.745 547.853 161.148 548.213C156.697 548.5 154.414 549.279 150.818 551.826L150.432 550.272Z"/><path fill="#64443E" transform="matrix(0.738007 0 0 0.739726 -22.8782 -240.411)" d="M151.622 558.575C157.313 568.681 176.332 569.171 183.827 559.525L184.438 558.725C188.359 571.696 153.198 583.489 149.83 555.554L150.619 555.781L151.622 558.575Z"/><defs><linearGradient id="gradient_4" gradientUnits="userSpaceOnUse" x1="248.55501" y1="537.97382" x2="236.05853" y2="494.17688"><stop offset="0" stop-color="#686467"/><stop offset="1" stop-color="#9B9499"/></linearGradient></defs><path fill="url(#gradient_4)" transform="matrix(0.738007 0 0 0.739726 -22.8782 -240.411)" d="M245.268 461.971L247.514 461.297C249.178 465.168 256.337 470.123 259.017 473.755C266.903 484.444 268.447 499.959 265.603 512.671C261.665 530.561 249.7 535.971 235.23 544.166L232.664 545.5C231.069 545.199 231.329 545.111 229.827 544.212L229.804 543.614C226.157 540.878 212.944 541.618 207.388 539.375L207.251 538.599C218.506 530.646 235.951 527.17 247.741 519.288C252.179 516.321 253.001 511.219 258.467 509.666C264.674 479.971 268.696 485.321 245.268 461.971Z"/><defs><linearGradient id="gradient_5" gradientUnits="userSpaceOnUse" x1="87.857498" y1="540.11066" x2="98.274185" y2="494.13953"><stop offset="0" stop-color="#716C70"/><stop offset="1" stop-color="#9C959A"/></linearGradient></defs><path fill="url(#gradient_5)" transform="matrix(0.738007 0 0 0.739726 -22.8782 -240.411)" d="M70.3093 485.187L71.1407 485.529C71.7276 489.213 72.1548 498.139 74.1994 499.805C74.9415 503.45 74.96 504.165 74.7696 507.89C77.4399 512.954 83.4375 520.402 87.8035 523.568C90.7995 525.74 98.1374 522.109 101.131 527.418C104.088 527.733 106.434 527.315 109.109 528.794C112.775 530.821 125.542 535.046 127.645 537.756C126.402 538.955 125.984 538.852 124.26 539.327L126.948 539.503L127.033 540.063C123.292 540.819 116.662 541.366 112.897 540.97C108.922 541.706 104.138 542.766 100.573 544.716L96.9551 545.857L95.8439 545.055L97.6954 544.247C97.5669 540.648 58.3055 531.046 70.3093 485.187Z"/><path fill="#9C9695" transform="matrix(0.738007 0 0 0.739726 -22.8782 -240.411)" d="M74.1994 499.805C74.9415 503.45 74.96 504.165 74.7696 507.89L74.1262 508.065L73.3632 507.384C72.5006 504.366 72.432 503.963 72.7133 500.843L74.1994 499.805Z"/><path fill="#9C9695" transform="matrix(0.738007 0 0 0.739726 -22.8782 -240.411)" d="M71.3066 450.481C74.8817 450.677 82.7147 457.967 83.8778 457.628C93.3929 454.851 97.5671 438.35 104.034 431.104C107.83 426.85 118.003 412.081 124.167 413.668C108.145 427.699 106.267 429.107 99.2121 451.99C98.4177 454.567 96.5604 463.017 95.388 464.975L94.9329 463.841C93.2155 465.472 91.5998 467.626 89.6526 467.874C89.0298 465.985 89.0342 465.708 88.8145 463.706C83.1263 464.951 73.2251 480.085 71.1407 485.529L70.3093 485.187C73.3511 474.611 80.3092 469.142 87.9157 461.451C81.4803 457.987 76.6472 455.471 71.3066 450.481Z"/><path fill="#9C9695" transform="matrix(0.738007 0 0 0.739726 -22.8782 -240.411)" d="M108.453 548.476C110.407 547.839 111.699 547.102 113.542 547.802C116.116 549.249 119.168 547.682 122.97 547.931C128.092 545.79 145.661 546.425 150.047 550.621C144.775 551.597 125.099 554.878 121.131 552.382C118.871 551.778 118.87 551.909 116.67 552.388C113.955 551.035 111.215 549.731 108.453 548.476Z"/><path fill="#605E5F" transform="matrix(0.738007 0 0 0.739726 -22.8782 -240.411)" d="M108.453 548.476C110.407 547.839 111.699 547.102 113.542 547.802C116.116 549.249 119.168 547.682 122.97 547.931C128.685 548.874 133.549 547.24 140.238 548.463C133.925 549.778 127.458 551.209 121.131 552.382C118.871 551.778 118.87 551.909 116.67 552.388C113.955 551.035 111.215 549.731 108.453 548.476Z"/><defs><linearGradient id="gradient_6" gradientUnits="userSpaceOnUse" x1="217.36002" y1="537.6015" x2="208.3009" y2="551.00281"><stop offset="0" stop-color="#6A6167"/><stop offset="1" stop-color="#848182"/></linearGradient></defs><path fill="url(#gradient_6)" transform="matrix(0.738007 0 0 0.739726 -22.8782 -240.411)" d="M221.732 549.517C216.761 544.732 198.03 546.92 194.169 543.009C201.847 540.638 221.863 541.206 229.827 544.212C231.329 545.111 231.069 545.199 232.664 545.5C231.421 546.087 227.62 547.773 226.669 548.482L225.963 548.986L222.113 550.198L221.732 549.517Z"/><defs><linearGradient id="gradient_7" gradientUnits="userSpaceOnUse" x1="117.38" y1="540.60083" x2="117.99422" y2="545.55463"><stop offset="0" stop-color="#908F8E"/><stop offset="1" stop-color="#69646A"/></linearGradient></defs><path fill="url(#gradient_7)" transform="matrix(0.738007 0 0 0.739726 -22.8782 -240.411)" d="M100.573 544.716C104.138 542.766 108.922 541.706 112.897 540.97L112.36 542.112L112.774 542.46C118.957 541.535 125.293 540.788 131.496 541.72L135.262 542.271C131.157 545.57 125.688 544.264 123.646 545.986C120.614 546.566 116.517 547.486 113.542 547.802C111.699 547.102 110.407 547.839 108.453 548.476C105.952 546.706 103.418 545.87 100.573 544.716Z"/><path fill="#ACA8A9" transform="matrix(0.738007 0 0 0.739726 -22.8782 -240.411)" d="M177.111 397.029C178.844 395.888 180.187 390.285 181.218 387.605C184.797 397.026 181.878 396.707 192.793 399.403L193.917 400.518C198.527 403.835 211.728 411.382 213.536 415.633C210.807 414.897 199.245 404.587 195.231 403.24C192.022 402.162 178.775 399.115 177.111 397.029Z"/><path fill="#605E5F" transform="matrix(0.738007 0 0 0.739726 -22.8782 -240.411)" d="M214.232 548.189C216.78 548.196 219.318 548.708 221.732 549.517L222.113 550.198L216.307 553.241C214.113 551.833 215.252 552.037 212.806 552.45C208.293 551.78 202.692 550.441 198.137 549.477L198.246 548.833C200.594 547.951 210.388 548.394 214.232 548.189Z"/><path fill="#7E7777" transform="matrix(0.738007 0 0 0.739726 -22.8782 -240.411)" d="M188.477 547.672C195.245 547.375 208.281 546.472 214.232 548.189C210.388 548.394 200.594 547.951 198.246 548.833L198.137 549.477C194.818 549.467 191.606 548.664 188.477 547.672Z"/><path fill="#7E7777" transform="matrix(0.738007 0 0 0.739726 -22.8782 -240.411)" d="M135.262 542.271C137.622 541.977 137.671 541.803 139.885 542.85C137.526 544.823 126.661 547.114 123.646 545.986C125.688 544.264 131.157 545.57 135.262 542.271Z"/><path fill="#E4E4E4" transform="matrix(0.738007 0 0 0.739726 -22.8782 -240.411)" d="M165.554 416.338C171.778 414.13 186.682 419.693 192.214 422.994C202.774 429.295 207.71 435.086 210.89 446.973C206.471 462.51 195.773 467.945 182.581 475.637C178.855 477.809 175.046 480.571 170.926 481.862C157.767 479.857 124.585 462.657 125.2 446.678C125.864 429.456 150.082 416.389 165.554 416.338Z"/><defs><linearGradient id="gradient_8" gradientUnits="userSpaceOnUse" x1="194.99614" y1="481.46564" x2="189.70639" y2="519.06366"><stop offset="0" stop-color="black"/><stop offset="1" stop-color="#212124"/></linearGradient></defs><path fill="url(#gradient_8)" transform="matrix(0.738007 0 0 0.739726 -22.8782 -240.411)" d="M181.647 505.161C181.631 497.761 181.165 488.76 186.899 483.116C191.71 478.471 196.877 480.062 200.092 485.571C204.406 492.962 204.398 501.629 202.799 509.9C201.771 515.213 197.044 522.395 190.519 520.807C187.667 520.113 185.199 516.78 183.831 514.21C182.426 511.383 182.024 508.234 181.647 505.161Z"/><path fill="#343331" transform="matrix(0.738007 0 0 0.739726 -22.8782 -240.411)" d="M181.647 505.161C184.812 503.678 189.494 494.272 194.879 497.265C204.326 502.515 200.382 526.434 185.043 512.573C184.005 513.626 184.381 513.061 183.831 514.21C182.426 511.383 182.024 508.234 181.647 505.161Z"/><path fill="#E4E4E4" transform="matrix(0.738007 0 0 0.739726 -22.8782 -240.411)" d="M190.57 484.917C191.854 485.032 193.041 485.236 194.215 485.816C195.719 486.572 196.871 487.883 197.426 489.473L196.778 490.717L194.73 491.19C191.647 491.404 188.26 492.397 186.7 489.407C187.45 487.086 188.655 486.464 190.57 484.917Z"/><defs><linearGradient id="gradient_9" gradientUnits="userSpaceOnUse" x1="143.01221" y1="481.75131" x2="142.2339" y2="518.09906"><stop offset="0" stop-color="black"/><stop offset="1" stop-color="#232325"/></linearGradient></defs><path fill="url(#gradient_9)" transform="matrix(0.738007 0 0 0.739726 -22.8782 -240.411)" d="M138.046 519.17C131.776 512.072 129.411 495.66 134.158 488.65C150.224 464.93 159.897 501.304 150.755 516.028C147.431 521.459 143.58 522.212 138.046 519.17Z"/><path fill="#272524" transform="matrix(0.738007 0 0 0.739726 -22.8782 -240.411)" d="M138.046 519.17C140.776 518.171 143.49 518.372 145.666 516.35L143.519 515.715C125.386 510.408 139.718 489.869 149.201 499.122C152.476 502.318 150.682 511.561 150.755 516.028C147.431 521.459 143.58 522.212 138.046 519.17Z"/><path fill="#9C9695" fill-opacity="0.75294119" transform="matrix(0.738007 0 0 0.739726 -22.8782 -240.411)" d="M217.678 553.822C236.426 554.674 262.377 576.377 275.929 588.042C269.794 586.473 259.034 574.643 252.735 570.691C245.055 565.833 236.866 561.342 228.538 557.7C225.001 556.153 220.969 555.666 217.678 553.822Z"/><path fill="#9C9695" fill-opacity="0.8392157" transform="matrix(0.738007 0 0 0.739726 -22.8782 -240.411)" d="M225.963 548.986L226.669 548.482C231.505 549.561 241.218 552.748 245.45 554.915C251.67 558.101 276.221 573.914 278.58 579.437C268.313 571.535 256.843 562.406 245.349 556.509C238.987 553.246 232.21 551.712 225.963 548.986Z"/><path fill="#ACA8A9" fill-opacity="0.57647061" transform="matrix(0.738007 0 0 0.739726 -22.8782 -240.411)" d="M107.115 549.011L107.685 549.86C91.4714 553.926 68.6205 568.987 56.5493 580.505L55.9652 579.967C65.2933 569.196 92.5079 551.817 107.115 549.011Z"/><path fill="#9C9695" fill-opacity="0.82352942" transform="matrix(0.738007 0 0 0.739726 -22.8782 -240.411)" d="M235.23 544.166C250.499 547.055 266.103 555.533 277.033 566.637C269.693 563.172 264.491 557.27 256.954 553C252.475 550.463 237.164 545.851 235.23 544.166Z"/><path fill="#BEBCBC" fill-opacity="0.36470589" transform="matrix(0.738007 0 0 0.739726 -22.8782 -240.411)" d="M69.7615 581.159C71.8418 577.152 85.4807 567.888 89.9453 566.538C89.6215 567.245 70.6182 581.007 69.7615 581.159Z"/><path fill="#ACA8A9" fill-opacity="0.48627451" transform="matrix(0.738007 0 0 0.739726 -22.8782 -240.411)" d="M75.775 555.009C73.2895 556.77 63.1225 564.422 61.1946 565.009C63.0046 561.761 71.2302 556.62 74.7643 554.373L75.775 555.009Z"/><path fill="#ACA8A9" fill-opacity="0.76862746" transform="matrix(0.738007 0 0 0.739726 -22.8782 -240.411)" d="M102.644 558.877C106.919 556.918 112.079 554.151 116.713 554.27L117.261 554.798C112.859 556.01 106.844 557.547 102.927 559.873L102.644 558.877Z"/><path fill="#BEBCBC" fill-opacity="0.3882353" transform="matrix(0.738007 0 0 0.739726 -22.8782 -240.411)" d="M98.3301 561.29L99.5008 561.933C97.0669 563.28 92.2846 566.32 89.9453 566.538L90.1087 565.999C92.4319 564 95.5421 562.68 98.3301 561.29Z"/><path fill="#9C9695" fill-opacity="0.6156863" transform="matrix(0.738007 0 0 0.739726 -22.8782 -240.411)" d="M84.5831 549.221C87.6024 547.81 92.6563 545.832 95.8439 545.055L96.9551 545.857C92.3815 547.077 89.5503 548.269 85.1494 550.086L84.5831 549.221Z"/><path fill="#7E7777" fill-opacity="0.75686276" transform="matrix(0.738007 0 0 0.739726 -22.8782 -240.411)" d="M84.5831 549.221L85.1494 550.086L75.775 555.009L74.7643 554.373C77.9355 552.46 81.2681 550.877 84.5831 549.221Z"/><path fill="#9C9695" fill-opacity="0.61960787" transform="matrix(0.738007 0 0 0.739726 -22.8782 -240.411)" d="M98.3301 561.29L102.644 558.877L102.927 559.873L99.5008 561.933L98.3301 561.29Z"/></g></svg>