<?xml version="1.0" encoding="utf-8" ?><svg xmlns="http://www.w3.org/2000/svg" xmlns:xlink="http://www.w3.org/1999/xlink" width="200" height="207" viewBox="0 0 200 207"><clipPath id="cl_1f"><rect y="0.00024414062" width="200" height="207"/></clipPath><g clip-path="url(#cl_1f)"><path fill="#E3E2E3" transform="matrix(0.740741 0 0 0.741935 -400 0.000244141)" d="M918.034 45.4963C930.577 41.1872 953.352 43.5579 965.486 49.2106L968.374 49.5486C996.724 35.352 1040.29 90.6115 1049.84 112.402C1055.71 125.788 1062.91 142.762 1057.79 157.874C1053.95 169.316 1045.34 170.87 1034.7 170.369C1036.14 195.214 1028.28 213.759 1005.71 226.181C995.473 231.815 986.753 232.45 975.268 233.177C967.032 234.126 962.361 235.119 954.765 238.756L954.629 239.876C954.49 245.464 954.497 249.666 949.995 253.619C942.01 260.631 926.594 260.25 919.435 252.189C916.604 249.002 915.821 244.894 915.83 240.789L915.685 238.851C909.339 234.935 903.219 234.193 895.98 232.932C877.5 231.933 865.553 230.082 851.359 216.306C837.024 202.394 835.976 188.962 835.729 170.343C768.628 173.386 853.358 30.0939 902.132 49.3813C904.22 49.2725 915.214 46.2116 918.034 45.4963Z"/><defs><linearGradient id="gradient_0" gradientUnits="userSpaceOnUse" x1="875.42957" y1="122.37727" x2="836.54724" y2="87.377335"><stop offset="0" stop-color="#7E4E18"/><stop offset="1" stop-color="#B1782E"/></linearGradient></defs><path fill="url(#gradient_0)" transform="matrix(0.740741 0 0 0.741935 -400 0.000244141)" d="M835.729 170.343C768.628 173.386 853.358 30.0939 902.132 49.3813C894.611 53.7285 883.344 59.7927 878.448 66.9831C867.035 81.1332 862.337 91.5801 862.193 109.956C862.177 112.121 862.167 122.86 861.846 124.427C847.135 140.083 839.3 148.001 835.729 170.343Z"/><path fill="#E65646" transform="matrix(0.740741 0 0 0.741935 -400 0.000244141)" d="M592.825 172.425C589.501 163.513 592.778 114.333 593.493 102.326C594.948 80.2981 593.615 56.8301 597.316 35.0189C601.099 12.7235 611.081 4.57742 633.119 8.19466C639.48 9.33366 644.924 10.2786 651.317 10.9693C653.901 11.2484 666.041 12.2455 667.31 12.6241C674.523 12.7457 680.934 12.8143 688.136 12.5759C699.635 12.1952 717.312 6.50635 726.59 14.9511C734.304 21.2651 736.857 25.3772 739.285 35.1727L740.429 39.3811C741.966 46.5441 743.619 53.6817 745.386 60.7912C746.347 64.7114 747.779 69.9141 748.491 73.7771C750.325 83.8495 749.998 97.6095 747.529 107.557C746.567 114.361 745.547 119.866 746.362 126.798C748.415 125.829 751.413 124.853 753.616 124.055C759.903 120.722 769.286 121.089 776.128 121.782C783.604 124.586 789.05 126.552 792.59 134.476C795.774 141.604 794.867 149.923 792.165 157.013C788.069 167.76 772.617 176.903 761.144 176.507C756.762 177.328 750.683 177.469 746.283 176.929C743.21 183.823 739.774 189.904 737.57 197.099C736.777 202.032 736.053 207.969 733.333 212.214L733.383 212.617C724.607 229.308 722.612 257.045 701.841 259.717C683.669 262.055 669.732 254.23 653.918 246.896C649.606 244.895 640.291 247 635.937 241.82C619.927 228.582 595.31 192.583 592.825 172.425Z"/><defs><linearGradient id="gradient_1" gradientUnits="userSpaceOnUse" x1="727.96814" y1="229.88977" x2="589.77698" y2="193.36542"><stop offset="0" stop-color="#873121"/><stop offset="1" stop-color="#C54438"/></linearGradient></defs><path fill="url(#gradient_1)" transform="matrix(0.740741 0 0 0.741935 -400 0.000244141)" d="M753.616 124.055C759.903 120.722 769.286 121.089 776.128 121.782C783.604 124.586 789.05 126.552 792.59 134.476C795.774 141.604 794.867 149.923 792.165 157.013C788.069 167.76 772.617 176.903 761.144 176.507C756.762 177.328 750.683 177.469 746.283 176.929C743.21 183.823 739.774 189.904 737.57 197.099C736.777 202.032 736.053 207.969 733.333 212.214L733.383 212.617C724.607 229.308 722.612 257.045 701.841 259.717C683.669 262.055 669.732 254.23 653.918 246.896C649.606 244.895 640.291 247 635.937 241.82C619.927 228.582 595.31 192.583 592.825 172.425C593.676 173.408 593.869 174.149 594.979 175.252C601.475 174.408 606.975 169.412 617.391 168.604C617.498 166.376 617.423 164.163 618.172 162.095C619.917 162.153 620.62 163.399 622.328 164.907C627.672 166.276 630.444 164.967 635.672 165.542C636.088 166.105 636.505 166.668 636.922 167.231C641.989 168.277 646.576 171.552 652.522 167.335C653.732 165.224 653.795 166.096 653.4 164.429L650.735 164.815L650.257 164.162C653.285 158.656 673.587 156.98 679.702 158.457C685.496 159.857 689.736 162.842 696.077 162.256C706.432 161.298 722.39 150.057 732.418 152.352C731.219 152.987 731.306 152.894 730.237 153.736L731.707 153.965L732.801 153.207C742.467 153.146 736.255 144.238 738.114 138.853C738.548 137.597 738.54 137.808 738.433 136.506C736.286 134.823 735.285 135.149 732.328 134.7C738.034 133.414 742.524 131.427 746.362 126.798C748.415 125.829 751.413 124.853 753.616 124.055Z"/><defs><linearGradient id="gradient_2" gradientUnits="userSpaceOnUse" x1="783.84259" y1="166.41069" x2="753.59778" y2="141.97295"><stop offset="0" stop-color="#812820"/><stop offset="1" stop-color="#B44432"/></linearGradient></defs><path fill="url(#gradient_2)" transform="matrix(0.740741 0 0 0.741935 -400 0.000244141)" d="M753.616 124.055C759.903 120.722 769.286 121.089 776.128 121.782C783.604 124.586 789.05 126.552 792.59 134.476C795.774 141.604 794.867 149.923 792.165 157.013C788.069 167.76 772.617 176.903 761.144 176.507C756.96 175.408 751.566 176.034 745.692 174.672C747.291 172.991 755.41 172.534 757.925 172.803L758.243 171.375C757.713 170.431 733.871 154.792 731.707 153.965L732.801 153.207C742.467 153.146 736.255 144.238 738.114 138.853C738.548 137.597 738.54 137.808 738.433 136.506C736.286 134.823 735.285 135.149 732.328 134.7C738.034 133.414 742.524 131.427 746.362 126.798C748.415 125.829 751.413 124.853 753.616 124.055Z"/><path fill="#EA5F53" transform="matrix(0.740741 0 0 0.741935 -400 0.000244141)" d="M753.616 124.055C759.903 120.722 769.286 121.089 776.128 121.782C776.361 123.467 776.761 123.808 775.342 125.448C768.852 132.951 767.048 131.305 765.285 141.553C756.826 144.495 751.613 152.766 744.45 152.578C727.688 143.416 748.846 131.292 753.616 124.055Z"/><path fill="#9B3125" transform="matrix(0.740741 0 0 0.741935 -400 0.000244141)" d="M636.922 167.231C641.989 168.277 646.576 171.552 652.522 167.335C653.732 165.224 653.795 166.096 653.4 164.429L650.735 164.815L650.257 164.162C653.285 158.656 673.587 156.98 679.702 158.457C685.496 159.857 689.736 162.842 696.077 162.256C706.432 161.298 722.39 150.057 732.418 152.352C731.219 152.987 731.306 152.894 730.237 153.736L731.707 153.965C733.871 154.792 757.713 170.431 758.243 171.375L757.925 172.803C755.41 172.534 747.291 172.991 745.692 174.672C751.566 176.034 756.96 175.408 761.144 176.507C756.762 177.328 750.683 177.469 746.283 176.929C743.686 176.866 743.565 176.666 741.289 178.041C732.321 173.311 722.418 178.136 713.727 180.329C710.905 179.626 705.416 180.22 702.388 180.508C687.96 183.9 670.666 186.278 656.644 177.583C654.136 176.028 650.764 171.229 648.659 171.033C642.65 171.69 641.069 171.765 636.922 167.231Z"/><path fill="#480F0A" transform="matrix(0.740741 0 0 0.741935 -400 0.000244141)" d="M702.388 180.508C702.955 179.142 703.681 175.578 703.938 175.2C709.671 166.782 743.825 173.266 747.868 171.706C747.435 170.622 747.016 170.114 746.336 169.171C749.174 170.423 754.768 171.888 757.925 172.803C755.41 172.534 747.291 172.991 745.692 174.672C751.566 176.034 756.96 175.408 761.144 176.507C756.762 177.328 750.683 177.469 746.283 176.929C743.686 176.866 743.565 176.666 741.289 178.041C732.321 173.311 722.418 178.136 713.727 180.329C710.905 179.626 705.416 180.22 702.388 180.508Z"/><path fill="#1C0F08" transform="matrix(0.740741 0 0 0.741935 -400 0.000244141)" d="M617.391 168.604C617.498 166.376 617.423 164.163 618.172 162.095C619.917 162.153 620.62 163.399 622.328 164.907C627.672 166.276 630.444 164.967 635.672 165.542C636.088 166.105 636.505 166.668 636.922 167.231C641.069 171.765 642.65 171.69 648.659 171.033C650.764 171.229 654.136 176.028 656.644 177.583C670.666 186.278 687.96 183.9 702.388 180.508C705.416 180.22 710.905 179.626 713.727 180.329C722.418 178.136 732.321 173.311 741.289 178.041C743.565 176.666 743.686 176.866 746.283 176.929C743.21 183.823 739.774 189.904 737.57 197.099C726.849 195.996 721.279 185.354 706.967 184.832C679.017 183.814 648.36 213.258 622.589 191.45C616.705 186.471 617.238 175.641 617.391 168.604Z"/><path fill="#9B3125" transform="matrix(0.740741 0 0 0.741935 -400 0.000244141)" d="M713.727 180.329C722.418 178.136 732.321 173.311 741.289 178.041C732.907 181.986 722.208 185.913 713.727 180.329Z"/><path fill="#756E70" transform="matrix(0.740741 0 0 0.741935 -400 0.000244141)" d="M622.328 164.907C627.672 166.276 630.444 164.967 635.672 165.542C636.088 166.105 636.505 166.668 636.922 167.231C633.924 174.218 636.239 172.263 635.829 177.722C630.392 171.749 626.286 172.11 622.328 164.907Z"/><path fill="#444242" transform="matrix(0.740741 0 0 0.741935 -400 0.000244141)" d="M635.829 177.722C636.239 172.263 633.924 174.218 636.922 167.231C641.069 171.765 642.65 171.69 648.659 171.033C646.157 172.702 639.391 177.469 636.998 178.27L635.829 177.722Z"/><path fill="#BFAE93" transform="matrix(0.740741 0 0 0.741935 -400 0.000244141)" d="M655.015 212.365C660.164 202.156 687.692 194.574 698.85 193.909C710.647 193.206 717.389 195.903 725.917 203.721C727.676 207.319 727.802 207.856 728.294 211.838C724.22 209.606 718.425 207.294 714.032 205.421C708.337 204.448 705.148 204.083 699.417 204.02C689.964 204.48 670.98 211.965 660.097 214.27L656.766 213.783L655.015 212.365Z"/><defs><linearGradient id="gradient_3" gradientUnits="userSpaceOnUse" x1="697.73859" y1="216.24083" x2="666.19794" y2="199.1203"><stop offset="0" stop-color="#B1B2AA"/><stop offset="1" stop-color="#DFDEE6"/></linearGradient></defs><path fill="url(#gradient_3)" transform="matrix(0.740741 0 0 0.741935 -400 0.000244141)" d="M656.766 213.783C660.95 210.774 666.69 209.259 671.459 207.285C686.548 201.041 695.979 199.436 711.793 203.47C712.932 204.341 713.077 204.374 714.032 205.421C708.337 204.448 705.148 204.083 699.417 204.02C689.964 204.48 670.98 211.965 660.097 214.27L656.766 213.783Z"/><path fill="#756E70" transform="matrix(0.740741 0 0 0.741935 -400 0.000244141)" d="M655.015 212.365C670.577 205.977 694.922 188.966 711.793 203.47C695.979 199.436 686.548 201.041 671.459 207.285C666.69 209.259 660.95 210.774 656.766 213.783L655.015 212.365Z"/><path fill="#E65646" transform="matrix(0.740741 0 0 0.741935 -400 0.000244141)" d="M660.097 214.27C670.98 211.965 689.964 204.48 699.417 204.02C696.664 207.516 685.205 209.592 680.65 211.615C677.038 213.219 671.417 214.463 667.474 215.234C665.03 215.595 662.303 215.43 660.097 214.27Z"/><path fill="#B04035" transform="matrix(0.740741 0 0 0.741935 -400 0.000244141)" d="M725.917 203.721C728.173 203.484 728.814 203.205 730.759 204.366C732.88 207.692 731.541 209.152 733.333 212.214L733.383 212.617C730.721 212.615 730.763 212.693 728.294 211.838C727.802 207.856 727.676 207.319 725.917 203.721Z"/><path fill="#B04035" transform="matrix(0.740741 0 0 0.741935 -400 0.000244141)" d="M633.119 8.19466C639.48 9.33366 644.924 10.2786 651.317 10.9693C653.901 11.2484 666.041 12.2455 667.31 12.6241C674.523 12.7457 680.934 12.8143 688.136 12.5759C699.635 12.1952 717.312 6.50635 726.59 14.9511C734.304 21.2651 736.857 25.3772 739.285 35.1727L740.429 39.3811C741.966 46.5441 743.619 53.6817 745.386 60.7912C746.347 64.7114 747.779 69.9141 748.491 73.7771C750.325 83.8495 749.998 97.6095 747.529 107.557C746.567 114.361 745.547 119.866 746.362 126.798C742.524 131.427 738.034 133.414 732.328 134.7C727.685 136.582 721.755 136.634 716.803 136.199C721.513 135.259 726.255 135.149 730.452 133.196C720.22 133.392 719.682 130.436 704.984 132.446C707.855 131.144 707.694 131.674 709.049 129.384L708.261 128.246C704.699 126.793 701.522 126.753 697.68 126.383C697.842 120.175 700.004 110.892 689.607 112.375C682.433 105.757 675.651 98.327 667.698 92.3107C663.47 89.1127 662.196 87.6411 656.843 88.1734L655.727 87.8021L655.115 86.5136C646.599 83.3683 643.082 76.6745 632.044 79.6235L631.38 76.9372L633.203 73.8223L632.954 73.223C634.346 70.952 634.499 70.9122 636.754 69.3805C638.758 69.6808 647.233 72.1307 647.853 71.9981C646.615 70.3662 646.395 70.7756 646.516 69.4668C648.228 70.5469 648.523 70.7839 650.543 70.8993C644.22 66.4939 639.755 62.3123 635.194 56.1736C630.076 50.7774 620.229 40.1107 623.67 31.7609C626.781 31.4285 643.681 41.3617 648.548 43.2074C648.686 42.9476 648.616 43.1689 648.553 42.2292C645.354 40.4867 642.58 39.0863 639.295 37.526C640.233 34.1156 644.457 29.1059 646.755 20.9786C644.295 18.3765 642.728 16.7493 639.938 14.3995L640.913 14.2017L640.07 14.2195L640.809 13.8564C642.286 14.2244 643.751 14.5032 645.258 14.7146C642.463 11.9439 637.255 11.903 633.119 8.19466Z"/><path fill="#1E1D1C" transform="matrix(0.740741 0 0 0.741935 -400 0.000244141)" d="M635.194 56.1736C630.076 50.7774 620.229 40.1107 623.67 31.7609C626.781 31.4285 643.681 41.3617 648.548 43.2074C648.815 43.3782 649.079 43.5537 649.349 43.7199C653.334 46.1739 658.745 46.3759 662.8 48.7645C666.34 50.8492 693.178 77.0411 694.28 80.2438C694.776 81.6843 694.513 83.2437 693.978 84.6184C693.384 86.8817 691.257 90.609 689.001 91.4126C681.172 94.2 675.301 82.9301 669.79 79.9747C663.256 76.4704 656.962 74.1613 650.543 70.8993C644.22 66.4939 639.755 62.3123 635.194 56.1736Z"/><path fill="#1C0F08" transform="matrix(0.740741 0 0 0.741935 -400 0.000244141)" d="M626.733 44.0885C631.313 46.0852 638.992 52.4406 641.358 52.4813C647.375 56.7923 651.01 59.4195 657.88 62.116C661.655 65.2803 667.081 66.8397 671.023 70.0558C673.232 71.8584 677.815 80.8323 679.88 81.2669C686.234 82.6044 686.596 81.8551 692.181 86.017L693.189 84.4356L693.978 84.6184C693.384 86.8817 691.257 90.609 689.001 91.4126C681.172 94.2 675.301 82.9301 669.79 79.9747C663.256 76.4704 656.962 74.1613 650.543 70.8993C644.22 66.4939 639.755 62.3123 635.194 56.1736C633.945 51.9574 629.775 48.2621 626.733 44.0885Z"/><path fill="#756E70" transform="matrix(0.740741 0 0 0.741935 -400 0.000244141)" d="M641.358 52.4813C639.61 50.5327 635.539 47.7934 634.798 45.9785L635 44.8497C639.377 48.3454 656.55 59.5372 657.88 62.116C651.01 59.4195 647.375 56.7923 641.358 52.4813Z"/><path fill="#1C0F08" transform="matrix(0.740741 0 0 0.741935 -400 0.000244141)" d="M748.491 73.7771C750.325 83.8495 749.998 97.6095 747.529 107.557L744.113 108.725C742.333 115.043 739.799 120.114 733.754 123.26L732.829 122.094C719.742 126.473 711.581 119.933 715.342 106.207C718.038 101.531 720.217 99.0557 725.327 97.4435L725.058 96.8768C729.21 91.3357 731.503 89.2194 736.824 84.9282C739.605 80.2237 743.486 76.0619 748.491 73.7771Z"/><path fill="#C34C40" transform="matrix(0.740741 0 0 0.741935 -400 0.000244141)" d="M748.491 73.7771C750.325 83.8495 749.998 97.6095 747.529 107.557L744.113 108.725C744.516 98.5343 742.699 92.9827 736.824 84.9282C739.605 80.2237 743.486 76.0619 748.491 73.7771Z"/><path fill="#98918E" transform="matrix(0.740741 0 0 0.741935 -400 0.000244141)" d="M736.824 84.9282C742.699 92.9827 744.516 98.5343 744.113 108.725C742.333 115.043 739.799 120.114 733.754 123.26L732.829 122.094L734.136 121.309C737.635 118.802 738.307 117.373 739.908 113.384C740.844 101.846 737.16 96.8586 725.327 97.4435L725.058 96.8768C729.21 91.3357 731.503 89.2194 736.824 84.9282Z"/><path fill="#040403" transform="matrix(0.740741 0 0 0.741935 -400 0.000244141)" d="M734.136 121.309C730.409 119.313 727.803 118.797 727.063 114.304C729.086 107.636 737.286 109.182 739.908 113.384C738.307 117.373 737.635 118.802 734.136 121.309Z"/><defs><linearGradient id="gradient_4" gradientUnits="userSpaceOnUse" x1="735.79199" y1="74.664497" x2="718.70044" y2="57.523621"><stop offset="0" stop-color="#1D1006"/><stop offset="1" stop-color="#2B2628"/></linearGradient></defs><path fill="url(#gradient_4)" transform="matrix(0.740741 0 0 0.741935 -400 0.000244141)" d="M740.429 39.3811C741.966 46.5441 743.619 53.6817 745.386 60.7912C741.218 75.2271 739.605 73.4582 727.376 81.525C725.495 82.7658 723.661 89.5174 720.451 91.0778C714.113 94.1591 712.534 88.416 708.778 86.5778L708.276 83.4022L706.935 79.6858C709.239 75.445 713.813 70.9457 715.612 67.6348C723.748 52.6594 719.246 52.3542 734.862 44.3923L737.094 42.2679C738.553 41.4282 739.212 40.5767 740.429 39.3811Z"/><path fill="#756E70" transform="matrix(0.740741 0 0 0.741935 -400 0.000244141)" d="M706.935 79.6858C709.538 79.7634 711.936 79.4703 713.896 81.0497L714.294 82.3223C712.21 84.4279 710.94 84.1996 708.276 83.4022L706.935 79.6858Z"/><path fill="#9B3125" transform="matrix(0.740741 0 0 0.741935 -400 0.000244141)" d="M745.386 60.7912C746.347 64.7114 747.779 69.9141 748.491 73.7771C743.486 76.0619 739.605 80.2237 736.824 84.9282C731.503 89.2194 729.21 91.3357 725.058 96.8768L725.327 97.4435C720.217 99.0557 718.038 101.531 715.342 106.207C711.581 119.933 719.742 126.473 732.829 122.094L733.754 123.26C739.799 120.114 742.333 115.043 744.113 108.725L747.529 107.557C746.567 114.361 745.547 119.866 746.362 126.798C742.524 131.427 738.034 133.414 732.328 134.7C727.685 136.582 721.755 136.634 716.803 136.199C721.513 135.259 726.255 135.149 730.452 133.196C734.542 131.541 741.715 129.341 744.606 126.089C744.623 122.091 744.632 118.693 744.355 114.695L743.686 115.047L744.428 115.08C740.217 116.993 741.962 130.482 732.8 131.187C730.978 130.347 730.619 129.214 729.567 127.428L729.131 126.676C724.676 126.723 720.628 130.342 717.429 129.384C713.184 128.111 705.892 119.903 707.728 115.004C712.469 102.355 725.862 93.4541 735.468 84.4773C738.95 81.2233 739.934 76.4034 744.86 74.2161C747.296 73.0867 746.417 68.0747 745.443 66.1624L745.03 66.4118C741.977 76.8703 736.426 75.9419 729.117 82.2044C725.219 85.5447 721.123 95.7791 714.03 92.9243C711.958 92.0902 709.626 88.5992 708.778 86.5778C712.534 88.416 714.113 94.1591 720.451 91.0778C723.661 89.5174 725.495 82.7658 727.376 81.525C739.605 73.4582 741.218 75.2271 745.386 60.7912Z"/><path fill="#B09E86" transform="matrix(0.740741 0 0 0.741935 -400 0.000244141)" d="M733.754 123.26C726.147 126.539 715.75 129.411 710.782 120.147C709.484 117.755 709.219 114.937 710.049 112.345C710.866 109.864 712.977 107.37 715.342 106.207C711.581 119.933 719.742 126.473 732.829 122.094L733.754 123.26Z"/><path fill="#C34C40" transform="matrix(0.740741 0 0 0.741935 -400 0.000244141)" d="M633.119 8.19466C639.48 9.33366 644.924 10.2786 651.317 10.9693C653.901 11.2484 666.041 12.2455 667.31 12.6241C670.537 16.0042 679.206 15.583 683.571 17.161C686.741 18.3075 690.038 19.4425 693.265 20.4244C688.403 23.4535 655.507 14.8989 645.258 14.7146C642.463 11.9439 637.255 11.903 633.119 8.19466Z"/><path fill="#74261C" transform="matrix(0.740741 0 0 0.741935 -400 0.000244141)" d="M726.59 14.9511C734.304 21.2651 736.857 25.3772 739.285 35.1727L740.429 39.3811C739.212 40.5767 738.553 41.4282 737.094 42.2679L734.862 44.3923C732.78 36.5522 727.512 27.1696 727.009 19.1959L729.088 19.8528C729.829 18.3838 727.706 19.5019 726.59 14.9511Z"/><path fill="#1C0F08" transform="matrix(0.740741 0 0 0.741935 -400 0.000244141)" d="M737.094 42.2679C737.568 38.8415 737.578 38.1365 739.285 35.1727L740.429 39.3811C739.212 40.5767 738.553 41.4282 737.094 42.2679Z"/><path fill="#74261C" transform="matrix(0.740741 0 0 0.741935 -400 0.000244141)" d="M633.203 73.8223C636.204 72.4146 636.852 72.3702 640.188 73.1261C644.133 74.0198 654.643 82.4655 655.115 86.5136C646.599 83.3683 643.082 76.6745 632.044 79.6235L631.38 76.9372L633.203 73.8223Z"/><path fill="#74261C" transform="matrix(0.740741 0 0 0.741935 -400 0.000244141)" d="M668.609 40.2969C673.982 41.2561 683.812 49.1189 689.973 51.3271C704.248 56.4428 706.498 45.8974 713.842 42.5258L714.622 42.9708C710.863 45.6307 709.326 49.5457 706.373 51.9037C698.526 58.1707 685.508 52.4253 678.496 47.2712C675.218 44.8615 670.844 42.9602 668.609 40.2969Z"/><path fill="#74261C" transform="matrix(0.740741 0 0 0.741935 -400 0.000244141)" d="M664.813 31.8731C676.295 31.4558 683.655 43.0091 696.025 42.313C703.793 41.8759 707.414 29.2295 713.668 33.9443C705.279 35.0041 707.471 39.5561 702.258 42.6444C690.513 49.6028 675.376 33.8412 665.191 32.5171L664.813 31.8731Z"/><path fill="#74261C" transform="matrix(0.740741 0 0 0.741935 -400 0.000244141)" d="M676.129 53.7537C682.318 55.8359 685.91 58.9926 691.799 61.9039C704.551 68.2086 708.361 57.3206 715.056 54.8685L715.421 55.1232C701.647 72.4354 690.494 65.9694 676.129 53.7537Z"/><path fill="#74261C" transform="matrix(0.740741 0 0 0.741935 -400 0.000244141)" d="M656.843 88.1734C662.196 87.6411 663.47 89.1127 667.698 92.3107C675.651 98.327 682.433 105.757 689.607 112.375L687.193 114.16C681.595 114.522 676.03 113.931 670.479 113.293C669.031 117.407 668.229 118.603 665.762 122.224C663.009 124.848 662.401 125.578 658.986 127.147L652.026 125.108L652.015 123.336C649.304 121.008 648.663 120.51 646.696 117.567C645.666 113.805 645.848 111.354 646.747 107.631L648 104.322L649.993 101.776C651.188 100.272 652.759 99.0156 654.211 97.7356C655.315 95.9363 656.594 89.7539 655.727 87.8021L656.843 88.1734Z"/><path fill="#1C0F08" transform="matrix(0.740741 0 0 0.741935 -400 0.000244141)" d="M654.211 97.7356C663.258 95.5729 667.353 96.9341 669.901 106.516C668.772 109.828 669.078 111.474 665.498 112.551C664.682 109.799 665.402 110.91 663.368 109.026C660.527 108.174 659.3 108.467 656.263 108.656L650.793 109.033L647.96 107.893L646.747 107.631L648 104.322L649.993 101.776C651.188 100.272 652.759 99.0156 654.211 97.7356Z"/><path fill="#DBA23F" transform="matrix(0.740741 0 0 0.741935 -400 0.000244141)" d="M648 104.322L649.993 101.776L652.235 102.962C654.037 104.197 655.95 105.11 656.707 107.028L656.263 108.656L650.793 109.033L647.96 107.893L646.747 107.631L648 104.322Z"/><path fill="#38270F" transform="matrix(0.740741 0 0 0.741935 -400 0.000244141)" d="M648 104.322L649.993 101.776L652.235 102.962C650.043 105.048 649.635 105.423 647.96 107.893L646.747 107.631L648 104.322Z"/><path fill="#040403" transform="matrix(0.740741 0 0 0.741935 -400 0.000244141)" d="M646.747 107.631L647.96 107.893L650.793 109.033L656.263 108.656C659.3 108.467 660.527 108.174 663.368 109.026C665.402 110.91 664.682 109.799 665.498 112.551C663.592 112.326 663.184 112.03 661.518 111.059C660.407 112.554 660.861 111.742 660.742 113.979C660.524 115.982 660.976 115.897 659.871 116.864C657.351 119.066 650.265 117.9 646.696 117.567C645.666 113.805 645.848 111.354 646.747 107.631Z"/><path fill="#1E1D1C" transform="matrix(0.740741 0 0 0.741935 -400 0.000244141)" d="M656.263 108.656C659.3 108.467 660.527 108.174 663.368 109.026C665.402 110.91 664.682 109.799 665.498 112.551C663.592 112.326 663.184 112.03 661.518 111.059C660.407 112.554 660.861 111.742 660.742 113.979L659.831 112.319C657.433 110.683 653.688 109.872 650.793 109.033L656.263 108.656Z"/><path fill="#480F0A" transform="matrix(0.740741 0 0 0.741935 -400 0.000244141)" d="M669.901 106.516C670.033 111.516 669.591 115.48 666.05 119.446C663.597 122.154 660.153 123.756 656.502 123.886C654.679 123.96 653.766 123.738 652.015 123.336C649.304 121.008 648.663 120.51 646.696 117.567C650.265 117.9 657.351 119.066 659.871 116.864C660.976 115.897 660.524 115.982 660.742 113.979C660.861 111.742 660.407 112.554 661.518 111.059C663.184 112.03 663.592 112.326 665.498 112.551C669.078 111.474 668.772 109.828 669.901 106.516Z"/><path fill="#BFAE93" transform="matrix(0.740741 0 0 0.741935 -400 0.000244141)" d="M655.727 87.8021L656.843 88.1734C664.599 95.6201 674.183 101.587 670.479 113.293C669.031 117.407 668.229 118.603 665.762 122.224C663.009 124.848 662.401 125.578 658.986 127.147L652.026 125.108L652.015 123.336C653.766 123.738 654.679 123.96 656.502 123.886C660.153 123.756 663.597 122.154 666.05 119.446C669.591 115.48 670.033 111.516 669.901 106.516C667.353 96.9341 663.258 95.5729 654.211 97.7356C655.315 95.9363 656.594 89.7539 655.727 87.8021Z"/><path fill="#F3F2F1" transform="matrix(0.740741 0 0 0.741935 -400 0.000244141)" d="M632.044 79.6235C643.082 76.6745 646.599 83.3683 655.115 86.5136L655.727 87.8021C656.594 89.7539 655.315 95.9363 654.211 97.7356C652.759 99.0156 651.188 100.272 649.993 101.776L648 104.322L644.465 104.239C640.197 104.196 638.635 104.693 634.765 106.541C633.867 102.639 633.613 100.858 633.2 96.9105C631.839 90.3305 631.875 86.2578 632.044 79.6235Z"/><path fill="#CBC5C9" transform="matrix(0.740741 0 0 0.741935 -400 0.000244141)" d="M632.044 79.6235C643.082 76.6745 646.599 83.3683 655.115 86.5136L655.727 87.8021C656.594 89.7539 655.315 95.9363 654.211 97.7356C652.759 99.0156 651.188 100.272 649.993 101.776L648 104.322L644.465 104.239C648.411 102.317 650.562 90.917 650.873 86.8151C649.374 84.559 647.035 83.9883 644.393 83.3966C636.18 81.557 634.173 91.8492 633.2 96.9105C631.839 90.3305 631.875 86.2578 632.044 79.6235Z"/><path fill="#B04035" transform="matrix(0.740741 0 0 0.741935 -400 0.000244141)" d="M648.062 122.985C640.746 121.662 632.905 126.579 628.222 123.158C632.255 121.358 634.978 125.333 641.419 119.449C640.198 117.071 636.105 115.819 635.085 114.08C632.419 109.539 632.705 96.1375 629.863 92.7498L627.691 93.7928C627.073 89.3883 628.373 80.6166 631.38 76.9372L632.044 79.6235C631.875 86.2578 631.839 90.3305 633.2 96.9105C633.613 100.858 633.867 102.639 634.765 106.541C638.635 104.693 640.197 104.196 644.465 104.239L648 104.322L646.747 107.631C645.848 111.354 645.666 113.805 646.696 117.567C648.663 120.51 649.304 121.008 652.015 123.336L652.026 125.108L648.062 122.985Z"/><path fill="#BBB9B9" transform="matrix(0.740741 0 0 0.741935 -400 0.000244141)" d="M644.465 104.239L648 104.322L646.747 107.631C645.848 111.354 645.666 113.805 646.696 117.567C648.663 120.51 649.304 121.008 652.015 123.336L652.026 125.108L648.062 122.985C640.654 117.37 638.291 115.21 634.765 106.541C638.635 104.693 640.197 104.196 644.465 104.239Z"/><path fill="#74261C" transform="matrix(0.740741 0 0 0.741935 -400 0.000244141)" d="M704.984 132.446C719.682 130.436 720.22 133.392 730.452 133.196C726.255 135.149 721.513 135.259 716.803 136.199C709.543 136.689 705.028 136.424 698.215 134.082C700.435 133.482 702.741 132.974 704.984 132.446Z"/><path fill="#B04035" transform="matrix(0.740741 0 0 0.741935 -400 0.000244141)" d="M670.479 113.293C676.03 113.931 681.595 114.522 687.193 114.16L681.973 115.656C678.363 116.62 678.768 116.704 678.344 120.486L677.41 121.66C674.841 120.568 668.776 121.814 665.762 122.224C668.229 118.603 669.031 117.407 670.479 113.293Z"/><path fill="#74261C" transform="matrix(0.740741 0 0 0.741935 -400 0.000244141)" d="M665.762 122.224C668.776 121.814 674.841 120.568 677.41 121.66C674.209 125.848 672.742 127.173 667.675 128.856C665.115 128.773 660.953 128.689 658.986 127.147C662.401 125.578 663.009 124.848 665.762 122.224Z"/><path fill="#9B3125" transform="matrix(0.740741 0 0 0.741935 -400 0.000244141)" d="M677.41 121.66L678.344 120.486C678.768 116.704 678.363 116.62 681.973 115.656C680.155 123.154 685.626 121.389 682.187 126.395C678.905 128.172 671.442 128.994 667.675 128.856C672.742 127.173 674.209 125.848 677.41 121.66Z"/><path fill="#D28B70" transform="matrix(0.740741 0 0 0.741935 -400 0.000244141)" d="M632.954 73.223L631.478 73.4675L630.465 72.5239C630.841 69.6858 630.396 71.0409 632.286 68.4667C634.615 67.4284 633.422 67.5801 636.004 68.102L636.754 69.3805C634.499 70.9122 634.346 70.952 632.954 73.223Z"/><path fill="#D28B70" transform="matrix(0.740741 0 0 0.741935 -400 0.000244141)" d="M639.739 125.067C640.523 124.822 641.003 124.902 641.865 124.881L642.086 125.894C638.356 129.216 631.695 129.297 626.974 129.215C625.151 129.309 625.073 129.469 623.438 128.762L623.831 127.902C628.227 126.345 634.948 125.708 639.739 125.067Z"/><path fill="#D28B70" transform="matrix(0.740741 0 0 0.741935 -400 0.000244141)" d="M642.735 153.136C648.74 152.795 653.246 153.371 657.79 157.623C651.791 158.141 647.538 156.563 642.735 153.136Z"/></g></svg>