<?xml version="1.0" encoding="utf-8" ?><svg xmlns="http://www.w3.org/2000/svg" xmlns:xlink="http://www.w3.org/1999/xlink" width="200" height="191" viewBox="0 0 200 191"><clipPath id="cl_f"><rect y="0.00015258789" width="200" height="191"/></clipPath><g clip-path="url(#cl_f)"><path fill="#F3C04E" transform="matrix(0.763359 0 0 0.767068 -222.901 -263.871)" d="M357.412 370.027C367.272 361.585 386.651 354.809 399.097 352.027C419.505 347.465 443.707 348.496 463.219 356.363C484.317 360.811 512.814 384.698 522.025 404.007C523.004 404.955 528.4 413.526 529.24 415.107C542.193 439.478 543.35 470.572 536.414 496.674C529.369 523.182 506.418 552.969 482.893 566.229C455.396 581.551 422.993 585.496 392.623 577.218C330.662 559.934 293.612 494.12 312.147 432.023C318.293 411.433 338.56 380.325 357.412 370.027Z"/><path fill="#1C1F20" transform="matrix(0.763359 0 0 0.767068 -222.901 -263.871)" d="M409.494 428.026C430.617 433.681 440.571 426.688 459.557 422.719C472.873 420.008 486.593 419.958 499.928 422.572C501.311 423.022 508.357 425.415 509.344 425.482C509.838 425.799 511.682 426.935 512.012 427.238C515.858 427.795 517.321 427.844 521.176 427.852C521.872 429.363 522.56 430.91 523.297 432.397C524.188 438.887 523.002 439.209 518.054 443.082C517.674 446.862 517.108 451.336 516.899 455.069C513.179 468.796 511.336 482.106 497.784 490.461C489.778 495.397 478.18 496.598 468.966 495.568C462.86 495 459.497 494.09 453.973 491.589C434.386 483.227 433.616 457.409 427.668 451.799C416.854 450.402 417.165 467.54 412.44 476.171C407.703 484.839 399.702 491.257 390.214 494C377.057 497.842 362.912 496.304 350.888 489.723C336.892 478.178 334.208 459.818 332.227 442.842C328.089 439.833 327.056 439.943 326.915 434.519L327.088 434.067C327.683 430.969 327.553 428.573 330.82 427.835C334.876 427.794 335.481 427.708 339.345 426.479C341.886 424.907 347.755 423.44 350.648 422.76C366.973 417.649 393.614 422.147 409.494 428.026Z"/><path fill="#626265" transform="matrix(0.763359 0 0 0.767068 -222.901 -263.871)" d="M409.494 428.026C430.617 433.681 440.571 426.688 459.557 422.719C472.873 420.008 486.593 419.958 499.928 422.572C494.977 425.591 479.269 423.749 471.593 424.36C451.048 425.994 432.785 436.941 412.525 432.01C411.703 431.816 410.883 431.609 410.067 431.387L409.494 428.026Z"/><path fill="#626265" transform="matrix(0.763359 0 0 0.767068 -222.901 -263.871)" d="M350.648 422.76C366.973 417.649 393.614 422.147 409.494 428.026L410.067 431.387C390.088 424.113 370.157 420.84 349.376 427.61C349.188 427.174 349.071 426.354 348.971 425.847L350.827 424.02L350.648 422.76Z"/><path fill="#393939" transform="matrix(0.763359 0 0 0.767068 -222.901 -263.871)" d="M339.345 426.479C341.886 424.907 347.755 423.44 350.648 422.76L350.827 424.02L348.971 425.847C349.071 426.354 349.188 427.174 349.376 427.61C345.663 429.422 343.969 429.733 340.044 430.671C335.601 430.424 333.957 430.71 330.82 427.835C334.876 427.794 335.481 427.708 339.345 426.479Z"/><path fill="#010101" transform="matrix(0.763359 0 0 0.767068 -222.901 -263.871)" d="M453.973 491.589C457.431 490.497 468.338 492.967 471.94 494.106L470.794 495.539L472.753 494.684C471.244 495.608 470.862 495.394 468.966 495.568C462.86 495 459.497 494.09 453.973 491.589Z"/><path fill="#1C1F20" transform="matrix(0.763359 0 0 0.767068 -222.901 -263.871)" d="M512.012 427.238C515.858 427.795 517.321 427.844 521.176 427.852C521.872 429.363 522.56 430.91 523.297 432.397C519.447 432.57 514.085 430.601 512.012 427.238Z"/><path fill="#404041" transform="matrix(0.763359 0 0 0.767068 -222.901 -263.871)" d="M327.088 434.067C327.683 430.969 327.553 428.573 330.82 427.835C333.957 430.71 335.601 430.424 340.044 430.671C332.587 431.144 333.44 431.28 327.088 434.067Z"/><defs><linearGradient id="gradient_0" gradientUnits="userSpaceOnUse" x1="355.10327" y1="482.68723" x2="399.65808" y2="433.57559"><stop offset="0" stop-color="#F8C951"/><stop offset="1" stop-color="#FCED60"/></linearGradient></defs><path fill="url(#gradient_0)" transform="matrix(0.763359 0 0 0.767068 -222.901 -263.871)" d="M343.166 446.465C346.083 431.721 360.091 430.636 372.676 430.25C382.771 429.941 401.663 431.446 409.222 438.783C413.937 454.321 410.712 483.039 390.998 486.734C357.634 492.989 339.241 482.625 343.166 446.465Z"/><path fill="#996223" transform="matrix(0.763359 0 0 0.767068 -222.901 -263.871)" d="M394.335 439.58L396.26 440.888C402.1 449.896 403.165 461.79 397.127 471.013C391.572 478.514 383.657 477.552 379.292 469.47C379.299 469.21 379.306 468.949 379.314 468.688C377.711 464.06 381.022 451.209 383.29 446.775C387.936 443.538 389.486 443.418 394.578 444.647C396.025 442.79 392.91 443.444 394.335 439.58Z"/><defs><linearGradient id="gradient_1" gradientUnits="userSpaceOnUse" x1="401.15225" y1="452.57687" x2="385.52209" y2="460.72391"><stop offset="0" stop-color="#724519"/><stop offset="1" stop-color="#A87327"/></linearGradient></defs><path fill="url(#gradient_1)" transform="matrix(0.763359 0 0 0.767068 -222.901 -263.871)" d="M394.335 439.58L396.26 440.888C402.1 449.896 403.165 461.79 397.127 471.013C395.454 471.832 394.515 472.347 392.693 472.872C392.426 472.563 392.158 472.254 391.891 471.945C393.447 465.165 395.155 457.447 391.928 450.858C391.818 450.605 391.708 450.352 391.597 450.099L391.982 449.506C394.134 451.895 393.086 454.13 394.82 456.718L395.472 456.227C394.727 448.865 393.626 447.538 385.862 448.26L385.056 448.342L383.29 446.775C387.936 443.538 389.486 443.418 394.578 444.647C396.025 442.79 392.91 443.444 394.335 439.58Z"/><path fill="#F3C04E" transform="matrix(0.763359 0 0 0.767068 -222.901 -263.871)" d="M343.166 446.465C346.083 431.721 360.091 430.636 372.676 430.25C382.771 429.941 401.663 431.446 409.222 438.783C404.575 439.369 399.48 436.518 396.633 439.166L396.26 440.888L394.335 439.58C388.72 435.695 385.36 437.711 380.402 441.632L380.614 441.131C381.559 438.938 381.878 438.463 383.211 436.486C377.257 433.731 361.41 437.802 355.175 439.939C350.506 441.54 347.198 443.741 343.166 446.465Z"/><path fill="#6A3B13" transform="matrix(0.763359 0 0 0.767068 -222.901 -263.871)" d="M380.402 441.632C385.36 437.711 388.72 435.695 394.335 439.58C392.91 443.444 396.025 442.79 394.578 444.647C389.486 443.418 387.936 443.538 383.29 446.775C381.022 451.209 377.711 464.06 379.314 468.688C379.306 468.949 379.299 469.21 379.292 469.47C374.967 459.477 375.767 451.302 380.402 441.632Z"/><path fill="#F5CA51" transform="matrix(0.763359 0 0 0.767068 -222.901 -263.871)" d="M453.175 433.107C465.975 430.1 487.51 427.812 499.682 434.754C504.432 437.463 506.069 441.697 507.276 446.798C508.771 461.661 506.914 482.041 490.078 486.113C463.803 492.468 438.96 487.097 439.569 454.928C439.849 440.181 437.694 437.538 453.175 433.107Z"/><path fill="#F3C04E" transform="matrix(0.763359 0 0 0.767068 -222.901 -263.871)" d="M453.175 433.107C465.975 430.1 487.51 427.812 499.682 434.754C504.432 437.463 506.069 441.697 507.276 446.798C493.089 434.839 471.068 432.017 453.175 433.107Z"/><path fill="#996223" transform="matrix(0.763359 0 0 0.767068 -222.901 -263.871)" d="M448.316 464.228C447.011 456.256 446.997 445.488 454.044 439.931C458.964 436.051 465.542 438.058 468.876 443.008C472.595 448.531 472.866 456.663 471.516 463.05C469.678 479.093 453.749 480.776 448.316 464.228Z"/><path fill="#6A3B13" transform="matrix(0.763359 0 0 0.767068 -222.901 -263.871)" d="M448.316 464.228C447.011 456.256 446.997 445.488 454.044 439.931C458.964 436.051 465.542 438.058 468.876 443.008C472.595 448.531 472.866 456.663 471.516 463.05C470.03 458.629 471.122 449.121 469.401 446.476L468.314 446.079C467.262 449.498 470.941 454.092 469.042 459.737C467.113 453.758 462.12 435.3 452.205 451.261C450.633 453.791 452.201 459.768 449.858 464.137L449.16 464.508L448.316 464.228Z"/><path fill="#D89136" transform="matrix(0.763359 0 0 0.767068 -222.901 -263.871)" d="M357.412 370.027C359.382 369.672 359.136 369.581 361.119 369.709L360.904 370.509C354.08 373.974 331.699 395.231 332.144 402.344C317.635 432.305 318.751 454.997 329.141 485.418C345.82 536.462 406.804 566.308 457.134 546.88C484.174 536.442 505.712 519.601 517.164 492.1C521.321 482.119 528.507 457.973 523.777 448.026C526.054 440.294 522.95 417.931 519.636 410.702C518.426 406.251 513.474 396.92 511.406 390.652C515.023 394.245 518.203 399.76 520.976 404.177L522.025 404.007C523.004 404.955 528.4 413.526 529.24 415.107C542.193 439.478 543.35 470.572 536.414 496.674C529.369 523.182 506.418 552.969 482.893 566.229C455.396 581.551 422.993 585.496 392.623 577.218C330.662 559.934 293.612 494.12 312.147 432.023C318.293 411.433 338.56 380.325 357.412 370.027Z"/><defs><linearGradient id="gradient_2" gradientUnits="userSpaceOnUse" x1="424.40155" y1="427.82977" x2="424.20392" y2="384.23605"><stop offset="0" stop-color="#FDEE6D"/><stop offset="1" stop-color="#FFFCB5"/></linearGradient></defs><path fill="url(#gradient_2)" transform="matrix(0.763359 0 0 0.767068 -222.901 -263.871)" d="M389.064 366.697C393.46 358.612 420.367 356.371 428.959 357.252C431.111 357.659 431.576 358.155 433.364 358.62C444.51 361.512 471.719 366.125 479.14 375.533C494.593 385.519 510.563 401.66 517.012 419.878C518 422.671 516.628 421.972 519.05 425.451C516.65 427.225 512.572 425.208 509.344 425.482C508.357 425.415 501.311 423.022 499.928 422.572C486.593 419.958 472.873 420.008 459.557 422.719C440.571 426.688 430.617 433.681 409.494 428.026C393.614 422.147 366.973 417.649 350.648 422.76C347.755 423.44 341.886 424.907 339.345 426.479C336.181 426.31 333.016 426.183 329.849 426.096C336.911 407.448 338.493 408.601 347.89 393.334C347.528 393.483 367.062 377.393 370.142 375.342C374.18 373.703 379.722 370.801 384.044 368.876C385.728 368.176 387.402 367.45 389.064 366.697Z"/><defs><linearGradient id="gradient_3" gradientUnits="userSpaceOnUse" x1="424.14789" y1="400.09854" x2="423.90695" y2="361.53699"><stop offset="0" stop-color="#FFFBA4"/><stop offset="1" stop-color="#FFFFEB"/></linearGradient></defs><path fill="url(#gradient_3)" transform="matrix(0.763359 0 0 0.767068 -222.901 -263.871)" d="M389.064 366.697C393.46 358.612 420.367 356.371 428.959 357.252C431.111 357.659 431.576 358.155 433.364 358.62C444.51 361.512 471.719 366.125 479.14 375.533C475.954 374.257 471.917 372.241 468.752 370.756C471.458 375.611 485.81 378.781 488.803 384.901L488.193 386.364C481.536 391.978 429.744 401.921 418.709 400.717C406.111 399.607 393.838 396.155 381.55 393.314C374.162 391.606 365.394 391.98 360.048 385.986C360.983 379.148 380.386 374.218 384.044 368.876C385.728 368.176 387.402 367.45 389.064 366.697Z"/><path fill="#F9DE5E" transform="matrix(0.763359 0 0 0.767068 -222.901 -263.871)" d="M389.064 366.697C393.46 358.612 420.367 356.371 428.959 357.252C431.111 357.659 431.576 358.155 433.364 358.62C444.51 361.512 471.719 366.125 479.14 375.533C475.954 374.257 471.917 372.241 468.752 370.756C445.398 356.975 414.012 359.523 389.064 366.697Z"/><defs><linearGradient id="gradient_4" gradientUnits="userSpaceOnUse" x1="493.06369" y1="369.61597" x2="464.80811" y2="394.5751"><stop offset="0" stop-color="#F5AA41"/><stop offset="1" stop-color="#F9E151"/></linearGradient></defs><path fill="url(#gradient_4)" transform="matrix(0.763359 0 0 0.767068 -222.901 -263.871)" d="M431.121 351.98C437.445 348.452 456.267 356.829 463.219 356.363C484.317 360.811 512.814 384.698 522.025 404.007L520.976 404.177C518.203 399.76 515.023 394.245 511.406 390.652C513.474 396.92 518.426 406.251 519.636 410.702C519.158 416.309 518.703 420.972 520.853 426.317C521.192 427.159 521.115 426.973 521.176 427.852C517.321 427.844 515.858 427.795 512.012 427.238C511.682 426.935 509.838 425.799 509.344 425.482C512.572 425.208 516.65 427.225 519.05 425.451C516.628 421.972 518 422.671 517.012 419.878C510.563 401.66 494.593 385.519 479.14 375.533C471.719 366.125 444.51 361.512 433.364 358.62C431.576 358.155 431.111 357.659 428.959 357.252C434.169 356.709 439.408 356.504 444.644 356.637C449.508 356.825 453.342 359.006 458.551 358.249L458.692 357.585C454.154 354.386 437.089 352.039 431.121 351.98Z"/><path fill="#F5CA51" transform="matrix(0.763359 0 0 0.767068 -222.901 -263.871)" d="M357.412 370.027C367.272 361.585 386.651 354.809 399.097 352.027C419.505 347.465 443.707 348.496 463.219 356.363C456.267 356.829 437.445 348.452 431.121 351.98C402.806 350.654 376.446 359.686 355.483 378.926C349.746 384.286 344.486 390.135 339.763 396.407C338.062 398.673 334.912 403.869 332.778 404.854L332.046 404.382L332.144 402.344C331.699 395.231 354.08 373.974 360.904 370.509L361.119 369.709C359.136 369.581 359.382 369.672 357.412 370.027Z"/><path fill="#D89136" transform="matrix(0.763359 0 0 0.767068 -222.901 -263.871)" d="M323.926 445.365C325.864 441.029 325.529 438.207 326.915 434.519C327.056 439.943 328.089 439.833 332.227 442.842C334.208 459.818 336.892 478.178 350.888 489.723C336.586 491.401 328.167 456.216 323.926 445.365Z"/><path fill="#F5CA51" transform="matrix(0.763359 0 0 0.767068 -222.901 -263.871)" d="M375.264 368.476C397.364 355.863 419.289 350.353 444.644 356.637C439.408 356.504 434.169 356.709 428.959 357.252C420.367 356.371 393.46 358.612 389.064 366.697C387.402 367.45 385.728 368.176 384.044 368.876C379.722 370.801 374.18 373.703 370.142 375.342C372.266 371.3 374.03 373.99 375.264 368.476Z"/><path fill="#ED9B3D" transform="matrix(0.763359 0 0 0.767068 -222.901 -263.871)" d="M519.636 410.702C522.95 417.931 526.054 440.294 523.777 448.026C522.459 451.245 521.263 454.06 520.234 457.401L519.341 457.836C517.52 454.171 522.727 447.364 523.088 442.645L522.377 441.756C520.506 442.563 520.459 443.027 519.329 444.742C519.001 448.205 519.088 452.603 516.899 455.069C517.108 451.336 517.674 446.862 518.054 443.082C523.002 439.209 524.188 438.887 523.297 432.397C522.56 430.91 521.872 429.363 521.176 427.852C521.115 426.973 521.192 427.159 520.853 426.317C518.703 420.972 519.158 416.309 519.636 410.702Z"/><path fill="#F3CA50" transform="matrix(0.763359 0 0 0.767068 -222.901 -263.871)" d="M347.89 393.334C347.76 392.448 347.606 392.373 348.216 391.701C355.414 383.768 364.867 371.57 375.264 368.476C374.03 373.99 372.266 371.3 370.142 375.342C367.062 377.393 347.528 393.483 347.89 393.334Z"/><defs><linearGradient id="gradient_5" gradientUnits="userSpaceOnUse" x1="386.6774" y1="511.36493" x2="382.57281" y2="526.23883"><stop offset="0" stop-color="#5B2A08"/><stop offset="1" stop-color="#885B23"/></linearGradient></defs><path fill="url(#gradient_5)" transform="matrix(0.763359 0 0 0.767068 -222.901 -263.871)" d="M401.043 533.29C390.075 528.945 381.345 524.02 373.101 515.372C371.153 513.327 366.684 508.152 369.779 505.534C371.594 506.027 381.519 511.844 383.983 513.16C390.34 516.556 394.819 518.4 401.602 520.808C414.03 523.232 425.432 524.264 438.097 522.376L439.237 523.236C433.807 524.419 428.247 524.893 422.696 524.648L421.96 524.352C421.844 528.954 421.974 536.814 421.536 540.973L421.017 543.395C416.414 545.663 414.719 543.973 410.137 544.319C404.977 542.357 402.975 538.069 401.043 533.29Z"/><path fill="#ECF3F3" transform="matrix(0.763359 0 0 0.767068 -222.901 -263.871)" d="M401.602 520.808C414.03 523.232 425.432 524.264 438.097 522.376L439.237 523.236C433.807 524.419 428.247 524.893 422.696 524.648L421.96 524.352C421.844 528.954 421.974 536.814 421.536 540.973L421.017 543.395C410.997 540.986 408.776 541.326 401.823 533.453C401.409 529.045 401.712 527.432 402.265 523.058C401.696 523.026 401.126 522.994 400.556 522.962C401.139 522.11 400.919 522.468 402.079 521.923L401.482 521.706L401.602 520.808Z"/><path fill="#6A3B13" transform="matrix(0.763359 0 0 0.767068 -222.901 -263.871)" d="M401.602 520.808C414.03 523.232 425.432 524.264 438.097 522.376L439.237 523.236C433.807 524.419 428.247 524.893 422.696 524.648L421.96 524.352C421.844 528.954 421.974 536.814 421.536 540.973C421.029 537.372 421.279 528.975 421.291 525.006C415.14 524.666 408.43 523.761 402.265 523.058C401.696 523.026 401.126 522.994 400.556 522.962C401.139 522.11 400.919 522.468 402.079 521.923L401.482 521.706L401.602 520.808Z"/><defs><linearGradient id="gradient_6" gradientUnits="userSpaceOnUse" x1="460.62085" y1="508.09378" x2="462.48151" y2="529.76825"><stop offset="0" stop-color="#613110"/><stop offset="1" stop-color="#865A20"/></linearGradient></defs><path fill="url(#gradient_6)" transform="matrix(0.763359 0 0 0.767068 -222.901 -263.871)" d="M438.097 522.376C452.31 518.885 463.055 514.705 474.877 505.819C476.064 504.926 477.515 505.245 478.742 505.763C479.033 507.887 478.756 508.547 477.207 510.563C466.476 524.516 459.62 527.363 444.875 533.921L444.745 533.799C445.036 530.596 445.611 526.667 444.171 523.932C442.004 522.47 442.555 522.966 439.237 523.236L438.097 522.376Z"/><path fill="#ECF3F3" transform="matrix(0.763359 0 0 0.767068 -222.901 -263.871)" d="M439.237 523.236C442.555 522.966 442.004 522.47 444.171 523.932C445.611 526.667 445.036 530.596 444.745 533.799C442.98 534.882 442.775 535.08 441.351 536.559C437.519 540.541 428.224 541.77 423.038 542.856C423.378 537.731 423.199 529.665 422.696 524.648C428.247 524.893 433.807 524.419 439.237 523.236Z"/><path fill="#1C1F20" transform="matrix(0.763359 0 0 0.767068 -222.901 -263.871)" d="M421.536 540.973C421.974 536.814 421.844 528.954 421.96 524.352L422.696 524.648C423.199 529.665 423.378 537.731 423.038 542.856C429.212 546.334 437.285 543.63 442.135 538.949C441.949 546.594 426.996 546.189 421.771 544.307C415.51 545.49 416.85 547.133 410.137 544.319C414.719 543.973 416.414 545.663 421.017 543.395L421.536 540.973Z"/><defs><linearGradient id="gradient_7" gradientUnits="userSpaceOnUse" x1="141.13684" y1="542.93805" x2="177.90581" y2="375.91183"><stop offset="0" stop-color="#ECA122"/><stop offset="1" stop-color="#FFFC96"/></linearGradient></defs><path fill="url(#gradient_7)" transform="matrix(0.763359 0 0 0.767068 -222.901 -263.871)" d="M61.2195 419.717C63.3222 414.385 65.7171 411.42 68.2912 406.725C95.0102 357.995 156.873 338.018 208.25 356.76C216.154 359.644 234.454 368.181 240.009 374.483C253.205 382.979 267.047 403.282 274.047 417.714C290.871 452.398 286.994 497.923 264.496 529.315C248.117 552.169 229.67 568.638 202.035 576.149C194.794 578.665 185.283 580.114 177.537 580.82C154.589 590.183 134.578 593.407 116.823 572.493C116.713 571.097 115.674 568.892 115.174 567.396L115.898 566.175L115.116 565.518C115.254 565.554 118.88 570.418 119.816 571.367L120.539 570.944L120.093 568.752L121.326 568.205C120.781 566.545 120.726 566.066 120.862 564.325L122.127 563.866L123.491 565.419L124.589 565.221C123.435 563.709 122.885 555.131 120.594 549.997C119.784 542.76 119.027 537.545 119.965 530.261C120.999 522.222 128.166 509.185 125.276 501.604L124.566 505.5L122.996 504.798L122.924 504.36C120.846 502.759 112.813 496.132 110.865 495.483C109.11 496.841 109.724 496.011 108.909 498.03C109.739 503.387 115.663 510.313 119.969 513.401L115.735 520.983C112.796 530.02 110.45 538.677 108.944 548.096C106.191 551.185 101.624 556.096 99.5028 559.366C57.118 526.07 38.7488 470.173 61.2195 419.717Z"/><defs><linearGradient id="gradient_8" gradientUnits="userSpaceOnUse" x1="183.67964" y1="560.32587" x2="160.32492" y2="468.9704"><stop offset="0" stop-color="#F4C050"/><stop offset="1" stop-color="#F9E869"/></linearGradient></defs><path fill="url(#gradient_8)" transform="matrix(0.763359 0 0 0.767068 -222.901 -263.871)" d="M239.242 380.501C231.234 369.998 218.422 364.276 206.95 358.173C208.125 357.818 221.462 363.995 223.371 364.917C227.127 366.732 236.581 374.7 240.009 374.483C253.205 382.979 267.047 403.282 274.047 417.714C290.871 452.398 286.994 497.923 264.496 529.315C248.117 552.169 229.67 568.638 202.035 576.149C194.794 578.665 185.283 580.114 177.537 580.82C154.589 590.183 134.578 593.407 116.823 572.493C116.713 571.097 115.674 568.892 115.174 567.396L115.898 566.175L115.116 565.518C115.254 565.554 118.88 570.418 119.816 571.367L120.539 570.944L120.093 568.752L121.326 568.205C120.781 566.545 120.726 566.066 120.862 564.325L122.127 563.866L123.491 565.419L124.589 565.221C123.435 563.709 122.885 555.131 120.594 549.997C119.784 542.76 119.027 537.545 119.965 530.261C120.999 522.222 128.166 509.185 125.276 501.604C126.685 493.087 127.449 486.656 125.74 478.261L126.154 477.695C127.849 475.332 127.841 474.224 130.426 472.888C146.417 473.062 140.74 503.465 141.669 511.604C142.132 511.838 142.595 512.072 143.058 512.306C151.98 511.459 201.788 451.612 202.902 478.652C197.447 485.308 193.153 489.696 186.627 495.313C181.928 500.245 171.195 509.789 171.287 515.801C173.329 514.775 175.343 511.48 178.335 509.216L180.371 509.691C185.748 506.991 189.852 501.523 194.439 498.131C201.3 493.058 207.843 488.049 214.552 482.763C214.367 476.572 216.648 473.923 218.68 468.285C219.61 465.705 218.171 467.787 217.103 464.341L218.935 464.742C223.476 462.172 222.46 455.091 222.368 450.512C225.145 454.466 224.001 457.28 223.485 461.483C226.633 459.717 236.942 453.975 240.054 453.484C246.962 452.708 253.484 452.575 259.812 449.202C276.882 440.103 256.255 410.127 249.016 398.983C250.161 393.475 244.065 382.732 239.242 380.501Z"/><defs><linearGradient id="gradient_9" gradientUnits="userSpaceOnUse" x1="270.80966" y1="522.86206" x2="154.74315" y2="409.32959"><stop offset="0" stop-color="#D88532"/><stop offset="1" stop-color="#FFCF5A"/></linearGradient></defs><path fill="url(#gradient_9)" transform="matrix(0.763359 0 0 0.767068 -222.901 -263.871)" d="M239.242 380.501C231.234 369.998 218.422 364.276 206.95 358.173C208.125 357.818 221.462 363.995 223.371 364.917C227.127 366.732 236.581 374.7 240.009 374.483C253.205 382.979 267.047 403.282 274.047 417.714C290.871 452.398 286.994 497.923 264.496 529.315C248.117 552.169 229.67 568.638 202.035 576.149C201.991 575.968 201.432 567.954 201.312 566.785C208.488 560.234 218.541 553.939 225.876 547.308C227.975 545.412 227.702 543.776 227.687 541.44C228.507 541.355 228.004 541.489 229.012 540.615C228.936 536.573 227.305 534.046 223.33 532.968C220.934 533.571 221.859 532.94 220.408 534.851C214.427 539.056 203.36 545.212 196.496 547.116C194.505 547.928 193.743 548.332 192.176 546.986C192.907 543.474 199.096 539.267 201.982 536.995C205.058 533.271 208.443 529.813 212.102 526.659C215.914 523.411 233.862 512.864 230.398 508.283C219.505 504.522 198.034 527.531 188.156 531.427C186.731 531.99 184.758 530.598 183.384 529.761C185.497 524.75 194.76 517.846 199.358 513.969C202.422 505.956 221.782 494.302 224.325 485.406C224.74 483.954 224.261 483.985 223.207 482.415C223.488 482.343 223.283 482.44 223.894 481.765C221.008 479.923 217.356 481.544 214.552 482.763C214.367 476.572 216.648 473.923 218.68 468.285C219.61 465.705 218.171 467.787 217.103 464.341L218.935 464.742C223.476 462.172 222.46 455.091 222.368 450.512C225.145 454.466 224.001 457.28 223.485 461.483C226.633 459.717 236.942 453.975 240.054 453.484C246.962 452.708 253.484 452.575 259.812 449.202C276.882 440.103 256.255 410.127 249.016 398.983C250.161 393.475 244.065 382.732 239.242 380.501Z"/></g></svg>