<?xml version="1.0" encoding="utf-8" ?><svg xmlns="http://www.w3.org/2000/svg" xmlns:xlink="http://www.w3.org/1999/xlink" width="200" height="197" viewBox="0 0 200 197"><clipPath id="cl_7"><rect x="3.0517578e-05" y="-0.00018310547" width="200.00003" height="197"/></clipPath><g clip-path="url(#cl_7)"><defs><linearGradient id="gradient_0" gradientUnits="userSpaceOnUse" x1="944.98108" y1="1256.6791" x2="926.66144" y2="1027.8569"><stop offset="0" stop-color="#DE9E3D"/><stop offset="1" stop-color="#FCC54E"/></linearGradient></defs><path fill="url(#gradient_0)" transform="matrix(0.727273 0 0 0.72963 -394.909 -738.385)" d="M847.355 1067.04C872.696 1037.18 911.348 1022.07 950.217 1026.82C989.086 1031.57 1022.96 1055.54 1040.37 1090.62C1066.26 1142.77 1049.63 1206.02 1001.46 1238.71C953.283 1271.39 888.368 1263.46 849.478 1220.14C810.587 1176.82 809.68 1111.42 847.355 1067.04Z"/><defs><linearGradient id="gradient_1" gradientUnits="userSpaceOnUse" x1="675.60455" y1="1215.8372" x2="682.23242" y2="1029.8661"><stop offset="0" stop-color="#993942"/><stop offset="1" stop-color="#C16D7C"/></linearGradient></defs><path fill="url(#gradient_1)" transform="matrix(0.727273 0 0 0.72963 -394.909 -738.385)" d="M598.272 1091.97C598.862 1087.92 602.873 1080.68 604.521 1076.84C612.138 1059.09 625.421 1047.12 642.392 1038.33C661.411 1028.43 683.588 1026.49 704.034 1032.96C721.179 1038.48 741.381 1052.81 749.801 1069.05C751.559 1071.41 752.662 1073.91 753.982 1076.51C773.456 1114.91 768.269 1162.38 740.01 1195.28C749.814 1195.08 757.438 1194.66 766.432 1190.13C769.364 1188.65 772.116 1186.84 774.635 1184.74C779.553 1180.55 794.173 1163.64 800.785 1171.17C811.523 1183.4 800.386 1200.59 790.827 1209.81C789.194 1211.41 787.505 1212.95 785.764 1214.43C792.469 1222.32 790.9 1225.93 788.689 1235.5C788.457 1245.32 784.486 1242.24 779.684 1245.58C776.941 1247.49 778.464 1251.91 772.113 1253.92C762.451 1252.43 764.69 1254.12 756.238 1258.53C751.551 1260.97 746.081 1257.02 741.388 1256.98C736.547 1257.17 731.26 1260.92 726.413 1259.52C722.32 1258.33 715.866 1251.48 711.98 1251.04C699.69 1249.65 697.286 1252.68 691.948 1239.55C690.861 1236.87 681.301 1220.59 678.391 1219.52C674.296 1225.36 670.834 1232.76 667.112 1238.55C664.719 1242.27 662.472 1251.11 657.051 1250.53C643.823 1249.12 641.803 1254.31 631.447 1259.69C628.712 1261.11 621.222 1256.7 618.087 1256.95C613.236 1257.13 609.39 1259.57 604.453 1259.17C601.293 1258.91 595.608 1253.75 594.254 1253.73C584.515 1253.59 584.486 1254.4 578.501 1246.02C576.952 1243.85 572.91 1244.81 571.04 1240.37C569.146 1229.32 564.573 1223.42 573.316 1214.21C571.374 1210.91 566.166 1208.02 562.864 1203.78C545.853 1187.78 552.602 1154.09 575.948 1177.86C587.47 1189.6 596.774 1193.87 613.026 1195.42C614.719 1195.35 615.599 1195.3 617.269 1195.05C617.267 1195.06 577.614 1142.46 598.272 1091.97Z"/><path fill="#882B32" transform="matrix(0.727273 0 0 0.72963 -394.909 -738.385)" d="M749.801 1069.05C751.559 1071.41 752.662 1073.91 753.982 1076.51C773.456 1114.91 768.269 1162.38 740.01 1195.28C749.814 1195.08 757.438 1194.66 766.432 1190.13C769.364 1188.65 772.116 1186.84 774.635 1184.74C779.553 1180.55 794.173 1163.64 800.785 1171.17C811.523 1183.4 800.386 1200.59 790.827 1209.81C789.194 1211.41 787.505 1212.95 785.764 1214.43C792.469 1222.32 790.9 1225.93 788.689 1235.5C788.457 1245.32 784.486 1242.24 779.684 1245.58C776.941 1247.49 778.464 1251.91 772.113 1253.92C762.451 1252.43 764.69 1254.12 756.238 1258.53C751.551 1260.97 746.081 1257.02 741.388 1256.98C736.547 1257.17 731.26 1260.92 726.413 1259.52C722.32 1258.33 715.866 1251.48 711.98 1251.04C699.69 1249.65 697.286 1252.68 691.948 1239.55C690.861 1236.87 681.301 1220.59 678.391 1219.52C674.296 1225.36 670.834 1232.76 667.112 1238.55C664.719 1242.27 662.472 1251.11 657.051 1250.53C643.823 1249.12 641.803 1254.31 631.447 1259.69C628.712 1261.11 621.222 1256.7 618.087 1256.95C613.236 1257.13 609.39 1259.57 604.453 1259.17C601.293 1258.91 595.608 1253.75 594.254 1253.73C584.515 1253.59 584.486 1254.4 578.501 1246.02C576.952 1243.85 572.91 1244.81 571.04 1240.37C569.146 1229.32 564.573 1223.42 573.316 1214.21C571.374 1210.91 566.166 1208.02 562.864 1203.78C545.853 1187.78 552.602 1154.09 575.948 1177.86C587.47 1189.6 596.774 1193.87 613.026 1195.42C614.719 1195.35 615.599 1195.3 617.269 1195.05C617.267 1195.06 577.614 1142.46 598.272 1091.97C598.889 1096.68 594.923 1107.94 594.491 1113.55C592.355 1141.28 599.74 1170.71 617.661 1192.37C622.196 1196.31 627.608 1196.34 632.403 1199.68C653.283 1214.2 681.289 1221.63 705.305 1210.63C708.554 1207.97 709.564 1207.05 713.49 1205.68C721.763 1202.8 740.532 1193.84 745.221 1186.95C767.907 1153.64 770.922 1110.47 751.685 1074.98C750.739 1073.23 750.088 1071.99 749.305 1070.15L749.801 1069.05Z"/><defs><linearGradient id="gradient_2" gradientUnits="userSpaceOnUse" x1="759.94214" y1="1226.9773" x2="772.40259" y2="1165.6808"><stop offset="0" stop-color="#761E28"/><stop offset="1" stop-color="#BE5359"/></linearGradient></defs><path fill="url(#gradient_2)" transform="matrix(0.727273 0 0 0.72963 -394.909 -738.385)" d="M740.01 1195.28C749.814 1195.08 757.438 1194.66 766.432 1190.13C769.364 1188.65 772.116 1186.84 774.635 1184.74C779.553 1180.55 794.173 1163.64 800.785 1171.17C811.523 1183.4 800.386 1200.59 790.827 1209.81C789.194 1211.41 787.505 1212.95 785.764 1214.43C783.717 1215.45 777.497 1217.93 775.334 1218.33C773.806 1219.07 765.612 1223.63 765.343 1223.72C761.491 1225.62 748.179 1230.54 745.418 1225.7L746.843 1224.99L746.168 1224.66C745.067 1221.93 743.179 1220.12 740.764 1218.58C741.541 1217.05 744.848 1217.89 746.521 1218.02L746.872 1217.36C745 1215.53 737.117 1216.04 736.746 1213.27L738.051 1211.67C735.959 1208.83 731.472 1210.02 729.085 1207.29C729.327 1203.79 735.194 1200.37 738.54 1197.08C739.668 1196.5 739.193 1196.71 740.01 1195.28Z"/><path fill="#AD4952" transform="matrix(0.727273 0 0 0.72963 -394.909 -738.385)" d="M562.864 1203.78C545.853 1187.78 552.602 1154.09 575.948 1177.86C587.47 1189.6 596.774 1193.87 613.026 1195.42C606.888 1197.66 604.057 1195.4 598.991 1194.5C593.928 1195.27 593.493 1197.61 588.188 1195.35C583.326 1193.29 575.797 1186.31 570.653 1189.75C564.734 1193.71 559.19 1189.81 555.935 1190.63C556.65 1195.98 563.766 1200.04 562.864 1203.78Z"/><path fill="#AD4952" transform="matrix(0.727273 0 0 0.72963 -394.909 -738.385)" d="M573.316 1214.21C577.43 1218.72 581.717 1215.19 585.967 1221.41C585.973 1223.58 585.648 1225.23 585.967 1227.19C587.704 1237.84 576.862 1233.56 571.827 1237.25C571.827 1237.25 571.185 1239.8 571.04 1240.37C569.146 1229.32 564.573 1223.42 573.316 1214.21Z"/><path fill="#AD4952" transform="matrix(0.727273 0 0 0.72963 -394.909 -738.385)" d="M775.334 1218.33C777.497 1217.93 783.717 1215.45 785.764 1214.43C792.469 1222.32 790.9 1225.93 788.689 1235.5L787.434 1236.47C787.171 1235.03 787.401 1235.72 786.73 1234.39C777.867 1235.85 770.052 1236.79 773.433 1224.6C773.659 1222.5 774.59 1220.35 775.334 1218.33Z"/><path fill="#5B2720" transform="matrix(0.727273 0 0 0.72963 -394.909 -738.385)" d="M724.801 1209.08L723.623 1208.11C721.25 1209.31 709.492 1211.42 706.868 1211.25C709.66 1209.35 716.019 1207.14 719.471 1205.7C723.637 1203.96 735.104 1195.97 738.54 1197.08C735.194 1200.37 729.327 1203.79 729.085 1207.29C731.472 1210.02 735.959 1208.83 738.051 1211.67L736.746 1213.27C737.117 1216.04 745 1215.53 746.872 1217.36L746.521 1218.02C744.848 1217.89 741.541 1217.05 740.764 1218.58C736.343 1219.47 726.577 1213.85 724.801 1209.08Z"/><path fill="#500C09" transform="matrix(0.727273 0 0 0.72963 -394.909 -738.385)" d="M722.798 1211.31C717.494 1215.44 697.569 1230.47 691.048 1225.86C691.487 1224.59 695.383 1224.55 697.479 1224.01C708.371 1221.19 715.855 1214.21 724.801 1209.08C726.577 1213.85 736.343 1219.47 740.764 1218.58C743.179 1220.12 745.067 1221.93 746.168 1224.66L746.843 1224.99L745.418 1225.7C734.813 1222.15 729.125 1220.77 722.798 1211.31Z"/><path fill="#5B2720" transform="matrix(0.727273 0 0 0.72963 -394.909 -738.385)" d="M629.059 1205.34L629.719 1205.44C636.807 1211.88 649.843 1220.41 658.877 1223.55C659.499 1223.76 664.053 1224.64 665.431 1225L665.743 1225.85L664.215 1226.64C656.793 1226.95 641.764 1216.22 635.918 1211.73C631.771 1217.42 629.402 1218.38 623.379 1221.87C617.02 1225.42 610.175 1226.38 603.056 1225.35L602.971 1224.9L603.433 1225.32L604 1224.76C615.745 1224.71 623.874 1222.03 633.016 1213.92C634.468 1212.64 634.25 1212.21 634.248 1210.75C631.148 1211.02 624.392 1222.36 618.357 1219.28C619.284 1218.12 619.494 1217.95 620.102 1216.61C616.162 1207.5 624.273 1212.38 629.059 1205.34Z"/><path fill="#AD4952" transform="matrix(0.727273 0 0 0.72963 -394.909 -738.385)" d="M756.89 1233.51L754.982 1234.47C755.209 1236.43 755.124 1235.77 756.125 1237.64C752.968 1244.77 734.719 1242.12 733.122 1234.03C732.938 1233.09 733.645 1230.2 733.876 1229.2C732.347 1228.42 731.959 1228.44 730.301 1228.03C734.091 1225.95 743.447 1234.12 751.277 1233.96C752.953 1233.75 755.163 1233.64 756.89 1233.51Z"/><path fill="#AD4952" transform="matrix(0.727273 0 0 0.72963 -394.909 -738.385)" d="M590.815 1226.43C599.236 1230.11 597.072 1232.38 608.988 1233.07C615.22 1233.43 624.857 1228.72 626.915 1229.11C624.901 1230.99 625.081 1232.71 624.361 1235.81C621.084 1243.27 604.626 1244.15 603.139 1234.83C602.709 1232.13 596.685 1231.49 594.622 1229.89C593.075 1228.69 592.151 1227.81 590.815 1226.43Z"/><defs><linearGradient id="gradient_3" gradientUnits="userSpaceOnUse" x1="679.31323" y1="1128.6908" x2="679.96906" y2="1042.0037"><stop offset="0" stop-color="#DA7989"/><stop offset="1" stop-color="#E8ACB4"/></linearGradient></defs><path fill="url(#gradient_3)" transform="matrix(0.727273 0 0 0.72963 -394.909 -738.385)" d="M679.725 1041.02C695.015 1040.31 711.199 1044.58 723.164 1054.41C731.017 1060.86 728.441 1071.69 729.716 1080.66C730.972 1089.49 737.878 1106.11 729.874 1112.98C718.131 1123.06 695.372 1129.04 680.174 1128.95C667.461 1131.66 634.323 1121.56 626.118 1112.69C625.918 1103.07 627.642 1094.42 628.247 1085.08C630.277 1053.72 650.225 1043.43 679.725 1041.02Z"/><path fill="#E9B0B2" transform="matrix(0.727273 0 0 0.72963 -394.909 -738.385)" d="M681.691 1045.81C689.191 1045.67 701.61 1045.58 707.397 1050.38C724.451 1064.52 688.427 1076.85 680.017 1078.19C675.159 1077.79 650.787 1072.34 648.968 1068.16C649.764 1053.78 670.19 1047.92 681.691 1045.81Z"/><defs><linearGradient id="gradient_4" gradientUnits="userSpaceOnUse" x1="647.5882" y1="1192.0553" x2="655.00787" y2="1134.6102"><stop offset="0" stop-color="#9D4148"/><stop offset="1" stop-color="#D1828B"/></linearGradient></defs><path fill="url(#gradient_4)" transform="matrix(0.727273 0 0 0.72963 -394.909 -738.385)" d="M674.32 1172.05C673.181 1174.03 672.48 1180.24 669.475 1184.38C665.865 1189.85 657.558 1191.85 651.516 1193.76C646.225 1195.44 636.606 1187.1 634.184 1183.04C624.52 1166.82 627.502 1143.03 644.083 1132.73C650.033 1129.03 657.42 1130.59 663.544 1132.61C668.322 1137.1 677.241 1148.14 676.038 1155.06C676.344 1159.83 677.868 1168.79 674.32 1172.05Z"/><path fill="#882B32" transform="matrix(0.727273 0 0 0.72963 -394.909 -738.385)" d="M674.32 1172.05C675.693 1164.62 674.464 1158.59 674.526 1151.09C675.687 1152.1 675.579 1153.2 676.038 1155.06C676.344 1159.83 677.868 1168.79 674.32 1172.05Z"/><path fill="#030303" transform="matrix(0.727273 0 0 0.72963 -394.909 -738.385)" d="M643.494 1174.03C640.844 1166.65 639.147 1158.33 642.604 1150.8C648.001 1139.04 661.577 1143.66 663.841 1154.91C665.394 1162.44 664.545 1167.33 662.381 1174.32C661.498 1176.38 660.534 1178.16 658.599 1179.39C656.385 1180.83 653.67 1181.26 651.12 1180.58C647.099 1179.52 645.388 1177.45 643.494 1174.03Z"/><path fill="#1C1F20" transform="matrix(0.727273 0 0 0.72963 -394.909 -738.385)" d="M643.494 1174.03C651.705 1170.53 653.989 1170.17 662.381 1174.32C661.498 1176.38 660.534 1178.16 658.599 1179.39C656.385 1180.83 653.67 1181.26 651.12 1180.58C647.099 1179.52 645.388 1177.45 643.494 1174.03Z"/><path fill="#F5F8F8" transform="matrix(0.727273 0 0 0.72963 -394.909 -738.385)" d="M650.373 1151.45C654.103 1151.16 659.81 1153.27 659.328 1157.58L658.153 1158.17C654.743 1158.07 649.238 1158.84 647.542 1155.77C647.928 1153.68 648.894 1153.01 650.373 1151.45Z"/><path fill="#E9B0B2" transform="matrix(0.727273 0 0 0.72963 -394.909 -738.385)" d="M652.086 1131.44C661.44 1131.28 664.02 1134.21 668.836 1141.38C661.424 1135.82 662.751 1134.9 652.408 1133.63C641.916 1134.59 641.678 1139.88 638.592 1140.67L638.143 1139.9L639.515 1138.33L639.409 1140.45L638.394 1139.39C641.908 1134.81 646.6 1132.59 652.086 1131.44Z"/><path fill="#030303" transform="matrix(0.727273 0 0 0.72963 -394.909 -738.385)" d="M694.351 1155.71C693.701 1152.19 695.464 1147.99 697.101 1144.85C698.228 1142.69 700.425 1142.99 703.237 1142.18L703.155 1141.79C699.759 1141.75 698.858 1141.61 696.499 1143.92C695.718 1144.7 694.958 1145.49 694.221 1146.31L693.004 1145.99C692.048 1148.92 686.779 1149.95 686.296 1151.28C684.275 1156.86 683.371 1166.92 684.678 1172.41L684.116 1173.73L682.623 1173.47C680.703 1170.25 681.844 1165.21 681.786 1161.58C681.628 1151.7 687.092 1138.2 695.924 1132.98C700.395 1130.32 705.755 1129.58 710.776 1130.95C719.791 1133.48 724.491 1142.64 727.028 1150.95C723.951 1145.81 720.089 1138.78 713.013 1140.82L710.983 1142.6C716.003 1145.85 717.197 1150.24 718.263 1155.9L717.64 1155.98L717.311 1155.68C717.63 1162.79 718.038 1166.15 715.418 1172.98C713.616 1176.76 712.234 1178.99 707.955 1180.36C705.391 1181.15 702.615 1180.87 700.261 1179.58C698.462 1178.59 697.601 1177.23 696.677 1175.42L696.46 1174.74L696.117 1173.6C693.836 1166.16 693.986 1163.65 694.351 1155.71Z"/><path fill="#D4756E" transform="matrix(0.727273 0 0 0.72963 -394.909 -738.385)" d="M694.351 1155.71C693.701 1152.19 695.464 1147.99 697.101 1144.85C698.228 1142.69 700.425 1142.99 703.237 1142.18L703.155 1141.79C699.759 1141.75 698.858 1141.61 696.499 1143.92C695.718 1144.7 694.958 1145.49 694.221 1146.31L693.004 1145.99C692.048 1148.92 686.779 1149.95 686.296 1151.28C684.275 1156.86 683.371 1166.92 684.678 1172.41L684.116 1173.73L682.623 1173.47C680.703 1170.25 681.844 1165.21 681.786 1161.58C681.628 1151.7 687.092 1138.2 695.924 1132.98C700.395 1130.32 705.755 1129.58 710.776 1130.95C719.791 1133.48 724.491 1142.64 727.028 1150.95C723.951 1145.81 720.089 1138.78 713.013 1140.82L710.983 1142.6C716.003 1145.85 717.197 1150.24 718.263 1155.9L717.64 1155.98L717.311 1155.68C713.63 1138.94 699.892 1140 694.351 1155.71Z"/><path fill="#1C1F20" transform="matrix(0.727273 0 0 0.72963 -394.909 -738.385)" d="M696.677 1175.42C700.056 1172.52 701.853 1172.08 705.974 1170.77C709.138 1171.44 712.286 1172.18 715.418 1172.98C713.616 1176.76 712.234 1178.99 707.955 1180.36C705.391 1181.15 702.615 1180.87 700.261 1179.58C698.462 1178.59 697.601 1177.23 696.677 1175.42Z"/><path fill="#F5F8F8" transform="matrix(0.727273 0 0 0.72963 -394.909 -738.385)" d="M704.283 1151.45C708.234 1151.1 710.905 1151.9 712.221 1155.93L711.493 1157.18L709.061 1157.57L707.543 1157.72C704.672 1158.03 701.819 1159.13 700.366 1156.3C701.166 1153.79 702.199 1153.27 704.283 1151.45Z"/><path fill="#AD966F" transform="matrix(0.727273 0 0 0.72963 -394.909 -738.385)" d="M522.553 1098.97C525.993 1097.75 528.602 1096.14 531.695 1097.18C533.25 1099.39 533.493 1101.16 535.435 1102.95C539.547 1113.49 542.676 1134.81 539.648 1145.59C538.435 1157.67 531.11 1167.62 526.688 1177.37C525.108 1165.57 519.568 1162.7 508.42 1162.05C512.781 1160.13 517.082 1162.46 520.015 1161.97C522.294 1159.71 524.209 1154.55 525.745 1151.27C521.043 1142.44 514.663 1139.9 506.213 1135.44L506.054 1130.25C505.698 1131.92 505.366 1133.59 505.058 1135.27C504.784 1127.22 504.649 1123.36 502.584 1115.6C502.831 1115.2 503.011 1114.47 503.167 1113.98C502.277 1110.16 500.425 1107.55 498.43 1104.15C500.496 1102.31 516.555 1101.78 520.996 1100.71C522.093 1104.69 523.251 1108.65 524.469 1112.59L525.51 1112.75C526.217 1107.22 524.524 1104.2 522.553 1098.97Z"/></g></svg>