<?xml version="1.0" encoding="utf-8" ?><svg xmlns="http://www.w3.org/2000/svg" xmlns:xlink="http://www.w3.org/1999/xlink" width="200" height="202" viewBox="0 0 200 202"><clipPath id="cl_1d"><rect width="200" height="202"/></clipPath><g clip-path="url(#cl_1d)"><path fill="#D6792E" transform="matrix(0.724638 0 0 0.726619 -575.362 0)" d="M1241.1 33.4702C1261.34 23.9743 1271.41 19.6988 1293.76 15.0436C1293.58 25.4153 1291.48 50.5735 1289.69 61.4392C1288.29 72.4469 1286.99 82.2543 1284.34 93.0615C1283.07 98.2495 1280.22 105.31 1279.3 109.985C1282.47 122.448 1284.61 136.135 1290.11 147.724C1292.8 153.397 1298.27 160.623 1301.92 166.091C1306.44 172.861 1310.56 179.89 1314.26 187.143C1312.23 186.506 1309.33 185.719 1307.48 184.83C1304.6 184.139 1301.67 183.504 1298.79 182.851C1302.18 187.584 1309.75 191.609 1314.92 194.654C1316.35 196.782 1316.15 195.686 1315.82 197.99C1314.36 199.756 1314.43 199.805 1312.37 201.049C1307.72 204.977 1303.93 206.3 1298.79 209.369C1300.94 209.321 1303.76 208.834 1305.15 209.884C1299.13 221.936 1245.7 228.28 1232.55 232.036C1227.88 234.837 1219.38 238.29 1216.83 240.061C1202.13 250.372 1184.46 250.526 1169.6 240.469L1165.19 237.827C1161.55 237.472 1157.14 234.378 1154.02 232.421C1141.21 228.497 1085.92 222.073 1080.42 209.976C1082.06 208.693 1082.75 209.121 1085.3 208.967C1082.63 205.471 1070.18 201.722 1069.86 195.479L1071.5 194.403C1076.47 191.835 1083.34 186.999 1087 182.809C1083.17 183.478 1081.28 183.905 1077.51 185.007C1075.07 186.115 1075.09 186.234 1072.5 186.411L1072.15 185.633L1073.09 184.098C1076.57 177.401 1080.39 170.884 1084.53 164.572C1087.54 160.069 1091.62 155.063 1094.49 149.475C1097.62 143.482 1107.32 114.942 1105.69 109.106C1102.22 96.6774 1098.43 81.0685 1096.53 67.0572L1096.14 63.7229C1093.89 50.7992 1092.4 28.2204 1092.05 15.2236C1111.73 19.2127 1124.15 23.3886 1141.91 32.3748C1155.3 38.2869 1155.14 41.7721 1165.38 50.001C1178.15 46.088 1188.99 44.4917 1202.43 45.983L1203.93 46.5052C1207.89 46.1882 1216.49 48.7906 1220.33 49.8881C1228.84 42.5845 1231.01 39.0542 1241.1 33.4702Z"/><path fill="#968067" transform="matrix(0.724638 0 0 0.726619 -575.362 0)" d="M1071.5 194.403C1076.09 196.777 1103.73 196.631 1109.52 196.216C1102.58 199.854 1094.84 197.244 1090.86 199.969C1093.5 200.687 1094.41 200.813 1096.74 202.153C1098.92 204.475 1099.45 204.706 1099.95 207.684C1098.13 213.76 1087.57 208.669 1085.3 208.967C1082.63 205.471 1070.18 201.722 1069.86 195.479L1071.5 194.403Z"/><path fill="#E5E4E5" transform="matrix(0.724638 0 0 0.726619 -575.362 0)" d="M904.115 49.5986C920.915 43.2732 934.978 41.6668 953.161 45.0635C956.784 45.7405 965.32 49.3642 968.218 49.5637C974.563 46.2935 982.464 47.4309 989.125 49.645C1015.5 59.2796 1035.76 86.9436 1048.96 110.63C1055.85 122.991 1062.38 143.244 1057.99 157.277C1054.33 168.957 1045.85 171.127 1034.86 170.402C1035.2 175.502 1035.21 178.025 1034.9 183.124C1031.63 207.721 1018.1 222.925 994.758 230.69C985.854 233.652 959.09 232.628 954.73 239.933C954.741 250.886 949.873 257.769 937.961 258.407C923.596 259.176 916.694 253.956 915.74 239.691L915.797 238.924C907.825 234.866 902.994 234.231 894.119 232.877C892.955 232.852 891.791 232.817 890.627 232.771C854.259 231.3 833.956 205.687 835.808 170.203C810.835 171.711 807.734 153.014 812.844 132.983C818.609 112.791 829.794 92.9383 844.107 77.5688C860.856 59.5827 878.119 42.9126 904.115 49.5986Z"/><defs><linearGradient id="gradient_0" gradientUnits="userSpaceOnUse" x1="993.23273" y1="124.19058" x2="1032.6101" y2="86.246368"><stop offset="0" stop-color="#7F4F19"/><stop offset="1" stop-color="#AE762D"/></linearGradient></defs><path fill="url(#gradient_0)" transform="matrix(0.724638 0 0 0.726619 -575.362 0)" d="M968.218 49.5637C974.563 46.2935 982.464 47.4309 989.125 49.645C1015.5 59.2796 1035.76 86.9436 1048.96 110.63C1055.85 122.991 1062.38 143.244 1057.99 157.277C1054.33 168.957 1045.85 171.127 1034.86 170.402C1032.74 160.056 1031.74 155.044 1026.15 146.212C1021.92 137.885 1016.43 133.088 1010 126.298C1004.74 119.07 1014.04 97.8985 998.084 75.3741C990.407 62.9207 980.81 56.3283 968.218 49.5637Z"/><defs><linearGradient id="gradient_1" gradientUnits="userSpaceOnUse" x1="875.42572" y1="122.41973" x2="836.4964" y2="87.347977"><stop offset="0" stop-color="#7E4E18"/><stop offset="1" stop-color="#B1782E"/></linearGradient></defs><path fill="url(#gradient_1)" transform="matrix(0.724638 0 0 0.726619 -575.362 0)" d="M835.808 170.203C810.835 171.711 807.734 153.014 812.844 132.983C818.609 112.791 829.794 92.9383 844.107 77.5688C860.856 59.5827 878.119 42.9126 904.115 49.5986C896.461 49.4177 881.035 63.5105 876.367 69.4814C868.708 79.2451 866.311 85.2732 863.294 97.1377C861.009 106.125 864.295 121.23 859.55 127.208C857.066 129.856 850.911 136.14 848.931 138.803C841.762 146.053 837.342 160.22 835.808 170.203Z"/><path fill="#AAA5A4" transform="matrix(0.724638 0 0 0.726619 -575.362 0)" d="M1026.15 146.212C1031.74 155.044 1032.74 160.056 1034.86 170.402C1035.2 175.502 1035.21 178.025 1034.9 183.124C1031.63 207.721 1018.1 222.925 994.758 230.69C985.854 233.652 959.09 232.628 954.73 239.933C954.741 250.886 949.873 257.769 937.961 258.407C923.596 259.176 916.694 253.956 915.74 239.691L915.797 238.924C916.234 236.556 916.034 231.977 916.02 229.381C918.632 228.042 932.997 221.889 935.79 221.039L936.712 219.585C942.389 217.711 949.376 209.909 952.531 204.846C953.206 208.437 953.8 216.419 957.307 217.957C968.845 222.651 984.43 219.03 996.191 215.657C1023 207.969 1034.06 174.036 1027.32 150.309L1026.15 146.212Z"/><path fill="#D57E89" transform="matrix(0.724638 0 0 0.726619 -575.362 0)" d="M935.79 221.039C938.18 221.265 943.399 223.959 945.845 225.087C948.744 226.428 951.654 227.747 954.574 229.042C954.608 232.612 954.671 236.027 954.494 239.6L954.73 239.933C954.741 250.886 949.873 257.769 937.961 258.407C923.596 259.176 916.694 253.956 915.74 239.691L915.797 238.924C916.234 236.556 916.034 231.977 916.02 229.381C918.632 228.042 932.997 221.889 935.79 221.039Z"/><path fill="#B6606A" transform="matrix(0.724638 0 0 0.726619 -575.362 0)" d="M935.79 221.039C938.18 221.265 943.399 223.959 945.845 225.087C948.744 226.428 951.654 227.747 954.574 229.042C954.608 232.612 954.671 236.027 954.494 239.6C952.241 237.898 952.3 233.694 951.758 230.407C944.938 229.387 942.976 229.186 936.446 230.152C936.13 232.935 936.211 239.315 935.046 241.011C933.757 238.741 934.14 233.817 932.953 229.912C928.592 228.305 922.97 229.653 918.33 230.391C917.801 234.922 918.309 236.567 915.74 239.691L915.797 238.924C916.234 236.556 916.034 231.977 916.02 229.381C918.632 228.042 932.997 221.889 935.79 221.039Z"/><path fill="#CD99A4" transform="matrix(0.724638 0 0 0.726619 -575.362 0)" d="M938.628 230.958C942.309 230.793 948.781 229.708 950.331 233.695C949.972 235.842 949.234 236.371 947.804 238.012C944.094 238.979 940.449 239.469 937.964 235.914C937.446 233.09 937.59 233.995 938.628 230.958Z"/><path fill="#CD99A4" transform="matrix(0.724638 0 0 0.726619 -575.362 0)" d="M924.069 231.058C925.658 231.004 927.35 231.023 928.949 231.011C931.782 232.359 932.532 232.592 932.217 235.804C930.855 237.911 930.297 237.973 928.042 239.002C924.508 238.523 919.634 237.927 919.998 233.342C921.374 231.622 921.957 231.649 924.069 231.058Z"/><path fill="#948D8A" transform="matrix(0.724638 0 0 0.726619 -575.362 0)" d="M945.845 225.087C949.195 224.866 965.659 229.606 968.968 229.569C985.234 229.383 1005.56 225.387 1017.59 213.64C1031.03 200.528 1032.65 188.286 1033.13 170.997C1033.96 174.678 1033.28 180.56 1034.9 183.124C1031.63 207.721 1018.1 222.925 994.758 230.69C985.854 233.652 959.09 232.628 954.73 239.933L954.494 239.6C954.671 236.027 954.608 232.612 954.574 229.042C951.654 227.747 948.744 226.428 945.845 225.087Z"/><path fill="#948D8A" transform="matrix(0.724638 0 0 0.726619 -575.362 0)" d="M835.808 170.203C837.342 160.22 841.762 146.053 848.931 138.803L848.729 139.428C847.059 144.462 843.6 150.919 842.431 155.58C836.102 180.813 850.862 209.261 876.364 216.614C887.655 219.869 901.506 223.395 912.67 218.615C918.139 216.16 918.592 209.837 917.882 204.386C921.154 210.163 926.558 215.446 932.031 219.158L936.712 219.585L935.79 221.039C932.997 221.889 918.632 228.042 916.02 229.381C916.034 231.977 916.234 236.556 915.797 238.924C907.825 234.866 902.994 234.231 894.119 232.877C892.955 232.852 891.791 232.817 890.627 232.771C854.259 231.3 833.956 205.687 835.808 170.203Z"/><path fill="#968067" transform="matrix(0.724638 0 0 0.726619 -575.362 0)" d="M932.031 219.158L936.712 219.585L935.79 221.039C932.997 221.889 918.632 228.042 916.02 229.381C916.034 231.977 916.234 236.556 915.797 238.924C907.825 234.866 902.994 234.231 894.119 232.877C896.241 231.843 899.181 231.774 901.644 231.075C910.346 228.608 920.138 226.854 928.422 223.265C930.852 222.211 931.329 221.235 932.031 219.158Z"/><path fill="#CDC7CC" transform="matrix(0.724638 0 0 0.726619 -575.362 0)" d="M904.115 49.5986C920.915 43.2732 934.978 41.6668 953.161 45.0635C956.784 45.7405 965.32 49.3642 968.218 49.5637C980.81 56.3283 990.407 62.9207 998.084 75.3741L997.927 77.7657C995.163 73.6852 987.243 61.9199 982.453 61.5163L982.476 62.7299C987.775 67.6508 987.751 70.3359 991.83 76.2246L991.366 77.2753C989.628 77.4421 986.353 72.2007 984.978 70.589C963.175 45.0295 926.358 39.7738 898.332 58.6988C893.341 62.0686 890.373 65.7023 885.175 68.2958C883.552 71.6689 879.56 81.0834 877.829 83.4443C877.038 81.6862 877.68 78.9901 877.951 76.931L877.334 76.2256C876.873 78.3879 877.158 79.1513 875.828 80.1725C874.908 76.9288 876.761 76.2192 876.039 71.8677L876.367 69.4814C881.035 63.5105 896.461 49.4177 904.115 49.5986Z"/><path fill="#141313" transform="matrix(0.724638 0 0 0.726619 -575.362 0)" d="M917.882 204.386C915.257 188.844 939.853 188.404 948.613 194.139C952.772 196.862 953.168 200.303 952.531 204.846C949.376 209.909 942.389 217.711 936.712 219.585L932.031 219.158C926.558 215.446 921.154 210.163 917.882 204.386Z"/><path fill="#AAA5A4" transform="matrix(0.724638 0 0 0.726619 -575.362 0)" d="M928.287 196.862C931.747 196.614 942.364 195.361 943.808 199.079L942.565 199.871C938.778 199.978 929.926 200.601 926.786 198.935L926.719 198.002L928.287 196.862Z"/><path fill="#AAA5A4" transform="matrix(0.724638 0 0 0.726619 -575.362 0)" d="M876.367 69.4814L876.039 71.8677C867.851 85.0577 863.943 92.0843 865.712 108.508C866.459 115.451 863.86 115.346 867.558 122.399L866.419 123.66L865.194 123.717L864.185 122.425L863.581 122.636C865.067 127.489 867.582 123.966 866.273 127.51C864.148 128.36 861.88 127.636 859.55 127.208C864.295 121.23 861.009 106.125 863.294 97.1377C866.311 85.2732 868.708 79.2451 876.367 69.4814Z"/><path fill="#AAA5A4" transform="matrix(0.724638 0 0 0.726619 -575.362 0)" d="M998.084 75.3741C1014.04 97.8985 1004.74 119.07 1010 126.298C1008.34 127.377 1008.25 127.524 1006.4 128.126L1005.35 127.194L1006.64 126.669C1006.63 121.78 1004.39 113.281 1004.63 109.743C1005.64 94.7397 1006.36 91.2522 997.927 77.7657L998.084 75.3741Z"/><path fill="#AB7830" transform="matrix(0.724638 0 0 0.726619 -575.362 0)" d="M964.428 108.067C978.636 106.76 985.438 116.805 993.689 126.7C998.968 133.801 1006.74 140.993 1009 149.851C1014.13 169.904 1004.29 187.481 984.942 193.299C964.636 197.691 949.781 186.544 942.011 168.196C937.045 156.468 940.585 136.876 945.485 125.498C949.387 116.437 955.257 111.542 964.428 108.067Z"/><path fill="#282725" transform="matrix(0.724638 0 0 0.726619 -575.362 0)" d="M964.045 155.684C973.704 124.874 987.733 149.234 985.581 167.753C984.88 189.958 961.571 187.806 964.045 155.684Z"/><path fill="#030303" transform="matrix(0.724638 0 0 0.726619 -575.362 0)" d="M964.045 155.684C973.704 124.874 987.733 149.234 985.581 167.753C984.298 169.323 984.553 169.273 983.874 171.321L984.091 172.374L983.323 172.335L983.744 172.845L982.967 173.313C984.458 169.83 984.985 167.258 983.66 163.562C980.512 154.779 972.975 157.44 965.928 158.866C964.06 157.531 964.854 158.407 964.045 155.684Z"/><path fill="#CDC7CC" transform="matrix(0.724638 0 0 0.726619 -575.362 0)" d="M973.21 145.312C976.392 145.634 980.099 147.613 979.786 151.204L978.336 151.819C975.29 152.031 971.873 152.974 970.143 150.202C970.447 147.974 971.68 147.027 973.21 145.312Z"/><defs><linearGradient id="gradient_2" gradientUnits="userSpaceOnUse" x1="896.30371" y1="141.58397" x2="894.24689" y2="171.08974"><stop offset="0" stop-color="black"/><stop offset="1" stop-color="#333234"/></linearGradient></defs><path fill="url(#gradient_2)" transform="matrix(0.724638 0 0 0.726619 -575.362 0)" d="M884.67 173.372C882.714 164.667 883.989 152.482 888.906 145.752C899.37 131.43 907.012 151.205 906.642 160.743C906.367 167.821 906.894 169.055 904.049 175.365C898.785 187.353 889.747 182.393 884.67 173.372Z"/><path fill="#414141" transform="matrix(0.724638 0 0 0.726619 -575.362 0)" d="M884.67 173.372C890.468 164.211 898.277 156.593 903.877 173.847C903.425 172.455 904.21 176.777 904.049 175.365C898.785 187.353 889.747 182.393 884.67 173.372Z"/><path fill="#CDC7CC" transform="matrix(0.724638 0 0 0.726619 -575.362 0)" d="M894.467 145.245C897.662 145.685 901.011 147.588 900.639 151.186L899.172 151.725C896.313 151.857 892.357 152.73 891.01 149.858C891.565 147.7 892.844 146.827 894.467 145.245Z"/><path fill="#E15445" transform="matrix(0.724638 0 0 0.726619 -575.362 0)" d="M593.077 174.649C589.381 155.025 592.442 122.085 593.521 101.61C594.692 79.0964 593.763 55.5971 597.789 33.3724C601.57 12.501 612.738 3.58466 633.57 8.47067C641.002 9.39893 647.553 10.745 655.22 11.5393C666.799 12.739 677.218 12.6343 688.761 12.9241C712.163 9.97078 729.628 4.99726 739.012 33.2927L745.68 61.5323L748.489 73.158C750.541 84.8055 749.722 95.9997 747.778 107.596C746.214 114.988 745.913 119.173 746.233 126.716C747.664 126.011 750.009 125.186 751.571 124.585C760.357 121.241 766.142 120.117 775.453 121.747C804.261 129.772 798.785 162.15 775.732 172.977C770.772 175.324 765.361 176.565 759.875 176.615C757.028 177.508 749.717 177.266 746.591 177.07C743.464 183.293 739.552 190.522 737.57 197.099C736.728 202.401 736.108 207.526 733.393 212.239L733.4 212.683C727.473 223.97 724.353 237.243 719.018 247.731C707.086 271.188 670.995 256.328 654.377 247.132C649.589 245.513 642.516 246.349 638.265 243.371C627.859 236.082 620.695 226.38 613.776 215.829C605.352 202.983 596.453 189.944 593.077 174.649Z"/><defs><linearGradient id="gradient_3" gradientUnits="userSpaceOnUse" x1="728.31604" y1="229.73418" x2="589.63586" y2="194.77791"><stop offset="0" stop-color="#873121"/><stop offset="1" stop-color="#C54438"/></linearGradient></defs><path fill="url(#gradient_3)" transform="matrix(0.724638 0 0 0.726619 -575.362 0)" d="M751.571 124.585C760.357 121.241 766.142 120.117 775.453 121.747C804.261 129.772 798.785 162.15 775.732 172.977C770.772 175.324 765.361 176.565 759.875 176.615C757.028 177.508 749.717 177.266 746.591 177.07C743.464 183.293 739.552 190.522 737.57 197.099C736.728 202.401 736.108 207.526 733.393 212.239L733.4 212.683C727.473 223.97 724.353 237.243 719.018 247.731C707.086 271.188 670.995 256.328 654.377 247.132C649.589 245.513 642.516 246.349 638.265 243.371C627.859 236.082 620.695 226.38 613.776 215.829C605.352 202.983 596.453 189.944 593.077 174.649C596.004 175.893 610.388 169.216 617.361 169.171L617.981 160.933L622.39 164.96C630.435 166.923 634.141 163.15 637.117 167.445L637.902 168.155C638.224 168.157 639.031 168.136 639.252 168.281C645.1 172.105 660.558 165.962 663.533 160.496C657.917 160.3 658.571 163.902 650.953 164.904L650.11 164.022C667.095 155.155 677.503 157.196 694.924 163.357L702.96 160.432C714.882 149.043 732.882 154.344 738.36 150.646C738.291 145.588 738.293 141.075 738.491 136.024C737.157 134.634 735.576 135.046 733.017 134.837C739.469 132.88 741.724 131.595 746.233 126.716C747.664 126.011 750.009 125.186 751.571 124.585Z"/><defs><linearGradient id="gradient_4" gradientUnits="userSpaceOnUse" x1="784.31915" y1="166.01598" x2="753.17639" y2="141.99533"><stop offset="0" stop-color="#812820"/><stop offset="1" stop-color="#B54533"/></linearGradient></defs><path fill="url(#gradient_4)" transform="matrix(0.724638 0 0 0.726619 -575.362 0)" d="M751.571 124.585C760.357 121.241 766.142 120.117 775.453 121.747C804.261 129.772 798.785 162.15 775.732 172.977C770.772 175.324 765.361 176.565 759.875 176.615C757.91 174.658 749.759 176.231 746.325 175.488L746.004 174.641L746.933 173.701C749.414 174.023 755.801 173.909 758.072 172.741L758.773 171.527C756.807 168.701 746.453 164.199 742.781 161.318C740.374 159.431 737.326 157.218 734.76 155.12C725.11 152.57 714.116 158.031 702.96 160.432C714.882 149.043 732.882 154.344 738.36 150.646C738.291 145.588 738.293 141.075 738.491 136.024C737.157 134.634 735.576 135.046 733.017 134.837C739.469 132.88 741.724 131.595 746.233 126.716C747.664 126.011 750.009 125.186 751.571 124.585Z"/></g></svg>