<?xml version="1.0" encoding="utf-8" ?><svg xmlns="http://www.w3.org/2000/svg" xmlns:xlink="http://www.w3.org/1999/xlink" width="200" height="200" viewBox="0 0 200 200"><clipPath id="cl_8"><rect x="-0.00012207031" y="-0.00012207031" width="200" height="200"/></clipPath><g clip-path="url(#cl_8)"><defs><linearGradient id="gradient_0" gradientUnits="userSpaceOnUse" x1="1032.7081" y1="913.27118" x2="852.01068" y2="787.57764"><stop offset="0" stop-color="#6F462B"/><stop offset="1" stop-color="#895F3E"/></linearGradient></defs><path fill="url(#gradient_0)" transform="matrix(0.760456 0 0 0.760456 -611.407 -521.673)" d="M908.973 700.827C915.309 701.939 921.435 704.025 927.133 707.012C943.049 715.551 964.605 729.849 970.129 748.027C972.145 754.58 971.869 761.371 971.017 768.121C986.93 769.401 1001.28 777.329 999.235 795.551C998.891 798.472 998.439 801.379 997.878 804.267C1011.49 809.326 1020.73 814.724 1022.86 830.477C1023.53 840.824 1022.6 844.157 1018.93 853.853C1034.88 857.298 1049.22 866.691 1049.36 884.842C1053.05 903.192 1030.77 912.324 1016.62 915.617C1009.93 918.996 967.077 918.376 957.567 917.791C940.477 917.812 927.809 915.073 911.335 913.215C906.652 912.687 886.861 913.528 882.301 914.335C861.718 917.977 834.864 923.604 825.886 897.585C822.898 888.816 823.566 879.212 827.74 870.941C832.894 860.924 843.114 857.051 853.17 853.724L852.788 852.908C847.233 840.799 847.862 826.774 856.339 816.16C861.8 809.323 867.639 807.169 875.229 803.706C870.332 786.083 873.105 770.681 888.467 759.368C894.564 755.117 898.221 756.24 903.948 752.898C895.667 739.711 911.1 727.331 911.911 714.363C912.256 708.841 910.82 705.896 908.973 700.827Z"/><defs><linearGradient id="gradient_1" gradientUnits="userSpaceOnUse" x1="1029.7814" y1="909.86249" x2="1026.2567" y2="899.47174"><stop offset="0" stop-color="#47120B"/><stop offset="1" stop-color="#5B341E"/></linearGradient></defs><path fill="url(#gradient_1)" transform="matrix(0.760456 0 0 0.760456 -611.407 -521.673)" d="M971.509 909.358C986.854 905.082 985.002 907.3 999.736 908.127C1012.22 908.829 1028.61 902.163 1039.3 896.136C1041.31 895.299 1043.33 894.746 1045.34 893.89C1050.04 891.89 1047.59 888.455 1049.36 884.842C1053.05 903.192 1030.77 912.324 1016.62 915.617C1013.5 915.384 1009.62 916.394 1007.8 914.976C1007.77 914.646 1007.49 911.614 1006.97 911.57C999.91 910.97 976.857 912.341 971.509 909.358Z"/><defs><linearGradient id="gradient_2" gradientUnits="userSpaceOnUse" x1="931.33813" y1="761.52289" x2="896.5213" y2="755.99005"><stop offset="0" stop-color="#A37C52"/><stop offset="1" stop-color="#BE9666"/></linearGradient></defs><path fill="url(#gradient_2)" transform="matrix(0.760456 0 0 0.760456 -611.407 -521.673)" d="M899.513 756.615C913.834 760.147 929.854 744.308 934.256 750.099C934.291 754.6 931.531 757.375 928.817 761.026C922.812 766.816 896.691 773.243 889.74 768.63C889.052 766.618 889.108 767.672 890.026 765.368L890.72 765.393L889.945 765.369L890.962 766.001C892.385 769.246 892.444 769.326 895.971 769.538C896.345 767.52 896.029 766.798 895.249 764.913C895.954 762.462 896.317 762.241 898.019 760.189L898.523 759.591L897.925 757.997L899.513 756.615Z"/><path fill="#551110" transform="matrix(0.760456 0 0 0.760456 -611.407 -521.673)" d="M971.509 909.358C976.857 912.341 999.91 910.97 1006.97 911.57C1007.49 911.614 1007.77 914.646 1007.8 914.976C1009.62 916.394 1013.5 915.384 1016.62 915.617C1009.93 918.996 967.077 918.376 957.567 917.791C952.311 914.202 948.462 914.699 942.224 914.701C943.901 914.556 947.885 914.435 949.114 913.751C946.863 912.12 944.665 913.827 941.855 912.633C947.727 909.699 963.875 911.868 971.509 909.358Z"/><defs><linearGradient id="gradient_3" gradientUnits="userSpaceOnUse" x1="924.05634" y1="754.56683" x2="922.93536" y2="734.9776"><stop offset="0" stop-color="#926542"/><stop offset="1" stop-color="#AA8257"/></linearGradient></defs><path fill="url(#gradient_3)" transform="matrix(0.760456 0 0 0.760456 -611.407 -521.673)" d="M903.948 752.898C906.197 752.394 916.627 750.876 917.314 750.351C927.248 742.768 931.158 737.617 943.07 732.435C944.64 740.48 944.698 742.323 939.743 750.044C938.181 752.478 931.267 759.866 928.817 761.026C931.531 757.375 934.291 754.6 934.256 750.099C929.854 744.308 913.834 760.147 899.513 756.615C896.141 756.171 891.795 759.856 888.467 759.368C894.564 755.117 898.221 756.24 903.948 752.898Z"/><path fill="#4C2519" transform="matrix(0.760456 0 0 0.760456 -611.407 -521.673)" d="M970.129 748.027C972.145 754.58 971.869 761.371 971.017 768.121C965.294 774.101 932.816 792.955 925.69 791.528C946.67 783.686 954.195 776.659 970.041 761.47C970.631 755.726 969.443 752.548 970.129 748.027Z"/><path fill="#4C2519" transform="matrix(0.760456 0 0 0.760456 -611.407 -521.673)" d="M1018.93 853.853C1017.67 856.959 1010.96 862.685 1008.3 864.212L1007.19 863.214L1007.12 864.382L1008.28 864.204L1007.27 862.983C1010.34 854.963 1016.06 846.61 1020.68 839.445C1022.93 835.967 1020.19 834.947 1022.86 830.477C1023.53 840.824 1022.6 844.157 1018.93 853.853Z"/><path fill="#EDF3F2" transform="matrix(0.760456 0 0 0.760456 -611.407 -521.673)" d="M961.536 794.212C968.856 789.211 985.653 787.462 989.054 797.348L988.588 798.571C999.406 808.523 1002.59 828.326 994.476 840.848C986.885 854.481 967.81 857.056 957.995 843.865C950.703 834.065 950.425 826.147 951.612 814.53L949.72 812.258C949.358 814.155 949.131 816.639 947.982 818.078C945.46 812.741 956.73 797.343 961.536 794.212Z"/><path fill="#BBBBBA" transform="matrix(0.760456 0 0 0.760456 -611.407 -521.673)" d="M961.536 794.212C968.856 789.211 985.653 787.462 989.054 797.348L988.588 798.571C999.406 808.523 1002.59 828.326 994.476 840.848C995.24 831.278 997.411 824.409 994.456 814.66C988.746 795.817 975.033 794.959 959.044 799.28C960.643 797.67 962.447 796.508 964.294 795.161L961.536 794.212Z"/><path fill="#551110" transform="matrix(0.760456 0 0 0.760456 -611.407 -521.673)" d="M961.536 794.212C968.856 789.211 985.653 787.462 989.054 797.348L988.588 798.571C986.408 797.287 984.16 796.124 981.852 795.089C975.523 792.282 970.529 792.682 964.294 795.161L961.536 794.212Z"/><path fill="#4C2519" transform="matrix(0.760456 0 0 0.760456 -611.407 -521.673)" d="M951.612 814.53L949.72 812.258C949.358 814.155 949.131 816.639 947.982 818.078C945.46 812.741 956.73 797.343 961.536 794.212L964.294 795.161C962.447 796.508 960.643 797.67 959.044 799.28C954.76 804.259 952.645 807.747 951.612 814.53Z"/><path fill="#141414" transform="matrix(0.760456 0 0 0.760456 -611.407 -521.673)" d="M971.337 803.528C989.172 802.511 991.602 833.019 977.179 842.365C960.17 844.844 956.833 814.093 971.337 803.528Z"/><path fill="#EDF3F2" transform="matrix(0.760456 0 0 0.760456 -611.407 -521.673)" d="M876.484 820.452L875.743 821.095C873.794 806.109 884.93 791.063 900.502 790.67C905.439 790.545 913.236 791.824 916.839 795.326C916.16 797.074 916.42 796.454 914.929 797.887C922.352 805.716 924.158 812.909 924.381 823.234C924.682 837.187 914.263 853.861 898.84 852.298C881.388 850.53 876.672 834.884 876.484 820.452Z"/><path fill="#4C2519" transform="matrix(0.760456 0 0 0.760456 -611.407 -521.673)" d="M876.484 820.452L875.743 821.095C873.794 806.109 884.93 791.063 900.502 790.67C905.439 790.545 913.236 791.824 916.839 795.326C916.16 797.074 916.42 796.454 914.929 797.887C902.003 789.521 889.262 792.73 880.707 805.938C877.844 810.358 877.229 815.321 876.484 820.452Z"/><path fill="#141414" transform="matrix(0.760456 0 0 0.760456 -611.407 -521.673)" d="M898.229 803.463C916.062 802.713 917.308 832.937 902.999 842.442C889.489 844.397 887.046 827.467 889.091 817.676C890.584 810.534 892.316 807.429 898.229 803.463Z"/><path fill="#EDF3F2" transform="matrix(0.760456 0 0 0.760456 -611.407 -521.673)" d="M895.621 862.637C903.662 861.987 910.801 863.373 918.552 863.509C930.958 863.727 945.708 864.13 958.042 863.027L961.412 863.827L961.834 864.63C959.582 866.144 958.469 866.261 955.792 866.99C960.822 866.887 965.689 866.79 970.719 866.877L977.015 866.103C978.146 867.617 979.404 868.536 978.633 870.564C975.893 877.761 965.347 882.888 959.076 886.078C938.944 896.317 904.451 889.363 893.502 868.47C893.093 867.869 892.865 867.073 892.59 866.354C893.44 863.989 893.449 864.538 895.621 862.637Z"/><path fill="#BBBBBA" transform="matrix(0.760456 0 0 0.760456 -611.407 -521.673)" d="M895.621 862.637C903.662 861.987 910.801 863.373 918.552 863.509C930.958 863.727 945.708 864.13 958.042 863.027L961.412 863.827L961.834 864.63C959.582 866.144 958.469 866.261 955.792 866.99C960.822 866.887 965.689 866.79 970.719 866.877C960.432 875.792 914.849 873.342 902.333 868.183C900.563 867.454 899.204 867.117 897.164 866.71L896.448 866.573L893.502 868.47C893.093 867.869 892.865 867.073 892.59 866.354C893.44 863.989 893.449 864.538 895.621 862.637Z"/><defs><linearGradient id="gradient_4" gradientUnits="userSpaceOnUse" x1="929.43964" y1="866.88934" x2="929.03143" y2="860.86169"><stop offset="0" stop-color="#4E2217"/><stop offset="1" stop-color="#73442F"/></linearGradient></defs><path fill="url(#gradient_4)" transform="matrix(0.760456 0 0 0.760456 -611.407 -521.673)" d="M895.621 862.637C903.662 861.987 910.801 863.373 918.552 863.509C930.958 863.727 945.708 864.13 958.042 863.027L961.412 863.827L961.834 864.63C959.582 866.144 958.469 866.261 955.792 866.99C946.236 867.274 916.402 867.96 907.81 866.541C905.216 866.439 898.548 865.968 896.448 866.573L893.502 868.47C893.093 867.869 892.865 867.073 892.59 866.354C893.44 863.989 893.449 864.538 895.621 862.637Z"/><path fill="#6F5338" transform="matrix(0.760456 0 0 0.760456 -611.407 -521.673)" d="M893.502 868.47C893.093 867.869 892.865 867.073 892.59 866.354C893.44 863.989 893.449 864.538 895.621 862.637C900.381 864.788 902.547 863.987 907.81 866.541C905.216 866.439 898.548 865.968 896.448 866.573L893.502 868.47Z"/><path fill="#4C2519" transform="matrix(0.760456 0 0 0.760456 -611.407 -521.673)" d="M958.042 863.027C962.861 862.785 974.374 861.493 978.017 863.821L978.221 864.885L977.015 866.103L970.719 866.877C965.689 866.79 960.822 866.887 955.792 866.99C958.469 866.261 959.582 866.144 961.834 864.63L961.412 863.827L958.042 863.027Z"/></g></svg>