<?xml version="1.0" encoding="utf-8" ?><svg xmlns="http://www.w3.org/2000/svg" xmlns:xlink="http://www.w3.org/1999/xlink" width="200" height="200" viewBox="0 0 200 200"><clipPath id="cl_18"><rect x="-7.2479248e-05" y="-0.00021743774" width="200.00002" height="200"/></clipPath><g clip-path="url(#cl_18)"><defs><linearGradient id="gradient_0" gradientUnits="userSpaceOnUse" x1="164.35109" y1="171.98022" x2="114.40025" y2="42.088154"><stop offset="0" stop-color="#F0AD45"/><stop offset="1" stop-color="#FEE968"/></linearGradient></defs><path fill="url(#gradient_0)" transform="matrix(1.04712 0 0 1.04712 -40.8378 -21.9897)" d="M113.962 29.4719C116.952 30.7562 121.518 32.4936 124.055 34.2658L123.234 37.9554C144.405 34.5662 166.053 39.7679 183.368 52.4049C188.759 56.3561 193.567 61.3385 198.148 66.2528C199.937 68.1719 204.677 77.1397 205.789 77.6749C207.258 72.8199 213.197 75.1496 217.166 75.8738C217.375 79.6125 217.338 83.9377 216.333 87.5515C214.014 87.4811 212.585 87.2653 210.327 86.9067C215.542 101.223 216.863 114.369 215.062 129.489L217.108 130.115C226.378 134.321 226.09 152.222 217.639 157.353C216.021 154.934 215.844 154.848 213.01 154.15C211.157 154.926 210.618 155.23 208.965 156.375C207.761 157.475 207.133 158.02 206.805 159.728C206.043 159.828 203.799 160.065 203.198 160.303C196.417 170.361 189.435 177.918 178.975 184.431C177.863 185.123 174.639 187.043 173.522 187.338C173.624 189.931 173.725 192.397 173.698 194.996C171.138 195.165 164.792 196.002 162.742 194.75C162.212 194.006 162.357 193.404 162.421 192.484C149.421 197.226 130.711 198.054 117.266 194.843C115.592 194.568 110.876 192.972 109.889 193.225C109.284 192.806 103.089 190.354 101.207 189.335C85.5126 181.287 74.5089 171.35 65.8963 155.99C64.4552 157.271 62.7181 158.551 61.1768 159.738C58.8561 157.39 55.9101 153.156 54.0528 150.399C55.9368 148.938 58.9653 146.904 60.9725 145.671C53.8627 128.645 53.6122 99.8218 62.9227 83.5867C66.216 81.5106 69.7863 73.3554 72.839 69.5294C75.6344 66.0261 76.3417 65.1 79.7481 61.8229C86.4944 54.9022 93.0326 49.9686 101.236 44.9299C101.236 44.9298 101.63 44.0388 101.672 43.9444C102.476 43.8624 109.376 41.1694 110.848 40.6513L110.711 40.088C109.953 37.8612 112.597 31.5024 113.962 29.4719Z"/><path fill="#DB9338" transform="matrix(1.04712 0 0 1.04712 -40.8378 -21.9897)" d="M62.9227 83.5867C66.216 81.5106 69.7863 73.3554 72.839 69.5294C75.6344 66.0261 76.3417 65.1 79.7481 61.8229C78.549 65.8692 65.6181 80.7183 66.4375 84.0548C66.9368 83.386 67.8499 81.7883 68.363 81.5227C64.6579 95.1744 63.5769 112.543 69.6988 126.135C69.9801 126.759 70.2076 127.033 70.8214 127.219L72.0485 126.485C72.578 127.209 72.6261 127.345 72.8998 128.202C76.0328 127.695 77.3211 124.058 80.0865 122.35C84.5748 119.58 86.0879 118.465 91.2576 117.647C92.0635 116.493 91.9913 115.931 92.5948 115.061C93.5881 113.629 100.678 110.175 101.249 109.65C103.077 110.022 103.57 110.115 105.426 109.999C101.654 111.3 95.8585 113.532 93.6526 117.064C92.6062 118.74 93.7893 121.212 95.4984 121.953C96.916 122.568 98.516 122.095 99.9919 121.845L99.9149 121.904C98.9857 122.615 97.8271 123.089 96.6558 123.154C98.8265 127.815 93.8595 134.97 89.3704 136.703C85.4981 138.198 81.0875 137.465 79.82 142.271L78.9178 142.315C78.913 149.218 82.6772 153.761 87.7997 158.648C100.914 171.161 119.67 178.428 137.713 179.073C144.293 179.308 154.145 175.42 159.938 172.616C162.308 171.477 167.553 173.273 170.565 168.511C171.572 167.386 172.208 166.945 173.825 166.984L173.669 166.965C169.865 166.494 161.238 160.947 157.919 163.795C156.97 162.651 155.69 161.948 154.432 161.147L154.551 160.623C159.936 160.726 165.022 160.994 170.392 161.286C173.241 161.289 176.195 160.402 179.018 160.318C183.815 160.175 188.611 160.207 193.412 160.053C194.951 160.137 202.661 160.066 203.198 160.303C196.417 170.361 189.435 177.918 178.975 184.431C177.863 185.123 174.639 187.043 173.522 187.338C173.624 189.931 173.725 192.397 173.698 194.996C171.138 195.165 164.792 196.002 162.742 194.75C162.212 194.006 162.357 193.404 162.421 192.484C149.421 197.226 130.711 198.054 117.266 194.843C115.592 194.568 110.876 192.972 109.889 193.225C109.284 192.806 103.089 190.354 101.207 189.335C85.5126 181.287 74.5089 171.35 65.8963 155.99C64.4552 157.271 62.7181 158.551 61.1768 159.738C58.8561 157.39 55.9101 153.156 54.0528 150.399C55.9368 148.938 58.9653 146.904 60.9725 145.671C53.8627 128.645 53.6122 99.8218 62.9227 83.5867Z"/><path fill="#4064C1" transform="matrix(1.04712 0 0 1.04712 -40.8378 -21.9897)" d="M60.9725 145.671C62.146 144.849 62.058 144.623 63.3083 144.658C66.0458 146.13 67.9224 149.8 69.8228 152.406C69.0568 153.074 66.3705 155.332 65.8963 155.99C64.4552 157.271 62.7181 158.551 61.1768 159.738C58.8561 157.39 55.9101 153.156 54.0528 150.399C55.9368 148.938 58.9653 146.904 60.9725 145.671Z"/><path fill="#4064C1" transform="matrix(1.04712 0 0 1.04712 -40.8378 -21.9897)" d="M173.522 187.338C173.624 189.931 173.725 192.397 173.698 194.996C171.138 195.165 164.792 196.002 162.742 194.75C162.212 194.006 162.357 193.404 162.421 192.484C166.244 191.045 169.954 189.325 173.522 187.338Z"/><path fill="#3F52CD" transform="matrix(1.04712 0 0 1.04712 -40.8378 -21.9897)" d="M158.363 151.409C162.149 151.319 165.849 151.058 169.586 150.453C172.309 150.012 173.268 150.052 175.789 151.314L176.578 151.497C180.037 151.484 183.274 151.583 186.711 151.641C188.176 151.581 189.683 151.536 191.143 151.439L193.275 151.509C194.573 151.485 197.142 151.358 198.298 151.615C200.978 154.504 202.91 154.841 206.598 153.546C208.582 153.664 211.113 153.736 213.01 154.15C211.157 154.926 210.618 155.23 208.965 156.375C207.761 157.475 207.133 158.02 206.805 159.728C206.043 159.828 203.799 160.065 203.198 160.303C202.661 160.066 194.951 160.137 193.412 160.053C188.611 160.207 183.815 160.175 179.018 160.318C176.195 160.402 173.241 161.289 170.392 161.286C165.022 160.994 159.936 160.726 154.551 160.623C153.051 160.291 146.693 160.141 145.22 160.662C142.882 160.052 137.387 158.595 139.111 155.154C140.196 152.988 143.252 152.2 145.404 151.424L152.839 151.589L153.558 151.448L158.363 151.409Z"/><path fill="#27265F" transform="matrix(1.04712 0 0 1.04712 -40.8378 -21.9897)" d="M145.404 151.424L152.839 151.589C150.398 152.126 149.517 152.791 147.551 154.342C146.713 155.339 146.396 155.653 145.959 156.911C146.256 157.444 146.272 157.445 146.872 157.616C149.68 158.417 164.844 158.89 166.99 157.654C167.618 157.292 167.704 157.041 168.451 157.209C168.662 158.007 168.863 158.808 169.052 159.612C172.174 160.578 188.997 159 193.664 159.092L193.412 160.053C188.611 160.207 183.815 160.175 179.018 160.318C176.195 160.402 173.241 161.289 170.392 161.286C165.022 160.994 159.936 160.726 154.551 160.623C153.051 160.291 146.693 160.141 145.22 160.662C142.882 160.052 137.387 158.595 139.111 155.154C140.196 152.988 143.252 152.2 145.404 151.424Z"/><path fill="#4064C1" transform="matrix(1.04712 0 0 1.04712 -40.8378 -21.9897)" d="M193.275 151.509C194.573 151.485 197.142 151.358 198.298 151.615C200.978 154.504 202.91 154.841 206.598 153.546C208.582 153.664 211.113 153.736 213.01 154.15C211.157 154.926 210.618 155.23 208.965 156.375C207.761 157.475 207.133 158.02 206.805 159.728C206.043 159.828 203.799 160.065 203.198 160.303C202.661 160.066 194.951 160.137 193.412 160.053L193.664 159.092C194.312 158.374 194.209 157.993 194.406 156.948C193.821 156.413 193.202 155.633 192.68 155.013C194.335 155.18 197.976 156.06 197.997 153.754C196.731 152.168 195.18 151.922 193.275 151.509Z"/><path fill="#5F6FD7" transform="matrix(1.04712 0 0 1.04712 -40.8378 -21.9897)" d="M193.275 151.509C194.573 151.485 197.142 151.358 198.298 151.615C200.978 154.504 202.91 154.841 206.598 153.546C208.582 153.664 211.113 153.736 213.01 154.15C211.157 154.926 210.618 155.23 208.965 156.375C203.039 155.87 198.691 157.149 194.406 156.948C193.821 156.413 193.202 155.633 192.68 155.013C194.335 155.18 197.976 156.06 197.997 153.754C196.731 152.168 195.18 151.922 193.275 151.509Z"/><path fill="#91B3F4" transform="matrix(1.04712 0 0 1.04712 -40.8378 -21.9897)" d="M175.789 151.314L176.578 151.497C180.037 151.484 183.274 151.583 186.711 151.641C188.176 151.581 189.683 151.536 191.143 151.439L193.275 151.509C195.18 151.922 196.731 152.168 197.997 153.754C197.976 156.06 194.335 155.18 192.68 155.013C189.486 153.583 185.842 155.933 181.659 155.692C179.342 155.678 177.163 155.572 174.854 155.452C174.741 154.204 174.468 152.706 174.93 151.584L175.789 151.314Z"/><path fill="#EA56C2" transform="matrix(1.04712 0 0 1.04712 -40.8378 -21.9897)" d="M176.578 151.497C180.037 151.484 183.274 151.583 186.711 151.641C185.589 152.388 184.456 153.12 183.315 153.838C182.837 153.905 182.355 153.954 181.873 153.984C179.226 154.143 178.506 153.211 176.578 151.497Z"/><path fill="#5F6FD7" transform="matrix(1.04712 0 0 1.04712 -40.8378 -21.9897)" d="M153.558 151.448L158.363 151.409L158.488 151.434C161.172 151.935 165.652 151.079 167.281 152.014C167.556 152.909 167.49 153.062 167.238 153.966C166.481 155.018 164.952 155.764 163.739 155.754C160.525 155.73 149.532 156.597 147.551 154.342C149.517 152.791 150.398 152.126 152.839 151.589L153.558 151.448Z"/><path fill="#5F6FD7" transform="matrix(1.04712 0 0 1.04712 -40.8378 -21.9897)" d="M168.89 151.447C170.335 151.322 171.72 150.943 172.714 152.133C172.725 153.057 172.293 153.46 171.726 154.2C170.937 154.603 170.096 155.162 169.249 155.02C168.604 153.93 168.872 152.899 168.89 151.447Z"/><path fill="#4064C1" transform="matrix(1.04712 0 0 1.04712 -40.8378 -21.9897)" d="M215.062 129.489L217.108 130.115C226.378 134.321 226.09 152.222 217.639 157.353C216.021 154.934 215.844 154.848 213.01 154.15C211.113 153.736 208.582 153.664 206.598 153.546C202.91 154.841 200.978 154.504 198.298 151.615C200.659 151.28 203.203 151.119 205.591 150.923C204.086 150.027 202.579 149.259 201.497 147.882C199.579 146.144 199.829 140.173 199.651 137.292C201.146 133.833 202.427 131.012 206.672 130.861C210.846 130.177 209.037 128.87 215.062 129.489Z"/><path fill="#27265F" transform="matrix(1.04712 0 0 1.04712 -40.8378 -21.9897)" d="M213.112 149.478C214.966 148.525 216.458 147.675 218.505 147.173C217.53 148.168 216.716 148.973 215.867 150.09L216.033 150.45C217.005 150.452 217.187 150.445 218.12 150.182C216.892 153.886 209.557 152.602 206.598 153.546C202.91 154.841 200.978 154.504 198.298 151.615C200.659 151.28 203.203 151.119 205.591 150.923C204.086 150.027 202.579 149.259 201.497 147.882C204.691 149.873 209.543 151.715 213.112 149.478Z"/><path fill="#976124" transform="matrix(1.04712 0 0 1.04712 -40.8378 -21.9897)" d="M207.191 136.284C207.514 136.362 212.717 138.828 212.871 138.986C212.206 141.001 211.29 143.447 211.093 145.519C207.51 145.164 203.832 143.845 205.037 139.406C205.712 138.167 206.34 137.393 207.191 136.284Z"/><path fill="#5F6FD7" transform="matrix(1.04712 0 0 1.04712 -40.8378 -21.9897)" d="M216.399 134.972C221.683 140.285 219.542 142.184 220.995 143.976C220.55 144.619 219.043 146.82 218.505 147.173C216.458 147.675 214.966 148.525 213.112 149.478L212.949 148.285C218.168 144.619 219.159 140.703 214.611 135.952L216.399 134.972Z"/><path fill="#5F6FD7" transform="matrix(1.04712 0 0 1.04712 -40.8378 -21.9897)" d="M204.787 135.137C207.021 133.283 207.434 132.825 210.388 132.537L211.261 134.579C210.045 134.945 207.924 135.411 207.191 136.284C206.34 137.393 205.712 138.167 205.037 139.406L204.154 139.008C205.062 137.067 205.253 136.984 204.787 135.137Z"/><path fill="#AA2683" transform="matrix(1.04712 0 0 1.04712 -40.8378 -21.9897)" d="M210.388 132.537C212.372 131.523 215.338 133.237 216.399 134.972L214.611 135.952C213.24 135.496 212.559 135.207 211.261 134.579L210.388 132.537Z"/><path fill="#E4DDE6" transform="matrix(1.04712 0 0 1.04712 -40.8378 -21.9897)" d="M220.995 143.976C220.931 149.391 219.209 147.628 218.12 150.182C217.187 150.445 217.005 150.452 216.033 150.45L215.867 150.09C216.716 148.973 217.53 148.168 218.505 147.173C219.043 146.82 220.55 144.619 220.995 143.976Z"/><path fill="#E4DDE6" transform="matrix(1.04712 0 0 1.04712 -40.8378 -21.9897)" d="M212.871 138.986C215.193 141.424 213.79 144.389 211.093 145.519C211.29 143.447 212.206 141.001 212.871 138.986Z"/><path fill="#AA2683" transform="matrix(1.04712 0 0 1.04712 -40.8378 -21.9897)" d="M204.154 139.008C203.139 139.871 203.365 139.955 202.257 140.057C201.789 138.324 203.248 135.982 204.787 135.137C205.253 136.984 205.062 137.067 204.154 139.008Z"/><defs><linearGradient id="gradient_1" gradientUnits="userSpaceOnUse" x1="108.30451" y1="109.98997" x2="109.45271" y2="120.01848"><stop offset="0" stop-color="#643611"/><stop offset="1" stop-color="#946325"/></linearGradient></defs><path fill="url(#gradient_1)" transform="matrix(1.04712 0 0 1.04712 -40.8378 -21.9897)" d="M105.426 109.999C111.926 108.91 120.617 107.463 124.838 113.719C127.053 120.633 118.003 119.545 113.966 119.458C109.094 119.355 104.535 120.062 99.9919 121.845C98.516 122.095 96.916 122.568 95.4984 121.953C93.7893 121.212 92.6062 118.74 93.6526 117.064C95.8585 113.532 101.654 111.3 105.426 109.999Z"/><path fill="#EDB54C" transform="matrix(1.04712 0 0 1.04712 -40.8378 -21.9897)" d="M113.962 29.4719C116.952 30.7562 121.518 32.4936 124.055 34.2658L123.234 37.9554C144.405 34.5662 166.053 39.7679 183.368 52.4049C188.759 56.3561 193.567 61.3385 198.148 66.2528C199.937 68.1719 204.677 77.1397 205.789 77.6749L205.929 78.0751C205.829 78.6535 205.724 79.2311 205.615 79.8078L205.188 80.0426C205.609 80.3865 198.915 69.2749 198.067 68.1584C194.738 64.6846 190.042 58.8612 186.301 55.8994C171.177 43.9261 153.213 37.0608 133.738 37.8839C131.468 37.9799 124.75 37.9865 123.614 39.1767C124.39 39.7568 125.538 38.8199 127.093 38.7357C130.894 38.53 139.301 38.1049 142.744 38.9656L142.962 39.3734C142.145 39.615 142.058 39.9322 141.353 40.1642L142.555 40.393L142.457 40.6675C140.783 41.0463 137.306 40.3764 135.377 40.4483C131.288 40.6009 127.18 40.7008 123.141 41.4765C122.018 41.6922 122.074 41.9696 121.373 42.8549L120.642 43.376L119.682 43.1193C117.511 42.2849 112.95 40.2786 110.848 40.6513L110.711 40.088C109.953 37.8612 112.597 31.5024 113.962 29.4719Z"/><path fill="#976124" transform="matrix(1.04712 0 0 1.04712 -40.8378 -21.9897)" d="M110.711 40.088C111.067 39.7475 111.258 39.4195 111.666 39.483C113.845 39.8218 119.269 41.3556 121.14 42.1325L121.373 42.8549L120.642 43.376L119.682 43.1193C117.511 42.2849 112.95 40.2786 110.848 40.6513L110.711 40.088Z"/><path fill="#EDB54C" transform="matrix(1.04712 0 0 1.04712 -40.8378 -21.9897)" d="M110.848 40.6513C112.95 40.2786 117.511 42.2849 119.682 43.1193C108.958 44.745 90.975 56.2173 82.0967 62.7078C78.8343 65.0928 70.2967 77.7327 68.363 81.5227C67.8499 81.7883 66.9368 83.386 66.4375 84.0548C65.6181 80.7183 78.549 65.8692 79.7481 61.8229C86.4944 54.9022 93.0326 49.9686 101.236 44.9299C101.236 44.9298 101.63 44.0388 101.672 43.9444C102.476 43.8624 109.376 41.1694 110.848 40.6513Z"/><path fill="#6E3F16" transform="matrix(1.04712 0 0 1.04712 -40.8378 -21.9897)" d="M145.22 160.662C146.693 160.141 153.051 160.291 154.551 160.623L154.432 161.147C155.69 161.948 156.97 162.651 157.919 163.795C159.847 169.111 155.009 170.767 150.88 172.255C148.445 173.132 138.896 175.63 136.862 174.69C136.795 174.494 136.587 173.937 136.572 173.769C137.836 172.228 137.255 171.61 139.717 170.979C144.372 169.785 147.023 168.891 150.939 166.044C149.177 163.202 147.956 162.505 145.22 160.662Z"/><path fill="#DB9338" transform="matrix(1.04712 0 0 1.04712 -40.8378 -21.9897)" d="M150.939 166.044C150.537 171.764 140.86 171.813 136.572 173.769C137.836 172.228 137.255 171.61 139.717 170.979C144.372 169.785 147.023 168.891 150.939 166.044Z"/><path fill="#E9EB63" transform="matrix(1.04712 0 0 1.04712 -40.8378 -21.9897)" d="M205.789 77.6749C207.258 72.8199 213.197 75.1496 217.166 75.8738C217.375 79.6125 217.338 83.9377 216.333 87.5515C213.325 86.47 213.108 86.4591 209.871 86.2109C208.961 85.9817 206.674 85.8895 205.626 85.8233C205.753 83.1665 206.209 80.7576 205.929 78.0751L205.789 77.6749Z"/><path fill="#DB9338" transform="matrix(1.04712 0 0 1.04712 -40.8378 -21.9897)" d="M209.871 86.2109C213.108 86.4591 213.325 86.47 216.333 87.5515C214.014 87.4811 212.585 87.2653 210.327 86.9067C215.542 101.223 216.863 114.369 215.062 129.489C209.037 128.87 210.846 130.177 206.672 130.861C206.538 130.06 206.375 129.581 206.753 128.869C208.076 128.007 210.985 129.672 211.305 127.987C213.004 119.038 215.093 106.103 212.075 97.4175C210.421 92.6578 211.335 89.0111 206.56 86.503C207.281 86.1578 208.984 86.228 209.871 86.2109Z"/><path fill="#6E3F16" transform="matrix(1.04712 0 0 1.04712 -40.8378 -21.9897)" d="M150.189 143.366C148.74 142.259 148.326 141.981 146.744 141.236C144.497 140.177 137.413 139.073 136.33 137.187C139.175 134.835 155.199 139.23 157.203 142.624C157.444 143.032 157.934 143.595 158.229 143.982C158.129 144.754 158.098 145.453 157.715 146.128C155.382 146.489 155.541 142.425 150.189 143.366Z"/><path fill="#6E3F16" transform="matrix(1.04712 0 0 1.04712 -40.8378 -21.9897)" d="M150.189 143.366C155.541 142.425 155.382 146.489 157.715 146.128C158.098 145.453 158.129 144.754 158.229 143.982C158.887 148.893 156.467 148.399 153.558 151.448L152.839 151.589L145.404 151.424C148.715 150.03 151.376 147.135 150.189 143.366Z"/><path fill="#DB9338" transform="matrix(1.04712 0 0 1.04712 -40.8378 -21.9897)" d="M191.143 151.439C192.499 151.176 193.744 150.923 195.088 150.594C196.359 146.078 197.882 141.637 199.651 137.292C199.829 140.173 199.579 146.144 201.497 147.882C202.579 149.259 204.086 150.027 205.591 150.923C203.203 151.119 200.659 151.28 198.298 151.615C197.142 151.358 194.573 151.485 193.275 151.509L191.143 151.439Z"/><path fill="#EDB54C" transform="matrix(1.04712 0 0 1.04712 -40.8378 -21.9897)" d="M101.249 109.65C105.762 107.382 125.925 105.032 124.838 113.719C120.617 107.463 111.926 108.91 105.426 109.999C103.57 110.115 103.077 110.022 101.249 109.65Z"/><defs><linearGradient id="gradient_2" gradientUnits="userSpaceOnUse" x1="135.67865" y1="84.953232" x2="135.45779" y2="45.496716"><stop offset="0" stop-color="#FEF67E"/><stop offset="1" stop-color="#FFFFEC"/></linearGradient></defs><path fill="url(#gradient_2)" transform="matrix(1.04712 0 0 1.04712 -40.8378 -21.9897)" d="M157.792 43.8922C158.961 45.99 160.158 48.2358 161.46 50.2414C166.065 48.4688 185.29 63.4195 188.317 67.5113C189.618 69.2699 191.629 71.5225 193.003 73.2927L192.785 73.5589C191.966 72.6039 191.18 71.6203 190.431 70.6098C189.067 70.9386 185.981 74.7165 184.853 75.1571C182.232 76.1816 178.573 79.0953 176.396 80.1056C179.964 82.0651 182.477 82.0429 187.551 85.1112L187.621 85.5007C188.665 86.6015 190.384 88.0614 190.819 89.3246C190.748 89.7007 190.64 90.4023 190.499 90.7265C190.909 91.7585 191.191 92.206 190.871 93.2403C189.696 93.975 188.917 93.72 187.611 93.3094L187.115 93.6644C186.455 93.6763 184.725 92.9563 184.068 92.6636C177.976 89.9481 175.015 89.377 168.495 88.5125C164.119 87.5284 159.552 89.6331 155.313 89.1855C152.633 88.9025 154.437 84.2688 150.453 84.4459C141.758 84.8322 129.201 86.1896 120.844 84.3908C118.427 85.5988 119.922 90.1926 114.234 89.1414C106.532 87.7181 100.694 88.6226 93.2767 90.7127L93.1013 90.2585C89.1867 91.3557 84.8569 93.9227 81.2429 93.7499C80.6046 87.4136 82.6591 87.1021 87.7089 84.3179L88.2042 83.9075L88.1959 83.7574C88.9338 82.5008 94.1842 80.844 95.7771 80.3411C90.8494 78.6056 86.0457 74.2088 82.0397 71.4689L80.9496 72.5123L80.5103 72.4792C80.5638 72.3206 80.6282 72.1659 80.7029 72.0162C80.972 71.4687 82.0715 70.3567 82.5137 69.8144C97.3162 51.6597 123.001 42.2066 146.08 45.5705C147.462 45.772 149.745 46.1767 150.934 46.8168C152.733 46.3997 156.08 44.7801 157.792 43.8922Z"/><path fill="#6E3F16" transform="matrix(1.04712 0 0 1.04712 -40.8378 -21.9897)" d="M88.2042 83.9075C96.8159 80.0457 105.256 78.1923 114.549 80.9006C116.837 81.5674 118.722 83.6128 118.324 86.0982C118.182 87.5357 118.394 87.0492 117.553 88.1312C115.527 89.0461 109.812 87.9629 107.27 87.8547C103.633 87.6999 96.4014 88.5874 93.1013 90.2585C89.1867 91.3557 84.8569 93.9227 81.2429 93.7499C80.6046 87.4136 82.6591 87.1021 87.7089 84.3179L88.2042 83.9075Z"/><path fill="#EDB54C" transform="matrix(1.04712 0 0 1.04712 -40.8378 -21.9897)" d="M88.2042 83.9075C96.8159 80.0457 105.256 78.1923 114.549 80.9006C116.837 81.5674 118.722 83.6128 118.324 86.0982C110.857 77.4124 95.4746 81.7836 86.9185 86.525C84.6193 88.0048 82.0651 89.5829 81.4493 92.4934C81.3604 92.9087 81.2915 93.328 81.2429 93.7499C80.6046 87.4136 82.6591 87.1021 87.7089 84.3179L88.2042 83.9075Z"/><path fill="#6E3F16" transform="matrix(1.04712 0 0 1.04712 -40.8378 -21.9897)" d="M153.772 87.2445C153.975 86.0597 153.674 85.6307 153.752 84.5019C158.663 76.2584 176.746 80.2619 183.709 83.6737C184.44 84.0191 187.088 85.361 187.621 85.5007C188.665 86.6015 190.384 88.0614 190.819 89.3246C190.748 89.7007 190.64 90.4023 190.499 90.7265C190.909 91.7585 191.191 92.206 190.871 93.2403C189.696 93.975 188.917 93.72 187.611 93.3094C177.463 89.1959 169.848 86.4681 158.998 88.4219C156.851 88.8086 155.459 88.6614 153.772 87.2445Z"/><path fill="#EDB54C" transform="matrix(1.04712 0 0 1.04712 -40.8378 -21.9897)" d="M153.772 87.2445C153.975 86.0597 153.674 85.6307 153.752 84.5019C158.663 76.2584 176.746 80.2619 183.709 83.6737C184.44 84.0191 187.088 85.361 187.621 85.5007C188.665 86.6015 190.384 88.0614 190.819 89.3246C190.748 89.7007 190.64 90.4023 190.499 90.7265C188.55 88.3736 186.82 87.3123 184.282 85.7345C176.771 82.1979 158.02 76.9088 153.772 87.2445Z"/><path fill="#D3536C" transform="matrix(1.04712 0 0 1.04712 -40.8378 -21.9897)" d="M157.792 43.8922C158.961 45.99 160.158 48.2358 161.46 50.2414C162.279 51.5569 163.085 52.3345 164.147 53.4492C160.525 55.4191 156.73 57.5692 152.993 59.265C151.532 57.4023 148.571 50.9233 147.383 48.448L150.934 46.8168C152.733 46.3997 156.08 44.7801 157.792 43.8922Z"/><defs><linearGradient id="gradient_3" gradientUnits="userSpaceOnUse" x1="163.26788" y1="110.03129" x2="162.0231" y2="120.09171"><stop offset="0" stop-color="#633510"/><stop offset="1" stop-color="#956325"/></linearGradient></defs><path fill="url(#gradient_3)" transform="matrix(1.04712 0 0 1.04712 -40.8378 -21.9897)" d="M146.616 114.615C143.352 104.988 171.996 105.548 178.114 115.174C178.098 115.599 178.107 116.09 177.995 116.492C180.027 121.13 176.186 122.912 172.212 121.795C168.687 120.804 165.225 119.883 161.614 119.269C157.226 118.523 145.912 122.392 146.616 114.615Z"/><path fill="#EDB54C" transform="matrix(1.04712 0 0 1.04712 -40.8378 -21.9897)" d="M146.616 114.615C143.352 104.988 171.996 105.548 178.114 115.174C178.098 115.599 178.107 116.09 177.995 116.492C171.608 110.19 158.495 106.911 150.15 110.697C148.527 111.434 147.486 113.152 146.616 114.615Z"/><path fill="#3F52CD" transform="matrix(1.04712 0 0 1.04712 -40.8378 -21.9897)" d="M50.0242 38.831C49.3742 36.6137 48.0768 33.0851 49.0782 30.8353C50.5416 27.5478 57.1973 29.495 59.6873 30.6468C61.5207 31.3214 64.9038 32.3842 66.8689 32.7791C69.9253 33.6276 72.3034 34.3459 75.1628 35.8486C78.0625 36.7638 82.5632 38.3214 85.4089 38.9162C87.7909 39.5823 90.1531 40.2069 92.4737 41.0681C95.5878 42.1437 98.5079 43.0212 101.672 43.9444C101.63 44.0388 101.236 44.9298 101.236 44.9299C93.0326 49.9686 86.4944 54.9022 79.7481 61.8229C76.3417 65.1 75.6344 66.0261 72.839 69.5294C69.7863 73.3554 66.216 81.5106 62.9227 83.5867C62.6604 81.0507 61.0395 75.9109 60.2764 73.4112C59.2645 70.5694 58.8229 68.5731 58.1622 65.6284C57.1253 61.8335 56.0966 57.8342 54.9207 54.097L52.7388 47.6782C51.8632 44.7203 50.9583 41.771 50.0242 38.831Z"/><path fill="#3F52CD" transform="matrix(1.04712 0 0 1.04712 -40.8378 -21.9897)" d="M50.0242 38.831C49.3742 36.6137 48.0768 33.0851 49.0782 30.8353C50.5416 27.5478 57.1973 29.495 59.6873 30.6468C61.5207 31.3214 64.9038 32.3842 66.8689 32.7791C69.9253 33.6276 72.3034 34.3459 75.1628 35.8486C78.0625 36.7638 82.5632 38.3214 85.4089 38.9162L84.3091 39.9997C81.4002 41.3691 76.0456 44.7657 73.8354 47.0593C67.3675 51.2751 61.9744 59.0856 58.1622 65.6284C57.1253 61.8335 56.0966 57.8342 54.9207 54.097L52.7388 47.6782C51.8632 44.7203 50.9583 41.771 50.0242 38.831Z"/><path fill="#3F52CD" transform="matrix(1.04712 0 0 1.04712 -40.8378 -21.9897)" d="M50.0242 38.831C49.3742 36.6137 48.0768 33.0851 49.0782 30.8353C50.5416 27.5478 57.1973 29.495 59.6873 30.6468C61.5207 31.3214 64.9038 32.3842 66.8689 32.7791C66.5045 34.7862 63.1618 36.2374 61.3745 37.4417C59.7184 38.9366 58.9284 39.6453 57.5286 41.3722C56.3708 42.8005 53.9409 46.707 52.7388 47.6782C51.8632 44.7203 50.9583 41.771 50.0242 38.831Z"/><path fill="#EA56C2" transform="matrix(1.04712 0 0 1.04712 -40.8378 -21.9897)" d="M50.0242 38.831C49.3742 36.6137 48.0768 33.0851 49.0782 30.8353C50.5416 27.5478 57.1973 29.495 59.6873 30.6468C54.844 32.6769 53.2571 34.6756 50.0242 38.831Z"/><path fill="#EA56C2" transform="matrix(1.04712 0 0 1.04712 -40.8378 -21.9897)" d="M61.3745 37.4417C62.3274 39.1489 63.3478 40.0524 65.0477 41.0645C58.5038 46.125 58.7673 49.4831 54.9207 54.097L52.7388 47.6782C53.9409 46.707 56.3708 42.8005 57.5286 41.3722C58.9284 39.6453 59.7184 38.9366 61.3745 37.4417Z"/><path fill="#EEA6E0" transform="matrix(1.04712 0 0 1.04712 -40.8378 -21.9897)" d="M66.8689 32.7791C69.9253 33.6276 72.3034 34.3459 75.1628 35.8486C71.0306 36.552 68.5845 38.7685 65.0477 41.0645C63.3478 40.0524 62.3274 39.1489 61.3745 37.4417C63.1618 36.2374 66.5045 34.7862 66.8689 32.7791Z"/><path fill="#EA56C2" transform="matrix(1.04712 0 0 1.04712 -40.8378 -21.9897)" d="M73.8354 47.0593L74.5089 47.2915C74.972 46.8741 75.3385 46.4882 75.9258 46.2639C76.0649 48.4778 75.7754 48.2942 77.9306 49.4097C77.5586 50.0539 77.3521 50.1139 76.7109 50.4348L76.8765 51.2533C71.066 55.6265 66.8674 61.3441 63.1021 67.559C61.949 69.4623 61.2348 71.6977 60.2764 73.4112C59.2645 70.5694 58.8229 68.5731 58.1622 65.6284C61.9744 59.0856 67.3675 51.2751 73.8354 47.0593Z"/><path fill="#EEA6E0" transform="matrix(1.04712 0 0 1.04712 -40.8378 -21.9897)" d="M85.4089 38.9162C87.7909 39.5823 90.1531 40.2069 92.4737 41.0681C91.7755 41.5247 90.9631 42.116 90.1828 42.3579C85.3125 45.35 81.538 47.961 76.8765 51.2533L76.7109 50.4348C77.3521 50.1139 77.5586 50.0539 77.9306 49.4097C75.7754 48.2942 76.0649 48.4778 75.9258 46.2639C75.3385 46.4882 74.972 46.8741 74.5089 47.2915L73.8354 47.0593C76.0456 44.7657 81.4002 41.3691 84.3091 39.9997L85.4089 38.9162Z"/><path fill="#EA56C2" transform="matrix(1.04712 0 0 1.04712 -40.8378 -21.9897)" d="M85.4089 38.9162C87.7909 39.5823 90.1531 40.2069 92.4737 41.0681C91.7755 41.5247 90.9631 42.116 90.1828 42.3579C89.3117 41.8523 85.4513 40.4419 84.3091 39.9997L85.4089 38.9162Z"/><path fill="#D3536C" transform="matrix(1.04712 0 0 1.04712 -40.8378 -21.9897)" d="M66.7024 180.295C67.5869 180.391 73.2875 186.216 73.5686 187.48C72.9235 189.527 67.9023 194.545 66.1304 195.724C64.0882 194.609 61.0491 192.113 59.5116 190.4C56.1322 186.633 64.1335 182.166 66.7024 180.295Z"/><path fill="#4064C1" transform="matrix(1.04712 0 0 1.04712 -40.8378 -21.9897)" d="M195.6 34.1501C198.99 35.7382 202.35 37.3865 205.681 39.094C204.274 42.3808 203.013 45.8675 201.48 49.0633C191.589 45.4913 187.832 45.1125 195.6 34.1501Z"/><path fill="#EDB54C" transform="matrix(1.04712 0 0 1.04712 -40.8378 -21.9897)" d="M207.007 172.644C207.361 172.592 208.056 172.688 208.441 172.726C209.742 173.93 210.733 180.507 211.314 182.924L202.258 184.244C201.531 184.379 201.439 184.34 200.754 184.051C199.276 182.271 198.733 176.555 198.351 173.992L207.007 172.644Z"/><path fill="#E9EB63" transform="matrix(1.04712 0 0 1.04712 -40.8378 -21.9897)" d="M101.207 189.335C103.089 190.354 109.284 192.806 109.889 193.225C109.094 195.687 102.784 198.776 100.187 200.834C98.0771 198.336 96.051 195.645 94.0495 193.05C96.414 191.771 98.8 190.533 101.207 189.335Z"/><path fill="#AA2683" transform="matrix(1.04712 0 0 1.04712 -40.8378 -21.9897)" d="M213.01 154.15C215.844 154.848 216.021 154.934 217.639 157.353C213.413 159.519 211.598 159.611 206.805 159.728C207.133 158.02 207.761 157.475 208.965 156.375C210.618 155.23 211.157 154.926 213.01 154.15Z"/></g></svg>