<?xml version="1.0" encoding="utf-8" ?><svg xmlns="http://www.w3.org/2000/svg" xmlns:xlink="http://www.w3.org/1999/xlink" width="200" height="190" viewBox="0 0 200 190"><clipPath id="cl_1e"><rect x="1.335144e-05" width="200" height="190"/></clipPath><g clip-path="url(#cl_1e)"><path fill="#E2E3E3" transform="matrix(0.714286 0 0 0.716981 -21.4286 0)" d="M75.279 39.4546C80.4486 33.1534 90.0242 29.3292 98.0134 28.7356C115.281 27.4526 129.603 36.0141 143.023 45.3619C153.117 44.7556 160.927 43.1872 171.278 43.4219C179.117 43.5997 187.371 45.4178 194.367 45.6067C210.124 34.6375 226.442 25.0506 246.549 30.1585C254.454 32.1666 260.54 35.6978 264.798 42.8303C272.992 52.9616 277.081 62.484 275.748 75.6034C274.384 89.0225 266.927 98.3454 262.48 109.361L263.006 110.239C271.705 124.595 283.054 134.17 285.169 153.386C287.421 164.582 287.827 170.524 286.401 181.844C283.26 206.794 266.042 229.168 240.738 234.306C227.369 237.02 212.168 234.783 198.606 236.532C186.5 240.124 182.941 246.849 169.185 247.7C156.415 248.491 149.891 238.011 140.761 236.707C119.217 233.629 99.1004 240.691 79.4251 226.939C64.1565 216.267 54.6197 202.627 51.3934 183.87C50.2885 177.991 49.6126 166.565 50.8886 160.913C52.1229 148.356 56.8817 135.111 64.2399 124.818C67.8886 119.715 72.6567 114.427 75.5138 108.908C59.424 86.0548 54.2616 61.4087 75.279 39.4546Z"/><path fill="#EBEAEC" transform="matrix(0.714286 0 0 0.716981 -21.4286 0)" d="M128.726 200.327C127.556 205.374 123.79 206.428 123.712 215.825L123.71 216.868C123.585 216.287 123.46 215.706 123.334 215.125C119.538 213.653 112.851 213.38 108.758 212.261C104.331 211.033 100.124 209.119 96.2889 206.589C78.7876 194.932 71.2939 168.111 81.0433 148.807C82.279 146.361 85.2008 143.899 86.3945 141.68C90.6 133.865 96.783 136.523 103.794 137.456C105.566 134.948 107.685 131.492 109.851 129.447C112.458 126.984 118.07 125.008 120.313 122.502C120.536 111.462 134.44 93.121 143.136 86.5996C152.13 79.7953 163.494 76.9222 174.64 78.6349C190.018 81.0214 201.865 92.3466 209.281 105.489C211.191 108.873 215.082 113.665 214.171 117.667C213.946 118.654 213.769 119.153 213.622 120.256C214.385 121.863 215.445 122.179 217.052 123.086L217.743 123.47L216.972 123.917C223.029 127.521 225.076 128.342 229.343 134.05L230.543 134.968C237.985 147.27 242.221 162.87 238.954 177.127C235.802 190.885 224.592 203.995 209.145 200.329C209.695 202.184 211.918 207.75 212.968 209.281C212.169 210.502 211.102 212.009 210.451 213.273L210.753 215.676C209.349 234.368 179.087 232.77 166.072 231.489C160.197 230.91 152.52 235.105 146.677 231.657C142.545 229.915 132.95 225.62 128.919 225.666C129.129 224.516 129.05 225.433 128.876 224.172C126.477 206.77 127.707 202.516 145.423 203.647C147.485 196.801 153.112 195.457 159.22 193.914C152.901 190.469 146.824 201.034 141.353 200.568C137.732 200.26 135.476 202.632 131.716 201.607L131.52 200.741C135.259 196.261 150.68 188.098 150.939 183.793C143.864 188.622 136.606 195.145 128.726 200.327Z"/><defs><linearGradient id="gradient_0" gradientUnits="userSpaceOnUse" x1="207.93301" y1="131.83464" x2="206.61208" y2="199.20021"><stop offset="0" stop-color="#1F1E1E"/><stop offset="1" stop-color="#565656"/></linearGradient></defs><path fill="url(#gradient_0)" transform="matrix(0.714286 0 0 0.716981 -21.4286 0)" d="M180.368 136.671C188.756 121.424 201.234 118.109 216.972 123.917C223.029 127.521 225.076 128.342 229.343 134.05L230.543 134.968C237.985 147.27 242.221 162.87 238.954 177.127C235.802 190.885 224.592 203.995 209.145 200.329C207.495 199.018 207.397 199.088 205.389 198.327C196.059 189.57 182.622 184.095 177.201 169.151C173.364 158.572 175.737 146.557 180.368 136.671Z"/><path fill="#282626" transform="matrix(0.714286 0 0 0.716981 -21.4286 0)" d="M180.368 136.671C188.756 121.424 201.234 118.109 216.972 123.917C223.029 127.521 225.076 128.342 229.343 134.05C228.676 133.714 227.863 133.304 226.906 132.822C222.887 134.002 219.198 135.442 214.968 135.689C206.688 136.171 198.526 135.364 190.19 135.442C186.22 135.479 183.393 136.681 180.368 136.671Z"/><path fill="#282626" transform="matrix(0.714286 0 0 0.716981 -21.4286 0)" d="M212.308 149.908C210.035 146.867 207.749 147.695 204.237 147.864L203.803 147.249C207.217 146.542 209.359 145.643 212.18 147.657C216.178 150.512 217.865 154.668 218.549 159.389C219.134 163.602 218.9 167.889 217.859 172.013C213.036 185.51 201.748 185.422 198.244 171.84C197.079 165.982 195.878 149.159 204.704 148.99C208.261 148.904 208.956 148.823 212.308 149.908Z"/><path fill="#131213" transform="matrix(0.714286 0 0 0.716981 -21.4286 0)" d="M212.308 149.908C210.035 146.867 207.749 147.695 204.237 147.864L203.803 147.249C207.217 146.542 209.359 145.643 212.18 147.657C216.178 150.512 217.865 154.668 218.549 159.389C219.134 163.602 218.9 167.889 217.859 172.013C215.649 166.372 216.593 160.029 209.308 159.625C196.456 158.914 203.411 167.011 198.244 171.84C197.079 165.982 195.878 149.159 204.704 148.99C208.261 148.904 208.956 148.823 212.308 149.908Z"/><path fill="#CCCAC8" transform="matrix(0.714286 0 0 0.716981 -21.4286 0)" d="M204.704 148.99C208.261 148.904 208.956 148.823 212.308 149.908C212.79 151.518 212.895 151.537 212.805 153.186C209.772 155.791 207.139 155.905 203.922 153.624C203.272 151.325 203.622 151.79 204.704 148.99Z"/><defs><linearGradient id="gradient_1" gradientUnits="userSpaceOnUse" x1="128.89452" y1="130.57787" x2="130.13882" y2="199.20792"><stop offset="0" stop-color="#1F1E1E"/><stop offset="1" stop-color="#565555"/></linearGradient></defs><path fill="url(#gradient_1)" transform="matrix(0.714286 0 0 0.716981 -21.4286 0)" d="M106.819 136.109C107.304 135.84 111.361 133.031 111.14 133.021C121.793 133.469 132.512 135.047 143.21 134.152C146.623 133.867 149.745 131.52 152.68 130.101C160.454 139.439 162.71 149.327 161.928 161.448C161.326 170.769 156.509 176.862 150.939 183.793C143.864 188.622 136.606 195.145 128.726 200.327C105.947 205.572 94.0613 176.973 98.1778 158.8C99.8354 151.482 101.423 141.767 106.819 136.109Z"/><path fill="#282626" transform="matrix(0.714286 0 0 0.716981 -21.4286 0)" d="M123.46 149.39C125.25 145.242 134.317 144.489 137.831 150.287L137.881 151.553C140.566 159.038 140.994 163.49 139.482 171.47C139.161 173.089 138.62 174.658 137.875 176.131C131.698 188.352 122.242 180.315 119.355 169.982C118.972 161.142 118.778 157.223 123.46 149.39Z"/><path fill="#020202" transform="matrix(0.714286 0 0 0.716981 -21.4286 0)" d="M123.46 149.39C125.25 145.242 134.317 144.489 137.831 150.287L137.881 151.553C140.566 159.038 140.994 163.49 139.482 171.47C135.695 162.97 140.329 157.729 124.096 159.414C121.408 159.692 122.836 167.647 121.02 170.438L119.355 169.982C118.972 161.142 118.778 157.223 123.46 149.39Z"/><path fill="#CCCAC8" transform="matrix(0.714286 0 0 0.716981 -21.4286 0)" d="M125.422 150.15C128.822 149.162 128.926 148.87 132.534 148.877C134.002 151.729 134.422 151.315 133.814 153.616C130.62 156.022 127.889 155.661 124.731 153.459C124.599 151.772 124.767 151.756 125.422 150.15Z"/><path fill="#282626" transform="matrix(0.714286 0 0 0.716981 -21.4286 0)" d="M123.46 149.39C125.25 145.242 134.317 144.489 137.831 150.287L137.881 151.553C135.359 149.592 136.871 147.921 132.534 148.877C128.926 148.87 128.822 149.162 125.422 150.15L125.251 149.622C124.042 149.787 124.641 149.853 123.46 149.39Z"/><defs><linearGradient id="gradient_2" gradientUnits="userSpaceOnUse" x1="168.83559" y1="226.17619" x2="168.23399" y2="194.47141"><stop offset="0" stop-color="#3C3B3C"/><stop offset="1" stop-color="#555454"/></linearGradient></defs><path fill="url(#gradient_2)" transform="matrix(0.714286 0 0 0.716981 -21.4286 0)" d="M159.22 193.914C218.643 189.788 178.759 226.934 167.551 228.046C159.333 225.655 148.569 211.412 145.423 203.647C147.485 196.801 153.112 195.457 159.22 193.914Z"/><path fill="#282626" transform="matrix(0.714286 0 0 0.716981 -21.4286 0)" d="M106.819 136.109C116.384 119.863 138.893 115.376 152.68 130.101C149.745 131.52 146.623 133.867 143.21 134.152C132.512 135.047 121.793 133.469 111.14 133.021C111.361 133.031 107.304 135.84 106.819 136.109Z"/><path fill="#B1AEAC" transform="matrix(0.714286 0 0 0.716981 -21.4286 0)" d="M205.389 198.327C207.397 199.088 207.495 199.018 209.145 200.329C209.695 202.184 211.918 207.75 212.968 209.281C212.169 210.502 211.102 212.009 210.451 213.273C210.606 210.65 210.577 208.866 208.772 206.86C205.903 205.805 203.951 205.571 203.032 202.505C204.33 202.137 207.007 203.268 208.584 203.754L209.1 203.101C208.235 200.294 206.441 201.539 205.389 198.327Z"/><defs><linearGradient id="gradient_3" gradientUnits="userSpaceOnUse" x1="85.929474" y1="46.03516" x2="108.13696" y2="79.779007"><stop offset="0" stop-color="#737373"/><stop offset="1" stop-color="#908F8F"/></linearGradient></defs><path fill="url(#gradient_3)" transform="matrix(0.714286 0 0 0.716981 -21.4286 0)" d="M75.279 39.4546C80.4486 33.1534 90.0242 29.3292 98.0134 28.7356C115.281 27.4526 129.603 36.0141 143.023 45.3619L136.17 48.6663L131.65 50.8168C110.329 62.9102 103.47 64.4466 88.9164 88.2344C87.6789 90.2571 81.628 100.732 80.6483 101.51L75.5138 108.908C59.424 86.0548 54.2616 61.4087 75.279 39.4546Z"/><path fill="#282626" transform="matrix(0.714286 0 0 0.716981 -21.4286 0)" d="M75.279 39.4546C80.4486 33.1534 90.0242 29.3292 98.0134 28.7356C115.281 27.4526 129.603 36.0141 143.023 45.3619L136.17 48.6663L131.65 50.8168C98.393 17.9664 51.0322 58.2313 80.6483 101.51L75.5138 108.908C59.424 86.0548 54.2616 61.4087 75.279 39.4546Z"/><path fill="#6C686A" transform="matrix(0.714286 0 0 0.716981 -21.4286 0)" d="M75.279 39.4546C80.4486 33.1534 90.0242 29.3292 98.0134 28.7356C115.281 27.4526 129.603 36.0141 143.023 45.3619L136.17 48.6663C136.2 48.2764 136.001 47.5123 135.915 47.0819C122.943 39.8473 111.492 33.4516 95.9057 35.0564C93.8499 35.268 84.8035 38.8158 82.3269 39.7086L82.0077 39.1168L84.0331 36.0772L83.782 35.2109C80.1727 35.9328 79.1225 38.3832 75.279 39.4546Z"/><defs><linearGradient id="gradient_4" gradientUnits="userSpaceOnUse" x1="253.05284" y1="47.585476" x2="229.89061" y2="77.582306"><stop offset="0" stop-color="#757575"/><stop offset="1" stop-color="#8E8E8D"/></linearGradient></defs><path fill="url(#gradient_4)" transform="matrix(0.714286 0 0 0.716981 -21.4286 0)" d="M194.367 45.6067C210.124 34.6375 226.442 25.0506 246.549 30.1585C254.454 32.1666 260.54 35.6978 264.798 42.8303C272.992 52.9616 277.081 62.484 275.748 75.6034C274.384 89.0225 266.927 98.3454 262.48 109.361C261.867 108.139 257.712 102.529 256.685 101.101C254.289 98.3592 248.798 87.9224 245.996 83.9226C239.416 74.5306 232.022 65.2603 221.949 59.3334C217.241 56.5638 211.211 54.126 206.825 51.4012L205.921 50.8317L199.95 47.8416L194.367 45.6067Z"/><path fill="#282626" transform="matrix(0.714286 0 0 0.716981 -21.4286 0)" d="M194.367 45.6067C210.124 34.6375 226.442 25.0506 246.549 30.1585C254.454 32.1666 260.54 35.6978 264.798 42.8303C272.992 52.9616 277.081 62.484 275.748 75.6034C274.384 89.0225 266.927 98.3454 262.48 109.361C261.867 108.139 257.712 102.529 256.685 101.101C267.414 88.3185 270.34 64.08 258.28 50.9793C242.887 34.2587 221.924 35.9583 205.921 50.8317L199.95 47.8416L194.367 45.6067Z"/><path fill="#6C686A" transform="matrix(0.714286 0 0 0.716981 -21.4286 0)" d="M194.367 45.6067C210.124 34.6375 226.442 25.0506 246.549 30.1585C254.454 32.1666 260.54 35.6978 264.798 42.8303C260.413 40.8808 259.563 37.4295 255.292 35.7397L254.276 36.4162C255.606 37.9574 256.087 38.0289 255.824 39.8554C240.418 35.6382 229.404 31.3383 213.626 40.621C211.796 41.6972 199.957 47.8321 199.95 47.8416L194.367 45.6067Z"/><path fill="#EBEAEC" transform="matrix(0.714286 0 0 0.716981 -21.4286 0)" d="M230.543 134.968L231.583 134.759L232.761 136.554C237.499 134.651 239.568 133.547 244.228 136.077C261.768 145.596 264.865 171.089 256.333 187.697C250.348 199.349 244.767 206.488 232.284 210.998C226.604 213.076 220.601 213.713 215.251 216.123L214.477 216.467C213.489 214.938 213.524 211.537 212.968 209.281C211.918 207.75 209.695 202.184 209.145 200.329C224.592 203.995 235.802 190.885 238.954 177.127C242.221 162.87 237.985 147.27 230.543 134.968Z"/><path fill="#CCCAC8" transform="matrix(0.714286 0 0 0.716981 -21.4286 0)" d="M285.169 153.386C287.421 164.582 287.827 170.524 286.401 181.844C283.26 206.794 266.042 229.168 240.738 234.306C227.369 237.02 212.168 234.783 198.606 236.532C186.5 240.124 182.941 246.849 169.185 247.7C156.415 248.491 149.891 238.011 140.761 236.707C119.217 233.629 99.1004 240.691 79.4251 226.939C64.1565 216.267 54.6197 202.627 51.3934 183.87C50.2885 177.991 49.6126 166.565 50.8886 160.913C52.7571 168.49 51.1798 173.991 52.0784 180.776C54.6041 199.85 65.3064 216.136 81.4547 226.464C96.6922 236.845 117.403 234.959 135.383 234.482L135.363 233.692C131.675 232.604 130.845 230.261 128.633 226.476L128.919 225.666C132.95 225.62 142.545 229.915 146.677 231.657C152.52 235.105 160.197 230.91 166.072 231.489C179.087 232.77 209.349 234.368 210.753 215.676C212.865 223.598 208.296 228.269 203.724 233.952C187.229 234.469 187.579 242.017 172.174 245.326C166.412 246.563 162.17 243.019 157.626 243.32C164.244 249.929 182.761 244.077 189.763 238.624C198.283 231.989 223.292 235.244 234.724 233.741C267.326 229.455 284.688 203.446 286.472 172.177C286.752 167.283 283.377 157.389 285.169 153.386Z"/><path fill="#E2E3E3" transform="matrix(0.714286 0 0 0.716981 -21.4286 0)" d="M166.228 233.095C169.831 232.521 181.182 232.823 183.084 236.349C181.427 239.134 175.733 240.044 172.462 240.89C163.118 241.291 159.899 239.525 151.761 235.642C157.182 234.398 160.709 233.772 166.228 233.095Z"/></g></svg>