<?xml version="1.0" encoding="utf-8" ?><svg xmlns="http://www.w3.org/2000/svg" xmlns:xlink="http://www.w3.org/1999/xlink" width="200" height="190" viewBox="0 0 200 190"><clipPath id="cl_a"><rect x="0.00012207031" y="9.1552734e-05" width="200.00006" height="190.00003"/></clipPath><g clip-path="url(#cl_a)"><defs><linearGradient id="gradient_0" gradientUnits="userSpaceOnUse" x1="1194.2086" y1="874.4314" x2="1189.9706" y2="732.97382"><stop offset="0" stop-color="#6E529B"/><stop offset="1" stop-color="#977DC5"/></linearGradient></defs><path fill="url(#gradient_0)" transform="matrix(0.746269 0 0 0.750988 -789.552 -510.672)" d="M1110.1 708.964C1113.64 706.084 1138.31 707.841 1144.45 707.481C1144.97 707.451 1145.87 707.844 1146.41 708.056L1146.59 709.655C1146.49 713.521 1146.34 717.327 1146.51 721.192C1157.88 721.039 1169.25 721.013 1180.61 721.113L1180.6 744.063L1203.49 744.129C1203.38 736.683 1203.44 728.445 1203.11 721.063L1237.55 721.092C1237.6 718.318 1237.83 712.54 1237.59 710.042L1237.8 708.098C1241.34 706.912 1270.27 707.099 1274.13 708.165C1274.49 715.242 1274.54 725.401 1274.2 732.551L1285.49 732.631L1285.74 755.245C1293.7 755.47 1301.67 755.571 1309.63 755.549L1309.86 827.407C1306.17 827.474 1301.8 827.445 1298.2 827.772L1298.24 838.933L1294.3 838.693L1285.61 838.78L1285.43 849.524L1285.39 861.637C1273.95 861.597 1262.51 861.652 1251.08 861.802L1251.06 873.078L1273.98 873.09L1273.93 908.423C1261.81 908.532 1249.69 908.52 1237.56 908.385C1237.58 900.892 1237.69 893.4 1237.88 885.909C1227.04 885.342 1214.46 885.54 1203.53 885.499L1203.49 861.824C1195.85 861.668 1188.22 861.656 1180.58 861.786L1180.55 885.369C1169.27 885.31 1158 885.387 1146.72 885.6C1146.38 892.575 1146.6 901.336 1146.61 908.45L1110.27 908.42L1110.21 873.132L1133.04 873.071L1133.05 861.796C1121.58 861.647 1110.11 861.621 1098.64 861.718L1098.71 846.05L1098.68 838.974C1094.52 838.861 1090.1 838.912 1085.91 838.886L1085.96 827.832C1082.09 827.567 1078.26 827.585 1074.38 827.551C1073.56 804.231 1073.98 778.913 1073.94 755.445L1098.53 755.255C1098.44 747.701 1098.44 740.146 1098.53 732.592L1110.05 732.543C1110.19 725.03 1109.47 716.165 1110.1 708.964Z"/><defs><linearGradient id="gradient_1" gradientUnits="userSpaceOnUse" x1="1192.2969" y1="851.05762" x2="1190.7345" y2="710.06934"><stop offset="0" stop-color="#0B0A0B"/><stop offset="1" stop-color="#3A393A"/></linearGradient></defs><path fill="url(#gradient_1)" transform="matrix(0.746269 0 0 0.750988 -789.552 -510.672)" d="M1110.1 708.964C1113.64 706.084 1138.31 707.841 1144.45 707.481C1144.97 707.451 1145.87 707.844 1146.41 708.056L1146.59 709.655C1146.49 713.521 1146.34 717.327 1146.51 721.192C1157.88 721.039 1169.25 721.013 1180.61 721.113L1180.6 744.063L1203.49 744.129C1203.38 736.683 1203.44 728.445 1203.11 721.063L1237.55 721.092C1237.6 718.318 1237.83 712.54 1237.59 710.042L1237.8 708.098C1241.34 706.912 1270.27 707.099 1274.13 708.165C1274.49 715.242 1274.54 725.401 1274.2 732.551L1285.49 732.631L1285.74 755.245C1293.7 755.47 1301.67 755.571 1309.63 755.549L1309.86 827.407C1306.17 827.474 1301.8 827.445 1298.2 827.772L1298.24 838.933L1294.3 838.693L1285.61 838.78L1285.43 849.524C1283.99 847.026 1284.71 847.375 1282.6 846.718C1278.83 848.711 1273.88 852.347 1269.57 850.607C1267.14 849.629 1265.54 849.357 1263.2 850.8L1263.25 827.936L1286.42 827.994L1286.22 816.466L1298.8 816.487L1298.73 768.261C1294.12 768.109 1289.08 768.219 1284.43 768.227L1284.46 815.037L1263.31 815.011C1263.09 803.376 1263.22 791.323 1263.19 779.655L1251.79 779.461L1251.75 768.215L1239.38 768.075L1239.36 755.629L1227.9 755.554L1227.87 732.607L1214.98 732.601L1214.76 755.559L1169.73 755.547L1169.69 732.608L1156.79 732.596L1156.77 755.567L1145.39 755.576L1145.29 768.11L1132.67 768.271L1132.62 779.538L1121.33 779.66L1121.25 815.017L1100.22 815.034L1100.13 768.265C1095.6 768.117 1090.53 768.233 1085.96 768.242L1085.95 816.564L1098.2 816.435L1098.18 828.03L1121.25 827.932C1121.3 834.388 1121.62 844.927 1121.08 851.012L1120.3 849.509C1103.4 857.004 1104.04 846.339 1098.71 846.05L1098.68 838.974C1094.52 838.861 1090.1 838.912 1085.91 838.886L1085.96 827.832C1082.09 827.567 1078.26 827.585 1074.38 827.551C1073.56 804.231 1073.98 778.913 1073.94 755.445L1098.53 755.255C1098.44 747.701 1098.44 740.146 1098.53 732.592L1110.05 732.543C1110.19 725.03 1109.47 716.165 1110.1 708.964Z"/><path fill="#828889" transform="matrix(0.746269 0 0 0.750988 -789.552 -510.672)" d="M1237.59 710.042L1237.8 708.098C1241.34 706.912 1270.27 707.099 1274.13 708.165L1273.48 709.722C1268.62 710.682 1243.99 710.309 1237.59 710.042Z"/><path fill="#828889" transform="matrix(0.746269 0 0 0.750988 -789.552 -510.672)" d="M1110.1 708.964C1113.64 706.084 1138.31 707.841 1144.45 707.481C1144.97 707.451 1145.87 707.844 1146.41 708.056L1146.59 709.655C1141.67 710.482 1112.91 711.2 1110.1 708.964Z"/><path fill="#161819" transform="matrix(0.746269 0 0 0.750988 -789.552 -510.672)" d="M1294.3 838.693L1296.46 835.246L1297.3 835.191C1297.77 836.711 1298 837.37 1298.24 838.933L1294.3 838.693Z"/><path fill="#9278BE" transform="matrix(0.746269 0 0 0.750988 -789.552 -510.672)" d="M1250.69 744.012C1258.74 743.866 1267.15 743.99 1275.23 743.995L1275.24 769.141L1262.13 769.164L1262.03 756.827L1250.61 756.921L1250.69 744.012Z"/><path fill="#9278BE" transform="matrix(0.746269 0 0 0.750988 -789.552 -510.672)" d="M1109.29 744.002C1117.33 743.83 1125.91 743.982 1133.99 743.989L1133.97 756.874C1130.94 756.823 1124.74 756.348 1122.47 757.749L1122.51 769.145L1109.31 769.146L1109.29 744.002Z"/><path fill="#9278BE" transform="matrix(0.746269 0 0 0.750988 -789.552 -510.672)" d="M1250.73 720.946L1263.79 720.934L1263.79 733.838L1250.67 733.906C1250.63 729.633 1250.71 725.232 1250.73 720.946Z"/><path fill="#9278BE" transform="matrix(0.746269 0 0 0.750988 -789.552 -510.672)" d="M1120.95 720.959C1125.24 720.884 1129.67 720.938 1133.98 720.934L1133.98 733.881L1120.91 733.931C1120.85 729.664 1120.93 725.24 1120.95 720.959Z"/><path fill="#161819" transform="matrix(0.746269 0 0 0.750988 -789.552 -510.672)" d="M1098.71 846.05C1104.04 846.339 1103.4 857.004 1120.3 849.509L1121.08 851.012C1129.1 850.85 1137.13 850.801 1145.16 850.865L1145.32 875.028L1169.8 874.949L1169.76 850.842L1214.56 850.882C1214.7 858.921 1214.78 866.962 1214.81 875.003C1222.97 875.002 1231.31 875.095 1239.45 874.99L1239.45 850.934C1247.03 850.905 1255.71 851.08 1263.2 850.8C1265.54 849.357 1267.14 849.629 1269.57 850.607C1273.88 852.347 1278.83 848.711 1282.6 846.718C1284.71 847.375 1283.99 847.026 1285.43 849.524L1285.39 861.637C1273.95 861.597 1262.51 861.652 1251.08 861.802L1251.06 873.078L1273.98 873.09L1273.93 908.423C1261.81 908.532 1249.69 908.52 1237.56 908.385C1237.58 900.892 1237.69 893.4 1237.88 885.909C1227.04 885.342 1214.46 885.54 1203.53 885.499L1203.49 861.824C1195.85 861.668 1188.22 861.656 1180.58 861.786L1180.55 885.369C1169.27 885.31 1158 885.387 1146.72 885.6C1146.38 892.575 1146.6 901.336 1146.61 908.45L1110.27 908.42L1110.21 873.132L1133.04 873.071L1133.05 861.796C1121.58 861.647 1110.11 861.621 1098.64 861.718L1098.71 846.05Z"/><path fill="#74589F" transform="matrix(0.746269 0 0 0.750988 -789.552 -510.672)" d="M1251.13 887.631L1263.48 887.627C1263.56 890.488 1264.18 899.019 1262.85 900.867L1250.07 900.881C1250 897.739 1249.35 889.707 1251.13 887.631Z"/><path fill="#74589F" transform="matrix(0.746269 0 0 0.750988 -789.552 -510.672)" d="M1122.17 887.614L1134.49 887.63C1134.54 890.518 1135.12 899.054 1133.78 900.874L1121.19 900.871C1121.11 897.8 1120.48 889.722 1122.17 887.614Z"/><path fill="#161819" transform="matrix(0.746269 0 0 0.750988 -789.552 -510.672)" d="M1216.51 792.6L1237.84 792.54L1237.83 826.435C1231.26 826.685 1223.21 826.485 1216.53 826.492L1216.51 792.6Z"/><path fill="#161819" transform="matrix(0.746269 0 0 0.750988 -789.552 -510.672)" d="M1146.79 792.543L1167.97 792.495L1167.99 826.502L1146.82 826.499L1146.79 792.543Z"/></g></svg>