<?xml version="1.0" encoding="utf-8" ?><svg xmlns="http://www.w3.org/2000/svg" xmlns:xlink="http://www.w3.org/1999/xlink" width="200" height="209" viewBox="0 0 200 209"><clipPath id="cl_19"><rect y="0.0002746582" width="200" height="209.00003"/></clipPath><g clip-path="url(#cl_19)"><defs><linearGradient id="gradient_0" gradientUnits="userSpaceOnUse" x1="679.86249" y1="902.21857" x2="679.82233" y2="814.31226"><stop offset="0" stop-color="#327484"/><stop offset="1" stop-color="#7F9FA3"/></linearGradient></defs><path fill="url(#gradient_0)" transform="matrix(0.735294 0 0 0.738516 -402.206 -491.113)" d="M664.259 712.743C660.871 706.118 658.16 699.958 660.461 692.277C661.908 687.359 665.336 683.265 669.922 680.976C679.598 676.178 694.561 678.756 699.36 689.351C703.355 698.169 700.136 703.886 697.448 712.139C699.006 714.341 699.585 714.392 702.141 715.591C705.131 716.074 705.792 716.352 708.598 717.544C708.995 718.409 709.708 719.832 709.999 720.675C730.495 723.387 753.796 715.273 769.64 735.26C778.675 746.656 778.577 760.311 778.557 774.165C778.551 776.511 778.498 782.131 779.221 784.292C784.371 782.106 792.144 781.664 792.768 789C795.178 801.82 793.917 833.496 791.55 846.85C791.41 847.643 781.745 851.471 778.936 846.315L778.75 847.5C775.993 866.23 782.707 892.813 762.394 906.136C739.188 920.469 705.418 917.678 678.559 917.555C649.829 917.425 611.237 922.469 590.669 898.479C577.59 883.222 586.384 859.288 581.599 847.486C577.553 849.939 573.106 848.681 568.615 847.822C566.99 839.698 567.762 814.098 567.848 804.617C567.789 799.472 567.523 793.442 568.248 788.426C568.1 781.897 578.096 780.934 582.178 786.278C585.087 768.909 578.266 753.305 590.88 736.131C607.404 713.634 629.953 724.564 650.341 720.374C652.003 717.97 652.104 717.95 654.751 716.817C657.545 716.267 661.566 714.055 664.259 712.743Z"/><defs><linearGradient id="gradient_1" gradientUnits="userSpaceOnUse" x1="659.5954" y1="820.64594" x2="662.11749" y2="802.12982"><stop offset="0" stop-color="#8AAAAF"/><stop offset="1" stop-color="#ABC6C8"/></linearGradient></defs><path fill="url(#gradient_1)" transform="matrix(0.735294 0 0 0.738516 -402.206 -491.113)" d="M659.734 792.349C661.594 796.085 660.25 799.272 659.143 803.2C662.882 803.239 670.376 803.545 673.69 802.848L674.405 802.053L675.306 802.14C673.749 805.598 665.132 825.362 663.97 826.983L663.203 826.138L664.766 822.56L664.28 821.792C659.113 822.079 651.132 817.507 646.531 818.92L647.864 817.622C655.024 810.753 658.264 804.891 659.329 794.868L659.734 792.349Z"/><path fill="#ECF3F3" transform="matrix(0.735294 0 0 0.738516 -402.206 -491.113)" d="M664.259 712.743C660.871 706.118 658.16 699.958 660.461 692.277C661.908 687.359 665.336 683.265 669.922 680.976C679.598 676.178 694.561 678.756 699.36 689.351C703.355 698.169 700.136 703.886 697.448 712.139C699.006 714.341 699.585 714.392 702.141 715.591C705.131 716.074 705.792 716.352 708.598 717.544C708.995 718.409 709.708 719.832 709.999 720.675C730.495 723.387 753.796 715.273 769.64 735.26C778.675 746.656 778.577 760.311 778.557 774.165C778.551 776.511 778.498 782.131 779.221 784.292L778.425 789.02C776.983 790.666 777.456 794.483 777.493 797.119C773.961 797.242 770.615 797.993 768.156 795.991C767.635 793.97 767.412 792.556 767.094 790.487C766.895 788.607 766.961 782.962 766.936 780.829C764.99 789.622 765.33 792.969 765.329 801.848L755.909 801.849C757.211 796.599 758.321 793.576 755.614 789.006L755.662 793.596C754.995 794.374 755.15 794.481 754.413 794.722C751.502 794.781 749.859 794.754 746.968 794.464L745.01 794.693C744.923 786.085 738.207 779.003 729.616 778.462C721.024 777.921 713.473 784.104 712.307 792.633L710.604 792.489C708.748 795.717 707.644 794.948 703.926 794.81C702.877 793.813 702.113 791.901 701.402 790.501C701.326 801.655 704.399 810.779 713.267 818.032C707.211 820.54 702.181 822.402 695.586 822.193C696.077 823.339 696.585 824.477 697.112 825.607L696.48 827.024C692.539 818.653 687.376 804.536 681.896 796.948C681.246 796.048 680.866 796.388 679.483 796.471C677.255 797.779 676.568 799.777 675.306 802.14L674.405 802.053L673.69 802.848C670.376 803.545 662.882 803.239 659.143 803.2C660.25 799.272 661.594 796.085 659.734 792.349L659.329 794.868C658.264 804.891 655.024 810.753 647.864 817.622L646.531 818.92C643.571 819.22 638.864 821.972 632.548 821.913C623.643 821.83 619.994 820.516 613.299 814.523C611.748 814.733 598.4 819.866 594.774 820.852C594.731 823.638 595.175 827.718 593.93 829.693C593.356 825.456 593.854 811.286 593.928 806.46C593.505 802.962 593.299 798.203 593.033 794.595C592.911 795.303 592.341 796.16 591.962 796.869C589.158 798.23 587.434 797.451 583.915 797.089C582.351 794.532 585.169 791.545 582.09 786.857L582.178 786.278C585.087 768.909 578.266 753.305 590.88 736.131C607.404 713.634 629.953 724.564 650.341 720.374C652.003 717.97 652.104 717.95 654.751 716.817C657.545 716.267 661.566 714.055 664.259 712.743Z"/><path fill="#ECF3F3" transform="matrix(0.735294 0 0 0.738516 -402.206 -491.113)" d="M615.719 793.308C616.544 784.617 624.021 778.088 632.743 778.442C641.466 778.796 648.389 785.91 648.506 794.639L650.298 793.964C652.367 795.187 654.693 794.787 657.164 794.697L659.329 794.868C658.264 804.891 655.024 810.753 647.864 817.622L646.531 818.92C643.571 819.22 638.864 821.972 632.548 821.913C623.643 821.83 619.994 820.516 613.299 814.523C608.626 808.03 605.449 803.787 604.78 795.504L606.446 794.641C608.907 794.718 610.964 794.655 613.427 794.566L615.719 793.308Z"/><path fill="#447B91" transform="matrix(0.735294 0 0 0.738516 -402.206 -491.113)" d="M613.427 794.566L615.719 793.308C615.145 799.363 617.962 805.24 623.042 808.584C628.122 811.929 634.634 812.193 639.968 809.272C645.303 806.35 648.587 800.721 648.506 794.639L650.298 793.964C652.367 795.187 654.693 794.787 657.164 794.697L659.329 794.868C658.264 804.891 655.024 810.753 647.864 817.622L646.531 818.92C643.571 819.22 638.864 821.972 632.548 821.913C623.643 821.83 619.994 820.516 613.299 814.523C608.626 808.03 605.449 803.787 604.78 795.504L606.446 794.641C608.907 794.718 610.964 794.655 613.427 794.566Z"/><defs><linearGradient id="gradient_2" gradientUnits="userSpaceOnUse" x1="732.27002" y1="775.73035" x2="760.24622" y2="728.63922"><stop offset="0" stop-color="#9FB0AF"/><stop offset="1" stop-color="#C0CFC9"/></linearGradient></defs><path fill="url(#gradient_2)" transform="matrix(0.735294 0 0 0.738516 -402.206 -491.113)" d="M709.999 720.675C730.495 723.387 753.796 715.273 769.64 735.26C778.675 746.656 778.577 760.311 778.557 774.165C778.551 776.511 778.498 782.131 779.221 784.292L778.425 789.02C776.983 790.666 777.456 794.483 777.493 797.119C773.961 797.242 770.615 797.993 768.156 795.991C767.635 793.97 767.412 792.556 767.094 790.487C766.895 788.607 766.961 782.962 766.936 780.829C770.394 719.644 742.677 733.705 698.69 730.939L703.491 727.355C705.826 725.775 708.087 722.865 709.999 720.675Z"/><defs><linearGradient id="gradient_3" gradientUnits="userSpaceOnUse" x1="627.88641" y1="776.35938" x2="599.84558" y2="728.61981"><stop offset="0" stop-color="#9EB0AD"/><stop offset="1" stop-color="#C1CEC9"/></linearGradient></defs><path fill="url(#gradient_3)" transform="matrix(0.735294 0 0 0.738516 -402.206 -491.113)" d="M650.341 720.374C652.597 723.041 654.378 725.52 657.279 727.428C659.966 729.449 662.167 731.013 664.983 732.882C657.421 730.405 653.925 731.549 646.623 731.101C596.817 728.044 590.884 741.982 594.048 788.964C593.489 794.934 594.509 800.815 593.928 806.46C593.505 802.962 593.299 798.203 593.033 794.595C592.911 795.303 592.341 796.16 591.962 796.869C589.158 798.23 587.434 797.451 583.915 797.089C582.351 794.532 585.169 791.545 582.09 786.857L582.178 786.278C585.087 768.909 578.266 753.305 590.88 736.131C607.404 713.634 629.953 724.564 650.341 720.374Z"/><defs><linearGradient id="gradient_4" gradientUnits="userSpaceOnUse" x1="680.26019" y1="712.02283" x2="679.37988" y2="680.34064"><stop offset="0" stop-color="#E77F2F"/><stop offset="1" stop-color="#FAA140"/></linearGradient></defs><path fill="url(#gradient_4)" transform="matrix(0.735294 0 0 0.738516 -402.206 -491.113)" d="M664.259 712.743C660.871 706.118 658.16 699.958 660.461 692.277C661.908 687.359 665.336 683.265 669.922 680.976C679.598 676.178 694.561 678.756 699.36 689.351C703.355 698.169 700.136 703.886 697.448 712.139C689.998 715.618 672.296 714.449 664.259 712.743Z"/><path fill="#F3F2D6" transform="matrix(0.735294 0 0 0.738516 -402.206 -491.113)" d="M676.816 683.32C684.069 683.035 691.32 684.471 695.648 691.017C695.744 693.268 696.057 692.259 694.5 694.087C691.694 695.319 688.578 694.902 685.411 694.828C679.758 694.583 669.446 696.176 665.477 693.704C663.772 688.123 672.708 684.751 676.816 683.32Z"/><defs><linearGradient id="gradient_5" gradientUnits="userSpaceOnUse" x1="682.24384" y1="732.10303" x2="681.48376" y2="723.59052"><stop offset="0" stop-color="#57456E"/><stop offset="1" stop-color="#735E89"/></linearGradient></defs><path fill="url(#gradient_5)" transform="matrix(0.735294 0 0 0.738516 -402.206 -491.113)" d="M697.448 712.139C699.006 714.341 699.585 714.392 702.141 715.591C705.131 716.074 705.792 716.352 708.598 717.544C708.995 718.409 709.708 719.832 709.999 720.675C708.087 722.865 705.826 725.775 703.491 727.355L698.69 730.939C690.313 735.901 682.655 738.053 672.799 735.599C670.122 734.915 667.507 734.006 664.983 732.882C662.167 731.013 659.966 729.449 657.279 727.428C654.378 725.52 652.597 723.041 650.341 720.374C652.003 717.97 652.104 717.95 654.751 716.817C657.545 716.267 661.566 714.055 664.259 712.743C672.296 714.449 689.998 715.618 697.448 712.139Z"/><path fill="#9278BE" transform="matrix(0.735294 0 0 0.738516 -402.206 -491.113)" d="M697.448 712.139C699.006 714.341 699.585 714.392 702.141 715.591C695.028 724.303 667.023 720.817 657.857 716.781L655.244 717.044L654.751 716.817C657.545 716.267 661.566 714.055 664.259 712.743C672.296 714.449 689.998 715.618 697.448 712.139Z"/><path fill="#020202" transform="matrix(0.735294 0 0 0.738516 -402.206 -491.113)" d="M693.368 731.014C697.041 729.474 699.751 726.952 703.491 727.355L698.69 730.939C690.313 735.901 682.655 738.053 672.799 735.599C670.122 734.915 667.507 734.006 664.983 732.882C662.167 731.013 659.966 729.449 657.279 727.428C660.629 727.311 664.367 729.491 667.591 730.96C677.726 734.712 683.079 734.838 693.368 731.014Z"/><path fill="#382B46" transform="matrix(0.735294 0 0 0.738516 -402.206 -491.113)" d="M654.751 716.817L655.244 717.044C659.42 722.474 666.609 725.671 667.591 730.96C664.367 729.491 660.629 727.311 657.279 727.428C654.378 725.52 652.597 723.041 650.341 720.374C652.003 717.97 652.104 717.95 654.751 716.817Z"/><path fill="#382B46" transform="matrix(0.735294 0 0 0.738516 -402.206 -491.113)" d="M708.598 717.544C708.995 718.409 709.708 719.832 709.999 720.675C708.087 722.865 705.826 725.775 703.491 727.355C699.751 726.952 697.041 729.474 693.368 731.014C695.552 727.813 704.746 720.965 708.598 717.544Z"/><path fill="#70F6FD" transform="matrix(0.735294 0 0 0.738516 -402.206 -491.113)" d="M604.872 789.821C607.941 780.939 610.312 775.453 619.458 770.804C626.502 767.3 634.657 766.769 642.096 769.33C648.454 771.564 653.641 776.269 656.483 782.379C657.937 785.524 658.587 789.011 659.734 792.349L659.329 794.868L657.164 794.697C654.693 794.787 652.367 795.187 650.298 793.964L648.506 794.639C648.389 785.91 641.466 778.796 632.743 778.442C624.021 778.088 616.544 784.617 615.719 793.308L613.427 794.566C610.964 794.655 608.907 794.718 606.446 794.641L604.78 795.504L604.872 789.821Z"/><path fill="#225890" transform="matrix(0.735294 0 0 0.738516 -402.206 -491.113)" d="M604.872 789.821C607.941 780.939 610.312 775.453 619.458 770.804C626.502 767.3 634.657 766.769 642.096 769.33C648.454 771.564 653.641 776.269 656.483 782.379C657.937 785.524 658.587 789.011 659.734 792.349L659.329 794.868L657.164 794.697C657.706 764.056 610.287 758.815 606.446 794.641L604.78 795.504L604.872 789.821Z"/><path fill="#285157" transform="matrix(0.735294 0 0 0.738516 -402.206 -491.113)" d="M613.427 794.566L614.043 792.225C619.184 771.927 647.515 772.117 650.298 793.964L648.506 794.639C648.389 785.91 641.466 778.796 632.743 778.442C624.021 778.088 616.544 784.617 615.719 793.308L613.427 794.566Z"/><path fill="#70F6FD" transform="matrix(0.735294 0 0 0.738516 -402.206 -491.113)" d="M701.402 790.501C702.073 789.098 703.037 785.103 703.987 782.968C706.875 776.449 712.307 771.396 719.019 768.987C735.778 763.07 749.959 773.425 755.614 789.006L755.662 793.596C754.995 794.374 755.15 794.481 754.413 794.722C751.502 794.781 749.859 794.754 746.968 794.464L745.01 794.693C744.923 786.085 738.207 779.003 729.616 778.462C721.024 777.921 713.473 784.104 712.307 792.633L710.604 792.489C708.748 795.717 707.644 794.948 703.926 794.81C702.877 793.813 702.113 791.901 701.402 790.501Z"/><path fill="#225890" transform="matrix(0.735294 0 0 0.738516 -402.206 -491.113)" d="M701.402 790.501C702.073 789.098 703.037 785.103 703.987 782.968C706.875 776.449 712.307 771.396 719.019 768.987C735.778 763.07 749.959 773.425 755.614 789.006L755.662 793.596C754.995 794.374 755.15 794.481 754.413 794.722C750.416 759.125 702.791 763.225 703.926 794.81C702.877 793.813 702.113 791.901 701.402 790.501Z"/><path fill="#285157" transform="matrix(0.735294 0 0 0.738516 -402.206 -491.113)" d="M710.604 792.489C711.765 787.339 714.107 783.064 718.676 780.134C723.039 777.395 728.35 776.613 733.317 777.977C738.285 779.325 742.468 782.679 744.863 787.236C746.183 789.722 746.494 791.718 746.968 794.464L745.01 794.693C744.923 786.085 738.207 779.003 729.616 778.462C721.024 777.921 713.473 784.104 712.307 792.633L710.604 792.489Z"/><defs><linearGradient id="gradient_6" gradientUnits="userSpaceOnUse" x1="700.61212" y1="821.12671" x2="697.85022" y2="802.00269"><stop offset="0" stop-color="#8AAAAF"/><stop offset="1" stop-color="#ABC7C9"/></linearGradient></defs><path fill="url(#gradient_6)" transform="matrix(0.735294 0 0 0.738516 -402.206 -491.113)" d="M687.337 803.2C690.87 803.231 699.641 804.175 701.396 801.224C699.803 797.155 698.468 794.328 701.402 790.501C701.326 801.655 704.399 810.779 713.267 818.032C707.211 820.54 702.181 822.402 695.586 822.193C696.077 823.339 696.585 824.477 697.112 825.607L696.48 827.024C692.539 818.653 687.376 804.536 681.896 796.948C681.246 796.048 680.866 796.388 679.483 796.471C677.255 797.779 676.568 799.777 675.306 802.14L674.405 802.053C674.58 799.476 676.141 796.662 678.17 795.057C683.776 793.743 685.335 799.037 687.337 803.2Z"/><defs><linearGradient id="gradient_7" gradientUnits="userSpaceOnUse" x1="603.07202" y1="818.1582" x2="599.72839" y2="800.54633"><stop offset="0" stop-color="#87A8AC"/><stop offset="1" stop-color="#ABC7C9"/></linearGradient></defs><path fill="url(#gradient_7)" transform="matrix(0.735294 0 0 0.738516 -402.206 -491.113)" d="M594.048 788.964C595.661 790.878 595.071 798.807 595.022 801.84C598.384 802.006 601.814 802.705 604.223 800.601C603.951 796.759 600.977 793.437 604.872 789.821L604.78 795.504C605.449 803.787 608.626 808.03 613.299 814.523C611.748 814.733 598.4 819.866 594.774 820.852C594.731 823.638 595.175 827.718 593.93 829.693C593.356 825.456 593.854 811.286 593.928 806.46C594.509 800.815 593.489 794.934 594.048 788.964Z"/><defs><linearGradient id="gradient_8" gradientUnits="userSpaceOnUse" x1="680.22754" y1="913.93628" x2="679.78522" y2="824.72119"><stop offset="0" stop-color="#0E313E"/><stop offset="1" stop-color="#3F6167"/></linearGradient></defs><path fill="url(#gradient_8)" transform="matrix(0.735294 0 0 0.738516 -402.206 -491.113)" d="M568.248 788.426C568.1 781.897 578.096 780.934 582.178 786.278L582.09 786.857C585.169 791.545 582.351 794.532 583.915 797.089C587.434 797.451 589.158 798.23 591.962 796.869C592.341 796.16 592.911 795.303 593.033 794.595C593.299 798.203 593.505 802.962 593.928 806.46C593.854 811.286 593.356 825.456 593.93 829.693C593.851 833.318 593.797 836.944 593.768 840.57C594.866 873.892 586.623 902.176 632.464 903.405C651.349 903.911 670.581 904.383 689.858 903.813C711.05 903.186 740.801 907.617 758.435 893.986C769.318 884.836 766.209 855.855 767.018 841.782C768.166 837.811 767.678 830.619 767.691 826.155C770.845 826.026 773.539 825.584 776.363 826.812C780.128 830.866 775.198 837.645 778.546 842L778.936 846.315L778.75 847.5C775.993 866.23 782.707 892.813 762.394 906.136C739.188 920.469 705.418 917.678 678.559 917.555C649.829 917.425 611.237 922.469 590.669 898.479C577.59 883.222 586.384 859.288 581.599 847.486C577.553 849.939 573.106 848.681 568.615 847.822C566.99 839.698 567.762 814.098 567.848 804.617C567.789 799.472 567.523 793.442 568.248 788.426Z"/><path fill="#E94434" transform="matrix(0.735294 0 0 0.738516 -402.206 -491.113)" d="M568.248 788.426C568.1 781.897 578.096 780.934 582.178 786.278L582.09 786.857L582.086 788.42C582.428 793.015 582.673 810.987 582.066 815.654C580.101 818.676 576.065 822.311 572.351 818.881C567.954 814.819 568.061 810.229 567.848 804.617C567.789 799.472 567.523 793.442 568.248 788.426Z"/><path fill="#A2291A" transform="matrix(0.735294 0 0 0.738516 -402.206 -491.113)" d="M582.086 788.42C582.428 793.015 582.673 810.987 582.066 815.654C580.101 818.676 576.065 822.311 572.351 818.881C567.954 814.819 568.061 810.229 567.848 804.617C567.789 799.472 567.523 793.442 568.248 788.426C568.674 797.43 567.403 800.105 571.647 808.549C574.131 809.999 575.085 810.823 577.854 811.193L579.436 810.528L580.054 808.822C581.533 805.889 581.893 792.228 582.086 788.42Z"/><path fill="#E9ACB0" transform="matrix(0.735294 0 0 0.738516 -402.206 -491.113)" d="M571.647 808.549C570.785 798.93 569.621 796.427 579.608 793.388C579.856 798.395 579.757 804.137 580.054 808.822L579.436 810.528L577.854 811.193C575.085 810.823 574.131 809.999 571.647 808.549Z"/><path fill="#53140E" transform="matrix(0.735294 0 0 0.738516 -402.206 -491.113)" d="M567.848 804.617C568.061 810.229 567.954 814.819 572.351 818.881C576.065 822.311 580.101 818.676 582.066 815.654L581.864 845.004L581.599 847.486C577.553 849.939 573.106 848.681 568.615 847.822C566.99 839.698 567.762 814.098 567.848 804.617Z"/><defs><linearGradient id="gradient_9" gradientUnits="userSpaceOnUse" x1="588.70703" y1="825.65881" x2="586.38611" y2="797.18878"><stop offset="0" stop-color="#566E72"/><stop offset="1" stop-color="#859798"/></linearGradient></defs><path fill="url(#gradient_9)" transform="matrix(0.735294 0 0 0.738516 -402.206 -491.113)" d="M582.09 786.857C585.169 791.545 582.351 794.532 583.915 797.089C587.434 797.451 589.158 798.23 591.962 796.869C592.341 796.16 592.911 795.303 593.033 794.595C593.299 798.203 593.505 802.962 593.928 806.46C593.854 811.286 593.356 825.456 593.93 829.693C593.851 833.318 593.797 836.944 593.768 840.57L592.635 840.176C591.943 835.282 592.842 829.156 592.302 825.397C589.954 826.648 585.955 826.319 583.23 826.338C583.312 831.785 584.306 840.347 581.864 845.004L582.066 815.654C582.673 810.987 582.428 793.015 582.086 788.42L582.09 786.857Z"/><path fill="#53140E" transform="matrix(0.735294 0 0 0.738516 -402.206 -491.113)" d="M779.221 784.292C784.371 782.106 792.144 781.664 792.768 789C795.178 801.82 793.917 833.496 791.55 846.85C791.41 847.643 781.745 851.471 778.936 846.315L778.546 842C778.653 828.685 778.691 815.37 778.661 802.054C778.626 797.709 778.547 793.364 778.425 789.02L779.221 784.292Z"/><path fill="#E94434" transform="matrix(0.735294 0 0 0.738516 -402.206 -491.113)" d="M779.221 784.292C784.371 782.106 792.144 781.664 792.768 789C792.853 797.081 794.805 818.168 781.593 815.972C780.125 813.999 780.632 814.12 780.539 811.088L780.54 810.444C779.266 807.843 779.083 804.964 778.661 802.054C778.626 797.709 778.547 793.364 778.425 789.02L779.221 784.292Z"/><path fill="#E9ACB0" transform="matrix(0.735294 0 0 0.738516 -402.206 -491.113)" d="M780.674 793.415C783.722 793.939 786.068 793.806 788.04 796.442C792.365 802.225 789.347 813.734 780.539 811.088L780.54 810.444C780.533 805.034 780.372 798.747 780.674 793.415Z"/><defs><linearGradient id="gradient_10" gradientUnits="userSpaceOnUse" x1="680.13531" y1="829.48352" x2="680.86951" y2="804.97412"><stop offset="0" stop-color="#B05A58"/><stop offset="1" stop-color="#F29795"/></linearGradient></defs><path fill="url(#gradient_10)" transform="matrix(0.735294 0 0 0.738516 -402.206 -491.113)" d="M675.306 802.14C676.568 799.777 677.255 797.779 679.483 796.471C680.866 796.388 681.246 796.048 681.896 796.948C687.376 804.536 692.539 818.653 696.48 827.024C697.25 829.338 698.002 831.658 698.738 833.983C696.332 836.913 665.815 836.68 662.405 834.155L662.366 832.581L663.97 826.983C665.132 825.362 673.749 805.598 675.306 802.14Z"/><path fill="#C83A27" transform="matrix(0.735294 0 0 0.738516 -402.206 -491.113)" d="M675.306 802.14C676.568 799.777 677.255 797.779 679.483 796.471C680.866 796.388 681.246 796.048 681.896 796.948C687.376 804.536 692.539 818.653 696.48 827.024C697.25 829.338 698.002 831.658 698.738 833.983C696.399 833.76 695.856 833.608 693.581 832.94C693.093 827.131 687.512 814.992 685.185 808.149C682.999 806.425 680.844 806.687 677.744 806.148L675.442 808.405C673.922 812.572 666.604 829.407 667.237 832.22C668.231 832.439 669.039 832.594 670.014 832.897C667.621 834.017 664.773 833.538 662.366 832.581L663.97 826.983C665.132 825.362 673.749 805.598 675.306 802.14Z"/><path fill="#E9ACB0" transform="matrix(0.735294 0 0 0.738516 -402.206 -491.113)" d="M680.74 796.989L685.185 808.149C682.999 806.425 680.844 806.687 677.744 806.148L675.442 808.405C677.186 803.525 678.09 801.504 680.74 796.989Z"/><path fill="#ECF3F3" transform="matrix(0.735294 0 0 0.738516 -402.206 -491.113)" d="M712.307 792.633C713.473 784.104 721.024 777.921 729.616 778.462C738.207 779.003 744.923 786.085 745.01 794.693C745.071 800.848 741.687 806.521 736.242 809.391C730.796 812.261 724.204 811.845 719.161 808.315C714.119 804.785 711.473 798.732 712.307 792.633Z"/><path fill="#447B91" transform="matrix(0.735294 0 0 0.738516 -402.206 -491.113)" d="M701.402 790.501C702.113 791.901 702.877 793.813 703.926 794.81C707.644 794.948 708.748 795.717 710.604 792.489L712.307 792.633C711.473 798.732 714.119 804.785 719.161 808.315C724.204 811.845 730.796 812.261 736.242 809.391C741.687 806.521 745.071 800.848 745.01 794.693L746.968 794.464C749.859 794.754 751.502 794.781 754.413 794.722C755.15 794.481 754.995 794.374 755.662 793.596C756.666 799.224 753.31 805.996 750.156 810.564C748.626 812.793 746.953 814.921 745.149 816.935C733.045 823.781 725.652 823.534 713.267 818.032C704.399 810.779 701.326 801.655 701.402 790.501Z"/><defs><linearGradient id="gradient_11" gradientUnits="userSpaceOnUse" x1="771.53296" y1="825.60498" x2="773.3327" y2="797.20679"><stop offset="0" stop-color="#566E72"/><stop offset="1" stop-color="#849899"/></linearGradient></defs><path fill="url(#gradient_11)" transform="matrix(0.735294 0 0 0.738516 -402.206 -491.113)" d="M778.425 789.02C778.547 793.364 778.626 797.709 778.661 802.054C778.691 815.37 778.653 828.685 778.546 842C775.198 837.645 780.128 830.866 776.363 826.812C773.539 825.584 770.845 826.026 767.691 826.155C767.678 830.619 768.166 837.811 767.018 841.782C766.386 828.871 767.461 814.559 766.916 801.212L767.094 790.487C767.412 792.556 767.635 793.97 768.156 795.991C770.615 797.993 773.961 797.242 777.493 797.119C777.456 794.483 776.983 790.666 778.425 789.02Z"/><defs><linearGradient id="gradient_12" gradientUnits="userSpaceOnUse" x1="756.65027" y1="817.64136" x2="759.55585" y2="801.21875"><stop offset="0" stop-color="#88A8AC"/><stop offset="1" stop-color="#AAC5C7"/></linearGradient></defs><path fill="url(#gradient_12)" transform="matrix(0.735294 0 0 0.738516 -402.206 -491.113)" d="M765.329 801.848C765.33 792.969 764.99 789.622 766.936 780.829C766.961 782.962 766.895 788.607 767.094 790.487L766.916 801.212C766.09 809.947 766.927 820.217 765.919 828.124C765.739 825.09 765.611 822.601 765.66 819.533C758.866 818.977 755.153 817.859 748.973 814.724L746.367 817.184C745.958 817.119 745.508 817.142 745.149 816.935C746.953 814.921 748.626 812.793 750.156 810.564C753.31 805.996 756.666 799.224 755.662 793.596L755.614 789.006C758.321 793.576 757.211 796.599 755.909 801.849L765.329 801.848Z"/><path fill="#020202" transform="matrix(0.735294 0 0 0.738516 -402.206 -491.113)" d="M648.115 849.695C657.337 849.069 710.676 848.572 716.977 851.267C719.772 852.495 721.965 854.781 723.075 857.624C726.304 866.014 720.546 871.036 713.001 873.123C702.139 873.305 651.14 874.718 644.457 872.141C641.285 870.918 638.449 868.257 637.223 865.059C636.054 862.006 636.623 859.437 638.104 856.617C640.297 852.441 643.809 850.992 648.115 849.695Z"/><path fill="#ECF3F3" transform="matrix(0.735294 0 0 0.738516 -402.206 -491.113)" d="M659.686 856.289C665.174 856.213 670.661 856.087 676.146 855.911C676.413 861.485 676.598 865.684 676.323 871.229L658.871 871.231C658.895 866.791 658.702 860.444 659.686 856.289Z"/><path fill="#ECF3F3" transform="matrix(0.735294 0 0 0.738516 -402.206 -491.113)" d="M684.952 856.377L701.116 856.296C701.521 861.144 701.798 866.385 701.368 871.224L684.021 871.229C684.001 866.85 683.738 860.378 684.952 856.377Z"/><path fill="#ECF3F3" transform="matrix(0.735294 0 0 0.738516 -402.206 -491.113)" d="M641.257 856.368C644.356 856.017 648.647 856.019 651.851 855.926C652.269 859.371 653.621 868.494 651.923 871.387C642.946 870.77 635.823 865.695 641.257 856.368Z"/><path fill="#ECF3F3" transform="matrix(0.735294 0 0 0.738516 -402.206 -491.113)" d="M709.729 855.902C711.357 855.863 715.818 855.618 717.167 856.232C723.957 859.321 721.032 865.3 717.5 869.404C714.214 870.791 712.579 871.867 709.266 870.225C707.072 866.892 707.27 858.159 709.729 855.902Z"/><defs><linearGradient id="gradient_13" gradientUnits="userSpaceOnUse" x1="406.99774" y1="916.93896" x2="438.52155" y2="693.08075"><stop offset="0" stop-color="#828A8B"/><stop offset="1" stop-color="#B9C7C9"/></linearGradient></defs><path fill="url(#gradient_13)" transform="matrix(0.735294 0 0 0.738516 -402.206 -491.113)" d="M313.454 811.417C308.896 788.759 313.435 765.218 326.089 745.879C416.253 610.764 623.918 753.244 498.596 874.968C483.945 889.198 450.047 919.185 430.133 921.42C427.796 921.61 424.581 921.717 422.26 921.557C417.695 921.241 413.213 920.172 408.996 918.396C399.401 914.338 371.92 895.439 365.635 888.271C357.235 884.024 336.08 857.588 329.614 848.875C320.39 830.718 318.481 833.422 313.454 811.417Z"/></g></svg>