<?xml version="1.0" encoding="utf-8" ?><svg xmlns="http://www.w3.org/2000/svg" xmlns:xlink="http://www.w3.org/1999/xlink" width="200" height="200" viewBox="0 0 200 200"><clipPath id="cl_12"><rect x="6.1035156e-05" y="0.00012207031" width="200" height="200"/></clipPath><g clip-path="url(#cl_12)"><path fill="#EAB145" transform="matrix(0.803213 0 0 0.803213 -652.209 -819.277)" d="M823.267 1112.85C823.948 1108.21 826.981 1100.1 828.93 1095.77C841.608 1067.4 865.07 1045.26 894.123 1034.24C947.426 1014.3 1007.86 1033.57 1036.07 1083.54C1038.75 1088.28 1041.98 1093.02 1043.85 1098.15C1051.15 1109.13 1052.53 1134.56 1052.52 1147.4C1052.5 1181.85 1029.53 1220.81 1000.74 1239.7C974.769 1256.45 943.285 1262.41 912.989 1256.3C876.419 1248.64 853.97 1230.22 834.454 1198.99C820.874 1177.26 814.146 1136.84 823.267 1112.85Z"/><path fill="#C67C2E" transform="matrix(0.803213 0 0 0.803213 -652.209 -819.277)" d="M1043.85 1098.15C1051.15 1109.13 1052.53 1134.56 1052.52 1147.4C1052.5 1181.85 1029.53 1220.81 1000.74 1239.7C974.769 1256.45 943.285 1262.41 912.989 1256.3C876.419 1248.64 853.97 1230.22 834.454 1198.99C820.874 1177.26 814.146 1136.84 823.267 1112.85C824.564 1116.67 820.907 1127.83 821.474 1133C821.804 1136 822.855 1138.95 823.777 1141.81C823.728 1139.68 823.895 1138.01 824.071 1135.9C825.155 1138.55 824.158 1140.87 825.244 1143.95C828.225 1152.41 825.798 1160.14 829.063 1169.32C837.669 1193.53 861.505 1226.27 884.574 1238.02C912.085 1251.82 942.824 1254.4 972.02 1244.65C1002.81 1234.36 1025.54 1207.43 1038.77 1178.67C1041.27 1173.23 1045.19 1164.69 1046.03 1158.7C1047.72 1146.53 1050.35 1133.54 1049.57 1121.26C1049.1 1114.65 1045.55 1105.54 1043.37 1099.26L1043.85 1098.15Z"/><path fill="#1C1F20" transform="matrix(0.803213 0 0 0.803213 -652.209 -819.277)" d="M849.279 1085.41C849.109 1082.1 858.149 1071.36 860.329 1067.89C861.249 1066.42 868.617 1061.01 870.578 1058.41C868.553 1059.42 867.124 1060.3 864.889 1060.7C865.284 1060.02 865.751 1059.19 866.315 1058.63C881.577 1043.57 907.449 1030.78 928.778 1030.03C948.825 1029.33 963.116 1032.17 980.699 1041.17C987.932 1044.88 991.905 1046.28 998.055 1051.87L997.492 1052.16C994.017 1049.28 980.102 1043.1 975.413 1043.34C982.529 1046.56 1002.53 1055.55 1004.89 1062.72C1012.05 1068.87 1024.94 1085.59 1028.18 1094.28L1028 1095.64C1026.19 1095.99 1025.41 1096.09 1023.57 1096.21L1023.81 1096.88C1026.9 1096.8 1028.89 1096.53 1031.86 1097.46C1039.6 1101.99 1030.34 1112.27 1028.92 1117.82C1020.65 1150.15 1012.17 1161.55 977.606 1160.25C985.694 1164.3 999.569 1161.82 1002.46 1163.05C1001.73 1163.34 1001.59 1163.41 1000.75 1163.67C988.735 1167.3 975.789 1166.22 964.536 1160.66C962.768 1154.29 953.731 1152.94 950.142 1147.5C946.574 1142.09 941.994 1135.35 940.306 1129.06L941.382 1128.73C940.217 1124.62 939.983 1122.05 936.452 1119.69C931.098 1119.11 930.752 1124.27 929.681 1128.42L930.633 1128.81C922.365 1158.11 891.069 1170.05 864.131 1161.51C860.763 1160.45 856.566 1159.16 854.444 1156.21C862.43 1162.15 880.5 1163.65 889.757 1160.51C856.954 1160.16 851.829 1149.15 842.526 1119.53C841.017 1114.72 834.601 1103 837.285 1098.64C840.206 1096.19 843.423 1096.8 847.168 1096.95L847.963 1096.36C845.374 1095.86 846.06 1096.53 844.985 1095.01C845.232 1092.16 847.796 1088.26 849.279 1085.41Z"/><defs><linearGradient id="gradient_0" gradientUnits="userSpaceOnUse" x1="936.33759" y1="1104.2922" x2="936.09552" y2="1050.4111"><stop offset="0" stop-color="#FEF26E"/><stop offset="1" stop-color="#FFFECF"/></linearGradient></defs><path fill="url(#gradient_0)" transform="matrix(0.803213 0 0 0.803213 -652.209 -819.277)" d="M849.279 1085.41C849.109 1082.1 858.149 1071.36 860.329 1067.89C861.249 1066.42 868.617 1061.01 870.578 1058.41C868.553 1059.42 867.124 1060.3 864.889 1060.7C865.284 1060.02 865.751 1059.19 866.315 1058.63C881.577 1043.57 907.449 1030.78 928.778 1030.03C948.825 1029.33 963.116 1032.17 980.699 1041.17C987.932 1044.88 991.905 1046.28 998.055 1051.87L997.492 1052.16C994.017 1049.28 980.102 1043.1 975.413 1043.34C982.529 1046.56 1002.53 1055.55 1004.89 1062.72C1012.05 1068.87 1024.94 1085.59 1028.18 1094.28L1028 1095.64C1026.19 1095.99 1025.41 1096.09 1023.57 1096.21C1005.19 1096.15 988.01 1095.6 969.771 1098.9C959.802 1100.69 949.686 1104.85 940.484 1106.31L929.6 1106.04C922.299 1105.16 910.677 1100.45 902.486 1098.99C884.272 1095.72 866.361 1095.99 847.963 1096.36C845.374 1095.86 846.06 1096.53 844.985 1095.01C845.232 1092.16 847.796 1088.26 849.279 1085.41Z"/><defs><linearGradient id="gradient_1" gradientUnits="userSpaceOnUse" x1="935.3736" y1="1063.0966" x2="935.18372" y2="1038.6588"><stop offset="0" stop-color="#FFFDC5"/><stop offset="1" stop-color="#FFFFEA"/></linearGradient></defs><path fill="url(#gradient_1)" transform="matrix(0.803213 0 0 0.803213 -652.209 -819.277)" d="M923.903 1038.38C937.412 1037.22 944.1 1037.56 957.837 1039.62C961.574 1040.89 971.843 1043.34 974.378 1045.04C977.628 1048.33 982.504 1048.46 982.788 1052.63C979.818 1054.75 961.781 1059.72 956.735 1061.45C948.239 1064.37 932.48 1064.64 923.583 1063.14C916.84 1061.93 892.934 1055.88 888.408 1052.5C889.556 1049.45 890.914 1050.65 892.564 1047.71C893.363 1046.88 896.645 1045.55 897.912 1044.97C907.896 1041.67 913.345 1039.93 923.903 1038.38Z"/><path fill="#F5C94E" transform="matrix(0.803213 0 0 0.803213 -652.209 -819.277)" d="M849.279 1085.41C849.109 1082.1 858.149 1071.36 860.329 1067.89C861.249 1066.42 868.617 1061.01 870.578 1058.41C868.553 1059.42 867.124 1060.3 864.889 1060.7C865.284 1060.02 865.751 1059.19 866.315 1058.63C881.577 1043.57 907.449 1030.78 928.778 1030.03C948.825 1029.33 963.116 1032.17 980.699 1041.17C987.932 1044.88 991.905 1046.28 998.055 1051.87L997.492 1052.16C994.017 1049.28 980.102 1043.1 975.413 1043.34C982.529 1046.56 1002.53 1055.55 1004.89 1062.72C996.446 1055.88 984.824 1048.25 974.378 1045.04C971.843 1043.34 961.574 1040.89 957.837 1039.62C944.1 1037.56 937.412 1037.22 923.903 1038.38C913.345 1039.93 907.896 1041.67 897.912 1044.97C896.645 1045.55 893.363 1046.88 892.564 1047.71C880.611 1052.33 869.965 1059.79 861.547 1069.45C859.877 1071.39 849.938 1085.08 849.279 1085.41Z"/><path fill="#F9D858" transform="matrix(0.803213 0 0 0.803213 -652.209 -819.277)" d="M897.912 1044.97C903.819 1034.15 941.61 1030.42 952.472 1034.41C957.165 1036.13 972.479 1038.97 975.413 1043.34C982.529 1046.56 1002.53 1055.55 1004.89 1062.72C996.446 1055.88 984.824 1048.25 974.378 1045.04C971.843 1043.34 961.574 1040.89 957.837 1039.62C944.1 1037.56 937.412 1037.22 923.903 1038.38C913.345 1039.93 907.896 1041.67 897.912 1044.97Z"/><path fill="#FBE053" transform="matrix(0.803213 0 0 0.803213 -652.209 -819.277)" d="M923.903 1038.38L924.323 1037.19C935.757 1032.33 944.727 1036.14 956.108 1038.11L957.837 1039.62C944.1 1037.56 937.412 1037.22 923.903 1038.38Z"/><path fill="#393939" transform="matrix(0.803213 0 0 0.803213 -652.209 -819.277)" d="M847.963 1096.36C866.361 1095.99 884.272 1095.72 902.486 1098.99C910.677 1100.45 922.299 1105.16 929.6 1106.04C926.474 1106.36 924.62 1106.42 921.803 1107.97C906.846 1103.49 896.162 1101.04 880.452 1099.74C867.559 1098.67 859.22 1101.27 847.168 1096.95L847.963 1096.36Z"/><path fill="#393939" transform="matrix(0.803213 0 0 0.803213 -652.209 -819.277)" d="M940.484 1106.31C949.686 1104.85 959.802 1100.69 969.771 1098.9C988.01 1095.6 1005.19 1096.15 1023.57 1096.21L1023.81 1096.88C1015 1102.23 993.757 1096.21 984.501 1100.75C970.863 1100.84 959.162 1105.18 946.297 1108.71L945.759 1107.61C943.485 1107.23 942.684 1107.02 940.484 1106.31Z"/><path fill="#F3BE4D" transform="matrix(0.803213 0 0 0.803213 -652.209 -819.277)" d="M977.606 1160.25C985.694 1164.3 999.569 1161.82 1002.46 1163.05C1001.73 1163.34 1001.59 1163.41 1000.75 1163.67C988.735 1167.3 975.789 1166.22 964.536 1160.66C962.768 1154.29 953.731 1152.94 950.142 1147.5C946.574 1142.09 941.994 1135.35 940.306 1129.06L941.382 1128.73C947.291 1141.52 953.054 1152.53 967.268 1157.87C970.422 1159.06 974.63 1159.17 977.606 1160.25Z"/><path fill="#F3BE4D" transform="matrix(0.803213 0 0 0.803213 -652.209 -819.277)" d="M929.681 1128.42L930.633 1128.81C922.365 1158.11 891.069 1170.05 864.131 1161.51C860.763 1160.45 856.566 1159.16 854.444 1156.21C862.43 1162.15 880.5 1163.65 889.757 1160.51C913.206 1157.65 920.504 1149.72 929.681 1128.42Z"/><path fill="#444" transform="matrix(0.803213 0 0 0.803213 -652.209 -819.277)" d="M929.6 1106.04L940.484 1106.31C942.684 1107.02 943.485 1107.23 945.759 1107.61L946.297 1108.71C936.866 1111.36 930.973 1110.72 921.803 1107.97C924.62 1106.42 926.474 1106.36 929.6 1106.04Z"/><path fill="#2E3030" transform="matrix(0.803213 0 0 0.803213 -652.209 -819.277)" d="M1023.81 1096.88C1026.9 1096.8 1028.89 1096.53 1031.86 1097.46L1030.49 1098.12L1031.37 1098.44C1024.25 1101.36 995.046 1100.41 984.501 1100.75C993.757 1096.21 1015 1102.23 1023.81 1096.88Z"/><path fill="#B8BDBB" transform="matrix(0.803213 0 0 0.803213 -652.209 -819.277)" d="M979.662 1105.22C988.412 1104.13 1002.5 1103.33 1010.76 1106.41C1013.19 1107.31 1014.95 1108.4 1016 1110.84C1015.8 1111.96 1015.91 1112.26 1015.09 1113.14C1010.48 1118.09 995.339 1117.53 989.006 1117.45C983.298 1117.37 977.611 1116.57 971.905 1116.29C964.387 1115.91 956.809 1116.08 949.283 1116.1C957.287 1106.68 968.214 1106.43 979.662 1105.22Z"/><path fill="#B8BDBB" transform="matrix(0.803213 0 0 0.803213 -652.209 -819.277)" d="M864.15 1105.16C869.104 1104.79 874.127 1104.76 879.094 1104.74C890.076 1104.7 910.746 1104.97 919.18 1113.38L919.11 1114.51C916.406 1115.71 913.518 1115.43 910.615 1115.42C894.221 1115.08 876.427 1118.34 860.365 1114.12C857.869 1113.46 856.311 1112.7 855.029 1110.43C855.161 1109.44 855.257 1108.67 855.933 1107.87C857.789 1105.66 861.486 1105.54 864.15 1105.16Z"/><path fill="#444" transform="matrix(0.803213 0 0 0.803213 -652.209 -819.277)" d="M961.8 1146.85C971.23 1153.67 988.105 1152.77 998.839 1150.38C1001.51 1149.79 1005.7 1147.76 1008.32 1148.24C1007.94 1148.48 1007.56 1148.72 1007.17 1148.94C997.143 1154.53 980.667 1155.34 969.821 1152.07C966.703 1151.13 963.356 1149.87 961.8 1146.85Z"/><path fill="#444" transform="matrix(0.803213 0 0 0.803213 -652.209 -819.277)" d="M862.977 1147.57C870.096 1150.8 878.25 1151.62 885.976 1151.73C889.74 1151.78 893.82 1151.14 897.395 1152.45C890.416 1154.17 882.16 1153.97 875.09 1152.87C870.896 1152.21 865.607 1151.12 862.977 1147.57Z"/><defs><linearGradient id="gradient_2" gradientUnits="userSpaceOnUse" x1="935.23016" y1="1174.531" x2="936.0257" y2="1206.342"><stop offset="0" stop-color="#592C0C"/><stop offset="1" stop-color="#8F5F23"/></linearGradient></defs><path fill="url(#gradient_2)" transform="matrix(0.803213 0 0 0.803213 -652.209 -819.277)" d="M880.179 1173.5C886.393 1176.64 891.929 1181.77 898.211 1185.13C921.189 1197.45 952.132 1196.37 975.044 1184.37C979.687 1181.94 984.542 1175.63 989.502 1174.55C990.462 1174.33 990.657 1174.71 991.417 1175.18C991.454 1175.42 991.522 1175.65 991.529 1175.88C991.626 1179.08 988.325 1182.51 986.454 1184.91C983.395 1188.77 980.085 1192.26 976.143 1195.21C961.367 1206.29 941.691 1209.53 923.701 1206.81C908.982 1204.59 891.816 1196.45 883.061 1183.97C880.568 1180.42 879.461 1177.82 880.179 1173.5Z"/><defs><linearGradient id="gradient_3" gradientUnits="userSpaceOnUse" x1="685.51849" y1="1239.5403" x2="785.71674" y2="1226.4888"><stop offset="0" stop-color="#62191D"/><stop offset="1" stop-color="#B6434E"/></linearGradient></defs><path fill="url(#gradient_3)" transform="matrix(0.803213 0 0 0.803213 -652.209 -819.277)" d="M740.447 1194.95C749.349 1195.24 756.81 1194.89 765.029 1190.93C768.529 1189.21 771.798 1187.06 774.759 1184.52C779.61 1180.41 795.092 1163.23 801.204 1171.51C813.26 1187.85 795.873 1204.71 785.334 1214.75C790.143 1218.49 790.944 1221.85 790.44 1227.84C789.303 1232.34 788.734 1237.57 787.848 1240.95C786.04 1242.6 779.838 1245.31 779.828 1245.34C775.375 1255.75 773.703 1252.46 764.187 1253.63C762.056 1253.9 757.555 1258.95 753.887 1259.15C749.156 1259.42 745.667 1257.03 741.033 1257.04C736.843 1257.18 730.709 1260.88 726.562 1259.59C721.015 1257.62 717.465 1251.91 711.268 1250.87C706.121 1250.01 700.438 1252.06 696.439 1247.77C694.021 1245.42 693.071 1240.76 691.236 1238.23C687.416 1232.95 683.024 1222.77 678.933 1218.51C686.829 1217.49 693.788 1218 700.225 1212.85C703.011 1210.7 727.954 1198.47 730.751 1198.33L730.811 1197.67C732.482 1196.45 737.433 1193.98 739.367 1194.67C739.601 1191.98 744.24 1187.99 746.66 1186.93C744.519 1189.94 742.785 1192.12 740.447 1194.95Z"/><defs><linearGradient id="gradient_4" gradientUnits="userSpaceOnUse" x1="760.32556" y1="1226.389" x2="772.11279" y2="1165.7072"><stop offset="0" stop-color="#771F29"/><stop offset="1" stop-color="#BE5359"/></linearGradient></defs><path fill="url(#gradient_4)" transform="matrix(0.803213 0 0 0.803213 -652.209 -819.277)" d="M740.447 1194.95C749.349 1195.24 756.81 1194.89 765.029 1190.93C768.529 1189.21 771.798 1187.06 774.759 1184.52C779.61 1180.41 795.092 1163.23 801.204 1171.51C813.26 1187.85 795.873 1204.71 785.334 1214.75C782.076 1216.42 779.264 1217.19 775.798 1218.3L774.844 1218.61C770.533 1220.65 768.945 1221.7 764.991 1224.42C758.09 1227.02 751.535 1229.4 744.549 1226.76L743.563 1226.38C740.44 1225.21 739.666 1225.1 737.065 1222.98C739.795 1223.74 744.923 1225.68 747.353 1225.14L747.675 1224.2C746.935 1221.29 745.116 1220.08 742.878 1217.95L746.258 1217.56L746.036 1216.87C743.021 1216.76 741.694 1217 739.169 1215.57C737.762 1213.43 738.173 1214.25 738.024 1211.44C735.124 1210.25 730.223 1208.98 729.082 1206.06C732.104 1201.25 737.228 1200.6 739.367 1194.67C739.601 1191.98 744.24 1187.99 746.66 1186.93C744.519 1189.94 742.785 1192.12 740.447 1194.95Z"/></g></svg>