<?xml version="1.0" encoding="utf-8" ?><svg xmlns="http://www.w3.org/2000/svg" xmlns:xlink="http://www.w3.org/1999/xlink" width="200" height="206" viewBox="0 0 200 206"><clipPath id="cl_16"><rect y="1.5258789e-05" width="200" height="206"/></clipPath><g clip-path="url(#cl_16)"><defs><linearGradient id="gradient_0" gradientUnits="userSpaceOnUse" x1="585.03326" y1="196.01459" x2="586.77441" y2="37.657959"><stop offset="0" stop-color="#84962D"/><stop offset="1" stop-color="#A5B93F"/></linearGradient></defs><path fill="url(#gradient_0)" transform="matrix(1.12994 0 0 1.13187 -562.712 -30.5604)" d="M581.474 37.055C625.611 34.5083 663.464 68.1873 666.047 112.3C668.629 156.413 634.963 194.275 590.831 196.89C546.649 199.508 508.719 165.814 506.133 121.652C503.548 77.4905 537.289 39.6045 581.474 37.055Z"/><defs><linearGradient id="gradient_1" gradientUnits="userSpaceOnUse" x1="585.77264" y1="78.294022" x2="585.63385" y2="45.166859"><stop offset="0" stop-color="#D1DD7E"/><stop offset="1" stop-color="#F6FECF"/></linearGradient></defs><path fill="url(#gradient_1)" transform="matrix(1.12994 0 0 1.13187 -562.712 -30.5604)" d="M540.932 61.5179C553.926 51.7687 560.074 48.4603 577.099 45.3146C591.13 42.7218 607.101 46.924 619.757 53.0765C622.883 54.5964 627.991 58.6773 630.977 60.8128C633.504 62.7531 638.761 67.0302 640.113 69.7628L640.115 70.2286C639.474 69.8906 639.009 69.1331 638.564 68.5291C638.199 68.9909 638.369 70.3799 638.246 71.1654C637.503 75.9183 635.37 78.8276 631.572 81.4231C632.56 81.9347 634.069 82.5025 634.598 83.296C637.416 84.8944 641.735 85.1906 640.557 89.3025C640.422 89.7657 640.035 90.9841 639.967 91.3914C640.035 91.5266 640.087 91.9939 640.114 92.1741C637.16 96.2644 623.586 90.5286 619.88 88.9122C616.398 87.1773 613.918 85.5321 609.992 86.8426C606.704 87.9619 603.983 90.32 602.409 93.4147C602.147 93.9415 601.998 94.2348 602.004 94.8259C601.705 95.251 600.055 97.6074 599.731 97.8051C595.983 100.096 588.017 100.237 583.678 99.9804C580.392 99.7864 573.122 99.3675 571.415 96.6314C570.472 95.1203 569.708 92.9965 568.247 91.3889L568.174 91.3096C566.629 90.4259 565.251 88.9478 563.741 87.9984L564.004 88.4912L563.981 88.2981C564.686 88.9818 565.072 89.302 565.333 90.2611C564.783 89.8468 564.222 89.4471 563.651 89.0624C561.514 87.642 560.053 87.8635 557.735 88.3328L555.218 88.4452C553.159 89.6503 551.924 91.4255 550.408 93.2804C550.097 91.9244 551.432 91.1588 552.232 90.0372C549.324 89.4379 544.77 93.5732 540.476 93.1346C538.19 93.4353 535.04 93.652 532.985 92.5263C532.331 91.5722 532.396 91.9675 532.557 90.9343C532.599 90.4565 532.477 89.0202 532.443 88.4627L532.144 87.4508C532.854 84.7259 535.081 85.4103 537.168 83.7182C537.56 83.1524 539.468 82.4545 540.475 81.7621C539.999 81.4815 539.537 81.1779 539.09 80.8524C537.646 79.7816 537.65 79.0384 536.831 77.9093C534.314 74.4403 534.163 73.8441 533.526 69.7602C533.205 69.8663 531.335 71.5645 530.942 71.9081C533.885 67.9019 536.79 64.3895 540.932 61.5179Z"/><defs><linearGradient id="gradient_2" gradientUnits="userSpaceOnUse" x1="597.30365" y1="99.340393" x2="596.21167" y2="68.148811"><stop offset="0" stop-color="#C1D15E"/><stop offset="1" stop-color="#E0EA9D"/></linearGradient></defs><path fill="url(#gradient_2)" transform="matrix(1.12994 0 0 1.13187 -562.712 -30.5604)" d="M609.396 67.3868C609.627 65.9595 609.393 65.9608 610.304 65.0636C613.655 65.121 615.95 71.237 618.554 73.1269L619.35 72.9748C620.629 73.9513 621.838 74.9664 623.292 75.6494C623.988 76.1809 625.135 76.9782 625.636 77.6417C626.787 78.509 628.439 79.6861 629.456 80.6297C630.759 81.6938 633.002 82.7639 634.598 83.296C637.416 84.8944 641.735 85.1906 640.557 89.3025C640.422 89.7657 640.035 90.9841 639.967 91.3914C640.035 91.5266 640.087 91.9939 640.114 92.1741C637.16 96.2644 623.586 90.5286 619.88 88.9122C616.398 87.1773 613.918 85.5321 609.992 86.8426C606.704 87.9619 603.983 90.32 602.409 93.4147C602.147 93.9415 601.998 94.2348 602.004 94.8259C601.705 95.251 600.055 97.6074 599.731 97.8051C595.983 100.096 588.017 100.237 583.678 99.9804C580.392 99.7864 573.122 99.3675 571.415 96.6314C570.472 95.1203 569.708 92.9965 568.247 91.3889L568.174 91.3096C566.629 90.4259 565.251 88.9478 563.741 87.9984L564.004 88.4912L563.981 88.2981C564.686 88.9818 565.072 89.302 565.333 90.2611C564.783 89.8468 564.222 89.4471 563.651 89.0624C561.514 87.642 560.053 87.8635 557.735 88.3328L555.218 88.4452L555.28 87.6814L559.121 86.3656C555.882 85.4778 554.713 85.5972 551.649 87.1613C551.77 86.6135 553.434 85.0496 553.922 84.5545L553.81 84.2003L552.56 84.1311C555.951 80.9388 557.537 78.5907 560.23 74.8319C562.046 73.9138 562.981 71.1458 563.81 69.2602C576.476 73.1387 596.662 73.059 609.32 68.8893C609.709 70.0467 609.437 69.6655 610.419 70.408C610.117 69.4264 609.731 68.3675 609.396 67.3868Z"/><defs><linearGradient id="gradient_3" gradientUnits="userSpaceOnUse" x1="625.82941" y1="76.60231" x2="620.22192" y2="83.068581"><stop offset="0" stop-color="#385C19"/><stop offset="1" stop-color="#4A7821"/></linearGradient></defs><path fill="url(#gradient_3)" transform="matrix(1.12994 0 0 1.13187 -562.712 -30.5604)" d="M609.396 67.3868C609.627 65.9595 609.393 65.9608 610.304 65.0636C613.655 65.121 615.95 71.237 618.554 73.1269L619.35 72.9748C620.629 73.9513 621.838 74.9664 623.292 75.6494C623.988 76.1809 625.135 76.9782 625.636 77.6417C626.787 78.509 628.439 79.6861 629.456 80.6297C630.759 81.6938 633.002 82.7639 634.598 83.296C637.416 84.8944 641.735 85.1906 640.557 89.3025C640.422 89.7657 640.035 90.9841 639.967 91.3914C627.752 94.8315 615.233 80.024 610.419 70.408C610.117 69.4264 609.731 68.3675 609.396 67.3868Z"/><path fill="#8B9E31" transform="matrix(1.12994 0 0 1.13187 -562.712 -30.5604)" d="M625.03 79.6197C626.535 79.933 627.971 80.2238 629.456 80.6297C630.759 81.6938 633.002 82.7639 634.598 83.296C637.416 84.8944 641.735 85.1906 640.557 89.3025C640.067 87.0851 635.927 85.8153 633.963 84.9721C630.425 83.4535 628.035 81.946 625.03 79.6197Z"/><path fill="#BBCB52" transform="matrix(1.12994 0 0 1.13187 -562.712 -30.5604)" d="M618.554 73.1269L619.35 72.9748C620.629 73.9513 621.838 74.9664 623.292 75.6494C623.988 76.1809 625.135 76.9782 625.636 77.6417C626.787 78.509 628.439 79.6861 629.456 80.6297C627.971 80.2238 626.535 79.933 625.03 79.6197C623.024 77.8978 620.171 75.1541 618.554 73.1269Z"/><path fill="#BBCB52" transform="matrix(1.12994 0 0 1.13187 -562.712 -30.5604)" d="M559.121 86.3656C562.661 86.1513 566.719 87.9227 568.174 91.3096C566.629 90.4259 565.251 88.9478 563.741 87.9984L564.004 88.4912L563.981 88.2981C564.686 88.9818 565.072 89.302 565.333 90.2611C564.783 89.8468 564.222 89.4471 563.651 89.0624C561.514 87.642 560.053 87.8635 557.735 88.3328L555.218 88.4452L555.28 87.6814L559.121 86.3656Z"/><defs><linearGradient id="gradient_4" gradientUnits="userSpaceOnUse" x1="546.56104" y1="76.394501" x2="552.52087" y2="82.940575"><stop offset="0" stop-color="#375D17"/><stop offset="1" stop-color="#4C7A23"/></linearGradient></defs><path fill="url(#gradient_4)" transform="matrix(1.12994 0 0 1.13187 -562.712 -30.5604)" d="M555.305 72.1324C557.741 69.477 559.916 65.2626 563.101 64.4936C564.129 68.0591 561.892 71.6833 560.23 74.8319C557.537 78.5907 555.951 80.9388 552.56 84.1311L553.81 84.2003L553.922 84.5545C553.434 85.0496 551.77 86.6135 551.649 87.1613C554.713 85.5972 555.882 85.4778 559.121 86.3656L555.28 87.6814L555.218 88.4452C553.159 89.6503 551.924 91.4255 550.408 93.2804C550.097 91.9244 551.432 91.1588 552.232 90.0372C549.324 89.4379 544.77 93.5732 540.476 93.1346C538.19 93.4353 535.04 93.652 532.985 92.5263C532.331 91.5722 532.396 91.9675 532.557 90.9343C532.599 90.4565 532.477 89.0202 532.443 88.4627L532.144 87.4508C532.854 84.7259 535.081 85.4103 537.168 83.7182C538.489 83.418 540.697 82.3169 542.009 81.714C544.125 81.0219 544.244 80.5557 546.064 80.9622C548.271 79.425 548.89 78.9007 550.735 76.9333C552.299 75.4668 553.844 73.7201 555.305 72.1324Z"/><path fill="#BBCB52" transform="matrix(1.12994 0 0 1.13187 -562.712 -30.5604)" d="M552.56 84.1311L553.81 84.2003L553.922 84.5545C553.434 85.0496 551.77 86.6135 551.649 87.1613C554.713 85.5972 555.882 85.4778 559.121 86.3656L555.28 87.6814L555.218 88.4452C553.159 89.6503 551.924 91.4255 550.408 93.2804C550.097 91.9244 551.432 91.1588 552.232 90.0372C549.324 89.4379 544.77 93.5732 540.476 93.1346C538.19 93.4353 535.04 93.652 532.985 92.5263C532.331 91.5722 532.396 91.9675 532.557 90.9343C539.637 93.8383 547.252 88.3836 552.56 84.1311Z"/><path fill="#C1CE64" transform="matrix(1.12994 0 0 1.13187 -562.712 -30.5604)" d="M551.649 87.1613C554.713 85.5972 555.882 85.4778 559.121 86.3656L555.28 87.6814L555.218 88.4452C553.159 89.6503 551.924 91.4255 550.408 93.2804C550.097 91.9244 551.432 91.1588 552.232 90.0372C549.324 89.4379 544.77 93.5732 540.476 93.1346C543.838 92.0019 546.496 91.2775 549.453 89.2463C549.958 88.6142 551.013 87.7309 551.649 87.1613Z"/><path fill="#8B9E31" transform="matrix(1.12994 0 0 1.13187 -562.712 -30.5604)" d="M542.009 81.714C544.125 81.0219 544.244 80.5557 546.064 80.9622C544.636 81.9446 543.36 82.8257 541.823 83.6452C538.86 85.2257 534.813 86.1194 532.443 88.4627L532.144 87.4508C532.854 84.7259 535.081 85.4103 537.168 83.7182C538.489 83.418 540.697 82.3169 542.009 81.714Z"/><path fill="#C1CE64" transform="matrix(1.12994 0 0 1.13187 -562.712 -30.5604)" d="M530.942 71.9081C533.885 67.9019 536.79 64.3895 540.932 61.5179C539.871 63.7082 538.956 64.3191 537.392 66.1256C537.967 70.0758 540.145 77.885 545.112 78.4626C545.318 78.4865 547.05 77.5588 547.434 77.4184L547.487 77.7821C548.214 77.5307 549.922 77.1425 550.735 76.9333C548.89 78.9007 548.271 79.425 546.064 80.9622C544.244 80.5557 544.125 81.0219 542.009 81.714C540.697 82.3169 538.489 83.418 537.168 83.7182C537.56 83.1524 539.468 82.4545 540.475 81.7621C539.999 81.4815 539.537 81.1779 539.09 80.8524C537.646 79.7816 537.65 79.0384 536.831 77.9093C534.314 74.4403 534.163 73.8441 533.526 69.7602C533.205 69.8663 531.335 71.5645 530.942 71.9081Z"/><path fill="#BBCB52" transform="matrix(1.12994 0 0 1.13187 -562.712 -30.5604)" d="M547.487 77.7821C548.214 77.5307 549.922 77.1425 550.735 76.9333C548.89 78.9007 548.271 79.425 546.064 80.9622C544.244 80.5557 544.125 81.0219 542.009 81.714C543.267 80.5984 546.017 78.7936 547.487 77.7821Z"/><path fill="#C1CE64" transform="matrix(1.12994 0 0 1.13187 -562.712 -30.5604)" d="M630.977 60.8128C633.504 62.7531 638.761 67.0302 640.113 69.7628L640.115 70.2286C639.474 69.8906 639.009 69.1331 638.564 68.5291C638.199 68.9909 638.369 70.3799 638.246 71.1654C637.503 75.9183 635.37 78.8276 631.572 81.4231C632.56 81.9347 634.069 82.5025 634.598 83.296C633.002 82.7639 630.759 81.6938 629.456 80.6297C628.439 79.6861 626.787 78.509 625.636 77.6417C625.975 77.7409 626.319 77.8242 626.666 77.8914C631.344 78.7664 636.108 67.3989 634.062 64.5618C633.883 64.9873 633.899 64.9685 633.555 65.2745C632.238 63.3373 631.981 62.9216 630.977 60.8128Z"/><path fill="#C1CE64" transform="matrix(1.12994 0 0 1.13187 -562.712 -30.5604)" d="M609.396 67.3868C609.189 66.0186 608.961 64.7142 609.586 63.5255C613.287 62.5493 620.329 72.7141 623.292 75.6494C621.838 74.9664 620.629 73.9513 619.35 72.9748L618.554 73.1269C615.95 71.237 613.655 65.121 610.304 65.0636C609.393 65.9608 609.627 65.9595 609.396 67.3868Z"/><path fill="#C1CE64" transform="matrix(1.12994 0 0 1.13187 -562.712 -30.5604)" d="M552.727 72.5898C555.025 70.0645 557.566 64.9863 560.733 63.8241C561.685 63.475 562.343 64.0407 563.101 64.4936C559.916 65.2626 557.741 69.477 555.305 72.1324L552.727 72.5898Z"/><path fill="#BBCB52" transform="matrix(1.12994 0 0 1.13187 -562.712 -30.5604)" d="M552.727 72.5898L555.305 72.1324C553.844 73.7201 552.299 75.4668 550.735 76.9333C549.922 77.1425 548.214 77.5307 547.487 77.7821L547.434 77.4184C549.494 75.7063 550.886 74.5605 552.727 72.5898Z"/><defs><linearGradient id="gradient_5" gradientUnits="userSpaceOnUse" x1="585.55994" y1="126.63158" x2="585.2641" y2="150.75278"><stop offset="0" stop-color="#375B17"/><stop offset="1" stop-color="#477520"/></linearGradient></defs><path fill="url(#gradient_5)" transform="matrix(1.12994 0 0 1.13187 -562.712 -30.5604)" d="M607.043 132.607C607.814 131.479 608.735 130.461 609.782 129.582C611.897 127.78 616.388 124.983 619.308 125.227C620.252 125.834 619.967 125.615 620.454 126.777C610.573 134.733 608.667 140.198 609.805 152.666C606.724 148.221 606.303 144.214 606.669 138.897C605.355 139.643 602.765 138.925 601.364 138.445C593.306 135.686 585.273 135.613 576.93 136.878C575.051 137.163 566.137 139.627 565.167 139.285C565.606 144.23 564.572 148.476 562.005 152.692C562.552 144.109 562.04 136.783 555.581 130.39C554.54 129.36 551.76 127.596 551.275 126.531C552.548 125.702 552.812 125.275 554.488 125.653C558.85 126.637 562.061 129.238 564.581 132.796L566.181 131.95C570.492 129.554 575.256 128.184 580.191 128.759C585.166 128.205 588.619 128.312 593.635 129.039C598.681 129.13 601.456 129.76 606.017 132.155L607.043 132.607Z"/><path fill="#BBCB52" transform="matrix(1.12994 0 0 1.13187 -562.712 -30.5604)" d="M565.167 139.285L565.491 138.466C573.478 133.105 599.062 132.743 606.669 138.897C605.355 139.643 602.765 138.925 601.364 138.445C593.306 135.686 585.273 135.613 576.93 136.878C575.051 137.163 566.137 139.627 565.167 139.285Z"/><path fill="#8B9E31" transform="matrix(1.12994 0 0 1.13187 -562.712 -30.5604)" d="M607.043 132.607C607.814 131.479 608.735 130.461 609.782 129.582C611.897 127.78 616.388 124.983 619.308 125.227C620.252 125.834 619.967 125.615 620.454 126.777C616.658 126.284 611.073 129.629 608.957 132.833L607.043 132.607Z"/><path fill="#8B9E31" transform="matrix(1.12994 0 0 1.13187 -562.712 -30.5604)" d="M551.275 126.531C552.548 125.702 552.812 125.275 554.488 125.653C558.85 126.637 562.061 129.238 564.581 132.796L563.004 133.091C559.82 128.685 556.404 127.692 551.275 126.531Z"/><path fill="#8B9E31" transform="matrix(1.12994 0 0 1.13187 -562.712 -30.5604)" d="M566.181 131.95C570.492 129.554 575.256 128.184 580.191 128.759C576.672 129.652 571.629 130.907 568.31 132.411L566.181 131.95Z"/><path fill="#8B9E31" transform="matrix(1.12994 0 0 1.13187 -562.712 -30.5604)" d="M593.635 129.039C598.681 129.13 601.456 129.76 606.017 132.155C604.948 132.345 603.906 132.249 602.823 132.197C599.941 131.011 596.628 130.007 593.635 129.039Z"/><path fill="#768C27" transform="matrix(1.12994 0 0 1.13187 -562.712 -30.5604)" d="M602.823 132.197C603.906 132.249 604.948 132.345 606.017 132.155L607.043 132.607L608.957 132.833L607.662 135.232C605.957 134.055 604.68 133.162 602.823 132.197Z"/><path fill="#768C27" transform="matrix(1.12994 0 0 1.13187 -562.712 -30.5604)" d="M566.181 131.95L568.31 132.411C567.062 133.207 565.353 134.654 564.11 134.622C563.453 134.031 563.395 133.881 563.004 133.091L564.581 132.796L566.181 131.95Z"/><defs><linearGradient id="gradient_6" gradientUnits="userSpaceOnUse" x1="612.40948" y1="88.646378" x2="611.73645" y2="111.79403"><stop offset="0" stop-color="#446F1E"/><stop offset="1" stop-color="#67992E"/></linearGradient></defs><path fill="url(#gradient_6)" transform="matrix(1.12994 0 0 1.13187 -562.712 -30.5604)" d="M602.004 94.8259C601.998 94.2348 602.147 93.9415 602.409 93.4147C603.983 90.32 606.704 87.9619 609.992 86.8426C613.918 85.5321 616.398 87.1773 619.88 88.9122C620.302 89.5516 622.739 94.0838 622.947 94.805C619.558 90.4831 618.585 88.6155 613.389 87.9434C622.293 91.8598 624.989 101.986 618.636 109.376C618.036 110.074 616.673 111.233 616.243 111.919L616.498 112.034C616.232 112.257 615.771 112.609 615.476 112.734C607.631 116.062 601.789 106.531 601.708 99.827C601.685 97.9144 601.334 96.6562 602.004 94.8259Z"/><path fill="#BBCB52" transform="matrix(1.12994 0 0 1.13187 -562.712 -30.5604)" d="M602.004 94.8259C601.998 94.2348 602.147 93.9415 602.409 93.4147C603.983 90.32 606.704 87.9619 609.992 86.8426C613.918 85.5321 616.398 87.1773 619.88 88.9122C620.302 89.5516 622.739 94.0838 622.947 94.805C619.558 90.4831 618.585 88.6155 613.389 87.9434C597.389 88.2301 600.042 117.418 616.243 111.919L616.498 112.034C616.232 112.257 615.771 112.609 615.476 112.734C607.631 116.062 601.789 106.531 601.708 99.827C601.685 97.9144 601.334 96.6562 602.004 94.8259Z"/><defs><linearGradient id="gradient_7" gradientUnits="userSpaceOnUse" x1="560.099" y1="88.652916" x2="560.02808" y2="111.75913"><stop offset="0" stop-color="#446F1E"/><stop offset="1" stop-color="#67992F"/></linearGradient></defs><path fill="url(#gradient_7)" transform="matrix(1.12994 0 0 1.13187 -562.712 -30.5604)" d="M557.735 88.3328C560.053 87.8635 561.514 87.642 563.651 89.0624C564.222 89.4471 564.783 89.8468 565.333 90.2611C568.623 94.8087 571.091 96.798 569.855 103.043C568.472 111.439 557.731 116.621 552.588 108.137C547.974 100.524 550.768 92.8491 557.735 88.3328Z"/><path fill="#466F1F" transform="matrix(1.12994 0 0 1.13187 -562.712 -30.5604)" d="M559.499 90.694C563.543 90.5188 566.339 91.9444 567.281 96.0422C568.057 99.4162 569.352 99.7353 568.396 103.475C567.969 103.399 568.065 103.23 568.067 102.685C568.087 96.9735 566.074 92.7843 559.62 92.5447C553.12 93.958 553.434 96.9106 551.971 102.074L551.717 101.68C551.663 99.6079 552.879 93.2157 555.201 92.1584C555.63 91.9628 560.043 91.903 560.666 91.1705L559.499 90.694Z"/></g></svg>