<?xml version="1.0" encoding="utf-8" ?><svg xmlns="http://www.w3.org/2000/svg" xmlns:xlink="http://www.w3.org/1999/xlink" width="200" height="211" viewBox="0 0 200 211"><clipPath id="cl_13"><rect y="6.1035156e-05" width="200" height="211"/></clipPath><g clip-path="url(#cl_13)"><path fill="#ECBE53" transform="matrix(0.775194 0 0 0.778598 -227.907 -782.491)" d="M330.111 1070.32C341.201 1049.98 369.517 1032.94 391.529 1026.47C422.209 1017.62 455.156 1021.42 483.014 1037.03C494.677 1043.51 513.802 1059.78 519.507 1071.87C525.056 1080.75 532.386 1091.35 534.87 1101.38C539.026 1110.26 543.063 1137.08 539.479 1146.34C537.936 1158.42 531.8 1166.8 526.668 1176.59C526.525 1177.33 526.119 1179.72 525.918 1180.29C525.305 1186.29 523.274 1192.57 521.744 1198.45C519.695 1204.75 519.416 1212.47 518.837 1218.64C518.141 1226.05 522.838 1243.45 521.821 1249.33C518.733 1267.18 468.234 1272.58 465.593 1251.4C465.379 1249.68 466.048 1244.07 466.399 1242.29L465.813 1240.09C437.581 1258.86 412.039 1261.36 383.757 1240.31L382.667 1240.64C383.779 1251.4 384.854 1259.58 371.833 1263.31C360.88 1266.45 345.432 1264.97 335.218 1259.8C320.772 1252.48 330.741 1232.09 329.894 1219.89C329.568 1208.32 329.022 1205.92 326.121 1194.66C323.677 1188.64 322.544 1181.66 320.453 1176.45C315.192 1163.36 310.118 1155 308.274 1140.46C306.863 1129.61 309.492 1112.36 313.489 1102.17C316.101 1091.77 323.813 1079.18 330.111 1070.32Z"/><defs><linearGradient id="gradient_0" gradientUnits="userSpaceOnUse" x1="425.06998" y1="1104.8447" x2="425.01041" y2="1055.5273"><stop offset="0" stop-color="#8E9CB3"/><stop offset="1" stop-color="#ACB8FF"/></linearGradient></defs><path fill="url(#gradient_0)" transform="matrix(0.775194 0 0 0.778598 -227.907 -782.491)" d="M330.111 1070.32C341.201 1049.98 369.517 1032.94 391.529 1026.47C422.209 1017.62 455.156 1021.42 483.014 1037.03C494.677 1043.51 513.802 1059.78 519.507 1071.87C525.056 1080.75 532.386 1091.35 534.87 1101.38L533.759 1101.16L532.132 1097.52C529.445 1096.63 525.298 1098.2 522.43 1099.02C524.854 1104.12 527.442 1110.69 525.242 1116.19C522.487 1108.72 524.097 1102.38 513.077 1103.47C508.151 1103.96 503.08 1103.99 498.13 1103.92C501.722 1108.9 506.907 1118.74 504.759 1124.87C497.201 1081.49 443.591 1068.02 440.602 1116.59L438.774 1114.24C438.914 1112.15 441.207 1102.72 441.962 1100.59C437.892 1098.55 409.983 1099.16 404.258 1099.96L404.099 1100.72C407.918 1107.62 405.799 1107.62 407.478 1113.41C408.969 1113.19 408.687 1113 409.952 1113.41L409.279 1114.75L406.111 1115.41C405.083 1129.32 400.744 1143.13 389.495 1151.82C368.25 1168.23 347.466 1161.94 341.62 1135.36L341.484 1134.79C340.908 1132.29 340.923 1132.12 341.097 1129.59C340.01 1130.64 340.314 1130.02 340.081 1131.24C338.137 1141.42 322.499 1142.29 323.459 1157.28C323.869 1159.2 325.774 1165.04 324.964 1166.35C322.701 1170.01 322.491 1169.59 321.966 1173.86C316.847 1171.71 310.511 1143.46 308.274 1140.46C306.863 1129.61 309.492 1112.36 313.489 1102.17C316.101 1091.77 323.813 1079.18 330.111 1070.32Z"/><path fill="#010101" transform="matrix(0.775194 0 0 0.778598 -227.907 -782.491)" d="M342.908 1119.21C345.049 1113 346.927 1107.66 350.996 1102.49C370.838 1077.26 402.38 1079.56 406.111 1115.41C405.083 1129.32 400.744 1143.13 389.495 1151.82C368.25 1168.23 347.466 1161.94 341.62 1135.36C342.248 1129.99 341.999 1125.51 342.908 1119.21Z"/><path fill="#F6F9F9" transform="matrix(0.775194 0 0 0.778598 -227.907 -782.491)" d="M344.418 1123.26C347.893 1104.31 364.286 1085.11 385.231 1089.26C391.03 1090.36 396.122 1093.8 399.317 1098.76C403.801 1105.69 404.638 1116.18 402.798 1124.14C401.985 1133.52 396.269 1143.29 389.447 1149.58C374.735 1163.16 349.287 1162.42 344.715 1139.38C343.54 1133.46 343.944 1129.28 344.418 1123.26Z"/><path fill="#BDC4C1" transform="matrix(0.775194 0 0 0.778598 -227.907 -782.491)" d="M344.418 1123.26C347.893 1104.31 364.286 1085.11 385.231 1089.26C391.03 1090.36 396.122 1093.8 399.317 1098.76C403.801 1105.69 404.638 1116.18 402.798 1124.14C403.253 1113.66 397.661 1102.04 388.982 1096.09C371.32 1094.08 361.204 1097.39 351.896 1113.76C350.095 1116.93 347.162 1120.89 344.418 1123.26Z"/><defs><linearGradient id="gradient_1" gradientUnits="userSpaceOnUse" x1="425.46585" y1="1065.776" x2="425.27151" y2="1032.5995"><stop offset="0" stop-color="#B1BAF2"/><stop offset="1" stop-color="#E9ECFE"/></linearGradient></defs><path fill="url(#gradient_1)" transform="matrix(0.775194 0 0 0.778598 -227.907 -782.491)" d="M368.427 1048.4C373.521 1044.4 392 1036.92 398.257 1035.34C428.209 1027.78 454.788 1032.43 481.071 1047.76C483.581 1051.08 486.944 1053.57 490.146 1056.19L489.878 1056.73C484.206 1054.02 441.797 1066.27 429.389 1066.56C404.141 1067.16 385.472 1058.74 361.682 1055.98C361.61 1053.16 366.129 1052.2 368.427 1048.4Z"/><defs><linearGradient id="gradient_2" gradientUnits="userSpaceOnUse" x1="422.21863" y1="1071.139" x2="420.6701" y2="1022.4807"><stop offset="0" stop-color="#366EDE"/><stop offset="1" stop-color="#2C53F7"/></linearGradient></defs><path fill="url(#gradient_2)" transform="matrix(0.775194 0 0 0.778598 -227.907 -782.491)" d="M330.111 1070.32C341.201 1049.98 369.517 1032.94 391.529 1026.47C422.209 1017.62 455.156 1021.42 483.014 1037.03C494.677 1043.51 513.802 1059.78 519.507 1071.87C525.056 1080.75 532.386 1091.35 534.87 1101.38L533.759 1101.16L532.132 1097.52C529.445 1096.63 525.298 1098.2 522.43 1099.02C520.543 1096.88 514.217 1083.68 512.553 1080.38C503.088 1066.07 496.074 1057.03 481.071 1047.76C454.788 1032.43 428.209 1027.78 398.257 1035.34C392 1036.92 373.521 1044.4 368.427 1048.4C358.99 1054.82 352.827 1060.07 345.812 1069.32C344.233 1071.4 339.531 1078.56 338.235 1079.97C336.466 1083.36 329.488 1097.87 327.606 1099.51C323.604 1098.22 320.243 1096.53 316.63 1098.18C315.746 1099.62 314.858 1101.61 313.489 1102.17C316.101 1091.77 323.813 1079.18 330.111 1070.32Z"/><path fill="#3673BB" transform="matrix(0.775194 0 0 0.778598 -227.907 -782.491)" d="M330.111 1070.32L331.228 1070.61C332.082 1069.46 332.567 1068.75 333.305 1067.52C335.05 1073.08 339.101 1071.94 340.058 1075.4C339.087 1076.86 338.801 1077.28 337.623 1078.57C337.75 1078.9 338.033 1079.76 338.235 1079.97C336.466 1083.36 329.488 1097.87 327.606 1099.51C323.604 1098.22 320.243 1096.53 316.63 1098.18C315.746 1099.62 314.858 1101.61 313.489 1102.17C316.101 1091.77 323.813 1079.18 330.111 1070.32Z"/><path fill="#3673BB" transform="matrix(0.775194 0 0 0.778598 -227.907 -782.491)" d="M506.747 1069.66L510.683 1065.23C510.915 1063.67 510.835 1063.96 511.363 1062.42C512.674 1064.7 516.78 1069.85 518.692 1072.7L519.507 1071.87C525.056 1080.75 532.386 1091.35 534.87 1101.38L533.759 1101.16L532.132 1097.52C529.445 1096.63 525.298 1098.2 522.43 1099.02C520.543 1096.88 514.217 1083.68 512.553 1080.38C512.748 1077.15 508.852 1072.67 506.747 1069.66Z"/><path fill="#B09468" transform="matrix(0.775194 0 0 0.778598 -227.907 -782.491)" d="M313.489 1102.17C314.858 1101.61 315.746 1099.62 316.63 1098.18C320.243 1096.53 323.604 1098.22 327.606 1099.51C326.326 1102.6 323.553 1111.05 325.075 1114.29C327.563 1112.31 327.054 1107.76 328.827 1102.76C333.511 1104.08 344.546 1105.1 346.122 1106.57C346.282 1110.99 341.061 1114.52 342.908 1119.21C341.999 1125.51 342.248 1129.99 341.62 1135.36L341.484 1134.79C340.908 1132.29 340.923 1132.12 341.097 1129.59C340.01 1130.64 340.314 1130.02 340.081 1131.24C338.137 1141.42 322.499 1142.29 323.459 1157.28C323.869 1159.2 325.774 1165.04 324.964 1166.35C322.701 1170.01 322.491 1169.59 321.966 1173.86C316.847 1171.71 310.511 1143.46 308.274 1140.46C306.863 1129.61 309.492 1112.36 313.489 1102.17Z"/><path fill="#CE8632" transform="matrix(0.775194 0 0 0.778598 -227.907 -782.491)" d="M308.274 1140.46C310.511 1143.46 316.847 1171.71 321.966 1173.86C322.491 1169.59 322.701 1170.01 324.964 1166.35C325.774 1165.04 323.869 1159.2 323.459 1157.28C325.463 1160.32 325.702 1161.6 328.791 1162.79C333.822 1161.91 334.365 1160.13 340.757 1162.02C360.674 1169.13 372.886 1187.41 378.71 1207.13C380.71 1215.99 384.336 1231.7 383.757 1240.31L382.667 1240.64C383.779 1251.4 384.854 1259.58 371.833 1263.31C360.88 1266.45 345.432 1264.97 335.218 1259.8C320.772 1252.48 330.741 1232.09 329.894 1219.89C329.568 1208.32 329.022 1205.92 326.121 1194.66C323.677 1188.64 322.544 1181.66 320.453 1176.45C315.192 1163.36 310.118 1155 308.274 1140.46Z"/><defs><linearGradient id="gradient_3" gradientUnits="userSpaceOnUse" x1="375.22934" y1="1197.0643" x2="328.72083" y2="1206.7993"><stop offset="0" stop-color="#84330F"/><stop offset="1" stop-color="#A35822"/></linearGradient></defs><path fill="url(#gradient_3)" transform="matrix(0.775194 0 0 0.778598 -227.907 -782.491)" d="M308.274 1140.46C310.511 1143.46 316.847 1171.71 321.966 1173.86C322.491 1169.59 322.701 1170.01 324.964 1166.35C325.774 1165.04 323.869 1159.2 323.459 1157.28C325.463 1160.32 325.702 1161.6 328.791 1162.79C333.822 1161.91 334.365 1160.13 340.757 1162.02C360.674 1169.13 372.886 1187.41 378.71 1207.13C380.71 1215.99 384.336 1231.7 383.757 1240.31L382.667 1240.64C377.796 1235.07 378.603 1221.78 376.421 1213.16C371.88 1195.22 357.755 1166.04 334.719 1170.01C321.034 1172.37 329.211 1192.03 327.376 1195.19L326.838 1194.27L326.121 1194.66C323.677 1188.64 322.544 1181.66 320.453 1176.45C315.192 1163.36 310.118 1155 308.274 1140.46Z"/><path fill="#CE8632" transform="matrix(0.775194 0 0 0.778598 -227.907 -782.491)" d="M323.459 1157.28C325.463 1160.32 325.702 1161.6 328.791 1162.79C333.822 1161.91 334.365 1160.13 340.757 1162.02C331.729 1162.45 325.299 1164.31 321.966 1173.86C322.491 1169.59 322.701 1170.01 324.964 1166.35C325.774 1165.04 323.869 1159.2 323.459 1157.28Z"/><defs><linearGradient id="gradient_4" gradientUnits="userSpaceOnUse" x1="350.49606" y1="1177.4214" x2="349.5686" y2="1249.4856"><stop offset="0" stop-color="#DCA73B"/><stop offset="1" stop-color="#F8D549"/></linearGradient></defs><path fill="url(#gradient_4)" transform="matrix(0.775194 0 0 0.778598 -227.907 -782.491)" d="M336.267 1177.33C337.661 1177.73 338.774 1177.97 340.194 1178.27L340.398 1179.08L338.261 1179.32L338.657 1180.16L341.578 1180.25L341.718 1181.04L339.886 1181.46L339.885 1181.78L345.406 1182.59C351.001 1186.31 362.859 1201.84 364.463 1208.38C366.141 1215.21 372.279 1245.03 364.896 1248.98C357.811 1252.47 339.884 1249.04 339.063 1241.96C337.971 1232.55 340.956 1221.66 339.398 1211.27C338.644 1211.06 337.891 1210.84 337.137 1210.63C336.552 1206.56 336.607 1188.75 334.077 1186.4C334.121 1184.39 334.215 1182.38 334.36 1180.37L332.882 1180.31C333.161 1179.12 334.947 1178.28 336.267 1177.33Z"/><path fill="#CE8632" transform="matrix(0.775194 0 0 0.778598 -227.907 -782.491)" d="M474.493 1194.07C484.207 1177.65 494.608 1162.18 515.442 1162.15C522.227 1166.13 525.533 1168.34 526.668 1176.59C526.525 1177.33 526.119 1179.72 525.918 1180.29C525.305 1186.29 523.274 1192.57 521.744 1198.45C519.695 1204.75 519.416 1212.47 518.837 1218.64C518.141 1226.05 522.838 1243.45 521.821 1249.33C518.733 1267.18 468.234 1272.58 465.593 1251.4C465.379 1249.68 466.048 1244.07 466.399 1242.29L465.813 1240.09C464.359 1231.48 468.024 1217 469.863 1208.36C470.612 1206.73 473.161 1197.54 474.493 1194.07Z"/><path fill="#6F3D12" transform="matrix(0.775194 0 0 0.778598 -227.907 -782.491)" d="M474.493 1194.07C484.207 1177.65 494.608 1162.18 515.442 1162.15C522.227 1166.13 525.533 1168.34 526.668 1176.59C526.525 1177.33 526.119 1179.72 525.918 1180.29L524.543 1181.72C521.081 1178.2 527.717 1166.76 510.728 1166.52C502.525 1166.4 497.194 1171.22 491.402 1176.19C484.939 1181.74 480.342 1195.77 476.135 1198.8C476.194 1196.3 475.867 1196.63 474.493 1194.07Z"/><defs><linearGradient id="gradient_5" gradientUnits="userSpaceOnUse" x1="472.28629" y1="1217.6285" x2="468.47943" y2="1216.6376"><stop offset="0" stop-color="#883D11"/><stop offset="1" stop-color="#6F2003"/></linearGradient></defs><path fill="url(#gradient_5)" transform="matrix(0.775194 0 0 0.778598 -227.907 -782.491)" d="M474.493 1194.07C475.867 1196.63 476.194 1196.3 476.135 1198.8C470.796 1212.38 471.058 1226.24 468.258 1240.29C468.127 1240.95 466.939 1241.85 466.399 1242.29L465.813 1240.09C464.359 1231.48 468.024 1217 469.863 1208.36C470.612 1206.73 473.161 1197.54 474.493 1194.07Z"/><defs><linearGradient id="gradient_6" gradientUnits="userSpaceOnUse" x1="495.00726" y1="1181.032" x2="501.24432" y2="1249.4532"><stop offset="0" stop-color="#DFAC3C"/><stop offset="1" stop-color="#F8D348"/></linearGradient></defs><path fill="url(#gradient_6)" transform="matrix(0.775194 0 0 0.778598 -227.907 -782.491)" d="M499.141 1190.43L497.522 1189.14C498.473 1184.4 502.06 1184.64 502.285 1181.5C500.263 1180.53 499.988 1180.64 497.798 1180.42C500.63 1172.92 522.588 1164.16 517.996 1179.42C516.39 1184.76 519.761 1187.75 513.701 1191.85C514.606 1196.2 508.36 1210.34 508.557 1213.75C509.047 1222.2 510.295 1233.16 510.588 1241.88C510.638 1243.37 505.793 1246.88 504.125 1247.89L503.262 1246.66C496.284 1252.85 480.629 1253.62 479.868 1241.41C478.695 1222.6 487.648 1204.73 499.141 1190.43Z"/><defs><linearGradient id="gradient_7" gradientUnits="userSpaceOnUse" x1="510.82104" y1="1173.1222" x2="509.93719" y2="1182.097"><stop offset="0" stop-color="#BD7229"/><stop offset="1" stop-color="#D28F34"/></linearGradient></defs><path fill="url(#gradient_7)" transform="matrix(0.775194 0 0 0.778598 -227.907 -782.491)" d="M499.141 1190.43L497.522 1189.14C498.473 1184.4 502.06 1184.64 502.285 1181.5C500.263 1180.53 499.988 1180.64 497.798 1180.42C500.63 1172.92 522.588 1164.16 517.996 1179.42C516.39 1184.76 519.761 1187.75 513.701 1191.85C512.244 1187.3 517.824 1188.77 515.314 1182.54C513.338 1180.85 509.322 1178.48 507.08 1180.81L510.56 1181.96C503.511 1183.26 503.046 1184.62 499.141 1190.43Z"/><path fill="#010101" transform="matrix(0.775194 0 0 0.778598 -227.907 -782.491)" d="M440.602 1116.59C443.591 1068.02 497.201 1081.49 504.759 1124.87C505.133 1134.72 504.78 1144.01 498.133 1151.97C487.467 1164.75 468.119 1161.77 456.84 1151.64C445.716 1141.66 441.646 1131.09 440.602 1116.59Z"/><path fill="#F6F9F9" transform="matrix(0.775194 0 0 0.778598 -227.907 -782.491)" d="M443.091 1110.57C451.935 1065.76 510.34 1096.29 502.173 1136.97C499.838 1172.96 439.969 1163.54 443.091 1110.57Z"/><path fill="#BFBEBD" transform="matrix(0.775194 0 0 0.778598 -227.907 -782.491)" d="M443.091 1110.57C451.935 1065.76 510.34 1096.29 502.173 1136.97C501.752 1127.57 501.191 1125.14 496.617 1116.82C490.414 1105.31 482.942 1095.64 468.812 1094.71C452.497 1093.63 452.529 1102.4 443.091 1110.57Z"/><defs><linearGradient id="gradient_8" gradientUnits="userSpaceOnUse" x1="423.80905" y1="1253.6705" x2="424.14331" y2="1228.1046"><stop offset="0" stop-color="#BC6F27"/><stop offset="1" stop-color="#E1A03D"/></linearGradient></defs><path fill="url(#gradient_8)" transform="matrix(0.775194 0 0 0.778598 -227.907 -782.491)" d="M378.71 1207.13L379.738 1207.7C381.84 1213.63 383.625 1228.22 384.599 1229.85L385.515 1229.67C390.033 1228.85 393.967 1230.26 398.241 1232.03C419.789 1240.99 438.897 1238.8 459.724 1229C461.196 1229.29 462.543 1229.56 464.036 1229.76C466.149 1227.82 466.521 1210.22 469.474 1208.2L469.863 1208.36C468.024 1217 464.359 1231.48 465.813 1240.09C437.581 1258.86 412.039 1261.36 383.757 1240.31C384.336 1231.7 380.71 1215.99 378.71 1207.13Z"/><path fill="#B09468" transform="matrix(0.775194 0 0 0.778598 -227.907 -782.491)" d="M522.43 1099.02C525.298 1098.2 529.445 1096.63 532.132 1097.52L533.759 1101.16L534.87 1101.38C539.026 1110.26 543.063 1137.08 539.479 1146.34C537.936 1158.42 531.8 1166.8 526.668 1176.59C525.533 1168.34 522.227 1166.13 515.442 1162.15C518.5 1162.02 521.668 1163.67 523.047 1163.3L527.404 1153.14C532.121 1144.09 535.525 1122.44 527.434 1114.31C525.854 1115.5 528.189 1120.27 526.255 1122.99C525.093 1120.91 525.303 1118.62 525.242 1116.19C527.442 1110.69 524.854 1104.12 522.43 1099.02Z"/><path fill="#CE8632" transform="matrix(0.775194 0 0 0.778598 -227.907 -782.491)" d="M527.404 1153.14C529.881 1161.84 523.532 1166.37 527.02 1172.11L527.954 1172.02C533.078 1166.66 536.628 1148.94 539.479 1146.34C537.936 1158.42 531.8 1166.8 526.668 1176.59C525.533 1168.34 522.227 1166.13 515.442 1162.15C518.5 1162.02 521.668 1163.67 523.047 1163.3L527.404 1153.14Z"/><path fill="#8B5923" transform="matrix(0.775194 0 0 0.778598 -227.907 -782.491)" d="M403.512 1158.79C415.632 1147.45 440.025 1147.24 446.06 1164.15C450.24 1170.43 450.386 1210.25 444.962 1216.31C442.348 1227.22 426.279 1231.13 416.471 1228.77C410.597 1227.41 405.532 1223.71 402.44 1218.53C396.53 1210.9 397.338 1199.03 397.415 1189.77C397.507 1178.73 395.939 1167.8 403.512 1158.79Z"/><path fill="#9A6725" transform="matrix(0.775194 0 0 0.778598 -227.907 -782.491)" d="M403.984 1212.43C405.492 1205.38 403.9 1194.05 412.483 1193.92C419.19 1193.83 427.988 1193.38 434.566 1193.89C442.712 1194.52 439.616 1216.46 441.481 1219.39C444.527 1217.57 442.159 1217.72 444.962 1216.31C442.348 1227.22 426.279 1231.13 416.471 1228.77C410.597 1227.41 405.532 1223.71 402.44 1218.53C404.354 1216.16 404.047 1215.56 403.984 1212.43Z"/><defs><linearGradient id="gradient_9" gradientUnits="userSpaceOnUse" x1="392.47955" y1="1164.4689" x2="414.59595" y2="1211.5671"><stop offset="0" stop-color="#6B2E10"/><stop offset="1" stop-color="#915D22"/></linearGradient></defs><path fill="url(#gradient_9)" transform="matrix(0.775194 0 0 0.778598 -227.907 -782.491)" d="M403.512 1158.79C415.632 1147.45 440.025 1147.24 446.06 1164.15L445.455 1164.09C443.66 1161.88 441.015 1157.21 438.176 1156.7L437.765 1157.77C447.474 1167.47 444.03 1168.08 443.805 1180.29C443.136 1173.58 442.167 1166.45 436.397 1162.64C418.194 1150.62 400.223 1160.08 401.923 1182.31C402.708 1192.57 400.746 1202.6 403.984 1212.43C404.047 1215.56 404.354 1216.16 402.44 1218.53C396.53 1210.9 397.338 1199.03 397.415 1189.77C397.507 1178.73 395.939 1167.8 403.512 1158.79Z"/><path fill="#622609" transform="matrix(0.775194 0 0 0.778598 -227.907 -782.491)" d="M403.512 1158.79C415.632 1147.45 440.025 1147.24 446.06 1164.15L445.455 1164.09C443.66 1161.88 441.015 1157.21 438.176 1156.7L437.765 1157.77C428.029 1153.34 419.845 1153.06 410.101 1157.47C406.824 1158.96 407.022 1159.78 403.512 1158.79Z"/><defs><linearGradient id="gradient_10" gradientUnits="userSpaceOnUse" x1="662.05908" y1="1250.2805" x2="578.29645" y2="1212.4077"><stop offset="0" stop-color="#671B20"/><stop offset="1" stop-color="#BC444E"/></linearGradient></defs><path fill="url(#gradient_10)" transform="matrix(0.775194 0 0 0.778598 -227.907 -782.491)" d="M572.239 1216.41C574.105 1212.87 572.906 1213.39 569.909 1210.48C563.026 1203.79 554.614 1196.52 553.524 1186.4C552.13 1170.14 562.624 1162.3 574.09 1176.59C578.471 1182.05 591.49 1190.32 598.513 1192.74C605.04 1194.98 611.532 1195.18 618.344 1195.37C621.134 1198.45 626.803 1203.71 628.38 1206.87L628.898 1205.27C631.126 1205.92 631.913 1207.41 633.702 1209.33C635.969 1210.79 638.402 1211.69 640.244 1213.65L640.42 1214.91C644.094 1218.36 659.862 1227.07 664.526 1226.47L665.155 1225.62C664.052 1224.24 664.452 1224.64 663.023 1223.62C663.709 1219.33 671.879 1218.44 675.384 1219.11L677.14 1220.58C673.5 1230.15 667.337 1236.64 663.594 1246.09C660.568 1253.73 649.311 1248.81 645.19 1251.39C632.797 1259.16 633.692 1262.33 618.541 1257.09C616.013 1256.22 605.032 1261.54 601.408 1258.06C594.412 1251.44 590.607 1254.97 583.501 1252.48C580.302 1251.36 580.715 1244.3 575.29 1243.78C569.945 1243.27 569.045 1231.58 568.163 1227.03C568.172 1222.95 567.909 1218.32 572.239 1216.41Z"/><defs><linearGradient id="gradient_11" gradientUnits="userSpaceOnUse" x1="597.27673" y1="1226.2264" x2="584.2973" y2="1165.7595"><stop offset="0" stop-color="#781E29"/><stop offset="1" stop-color="#C0555A"/></linearGradient></defs><path fill="url(#gradient_11)" transform="matrix(0.775194 0 0 0.778598 -227.907 -782.491)" d="M572.239 1216.41C574.105 1212.87 572.906 1213.39 569.909 1210.48C563.026 1203.79 554.614 1196.52 553.524 1186.4C552.13 1170.14 562.624 1162.3 574.09 1176.59C578.471 1182.05 591.49 1190.32 598.513 1192.74C605.04 1194.98 611.532 1195.18 618.344 1195.37C621.134 1198.45 626.803 1203.71 628.38 1206.87L628.898 1205.27C631.126 1205.92 631.913 1207.41 633.702 1209.33C635.969 1210.79 638.402 1211.69 640.244 1213.65L640.42 1214.91L636.086 1211.98C634.997 1212.29 635.154 1212.08 634.648 1213.03C631.917 1218.13 625.944 1219.61 622.898 1222.49C619.553 1225.16 614.669 1226.63 610.531 1227.57L609.791 1227.73L610.902 1227.81C607.974 1228.38 607.763 1228.29 604.754 1227.81L605.497 1227.84C601.291 1226.2 599.259 1226.18 595.591 1224.8C594.252 1224.29 593.893 1223.95 591.974 1223.33L592.07 1224.24C595.857 1229.23 598.879 1229.61 604.824 1231.68C597.703 1233.07 588.087 1222.38 582.822 1217.97C578.765 1216.41 576.597 1217.38 572.239 1216.41Z"/></g></svg>