<?xml version="1.0" encoding="utf-8" ?><svg xmlns="http://www.w3.org/2000/svg" xmlns:xlink="http://www.w3.org/1999/xlink" width="200" height="204" viewBox="0 0 200 204"><clipPath id="cl_23"><rect x="8.9645386e-05" y="-0.00012207031" width="200" height="204"/></clipPath><g clip-path="url(#cl_23)"><defs><linearGradient id="gradient_0" gradientUnits="userSpaceOnUse" x1="424.16376" y1="924.68085" x2="423.83957" y2="694.48853"><stop offset="0" stop-color="#D95728"/><stop offset="1" stop-color="#EF9442"/></linearGradient></defs><path fill="url(#gradient_0)" transform="matrix(0.75188 0 0 0.755556 -31.5789 -514.533)" d="M414.596 693.564C478.865 688.296 535.197 736.226 540.3 800.52C545.403 864.814 497.337 921.033 433.042 925.972C368.979 930.893 313.018 883.031 307.933 818.969C302.849 754.908 350.559 698.814 414.596 693.564Z"/><path fill="#E2E1E4" transform="matrix(0.75188 0 0 0.755556 -31.5789 -514.533)" d="M179.914 697.516C183.763 701.837 186.292 706.363 189.409 711.231C191.975 715.631 194.569 721.508 198.202 724.604C210.118 725.099 228.592 726.158 238.598 732.91C247.312 738.79 257.194 755.67 263.674 763.948C274.749 778.098 288.324 787.05 290.263 806.003C291.46 820.299 294.878 840.567 292.654 854.075C289.67 872.209 288.925 880.501 292.833 899.044C284.489 894.001 283.156 891.118 278.657 882.514C274.172 887.398 267.26 890.096 260.925 891.689C257.072 892.411 255.171 892.632 251.301 892.914C248.45 895.779 244.609 899.877 241.428 902.109C232.396 910.668 220.02 916.067 207.51 915.648C188.073 908.632 192.7 880.43 185.729 875.509C166.848 878.467 155.652 873.705 138.948 882.504C119.636 893.959 106.463 907.365 82.7139 896.761C81.0125 894.411 79.4552 892.481 78.2118 889.853C59.7237 866.368 67.7316 855.178 83.044 835.342C85.1197 832.147 87.1673 828.867 89.4978 825.859C96.8822 811.66 110.229 784.414 121.436 774.854C124.243 778.046 125.032 776.824 128.96 775.213L132.073 773.778L132.45 772.915C131.726 770.507 122.548 763.806 121.607 757.456L121.346 756.753C123.164 752.312 124.053 750.344 126.473 746.227C127.201 743.888 127.752 741.931 128.326 739.55L136.439 744.186C138.547 742.42 139.131 741.842 140.86 739.707C141.082 726.201 141.986 712.765 145.766 699.751C150.912 705.386 152.233 708.777 155.392 715.794C157.474 719.143 158.848 725.511 161.294 727.185C163.05 727.258 163.919 727.324 165.685 727.161L174.241 726.813C175.39 715.944 176.011 707.723 179.914 697.516Z"/><path fill="#9D4DC1" transform="matrix(0.75188 0 0 0.755556 -31.5789 -514.533)" d="M198.202 724.604C210.118 725.099 228.592 726.158 238.598 732.91C247.312 738.79 257.194 755.67 263.674 763.948C274.749 778.098 288.324 787.05 290.263 806.003C291.46 820.299 294.878 840.567 292.654 854.075C289.67 872.209 288.925 880.501 292.833 899.044C284.489 894.001 283.156 891.118 278.657 882.514C274.172 887.398 267.26 890.096 260.925 891.689C257.072 892.411 255.171 892.632 251.301 892.914C248.914 892.551 242.4 892.03 241.54 889.771C249.418 884.353 255.346 884.603 259.828 874.06C268.358 853.992 253.417 850.878 247.232 835.198C245.739 832.45 244.506 827.718 243.552 824.596C239.934 824.975 238.058 826.205 234.707 827.065C232.773 828.188 230.33 827.482 228.278 827.024C228.261 823.661 235.705 817.559 235.166 807.848C234.526 796.314 224.572 798.259 215.693 789.065C205.77 778.79 205.215 763.245 205.166 749.522L204.938 746.003L202.863 736.13L201.81 733.574C200.937 730.901 199.309 727.28 198.202 724.604Z"/><path fill="#BE4FDE" transform="matrix(0.75188 0 0 0.755556 -31.5789 -514.533)" d="M198.202 724.604C210.118 725.099 228.592 726.158 238.598 732.91C247.312 738.79 257.194 755.67 263.674 763.948C274.749 778.098 288.324 787.05 290.263 806.003C289.757 807.202 290.154 806.774 289.178 807.377C282.077 797.102 273.108 792.649 267.069 781.587L266.543 780.613L265.75 780.406C266.034 781.539 266.004 781.541 266.1 782.699C263.784 783.408 262.908 782.937 260.889 782.877C249.652 782.544 251.673 767.994 245.966 765.021C244.371 765.784 244.396 765.655 243.558 767.186C240.406 768.939 239.111 769.126 235.65 769.921C232.906 770.076 230.156 770.076 227.412 769.921C221.844 769.627 218.967 768.825 215.321 764.76C210.425 758.22 209.546 756.372 205.166 749.522L204.938 746.003L202.863 736.13L201.81 733.574C200.937 730.901 199.309 727.28 198.202 724.604Z"/><defs><linearGradient id="gradient_1" gradientUnits="userSpaceOnUse" x1="230.65453" y1="749.81488" x2="226.32976" y2="756.10944"><stop offset="0" stop-color="#9C4FAF"/><stop offset="1" stop-color="#792A90"/></linearGradient></defs><path fill="url(#gradient_1)" transform="matrix(0.75188 0 0 0.755556 -31.5789 -514.533)" d="M216.215 743.819L222.367 743.796C225.672 745.919 232.794 750.998 236.234 751.284C239.94 752.955 245.651 755.244 242.657 760.038C234.07 765.281 224.758 756.937 219.922 750.331L220.377 748.622C218.859 746.649 217.94 745.62 216.215 743.819Z"/><path fill="#9D4DC1" transform="matrix(0.75188 0 0 0.755556 -31.5789 -514.533)" d="M201.81 733.574C207.24 732.052 221.245 732.031 226.113 734.26L226.65 735.18C223.065 735.099 219.018 733.607 216.865 734.399L216.904 735.264C222.009 738.491 223.247 736.972 229.06 741.393L228.914 742.708C227.415 742.463 225.689 741.9 224.503 742.348C226.062 746.688 234.667 748.482 236.234 751.284C232.794 750.998 225.672 745.919 222.367 743.796L216.215 743.819C217.94 745.62 218.859 746.649 220.377 748.622L219.922 750.331C215.061 744.435 210.427 738.648 202.863 736.13L201.81 733.574Z"/><path fill="#E289F3" transform="matrix(0.75188 0 0 0.755556 -31.5789 -514.533)" d="M204.938 746.003L205.45 746.372C214.046 752.454 212.213 748.986 219.729 758.139L216.688 758.487C218.375 760.926 222.378 764.921 222.763 767.018L222.095 767.436C218.941 766.631 218.227 766.273 215.321 764.76C210.425 758.22 209.546 756.372 205.166 749.522L204.938 746.003Z"/><path fill="#AF41CE" transform="matrix(0.75188 0 0 0.755556 -31.5789 -514.533)" d="M243.558 767.186C244.396 765.655 244.371 765.784 245.966 765.021C251.673 767.994 249.652 782.544 260.889 782.877C262.908 782.937 263.784 783.408 266.1 782.699C266.004 781.541 266.034 781.539 265.75 780.406L266.543 780.613L267.069 781.587C273.108 792.649 282.077 797.102 289.178 807.377C290.154 806.774 289.757 807.202 290.263 806.003C291.46 820.299 294.878 840.567 292.654 854.075C289.67 872.209 288.925 880.501 292.833 899.044C284.489 894.001 283.156 891.118 278.657 882.514C274.172 887.398 267.26 890.096 260.925 891.689L260.691 890.825C252.834 890.992 255.887 893.466 245.655 890.795L245.81 890.165C248.766 888.416 249.694 889.926 252.07 889.685C258.658 889.016 266.169 884.295 270.892 880.037C274.94 877.033 275.392 875.882 277.407 871.149C277.955 873.009 277.716 872.399 278.821 874.045C282.89 865.734 289.486 864.436 280.713 856.212C277.883 853.508 280.116 850.61 275.99 847.065L274.192 847.414L275.22 849.6L274.759 849.975C264.834 841.517 257.223 825.269 261.918 812.345C262.992 813.245 263.37 813.801 264.228 814.914C266.101 810.077 262.288 803.102 260.234 798.596L259.599 799.537C257.857 799.592 257.123 799.169 255.467 798.583L255.535 797.742C258.738 794.949 259.106 794.891 258.908 790.639C261.412 788.679 263.887 787.396 264.024 784.091C261.131 782.811 258.839 783.937 255.664 784.903L255.569 783.151C245.55 775.554 248.451 777.186 244.8 767.631L243.558 767.186Z"/><path fill="#8D27B5" transform="matrix(0.75188 0 0 0.755556 -31.5789 -514.533)" d="M274.192 847.414C271.792 845.785 267.62 839.543 268.094 836.674C271.431 836.457 272.789 839.104 275.565 838.484L275.822 836.266C277.55 837.409 282.408 853.255 280.713 856.212C277.883 853.508 280.116 850.61 275.99 847.065L274.192 847.414Z"/><path fill="#8D27B5" transform="matrix(0.75188 0 0 0.755556 -31.5789 -514.533)" d="M266.342 785.352C270.478 787.062 284.454 806.824 288.05 811.242C289.015 812.428 289.754 815.833 290.037 817.435L288.128 817.291C283.723 814.693 268.514 790.78 266.342 785.352Z"/><defs><linearGradient id="gradient_2" gradientUnits="userSpaceOnUse" x1="238.98512" y1="777.22424" x2="234.18964" y2="793.22491"><stop offset="0" stop-color="#BC46DB"/><stop offset="1" stop-color="#E37AF3"/></linearGradient></defs><path fill="url(#gradient_2)" transform="matrix(0.75188 0 0 0.755556 -31.5789 -514.533)" d="M258.908 790.639C238.431 804.471 204.704 785.125 212.21 772.822L212.927 772.678C217.824 782.66 221.748 785.935 233.185 788.31C241.125 789.958 248.8 789.025 255.664 784.903C258.839 783.937 261.131 782.811 264.024 784.091C263.887 787.396 261.412 788.679 258.908 790.639Z"/><path fill="#E289F3" transform="matrix(0.75188 0 0 0.755556 -31.5789 -514.533)" d="M270.892 880.037C268.685 878.856 266.614 881.192 264.245 882.406L262.908 881.925C262.5 878.595 265.249 862.767 266.62 860.141C269.467 861.541 273.501 865.085 276.635 866.592C277.697 867.102 277.398 869.783 277.407 871.149C275.392 875.882 274.94 877.033 270.892 880.037Z"/><path fill="#AF41CE" transform="matrix(0.75188 0 0 0.755556 -31.5789 -514.533)" d="M251.114 798.675C253.837 800.515 254.805 799.973 257.892 801.022C258.392 803.525 255.174 810.641 254.018 813.078C251.781 815.359 244.615 822.217 243.552 824.596C239.934 824.975 238.058 826.205 234.707 827.065L233.666 826.165C244.452 821.234 252.265 810.926 251.114 798.675Z"/><path fill="#8D27B5" transform="matrix(0.75188 0 0 0.755556 -31.5789 -514.533)" d="M243.558 767.186L244.8 767.631C248.451 777.186 245.55 775.554 255.569 783.151C250.183 783.121 248.168 782.936 242.848 782.057C239.538 778.79 236.197 775.793 236.614 770.775L235.65 769.921C239.111 769.126 240.406 768.939 243.558 767.186Z"/><path fill="#E289F3" transform="matrix(0.75188 0 0 0.755556 -31.5789 -514.533)" d="M228.278 827.024C237.849 821.29 248.448 816.118 247.307 802.907L247.187 801.595C248.364 798.905 247.472 800.027 250.265 798.379L251.114 798.675C252.265 810.926 244.452 821.234 233.666 826.165L234.707 827.065C232.773 828.188 230.33 827.482 228.278 827.024Z"/><path fill="#8D27B5" transform="matrix(0.75188 0 0 0.755556 -31.5789 -514.533)" d="M254.018 813.078C252.988 817.207 248.792 827.054 248.985 831.834C249.078 834.141 251.246 834.126 250.589 838.518C248.551 836.946 248.695 836.499 247.232 835.198C245.739 832.45 244.506 827.718 243.552 824.596C244.615 822.217 251.781 815.359 254.018 813.078Z"/><path fill="#9D4DC1" transform="matrix(0.75188 0 0 0.755556 -31.5789 -514.533)" d="M83.044 835.342L84.2494 836.82L83.8325 838.43L84.3194 839.048C89.0946 837.917 88.3152 829.971 94.8173 828.973C98.4321 833.119 100.79 841.404 103.715 846.183C105.497 849.097 109.321 853.273 111.624 855.914L110.972 856.553C108.734 855.512 107.975 854.96 105.921 853.539C109.054 860.53 125.542 870.781 132.343 874.427L129.401 875.526L129.34 876.398C136.445 880.017 132.534 875.922 137.822 881.94L138.948 882.504C119.636 893.959 106.463 907.365 82.7139 896.761C81.0125 894.411 79.4552 892.481 78.2118 889.853C59.7237 866.368 67.7316 855.178 83.044 835.342Z"/><path fill="#533578" transform="matrix(0.75188 0 0 0.755556 -31.5789 -514.533)" d="M137.822 881.94L138.948 882.504C119.636 893.959 106.463 907.365 82.7139 896.761C81.0125 894.411 79.4552 892.481 78.2118 889.853L79.4113 890.265C84.7953 897.208 96.2458 903.035 104.617 898.206C103.086 896.498 98.6804 897.769 96.0153 895.735L97.6174 895.381L95.0081 894.221L95.2068 893.616C108.814 894 107.44 886.381 120.47 887.749L120.839 888.271C119.234 890.473 118.765 890.919 116.489 892.41L116.949 893.08C120.849 893.018 133.18 884.228 137.822 881.94Z"/><path fill="#220243" transform="matrix(0.75188 0 0 0.755556 -31.5789 -514.533)" d="M77.0282 859.651C88.4884 854.702 90.8473 868.831 82.8496 873.669C81.1585 873.043 81.0163 872.84 79.5228 871.775C76.7404 866.151 82.6895 866.546 77.0282 859.651Z"/><path fill="#BE4FDE" transform="matrix(0.75188 0 0 0.755556 -31.5789 -514.533)" d="M90.7571 863.816L92.5753 865.357C93.1204 867.814 93.0807 866.528 91.9741 869.338C90.4439 867.211 90.704 866.441 90.7571 863.816Z"/><path fill="#BE4FDE" transform="matrix(0.75188 0 0 0.755556 -31.5789 -514.533)" d="M145.766 699.751C150.912 705.386 152.233 708.777 155.392 715.794C157.474 719.143 158.848 725.511 161.294 727.185C163.05 727.258 163.919 727.324 165.685 727.161L174.35 727.459C174.181 729.487 173.881 734.682 173.468 736.409L173.901 737.457C170.019 739.684 168.724 740.339 165.398 743.381C163.26 751.124 165.139 752.568 164.48 758.851C160.889 754.647 160.807 754.606 155.336 755.395C153.28 758.247 153.038 759.281 151.885 762.648C152.518 771.415 151.82 772.699 155.591 780.516C148.727 776.586 146.255 775.399 141.339 768.989C138.143 771.855 136.313 773.014 132.073 773.778L132.45 772.915C131.726 770.507 122.548 763.806 121.607 757.456L121.346 756.753C123.164 752.312 124.053 750.344 126.473 746.227C127.201 743.888 127.752 741.931 128.326 739.55L136.439 744.186C138.547 742.42 139.131 741.842 140.86 739.707C141.082 726.201 141.986 712.765 145.766 699.751Z"/><path fill="#B3538F" transform="matrix(0.75188 0 0 0.755556 -31.5789 -514.533)" d="M145.766 699.751C150.912 705.386 152.233 708.777 155.392 715.794C154.899 719.059 157.221 723.957 158.339 727.52C152.651 729.864 143.804 733.997 140.86 739.707C141.082 726.201 141.986 712.765 145.766 699.751Z"/><path fill="#EFEEED" transform="matrix(0.75188 0 0 0.755556 -31.5789 -514.533)" d="M127.713 747.841C132.609 751.281 139.376 754.082 137.805 760.786L138.318 761.961C140.399 764.584 140.432 765.644 141.339 768.989C138.143 771.855 136.313 773.014 132.073 773.778L132.45 772.915C131.726 770.507 122.548 763.806 121.607 757.456C122.026 757.547 122.445 757.637 122.864 757.728C124.424 753.534 125.507 751.717 127.713 747.841Z"/><path fill="#AF41CE" transform="matrix(0.75188 0 0 0.755556 -31.5789 -514.533)" d="M121.607 757.456C122.026 757.547 122.445 757.637 122.864 757.728C126.293 761.553 129.334 764.108 133.225 767.488C134.558 765.528 136.417 762.587 137.805 760.786L138.318 761.961C140.399 764.584 140.432 765.644 141.339 768.989C138.143 771.855 136.313 773.014 132.073 773.778L132.45 772.915C131.726 770.507 122.548 763.806 121.607 757.456Z"/><path fill="#B9CFE2" transform="matrix(0.75188 0 0 0.755556 -31.5789 -514.533)" d="M138.318 761.961C140.399 764.584 140.432 765.644 141.339 768.989C138.143 771.855 136.313 773.014 132.073 773.778L132.45 772.915C135.448 771.38 137.104 765.251 138.318 761.961Z"/><path fill="#533578" transform="matrix(0.75188 0 0 0.755556 -31.5789 -514.533)" d="M173.468 736.409L173.901 737.457C170.019 739.684 168.724 740.339 165.398 743.381C163.26 751.124 165.139 752.568 164.48 758.851C160.889 754.647 160.807 754.606 155.336 755.395C153.28 758.247 153.038 759.281 151.885 762.648L151.605 762.637C149.062 757.432 155.639 743.295 160.73 740.367C165.568 737.585 164.735 736.952 170.514 737.43L173.468 736.409Z"/><path fill="#220243" transform="matrix(0.75188 0 0 0.755556 -31.5789 -514.533)" d="M173.468 736.409L173.901 737.457C170.019 739.684 168.724 740.339 165.398 743.381L155.75 748.432C161.092 743.541 164.146 740.831 170.514 737.43L173.468 736.409Z"/><path fill="#AB84AB" transform="matrix(0.75188 0 0 0.755556 -31.5789 -514.533)" d="M185.729 875.509L184.193 875.127L184.099 873.802C191.885 867.696 197.128 866.744 205.71 862.634C208.148 861.466 213.771 853.62 217.037 852.734L218.484 854.319C214.188 859.827 211.712 863.061 206.613 867.956C208.16 883.314 211.166 886.992 219.59 900.08L219.192 900.468L217.265 899.552C217.55 902.239 220.815 912.006 224.226 911.429C228.909 910.636 236.912 902.214 241.428 902.109C232.396 910.668 220.02 916.067 207.51 915.648C188.073 908.632 192.7 880.43 185.729 875.509Z"/><path fill="#533578" transform="matrix(0.75188 0 0 0.755556 -31.5789 -514.533)" d="M185.729 875.509L184.193 875.127L184.099 873.802C191.885 867.696 197.128 866.744 205.71 862.634C208.148 861.466 213.771 853.62 217.037 852.734L218.484 854.319C214.188 859.827 211.712 863.061 206.613 867.956C201.216 873.288 200.613 874.07 193.476 876.507C196.732 888.896 208.932 905.442 207.51 915.648C188.073 908.632 192.7 880.43 185.729 875.509Z"/><defs><linearGradient id="gradient_3" gradientUnits="userSpaceOnUse" x1="193.40575" y1="730.15106" x2="173.81265" y2="733.56573"><stop offset="0" stop-color="#883B62"/><stop offset="1" stop-color="#D35B93"/></linearGradient></defs><path fill="url(#gradient_3)" transform="matrix(0.75188 0 0 0.755556 -31.5789 -514.533)" d="M179.914 697.516C183.763 701.837 186.292 706.363 189.409 711.231C189.089 714.734 191.497 720.305 192.672 723.826C196.2 734.396 197.846 744.204 196.791 755.288C195.154 772.489 182.1 759.683 177.027 752.36C175.154 748.132 174.81 742.237 173.901 737.457L173.468 736.409C173.881 734.682 174.181 729.487 174.35 727.459L165.685 727.161L174.241 726.813C175.39 715.944 176.011 707.723 179.914 697.516Z"/><path fill="#7B5DA5" transform="matrix(0.75188 0 0 0.755556 -31.5789 -514.533)" d="M89.4978 825.859C92.748 827.423 92.0195 824.806 95.5049 824.303C100.132 843.49 111.731 857.49 128.171 867.347C129.607 867.984 133.882 873.477 135.225 873.225C148.605 870.71 160.576 867.695 174.331 866.893C184.806 866.283 197.299 860.312 205.487 854.079L206.062 853.632L207.682 853.539L208.173 854.693C206.636 856.86 204.593 859.251 204.057 861.766C210.002 857.791 218.22 845.125 221.706 844.515L222.579 845.516C223.562 844.872 224.014 844.579 224.94 843.841C223.796 848.267 221.561 850.996 218.484 854.319L217.037 852.734C213.771 853.62 208.148 861.466 205.71 862.634C197.128 866.744 191.885 867.696 184.099 873.802L184.193 875.127L185.729 875.509C166.848 878.467 155.652 873.705 138.948 882.504L137.822 881.94C132.534 875.922 136.445 880.017 129.34 876.398L129.401 875.526L132.343 874.427C125.542 870.781 109.054 860.53 105.921 853.539C107.975 854.96 108.734 855.512 110.972 856.553L111.624 855.914C109.321 853.273 105.497 849.097 103.715 846.183C100.79 841.404 98.4321 833.119 94.8173 828.973C88.3152 829.971 89.0946 837.917 84.3194 839.048L83.8325 838.43L84.2494 836.82L83.044 835.342C85.1197 832.147 87.1673 828.867 89.4978 825.859Z"/><defs><linearGradient id="gradient_4" gradientUnits="userSpaceOnUse" x1="168.24072" y1="741.58789" x2="179.30431" y2="763.20349"><stop offset="0" stop-color="#B043CD"/><stop offset="1" stop-color="#DC73F1"/></linearGradient></defs><path fill="url(#gradient_4)" transform="matrix(0.75188 0 0 0.755556 -31.5789 -514.533)" d="M173.901 737.457C174.81 742.237 175.154 748.132 177.027 752.36C177.667 758.011 184.357 765.223 183.315 768.887C178.083 770.599 168.58 763.445 164.766 760.13L164.122 760.444L164.48 758.851C165.139 752.568 163.26 751.124 165.398 743.381C168.724 740.339 170.019 739.684 173.901 737.457Z"/><path fill="#B9CFE2" transform="matrix(0.75188 0 0 0.755556 -31.5789 -514.533)" d="M121.436 774.854C124.243 778.046 125.032 776.824 128.96 775.213C119.072 786.223 110.43 796.306 102.989 809.176C100.004 814.34 95.9639 817.623 95.6806 823.74C95.622 823.928 95.5634 824.115 95.5049 824.303C92.0195 824.806 92.748 827.423 89.4978 825.859C96.8822 811.66 110.229 784.414 121.436 774.854Z"/><path fill="#8D27B5" transform="matrix(0.75188 0 0 0.755556 -31.5789 -514.533)" d="M155.336 755.395C160.807 754.606 160.889 754.647 164.48 758.851L164.122 760.444C165.286 763.171 165.818 763.193 165.506 765.69L164.271 765.694C159.544 762.266 158.252 760.191 155.336 755.395Z"/><defs><linearGradient id="gradient_5" gradientUnits="userSpaceOnUse" x1="171.23489" y1="784.48041" x2="164.46046" y2="805.0249"><stop offset="0" stop-color="#111010"/><stop offset="1" stop-color="#444345"/></linearGradient></defs><path fill="url(#gradient_5)" transform="matrix(0.75188 0 0 0.755556 -31.5789 -514.533)" d="M162.956 806.261C158.447 804.799 155.182 800.871 154.569 796.169C153.956 791.467 156.104 786.833 160.088 784.263C164.072 781.693 169.179 781.646 173.208 784.144C178.486 787.414 180.492 794.112 177.88 799.746C175.269 805.38 168.862 808.177 162.956 806.261Z"/><path fill="#040303" transform="matrix(0.75188 0 0 0.755556 -31.5789 -514.533)" d="M162.956 806.261C158.447 804.799 155.182 800.871 154.569 796.169C153.956 791.467 156.104 786.833 160.088 784.263C164.072 781.693 169.179 781.646 173.208 784.144L171.564 785.935C166.948 784.151 162.466 783.32 160.308 789.119C161.684 795.218 161.363 796 156.597 800.015C157.018 802.341 161.288 804.557 163.339 805.832L162.956 806.261Z"/><path fill="#E2E1E4" transform="matrix(0.75188 0 0 0.755556 -31.5789 -514.533)" d="M160.308 789.119C162.466 783.32 166.948 784.151 171.564 785.935L172.547 788.23C170.124 790.555 163.67 789.37 160.308 789.119Z"/><path fill="#6EC289" transform="matrix(0.75188 0 0 0.755556 -31.5789 -514.533)" d="M78.2751 723.393C75.3631 720.718 64.5714 709.089 64.3761 705.19L65.602 704.606C73.0133 705.5 83.3497 713.321 89.7334 717.684L97.4146 722.243C102.653 724.843 106.777 727.386 111.735 730.427C111.711 733.357 112.01 734.512 110.493 736.837C106.731 734.041 102.904 731.331 99.017 728.711C96.5938 736.558 97.9033 742.224 106.081 746.075C107.477 745.128 106.96 745.546 107.799 743.825C108.77 744.465 108.587 744.172 108.987 745.322C111.499 752.557 115.89 751.493 120.907 756.901L121.346 756.753L121.607 757.456C122.548 763.806 131.726 770.507 132.45 772.915L132.073 773.778L128.96 775.213C125.032 776.824 124.243 778.046 121.436 774.854C117.226 770.734 107.627 758.454 103.118 753.149L92.2413 740.617C89.3291 737.179 80.1003 726.595 78.2751 723.393ZM98.6414 728.308C95.0677 726.137 92.4513 724.197 89.1006 721.713L86.0582 727.13C88.8715 730.457 91.3627 733.34 94.3665 736.496C95.8451 733.06 96.4587 731.448 98.6414 728.308ZM77.3681 717.628C78.8905 718.958 80.4009 720.301 81.8993 721.658C83.3753 722.998 83.4547 722.994 85.4053 723.349C86.9299 722.193 86.4289 722.667 87.5038 721.026C84.7749 719.001 82.0081 717.027 79.2049 715.106L74.4119 713.848C75.3357 715.142 76.2196 716.595 77.3681 717.628Z"/><path fill="#8D27B5" transform="matrix(0.75188 0 0 0.755556 -31.5789 -514.533)" d="M103.118 753.149L104.731 751.219C111.074 750.896 113.911 765.456 120.907 756.901L121.346 756.753L121.607 757.456C122.548 763.806 131.726 770.507 132.45 772.915L132.073 773.778L128.96 775.213C125.032 776.824 124.243 778.046 121.436 774.854C117.226 770.734 107.627 758.454 103.118 753.149Z"/><path fill="#E05345" transform="matrix(0.75188 0 0 0.755556 -31.5789 -514.533)" d="M78.2751 723.393C75.3631 720.718 64.5714 709.089 64.3761 705.19L65.602 704.606C73.0133 705.5 83.3497 713.321 89.7334 717.684C89.4429 718.129 87.7252 720.817 87.5038 721.026C84.7749 719.001 82.0081 717.027 79.2049 715.106L74.4119 713.848C75.3357 715.142 76.2196 716.595 77.3681 717.628C77.5703 719.72 77.6225 721.383 78.2751 723.393Z"/><path fill="#FDE0DF" transform="matrix(0.75188 0 0 0.755556 -31.5789 -514.533)" d="M74.4119 713.848C72.5461 711.995 69.071 709.102 68.1795 706.972C71.6236 707.347 76.5355 711.588 79.3332 713.774L79.2049 715.106L74.4119 713.848Z"/><path fill="#8FC53D" transform="matrix(0.75188 0 0 0.755556 -31.5789 -514.533)" d="M89.7334 717.684L97.4146 722.243L97.7054 723.193C98.4091 725.442 99.2175 725.973 98.6414 728.308C95.0677 726.137 92.4513 724.197 89.1006 721.713L86.0582 727.13C88.8715 730.457 91.3627 733.34 94.3665 736.496C93.5897 738.583 93.618 738.777 92.2413 740.617C89.3291 737.179 80.1003 726.595 78.2751 723.393C77.6225 721.383 77.5703 719.72 77.3681 717.628C78.8905 718.958 80.4009 720.301 81.8993 721.658C83.3753 722.998 83.4547 722.994 85.4053 723.349C86.9299 722.193 86.4289 722.667 87.5038 721.026C87.7252 720.817 89.4429 718.129 89.7334 717.684Z"/><path fill="#4498BE" transform="matrix(0.75188 0 0 0.755556 -31.5789 -514.533)" d="M111.735 730.427C114.8 731.939 126.475 737.558 128.326 739.55C127.752 741.931 127.201 743.888 126.473 746.227C122.1 743.629 117.688 741.1 113.236 738.641C111.185 738.676 112.183 738.448 110.339 739.885L109.956 739.512L110.493 736.837C112.01 734.512 111.711 733.357 111.735 730.427Z"/></g></svg>