<?xml version="1.0" encoding="utf-8" ?><svg xmlns="http://www.w3.org/2000/svg" xmlns:xlink="http://www.w3.org/1999/xlink" width="200" height="200" viewBox="0 0 200 200"><clipPath id="cl_17"><rect y="-0.00021934509" width="200" height="200"/></clipPath><g clip-path="url(#cl_17)"><defs><linearGradient id="gradient_0" gradientUnits="userSpaceOnUse" x1="358.94839" y1="195.97897" x2="362.91547" y2="37.652264"><stop offset="0" stop-color="#DD9C3D"/><stop offset="1" stop-color="#FFDF5B"/></linearGradient></defs><path fill="url(#gradient_0)" transform="matrix(1.0989 0 0 1.10497 -296.703 -29.8345)" d="M357.766 37.0232C401.926 35.1858 439.22 69.4677 441.076 113.605C442.933 157.743 408.65 195.033 364.491 196.906C320.307 198.781 282.973 164.491 281.115 120.327C279.257 76.1637 313.58 38.8617 357.766 37.0232Z"/><defs><linearGradient id="gradient_1" gradientUnits="userSpaceOnUse" x1="361.19882" y1="109.03956" x2="361.01215" y2="62.65554"><stop offset="0" stop-color="#FCEA53"/><stop offset="1" stop-color="#FFF9A9"/></linearGradient></defs><path fill="url(#gradient_1)" transform="matrix(1.0989 0 0 1.10497 -296.703 -29.8345)" d="M332.125 51.1755C335.152 49.7499 340.628 48.0922 343.93 47.2187C358.632 43.3293 370.154 44.3596 384.554 48.8946C400.294 53.8975 413.709 64.9924 421.991 79.2341C423.923 82.5567 416.81 88.0581 414.307 89.2551C413.694 89.5486 413.207 89.594 412.689 90.0899L414.269 91.2703C417.69 92.3319 422.443 96.5998 424.446 99.4755C426.444 102.345 429.84 109.926 428.879 113.455C428.277 113.601 428.45 113.658 428.042 113.412C424.774 105.987 414.882 95.3203 406.314 95.1328C405.063 95.474 401.137 95.7588 399.602 96.2249C398.801 96.655 398.376 98.236 397.693 98.7027C379.806 110.924 356.412 111.307 336.124 105.588C331.301 104.228 326.113 99.8689 321.941 97.4421C320.97 94.8726 318.263 95.6813 315.637 95.1389C308.432 95.635 302.29 101.135 298.068 106.654C297.295 107.663 294.275 112.539 293.618 112.86C293.024 111.357 294.215 108.201 294.833 106.781C295.393 105.505 295.969 104.236 296.561 102.975C296.791 100.166 299.586 97.4342 301.555 95.667C299.994 96.6725 299.514 97.2153 298.228 98.5706C300.555 94.8717 304.377 92.9042 308.107 90.7687C306.963 88.939 298.383 83.5417 300.554 79.5668C306.73 68.2584 320.017 55.7229 332.125 51.1755Z"/><defs><linearGradient id="gradient_2" gradientUnits="userSpaceOnUse" x1="361.14911" y1="73.059067" x2="360.97629" y2="45.488781"><stop offset="0" stop-color="#FEFAA3"/><stop offset="1" stop-color="#FFFFEA"/></linearGradient></defs><path fill="url(#gradient_2)" transform="matrix(1.0989 0 0 1.10497 -296.703 -29.8345)" d="M332.125 51.1755C335.152 49.7499 340.628 48.0922 343.93 47.2187C358.632 43.3293 370.154 44.3596 384.554 48.8946C386.532 50.7194 390.988 51.9961 393.391 53.3356C396.425 55.0272 405.951 60.0403 406.905 63.0738C406.349 66.3411 402.166 66.7831 399.421 67.3885C386.431 70.253 373.116 73.4318 359.756 73.5446C351.382 73.376 343.087 71.5859 334.798 70.4915C332.866 70.2365 329.964 69.0582 327.948 68.4853C324.479 67.4993 318.445 67.1146 316.05 64.2621C315.852 63.6046 315.559 63.0658 315.966 62.452C318.283 58.9557 330.45 53.2055 332.125 51.1755Z"/><path fill="#6D3F16" transform="matrix(1.0989 0 0 1.10497 -296.703 -29.8345)" d="M308.107 90.7687C314.01 87.2701 331.536 87.0191 331.552 95.6419C331.795 96.5934 331.493 97.1442 331.019 97.8884C329.249 98.2489 324.811 95.6547 322.067 95.3341C319.102 94.9875 318.791 94.8623 315.637 95.1389C308.432 95.635 302.29 101.135 298.068 106.654C297.295 107.663 294.275 112.539 293.618 112.86C293.024 111.357 294.215 108.201 294.833 106.781C295.393 105.505 295.969 104.236 296.561 102.975C296.791 100.166 299.586 97.4342 301.555 95.667C299.994 96.6725 299.514 97.2153 298.228 98.5706C300.555 94.8717 304.377 92.9042 308.107 90.7687Z"/><path fill="#EABB45" transform="matrix(1.0989 0 0 1.10497 -296.703 -29.8345)" d="M308.107 90.7687C314.01 87.2701 331.536 87.0191 331.552 95.6419C320.768 84.4455 304.088 91.5322 296.561 102.975C296.791 100.166 299.586 97.4342 301.555 95.667C299.994 96.6725 299.514 97.2153 298.228 98.5706C300.555 94.8717 304.377 92.9042 308.107 90.7687Z"/><path fill="#6D3F16" transform="matrix(1.0989 0 0 1.10497 -296.703 -29.8345)" d="M400.362 90.2316C404.612 90.0233 407.537 90.3137 411.591 91.6917C412.738 91.6244 413.149 91.5467 414.269 91.2703C417.69 92.3319 422.443 96.5998 424.446 99.4755C426.444 102.345 429.84 109.926 428.879 113.455C428.277 113.601 428.45 113.658 428.042 113.412C424.774 105.987 414.882 95.3203 406.314 95.1328C400.697 94.2827 396.747 96.3153 391.677 97.9923C391.218 98.1443 390.371 97.5754 389.982 97.3068C391.567 92.7058 395.966 91.0753 400.362 90.2316Z"/><path fill="#EABB45" transform="matrix(1.0989 0 0 1.10497 -296.703 -29.8345)" d="M414.269 91.2703C417.69 92.3319 422.443 96.5998 424.446 99.4755C426.444 102.345 429.84 109.926 428.879 113.455C428.277 113.601 428.45 113.658 428.042 113.412C428.949 112.069 427.951 108.356 427.334 106.94C424.188 99.7093 418.875 94.6875 411.591 91.6917C412.738 91.6244 413.149 91.5467 414.269 91.2703Z"/><path fill="#EABB45" transform="matrix(1.0989 0 0 1.10497 -296.703 -29.8345)" d="M401.862 88.3644C405.866 88.2946 409.008 88.4943 412.689 90.0899L414.269 91.2703C413.149 91.5467 412.738 91.6244 411.591 91.6917C407.537 90.3137 404.612 90.0233 400.362 90.2316C400.216 90.0804 400.041 89.7528 399.925 89.5586C400.61 89.1664 401.201 88.795 401.862 88.3644Z"/><path fill="#EABB45" transform="matrix(1.0989 0 0 1.10497 -296.703 -29.8345)" d="M389.982 97.3068C390.026 95.242 389.66 94.5291 390.958 92.966C393.596 89.7884 397.907 88.718 401.862 88.3644C401.201 88.795 400.61 89.1664 399.925 89.5586C400.041 89.7528 400.216 90.0804 400.362 90.2316C395.966 91.0753 391.567 92.7058 389.982 97.3068Z"/><path fill="#6D3F16" transform="matrix(1.0989 0 0 1.10497 -296.703 -29.8345)" d="M352.801 155.141C347.813 154.88 347.884 157.625 344.985 158.438L344.847 158.121C351.503 152.945 355.196 150.882 363.994 151.488C367.889 151.756 381.451 161.101 381.847 164.693C381.235 164.762 381.104 164.796 380.521 164.611L380.336 164.961L380.506 165.206L381.036 164.686L380.742 165.488C382.277 166.948 383.79 170.147 383.18 172.206L382.827 172.147C381.248 171.965 378.478 170.487 376.927 169.75C362.754 163.678 358.311 163.979 344.025 169.608C342.436 170.132 339.883 172.114 338.469 171.77C336.309 166.305 348.854 157.701 352.801 155.141Z"/><path fill="#926124" transform="matrix(1.0989 0 0 1.10497 -296.703 -29.8345)" d="M344.025 169.608C343.642 163.67 353.747 158.815 358.879 158.366C364.606 157.864 378.373 162.699 376.927 169.75C362.754 163.678 358.311 163.979 344.025 169.608Z"/><path fill="#EDAB4E" transform="matrix(1.0989 0 0 1.10497 -296.703 -29.8345)" d="M352.801 155.141C347.813 154.88 347.884 157.625 344.985 158.438L344.847 158.121C351.503 152.945 355.196 150.882 363.994 151.488C367.889 151.756 381.451 161.101 381.847 164.693C381.235 164.762 381.104 164.796 380.521 164.611L380.336 164.961L380.506 165.206L381.036 164.686L380.742 165.488C382.277 166.948 383.79 170.147 383.18 172.206L382.827 172.147C382.361 164.797 373.041 157.539 366.709 154.73C362.042 152.661 357.378 153.205 352.801 155.141Z"/><defs><linearGradient id="gradient_3" gradientUnits="userSpaceOnUse" x1="323.17422" y1="117.65068" x2="325.08701" y2="133.87187"><stop offset="0" stop-color="#673A13"/><stop offset="1" stop-color="#9B6B29"/></linearGradient></defs><path fill="url(#gradient_3)" transform="matrix(1.0989 0 0 1.10497 -296.703 -29.8345)" d="M306.596 124.675C306.779 123.154 307.154 121.949 308.795 120.865C316.327 115.889 333.531 112.033 340.888 118.738C342.651 120.345 341.697 123.466 341.754 125.503C340.937 134.291 329.77 135.639 327.497 130.495C325.39 128.727 324.465 125.753 322.572 124.683C320.635 124.657 318.747 124.741 316.857 124.856C314.953 124.973 307.482 126.764 306.381 126.031L306.596 124.675Z"/><path fill="#926124" transform="matrix(1.0989 0 0 1.10497 -296.703 -29.8345)" d="M326.072 127.925C326.325 126.433 326.365 125.498 327.724 124.597C331.145 122.329 337.592 124.145 337.194 128.954C334.764 133.333 327.364 128.73 326.861 129.019C327.05 129.441 327.362 130.077 327.497 130.495C325.39 128.727 324.465 125.753 322.572 124.683C324.806 124.797 324.973 126.019 326.072 127.925Z"/><path fill="#EABB45" transform="matrix(1.0989 0 0 1.10497 -296.703 -29.8345)" d="M306.596 124.675C306.779 123.154 307.154 121.949 308.795 120.865C316.327 115.889 333.531 112.033 340.888 118.738C342.651 120.345 341.697 123.466 341.754 125.503C341.217 119.928 337.514 117.021 332.02 116.77C322.649 116.342 313.825 118.389 306.596 124.675Z"/><defs><linearGradient id="gradient_4" gradientUnits="userSpaceOnUse" x1="396.02756" y1="117.66052" x2="397.70239" y2="133.50606"><stop offset="0" stop-color="#673A14"/><stop offset="1" stop-color="#9A6927"/></linearGradient></defs><path fill="url(#gradient_4)" transform="matrix(1.0989 0 0 1.10497 -296.703 -29.8345)" d="M378.759 126.205C379.183 125.306 379 124.623 378.87 123.64C382.706 116.847 405.333 112.415 411.897 117.538C412.887 118.311 412.753 118.937 412.799 120.049C418.608 131.118 405.409 140.908 395.937 125.01C392.95 124.884 391.076 124.799 388.1 125.096C385.549 125.351 381.076 126.367 378.759 126.205Z"/><path fill="#EABB45" transform="matrix(1.0989 0 0 1.10497 -296.703 -29.8345)" d="M378.759 126.205C379.183 125.306 379 124.623 378.87 123.64C382.706 116.847 405.333 112.415 411.897 117.538C412.887 118.311 412.753 118.937 412.799 120.049C405.201 113.314 383.466 117.692 378.759 126.205Z"/><path fill="#926124" transform="matrix(1.0989 0 0 1.10497 -296.703 -29.8345)" d="M407.079 123.626L408.1 124.032C407.256 124.925 407.46 124.612 408.112 125.804C412.063 133.032 398.409 131.904 399.275 125.931C401.623 122.49 404.577 124.747 407.079 123.626Z"/><path fill="#6D3F16" transform="matrix(1.0989 0 0 1.10497 -296.703 -29.8345)" d="M407.079 123.626C404.941 123.06 404.463 122.824 402.546 121.707L402.905 121.756C400.292 120.79 397.238 121.329 394.611 121.774L394.443 121.564C397.677 119.283 406.039 119.808 408.918 122.797L409.188 123.556C408.741 124.035 408.883 123.885 408.1 124.032L407.079 123.626Z"/><path fill="#EABB45" transform="matrix(1.0989 0 0 1.10497 -296.703 -29.8345)" d="M360.751 38.5609C361.492 38.2102 366.584 38.8389 367.607 39.1588L367.498 39.4894L365.716 39.635L366.271 40.2092C370.644 41.7214 371.179 38.29 374.067 39.8915C373.998 40.5339 373.906 40.8371 374.261 41.3933C375.135 41.4131 375.893 41.4438 376.764 41.5171L376.521 42.105C377.331 42.9331 378.038 41.8982 379.306 42.5766L378.779 42.9225L378.728 43.2752C383.352 44.3688 396.28 48.3823 399.222 51.9801C398.352 52.1047 384.255 45.9337 382.093 45.1601C378.197 43.8024 374.216 42.7011 370.176 41.8633C362.445 40.4861 353.737 40.233 346.259 42.6488C342.461 43.8755 339.4 44.6081 335.386 44.6771C334.389 45.7629 333.817 46.0355 332.561 46.7521C331.952 46.699 331.81 46.6956 331.206 46.7886C330.849 47.7731 330.576 48.3748 329.733 48.7839L329.257 48.5263C329.338 47.1075 330.471 45.2255 331.323 44.1125C337.49 41.5684 343.538 39.8775 350.185 38.8133C351.197 38.6513 353.343 39.7226 354.232 39.5145C357.121 38.838 357.796 38.6315 360.751 38.5609Z"/></g></svg>